<?xml version="1.0" standalone="no"?>
<!DOCTYPE svg PUBLIC "-//W3C//DTD SVG 1.1//EN" "http://www.w3.org/Graphics/SVG/1.1/DTD/svg11.dtd" >
<svg xmlns="http://www.w3.org/2000/svg" xmlns:xlink="http://www.w3.org/1999/xlink" version="1.1">
<metadata>
Created by FontForge 20170731 at Fri Oct 15 13:43:03 2021
 By Aleksey,,,
Copyright 2021 Lipighor. All Rights Reserved.
</metadata>
<defs>
<font id="LiIhtishamDeshlipiUnicode-Italic" horiz-adv-x="0" >
  <font-face 
    font-family="Li Ihtisham Deshlipi Unicode"
    font-weight="400"
    font-style="italic"
    font-stretch="normal"
    units-per-em="1000"
    panose-1="2 0 5 0 0 0 0 9 0 0"
    ascent="800"
    descent="-200"
    x-height="517"
    cap-height="683"
    bbox="-551 -371 1294 1016"
    underline-thickness="40"
    underline-position="-160"
    slope="-12"
    unicode-range="U+0020-FDFA"
  />
<missing-glyph horiz-adv-x="587" 
d="M389 421h-60l-152 -53v-309h212v136h-76v-66h-56v194l56 19v-86h76v66l59 20v-196l15 -87h65v362h-63l-76 -25v25zM453 491v-43h75v117h-261l-208 -61v-445h84v389l92 29zM587 0h-587v624h587v-624z" />
    <glyph glyph-name="anji_beng" unicode="&#x9ed;&#x983;&#x983;" horiz-adv-x="403" 
d="M238 262q-12 -4 -26.5 -11.5t-29 -14.5t-27 -12t-21.5 -5q-17 0 -26.5 14t-13.5 35t-2 45t6 44q2 10 10 33t21.5 50.5t34.5 57t50 54t67 40t85 15.5q39 0 74 -8t52 -16q-22 -105 -126 -576h-121l101 474q-9 6 -27 6q-12 0 -23.5 -4.5t-21.5 -10.5t-18 -12.5t-12 -10.5
l-7 -10.5t-11.5 -18t-11.5 -22t-7 -21.5l-3 -16q-4 -16 4 -16q1 0 7 6t16 13.5t23.5 13.5t28.5 6q7 0 13 -0.5t12 -1.5q-25 -107 -70 -120z" />
    <glyph glyph-name="glyph112" unicode="&#x3c;&#x3c;" horiz-adv-x="465" 
d="M465 559q-158 0 -137 98q12 57 55.5 92t102.5 35q23 0 41.5 -7t31 -19t17.5 -28.5t1 -34.5l-5 -23l-79 -10q19 17 23 35q6 27 -18 27q-23 0 -38.5 -14.5t-19.5 -31.5q-3 -13 2.5 -23t15 -17.5t22.5 -11.5t25 -4h162l-63 -63h-139zM264 415q-27 0 -49.5 9t-37.5 25.5
t-22 40t-4 51.5q10 48 49 79t86 41l-1 -8q-6 -29 0 -57q-21 -2 -35 -13t-19 -31q-2 -12 1 -20t9 -12.5t13.5 -6t11.5 -1.5q27 0 51 28l4 7q67 -29 120 -29h98l-4 -18q-126 -9 -167 -47t-104 -38z" />
    <glyph glyph-name="glyph113" unicode="&#x3e;&#x3e;" horiz-adv-x="465" 
d="M238 559h-129l59 63h56q12 0 27 4t27.5 11.5t22 17.5t12.5 23q4 17 -5.5 31.5t-32.5 14.5q-24 0 -30 -27q-4 -18 9 -35l-75 10l5 23q4 18 16 34.5t29.5 28.5t39 19t44.5 7q58 0 87 -35t17 -92q-21 -96 -179 -98zM377 415q-64 0 -89 38t-146 47l4 18h98q53 0 132 29l2 -7
q12 -28 39 -28q4 0 11.5 1.5t15.5 6t15 12.5t9 20q5 20 -5 31t-29 13q18 28 24 57l1 8q21 -5 39 -15.5t29.5 -26t16.5 -35t0 -43.5q-9 -28 -26 -51.5t-39 -40t-48.5 -25.5t-53.5 -9z" />
    <glyph glyph-name="signavagraha_beng" unicode="&#x9b9;&#x983;&#x983;" horiz-adv-x="429" 
d="M248 -141l-229 200l52 86q3 4 12.5 19t25.5 43q13 -2 25 -3t23 -1q24 0 52 6.5t53.5 20.5t45 36t26.5 53q9 41 -7.5 69.5t-61.5 31.5q-10 0 -22 -3t-23.5 -9.5t-20 -16.5t-11.5 -23q-2 -11 2 -19.5t12 -13.5t18.5 -7.5t20.5 -2.5q8 0 17 1.5t19 3.5q-15 -18 -32.5 -42.5
t-40.5 -55.5l-27 10q-40 15 -62 53.5t-10 94.5q7 34 26.5 63t47 49.5t60 32t66.5 11.5q65 0 102.5 -24.5t54.5 -59.5t18 -73.5t-5 -66.5q-9 -45 -36 -86.5t-62.5 -74.5t-76 -57t-78.5 -34l203 -102zM351 559h-242l65 63h239z" />
    <glyph glyph-name="isshar_beng" unicode="&#x988;&#x983;&#x983;" horiz-adv-x="476" 
d="M98 205l19 187q61 -20 106 -20q184 0 333 355l61 -32q-44 -111 -98.5 -201.5t-120 -154.5t-140.5 -99t-160 -35zM239 395q-22 0 -41.5 8.5t-33.5 23t-20.5 34t-1.5 42.5q5 24 21 45.5t37.5 38t46.5 26.5t49 10q23 0 42 -8.5t31.5 -22.5t17.5 -32t1 -38
q-6 -30 -22.5 -53.5t-38 -40t-45 -25t-43.5 -8.5zM248 472q24 0 45 16t25 36q2 9 -4.5 16.5t-20.5 7.5q-8 0 -20 -3t-25 -9.5t-23 -16.5t-13 -23q-2 -13 11 -18.5t25 -5.5z" />
    <glyph glyph-name="sallallahoualayhewasallam_arab.isol" unicode="&#x9b8;&#x9be;&#x983;&#x983;" horiz-adv-x="1201" arabic-form="isolated" 
d="M879 -18h-43l9 42l-6 -2q-9 -5 -12 -16l-19 -1l1 3q1 8 -2.5 14.5t-13.5 6.5q-20 0 -23 -17q-2 -8 0.5 -10.5t6.5 -2.5q7 0 9 11l1 8l16 -9l-2 -5q-3 -8 -12 -15t-20 -7q-14 0 -20 10t-3 22l2 8q5 14 19.5 24t27.5 10h1q21 0 31 -13q11 9 24 9l11 52h-3q-10 0 -15.5 -6
t-7.5 -14l-24 -1q2 11 -3 19t-18 8q-23 0 -28 -23q0 -2 1 -7t9 -5q5 0 8 4.5t4 8.5v9l20 -10l-2 -6q-5 -11 -15.5 -18.5t-24.5 -7.5q-16 0 -23 12t-4 26l2 9q3 14 21 27t38 13q23 0 37 -15q12 10 27 10l8 -1l3 16h-143l-32 -153h-48l32 153h-24l-32 -153h-48l3 17
q-4 9 -20 14q-7 -15 -23.5 -25t-40.5 -10q-45 0 -38 33q2 11 12 20.5t24 9.5t19 -6l-10 -18q-1 6 -8 6q-10 0 -12 -9q-1 -1 1 -6t15 -5t20.5 7.5t9.5 16.5q2 10 -5.5 14.5t-16 10t-15 16t-1.5 32.5q3 14 13 35h-40l-32 -153h-47l32 153h-24l-32 -153h-48l3 15q-19 3 -38 3
q-24 0 -38 -4l-27 55q53 19 56 31q0 1 -5 7t-11.5 13.5t-12 16t-7.5 16.5h-13l21 17h960l-20 -17h-15l-32 -153h-47l11 51q-10 12 -30 15q-34 0 -39 -24q-2 -6 1 -12.5t11 -6.5q5 0 9 5.5t5 10.5t0 11l27 -12l-4 -7q-17 -32 -50 -32q-21 0 -34.5 14t-9.5 35q3 16 18 30.5
t32 19.5l3 10q1 28 -27 45h-23l-32 -153h-48l32 153h-24zM909 435h-44l9 42q-6 0 -11 -5t-6 -12l-20 -2l1 3q2 8 -2 14.5t-14 6.5q-20 0 -23 -17q-2 -8 1 -10.5t6 -2.5q7 0 9 11l1 8l16 -8l-2 -6q-3 -8 -12.5 -15t-18.5 -7q-14 0 -19.5 9.5t-3.5 23.5l2 7q3 13 17.5 23.5
t28.5 10.5l1 1q21 0 32 -13q11 9 24 9l10 51l-2 1q-10 0 -16 -6.5t-8 -14.5l-24 -1q2 11 -2.5 19t-17.5 8q-23 0 -28 -23q-1 -2 0.5 -6.5t8.5 -4.5q5 0 8 4.5t4 8.5l1 8l20 -9l-2 -7q-6 -11 -16.5 -18t-24.5 -7q-15 0 -22.5 11t-4.5 27l2 9q5 13 21.5 26t37.5 13
q23 0 37 -15q12 10 27 10h8l4 15h-143l-33 -153h-48l33 153h-24l-37 -170h-43l9 42q-6 0 -11 -5t-6 -12l-21 -2l2 3q2 8 -2 14.5t-14 6.5q-20 0 -23 -17q-2 -8 0.5 -10.5t5.5 -2.5q8 0 10 11q1 2 0 8l17 -8l-2 -6q-4 -9 -13 -15.5t-19 -6.5q-14 0 -19.5 9.5t-3.5 23.5l2 7
q2 11 16.5 22.5t30.5 11.5l1 1q20 0 31 -13q11 9 25 9l10 51l-2 1q-11 0 -17 -6t-8 -15l-24 -1q2 11 -2.5 19t-16.5 8q-24 0 -29 -23q0 -2 1.5 -6.5t8.5 -4.5q4 0 7.5 4.5t4.5 8.5q1 2 0 8l21 -9l-3 -7q-6 -11 -16.5 -18t-23.5 -7q-16 0 -23 11t-4 27l2 9q3 13 21 26t38 13
q23 0 37 -15q12 10 27 10h8l4 15h-143l-33 -153h-48l33 153h-24l-33 -153h-48l4 18q-5 10 -20 13q-8 -14 -26 -24.5t-39 -10.5q-23 0 -32.5 9.5t-6.5 23.5q6 26 38 31q12 -1 19 -6l-10 -19q-4 6 -10 6q-10 0 -12 -8q0 -2 2.5 -7t15.5 -5q12 0 20 7.5t10 16.5q2 10 -3.5 15
t-13 9.5t-15 12t-8.5 24.5l1 12q3 15 14 35h-31l19 17h950l-20 -17h-177l-33 -153h-47l33 153h-24zM951 219h-47l32 154h-167l-32 -154h-48l32 154h-24l-32 -154h-44l15 74h-4q-11 0 -17.5 -7t-8.5 -16l-28 -2q3 14 -2.5 23t-19.5 9q-11 0 -20.5 -6t-11.5 -17q-2 -9 1 -13
l1 -1q2 0 3 -1.5t5 -1.5q5 0 8.5 5t4.5 10q1 4 1 10l23 -11l-2 -7q-8 -13 -20.5 -22t-26.5 -9q-18 2 -26 14t-4 30q6 29 26 42.5t43 13.5q29 0 43 -17q15 12 31 12l9 -1l9 43h-162l-32 -154h-46l32 154h-24l-32 -154h-47l5 24l-35 16l-6 -4q-41 -30 -95 -30q-22 0 -25 1
l-2 64q26 -18 51 -18q17 0 34.5 9.5t20.5 25.5q5 21 -22 26q-7 0 -13 -3t-8 -9q-3 -14 18 -21l-42 -13l-4 8q-6 13 -3 25q4 20 24.5 34t45.5 14q12 0 23.5 -5.5t19.5 -14.5t11.5 -20.5t1.5 -23.5q-3 -10 -7 -17l20 -7l19 93h-176l21 17h665q5 9 6 15q1 8 -5 14q-5 5 -15 6
h47l4 19q15 -14 11 -36q-2 -10 -8 -18h12v7t1 7q5 23 31 37h25l2 12q6 2 11.5 3t11.5 2l64 -44q-15 4 -30 5q-15 2 -29 2q-41 0 -45 -20l-1 -11h184l-20 -17h-158zM1100 415l-79 55l29 41l15 -2q18 0 36.5 8t21.5 25q6 26 -11 26q-12 0 -15 -13q0 -7 3 -10q2 -2 3 -2l-27 1
q-7 8 -4 22q1 5 3 6l-3 1q-8 0 -13 -4.5t-6 -9.5q-3 -11 10 -11l4 1l-4 -19h-3q-16 0 -25.5 9.5t-6.5 25.5q4 17 18.5 26t33.5 9q14 0 22 -4q9 3 20 3q29 0 41 -13.5t10 -27.5l-3 -15q-3 -23 -28 -42.5t-53 -27.5l69 -28zM1047 181l-79 55l29 40l15 -1q21 -2 38 8.5t20 23.5
q5 22 -24 28q-6 0 -14.5 -2.5t-10.5 -12.5q-1 -5 4.5 -8t13.5 -3l12 1q-5 -5 -10.5 -12t-12.5 -15q-16 2 -27.5 14t-8.5 29q5 20 24 31.5t41 11.5q38 0 51.5 -19.5t8.5 -41.5q-4 -21 -27.5 -42.5t-53.5 -26.5l69 -28zM832 181l-78 55l16 23q2 2 12 17l16 -1q17 -1 35.5 8
t21.5 24q5 23 -24 28q-5 0 -14 -2.5t-11 -12.5q-1 -5 5 -8t14 -3l12 1l-24 -27q-17 2 -27.5 14t-7.5 29q4 19 23 31t42 12q37 0 50.5 -19t8.5 -42q-4 -22 -28 -43t-52 -26l69 -28zM105 -1q-10 0 -21 2t-20.5 4.5t-16.5 5t-9 3.5l22 65q7 -18 23.5 -32.5t36.5 -14.5
q9 0 16 3.5t10 8.5q2 6 -4 9l-14 -3l-3 30q11 1 25 9t16 20q3 11 -4 19.5t-19 8.5q-8 0 -15.5 -5t-8.5 -10q-1 -6 4.5 -8t9.5 -2q8 0 16 4l-9 -24q-6 -1 -10 -1.5t-8 -0.5q-18 0 -27 10t-6 24q4 18 22.5 31.5t43.5 13.5q31 0 44 -17.5t9 -38.5q-3 -12 -10 -21.5t-18 -20.5
q6 -10 4 -27q-6 -22 -31 -33.5t-48 -11.5zM360 510l21 95h-41q-35 -15 -41 -44q0 -2 5.5 -7.5t13 -12.5t14 -13t7.5 -10q15 -2 21 -8zM589 57l20 95h-41q-33 -15 -39 -44q0 -2 5 -7.5t12 -12t13.5 -13.5t8.5 -11q15 0 21 -7zM298 57q13 0 26 -3l21 98h-66q3 -7 9 -15.5
t12.5 -16.5t11 -15t4.5 -10q-2 -11 -11.5 -19.5t-19.5 -14t-18 -8.5q-5 -1 -5 -2q16 6 36 6zM1107 95l12 57h-56q17 -19 15 -49q18 -1 29 -8zM753 399l15 24q7 5 13.5 3.5t14.5 -1.5q12 0 23 6.5t17 16.5l23 2l-5 -25q-33 -1 -101 -26zM283 -31q-4 4 -15 8t-18 4l-4 -1
l-3 16q14 5 30 5q18 0 31 -6zM1137 395q-17 8 -31 12l30 16zM261 51h1h-1z" />
    <glyph glyph-name="zophola_bn" unicode="&#x9cd;&#x9af;" horiz-adv-x="300" 
d="M13 -103q-4 49 -11 89.5t-15 92.5q14 -4 39 -4q29 0 57 11.5t51.5 32t40.5 50t25 65.5q5 27 0 59t-22 67q-40 75 -23 147q5 17 10 29.5l9 22.5h-65l58 63h321l-59 -63h-125q-27 -27 -36 -70q-5 -25 1.5 -52t21.5 -64q14 -24 21 -51.5t8.5 -55.5t-1 -54t-7.5 -48
q-5 -24 -13.5 -47t-27 -49t-51 -56t-86.5 -67q-71 -42 -121 -48z" />
    <glyph glyph-name=".notdef" horiz-adv-x="587" 
d="M389 421h-60l-152 -53v-309h212v136h-76v-66h-56v194l56 19v-86h76v66l59 20v-196l15 -87h65v362h-63l-76 -25v25zM453 491v-43h75v117h-261l-208 -61v-445h84v389l92 29zM587 0h-587v624h587v-624z" />
    <glyph glyph-name=".null" 
 />
    <glyph glyph-name="nonmarkingreturn" horiz-adv-x="215" 
 />
    <glyph glyph-name="NULL" 
 />
    <glyph glyph-name="NULL" 
 />
    <glyph glyph-name="space" unicode=" " horiz-adv-x="250" 
 />
    <glyph glyph-name="space" unicode="&#xa0;" horiz-adv-x="250" 
 />
    <glyph glyph-name="exclam" unicode="!" horiz-adv-x="267" 
d="M141 167l90 419q22 0 37.5 5.5t31 12.5t32.5 13t43 7l-117 -312q-10 -32 -21.5 -63t-22.5 -62zM123 131q31 23 64 23q29 0 44 -21.5t9 -49.5q-3 -14 -12 -29q0 -3 -6 -12.5t-17 -19.5t-28 -18t-39 -8q-27 0 -46.5 19.5t-12.5 51.5q4 18 15.5 35t28.5 29zM166 51
q10 6 17 16t9 19q4 18 -13 18q-15 0 -32 -13t-21 -29q-2 -9 3 -13.5t13 -4.5q10 0 24 7z" />
    <glyph glyph-name="quotedbl" unicode="&#x22;" horiz-adv-x="294" 
d="M305 519q5 37 8 68.5t8 73.5q18 0 29.5 4.5t22 10t22.5 10.5t31 6l-37 -80q-9 -17 -17.5 -36.5t-17.5 -41.5l-24 -8zM193 519l9 71q2 16 3.5 33.5t3.5 37.5q18 0 29.5 4.5t22.5 10t23 10.5t30 6l-72 -158q-8 -2 -13 -4l-11 -4z" />
    <glyph glyph-name="numbersign" unicode="#" horiz-adv-x="688" 
d="M404 159q-9 -2 -17 -2.5t-16 -1.5l-99 -13l-46 -99l-78 -26l38 114l-131 -16q10 26 23 42t27 29.5t26.5 28.5t20.5 39h76l37 110q-16 2 -34 3t-34 6l-1 69h96l35 105q25 0 43 7.5t35 16t34 16t40 7.5l-15 -36q-8 -18 -17 -37l-37 -79h90l35 105q24 0 42.5 7.5t35.5 16
t34.5 16t39.5 7.5l-31 -73l-37 -79h107q-2 -5 -4 -15q-4 -17 -2 -30.5t5.5 -27t5 -29t-2.5 -35.5l-55 7q-27 4 -54 7l-55 6q-4 -8 -7.5 -17t-8.5 -19l-16 -35h149q-9 -14 -22 -36t-25 -32q-37 -5 -72 -9t-71 -8l-58 -126l-77 -26zM369 351l-46 -97h113l29 85l-70 8
q-7 1 -13.5 1.5t-12.5 2.5z" />
    <glyph glyph-name="dollar" unicode="$" horiz-adv-x="547" 
d="M542 211q-14 -67 -73 -111t-155 -54l-22 -102h-62l21 99q-115 1 -182 35l21 99q18 -9 40 -17.5t46 -15t48.5 -10.5t45.5 -4l37 175l-36 15q-72 29 -97.5 70t-13.5 101q14 66 72.5 106.5t147.5 50.5l16 78h62l-16 -77q92 -3 172 -38l-52 -86q-69 29 -139 35l-36 -171
l33 -13q42 -16 68 -34t39.5 -38t17 -43t-2.5 -50zM431 205q5 27 -10 44.5t-57 33.5l-32 -149q86 12 99 71zM271 492q-6 -27 6.5 -44.5t52.5 -35.5l31 146q-79 -12 -90 -66z" />
    <glyph glyph-name="percent" unicode="%" horiz-adv-x="622" 
d="M138 -60l423 808l81 -25l-424 -810zM209 582q23 17 49.5 26.5t54.5 9.5q24 0 41.5 -10t28 -26t14 -36.5t-1.5 -40.5q-5 -23 -18 -47q-1 -5 -10.5 -19.5t-27.5 -30.5t-44.5 -28.5t-60.5 -12.5q-21 0 -41 7.5t-34.5 22t-20.5 35t0 47.5q6 29 24.5 56t46.5 47zM278 454
q16 11 27 26.5t14 29.5q6 28 -19 28q-12 0 -26 -5.5t-26.5 -14.5t-22 -21t-12.5 -25q-3 -14 5 -21.5t22 -7.5q18 0 38 11zM428 214q50 36 106 36q23 0 40 -10t27.5 -25.5t14.5 -36t-1 -41.5q-2 -12 -7 -24t-10 -23q-1 -5 -10.5 -20t-28 -30.5t-44.5 -28t-60 -12.5
q-21 0 -41.5 7.5t-34.5 22t-20.5 35t-1.5 46.5q7 32 27 58.5t44 45.5zM497 85q17 11 28.5 27t14.5 30q3 12 -1 20t-18 8q-12 0 -26 -5.5t-26.5 -14.5t-22 -21t-12.5 -25q-3 -14 4.5 -21.5t21.5 -7.5q18 0 37 10z" />
    <glyph glyph-name="ampersand" unicode="&#x26;" horiz-adv-x="708" 
d="M325 536q-6 -30 4 -55.5t31 -55.5q60 30 87 55.5t34 58.5q6 30 -11 48.5t-50 18.5q-36 0 -62 -19t-33 -51zM298 85q85 0 158 50l-142 176q-57 -32 -81 -59.5t-32 -62.5q-10 -46 16.5 -75t80.5 -29zM83 181q7 30 19.5 56.5t33.5 50t52 45.5t75 45q-16 26 -26.5 47
t-15.5 40t-4.5 37t4.5 38q15 72 74.5 112.5t144.5 40.5q84 0 122.5 -39.5t23.5 -108.5q-12 -54 -52 -97t-124 -86l129 -156q47 49 94 146h113q-61 -133 -150 -216l111 -136h-141l-56 68q-56 -38 -113.5 -58t-123.5 -20q-109 0 -158.5 51.5t-31.5 139.5z" />
    <glyph glyph-name="quotesingle" unicode="'" horiz-adv-x="194" 
d="M193 519l9 71q2 16 3.5 33.5t3.5 37.5q18 0 29.5 4.5t22.5 10t23 10.5t30 6l-72 -158q-8 -2 -13 -4l-11 -4z" />
    <glyph glyph-name="parenleft" unicode="(" horiz-adv-x="366" 
d="M81 96l81 381q14 64 15 72q6 28 13.5 55t26 56t52.5 63t92 76q69 42 119 51q6 -52 12 -94.5t9 -93.5q-13 6 -35 6q-53 0 -139 -47q-23 -13 -39 -40.5t-25 -66.5l-86 -407q-16 -72 18 -107q67 -47 119 -47q22 0 37 6q-25 -51 -49 -93.5t-52 -94.5q-43 8 -76.5 35t-57.5 59
t-36.5 62.5t-11.5 47.5q-1 23 0 47.5t7 49.5z" />
    <glyph glyph-name="parenright" unicode=")" horiz-adv-x="366" 
d="M366 255l-38 -183q-6 -28 -13.5 -55t-26 -56t-52.5 -63t-92 -76q-69 -42 -119 -51q-6 52 -12 94.5t-9 93.5q12 -6 35 -6q52 0 139 47q48 35 64 107l86 407q9 39 4 66.5t-22 40.5q-66 47 -119 47q-23 0 -37 -6q25 51 49 93.5t52 94.5q43 -8 76.5 -35t57.5 -59t36.5 -63
t11.5 -47q4 -45 -7 -97q-3 -8 -19 -81z" />
    <glyph glyph-name="asterisk" unicode="*" horiz-adv-x="511" 
d="M557 402l-161 -132l105 -134l-59 -23q-22 20 -44.5 43t-44.5 44q-5 -15 -10 -30.5t-11 -31.5l-22 -74l-61 -21l27 128l-120 -100l-12 53q35 36 70 70t71 71l-164 156q16 13 30.5 17.5t29 7t29 7t31.5 16.5l77 -100l27 127q19 1 32 7t26 13.5t27 14t32 7.5
q-11 -35 -22 -71t-24 -73l119 117q9 -13 10 -27t0.5 -28t0.5 -27.5t11 -26.5z" />
    <glyph glyph-name="plus" unicode="+" horiz-adv-x="576" 
d="M464 533l-70 -218q108 10 221 24q-4 -18 -13 -31t-20 -24t-20 -24t-13 -31h-183l-56 -170l-59 -21l41 191h-213l16 29q4 7 8.5 13.5t8.5 13.5l196 21l39 185q19 1 32.5 7t26 13.5t26.5 14t32 7.5z" />
    <glyph glyph-name="comma" unicode="," horiz-adv-x="222" 
d="M54 -1q17 11 33.5 17.5t30.5 13.5t23.5 16t12.5 26q5 20 -3 36.5t-31 16.5q-16 0 -26 -8q-1 -2 -7 -7t-7 -12q-2 -8 1 -12t7.5 -6.5t9.5 -3t7 -0.5q11 0 21 4q-8 -14 -17 -28t-19 -25q-2 0 -13.5 3t-22.5 12t-18 26.5t-1 46.5q8 22 20.5 36.5t27.5 22.5t30 11.5t29 3.5
q37 0 55 -16t25 -36.5t5.5 -40t-2.5 -26.5q-9 -33 -25 -53.5t-31 -32.5t-26 -17t-11 -6l-45 -17l-13.5 -4.5t-18.5 -10t-26 -21.5t-36 -40q1 8 2 15l3 14q9 43 23 67t33 35z" />
    <glyph glyph-name="hyphenminus" unicode="-" horiz-adv-x="423" 
d="M92 263l33 57l334 53q-4 -18 -13 -30.5t-20 -24t-20 -24t-13 -31.5h-301z" />
    <glyph glyph-name="period" unicode="." horiz-adv-x="230" 
d="M90 144l116 -15l-13 -132l-151 31z" />
    <glyph glyph-name="slash" unicode="/" horiz-adv-x="421" 
d="M440 727l85 -73l-409 -751l-85 73z" />
    <glyph glyph-name="zero" unicode="0" horiz-adv-x="546" 
d="M578 342q-38 -179 -113.5 -265.5t-193.5 -86.5q-115 0 -154.5 89t-2.5 263q38 181 114 266.5t193 85.5q115 0 154.5 -89t2.5 -263zM225 342q-30 -140 -14 -200t79 -60t105 61t72 199q29 137 13 198.5t-79 61.5t-105 -60.5t-71 -199.5z" />
    <glyph glyph-name="one" unicode="1" horiz-adv-x="547" 
d="M365 0h-110l94 441q17 79 30 126q-7 -6 -15 -12.5t-17 -13.5l-123 -85l-40 69l234 158h92z" />
    <glyph glyph-name="two" unicode="2" horiz-adv-x="546" 
d="M505 0h-463l18 83l213 177q60 50 97 83t59 58.5t31.5 47.5t15.5 51q10 45 -12 72t-71 27q-39 0 -79 -14.5t-96 -52.5l-43 73q67 48 125 68t118 20q97 0 143 -49.5t28 -134.5q-8 -37 -23 -68t-42.5 -64t-70.5 -71.5t-107 -89.5l-144 -115v-4h324z" />
    <glyph glyph-name="three" unicode="3" horiz-adv-x="547" 
d="M591 526q-14 -66 -60.5 -108.5t-118.5 -57.5l-1 -4q160 -23 131 -160q-21 -99 -102 -152.5t-210 -53.5q-111 0 -184 38l21 97q38 -22 84.5 -33.5t91.5 -11.5q158 0 184 121q11 55 -26.5 80.5t-131.5 25.5h-59l19 89h60q163 0 187 113q10 45 -13.5 68.5t-78.5 23.5
q-39 0 -77.5 -11t-94.5 -43l-37 77q108 69 232 69q105 0 152.5 -44.5t31.5 -122.5z" />
    <glyph glyph-name="four" unicode="4" horiz-adv-x="546" 
d="M561 149h-92l-32 -149h-107l32 149h-312l18 85l408 451h107l-95 -445h92zM381 240l37 172q9 46 18.5 83.5t17.5 66.5h-4q-10 -16 -24 -35t-32 -40l-222 -247h209z" />
    <glyph glyph-name="five" unicode="5" horiz-adv-x="547" 
d="M365 427q51 0 89.5 -14t62.5 -40.5t31.5 -64t-3.5 -85.5q-23 -109 -104 -171t-209 -62q-114 0 -171 38l21 99q33 -22 79 -33.5t89 -11.5q75 0 120.5 33t59.5 97q26 123 -130 123q-22 0 -55.5 -4.5t-58.5 -9.5l-43 28l97 334h355l-20 -97h-259l-52 -170q17 3 41.5 7
t59.5 4z" />
    <glyph glyph-name="six" unicode="6" horiz-adv-x="546" 
d="M106 291q85 401 411 401q50 0 85 -8l-19 -92q-34 11 -80 11q-110 0 -177.5 -59t-100.5 -189h6q31 38 74.5 58.5t97.5 20.5q94 0 133.5 -56t18.5 -155q-23 -108 -95.5 -170.5t-177.5 -62.5q-55 0 -95 20.5t-63 59t-28 94.5t10 127zM299 81q57 0 95.5 36t52.5 105
q13 58 -8.5 92t-79.5 34q-27 0 -52.5 -9t-46.5 -24.5t-35.5 -35.5t-19.5 -42q-6 -32 -3 -60.5t16 -49.5t33 -33.5t48 -12.5z" />
    <glyph glyph-name="seven" unicode="7" horiz-adv-x="546" 
d="M120 0l394 586h-355l20 96h473l-16 -76l-398 -606h-118z" />
    <glyph glyph-name="eight" unicode="8" horiz-adv-x="546" 
d="M420 692q97 0 144 -44.5t31 -119.5q-22 -106 -161 -167q72 -40 96 -84.5t13 -99.5q-9 -42 -32.5 -76.5t-58.5 -59t-80.5 -38t-98.5 -13.5q-112 0 -163 47.5t-32 135.5q12 58 53.5 103.5t122.5 80.5q-55 37 -72.5 79t-7.5 93q9 38 30.5 68t54 51t73.5 32.5t88 11.5z
M184 177q-11 -49 17 -75.5t88 -26.5t99.5 27.5t49.5 75.5q16 74 -97 127l-13 6q-69 -27 -102 -59.5t-42 -74.5zM401 608q-48 0 -81 -23.5t-41 -62.5q-4 -18 -3 -32.5t10 -28t27 -27t48 -28.5q63 25 91 52t36 64q8 39 -15.5 62.5t-71.5 23.5z" />
    <glyph glyph-name="nine" unicode="9" horiz-adv-x="546" 
d="M587 391q-85 -401 -411 -401q-60 0 -87 8l19 92q38 -12 81 -12q112 0 179 59.5t99 188.5h-6q-36 -42 -78 -60.5t-96 -18.5q-91 0 -131 56t-19 155q12 54 36.5 97.5t60 73.5t80.5 46.5t97 16.5q55 0 94.5 -20.5t63 -59t28.5 -94.5t-10 -127zM394 601q-57 0 -95.5 -37.5
t-52.5 -104.5q-13 -58 8.5 -91.5t78.5 -33.5q27 0 53 9t47 24t35.5 35t19.5 43q6 31 2.5 59.5t-15.5 50t-32.5 34t-48.5 12.5z" />
    <glyph glyph-name="colon" unicode=":" horiz-adv-x="230" 
d="M116 267l117 -15l-13 -132l-152 31zM172 533l117 -15l-13 -132l-151 31z" />
    <glyph glyph-name="semicolon" unicode=";" horiz-adv-x="230" 
d="M78 111q17 11 33.5 17.5t30.5 13.5t23 16t13 26q4 20 -4 36.5t-31 16.5q-16 0 -25 -8q-1 -2 -7 -7t-7 -12q-2 -8 1 -12t7.5 -6.5t9.5 -3t7 -0.5q11 0 21 4q-8 -14 -17 -28t-19 -25q-2 0 -13.5 3t-22.5 12t-18 26.5t-1 46.5q8 22 20.5 36.5t27 22.5t30 11.5t29.5 3.5
q37 0 55 -16t24.5 -36.5t5.5 -40t-2 -26.5q-9 -33 -25 -53.5t-31 -32.5t-26 -17t-11 -6l-45 -17q-7 -2 -14.5 -4.5t-18 -10t-25.5 -21.5t-36 -40q0 8 2 15l3 14q9 43 23 67t33 35zM172 533l117 -15l-13 -132l-151 31z" />
    <glyph glyph-name="less" unicode="&#x3c;" horiz-adv-x="496" 
d="M101 305l395 275l56 -145l-274 -126l207 -126l-132 -142z" />
    <glyph glyph-name="equal" unicode="=" horiz-adv-x="481" 
d="M114 367l37 77l395 33q-3 -18 -12.5 -30.5t-20.5 -24t-20 -24t-13 -31.5h-366zM75 185l38 77l395 33q-4 -18 -13 -30.5t-20 -24t-20.5 -24t-13.5 -31.5h-366z" />
    <glyph glyph-name="greater" unicode="&#x3e;" horiz-adv-x="496" 
d="M89 183l261 126l-222 126l118 145l279 -275l-364 -264z" />
    <glyph glyph-name="question" unicode="?" horiz-adv-x="448" 
d="M213 -4q-15 0 -29 5t-23.5 15t-14 23.5t-0.5 31.5q4 19 15.5 36.5t27.5 30.5t35.5 20.5t40.5 7.5q34 0 47.5 -23.5t6.5 -55.5q-3 -17 -10 -30q-1 -3 -8.5 -13t-20.5 -20.5t-30.5 -19t-36.5 -8.5zM226 185q0 39 6 70q7 31 20.5 52t30 36t34.5 26t33.5 22t27.5 23.5
t16 31.5q7 32 -7.5 55.5t-46.5 23.5q-9 0 -19 -2t-19.5 -7.5t-17 -15.5t-10.5 -25q-5 -23 33 -23q18 0 44 12q-10 -18 -19.5 -40.5t-19.5 -42.5h-4q-26 0 -48 8t-35.5 23.5t-19 37.5t0.5 49q6 30 22.5 53.5t39 39.5t50 24.5t56.5 8.5q38 0 65.5 -14.5t44 -39.5t21 -59
t-4.5 -73q-15 -73 -71 -119l-27 -20l-31 -19q-27 -16 -54.5 -38.5t-57.5 -55.5zM221 49q17 0 31.5 16t17.5 29q4 19 -14 19q-9 0 -18.5 -4.5t-18 -11.5t-14.5 -15t-8 -14q-4 -19 16 -19h8z" />
    <glyph glyph-name="at" unicode="@" horiz-adv-x="603" 
d="M252 143l19 119q7 -4 20 -6.5t32 -2.5q11 0 26 4.5t29 11t24.5 15t12.5 17.5q1 5 -13 9t-33.5 10.5t-39 17.5t-28.5 31l68 123q2 -21 15.5 -35t30.5 -23t34 -14.5t26 -9.5q11 -5 23.5 -11.5t22.5 -14.5t16 -17.5t4 -20.5q-3 -11 -13 -29.5t-29 -40.5t-47.5 -46.5
t-68.5 -46.5l49 -35q114 101 145 245q7 33 5.5 61.5t-11 50t-28.5 33.5t-47 12q-43 0 -87 -19.5t-85.5 -54.5t-78 -82.5t-63.5 -103.5q-17 -35 -23 -64q-14 -67 14.5 -106.5t88.5 -39.5l109 -88q-40 -12 -80 -12q-53 0 -95.5 24t-68.5 66t-34.5 98t4.5 119q2 11 9 35t20 62
q12 38 40 78t72 84q113 103 226 103q55 0 94.5 -26t61 -71t25.5 -104.5t-10 -125.5q-16 -78 -62 -154t-141 -149z" />
    <glyph glyph-name="A" unicode="A" horiz-adv-x="633" 
d="M514 0l-28 189h-261l-107 -189h-118l402 686h121l110 -686h-119zM477 286l-25 186q-1 7 -2.5 23.5t-3.5 35t-3.5 35t-1.5 24.5q-13 -29 -28.5 -60.5t-34.5 -65.5l-100 -178h199z" />
    <glyph glyph-name="B" unicode="B" horiz-adv-x="632" 
d="M235 683h203q141 0 195.5 -41t35.5 -130q-13 -60 -51.5 -99.5t-100.5 -49.5l-1 -5q69 -13 94.5 -53t11.5 -109q-20 -93 -95 -144.5t-190 -51.5h-247zM287 401h107q70 0 107.5 22t48.5 76q10 48 -20.5 69.5t-105.5 21.5h-97zM268 310l-46 -216h119q69 0 110.5 26t54.5 86
q22 104 -125 104h-113z" />
    <glyph glyph-name="C" unicode="C" horiz-adv-x="607" 
d="M508 597q-48 0 -90.5 -17.5t-76.5 -50.5t-58 -80.5t-37 -107.5q-27 -127 12 -191t141 -64q43 0 85 8.5t90 22.5l-21 -96q-84 -31 -188 -31q-151 0 -212 90.5t-24 261.5q17 81 53 145.5t88.5 110.5t118 70.5t140.5 24.5q103 0 184 -44l-60 -93q-30 16 -66.5 28.5
t-78.5 12.5z" />
    <glyph glyph-name="D" unicode="D" horiz-adv-x="702" 
d="M720 348q-36 -170 -148.5 -259t-290.5 -89h-191l145 683h211q81 0 141 -22.5t94.5 -65.5t45 -105.5t-6.5 -141.5zM601 345q52 245 -177 245h-97l-105 -496h79q247 0 300 251z" />
    <glyph glyph-name="E" unicode="E" horiz-adv-x="534" 
d="M477 0h-387l145 683h387l-20 -94h-275l-39 -186h257l-20 -94h-257l-46 -214h275z" />
    <glyph glyph-name="F" unicode="F" horiz-adv-x="509" 
d="M201 0h-111l145 683h386l-20 -94h-275l-45 -214h257l-20 -95h-257z" />
    <glyph glyph-name="G" unicode="G" horiz-adv-x="695" 
d="M448 370h252l-73 -342q-66 -20 -124.5 -29t-124.5 -9q-156 0 -220.5 91.5t-28.5 260.5q17 82 55.5 147t94.5 110.5t126.5 69.5t153.5 24q107 0 195 -41l-59 -93q-76 38 -158 38q-55 0 -103 -18t-85.5 -51t-64 -80.5t-39.5 -106.5q-27 -127 16.5 -191.5t151.5 -64.5
q28 0 57.5 3.5t61.5 10.5l37 176h-142z" />
    <glyph glyph-name="H" unicode="H" horiz-adv-x="719" 
d="M629 0h-112l65 308h-315l-65 -308h-112l145 683h112l-59 -279h315l59 279h112z" />
    <glyph glyph-name="I" unicode="I" horiz-adv-x="345" 
d="M310 0h-276l14 64l88 27l107 500l-77 28l13 64h276l-13 -64l-87 -28l-107 -500l76 -27z" />
    <glyph glyph-name="J" unicode="J" horiz-adv-x="286" 
d="M-36 -190q-44 0 -75 11l20 94q37 -10 66 -10q92 0 116 116l141 662h112l-140 -658q-22 -105 -82.5 -160t-157.5 -55z" />
    <glyph glyph-name="K" unicode="K" horiz-adv-x="612" 
d="M612 0h-130l-148 309l-78 -53l-54 -256h-112l145 683h112l-69 -326l345 326h127q-112 -106 -192 -180t-128 -119z" />
    <glyph glyph-name="L" unicode="L" horiz-adv-x="519" 
d="M90 0l145 683h112l-125 -587h289l-20 -96h-401z" />
    <glyph glyph-name="M" unicode="M" horiz-adv-x="883" 
d="M386 0l-77 570h-4q-9 -64 -20.5 -123t-22.5 -115l-71 -332h-101l145 683h158l74 -543h3l310 543h158l-145 -683h-107l72 338q4 21 13 58.5t18 74.5t16.5 65.5t8.5 32.5h-4l-326 -569h-98z" />
    <glyph glyph-name="N" unicode="N" horiz-adv-x="749" 
d="M659 0h-136l-220 545h-4l-5 -31q-12 -87 -28 -159l-75 -355h-101l145 683h136l220 -541h3q0 1 3.5 24t9 53.5t11 60.5t8.5 45l76 358h102z" />
    <glyph glyph-name="O" unicode="O" horiz-adv-x="753" 
d="M770 343q-36 -168 -138.5 -260.5t-256.5 -92.5q-156 0 -219 91.5t-27 262.5q36 170 138.5 260t258.5 90q153 0 216.5 -91.5t27.5 -259.5zM248 343q-27 -128 10 -192.5t137 -64.5q201 0 256 257q27 126 -9.5 190.5t-136.5 64.5t-165 -64.5t-92 -190.5z" />
    <glyph glyph-name="P" unicode="P" horiz-adv-x="589" 
d="M644 477q-23 -109 -105 -165t-212 -56h-71l-54 -256h-112l145 683h197q129 0 181.5 -52t30.5 -154zM276 349h59q87 0 133.5 30.5t60.5 93.5q12 60 -17.5 88.5t-107.5 28.5h-77z" />
    <glyph glyph-name="Q" unicode="Q" horiz-adv-x="753" 
d="M770 343q-27 -126 -92.5 -210.5t-163.5 -119.5l126 -176h-151l-96 153h-18q-156 0 -219 91.5t-27 262.5q36 170 138.5 260t258.5 90q153 0 216.5 -91.5t27.5 -259.5zM248 343q-27 -128 10 -192.5t137 -64.5q201 0 256 257q27 126 -9.5 190.5t-136.5 64.5t-165 -64.5
t-92 -190.5z" />
    <glyph glyph-name="R" unicode="R" horiz-adv-x="612" 
d="M280 366h77q79 0 120 28.5t53 85.5q13 60 -20 84.5t-109 24.5h-74zM260 273l-58 -273h-112l145 683h193q133 0 186 -49.5t32 -149.5q-27 -127 -172 -182l129 -302h-127l-106 273h-110z" />
    <glyph glyph-name="S" unicode="S" horiz-adv-x="526" 
d="M524 186q-20 -91 -96.5 -143.5t-193.5 -52.5q-116 0 -181 37l22 105q43 -22 92.5 -34.5t94.5 -12.5q66 0 103 25.5t46 67.5q4 19 1.5 34t-15.5 30t-39 30t-68 34q-86 37 -113.5 86t-13.5 117q9 43 32 77t57.5 58t78 36.5t94.5 12.5q100 0 187 -43l-55 -91q-85 38 -154 38
q-55 0 -87.5 -23.5t-40.5 -62.5q-5 -21 -2.5 -36.5t14.5 -29t36.5 -27.5t64.5 -32q47 -21 77 -41.5t45 -44t18 -51.5t-4 -63z" />
    <glyph glyph-name="T" unicode="T" horiz-adv-x="541" 
d="M326 0h-112l125 588h-201l20 95h514l-20 -95h-201z" />
    <glyph glyph-name="U" unicode="U" horiz-adv-x="710" 
d="M771 683l-94 -442q-12 -57 -40 -103t-70.5 -79t-97.5 -51t-119 -18q-127 0 -183 67.5t-31 185.5l93 440h112l-92 -432q-18 -85 13 -125t112 -40q158 0 194 166l91 431h112z" />
    <glyph glyph-name="V" unicode="V" horiz-adv-x="595" 
d="M624 683h116l-384 -683h-118l-93 683h115l52 -425q2 -14 4 -35t3 -43.5t1.5 -42t0.5 -28.5q6 18 14.5 38.5t21.5 43.5l35 69z" />
    <glyph glyph-name="W" unicode="W" horiz-adv-x="906" 
d="M721 0h-122l-29 408q-1 10 -1.5 31.5t-0.5 44.5v43q0 19 1 26q-5 -13 -13 -33q-9 -21 -18.5 -43t-19 -41.5t-14.5 -29.5l-199 -406h-121l-33 683h114l13 -398q0 -48 -0.5 -90t-2.5 -79q6 18 15 41l19 47q10 24 19 45t16 35l196 399h111l29 -401q2 -28 2 -69t-2 -97
q9 34 27 76t42 94l182 397h113z" />
    <glyph glyph-name="X" unicode="X" horiz-adv-x="595" 
d="M593 0h-128l-112 279l-231 -279h-120l302 354l-143 329h125l103 -258l212 258h121l-283 -331z" />
    <glyph glyph-name="Y" unicode="Y" horiz-adv-x="567" 
d="M362 371l228 312h122l-317 -418l-56 -265h-112l55 261l-137 422h122z" />
    <glyph glyph-name="Z" unicode="Z" horiz-adv-x="551" 
d="M520 0h-489l17 78l452 510h-335l20 95h470l-16 -78l-454 -509h355z" />
    <glyph glyph-name="bracketleft" unicode="[" horiz-adv-x="300" 
d="M461 778l-20 -97h-107q-20 -87 -59 -271l-100 -469h109l-20 -97h-226l9 43q52 242 93 439.5t75 354.5l20 97h226z" />
    <glyph glyph-name="backslash" unicode="\" horiz-adv-x="421" 
d="M292 727l89 -751l-116 -73l-90 751z" />
    <glyph glyph-name="bracketright" unicode="]" horiz-adv-x="300" 
d="M169 778h226l-198 -934h-227l20 97h109l100 469q39 184 57 271h-107z" />
    <glyph glyph-name="asciicircum" unicode="^" horiz-adv-x="478" 
d="M467 592l-56 174l-132 -184l-94 64l256 250l148 -228z" />
    <glyph glyph-name="underscore" unicode="_" horiz-adv-x="415" 
d="M36 0l33 57l334 53q-3 -18 -12.5 -30.5t-20.5 -24t-20 -24t-13 -31.5h-301z" />
    <glyph glyph-name="grave" unicode="`" horiz-adv-x="224" 
d="M242 589l-112 176q15 8 31 10q14 0 27.5 -2t34.5 -2q22 0 38 28l56 -192z" />
    <glyph glyph-name="a" unicode="a" horiz-adv-x="555" 
d="M402 0l-7 72h-4q-23 -24 -44.5 -39.5t-43.5 -25t-46.5 -13.5t-54.5 -4q-78 0 -111 41.5t-18 116.5q18 81 85.5 120.5t190.5 44.5l89 3l6 28q21 98 -73 98q-40 0 -79 -11.5t-76 -27.5l-19 78q47 22 99 33.5t97 11.5q100 0 140.5 -42.5t20.5 -135.5l-74 -348h-78zM254 75
q61 0 103.5 33.5t55.5 93.5l10 45l-67 -3q-79 -4 -119 -26.5t-50 -70.5q-7 -34 9 -53t58 -19z" />
    <glyph glyph-name="b" unicode="b" horiz-adv-x="596" 
d="M455 526q97 0 135.5 -69.5t11.5 -197.5t-96.5 -198.5t-166.5 -70.5q-99 0 -137 71h-8l-33 -61h-83l155 727h111l-37 -173l-6 -24t-8.5 -33t-8.5 -31t-5 -17h5q68 77 171 77zM407 436q-66 0 -104 -38.5t-57 -130.5l-2 -8q-20 -94 0 -136.5t89 -42.5q58 0 98 46t58 134
q38 176 -82 176z" />
    <glyph glyph-name="c" unicode="c" horiz-adv-x="474" 
d="M285 -10q-118 0 -164 68t-19 198q28 131 106.5 200.5t199.5 69.5q82 0 140 -30l-51 -88q-67 26 -110 26q-134 0 -172 -178q-18 -88 6 -131t88 -43q75 0 147 37l-20 -96q-34 -17 -68.5 -25t-82.5 -8z" />
    <glyph glyph-name="d" unicode="d" horiz-adv-x="596" 
d="M251 -10q-97 0 -136 70t-12 197q27 129 97 199t167 70q102 0 139 -75h5q2 28 5 49.5t7 38.5l40 188h110l-155 -727h-86l-6 68h-4q-69 -78 -171 -78zM299 79q69 0 107.5 38.5t56.5 123.5l3 15q21 98 -1.5 139t-90.5 41q-58 0 -99 -46t-60 -134q-18 -88 2.5 -132.5
t81.5 -44.5z" />
    <glyph glyph-name="e" unicode="e" horiz-adv-x="551" 
d="M302 -10q-60 0 -103.5 18t-69.5 52.5t-33 83.5t6 111q14 63 40.5 113t64.5 85.5t86 54t103 18.5q103 0 148.5 -62t22.5 -171l-12 -59h-344q-14 -75 15.5 -115.5t99.5 -40.5q46 0 87 8.5t90 28.5l-18 -89q-45 -19 -87 -27.5t-96 -8.5zM378 443q-52 0 -91 -33t-57 -97h234
q12 64 -10 97t-76 33z" />
    <glyph glyph-name="f" unicode="f" horiz-adv-x="347" 
d="M430 434h-127l-92 -434h-110l92 434h-85l11 51l92 34l7 33q20 93 73 136.5t141 43.5q59 0 109 -19l-46 -83q-36 13 -75 13q-72 0 -92 -93l-7 -33h127z" />
    <glyph glyph-name="g" unicode="g" horiz-adv-x="532" 
d="M625 517l-13 -61l-91 -16q7 -16 10.5 -40t-2.5 -51q-17 -79 -81.5 -125t-161.5 -46q-28 0 -44 4q-41 -23 -47 -52q-4 -17 10.5 -26t59.5 -9h90q85 0 122 -36.5t22 -105.5q-19 -88 -100.5 -135.5t-219.5 -47.5q-106 0 -153.5 37.5t-32.5 106.5q10 48 47 80.5t93 44.5
q-20 10 -29.5 30.5t-4.5 43.5q6 29 26.5 49t57.5 40q-36 17 -53 56.5t-6 90.5q18 85 80.5 131t161.5 46q22 0 45 -3t35 -6h179zM92 -80q-8 -36 20 -55t86 -19q91 0 140 26t58 68q7 33 -14.5 47.5t-86.5 14.5h-84q-46 0 -78.5 -22t-40.5 -60zM230 349q-21 -100 76 -100
q95 0 116 101q11 51 -6.5 78.5t-65.5 27.5t-78.5 -27.5t-41.5 -79.5z" />
    <glyph glyph-name="h" unicode="h" horiz-adv-x="608" 
d="M533 0h-110l68 318q12 60 -5.5 89t-69.5 29q-69 0 -110.5 -41t-62.5 -139l-54 -256h-111l155 727h111l-40 -184q-9 -44 -26 -95h6q31 37 75 57.5t98 20.5q188 0 148 -189z" />
    <glyph glyph-name="i" unicode="i" horiz-adv-x="267" 
d="M189 0h-111l110 517h111zM211 654q13 61 75 61q61 0 48 -61q-6 -28 -25.5 -44.5t-48.5 -16.5q-30 0 -42.5 16.5t-6.5 44.5z" />
    <glyph glyph-name="j" unicode="j" horiz-adv-x="267" 
d="M-23 -230q-51 0 -79 12l18 87q29 -9 63 -9q69 0 86 80l123 577h111l-124 -585q-17 -79 -68.5 -120.5t-129.5 -41.5zM211 654q13 61 75 61q61 0 48 -61q-6 -28 -25.5 -44.5t-48.5 -16.5q-30 0 -42.5 16.5t-6.5 44.5z" />
    <glyph glyph-name="k" unicode="k" horiz-adv-x="548" 
d="M243 273l78 77l192 167h126l-254 -222l158 -295h-130l-117 227l-70 -50l-38 -177h-110l155 727h110l-76 -355l-27 -99h3z" />
    <glyph glyph-name="l" unicode="l" horiz-adv-x="267" 
d="M189 0h-111l155 727h111z" />
    <glyph glyph-name="m" unicode="m" horiz-adv-x="915" 
d="M514 0h-110l68 319q13 60 -3.5 88.5t-64.5 28.5q-63 0 -101.5 -41t-58.5 -138l-55 -257h-111l110 517h87v-68h6q29 37 74.5 57t94.5 20q119 0 141 -81h7q31 38 77 59.5t100 21.5q94 0 125.5 -46t11.5 -143l-72 -337h-110l68 319q13 60 -3.5 88.5t-64.5 28.5
q-64 0 -102 -39t-56 -123z" />
    <glyph glyph-name="n" unicode="n" horiz-adv-x="608" 
d="M533 0h-110l68 318q12 60 -5.5 89t-69.5 29q-70 0 -111 -41t-61 -138l-55 -257h-111l110 517h87v-68h6q31 37 78.5 57t99.5 20q186 0 146 -189z" />
    <glyph glyph-name="o" unicode="o" horiz-adv-x="585" 
d="M592 259q-27 -127 -106.5 -198t-196.5 -71q-55 0 -96 19t-65 54.5t-31 85t6 110.5q27 127 106 197t197 70q56 0 97 -19t65 -54t30.5 -84.5t-6.5 -109.5zM216 259q-38 -179 94 -179q131 0 169 179q38 177 -94 177q-69 0 -109.5 -45t-59.5 -132z" />
    <glyph glyph-name="p" unicode="p" horiz-adv-x="596" 
d="M339 -10q-99 0 -137 71h-7q-3 -32 -5.5 -52t-4.5 -27l-45 -212h-111l159 747h89q0 -8 0.5 -25t0.5 -44h6q66 78 171 78q97 0 135.5 -69.5t11.5 -197.5q-27 -127 -96.5 -198t-166.5 -71zM407 436q-66 0 -103.5 -37.5t-55.5 -122.5l-4 -17q-20 -94 0 -136.5t89 -42.5
q57 0 97.5 46.5t58.5 133.5q38 176 -82 176z" />
    <glyph glyph-name="q" unicode="q" horiz-adv-x="596" 
d="M300 78q69 0 107.5 40t55.5 121l3 17q21 96 -1 138t-91 42q-60 0 -100 -46t-59 -134q-37 -178 85 -178zM250 -10q-97 0 -135.5 70t-11.5 197t97 198t167 71q48 0 82.5 -17.5t56.5 -59.5h3l28 68h91l-159 -747h-110l47 219q4 21 11 44t9 35h-5q-66 -78 -171 -78z" />
    <glyph glyph-name="r" unicode="r" horiz-adv-x="412" 
d="M453 526q35 0 53 -4l-32 -103q-23 6 -48 6q-33 0 -62.5 -11.5t-53 -31.5t-40 -49t-24.5 -63l-57 -270h-111l110 517h87l-5 -91h6q35 46 82 73t95 27z" />
    <glyph glyph-name="s" unicode="s" horiz-adv-x="466" 
d="M457 147q-16 -75 -79 -116t-168 -41q-103 0 -158 32l20 95q82 -42 160 -42q102 0 115 61q3 14 -0.5 25t-15 21.5t-33 21t-52.5 24.5q-41 18 -67 34t-39.5 34t-15.5 40t4 51q14 66 75 102.5t154 36.5q92 0 164 -37l-52 -82q-74 34 -134 34q-87 0 -98 -50q-3 -13 -1 -22.5
t13 -18.5t33 -20t59 -26q39 -17 64 -32.5t39 -33.5t17 -39.5t-4 -51.5z" />
    <glyph glyph-name="t" unicode="t" horiz-adv-x="376" 
d="M288 79q41 0 83 13l-18 -82q-20 -9 -49.5 -14.5t-60.5 -5.5q-156 0 -121 165l59 279h-71l10 48l85 41l60 109h68l-24 -115h147l-18 -83h-147l-59 -277q-8 -39 8 -58.5t48 -19.5z" />
    <glyph glyph-name="u" unicode="u" horiz-adv-x="607" 
d="M443 0l-1 68h-6q-30 -36 -76.5 -57t-101.5 -21q-186 0 -146 189l72 338h111l-68 -319q-25 -119 75 -119q69 0 110 41.5t62 138.5l55 258h110l-110 -517h-86z" />
    <glyph glyph-name="v" unicode="v" horiz-adv-x="512" 
d="M196 0l-86 517h116l41 -301q5 -38 7 -68.5t0 -53.5h3q12 34 59 122l169 301h117l-307 -517h-119z" />
    <glyph glyph-name="w" unicode="w" horiz-adv-x="782" 
d="M502 0l-16 241q-1 19 -3.5 63.5t-2.5 114.5h-3q-27 -63 -47 -108t-34 -71l-120 -240h-122l-34 517h112l12 -255q0 -48 -1 -88t-3 -74h3q6 16 14 37t16.5 41.5t17.5 38.5l14 28l136 272h121l18 -272q1 -9 2 -28.5t1 -41.5t-1 -42.5t-3 -31.5h4q11 29 26.5 69t40.5 92
l121 255h110l-255 -517h-124z" />
    <glyph glyph-name="x" unicode="x" horiz-adv-x="527" 
d="M249 264l-119 253h125l79 -181l158 181h124l-228 -253l127 -264h-125l-86 193l-168 -193h-125z" />
    <glyph glyph-name="y" unicode="y" horiz-adv-x="513" 
d="M110 517h120l43 -293q4 -32 6 -61t0 -57h4q10 27 28 62l193 349h119l-346 -586q-94 -161 -235 -161q-34 0 -69 8l18 87q24 -6 56 -6q41 -1 72.5 22.5t59.5 69.5l29 49z" />
    <glyph glyph-name="z" unicode="z" horiz-adv-x="457" 
d="M424 0h-392l14 68l339 365h-245l18 84h368l-16 -77l-331 -356h263z" />
    <glyph glyph-name="braceleft" unicode="{" horiz-adv-x="382" 
d="M280 -158q-42 8 -75 34t-55.5 57.5t-34.5 61t-11 45.5q-2 23 -1 46.5t7 47.5l7 24l76 70q-45 54 -78 76q-8 0 -13 -1q-25 0 -20 22q2 9 21 23.5t44.5 30.5t50.5 30.5t39 22.5q-51 48 -51 56q5 27 12.5 52.5t25 54t50.5 61.5t90 75q69 42 116 49l21 -183q-12 7 -35 7
q-7 0 -30.5 -5t-50 -14.5t-49 -23t-25.5 -31.5q-6 -27 22 -76q-4 -8 -116 -119l64 -107l-71 -60q-15 -70 17 -103q64 -46 115 -46q22 0 37 6z" />
    <glyph glyph-name="bar" unicode="|" horiz-adv-x="230" 
d="M90 147l117 -15l-13 -132l-151 31z" />
    <glyph glyph-name="braceright" unicode="}" horiz-adv-x="445" 
d="M91 -158l-20 183q11 -6 34 -6q51 0 135 46q46 33 61 103l-47 60l110 107q-65 112 -63 119q46 47 53 76q3 18 -13.5 31.5t-39 23t-44 14.5t-28.5 5q-24 0 -36 -7l98 183q41 -7 74 -33.5t56 -58t35 -61.5t12 -45q4 -43 -7 -94q-4 -9 -74 -56q10 -8 29 -22.5t37 -30.5
t31 -30.5t11 -23.5q-5 -22 -30 -22q-2 1 -11 1q-23 -11 -50 -30.5t-61 -45.5l47 -70l-5 -24q-5 -26 -12 -51.5t-25 -54t-51 -62t-90 -74.5q-69 -41 -116 -50z" />
    <glyph glyph-name="asciitilde" unicode="~" horiz-adv-x="581" 
d="M184 211l-87 76q17 22 41 39.5t49 29.5t47 18t34 6q28 0 61 -12q6 -3 10 -37q71 23 79 23h1q17 -36 32 -36q6 0 10 4q60 40 67 73q1 4 1 7.5v8.5q23 -20 45 -39.5t43 -36.5q-19 -23 -43.5 -40.5t-49 -29t-45.5 -17t-32 -5.5q-32 0 -63 11q-5 3 -10 36q-68 -22 -79 -22h-1
q-16 36 -30 36q-7 0 -12 -4q-29 -21 -47 -39.5t-19 -35.5z" />
    <glyph glyph-name="softhyphen" unicode="&#xad;" horiz-adv-x="337" 
d="M92 263l33 57l254 53q-4 -18 -13 -30.5t-20 -24t-20 -24t-13 -31.5h-221z" />
    <glyph glyph-name="softhyphen" unicode="&#x2010;" horiz-adv-x="337" 
d="M92 263l33 57l254 53q-4 -18 -13 -30.5t-20 -24t-20 -24t-13 -31.5h-221z" />
    <glyph glyph-name="periodcentered" unicode="&#xb7;" horiz-adv-x="230" 
d="M141 385l117 -15l-13 -132l-152 31z" />
    <glyph glyph-name="multiply" unicode="&#xd7;" horiz-adv-x="465" 
d="M439 489q9 -15 19.5 -19.5t22 -7.5t22 -8t19.5 -20l-186 -157l117 -157q-17 -15 -30 -19.5t-25 -7t-25 -7t-28 -20.5q-21 39 -38 69.5t-29 52.5l-16 26l-143 -122l-42 27l153 157l-3 5q-15 25 -38 67.5t-56 102.5l54 27l103 -141q24 27 58.5 61.5z" />
    <glyph glyph-name="divide" unicode="&#xf7;" horiz-adv-x="533" 
d="M92 263l33 57l452 53q-4 -18 -13 -30.5t-20 -24t-20 -24t-13 -31.5h-419zM257 217l117 -15l-13 -132l-152 31zM324 533l117 -15l-13 -132l-151 31z" />
    <glyph glyph-name="om_deva" unicode="&#x950;" horiz-adv-x="469" 
d="M209 0q-27 0 -58 6.5t-59 15.5t-49.5 19t-30.5 16q20 60 38 118t37 118q8 -30 24 -60.5t38.5 -55.5t51 -40.5t59.5 -15.5q27 0 52.5 14t28.5 32q5 19 -9 33q-38 -11 -46 -11l-3 107q17 3 37 12t38 23t32 32t18 39q4 16 3 34t-8 33t-21.5 25t-36.5 10q-5 0 -16 -1.5
t-22.5 -7.5t-22 -17t-14.5 -29q-3 -17 11.5 -25.5t28.5 -8.5q22 0 47 13q-8 -22 -15.5 -43t-13.5 -43q-32 -8 -54 -8q-24 0 -44.5 8t-33.5 23.5t-17.5 38t1.5 50.5l1 9q8 34 27.5 63t47 50.5t60.5 33.5t68 12q46 0 78.5 -18t51 -46.5t24.5 -65.5t-2 -74q-5 -21 -13.5 -41.5
t-18.5 -37.5t-18.5 -29t-13.5 -17l-27 -28q20 -37 9 -98q-8 -25 -21 -45.5t-27 -36t-27.5 -26t-22.5 -15.5q-65 -44 -147 -44zM351 669q-67 0 -99 17l13 75q19 -10 58 -10q38 0 71.5 15t61.5 41t48 59.5t31 71.5l146 -90q-22 -34 -58 -66.5t-79.5 -57.5t-93.5 -40t-99 -15z
M340 782q-4 0 -20 2t-32.5 11.5t-27 28.5t-2.5 54q5 24 19.5 46t34.5 38.5t44.5 26t50.5 9.5q39 0 60 -28.5t12 -71.5q-2 -7 -9.5 -26t-23.5 -39t-42 -35.5t-64 -15.5zM346 849q26 0 44.5 18.5t23.5 39.5q4 22 -18 22q-13 0 -25 -6t-22.5 -15t-17 -19t-8.5 -17
q-5 -23 20 -23h3z" />
    <glyph glyph-name="devanagaridanda" unicode="&#x964;" horiz-adv-x="279" 
d="M204 488l135 -38l-96 -450h-143z" />
    <glyph glyph-name="devanagaridoubledanda" unicode="&#x965;" horiz-adv-x="495" 
d="M204 488l135 -38l-96 -450h-143zM420 488l135 -38l-96 -450h-143z" />
    <glyph glyph-name="signcandrabinducomb_beng" unicode="&#x981;" 
d="M1 669q-67 0 -99 17l13 75q19 -10 58 -10q38 0 71.5 15t61.5 41t48 59.5t31 71.5l146 -90q-22 -34 -58 -66.5t-79.5 -57.5t-93.5 -40t-99 -15zM-10 782q-4 0 -20 2t-32.5 11.5t-27 28.5t-2.5 54q5 24 19.5 46t34.5 38.5t44.5 26t50.5 9.5q39 0 60 -28.5t12 -71.5
q-2 -7 -9.5 -26t-23.5 -39t-42 -35.5t-64 -15.5zM-4 849q26 0 44.5 18.5t23.5 39.5q4 22 -18 22q-13 0 -25 -6t-22.5 -15t-17 -19t-8.5 -17q-5 -23 20 -23h3z" />
    <glyph glyph-name="signanusvara_beng" unicode="&#x982;" horiz-adv-x="386" 
d="M221 -88q15 20 24.5 47.5t17.5 62.5q2 12 0.5 33t-10.5 42t-28.5 36.5t-52.5 15.5q-11 0 -29.5 -3.5t-27.5 -8.5q-9 27 -18.5 54.5t-20.5 55.5q24 14 64.5 24.5t96.5 10.5q57 -3 92 -29.5t53.5 -59.5t24 -62.5t6.5 -38.5q-47 -45 -95.5 -89.5t-96.5 -90.5zM251 308
q-10 0 -24.5 0.5t-31.5 6t-34 18.5t-31 38q-20 44 -10 88q7 37 29 71t53.5 60.5t70.5 42.5t81 16q32 0 56.5 -11.5t40 -32.5t20.5 -50t-3 -64q-6 -29 -23.5 -61.5t-45 -59.5t-65 -44.5t-83.5 -17.5zM271 414q15 0 31 8.5t29 22t22.5 29t12.5 30.5q8 37 -28 37q-5 0 -21.5 -5
t-35.5 -16t-36 -28t-22 -42q-4 -18 6 -27t27 -9h15z" />
    <glyph glyph-name="signvisarga_beng" unicode="&#x983;" horiz-adv-x="345" 
d="M232 320q-6 0 -28.5 3t-44.5 16t-36.5 39.5t-4.5 74.5q8 35 28.5 65.5t48 53t61.5 35.5t68 13q29 0 50.5 -11t35 -29.5t17.5 -44t-2 -53.5q-3 -15 -15 -42t-35.5 -54t-58.5 -46.5t-84 -19.5zM251 413q13 0 27 7.5t25.5 19.5t20 26t11.5 26q6 32 -27 32q-5 0 -19.5 -4.5
t-30.5 -14t-30.5 -24.5t-19.5 -37q-3 -15 6.5 -23t23.5 -8h13zM165 -1q-8 0 -22 0.5t-29 5.5t-30 16.5t-25 33.5q-10 18 -11.5 37t2.5 39q7 33 27 63.5t48 54t61.5 37t68.5 13.5q29 0 50.5 -11t35 -30t18 -44t-1.5 -53q-3 -14 -15 -41t-35.5 -54t-58.5 -47t-83 -20zM173 90
q16 0 31.5 7.5t28 19t21.5 26t12 28.5q7 32 -27 32q-6 0 -20.5 -5t-30.5 -14.5t-29.5 -24.5t-18.5 -35q-3 -17 7.5 -25.5t25.5 -8.5z" />
    <glyph glyph-name="a_beng" unicode="&#x985;" horiz-adv-x="696" 
d="M660 0h-139l18 85l-52 30q-25 15 -51 31q-139 -127 -309 -127q-65 0 -76 4l3 233q76 -64 151 -64q25 0 53 9t52.5 25.5t42.5 41t25 55.5q3 15 0 30.5t-11.5 29t-21.5 22t-31 8.5q-22 0 -40.5 -10t-23.5 -31q-5 -25 8.5 -45t40.5 -32l-126 -47q-1 1 -6 10.5t-9 25.5
t-5.5 37.5t3.5 47.5q9 38 30.5 69.5t51.5 54.5t64.5 35.5t69.5 12.5q41 0 74.5 -20.5t55.5 -53.5t30.5 -75t-0.5 -85q-7 -33 -22 -61l58 -24l72 337h-531l63 63h713l-61 -63h-45z" />
    <glyph glyph-name="aa_beng" unicode="&#x986;" horiz-adv-x="907" 
d="M778 559l-119 -559h-139l18 85l-103 61l-18 -16q-128 -111 -290 -111q-65 0 -76 4l3 233q75 -64 150 -64q24 0 51.5 8.5t52 24.5t43 40t25.5 55q3 16 0.5 32.5t-10.5 30t-21 22t-32 8.5q-22 0 -41 -10.5t-23 -30.5q-5 -25 8 -45t41 -32l-125 -47q-5 4 -9.5 16.5t-8 30
t-4 36.5t3.5 35q7 36 28.5 68t51 56t65 37.5t71.5 13.5q41 0 74.5 -20.5t55.5 -53.5t30.5 -75t-0.5 -85q-7 -33 -22 -61l58 -24l72 337h-530l64 63h923l-61 -63h-45l-119 -559h-140l119 559h-72z" />
    <glyph glyph-name="i_beng" unicode="&#x987;" horiz-adv-x="429" 
d="M248 -141l-229 200l52 86q3 4 12.5 19t25.5 43q13 -2 25 -3t23 -1q24 0 52 6.5t53.5 20.5t45 36t26.5 53q9 41 -7.5 69.5t-61.5 31.5q-10 0 -22 -3t-23.5 -9.5t-20 -16.5t-11.5 -23q-2 -11 2 -19.5t12 -13.5t18.5 -7.5t20.5 -2.5q8 0 17 1.5t19 3.5q-15 -18 -32.5 -42.5
t-40.5 -55.5l-27 10q-40 15 -62 53.5t-10 94.5q7 34 26.5 63t47 49.5t60 32t66.5 11.5q65 0 102.5 -24.5t54.5 -59.5t18 -73.5t-5 -66.5q-9 -45 -36 -86.5t-62.5 -74.5t-76 -57t-78.5 -34l203 -102zM557 559h-448l65 63h255q16 31 20 53q8 37 -14.5 55.5t-72.5 18.5
q-108 0 -323 -94l96 223q98 25 179 25q24 0 55 -3.5t64 -12.5t63 -24.5t51 -39.5t30.5 -57.5t-0.5 -78.5q-7 -34 -26 -65h68z" />
    <glyph glyph-name="ii_beng" unicode="&#x988;" horiz-adv-x="444" 
d="M267 -169q-43 11 -99 27l1 6q18 85 76 169q-73 2 -127.5 10t-93.5 22l85 142q13 -2 25 -3t23 -1q24 0 52 6.5t53.5 20t45 35.5t25.5 52q9 42 -6.5 71t-60.5 32q-10 0 -22 -3t-23.5 -9.5t-20 -16.5t-11.5 -23q-2 -12 2 -20t12 -13t18 -7.5t20 -2.5q15 0 36 5l-72 -98
l-27 10q-41 15 -63 54t-11 90q8 36 27.5 65.5t47 50.5t60 32.5t66.5 11.5q5 0 19 0.5t33.5 -4t42.5 -16.5t46 -37q16 -22 24 -45t10.5 -45t1 -42t-5.5 -35q-10 -47 -36.5 -87t-54.5 -66q55 19 107 63l-32 -151q-23 -30 -35 -32q-32 -27 -55.5 -64t-30.5 -69q-9 -43 -5 -72
q3 -27 6 -32q-30 7 -73 19zM572 559h-463l64 63h256q16 31 20 52q16 75 -87 75q-108 0 -323 -94l96 223q98 25 179 25q23 0 54.5 -3.5t64.5 -12.5t63 -24.5t51.5 -39.5t31 -57.5t-0.5 -78.5q-7 -35 -27 -65h82zM341 -189l-1 1z" />
    <glyph glyph-name="u_beng" unicode="&#x989;" horiz-adv-x="542" 
d="M234 18q-106 0 -215 70l52 139q15 39 28.5 74t26.5 66q12 -42 32.5 -78t47.5 -61.5t58.5 -40t64.5 -14.5q41 0 77 23t59 58q-42 -12 -93 -12q-25 0 -49.5 7t-36.5 14q13 59 20.5 91t11.5 49.5t7 27t5 22.5l23 106h-244l64 63h308q13 27 17 46q4 21 -1.5 35t-18 22.5
t-31 12t-39.5 3.5q-108 0 -267 -81l96 226q40 12 122 12q23 0 54.5 -3.5t65 -12.5t64.5 -24.5t53.5 -40t32 -58t0.5 -79.5q-7 -31 -23 -58h125l-61 -63h-194q-41 -191 -40 -197q5 -24 41 -24q15 0 35 8l7 27l85 27q0 -5 -2 -12l-3 -15q-1 -8 -9 -37.5t-24.5 -69t-43 -83.5
t-66.5 -80.5t-95 -60.5t-127 -24z" />
    <glyph glyph-name="uu_beng" unicode="&#x98a;" horiz-adv-x="593" 
d="M193 3q-53 0 -102 14t-80 36q18 25 72 114q47 -87 145 -88q-32 15 -54.5 34.5t-36.5 38.5t-20.5 34t-7.5 21q47 105 93 210q9 -45 28 -82.5t44.5 -64t56 -41t62.5 -14.5q55 0 98 41q-29 -3 -47 -3l-23 3q-38 5 -68 19q13 55 20 86t11.5 48t6.5 26t5 22l22 102h-309l64 63
h373q13 27 17 46q9 41 -18.5 57t-70.5 16q-107 0 -329 -95q25 57 49 113t47 113q104 26 184 26q23 0 54 -3.5t64.5 -12.5t64.5 -24.5t53.5 -40t32 -58t0.5 -79.5q-7 -31 -23 -58h112l-61 -63h-181q-38 -180 -38 -186q5 -24 40 -24q5 0 16 2q17 33 20 51q21 5 41 10.5
t41 11.5l-2 -12q-18 -85 -63 -160.5t-122 -131.5q-58 -57 -132 -87t-149 -30z" />
    <glyph glyph-name="vocalicr_beng" unicode="&#x98b;" horiz-adv-x="763" 
d="M418 221l31 146l-142 -123h8q19 0 32.5 -1t24.5 -3.5t21.5 -7t24.5 -11.5zM513 0h-142l13 63q-19 19 -46 37t-57.5 32t-61.5 22t-56 8l-15 -1q-14 1 -21.5 8t-4.5 20q2 9 11 19l246 218l-18 33q-83 -93 -142 -93q-23 0 -42 13t-31 33.5t-17 44.5t0 46q11 54 72 119
l73 -21q-26 -42 -32 -68q-4 -19 3.5 -34t27.5 -15q39 0 74 114l97 -20l31 -65l6 5l22 104h142l-77 -363l65 -34l84 397h236l-62 -63h-45l-108 -509h-142l7 37l-64 37z" />
    <glyph glyph-name="e_beng" unicode="&#x98f;" horiz-adv-x="500" 
d="M93 -71l-78 146q19 21 44 40t53.5 33.5t56.5 22.5t55 8q75 0 130 -34l68 319q-7 20 -24 32.5t-42 12.5q-23 0 -41 -16.5t-23 -39.5q0 -2 -0.5 -11t2.5 -18.5t11 -17.5t25 -8q15 0 24.5 3.5t10.5 4.5l-65 -91q-5 0 -25 9q-42 17 -60 52.5t-6 94.5q7 34 25.5 62.5t44 48.5
t56.5 31t63 11q43 0 76 -16t53.5 -43.5t27.5 -65t-2 -79.5l-89 -420h-141l9 40q-35 15 -69 15q-28 0 -55 -11t-49.5 -29t-39.5 -40.5t-26 -45.5z" />
    <glyph glyph-name="ai_beng" unicode="&#x990;" horiz-adv-x="635" 
d="M93 -71l-78 146q19 21 44 40t53.5 33.5t56.5 22.5t55 8q75 0 130 -34l68 319q-7 20 -24 32.5t-42 12.5q-23 0 -41 -16.5t-23 -39.5q0 -2 -0.5 -11t2.5 -18.5t11 -17.5t25 -8q15 0 24.5 3.5t10.5 4.5l-65 -91q-5 0 -25 9q-42 17 -60 52.5t-6 94.5q7 34 25.5 62.5t44 48.5
t56.5 31t63 11q79 0 126 -53q31 -39 33 -82.5t-6 -79.5q30 32 38 73q18 84 -54 135t-213 67l169 181q67 -14 116.5 -47t80 -78.5t39.5 -102t-3 -117.5q-12 -52 -36 -95t-54 -78.5t-62 -63t-58 -47.5l-50 -236h-141l9 40q-35 15 -69 15q-28 0 -55 -11t-49.5 -29t-39.5 -40.5
t-26 -45.5z" />
    <glyph glyph-name="o_beng" unicode="&#x993;" horiz-adv-x="469" 
d="M209 0q-27 0 -58 6.5t-59 15.5t-49.5 19t-30.5 16q20 60 38 118t37 118q8 -30 24 -60.5t38.5 -55.5t51 -40.5t59.5 -15.5q27 0 52.5 14t28.5 32q5 19 -9 33q-38 -11 -46 -11l-3 107q17 3 37 12t38 23t32 32t18 39q4 16 3 34t-8 33t-21.5 25t-36.5 10q-5 0 -16 -1.5
t-22.5 -7.5t-22 -17t-14.5 -29q-3 -17 11.5 -25.5t28.5 -8.5q22 0 47 13q-8 -22 -15.5 -43t-13.5 -43q-32 -8 -54 -8q-24 0 -44.5 8t-33.5 23.5t-17.5 38t1.5 50.5l1 9q8 34 27.5 63t47 50.5t60.5 33.5t68 12q46 0 78.5 -18t51 -46.5t24.5 -65.5t-2 -74q-5 -21 -13.5 -41.5
t-18.5 -37.5t-18.5 -29t-13.5 -17l-27 -28q20 -37 9 -98q-8 -25 -21 -45.5t-27 -36t-27.5 -26t-22.5 -15.5q-65 -44 -147 -44z" />
    <glyph glyph-name="au_beng" unicode="&#x994;" horiz-adv-x="621" 
d="M208 0q-27 0 -57 6t-58.5 15t-50 19t-30.5 17l74 236q9 -31 26 -61.5t39.5 -55t50 -40t57.5 -15.5q13 0 26 3.5t24.5 10t20 15t10.5 17.5q4 18 -8 32q-32 -10 -43 -10l-3 107q18 3 37.5 11t37.5 22t31.5 34t19.5 46q3 14 2 30.5t-8.5 31t-21.5 24t-36 9.5q-33 0 -57 -22
l-5 -7q-11 -13 -13 -25q-4 -18 10.5 -26.5t29.5 -8.5q22 0 47 13l-30 -86q-32 -8 -54 -8q-24 0 -44.5 8t-33.5 24t-17.5 39.5t2.5 53.5q7 36 27 65.5t47.5 51.5t61 34t68.5 12q49 0 80.5 -20.5t49.5 -49.5t23 -60t3 -51q-1 -9 -3 -18l-3 -16q30 31 40 77q9 42 -5.5 75.5
t-49.5 58.5t-89 41.5t-124 24.5l169 181q66 -14 115.5 -46.5t79.5 -78.5t40 -102t-3 -117q-13 -60 -44 -111t-68.5 -91t-75.5 -68t-64 -42q1 -15 -3 -35l-2 -7q-12 -39 -36.5 -69.5t-57.5 -52.5t-72 -33.5t-79 -11.5z" />
    <glyph glyph-name="ka_beng" unicode="&#x995;" horiz-adv-x="712" 
d="M452 0h-142l17 82q-17 19 -44 37t-57.5 32t-61.5 22t-56 8q-10 0 -15 -1q-33 0 -27 28q2 9 11 19q89 82 176 163.5t175 164.5l1 4h-320l65 63h727l-60 -63h-270l-13 -60h6q45 0 83 -16t64.5 -44.5t38 -67.5t1.5 -85q-5 -24 -18.5 -53t-33 -53.5t-45.5 -41t-56 -16.5
q-15 0 -33 5t-32.5 16.5t-22.5 31t-2 48.5q8 34 35 73l58 -29q-14 -13 -20 -30q-6 -31 24 -31q21 0 35.5 17t19.5 41q5 22 -2.5 37.5t-20 25.5t-29 14.5t-30.5 4.5q-25 0 -55 -10zM361 240l29 135l-139 -113h10q19 0 32 -1t24 -3.5t21 -7t23 -10.5z" />
    <glyph glyph-name="kha_beng" unicode="&#x996;" horiz-adv-x="598" 
d="M562 0h-142l5 24h-369l52 142q62 46 128 93q-21 1 -43 9.5t-40.5 26t-30 46t-11.5 70.5q0 5 1 11t2 11q7 32 28.5 66t53 61.5t69.5 45t78 17.5q15 0 33.5 -5.5t32.5 -19t21.5 -35.5t0.5 -54q-3 -16 -13 -33t-21.5 -31t-21 -23t-11.5 -10q-23 11 -39.5 20.5t-28.5 17.5
q24 6 44.5 22.5t24.5 34.5q1 8 -7 16.5t-22 8.5q-18 0 -34.5 -8.5t-29 -22t-21.5 -29t-12 -30.5q-2 -8 -2 -20.5t5 -24t17 -20t36 -8.5q7 0 20 1t30.5 7t41.5 19.5t55 39.5l-11 -122l-144 -161q8 0 10 -1l153 -10l102 480h235l-61 -63h-45z" />
    <glyph glyph-name="ga_beng" unicode="&#x997;" horiz-adv-x="539" 
d="M503 0h-141l98 462q-24 39 -66 39q-33 0 -71 -22q38 -23 55 -64.5t7 -89.5q-9 -42 -23 -70t-19 -34q-61 -2 -101 -3t-59 -2q66 37 81 107q11 55 -34 71q-31 -42 -52 -91q-24 82 -37 127t-16 53q114 138 255 138h12q60 -8 95 -34l7 35h233l-60 -63h-45z" />
    <glyph glyph-name="gha_beng" unicode="&#x998;" horiz-adv-x="528" 
d="M492 0h-142l13 59q-23 4 -47.5 6t-52.5 2q-70 0 -119 -15q-10 46 -21.5 91.5t-22.5 91.5q12 9 40 23.5t57 29.5t51.5 27t22.5 14q-2 7 -49 7h-13q-15 0 -34.5 1t-36.5 6t-27.5 15.5t-5.5 30.5q2 9 5 20t15 29.5t36 47t68 73.5h-120l65 63h544l-62 -63h-45zM213 165
q68 21 168 21h9l79 373h-69q-17 -19 -40.5 -38.5t-52.5 -41.5q-26 -19 -44.5 -28.5t-20.5 -19.5q-2 -9 15.5 -16.5t52.5 -7.5q8 0 13 1t9 1q8 0 16.5 -5.5t14.5 -14.5t8.5 -22t-0.5 -28q-2 -12 -15.5 -27.5t-34.5 -36.5t-48.5 -48t-59.5 -62z" />
    <glyph glyph-name="nga_beng" unicode="&#x999;" horiz-adv-x="540" 
d="M228 -8q-105 0 -215 71l107 278q13 -42 32.5 -78t46 -61.5t57.5 -40t65 -14.5q41 0 77 23t59 58q-40 -13 -86 -13q-36 0 -92 22q8 37 15.5 69t14.5 60q-32 14 -56 31.5t-41 36t-27 37.5t-14 35q87 54 121 73q9 -74 46 -108l2 11q24 109 99 138l23 7l17 1q25 0 44 -10
t30 -27.5t14 -40.5t-3 -49q-10 -51 -47.5 -88.5t-84.5 -48.5q-7 -34 3.5 -43.5t31.5 -9.5q14 0 36 9l9 26l83 27q0 -7 -1.5 -15.5t-3.5 -20.5q-2 -9 -10.5 -38t-25 -67t-43.5 -80.5t-66.5 -78t-93 -58.5t-123.5 -23zM415 454q22 5 39 18t21 33q4 16 -3.5 28.5t-27.5 12.5
q-15 0 -25 -12t-13 -28q-6 -26 9 -52z" />
    <glyph glyph-name="ca_beng" unicode="&#x99a;" horiz-adv-x="408" 
d="M184 41q-23 0 -44.5 2.5t-39.5 6.5t-31.5 8t-18.5 6l105 495h-46l65 63h424l-61 -63h-250l-41 -191q18 -8 39 -8q10 0 28 6.5t37.5 15t35.5 15t22 6.5q16 0 25.5 -13t13 -32.5t2.5 -43t-5 -43.5q-7 -29 -26.5 -68.5t-52.5 -75.5t-78 -61t-103 -25zM224 153q16 0 33.5 7
t34 20.5t30 33.5t18.5 46q5 24 -3 24q-2 0 -10 -6q-22 -28 -61 -28q-23 0 -44 5l-20 -97q3 -2 8.5 -3t13.5 -2z" />
    <glyph glyph-name="cha_beng" unicode="&#x99b;" horiz-adv-x="463" 
d="M231 295q37 0 67 25t38 61q4 17 -4 20q-2 0 -3 -1q-32 -29 -64 -29q-9 0 -18 3zM155 559h-45l64 63h480l-62 -63h-305l-19 -88q17 -7 38 -7q12 0 25.5 6t26.5 12.5t24 12.5t17 6q22 0 32 -20.5t9 -48.5q59 -47 62 -139l-4 -24q-23 -111 -156 -181q92 -32 157 -32
q10 0 19 0.5t17 1.5l-60 -150q-22 5 -59 19.5t-77.5 31t-79 31.5t-61.5 22q-41 11 -78 23t-73 23l27 120q8 -6 14 -10t17 -6.5t31 -4t58 -1.5q27 0 89 23q106 38 126 113q3 14 2 26q-11 -20 -31 -41.5t-45.5 -39t-54.5 -28.5t-58 -11q-24 0 -47 2.5t-42 5.5t-32.5 6.5
t-18.5 5.5z" />
    <glyph glyph-name="ja_beng" unicode="&#x99c;" horiz-adv-x="729" 
d="M455 -19l4 19q16 77 71 196q54 103 105 167l-144 64q-10 5 -21 8.5t-21 8.5q-20 -98 -20 -104q2 -24 40 -24q10 0 16 4.5t8.5 10t3.5 11t1 7.5l1 3l81 27q-1 -5 -2 -11l-3 -14q-3 -16 -12.5 -52.5t-31 -81.5t-58.5 -92.5t-96 -86.5q-77 -43 -158 -43q-101 0 -205 69
l53 139q14 38 27.5 73t25.5 66q11 -43 31 -78.5t45.5 -61t55.5 -39.5t62 -14q76 0 126 76q-14 -3 -32.5 -5.5t-38.5 -1.5l-22 1q-25 5 -42 10t-25 10l24 113q4 17 6.5 27t5.5 19l35 158h-242l64 63h745l-60 -63h-384l-5 -22q84 -25 166.5 -48.5t165.5 -46.5l-84 -115
q-19 -25 -35 -64t-30 -94q-19 -110 10 -180z" />
    <glyph glyph-name="jha_beng" unicode="&#x99d;" horiz-adv-x="701" 
d="M358 222l29 135l-140 -112h9q19 0 32.5 -1t24 -3.5t21 -7t24.5 -11.5zM478 123l-26 -123h-141l14 64q-19 19 -46.5 37t-58 32t-60.5 22t-55 8l-16 -1q-13 1 -21 8.5t-6 19.5q2 9 12 19l351 329l5 21h-321l64 63h411l-78 -366l66 -30l84 396h235l-61 -63h-46l-108 -509
h-141l8 38q-5 4 -21.5 12.5t-43.5 22.5z" />
    <glyph glyph-name="nya_beng" unicode="&#x99e;" horiz-adv-x="659" 
d="M94 -71q-20 38 -39 74.5t-39 71.5q42 45 100.5 74t111.5 29q68 0 126 -33l69 325q-12 39 -61 44q-29 0 -45.5 -15.5t-21.5 -36.5q-4 -22 4.5 -39.5t31.5 -17.5q22 0 37 7q-8 -10 -24 -32.5t-43 -57.5q-2 0 -24 8q-41 15 -60 50t-6 97q8 37 27 65.5t45 48t56 29.5t60 10
q31 0 59.5 -10t50 -28t35 -42.5t15.5 -52.5q23 8 46 8q25 0 48 -8t38.5 -23t22.5 -36t1 -48q-7 -33 -37 -65q19 -26 12 -69q-13 -61 -55 -92t-104 -31q-22 0 -38 4l-29 -137h-141l9 41q-36 14 -67 14q-28 0 -54.5 -11t-49 -28.5t-40.5 -40t-27 -46.5zM539 212
q26 0 40.5 13.5t17.5 30.5q2 7 -2 14q-28 -7 -48 -7h-8l21 65q8 2 17.5 6t17.5 13l10 11q11 13 13 25q4 17 -8 27.5t-30 10.5q-14 0 -28 -7l-42 -196q9 -6 29 -6z" />
    <glyph glyph-name="tta_beng" unicode="&#x99f;" horiz-adv-x="495" 
d="M180 -5h-145l120 564h-45l65 63h201q10 23 13 37q5 22 -0.5 36t-18.5 22.5t-31 12t-39 3.5q-106 0 -325 -95l97 224q102 26 183 26q23 0 53.5 -3.5t63 -12.5t63 -24.5t52.5 -39.5t31 -57.5t0 -78.5q-6 -28 -18 -50h184l-61 -63h-326l-89 -416q28 -9 55 -9q20 0 43.5 7
t45 21t38 34t21.5 46q7 32 -5 47.5t-32 15.5q-16 0 -29 -9t-16 -24q-4 -20 8 -34.5t35 -21.5q-45 -20 -69 -31t-27 -12q-6 3 -10.5 14.5t-7 26.5t-3.5 31t2 28q6 23 18.5 47.5t32.5 38.5l12 8q13 9 35.5 17.5t40.5 8.5q34 0 59.5 -15t42.5 -39t23 -55t-1 -62
q-7 -34 -27.5 -65.5t-48 -58t-58 -46.5t-56.5 -29q-38 -14 -75 -21.5t-75 -6.5z" />
    <glyph glyph-name="ttha_beng" unicode="&#x9a0;" horiz-adv-x="494" 
d="M220 17q-142 0 -196 98q14 4 46.5 21t66.5 47t65 74t44 103q21 101 -36 199h-101l63 63h38q-2 19 3 43q9 43 35 84t65.5 72.5t91.5 51t113 19.5q15 0 29.5 -1.5t30.5 -3.5l-22 -201q-26 31 -47 44.5t-50 13.5q-13 0 -28.5 -3.5t-30 -12.5t-26 -23.5t-16.5 -36.5t2 -46
h322l-60 -63h-217q37 -18 66 -45t45.5 -62.5t21 -78t-5.5 -90.5q-13 -63 -43 -112t-72 -83.5t-92.5 -52.5t-104.5 -18zM240 155l4 1q29 3 56.5 13.5t51 28.5t41 43.5t24.5 57.5q9 45 -5.5 79t-52.5 53q2 -51 -8 -97q-23 -109 -111 -179z" />
    <glyph glyph-name="dda_beng" unicode="&#x9a1;" horiz-adv-x="542" 
d="M235 16q-108 0 -216 72l52 138q15 39 28.5 74t26.5 67q12 -42 32.5 -78t47 -62t58 -40.5t65.5 -14.5q82 0 136 82q-39 -13 -87 -13q-30 0 -53.5 7t-38.5 15q12 56 19 86.5t10.5 47.5t6.5 26t6 23t8.5 39t16.5 74h-244l64 63h559l-63 -63h-193l-41 -190l2 -7q4 -25 38 -25
q16 0 27.5 5.5t15.5 25.5v5l86 27q0 -5 -2 -12l-3 -15q-3 -14 -8 -35t-14.5 -47.5t-25.5 -58.5t-41 -66q-9 -15 -39.5 -46.5t-74.5 -61.5q-80 -42 -161 -42z" />
    <glyph glyph-name="ddha_beng" unicode="&#x9a2;" horiz-adv-x="495" 
d="M180 -5h-145l120 564h-45l65 63h508l-61 -63h-325l-89 -416q28 -9 55 -9q20 0 43.5 7t45 21t38 34t21.5 46q7 32 -5 47.5t-32 15.5q-16 0 -29 -9t-16 -24q-4 -20 8 -34.5t35 -21.5q-45 -20 -69 -31t-27 -12q-6 3 -10.5 14.5t-7 26.5t-3.5 31t2 28q6 23 18.5 47.5
t32.5 38.5l12 8q13 9 35.5 17.5t40.5 8.5q34 0 59.5 -15t42.5 -39t23 -55t-1 -62q-7 -34 -27.5 -65.5t-48 -58t-58 -46.5t-56.5 -29q-38 -14 -75 -21.5t-75 -6.5z" />
    <glyph glyph-name="nna_beng" unicode="&#x9a3;" horiz-adv-x="534" 
d="M498 0h-141l81 382q-8 43 -33 65t-58 22q-18 0 -36 -6.5t-33 -18t-25.5 -26.5t-14.5 -32q-9 -42 17 -63l4 -2q11 -6 22 -6q14 0 23.5 12t13.5 29q5 26 -8 54l91 -18q1 -1 -1 -13l-5 -21q-5 -26 -20.5 -50t-37.5 -42.5t-50 -29.5t-59 -11q-35 0 -61 14.5t-41.5 39.5
t-20 58.5t3.5 71.5q10 46 37 85.5t63.5 68t79.5 44.5t87 16q10 0 24.5 -2t29.5 -6t28.5 -10t24.5 -14l6 31h234l-61 -63h-45z" />
    <glyph glyph-name="ta_beng" unicode="&#x9a4;" horiz-adv-x="470" 
d="M598 559h-489l65 63h484zM127 44q-58 0 -73 4l4 224q72 -61 144 -61q23 0 49 8.5t50 24t42.5 38.5t24.5 53q3 15 0.5 31t-10 28.5t-21 21t-31.5 8.5q-7 0 -16.5 -2t-19 -6.5t-16.5 -12t-9 -19.5q-5 -24 8 -44t40 -31q-6 -2 -10 -3.5t-9 -3.5l-102 -38q-4 3 -8.5 15
t-7.5 28.5t-3.5 36t3.5 36.5q6 27 23 56.5t44 53.5t62 39.5t77 15.5q41 0 73.5 -19.5t53.5 -51.5t28.5 -72t-1.5 -82q-6 -29 -20.5 -56t-30.5 -49.5t-32 -39t-26 -24.5q-124 -107 -280 -107z" />
    <glyph glyph-name="tha_beng" unicode="&#x9a5;" horiz-adv-x="587" 
d="M551 0h-139q-86 20 -171 53t-171 60q5 25 14 58.5t20 75.5l6 -1q17 -5 48 -5h28q12 1 31.5 10.5t40 27.5t37.5 44t24 58q3 12 2.5 29t-6.5 32t-18.5 25.5t-34.5 10.5q-10 0 -21.5 -4t-21.5 -11t-17.5 -15.5t-9.5 -18.5q-3 -16 10.5 -27.5t37.5 -11.5q12 0 31 5
q-16 -23 -31.5 -45.5t-31.5 -45.5q-49 13 -76 50t-14 97q7 33 25.5 59.5t43.5 45t53.5 28t55.5 9.5q4 0 17 0.5t30 -4t37 -16t40 -34.5q47 -59 26 -157q-24 -113 -119 -198q30 -5 60.5 -8.5t60.5 -5.5l96 451q34 1 92 1h140l-61 -63h-45z" />
    <glyph glyph-name="da_beng" unicode="&#x9a6;" horiz-adv-x="436" 
d="M410 0q-41 0 -61.5 20t-29.5 45t-9 47t1 26l37 172q-30 -17 -61 -35.5t-61 -37.5h-140l69 322h-45l63 63h452l-61 -63h-269l-36 -167l122 73h118l-62 -293q-4 -19 12 -38q1 0 -27 -133z" />
    <glyph glyph-name="dha_beng" unicode="&#x9a7;" horiz-adv-x="486" 
d="M357 229l28 133q-23 -19 -57.5 -46.5t-81.5 -64.5h9q19 0 32.5 -1t24.5 -4t21 -7t24 -10zM450 0h-142l15 70q-17 19 -42.5 37t-55.5 31.5t-60.5 21.5t-56.5 8l-19 -1q-13 1 -20.5 8.5t-4.5 21.5q2 10 11 18l136 127q-25 6 -45 21.5t-33.5 38.5t-17.5 53t4 65
q6 32 23.5 62t42 52.5t54.5 36t64 13.5q20 0 39 -7.5t32.5 -22t19 -35t0.5 -45.5q-8 -38 -46 -78q-15 4 -31 7t-34 7q29 19 36 50q4 17 -3.5 27t-20.5 10l-15 -2q-25 -9 -40.5 -31.5t-19.5 -42.5q-7 -33 8 -56.5t56 -23.5q19 0 41 8q50 48 98 93l17 80h235l-61 -63h-45z" />
    <glyph glyph-name="na_beng" unicode="&#x9a8;" horiz-adv-x="542" 
d="M506 0h-143l46 216q-9 40 -31.5 64t-59.5 24q-18 0 -36.5 -6t-34.5 -17t-27 -26.5t-15 -34.5q-6 -27 5 -49.5t39 -22.5q13 0 23.5 12.5t14.5 30.5q5 26 -8 54l92 -18q1 -3 -4 -27q-9 -29 -24.5 -55t-37 -45.5t-49 -31t-60.5 -11.5q-37 0 -64 15t-42 41t-19.5 60t3.5 72
q11 50 39.5 90t66.5 68t81 43t83 15q12 0 26.5 -2t29.5 -6t29.5 -9.5t25.5 -12.5l27 128h-373l64 63h559l-62 -63h-45z" />
    <glyph glyph-name="pa_beng" unicode="&#x9aa;" horiz-adv-x="590" 
d="M388 353l118 123q-31 40 -72 40q-32 0 -63 -21.5t-63 -59.5q15 -6 28.5 -16.5t24 -22.5t17.5 -23.5t10 -19.5zM554 0h-142l69 323l-98 -67q-12 -8 -23 -17t-24 -17q-8 32 -31.5 61.5t-59.5 41.5q-5 -14 -9 -29.5t-8 -32.5l-126 113q99 214 290 245l27 1q31 1 60 -8.5
t58 -26.5l7 35h236l-62 -63h-45z" />
    <glyph glyph-name="pha_beng" unicode="&#x9ab;" horiz-adv-x="763" 
d="M508 0h-140l12 56q-31 5 -59 7.5t-54 2.5q-69 0 -118 -15l-73 204q164 72 172 113q2 10 -1.5 16.5t-10 12t-14 11t-15.5 13.5q-27 29 -40.5 64.5t-17.5 73.5h-39l64 63h779l-62 -63h-604q20 -78 76 -144q14 -16 22 -30.5t3 -34.5q-11 -55 -100 -116q-2 0 -3 -1
q-40 -29 -66 -42q56 21 110 21q46 0 82 -11l59 278q85 43 157 43q25 0 49 -4t46.5 -15t41.5 -30t33 -49q24 -49 11 -110q-14 -63 -52.5 -105.5t-99.5 -42.5l-20 1q-4 2 -17 7t-26 18q-25 32 -16 78q5 24 21 53l63 -17q-9 -14 -12 -27q-6 -32 21 -32q19 0 32.5 15.5
t18.5 38.5q4 17 -1 31t-16.5 24.5t-27 16.5t-32.5 6q-28 0 -58 -13z" />
    <glyph glyph-name="ba_beng" unicode="&#x9ac;" horiz-adv-x="489" 
d="M453 0h-143l13 63q-17 19 -43.5 37t-57 31.5t-62 21.5t-56.5 8l-16 -1q-14 -1 -21.5 7t-4.5 21q1 7 13 20.5t28 28.5t33 30.5t29 26.5l259 242l5 23h-320l63 63h505l-60 -63h-45zM357 220l29 136l-140 -114h10q60 0 101 -22z" />
    <glyph glyph-name="bha_beng" unicode="&#x9ad;" horiz-adv-x="517" 
d="M212 -1h-9q-38 0 -72 5.5t-60 12.5t-42.5 14t-19.5 10l80 230q1 -9 10.5 -30t29 -42.5t49.5 -38.5t72 -17q31 0 59 12t50 30.5t37.5 40.5t21.5 42q-52 -38 -126 -38q-33 0 -60 12t-45 34.5t-25 54.5t2 72q5 25 18.5 49.5t34.5 44.5t46.5 32.5t54.5 12.5q27 0 46 -13
t29.5 -31.5t13.5 -40t-1 -38.5v-2q-21 -7 -42.5 -14t-43.5 -14q14 19 17 36q3 12 0 28t-18 16q-4 0 -14 -6t-17 -6q-20 -19 -26 -46q-6 -29 10 -50t51 -21l12 1q38 8 62.5 35t31.5 62q6 28 1 41q35 2 69 3.5t67 3.5q11 -99 -6 -178l-3 -18q-4 -15 -11 -36.5t-18 -46
t-27 -45.5q-31 -42 -66.5 -72.5t-73.5 -51t-76 -30t-73 -9.5zM645 559h-536l64 63h534z" />
    <glyph glyph-name="ma_beng" unicode="&#x9ae;" horiz-adv-x="538" 
d="M183 -3q-35 0 -61 14.5t-42.5 39t-22 57t1.5 68.5q7 30 22 58.5t36 53t46 43.5t52 29q2 5 3.5 11.5t3.5 13.5l2 9q12 103 -72 165h-43l64 63h555l-62 -63h-45l-119 -559h-142l40 186q-25 46 -84 55h-5q-48 0 -79.5 -22t-40.5 -65q-3 -12 -2 -24t5 -21.5t11.5 -16
t18.5 -6.5q17 0 30 19.5t17 39.5t1 40q24 -14 44 -25t35 -19q-6 -30 -24 -56t-42.5 -45.5t-50.5 -30.5t-51 -12zM435 352l44 207h-167q17 -26 28 -72t7 -106q56 -8 88 -29z" />
    <glyph glyph-name="ya_beng" unicode="&#x9af;" horiz-adv-x="550" 
d="M514 0h-143l11 52q-53 11 -114 11q-70 0 -119 -15l-73 206q163 70 173 117q2 11 -4.5 17.5t-15.5 14.5q-74 58 -81 156h-38l65 63h564l-61 -63h-45zM219 189q51 21 115 21q46 0 80 -10l76 359h-202q10 -37 28 -68.5t35.5 -57.5t29.5 -47t9 -37q-3 -17 -18 -37.5
t-37.5 -42t-52 -42t-63.5 -38.5z" />
    <glyph glyph-name="ra_beng" unicode="&#x9b0;" horiz-adv-x="491" 
d="M455 0h-143l16 75q-18 19 -45 37t-58.5 31.5t-62.5 22t-56 8.5l-15 -1q-14 1 -21.5 8.5t-4.5 21.5q2 10 11 18l354 332l1 6h-322l63 63h509l-62 -63h-45zM362 234l29 136q-67 -54 -101.5 -82t-39.5 -32h9q19 0 33 -1t24.5 -3.5t21 -7zM207 -25q-1 12 -7.5 25.5t-16.5 26
t-20.5 21.5t-18.5 12l19 54h4q19 0 39 -6.5t38 -17.5t32 -24.5t20 -28.5q-27 -20 -49.5 -35.5t-39.5 -26.5z" />
    <glyph glyph-name="la_beng" unicode="&#x9b2;" horiz-adv-x="618" 
d="M582 0h-133l57 268l-10 1q-32 0 -54 -25t-29 -57l-1 -3l-86 -8l3 12q10 46 -8.5 76t-56.5 30q-36 0 -63 -23.5t-37 -66.5q0 -2 -1 -11t1.5 -19.5t9 -18.5t22.5 -8q8 0 15 5.5t12.5 14t9 18t5.5 17.5q4 17 2 37l69 -41q-6 -29 -23.5 -54t-39.5 -43t-46 -28.5t-43 -10.5
q-56 4 -79 48.5t-9 110.5q10 49 32.5 87.5t52 64.5t64.5 39.5t71 13.5q85 0 124 -62q49 43 97 43q12 0 25 -3l33 155h-459l64 63h635l-62 -63h-45z" />
    <glyph glyph-name="sha_beng" unicode="&#x9b6;" horiz-adv-x="626" 
d="M590 0h-143l87 408q-26 45 -65 45q-34 0 -61.5 -20.5t-36.5 -59.5q-4 -19 1 -38t26 -19q16 0 28 16.5t15 31.5q4 19 1 37l67 -20q-1 -8 -2 -15.5t-2 -14.5q-5 -24 -16 -46t-26.5 -39.5t-36.5 -27.5t-46 -10q-59 0 -89 45q-46 -38 -88 -38q-20 0 -41 8.5t-37.5 24.5
t-24.5 39t-1 53q13 64 79 112q12 -11 25 -22t27 -22q-21 -10 -36.5 -25.5t-18.5 -32.5q-5 -20 5.5 -27t18.5 -7q31 0 50.5 25t25.5 55q3 13 0.5 29t-11 29t-24.5 22t-39 9h-12q-8 0 -20 -3t-28 -11t-36 -24q-1 17 -1.5 34.5t-0.5 35.5l-4 81q17 2 33.5 3.5t35.5 1.5
q33 0 63.5 -3t56 -12t46.5 -27t35 -48q39 28 74.5 35t66.5 7q30 0 58 -8l11 55h235l-61 -63h-44z" />
    <glyph glyph-name="ssa_beng" unicode="&#x9b7;" horiz-adv-x="553" 
d="M517 0h-144l10 48q-49 11 -114 11q-71 0 -121 -15l-73 207q165 72 174 115q3 15 -21 36q-72 61 -80 157h-39l64 63h569l-61 -63h-45zM453 375l39 184h-203q12 -46 43 -100l40 -53q30 -11 50 -19t31 -12zM220 186q52 21 115 21q14 0 28.5 -1.5t31.5 -3.5l20 -5l15 71
q-40 9 -76 15q-17 -15 -33 -28t-31 -24l-4 -3q-42 -29 -66 -42z" />
    <glyph glyph-name="sa_beng" unicode="&#x9b8;" horiz-adv-x="579" 
d="M155 -14q-69 0 -95.5 33.5t-14.5 90.5q2 6 8 22.5t18.5 34.5t33.5 33t51 18h9q34 -2 51 -22l-33 -67q-6 21 -27 21q-13 0 -23.5 -9t-12.5 -21q-5 -19 11 -30.5t38 -11.5q37 0 61.5 26.5t31.5 61.5q5 23 -1.5 37.5t-18.5 26t-27.5 22.5t-29.5 27.5t-23.5 41.5t-9.5 65
q0 10 1.5 21.5t4.5 24.5q10 50 44 127h-93l63 63h595l-60 -63h-45l-119 -559h-143l14 65q-15 33 -56 47l-4 1q-24 -54 -78 -90.5t-121 -36.5zM445 213l74 346h-125q-103 -55 -125 -160q-5 -23 8 -30q88 -56 103 -129q43 -2 65 -27z" />
    <glyph glyph-name="ha_beng" unicode="&#x9b9;" horiz-adv-x="429" 
d="M248 -141l-229 200l52 86q3 4 12.5 19t25.5 43q13 -2 25 -3t23 -1q24 0 52 6.5t53.5 20.5t45 36t26.5 53q9 41 -7.5 69.5t-61.5 31.5q-10 0 -22 -3t-23.5 -9.5t-20 -16.5t-11.5 -23q-2 -11 2 -19.5t12 -13.5t18.5 -7.5t20.5 -2.5q8 0 17 1.5t19 3.5q-15 -18 -32.5 -42.5
t-40.5 -55.5l-27 10q-40 15 -62 53.5t-10 94.5q7 34 26.5 63t47 49.5t60 32t66.5 11.5q65 0 102.5 -24.5t54.5 -59.5t18 -73.5t-5 -66.5q-9 -45 -36 -86.5t-62.5 -74.5t-76 -57t-78.5 -34l203 -102zM557 559h-448l65 63h445z" />
    <glyph glyph-name="signnuktacomb_beng" unicode="&#x9bc;" 
d="M-27 -93q-57 0 -94 24l66 102q6 -8 19 -16t28 -14.5t31 -10.5t29 -4l11 1q2 -13 4.5 -27.5t3.5 -28.5q-13 -7 -40.5 -16.5t-57.5 -9.5z" />
    <glyph glyph-name="vowelsignaa_beng" unicode="&#x9be;" horiz-adv-x="215" 
d="M179 0h-143l119 559h-45l65 63h231l-63 -63h-45z" />
    <glyph glyph-name="vowelsigni_beng" unicode="&#x9bf;" horiz-adv-x="215" 
d="M159 607q-4 33 3 66q10 46 42.5 85.5t85 69t125 46.5t161.5 17q93 0 184 -25q2 -57 1.5 -113t0.5 -114q-173 97 -337 97q-124 0 -140 -75q-2 -14 -3 -39h121l-60 -63h-45l-119 -559h-143l119 559h-45z" />
    <glyph glyph-name="vowelsignii_beng" unicode="&#x9c0;" horiz-adv-x="215" 
d="M327 622h76l-60 -63h-45l-119 -559h-143l119 559h-45l63 61l-5 1q14 32 21 64q9 45 -3 81.5t-35.5 62.5t-53 40t-53.5 14q-21 0 -40.5 -10.5t-34 -25t-24 -30.5t-11.5 -28q-6 -20 -4 -36q2 -14 12 -24.5t36 -10.5q23 0 35 14.5t17 39.5q5 23 -4 49l94 -25l-8 -32
q-7 -26 -23.5 -50.5t-38.5 -43.5t-48 -30.5t-54 -11.5q-21 0 -45.5 6t-45.5 24t-35.5 50t-13.5 83q0 17 4 36q8 39 37.5 72.5t69 58.5t83.5 39.5t82 14.5q3 0 22 -1t45 -7.5t57.5 -20t60.5 -39t52.5 -65t33.5 -97.5q9 -48 -1 -93q-7 -37 -27 -67z" />
    <glyph glyph-name="vowelsignucomb_beng" unicode="&#x9c1;" 
d="M-105 -352q19 105 5 168q-27 -38 -61.5 -62t-74.5 -24q-30 0 -50 9.5t-32 25t-15 36t2 43.5q1 5 3.5 15.5t9 24t19 29t32.5 31.5q51 32 90 32h5l-7 24l146 19q-2 -17 -3 -32.5t-5 -29.5l-7 -26q26 -24 43.5 -54.5t28 -58.5t14.5 -49t4 -26zM-219 -201q17 0 32.5 14.5
t21.5 41.5q4 17 3 32l-9 1q-28 0 -48.5 -14.5t-25.5 -40.5q-4 -17 4.5 -25.5t21.5 -8.5z" />
    <glyph glyph-name="vowelsignuucomb_beng" unicode="&#x9c2;" 
d="M65 -220l-67 104q-26 -35 -61 -55.5t-68 -20.5q-26 0 -44 9.5t-28.5 25t-13.5 36t1 41.5q8 38 38 84l142 -4q-34 -14 -55 -34.5t-25 -40.5q-3 -16 7 -26t23 -10q17 0 37.5 16t35.5 48l163 -80q-22 -24 -44 -47t-41 -46z" />
    <glyph glyph-name="vowelsignvocalicrcomb_beng" unicode="&#x9c3;" 
d="M-110 -244l-154 119l90 147l138 -22q-47 -40 -79 -67l-55 -45q13 0 45.5 -1.5t85.5 -3.5z" />
    <glyph glyph-name="vowelsigne_beng" unicode="&#x9c7;" horiz-adv-x="303" 
d="M261 -294q-53 10 -96 43.5t-73 74t-45.5 79.5t-15.5 60q-2 29 -0.5 59.5t9.5 62.5l8 31q48 134 125 215q79 92 91 150q8 37 -1 78h-154l64 63h317l-62 -63h-9q-1 -14 -3 -29t-5 -29q-12 -57 -41 -102.5t-65 -86.5q-37 -44 -62 -84t-31 -79l-4 -20q-8 -38 -0.5 -73t26 -62
t46 -43t60.5 -16q28 0 48 8q-32 -65 -62.5 -118.5t-64.5 -118.5z" />
    <glyph glyph-name="vowelsignai_beng" unicode="&#x9c8;" horiz-adv-x="303" 
d="M304 622q12 25 15 43q16 72 -105 72q-17 0 -48 -1t-77.5 -10t-110.5 -29t-148 -58l99 230q101 25 196 25q79 0 188 -28q36 -9 65 -26t48 -41.5t25.5 -55.5t-1.5 -69q-5 -25 -19 -52h59l-62 -63h-9q-1 -14 -3 -29t-5 -29q-12 -57 -41 -102.5t-65 -86.5q-37 -44 -62 -84
t-31 -79l-4 -20q-8 -38 -0.5 -73t26 -62t46 -43t60.5 -16q28 0 48 8q-32 -65 -62.5 -118.5t-64.5 -118.5q-53 10 -96 43.5t-73 74t-45.5 79.5t-15.5 60q-2 29 -0.5 59.5t9.5 62.5l8 31q48 134 125 215q79 92 91 150q8 37 -1 78h-154l64 63h131z" />
    <glyph glyph-name="vowelsigno_beng" unicode="&#x9cb;" horiz-adv-x="1103" 
d="M261 -294q-53 10 -96 43.5t-73 74t-45.5 79.5t-15.5 60q-2 29 -0.5 59.5t9.5 62.5l8 31q48 134 125 215q79 92 91 150q8 37 -1 78h-154l64 63h317l-62 -63h-9q-1 -14 -3 -29t-5 -29q-12 -57 -41 -102.5t-65 -86.5q-37 -44 -62 -84t-31 -79l-4 -20q-8 -38 -0.5 -73t26 -62
t46 -43t60.5 -16q28 0 48 8q-32 -65 -62.5 -118.5t-64.5 -118.5zM447 256q-19 0 -30 13.5t-7 33.5q5 20 21.5 33.5t35.5 13.5q20 0 31 -13.5t6 -33.5q-4 -20 -20.5 -33.5t-36.5 -13.5zM856 256q-19 0 -30 13.5t-7 33.5q5 20 21.5 33.5t35.5 13.5t30 -13.5t6 -33.5
q-4 -20 -20.5 -33.5t-35.5 -13.5zM658 507q4 20 21.5 34t36.5 14t29.5 -14t6.5 -34q-4 -19 -20.5 -33t-35.5 -14t-30.5 14t-7.5 33zM571 99q4 20 21.5 33.5t36.5 13.5t29.5 -13.5t6.5 -33.5t-20.5 -33t-35.5 -13t-30.5 13t-7.5 33zM766 504q9 11 22 17t25 6q22 0 30.5 -15
t4.5 -33q-5 -22 -22 -33.5t-34 -11.5q-19 0 -30.5 13t-7.5 33q3 16 12 24zM486 150q9 11 22 17.5t24 6.5q21 0 31 -15t6 -34q-5 -22 -22 -34t-36 -12q-22 0 -31 14.5t-5 32.5q3 13 11 24zM845 445q8 5 13.5 6.5t11.5 1.5q19 0 30.5 -13t6.5 -34q-4 -19 -20 -33t-37 -14
q-17 0 -29 12.5t-7 35.5q5 24 31 38zM447 241q10 7 26 7q19 0 30.5 -13.5t7.5 -32.5t-21 -33t-36 -14t-30 13.5t-7 32.5q5 27 30 40zM849 242q20 -17 15 -40q-5 -21 -21.5 -34t-35.5 -13q-21 0 -31 14t-6 32q4 22 22 34.5t35 12.5q13 0 22 -6zM539 446q21 -12 15 -40
q-4 -20 -21.5 -33.5t-36.5 -13.5t-29.5 14t-5.5 34q3 18 20 32t36 14q13 0 22 -7zM773 149q2 -13 0 -22q-4 -17 -18.5 -32.5t-36.5 -15.5q-18 0 -31 12.5t-8 34.5q4 19 21 33.5t37 14.5q11 0 21 -6.5t15 -18.5zM643 504q4 -9 1 -23q-4 -18 -20 -32.5t-37 -14.5
q-18 0 -29.5 13t-7.5 33q4 19 19 33t37 14q25 0 37 -23zM1067 0h-143l119 559h-45l65 63h231l-63 -63h-45z" />
    <glyph glyph-name="vowelsignau_beng" unicode="&#x9cc;" horiz-adv-x="1104" 
d="M261 -294q-53 10 -96 43.5t-73 74t-45.5 79.5t-15.5 60q-2 29 -0.5 59.5t9.5 62.5l8 31q48 134 125 215q79 92 91 150q8 37 -1 78h-154l64 63h317l-62 -63h-9q-1 -14 -3 -29t-5 -29q-12 -57 -41 -102.5t-65 -86.5q-37 -44 -62 -84t-31 -79l-4 -20q-8 -38 -0.5 -73t26 -62
t46 -43t60.5 -16q28 0 48 8q-32 -65 -62.5 -118.5t-64.5 -118.5zM447 256q-19 0 -30 13.5t-7 33.5q5 20 21.5 33.5t35.5 13.5q20 0 31 -13.5t6 -33.5q-4 -20 -20.5 -33.5t-36.5 -13.5zM856 256q-19 0 -30 13.5t-7 33.5q5 20 21.5 33.5t35.5 13.5t30 -13.5t6 -33.5
q-4 -20 -20.5 -33.5t-35.5 -13.5zM658 507q4 20 21.5 34t36.5 14t29.5 -14t6.5 -34q-4 -19 -20.5 -33t-35.5 -14t-30.5 14t-7.5 33zM571 99q4 20 21.5 33.5t36.5 13.5t29.5 -13.5t6.5 -33.5t-20.5 -33t-35.5 -13t-30.5 13t-7.5 33zM766 504q9 11 22 17t25 6q22 0 30.5 -15
t4.5 -33q-5 -22 -22 -33.5t-34 -11.5q-19 0 -30.5 13t-7.5 33q3 16 12 24zM486 150q9 11 22 17.5t24 6.5q21 0 31 -15t6 -34q-5 -22 -22 -34t-36 -12q-22 0 -31 14.5t-5 32.5q3 13 11 24zM845 445q8 5 13.5 6.5t11.5 1.5q19 0 30.5 -13t6.5 -34q-4 -19 -20 -33t-37 -14
q-17 0 -29 12.5t-7 35.5q5 24 31 38zM447 241q10 7 26 7q19 0 30.5 -13.5t7.5 -32.5t-21 -33t-36 -14t-30 13.5t-7 32.5q5 27 30 40zM849 242q20 -17 15 -40q-5 -21 -21.5 -34t-35.5 -13q-21 0 -31 14t-6 32q4 22 22 34.5t35 12.5q13 0 22 -6zM539 446q21 -12 15 -40
q-4 -20 -21.5 -33.5t-36.5 -13.5t-29.5 14t-5.5 34q3 18 20 32t36 14q13 0 22 -7zM773 149q2 -13 0 -22q-4 -17 -18.5 -32.5t-36.5 -15.5q-18 0 -31 12.5t-8 34.5q4 19 21 33.5t37 14.5q11 0 21 -6.5t15 -18.5zM643 504q4 -9 1 -23q-4 -18 -20 -32.5t-37 -14.5
q-18 0 -29.5 13t-7.5 33q4 19 19 33t37 14q25 0 37 -23zM1068 0h-144l119 559h-45l64 63h10q5 13 8.5 23.5t6.5 20.5q16 78 -67 78q-19 0 -46 -5.5t-56.5 -12t-58 -12t-49.5 -5.5q-108 0 -126 93l156 155q21 -120 145 -120q21 0 45.5 3.5t47.5 3.5q36 0 66 -11.5t49 -33.5
t26 -54t-2 -72q-5 -26 -20 -51h95l-60 -63h-45z" />
    <glyph glyph-name="signviramacomb_beng" unicode="&#x9cd;" 
d="M-208 -125q2 18 6 36l8 37q34 -17 69 -33t68 -32l139 -65l-47 -40q-21 -19 -41 -37t-40 -37l-81 86z" />
    <glyph glyph-name="khandata_beng" unicode="&#x9ce;" horiz-adv-x="373" 
d="M268 -2l-73 13q-28 5 -55 10t-55 10q42 34 68 62.5t40.5 50t20 36.5t7.5 23q3 13 -5 24.5t-20 21.5t-23.5 17.5t-15.5 12.5l-19 22q-22 24 -27.5 57.5t3.5 72.5q7 36 26.5 71t48 63t65 45t77.5 17q31 0 57 -9t43.5 -26.5t24 -42.5t0.5 -57q-7 -31 -24 -55t-39.5 -40
t-49 -24t-51.5 -8h-3l-2 89q19 -14 38 -14t32.5 7.5t15.5 19.5q2 8 2 16l-5 14q-5 11 -17.5 17t-27.5 6q-32 0 -60 -25t-36 -60q-9 -43 42 -82q14 -12 28 -27.5t23 -38t11 -53t-7 -72.5q-14 -67 -58 -164z" />
    <glyph glyph-name="aulength_beng" unicode="&#x9d7;" horiz-adv-x="216" 
d="M180 0h-144l119 559h-45l64 63h10q5 13 8.5 23.5t6.5 20.5q16 78 -67 78q-19 0 -46 -5.5t-56.5 -12t-58 -12t-49.5 -5.5q-108 0 -126 93l156 155q21 -120 145 -120q21 0 45.5 3.5t47.5 3.5q36 0 66 -11.5t49 -33.5t26 -54t-2 -72q-5 -26 -20 -51h95l-60 -63h-45z" />
    <glyph glyph-name="rra_beng" unicode="&#x9dc;" horiz-adv-x="538" 
d="M232 21q-107 0 -213 69l53 139q14 39 27 73.5t26 65.5q12 -43 33 -79t47 -61.5t57.5 -39.5t64.5 -14q42 0 77.5 23.5t57.5 57.5q-20 -5 -41.5 -8.5t-44.5 -2.5l-24 1q-54 10 -68 20q13 58 20 89.5t10.5 49t6.5 26.5t6 22.5t8.5 37t15.5 69.5h-242l63 63h557l-62 -63h-194
q-41 -190 -39 -197q4 -23 40 -23q14 0 25.5 5.5t15.5 24.5v5l85 27q0 -5 -1 -12l-4 -15q-2 -14 -7 -35t-14.5 -47t-26 -57.5t-40.5 -66.5l-15 -18t-24.5 -27t-33.5 -30.5t-40 -29.5q-80 -42 -162 -42zM213 -121h-4l17 110q15 -5 36 -4l29 1q50 9 72 24l35 -42
q-37 -41 -88.5 -65t-96.5 -24z" />
    <glyph glyph-name="rha_beng" unicode="&#x9dd;" horiz-adv-x="497" 
d="M173 -9h-139l121 568h-45l64 63h513l-62 -63h-327l-89 -418q29 -9 56 -9q22 0 46 7.5t45 21.5t37 34.5t21 46.5q5 23 -5.5 42.5t-33.5 19.5l-5 -1q-35 -7 -41 -33q-3 -18 11.5 -34.5t32.5 -22.5l-96 -44l-11 22q-11 18 -12 38t3 40q12 55 52 87l11 8q20 13 38.5 20
t38.5 7q33 0 59.5 -14t43 -38t23 -55t-0.5 -65q-8 -35 -33 -71q-109 -157 -316 -157zM184 -145h-7l15 109q8 -2 17 -4t21 -1l27 1q51 11 74 25q11 -16 35 -41q-15 -18 -36 -34t-45.5 -28.5t-50 -19.5t-50.5 -7z" />
    <glyph glyph-name="yya_beng" unicode="&#x9df;" horiz-adv-x="545" 
d="M509 0h-142l12 55q-62 11 -115 11q-67 0 -115 -15l-73 204q162 70 171 113q4 16 -19 36q-74 62 -79 155h-40l65 63h560l-61 -63h-45zM217 190q56 22 113 22q14 -1 29.5 -1.5t31.5 -4.5l19 -5l76 358h-199q21 -75 75 -144q16 -17 23.5 -33.5t3.5 -31.5q-4 -21 -20 -41
t-33.5 -36.5t-32.5 -27.5t-19 -12q-39 -29 -67 -43zM275 -109q-6 6 -17.5 14t-26 14.5t-30 11t-27.5 4.5l-11 -1l-6 55q41 20 92 20q55 0 90 -23z" />
    <glyph glyph-name="zero_beng" unicode="&#x9e6;" horiz-adv-x="491" 
d="M242 10q-45 0 -80.5 22t-56.5 60t-27.5 88t5.5 106l7 31.5t18.5 54t36.5 69.5t60 77q96 93 191 93q47 0 79.5 -23.5t50.5 -63.5t20.5 -93.5t-10.5 -113.5q-12 -60 -40.5 -115.5t-67.5 -98t-87 -68t-99 -25.5zM252 176q30 0 57.5 15.5t50 40.5t38 56.5t22.5 63.5
q8 38 -1.5 63t-39.5 25q-23 0 -51.5 -14.5t-54 -39.5t-46 -58t-28.5 -70t6.5 -59.5t46.5 -22.5z" />
    <glyph glyph-name="one_beng" unicode="&#x9e7;" horiz-adv-x="445" 
d="M213 4q-8 0 -31.5 1t-49.5 11t-48.5 33.5t-29.5 68.5q-3 18 2 42q7 31 23.5 56.5t40 44t51.5 29.5t57 13l30 1l3 -101q-21 16 -46 16q-51 0 -58 -31q-3 -15 2 -29l1 -6q23 -26 60 -26q23 0 42 11.5t33.5 27.5t23.5 33t12 29q31 143 -210 266q45 35 90 69l90 68
q2 -3 18.5 -19.5t39.5 -44t47.5 -64t43 -79.5t26.5 -91t-3 -97q-7 -35 -26.5 -75.5t-52 -75.5t-78 -58t-103.5 -23z" />
    <glyph glyph-name="two_beng" unicode="&#x9e8;" horiz-adv-x="427" 
d="M306 -100l-257 178l31 192q11 -6 31 -10t47 -4q18 0 41.5 7.5t44.5 18.5t37 25t19 27q2 9 -5.5 12.5t-21 6.5t-32 7.5t-41.5 13.5q-57 35 -72 70l44 214q69 -81 127 -103q38 -17 66 -30t49 -25t37.5 -24.5t34.5 -29.5q6 -6 7 -17t-2 -23q-4 -18 -19.5 -48t-45.5 -66
t-73 -74.5t-103 -74.5l225 -171q-42 -19 -84.5 -37t-84.5 -35z" />
    <glyph glyph-name="three_beng" unicode="&#x9e9;" horiz-adv-x="512" 
d="M148 25q-67 0 -138 21l57 218q55 -81 145 -81q27 0 55 10.5t52.5 29.5t42.5 45.5t25 58.5q4 19 1.5 39.5t-10.5 38t-24 28.5t-39 11q-20 0 -41 -11t-26 -35q-7 -29 8 -51t44 -35l-141 -52q-1 1 -5.5 11.5t-9.5 28t-6.5 41t4.5 50.5q10 46 36 82.5t60.5 61t72.5 37.5
t73 13q49 0 86.5 -23t60.5 -60t30.5 -84t-2.5 -94q-9 -43 -33.5 -84.5t-53.5 -71.5q-141 -143 -324 -143z" />
    <glyph glyph-name="four_beng" unicode="&#x9ea;" horiz-adv-x="403" 
d="M194 18q-7 0 -20 -0.5t-29.5 4t-35.5 16.5t-37 36q-26 44 -15 94q1 4 2.5 13.5t9.5 26t25.5 40t49.5 53.5l1 1q-41 64 -31 114q2 6 5 19.5t12 32t25.5 40t44.5 42.5q36 28 75.5 41.5t78.5 13.5q33 0 59 -11.5t42 -32.5t21.5 -50t-1.5 -63q-12 -56 -61 -111h1l-22 -18
l14 -19q22 -47 10 -103q-5 -21 -20.5 -51.5t-43 -59t-67.5 -48.5t-93 -20zM289 369q37 0 68 21.5t37 51.5q7 31 -14.5 52.5t-58.5 21.5q-18 0 -35 -6t-31 -16t-24 -23.5t-13 -28.5t1 -28.5t14 -23t24 -15.5t32 -6zM225 111q36 0 66.5 21.5t36.5 51.5t-15 51.5t-57 21.5
q-18 0 -35 -6t-31 -15.5t-24 -23t-13 -28.5t1 -28.5t14 -23t24.5 -15.5t32.5 -6z" />
    <glyph glyph-name="five_beng" unicode="&#x9eb;" horiz-adv-x="495" 
d="M205 3h-4q-38 4 -66.5 22t-46 48.5t-22 73.5t7.5 97q30 140 139 277l237 106q-23 -26 -45 -52.5t-41 -52.5q5 -8 14.5 -14.5t21 -12t23 -9.5t22.5 -5l34 41l69 -77q-49 -60 -73.5 -91t-34 -44.5t-10.5 -16.5l-1 -7q-3 -14 2.5 -28.5t20.5 -21.5l20 24l62 -29
q-3 -5 -17.5 -24t-37.5 -44.5t-53.5 -53.5t-66 -51.5t-74.5 -39t-80 -15.5zM296 145q39 0 76 25q-42 32 -50 57l-4 7q-19 38 -21 67l50 61q-33 10 -62 45q-57 -93 -70 -155q-11 -51 8 -79t73 -28z" />
    <glyph glyph-name="six_beng" unicode="&#x9ec;" horiz-adv-x="520" 
d="M247 21q-43 0 -77.5 22t-56.5 62.5t-28.5 96.5t6.5 124q32 38 63 76.5t62 76.5l51 61l-12 -51q-16 -74 -21 -134t1.5 -102.5t25 -65.5t49.5 -23q20 0 41 8.5t41 22.5t37.5 32t28.5 38q-32 -9 -75 -9q-49 0 -84 19q16 69 25.5 109t15 63t7.5 35l25 115h112
q-48 -223 -47 -229q4 -15 13 -19t21 -4q13 0 29 5l7 25l74 27q0 -7 -1.5 -15.5t-3.5 -19.5q-4 -17 -12.5 -51t-29 -76t-56.5 -88.5t-92 -87.5q-71 -43 -139 -43z" />
    <glyph glyph-name="seven_beng" unicode="&#x9ed;" horiz-adv-x="403" 
d="M366 7h-121l53 249q-15 9 -37 9q-12 0 -30 -7t-36 -16t-34.5 -16t-26.5 -7q-17 0 -26.5 14t-13.5 35t-2 45t6 44q2 10 10 33t21.5 50.5t34.5 57t50 54t67 40t85 15.5q39 0 74 -8t52 -16q-22 -105 -126 -576zM208 345q1 0 7 6t16 13.5t23.5 13.5t28.5 6q26 0 41 -6l22 103
q-9 6 -27 6q-12 0 -23.5 -4.5t-21.5 -10.5t-18 -12.5t-12 -10.5l-7 -10.5t-11.5 -18t-11.5 -22t-7 -21.5l-3 -16q-4 -16 4 -16z" />
    <glyph glyph-name="eight_beng" unicode="&#x9ee;" horiz-adv-x="402" 
d="M162 23q-40 0 -72.5 9t-45.5 15q17 79 32 147t29 133.5t28.5 133.5t31.5 147h115l-44 -209l285 178l-52 -172l-68 -39q14 -22 15 -58.5t-6 -66.5q-7 -33 -27.5 -71t-52.5 -71t-74.5 -54.5t-93.5 -21.5zM209 140q13 0 24 4.5t19.5 10.5t15 12t9.5 9t9 11.5t11.5 18
t10.5 19t6 14.5q1 4 -1 8t-16 4q-16 0 -39 -2t-55 -6l-21 -98q11 -5 27 -5z" />
    <glyph glyph-name="nine_beng" unicode="&#x9ef;" horiz-adv-x="477" 
d="M374 14q-10 3 -24.5 10.5t-37.5 18.5l-31 14q8 21 11 39q6 24 5 46.5t-7.5 40t-20 27.5t-32.5 10q-30 0 -56.5 -18t-35.5 -59q-1 -7 -1.5 -15.5t3 -16t10.5 -12.5t21 -5q14 5 24 21t13 30t1 26q15 -11 31 -20.5t32 -19.5q-23 -48 -58 -78.5t-82 -30.5q-26 0 -45 11
t-29.5 29.5t-13 42.5t3.5 50q0 1 3.5 13.5t13 31.5t23 41t33.5 41t47 33t62 17q8 1 16 1h16q29 -4 51 -17t37.5 -29.5t24.5 -33t12 -27.5q7 15 11 34q8 38 0 69t-28.5 52.5t-51.5 33.5t-67 12q-39 0 -82 -10l97 197q4 -1 20 -4.5t38 -11.5t48 -21.5t50.5 -34.5t44.5 -50.5
t32 -69.5q21 -81 7 -148l-7 -36q-8 -37 -25 -72.5t-36.5 -66t-39 -53t-31.5 -32.5z" />
    <glyph glyph-name="ramiddlediagonal_beng" unicode="&#x9f0;" horiz-adv-x="489" 
d="M292 279l-46 -37h13q19 0 32 -1t23 -3.5t20 -7t23 -10.5l8 41q-40 13 -73 18zM375 305l11 51l-55 -44q11 -2 22 -3.5t22 -3.5zM109 559l63 63h505l-60 -63h-45l-119 -559h-143l13 63q-17 19 -43.5 37t-57 31t-62 21t-57.5 8h-15q-15 0 -22 8t-4 19q1 8 13 21.5t28.5 29
t33 30.5t28.5 26l259 242l5 23h-320z" />
    <glyph glyph-name="ralowerdiagonal_beng" unicode="&#x9f1;" horiz-adv-x="489" 
d="M109 559l63 63h505l-60 -63h-45l-119 -559h-143l13 63q-17 19 -43.5 37t-57 31t-62 21t-57.5 8h-15q-15 0 -22 8t-4 19q1 8 13 21.5t28.5 29t33 30.5t28.5 26l259 242l5 23h-320zM324 234q10 -3 33 -14l29 136l-140 -114h13q42 0 65 -8zM269 -91q-44 56 -93 91.5
t-85 46.5q-13 6 -19 17.5t-4 22.5q3 10 11 17l24 16q86 -10 194 -79z" />
    <glyph glyph-name="rupeesign_beng" unicode="&#x9f3;" horiz-adv-x="449" 
d="M264 4h-91l60 285h-109q13 22 20.5 34.5t9.5 16.5l94 16l12 60q-21 41 -69 41q-31 0 -60.5 -13.5t-41.5 -23.5q29 76 47 121l24 60h3q22 0 44.5 -5.5t43 -14t36.5 -19.5t27 -22q47 -49 31 -124l-9 -46l112 19q-3 -12 -12 -25.5l-18 -27t-18 -26t-11 -21.5h-71l-39 -187
q19 -8 34 -8q32 0 56 23t30 52l1 10q-1 1 -1.5 5.5t-2.5 9.5t-6 9.5t-12 4.5q-22 -8 -25 -21q-3 -12 3.5 -22.5t18.5 -16.5l-54 -29q-2 3 -4.5 11t-3 18t-1 20.5t1.5 18.5q2 12 8.5 26t16.5 25.5t23.5 19t31.5 7.5q17 0 31 -10t23 -25.5t12.5 -35.5t-0.5 -40
q-10 -45 -34 -74t-53.5 -46t-59 -23.5t-49.5 -6.5z" />
    <glyph glyph-name="zwnj" unicode="&#x200c;" 
 />
    <glyph glyph-name="zwj" unicode="&#x200d;" 
 />
    <glyph glyph-name="endash" unicode="&#x2013;" horiz-adv-x="600" 
d="M92 263l33 57l511 53q-4 -18 -13 -30.5t-20 -24t-20 -24t-13 -31.5h-478z" />
    <glyph glyph-name="emdash" unicode="&#x2014;" horiz-adv-x="740" 
d="M92 263l33 57l651 53q-4 -18 -13 -30.5t-20 -24t-20 -24t-13 -31.5h-618z" />
    <glyph glyph-name="quoteleft" unicode="&#x2018;" horiz-adv-x="273" 
d="M330 585q-17 -11 -34 -18t-30.5 -14t-23.5 -16t-13 -25q-4 -18 4.5 -33t30.5 -15q9 0 23.5 4.5t17.5 21.5q2 10 -6.5 15.5t-21.5 5.5q-10 0 -19 -4l24 35q3 3 5.5 6.5t5.5 8.5q1 0 12 -4t22.5 -12.5t19.5 -22.5t4 -35q-5 -24 -17 -40.5t-27.5 -27.5t-32 -16t-30.5 -5
q-37 0 -55.5 16t-25.5 37t-6 41t3 28q6 29 21.5 49.5t31 33t27.5 18.5t11 6l23 12q14 4 24.5 6.5t22.5 9.5t27.5 22t41.5 44q-1 -7 -2 -13l-2 -12q-9 -43 -24.5 -68.5t-31.5 -38.5z" />
    <glyph glyph-name="quoteright" unicode="&#x2019;" horiz-adv-x="273" 
d="M218 544q18 12 34.5 18.5t30 13t22.5 15t13 24.5q4 20 -6 35t-30 15q-14 0 -26 -8q-1 -1 -6.5 -5.5t-7.5 -11.5q-2 -9 7 -16t23 -7q9 0 18 4l-36 -50q-2 0 -12.5 4t-22.5 12.5t-20 23t-4 35.5q5 23 17.5 39.5t28.5 27t32.5 15.5t30.5 5q36 0 54.5 -16t25 -36.5t6 -40.5
t-2.5 -28q-6 -27 -20 -47t-29 -33.5t-27.5 -20t-14.5 -6.5l-9 -4.5l-13 -6.5l-24 -10q-6 -2 -13.5 -5t-18 -10t-25.5 -20t-36 -37q0 5 1 10l2 11q10 45 25.5 71.5t32.5 39.5z" />
    <glyph glyph-name="quotedblleft" unicode="&#x201c;" horiz-adv-x="431" 
d="M498 585q-16 -11 -32.5 -17.5t-30.5 -13.5t-24 -16.5t-13 -25.5q-4 -18 4.5 -33t30.5 -15q4 0 10 0.5t12 3.5t11 8t7 14t-5.5 15t-22.5 6q-9 0 -18 -4l24 35q3 3 5.5 6.5t5.5 8.5l11 -4q11 -3 22.5 -12t19.5 -23.5t3 -35.5q-5 -24 -17 -41t-27 -27.5t-31.5 -15
t-30.5 -4.5q-36 0 -54.5 16t-26 37t-6.5 41t3 28q8 28 22 48t28.5 33t26.5 19.5t15 6.5l22 12q15 5 24.5 8.5t11.5 3.5q8 4 29 19t52 51q-1 -6 -1.5 -12t-2.5 -12q-9 -43 -24.5 -69t-32.5 -39zM288 524q-18 -12 -35 -18.5t-30.5 -13t-23 -16t-13.5 -27.5q-3 -17 5 -34
t31 -17q9 0 22.5 5.5t17.5 22.5q3 14 -9 17.5t-18 3.5q-10 0 -19 -4q7 11 14 21.5t14 21.5l7 11q1 0 12 -3t23 -11t19.5 -24t2.5 -41q-5 -24 -17 -40t-27.5 -25.5t-32 -13.5t-29.5 -4q-38 0 -56 15.5t-25.5 35.5t-6 40t3.5 28q8 31 23.5 52t30.5 33.5t26 17.5t12 6l20 8
q16 5 27 7t23 9t28 22.5t41 46.5q-1 -7 -2 -13l-2 -12q-9 -45 -24 -69.5t-33 -37.5z" />
    <glyph glyph-name="quotedblright" unicode="&#x201d;" horiz-adv-x="474" 
d="M222 544q18 12 34.5 18.5t30 13t22.5 15t13 24.5q4 19 -5.5 34.5t-29.5 15.5q-15 0 -27 -8q-1 -1 -6.5 -5.5t-7.5 -11.5q-2 -9 6 -16t24 -7q9 0 18 4l-36 -50q-2 0 -13 4t-22.5 13t-19.5 23t-4 35q5 23 17.5 39.5t28.5 27t32.5 15.5t30.5 5q36 0 54.5 -16t25 -36.5
t6 -40.5t-2.5 -28q-6 -27 -20 -47.5t-29.5 -33.5t-28 -19.5t-14.5 -6.5l-21 -11l-24 -10q-6 -2 -13.5 -5t-18 -10t-25.5 -20t-36 -37q0 5 1 10l2 11q10 45 25.5 71.5t32.5 39.5zM431 604q18 11 34 17.5t30 13.5t23.5 15.5t12.5 24.5q5 20 -3 37.5t-31 17.5q-15 0 -25 -8
q0 -2 -6 -7.5t-8 -11.5q-1 -8 2.5 -12.5t8 -6.5t9.5 -2.5t6 -0.5q11 0 21 4q-8 -13 -18 -29.5t-19 -23.5q-1 0 -12 2.5t-22.5 11t-19.5 24t-3 41.5q5 24 17.5 40t28 25.5t32.5 13.5t31 4q37 0 55.5 -16t24.5 -36.5t5 -40t-3 -26.5q-9 -33 -24 -54t-30.5 -33.5t-27.5 -17.5
l-11 -4l-21 -9q-16 -5 -26.5 -7.5t-22.5 -9.5t-27.5 -22t-39.5 -45q0 8 2 15l3 14q9 42 23 65.5t31 36.5z" />
    <glyph glyph-name="indianrupeesign" unicode="&#x20b9;" horiz-adv-x="530" 
d="M286 -65q-34 29 -91.5 78.5t-138.5 121.5l90 147q22 -4 47 -4q22 0 46 5t47 15.5t42 26.5t32 39l2 4h-262l66 64l219 1q4 18 -1.5 39.5t-16.5 40.5t-24.5 32t-26.5 14h-175l65 63h434l-61 -63h-92q39 -55 30 -127h83l-62 -64h-35q-14 -40 -41.5 -76t-61 -65.5
t-70.5 -50.5t-71 -31q52 -25 102 -50t101 -51z" />
    <glyph glyph-name="dottedcircle" unicode="&#x25cc;" horiz-adv-x="585" 
d="M144 256q-19 0 -30 13.5t-7 33.5q5 20 21.5 33.5t35.5 13.5q20 0 31 -13.5t6 -33.5q-4 -20 -20.5 -33.5t-36.5 -13.5zM553 256q-19 0 -30 13.5t-7 33.5q5 20 21.5 33.5t35.5 13.5t30 -13.5t6 -33.5q-4 -20 -20.5 -33.5t-35.5 -13.5zM355 507q4 20 21.5 34t36.5 14
t29.5 -14t6.5 -34q-4 -19 -20.5 -33t-35.5 -14t-30.5 14t-7.5 33zM268 99q4 20 21.5 33.5t36.5 13.5t29.5 -13.5t6.5 -33.5t-20.5 -33t-35.5 -13t-30.5 13t-7.5 33zM463 504q9 11 22 17t25 6q22 0 30.5 -15t4.5 -33q-5 -22 -22 -33.5t-34 -11.5q-19 0 -30.5 13t-7.5 33
q3 16 12 24zM183 150q9 11 22 17.5t24 6.5q21 0 31 -15t6 -34q-5 -22 -22 -34t-36 -12q-22 0 -31 14.5t-5 32.5q3 13 11 24zM542 445q8 5 13.5 6.5t11.5 1.5q19 0 30.5 -13t6.5 -34q-4 -19 -20 -33t-37 -14q-17 0 -29 12.5t-7 35.5q5 24 31 38zM144 241q10 7 26 7
q19 0 30.5 -13.5t7.5 -32.5t-21 -33t-36 -14t-30 13.5t-7 32.5q5 27 30 40zM546 242q20 -17 15 -40q-5 -21 -21.5 -34t-35.5 -13q-21 0 -31 14t-6 32q4 22 22 34.5t35 12.5q13 0 22 -6zM236 446q21 -12 15 -40q-4 -20 -21.5 -33.5t-36.5 -13.5t-29.5 14t-5.5 34q3 18 20 32
t36 14q13 0 22 -7zM470 149q2 -13 0 -22q-4 -17 -18.5 -32.5t-36.5 -15.5q-18 0 -31 12.5t-8 34.5q4 19 21 33.5t37 14.5q11 0 21 -6.5t15 -18.5zM340 504q4 -9 1 -23q-4 -18 -20 -32.5t-37 -14.5q-18 0 -29.5 13t-7.5 33q4 19 19 33t37 14q25 0 37 -23z" />
    <glyph glyph-name="ekar_initial_bn" horiz-adv-x="303" 
d="M261 -294q-53 10 -96 43.5t-73 74t-45.5 79.5t-15.5 60q-2 29 -0.5 59.5t9.5 62.5l8 31q48 134 125 215q79 92 91 150q8 37 -1 78l-21 63h255l-69 -63h-9q-1 -14 -3 -29t-5 -29q-12 -57 -41 -102.5t-65 -86.5q-37 -44 -62 -84t-31 -79l-4 -20q-8 -38 -0.5 -73t26 -62
t46 -43t60.5 -16q28 0 48 8q-32 -65 -62.5 -118.5t-64.5 -118.5z" />
    <glyph glyph-name="oikar_initial_bn" horiz-adv-x="303" 
d="M431 622h66l-69 -63h-9q-1 -14 -3 -29t-5 -29q-12 -57 -41 -102.5t-65 -86.5q-37 -44 -62 -84t-31 -79l-4 -20q-8 -38 -0.5 -73t26 -62t46 -43t60.5 -16q28 0 48 8q-32 -65 -62.5 -118.5t-64.5 -118.5q-53 10 -96 43.5t-73 74t-45.5 79.5t-15.5 60q-2 29 -0.5 59.5
t9.5 62.5l8 31q48 134 125 215q79 92 91 150q8 37 -1 78l-21 63h62q12 25 15 43q16 72 -105 72q-17 0 -48 -1t-77.5 -10t-110.5 -29t-148 -58l99 230q101 25 196 25q79 0 188 -28q36 -9 65 -26t48 -41.5t25.5 -55.5t-1.5 -69q-5 -25 -19 -52z" />
    <glyph glyph-name="k_ko_bn" horiz-adv-x="706" 
d="M415 -177h-143l11 51q-17 16 -44.5 31.5t-59.5 27.5t-67 19t-67 7t-27 24q2 8 12 16l243 203q-38 21 -80 30t-71 9h-9q-4 0 -8 -1q-14 1 -21.5 7t-5.5 17t94.5 85.5t255.5 205.5l1 4h-320l64 63h724l-62 -63h-263l-5 -24q41 0 79 -12.5t66 -37t41.5 -59.5t4.5 -80
q-5 -22 -17 -47t-30.5 -46.5t-43 -35.5t-55.5 -14q-45 0 -70.5 24.5t-17.5 66.5q7 29 32 62q18 -8 32.5 -14t24.5 -11q-15 -13 -18 -27q-4 -15 2.5 -21t21.5 -6q20 0 33 15.5t18 35.5q4 19 -4 33t-21.5 22.5t-29.5 12.5t-28 4q-24 0 -51 -9l-42 -197q46 0 85 -13.5t66 -38
t39 -59.5t3 -77q-4 -22 -16.5 -47t-31 -46.5t-43 -35.5t-54.5 -14q-44 0 -70.5 24t-17.5 65q6 31 32 63l57 -25q-15 -13 -19 -26q-6 -28 24 -28q20 0 33.5 16t17.5 36q4 18 -3 31.5t-20 22.5t-29 13.5t-31 4.5q-25 0 -52 -9zM372 292l25 118q-33 -25 -67 -49t-69 -50h10
q19 0 32 -1t24 -3.5t21 -6t24 -8.5zM312 10l25 117q-15 -11 -49 -35.5t-87 -61.5q66 0 111 -20z" />
    <glyph glyph-name="k_tto_bn" horiz-adv-x="742" 
d="M413 -177h-141l76 349q-45 19 -71 29.5t-34 12.5q-35 12 -65 20.5t-57 6.5l-17 -1q-13 1 -20.5 7t-5.5 17q2 9 11 16l333 279h-313l63 63h480q13 29 18 51q8 36 -15 54t-74 18q-107 0 -326 -95q7 15 13 32l84 194q98 24 179 24q23 0 54.5 -3.5t64.5 -12.5t64 -24.5
t53 -39.5t32 -57.5t0 -79.5q-6 -31 -24 -61h157l-64 -63h-298l-4 -18l26 1q37 0 72.5 -13.5t61.5 -38t38.5 -58.5t3.5 -76q-7 -31 -23 -57.5t-38 -46.5t-48 -31.5t-51 -11.5q-44 0 -63.5 25t-12.5 59q7 30 35 68l52 -23q-16 -17 -19 -31q-5 -25 19 -25q23 0 38 16.5t20 39.5
q4 19 -4 32t-21 21t-28 11.5t-24 3.5q-30 0 -66 -16l-92 -430q28 -8 50 -8q19 0 41 7t41 19.5t33.5 31.5t19.5 43q2 8 1 18t-4.5 18.5t-11 14.5t-19.5 6q-16 0 -28 -8.5t-15 -21.5q-4 -18 8.5 -32t32.5 -21l-89 -39q-2 0 -5.5 7.5t-8 20t-6 29t2.5 35.5q10 48 47 80l10 7
q34 24 72 24q30 0 53.5 -13.5t39.5 -35.5t21 -50.5t-1 -57.5q-3 -17 -12 -34.5t-18.5 -33t-20 -28t-17.5 -18.5q-103 -96 -234 -96h-11zM372 292l25 118l-136 -99h10q49 0 101 -19z" />
    <glyph glyph-name="k_tt_ro_bn" horiz-adv-x="745" 
d="M182 -239q-9 10 -32.5 36t-61.5 70q52 43 109.5 62.5t110.5 19.5q86 0 151 -34l9 43h-164l61 286l-103 31q-69 21 -122 21h-11q-5 0 -10 -1q-8 1 -19 9.5t-9 21.5q1 5 6 11.5t14 12.5l133 89l168 120h-300l63 63h480q13 29 18 51q8 36 -15 54t-74 18q-107 0 -326 -95
q7 15 13 32l84 194q98 24 179 24q23 0 54.5 -3.5t64.5 -12.5t64 -24.5t53 -39.5t32 -57.5t0 -79.5q-6 -31 -24 -61h158l-65 -63h-298l-2 -9l26 1q32 0 68 -8.5t64 -27.5t43.5 -49t6.5 -72q-5 -23 -19 -44t-33.5 -37.5t-43.5 -27.5t-48 -13q-18 0 -35.5 4t-31 13t-20 23.5
t-2.5 35.5q6 29 37 62l64 -21q-31 -25 -32 -31l1 -2q5 -6 19 -6q22 0 36.5 9t17.5 24l1 4q-2 10 -12.5 17t-24 11.5t-27 6.5t-20.5 2q-29 0 -64 -11l-70 -328q27 -6 52 -6q73 0 111 44l-58.5 -19.5t-43.5 -15.5l-7 -1q-29 37 -20 78q3 12 9 23.5t12.5 21t13 17t11.5 11.5
l13 6q25 16 63 20q30 0 54.5 -11t42 -29t25 -42t1.5 -51q-5 -22 -18.5 -43t-31.5 -39t-40.5 -32.5t-44.5 -24.5l-42 -200h-141l7 33q-47 19 -95 19q-24 0 -50 -7t-49 -18t-40 -26.5t-24 -31.5zM389 357l15 72l-98 -56q26 0 83 -16zM639 128q10 13 12 24l-1 6q-7 20 -39 20
q-30 0 -40 -13l2 -1q4 -15 66 -36z" />
    <glyph glyph-name="k_to_bn" horiz-adv-x="644" 
d="M207 -35h-9q-30 0 -63 7.5t-61 17t-48 18t-22 10.5l72 219q10 -29 27.5 -57.5t41 -51t51 -36.5t57.5 -14q10 0 23 3t25 8.5t21.5 13.5t12.5 18q3 17 -10 30q-37 -9 -47 -9l-4 97q9 1 27.5 8.5t38.5 20.5t36.5 31.5t21.5 42.5q8 38 -8.5 64.5t-60.5 26.5q-2 0 -12 -1.5
t-22 -6.5t-22.5 -15t-13.5 -26q-4 -16 10.5 -25t28.5 -9q22 0 47 13l-29 -80q-28 -7 -53 -7q-24 0 -44.5 7.5t-34 22t-18.5 35t0 47.5l2 8q7 31 25.5 58t46 46.5t60 30.5t68.5 11q48 0 79 -15t49 -38.5t25.5 -51t8.5 -51.5q5 1 9 1h10q27 0 52.5 -10.5t44 -28.5t27.5 -43
t2 -54q-3 -15 -14 -34t-27.5 -35.5t-38 -28t-45.5 -11.5q-42 0 -69 45l19 17q15 15 35 32q9 -23 27 -23q28 0 36 38q1 10 -3 18t-11.5 14t-16 9t-15.5 3q-15 -1 -29 -6t-27 -18l-22 -21q-15 -20 -37 -38q22 -36 11 -91q-12 -36 -36 -65t-56.5 -49t-70.5 -31t-78 -11z
M774 559h-665l64 63h661z" />
    <glyph glyph-name="k_t_bo_bn" horiz-adv-x="644" 
d="M239 -31l13 59l-80 -50q33 0 67 -9zM773 559h-671l73 63h665zM146 54l-4 -1q-50 10 -82.5 22.5t-41.5 15.5l69 195q10 -25 29 -49.5t42.5 -43.5t51.5 -30.5t58 -11.5q23 0 49 9.5t31 23.5q2 11 -10 22q-42 -8 -47 -8l-7 92q15 1 34.5 9t37.5 20t32 26.5t17 30.5
q6 30 -10.5 52t-58.5 22q-24 0 -45.5 -9t-26.5 -30q-1 -6 3 -10.5t11 -7.5t15 -4.5t14 -1.5q20 0 47 11l-31 -78q-28 -6 -52 -6q-35 0 -56 11.5t-31.5 28t-12.5 34t2 30.5l6 22q9 25 28 45.5t44.5 35.5t57 23.5t65.5 8.5q45 0 76 -14t49.5 -34t27 -44t9.5 -43l18 1
q27 0 53 -9t45 -25.5t29 -38.5t4 -49q-3 -14 -13.5 -31t-26 -32t-36.5 -25t-45 -10q-44 0 -75 43l25 18q15 14 32 26q6 -18 29 -18q27 0 33 28q0 12 -14.5 23t-34.5 11q-18 0 -38 -9.5t-39 -28.5q-8 -8 -15 -16t-16 -13q21 -29 10 -79q-13 -42 -49 -72l-57 -263h-141l5 24
q-15 9 -36 17.5t-45 14.5t-49 10t-49 4q-17 0 -26 8t-7 17t13 18z" />
    <glyph glyph-name="k_t_ro_bn" horiz-adv-x="644" 
d="M773 559h-671l73 63h665zM437 137l-58 -273h-142l10 46q-22 8 -42 8t-41 -8t-39 -21.5t-32 -31.5t-21 -37l-63 121q42 45 86.5 68t88.5 23q36 0 84 -22l8 39q-14 -2 -28.5 -3.5t-28.5 -1.5q-35 0 -69.5 7t-62 15t-46.5 15.5t-23 9.5l69 195q10 -25 29 -49.5t42.5 -43.5
t51.5 -30.5t58 -11.5q23 0 49 9.5t31 23.5q2 11 -10 22q-42 -8 -47 -8l-7 92q15 1 34.5 9t37.5 20t32 26.5t17 30.5q6 30 -10.5 52t-58.5 22q-24 0 -45.5 -9t-26.5 -30q-1 -6 3 -10.5t11 -7.5t15 -4.5t14 -1.5q20 0 47 11l-31 -78q-28 -6 -52 -6q-35 0 -56 11.5t-31.5 28
t-12.5 34t2 30.5l6 22q9 25 28 45.5t44.5 35.5t57 23.5t65.5 8.5q45 0 76 -14t49.5 -34t27 -44t9.5 -43l18 1q27 0 53 -9t45 -25.5t29 -38.5t4 -49q-3 -14 -13.5 -31t-26 -32t-36.5 -25t-45 -10q-44 0 -75 43l25 18q15 14 32 26q6 -18 29 -18q27 0 33 28q0 12 -14.5 23
t-34.5 11q-18 0 -38 -9.5t-39 -28.5q-8 -8 -15 -16t-16 -13q21 -29 10 -79q-8 -26 -24 -47z" />
    <glyph glyph-name="k_no_bn" horiz-adv-x="717" 
d="M372 292l25 118q-34 -25 -67.5 -49t-68.5 -50h10q51 0 101 -19zM416 -171h-142l33 155q-30 54 -81 54q-15 0 -30.5 -6t-30 -15.5t-24 -23t-12.5 -28.5q-8 -34 15 -53l4 -2q8 -6 19 -6t19.5 10t11.5 23q5 27 -6 49l80 -14l-5 -23q-5 -24 -17.5 -46t-31 -38.5t-42.5 -26
t-51 -9.5q-34 0 -57.5 12.5t-36.5 33.5t-16 49.5t4 60.5q9 41 31 74.5t52 57.5t65 37t70 13q59 0 101 -37l7 35l-42 22q-105 54 -181 54l-17 -1q-14 1 -21.5 7t-5.5 17q2 9 11 16l339 275l1 4h-320l65 63h733l-62 -63h-274l-6 -28q8 1 15 1.5t15 0.5q69 0 130 -50
q4 -3 13.5 -14.5t18 -30.5t12.5 -44t-2 -54q-6 -27 -19.5 -51.5t-30 -44t-36 -33.5t-38.5 -20q-16 -4 -47 -4q-44 0 -63.5 24t-11.5 62q7 33 36 72l57 -25q-17 -17 -20 -34q-5 -24 20 -24q23 0 38.5 17.5t20.5 41.5q4 18 -3 31.5t-20 22t-28 13t-27 4.5q-28 0 -62 -13z" />
    <glyph glyph-name="k_bo_bn" horiz-adv-x="717" 
d="M436 -73h-141l5 23q-15 10 -35.5 18.5t-43.5 15t-45.5 10t-39.5 3.5l-15 -1q-15 1 -25 8t-7 18q2 9 12 17l202 148q-106 54 -181 54h-9q-4 0 -8 -1q-14 1 -21.5 7t-5.5 17q2 9 11 16l333 279h-313l65 63h733l-62 -63h-274l-6 -28q8 1 15 1.5t15 0.5q69 0 130 -50
q4 -3 13.5 -14.5t18 -30.5t12.5 -44t-2 -54q-6 -27 -19.5 -51.5t-30 -44t-36 -33.5t-38.5 -20q-16 -4 -47 -4q-44 0 -63.5 24t-11.5 62q7 33 36 72l57 -25q-16 -16 -20 -35q-5 -23 19 -23q23 0 39 17t21 42q4 18 -3 31t-20 22t-28 13.5t-27 4.5q-28 0 -62 -13zM372 292
l25 118q-34 -25 -67.5 -49t-68.5 -50h10q51 0 101 -19zM321 47l12 58q-19 -13 -39.5 -25t-39.5 -24q33 0 67 -9z" />
    <glyph glyph-name="k_mo_bn" horiz-adv-x="853" 
d="M344 -149q-32 0 -56.5 13t-39.5 36t-19.5 54t3.5 68q5 24 17 46.5t28.5 42t34 34.5t32.5 23q-19 15 -46.5 29t-58 25.5t-61.5 18t-56 6.5q-10 0 -16 -1q-12 0 -20.5 7.5t-5.5 21.5q3 11 15 21l329 263h-314l65 63h880l-74 -63h-45l-140 -658h-141l17 82q-16 14 -38 31.5
t-48.5 32.5t-54.5 25t-54 10q-28 0 -57 -11l-10 -6q-10 -5 -23 -14.5t-25 -23.5t-16 -31q-4 -21 7.5 -41.5t37.5 -20.5q11 0 19.5 8t10.5 18q7 30 -17 56l84 5q4 -8 3 -21.5t-6 -36.5q-2 -9 -10.5 -27.5t-25 -37t-42.5 -33t-63 -14.5zM713 173l82 386h-223l-6 -26
q36 -1 69.5 -12t59 -32t38.5 -52t8 -71q-5 -22 -16 -45t-27.5 -41.5t-38 -30.5t-48.5 -12q-50 0 -70 26t-13 59q6 27 31 57l57 -24q-22 -20 -23 -27q-4 -16 19 -16q41 0 49 38q4 16 -5.5 26.5t-24 17.5t-29 10t-22.5 3q-20 0 -42 -7l-38 -179h20q104 0 193 -48zM376 306
l22 103l-121 -84h8q41 0 91 -19z" />
    <glyph glyph-name="k_ro_bn" horiz-adv-x="656" 
d="M90 -63l-74 138q19 20 43 38t50 31.5t53.5 21t53.5 7.5q65 0 120 -32l53 248q-5 20 -22 31.5t-40 11.5q-24 0 -39.5 -16.5t-20.5 -37.5q0 -3 -0.5 -11.5t2.5 -17t11.5 -15.5t24.5 -7q12 0 31 8l-22 -32q-10 -13 -20 -26.5t-20 -27.5q-25 0 -43.5 13.5t-29.5 35
t-14.5 47.5t1.5 51q7 34 25 61t42 46t52.5 29t58.5 10q40 0 70.5 -15t50 -38.5t27.5 -52.5t4 -57l21 1q31 0 58 -8.5t46.5 -26t30.5 -45t10 -65.5l-7 -35q-3 -11 -13 -28.5t-26.5 -34t-39 -28.5t-49.5 -12q-32 0 -52 19t-13 53q5 26 29 58q17 -10 37 -18l9 -3
q-14 -14 -17 -26q-4 -20 16 -20t33 13t17 33q3 16 -3.5 27t-17.5 18t-24 10.5t-21 3.5q-23 0 -49 -10l-54 -255h-133l9 42q-30 13 -63 13q-27 0 -52.5 -10.5t-47 -27.5t-38 -38t-24.5 -42zM786 559h-677l64 63h674z" />
    <glyph glyph-name="k_lo_bn" horiz-adv-x="705" 
d="M414 -177h-142l34 158q-25 0 -41 -19t-22 -45q-12 -2 -26 -3t-31 -2l3 10q4 15 2 29t-8 25t-15 17.5t-21 6.5q-23 0 -44 -15.5t-27 -47.5q-4 -17 0 -32.5t18 -15.5q12 0 20 13t11 26q2 13 1 31l20 -15l14 -8q8 -4 14 -9q-4 -23 -16.5 -41.5t-27.5 -31.5t-30.5 -20.5
t-26.5 -7.5q-42 0 -57.5 34.5t-5.5 84.5l6 29q5 18 18.5 39.5t33 40t43 31.5t47.5 13h7q56 0 83 -46q34 32 67 32h13q-18 19 -45 37t-58 31.5t-62 22t-56 8.5q-10 0 -15 -1q-13 0 -20.5 7t-5.5 20q3 10 12 20l350 326l1 4h-321l63 63h723l-60 -63h-263l-8 -39q39 0 77 -14
t65.5 -42t40 -68.5t1.5 -92.5q-5 -24 -17.5 -52.5t-31 -53t-44 -41t-55.5 -16.5q-45 0 -71 27t-15 76q7 34 33 73q24 -15 57 -30q-15 -14 -21 -30q-6 -32 25 -32q20 0 33.5 17.5t18.5 41.5q5 21 -2 36.5t-19.5 25.5t-28 15t-29.5 5q-26 0 -53 -10zM361 242l29 134
q-35 -29 -70 -56.5t-70 -55.5h10q19 0 32 -1t24 -3.5t21.5 -6.5t23.5 -11z" />
    <glyph glyph-name="k_sso_bn" horiz-adv-x="884" 
d="M563 313l11 56q-25 3 -50.5 18.5t-46.5 40.5t-34 58.5t-13 72.5h-99q19 -58 9 -106l-1 -8q102 -27 157 -132q16 3 34 3q16 0 33 -3zM600 489l15 70h-79q10 -36 57 -66zM368 -1q-22 0 -40.5 12t-30 32.5t-16 46.5t1.5 55q4 20 12.5 38t18 33t18.5 25t16 15q-3 11 -11 24
t-19.5 24t-26.5 18.5t-32 7.5q-25 0 -51.5 -18t-33.5 -51q-1 -6 -1 -15.5t3 -18t9 -15t17 -6.5q17 0 33 15.5t22 35.5l61 -14q-9 -23 -23.5 -44t-33.5 -37.5t-41 -26.5t-46 -10l-11 1q-26 5 -44.5 20t-28 37t-11.5 48t3 52q8 36 25 64.5t39 49t46 32.5t44 15q8 34 -3 66.5
t-30 48.5h-94l64 63h901l-61 -63h-257l-8 -36q41 0 78 -14.5t63.5 -41.5t38 -66t1.5 -88q-3 -14 -11.5 -39t-25.5 -49t-44.5 -41.5t-68.5 -17.5q-46 0 -66.5 30t-11.5 73q5 25 21 54l62 -18q-12 -15 -16 -30q-1 -7 4 -17.5t17 -10.5q21 0 35.5 14.5t18.5 35.5q4 20 -0.5 35
t-16 25.5t-27.5 15.5t-34 5q-21 0 -50 -11l-78 -367h-141l40 189q-33 19 -66 19q-14 0 -29.5 -4.5t-29.5 -13.5t-25 -23.5t-15 -34.5q-5 -26 3.5 -39.5t20.5 -13.5q18 0 33 15t22 36q13 -4 28.5 -7t28.5 -7q-19 -49 -55.5 -83t-83.5 -34z" />
    <glyph glyph-name="k_ss_nno_bn" horiz-adv-x="885" 
d="M573 357l8 39q-23 3 -49 16.5t-47.5 35t-36.5 50t-16 61.5h-97q19 -44 10 -89q101 -22 159 -113q20 3 37 3q16 0 32 -3zM605 507l11 52h-76q8 -24 65 -52zM594 -209h-141l19 92q-26 72 -93 72q-12 0 -26.5 -4t-27 -11.5t-22.5 -17.5t-12 -23q-4 -17 5.5 -31.5t32.5 -14.5
q13 0 20 8t9 19q4 18 -8 35q12 0 23.5 -2t22.5 -4l29 -4l-5 -23q-4 -18 -16 -34.5t-29.5 -28.5t-39 -19t-44.5 -7q-59 0 -87.5 34.5t-17.5 87.5q7 34 28.5 60.5t51.5 45t65 28t69 9.5q20 0 50.5 -6.5t53.5 -19.5l45 211q-35 15 -68 15q-14 0 -29.5 -4t-29 -11.5t-24 -19
t-13.5 -25.5q-4 -20 5.5 -31t21.5 -11q18 0 32.5 12t20.5 32l59 -12q-20 -51 -58 -80t-80 -29q-23 0 -42 10.5t-31 28.5t-16.5 41.5t0.5 49.5q4 18 12.5 34.5t18 29t17.5 21t13 11.5q-3 9 -11.5 19t-20 19t-27 14.5t-32.5 5.5q-33 0 -55.5 -17t-27.5 -38q0 -4 -0.5 -11.5
t2.5 -14.5t10 -12t19 -5q20 0 33.5 12t20.5 32l62 -12q-19 -45 -57 -77.5t-86 -32.5q-28 3 -49 15t-33.5 30.5t-16 43t2.5 51.5q7 33 24 58.5t39 43t45 27t41 12.5q6 28 -6 53t-29 38h-104l73 63h906l-69 -63h-255l-5 -22q32 0 69 -10.5t66.5 -32.5t45 -57t5.5 -84
q-3 -12 -10.5 -34t-24 -43.5t-43.5 -37.5t-68 -16l-19 1q-33 7 -51 31.5t-10 59.5q5 23 21 52l65 -17q-15 -17 -17 -26q-3 -13 5.5 -18t17.5 -5q18 0 31.5 11.5t16.5 28.5q4 16 -1.5 28t-17.5 20t-28 12t-33 4q-24 0 -50 -9z" />
    <glyph glyph-name="k_ss_bo_bn" horiz-adv-x="885" 
d="M487 -48l12 58l-80 -50q29 0 68 -8zM605 507l11 52h-76q8 -24 65 -52zM573 357l8 39q-23 3 -49 16.5t-47.5 35t-36.5 50t-16 61.5h-97q19 -44 10 -89q101 -22 159 -113q20 3 37 3q16 0 32 -3zM656 90l-57 -268h-140l7 33q-16 9 -37.5 17.5t-44.5 15t-44.5 10.5t-37.5 4
l-15 -1q-17 1 -26 8t-7 18q2 7 12 17l259 189l24 110q-35 15 -68 15q-14 0 -29.5 -4t-29 -11.5t-24 -19t-13.5 -25.5q-4 -20 5.5 -31t21.5 -11q18 0 32.5 12t20.5 32l59 -12q-20 -51 -58 -80t-80 -29q-23 0 -42 10.5t-31 28.5t-16.5 41.5t0.5 49.5q4 18 12.5 34.5t18 29
t17.5 21t13 11.5q-3 9 -11.5 19t-20 19t-27 14.5t-32.5 5.5q-33 0 -55.5 -17t-27.5 -38q0 -4 -0.5 -11.5t2.5 -14.5t10 -12t19 -5q20 0 33.5 12t20.5 32l62 -12q-19 -45 -57 -77.5t-86 -32.5q-28 3 -49 15t-33.5 30.5t-16 43t2.5 51.5q7 33 24 58.5t39 43t45 27t41 12.5
q6 28 -6 53t-29 38h-104l73 63h906l-69 -63h-255l-5 -22q32 0 69 -10.5t66.5 -32.5t45 -57t5.5 -84q-3 -12 -10.5 -34t-24 -43.5t-43.5 -37.5t-68 -16l-19 1q-33 7 -51 31.5t-10 59.5q5 23 21 52l65 -17q-15 -17 -17 -26q-3 -13 5.5 -18t17.5 -5q18 0 31.5 11.5t16.5 28.5
q4 16 -1.5 28t-17.5 20t-28 12t-33 4q-24 0 -50 -9l-65 -305h-1z" />
    <glyph glyph-name="k_ss_mo_bn" horiz-adv-x="1053" 
d="M573 357l8 39q-23 3 -49 16.5t-47.5 35t-36.5 50t-16 61.5h-97q19 -44 10 -89q101 -22 159 -113q20 3 37 3q16 0 32 -3zM605 507l11 52h-76q8 -24 65 -52zM996 559h-239l-5 -22q41 0 78.5 -13t64 -37t39.5 -58t4 -76q-3 -12 -10.5 -34t-24 -43.5t-43.5 -37.5t-68 -16
q-46 2 -67 28t-13 64q5 23 21 52l65 -17q-15 -17 -17 -26q-5 -23 23 -23q18 0 31.5 11.5t16.5 28.5q4 16 -1.5 28t-17.5 20t-28 12t-33 4q-24 0 -50 -9l-46 -215l37 2q101 0 192 -49zM1243 622l-62 -63h-45l-157 -738h-140l26 122q-15 15 -37 32.5t-48.5 32.5t-54 25
t-53.5 10q-18 0 -39 -6t-41 -17.5t-35 -27.5t-19 -35q-5 -24 7.5 -43t38.5 -19q1 0 5.5 1t9 3.5t9 7.5t6.5 13q7 31 -17 57q43 1 83 6q6 -26 -2 -61q-1 -5 -9 -23t-25 -37.5t-43.5 -35t-63.5 -15.5q-31 0 -55.5 12t-40 34.5t-20.5 53t4 68.5q18 86 97 140l27 124
q-35 15 -68 15q-14 0 -29.5 -4t-29 -11.5t-24 -19t-13.5 -25.5q-4 -20 5.5 -31t21.5 -11q18 0 32.5 12t20.5 32l59 -12q-20 -51 -58 -80t-80 -29q-23 0 -42 10.5t-31 28.5t-16.5 41.5t0.5 49.5q4 18 12.5 34.5t18 29t17.5 21t13 11.5q-3 9 -11.5 19t-20 19t-27 14.5
t-32.5 5.5q-33 0 -55.5 -17t-27.5 -38q0 -4 -0.5 -11.5t2.5 -14.5t10 -12t19 -5q20 0 33.5 12t20.5 32l62 -12q-19 -45 -57 -77.5t-86 -32.5q-28 3 -49 15t-33.5 30.5t-16 43t2.5 51.5q7 33 24 58.5t39 43t45 27t41 12.5q6 28 -6 53t-29 38h-104l73 63h1068z" />
    <glyph glyph-name="k_so_bn" horiz-adv-x="852" 
d="M361 242l29 134q-35 -29 -70 -56.5t-70 -55.5h10q19 0 32 -1t24 -3.5t21.5 -7t23.5 -10.5zM694 91l100 468h-223l-10 -44q37 -1 71 -14.5t57.5 -38.5t35.5 -61t5 -82q-5 -24 -16 -50t-27.5 -47.5t-39 -35.5t-49.5 -14q-45 0 -68.5 25.5t-13.5 68.5q5 28 30 64l51 -27
q-14 -14 -17 -30q-5 -25 22 -25q17 0 30 15.5t18 38.5q4 19 -3.5 32.5t-20 22.5t-27.5 13.5t-26 4.5q-19 0 -43 -8l-49 -229q21 4 49 4q27 0 53 -5.5t47.5 -14t38 -17t25.5 -14.5zM234 -89q-26 0 -56 6t-59 18t-54 31.5t-40 46.5l137 129q0 -10 7 -28.5t21.5 -36.5
t35.5 -31.5t49 -13.5q17 0 45 17l8 35q-18 19 -45 37t-58 31.5t-62 22t-56 8.5l-15 -1q-14 -1 -21 7t-5 20q3 10 12 20l350 326l1 4h-320l64 63h869l-62 -63h-45l-132 -621h-141l13 62q-75 29 -124 29q-30 0 -58 -12.5t-54 -29t-51.5 -33t-49.5 -23.5q-28 -9 -54.5 -15
t-49.5 -5z" />
    <glyph glyph-name="kh_bo_bn" horiz-adv-x="568" 
d="M496 -169h-141l7 33q-15 9 -36 17.5t-44 15t-44.5 10.5t-39.5 4l-14 -1q-38 2 -33 26q2 7 12 17l165 120h-263l46 131l120 86q-20 1 -43 11.5t-41.5 30.5t-28 49.5t-0.5 68.5q7 35 29.5 66.5t52.5 55t64 37.5t64 14q21 0 39.5 -6.5t30.5 -19t17 -32.5t-1 -47
q-3 -14 -12 -29.5t-20 -28.5t-20.5 -21.5t-12.5 -9.5l-35 21q-8 3 -14 6l-13 8q24 8 42 22.5t21 28.5q3 11 -5.5 18t-19.5 7q-17 0 -32.5 -8t-27.5 -20t-20 -26.5t-11 -27.5q-6 -30 7 -48.5t44 -18.5q8 0 19.5 0.5t29 6.5t39.5 18.5t51 36.5l-11 -113l-66 -74t-67 -74
q2 -1 7 -1l141 -9q1 0 7 25.5t17 79.5l71 335h235l-62 -63h-45zM383 -39l12 58l-79 -50q30 0 67 -8z" />
    <glyph glyph-name="kh_ro_bn" horiz-adv-x="569" 
d="M107 -192q-21 32 -41.5 64.5t-40.5 64.5q20 20 46 37t54.5 29t58 19t55.5 7q10 0 28 -2.5t39.5 -8t42.5 -13.5t39 -19l16 74h-341l47 132q30 23 59.5 45t60.5 44q-21 1 -44 12.5t-41 32t-27.5 50.5t-0.5 69q7 33 28.5 64.5t51.5 57t64 41t67 15.5q22 0 40.5 -6.5
t30.5 -20t16 -34t-2 -48.5q-3 -14 -12 -29.5t-20 -28.5t-20 -22t-12 -10l-63 36q24 8 42 22t22 30l1 8q-3 12 -14 15t-13 3q-18 0 -33.5 -9t-27.5 -22.5t-20.5 -29t-11.5 -28.5q-1 -8 -0.5 -18.5t6 -21t17 -17.5t31.5 -7q7 0 18.5 0.5t28 6t39.5 18.5t52 38l-10 -116
l-136 -151l150 -11l96 452h235l-61 -63h-45l-150 -705h-142l9 41q-48 24 -92 24q-27 0 -53.5 -9.5t-49.5 -25t-40.5 -35.5t-26.5 -41z" />
    <glyph glyph-name="g_ukar_bn" horiz-adv-x="609" 
d="M294 -6q-15 0 -36.5 3.5t-42.5 9.5t-40.5 13t-31.5 15l49 217q9 -13 25.5 -29.5t40.5 -31t55 -24.5t70 -10q46 0 76.5 22.5t37.5 56.5q2 10 0 17q-57 -20 -86 -23l32 128l24 1q10 1 24 7.5t28.5 17t25 24t14.5 28.5q0 13 -6 27t-22 16q-14 0 -24.5 -7t-18 -17.5
t-12.5 -22t-6 -20.5q-26 32 -52.5 56t-67.5 24l-19 -1q41 -21 55.5 -57t6.5 -71q-12 -59 -38 -90l-161 -4q66 33 79 92q11 52 -50 63q-29 -35 -39 -81q-5 -22 -5 -38l-54 179q111 138 259 138h8q73 -7 112 -42q26 10 56 10q28 0 53 -10t43 -28t25.5 -44.5t0.5 -59.5
q-12 -59 -58 -111l-6 -7q23 -38 9 -105q-15 -68 -53 -113t-86 -71t-99.5 -36.5t-94.5 -10.5z" />
    <glyph glyph-name="g_go_bn" horiz-adv-x="530" 
d="M124 -19q61 28 72 80q10 45 -34 58q-13 -16 -23.5 -33t-20.5 -37l-56 139q104 108 236 108h10q64 -8 100 -36l47 222q-9 17 -29 31.5t-46 14.5q-29 0 -64 -17q38 -19 54.5 -51.5t8.5 -67.5q-9 -45 -35 -81l-151 -4q61 28 72 81q10 44 -33 57q-14 -16 -24.5 -33t-19.5 -37
l-57 139q102 108 234 108h12q31 -4 56.5 -12.5t44.5 -21.5l7 34h235l-62 -63h-45l-123 -576h-141l37 172q-10 17 -29.5 32t-45.5 15q-29 0 -65 -17q38 -18 54.5 -51t9.5 -68q-10 -45 -35 -81z" />
    <glyph glyph-name="g_do_bn" horiz-adv-x="763" 
d="M736 1q-42 0 -63 20.5t-28.5 46t-7 46.5t0.5 23l37 174q-30 -17 -60.5 -35t-60.5 -37h-141l51 240q-24 34 -70 34q-32 0 -68 -19q41 -21 58 -58.5t6 -86.5q-7 -33 -20.5 -58.5t-17.5 -30.5l-161 -4q66 34 79 98q11 50 -35 63q-29 -35 -50 -82q-38 114 -57 163
q111 124 252 124q65 0 108 -31l6 31h459l-62 -63h-269l-35 -165q30 19 60 37t61 35h118l-62 -292q-3 -15 5 -28t20 -17l-26 -125q-15 -3 -27 -3z" />
    <glyph glyph-name="g_dho_bn" horiz-adv-x="745" 
d="M383 100l13 62l-79 -52q17 -1 31 -2.5t23 -5.5zM480 -104h-140l14 66q-18 13 -44 24.5t-54 19.5t-54.5 13t-47.5 5l-17 -1q-11 1 -19.5 8.5t-4.5 23.5q3 15 15 26l297 217l37 173q-25 29 -71 29q-34 0 -49 -8q70 -35 48 -138q-7 -33 -20.5 -58.5t-19.5 -32.5
q-8 -1 -57 -2t-139 -3q106 48 118 102q7 37 -42 50q-28 -33 -44 -71l-62 157q118 126 254 126q32 0 59.5 -8.5t50.5 -22.5l6 31h452l-76 -63h-249l-57 -268h100l11 18l67 -9q13 -1 29.5 -3t36.5 -5q-40 -35 -75.5 -87t-48.5 -110q-23 -108 32 -163q-67 -4 -109 -6t-61 -2h-7
q2 56 17 126q10 51 33 102h-55z" />
    <glyph glyph-name="g_dh_ro_bn" horiz-adv-x="744" 
d="M455 -221h-140l9 42q-48 24 -93 24q-38 0 -78.5 -18t-69.5 -61l-82 130q60 29 105 44.5t89 15.5q24 0 46.5 -4.5t42 -11t35 -14.5t24.5 -15l6 28q-21 15 -47 27.5t-53.5 21t-53.5 13t-46 4.5h-16q-31 2 -26 24q2 9 11 16l308 257l38 176q-11 14 -28.5 24t-41.5 10
q-33 0 -69 -19q46 -23 60 -63.5t5 -82.5q-7 -34 -21 -58t-17 -29h-10q-4 0 -9 -1l-143 -3q66 32 80 97q10 48 -37 62q-28 -34 -48 -80l-57 162q112 125 250 125q33 0 62 -9.5t47 -22.5l7 32h439l-61 -63h-251l-62 -289h97l12 19l70 -10q25 -2 53 -6q-6 -6 -21 -23.5
t-32.5 -44.5t-34 -62.5t-25.5 -75.5q-7 -34 -6 -65.5t6 -58t14.5 -46.5t19.5 -31l-110 8q-18 2 -36.5 2.5t-37.5 1.5q2 51 16 118q17 81 46 146h-58zM366 69l10 -2l18 84q-12 -9 -23 -15.5t-20 -14.5l-61 -44h12q41 0 64 -8z" />
    <glyph glyph-name="g_no_bn" horiz-adv-x="539" 
d="M491 -58h-141l15 72q-22 89 -89 89q-13 0 -27.5 -5t-28 -14.5t-23.5 -22t-13 -27.5q-4 -21 5 -39t32 -18q12 0 20 11t10 23q5 20 -6 43q11 -2 22.5 -4t22.5 -4l29 -5q0 -3 -4 -23q-10 -48 -47 -81t-88 -33q-30 0 -52 11.5t-34.5 31.5t-16 47.5t2.5 59.5q9 40 31.5 72.5
t53 55t67 35t71.5 12.5q20 0 49 -8t52 -24l60 281q-24 34 -70 34q-33 0 -69 -19q41 -22 58 -60.5t8 -77.5q-7 -37 -21 -63.5t-19 -31.5l-160 -4q65 31 79 96q10 49 -37 63q-28 -34 -48 -80l-6 14q-12 38 -25 74.5t-26 73.5q112 125 251 125h13q62 -8 95 -32l7 32h235
l-62 -63h-45z" />
    <glyph glyph-name="g_bo_bn" horiz-adv-x="539" 
d="M376 67l18 84l-46 -33q-14 -11 -29 -20.5t-29 -20.5h10q43 0 66 -8zM482 -100h-141l8 39q-21 15 -47 27.5t-53 21t-53 13.5t-45 5l-17 -1q-32 2 -27 25q2 7 10 15l309 257l38 176q-24 34 -70 34q-33 0 -69 -19q41 -22 58 -60.5t8 -77.5q-7 -37 -21 -63.5t-19 -31.5
l-160 -4q65 31 79 96q10 49 -37 63q-28 -34 -48 -80l-6 14q-12 38 -25 74.5t-26 73.5q112 125 251 125h13q62 -8 95 -32l7 32h235l-62 -63h-45z" />
    <glyph glyph-name="g_mo_bn" horiz-adv-x="777" 
d="M385 -85q-32 0 -57 12.5t-39.5 35t-19 53t3.5 67.5l5 21q10 30 26.5 53.5t35.5 41t38.5 30.5t37.5 23l46 219q-22 35 -69 35q-30 0 -69 -20q39 -24 56.5 -62.5t6.5 -91.5q-12 -56 -39 -93l-161 -4q65 34 80 103q11 51 -35 67q-15 -19 -27.5 -40.5t-22.5 -45.5
q-16 49 -30 91.5t-26 79.5q113 132 254 132h12q62 -8 95 -32l7 32h473l-62 -63h-45l-135 -632h-141l36 167q-57 49 -113 49q-12 0 -30 -4t-37 -14t-33.5 -25.5t-19.5 -38.5q-5 -24 6 -43t39 -19q24 0 29 25q7 33 -16 57l84 5l1 -23q2 -8 0 -18t-4 -21q-2 -9 -9 -25t-25 -38
q-50 -46 -107 -46zM658 275l61 284h-97l-58 -272q52 -1 94 -12z" />
    <glyph glyph-name="g_ro_bn" horiz-adv-x="549" 
d="M152 -73q-20 33 -40 65t-41 64q19 19 44 36t53.5 30t57 20t54.5 7q68 0 118 -25l72 335q-11 20 -30.5 33.5t-46.5 13.5q-32 0 -67 -19q39 -21 56 -58t8 -79q-7 -37 -21 -63.5t-18 -30.5l-161 -5q66 34 79 98q5 25 -4.5 39t-28.5 23q-34 -42 -54 -92q-26 81 -40 123.5
t-16 47.5q115 132 254 132h12q67 -7 104 -38l8 38h234l-61 -63h-45l-119 -559h-141l7 32q-26 7 -53 7q-28 0 -55 -9t-49.5 -24.5t-40.5 -36t-29 -42.5z" />
    <glyph glyph-name="g_lo_bn" horiz-adv-x="548" 
d="M127 -68q-26 0 -43 10.5t-26.5 28t-11 40t3.5 46.5l6 30q6 27 44 70q19 21 39 32.5t36.5 17.5t29.5 7t16 1q74 0 103 -49q19 16 38 26t38 8l13 -1l56 260q-10 19 -28.5 33t-47.5 14q-31 0 -67 -19q83 -47 62 -145q-7 -32 -20 -57t-17 -29l-162 -5q67 35 80 98
q5 25 -4 39.5t-30 22.5q-15 -20 -29 -43t-24 -49l-56 171q113 132 254 132h12q66 -7 103 -38l8 38h233l-60 -63h-45l-131 -617h-141l32 151q-26 0 -44 -19.5t-23 -43.5v-3l-68 -6l3 10q7 35 -8.5 58.5t-42.5 23.5q-29 0 -51.5 -17t-29.5 -49q-3 -16 2 -31.5t23 -17.5
q13 0 21.5 13.5t12.5 28.5q2 14 0 29l56 -31q-5 -22 -18 -41t-30 -33.5t-34.5 -23t-32.5 -8.5z" />
    <glyph glyph-name="gh_no_bn" horiz-adv-x="528" 
d="M154 -247q-33 0 -55.5 13t-36 34.5t-16.5 50t4 60.5q9 43 33.5 77.5t57 58.5t71.5 36.5t78 12.5q45 0 77 -18l5 26q-21 4 -46 6t-56 2q-68 0 -116 -13q-18 66 -30 107t-17 59q15 9 43 23t56 27t48.5 23t21.5 13q1 8 -30 7l-32 -1q-59 -2 -85 12t-21 37q2 8 5 18
t14.5 26.5t35 42.5t65.5 66h-119l64 63h545l-61 -63h-46l-167 -784h-142l31 144q-29 44 -74 44q-15 0 -30.5 -5t-29 -15t-24 -23.5t-13.5 -29.5q-7 -33 14 -53l4 -2q7 -5 19 -5q24 0 32 36q5 24 -7 46l79 -14q1 -2 -4 -23q-17 -57 -54.5 -89.5t-90.5 -32.5zM221 201
q67 19 166 19h10l72 339h-70q-17 -17 -39.5 -36t-50.5 -36q-25 -15 -44.5 -25t-20.5 -18q-5 -23 68 -23q9 0 14 1t9 1q19 0 32.5 -18.5t8.5 -44.5q-3 -13 -8.5 -21.5t-21.5 -22.5t-45.5 -40t-79.5 -75z" />
    <glyph glyph-name="gh_bo_bn" horiz-adv-x="529" 
d="M448 -211h-143l4 18q-20 13 -45.5 25t-52 20t-52 13t-44.5 5l-17 -1q-31 1 -25 26q1 7 9 15l80 68q41 34 81.5 66t80.5 67l-45 1q-37 1 -68 -3t-56 -10l-48 166q15 9 43 23t56 27t48.5 23t21.5 13q1 7 -29 7l-33 -1q-16 0 -36 1t-37 6t-26.5 15t-6.5 27q2 8 5 18
t14.5 26.5t35 42.5t65.5 66h-119l63 63h545l-60 -63h-45zM336 -68l16 79q-14 -9 -27 -19.5t-27 -20.5l-44 -30h10q46 0 72 -9zM221 201q67 19 166 19h10l72 339h-71q-17 -17 -38.5 -35t-50.5 -37q-23 -13 -43 -25t-22 -19v-2q3 -10 20.5 -15t47.5 -5q9 0 14.5 1t9.5 1
q8 0 16.5 -5t14.5 -13.5t8.5 -20t0.5 -24.5q-3 -11 -12 -21.5t-27.5 -28t-47 -43.5t-68.5 -66z" />
    <glyph glyph-name="gh_ro_bn" horiz-adv-x="528" 
d="M102 -166l-34 51l-49 78q19 20 45 37t54 29t57 19t55 7q72 0 126 -28l11 52q-22 4 -48 6t-54 2q-65 0 -115 -14q-12 43 -23.5 86.5t-22.5 88.5q8 6 35.5 20t57 29t52.5 27t24 14q1 7 -48 7h-14q-16 0 -35.5 1t-36.5 6t-27 15.5t-6 29.5q2 8 5.5 18.5t14.5 28t35 45
t68 70.5h-120l63 63h545l-61 -63h-45l-144 -677h-142l11 52q-33 12 -65 12q-29 0 -56 -10t-48.5 -25.5t-39 -35.5t-25.5 -41zM216 181q71 20 168 20h9l76 358h-70q-16 -17 -42 -37.5t-51 -39t-44 -32t-20 -15.5q-1 -5 4.5 -9.5t14.5 -7.5t20 -4.5t20 -1.5q17 0 23 1t10 1
q19 0 32 -19.5t7 -47.5q-3 -14 -17 -30t-46 -45z" />
    <glyph glyph-name="ng_ko_bn" horiz-adv-x="727" 
d="M336 66l12 58l-79 -49q31 0 67 -9zM453 -64h-145l7 33q-14 10 -35.5 18.5t-44.5 15t-46 10t-39 3.5l-14 -1q-17 1 -25.5 8.5t-6.5 17.5q2 9 11 17l260 189l15 71q-8 39 -31.5 59t-52.5 20q-12 0 -27.5 -5t-29.5 -14.5t-25 -24t-15 -32.5q-5 -25 4.5 -44t34.5 -19
q13 0 22 12.5t12 26.5q5 23 -7 46l82 -15q0 -3 -5 -25q-14 -55 -55 -89.5t-95 -34.5q-33 0 -56.5 13t-37.5 35.5t-17 52.5t4 63q21 81 76 127.5t121 58.5q1 18 -16 30h-167l65 63h744l-62 -63h-82q1 -1 -1 -8q-15 -69 -56.5 -105.5t-98.5 -36.5q-31 0 -53.5 12.5t-36.5 33
t-19.5 47.5t0.5 57h-148v-13.5t-1 -13.5q50 -11 84 -38t54 -61.5t26.5 -74t1.5 -75.5l1 4q48 0 88.5 -13.5t68.5 -38t39.5 -59.5t2.5 -77q-5 -23 -17 -48.5t-30.5 -46.5t-43 -34.5t-54.5 -13.5q-44 0 -70.5 24t-17.5 65q6 31 32 63l57 -25q-14 -13 -19 -27q-3 -14 2 -20.5
t22 -6.5q20 0 33.5 15.5t17.5 36.5q4 19 -4 32.5t-21.5 22.5t-29 13t-26.5 4q-24 0 -60 -11zM665 489q11 0 20.5 10.5t13.5 27.5t-2 32h-69l-2 -7q-2 -9 -1 -20t5.5 -20.5t12.5 -16t22 -6.5z" />
    <glyph glyph-name="ng_k_ro_bn" horiz-adv-x="727" 
d="M353 146l12 58q-19 -13 -39.5 -25t-39.5 -24q31 0 67 -9zM654 512q41 0 47 27q0 8 -4 20h-69l-3 -18q5 -29 29 -29zM540 371q53 -2 95 -17t68.5 -41t37 -61t1.5 -77q-4 -20 -15.5 -44.5t-30.5 -45.5t-43.5 -35t-54.5 -14q-45 0 -71 24.5t-17 64.5q6 31 32 63l57 -25
q-16 -14 -20 -29q-5 -25 25 -25q20 0 33.5 15t17.5 35q4 19 -3 33t-20 23t-29 13.5t-29 4.5q-24 0 -60 -11l-76 -359h-145l11 51q-36 12 -68 12q-29 0 -55.5 -10t-49 -26t-38.5 -36t-24 -39l-83 128q19 20 44.5 37t54 29.5t57.5 19.5t56 7q66 0 125 -29l9 42
q-14 10 -35.5 18.5t-44.5 15t-46 10t-39 3.5l-14 -1q-17 1 -25.5 8.5t-6.5 17.5q2 9 11 17l260 189l8 41q-7 39 -30.5 59t-52.5 20q-12 0 -27 -5t-29.5 -14t-25 -22t-14.5 -28q-5 -27 18 -41l3 -2q6 -4 22 -4q11 0 20 9t12 20q3 17 -10 34l82 -11q1 -2 -2 -18
q-6 -22 -19.5 -39t-33 -29t-43.5 -18.5t-49 -6.5q-33 0 -57 10t-39 27t-19.5 39.5t0.5 48.5q20 79 156 125q-3 26 -50 37h-103l65 63h744l-62 -63h-82q0 -3 -4 -25q-4 -18 -17.5 -36t-33.5 -32.5t-45.5 -23.5t-53.5 -9q-33 0 -55.5 15.5t-36 36t-18 41.5t-1.5 33h-180
q0 -7 1 -13t1 -12q210 0 209 -163z" />
    <glyph glyph-name="ng_kho_bn" horiz-adv-x="805" 
d="M364 494q30 10 35 32q2 11 -3.5 17.5t-13.5 6.5q-17 0 -22 -24q-3 -15 4 -32zM742 -129h-141l5 24h-370l52 141q31 23 63.5 47t65.5 47q-39 3 -70 27l-5 -4q-63 -34 -130 -34q-84 0 -174 59q19 46 93 243q24 -81 66 -124t91 -43q31 0 55.5 15.5t32.5 28.5q-18 -5 -53 -5
q-37 0 -78 19q7 31 13 56t11 44q-49 22 -75 54t-34 63q30 19 58 35.5t53 30.5q9 -63 25 -80q23 107 116 114q22 0 37.5 -8.5t25 -23.5t12 -34t-2.5 -40q-9 -41 -39.5 -72.5t-64.5 -40.5q-3 -16 2 -22t20 -6q8 0 21 5l7 21l78 26q-1 -21 -4 -36q-5 -21 -17 -60t-46 -90
q14 -8 34 -8q67 0 147 67q-2 -31 -5 -61.5t-7 -60.5l-144 -161q11 0 165 -12l129 610h234l-61 -63h-45z" />
    <glyph glyph-name="ng_go_bn" horiz-adv-x="617" 
d="M267 -169q-43 11 -99 27l1 6q18 85 76 169q-73 2 -127.5 10t-93.5 22l85 142q13 -2 25 -3t23 -1q24 0 52 6.5t53.5 20t45 35.5t25.5 52q9 42 -6.5 71t-60.5 32q-10 0 -22 -3t-23.5 -9.5t-20 -16.5t-11.5 -23q-2 -12 2 -20t12 -13t18 -7.5t20 -2.5q15 0 36 5l-72 -98
l-27 10q-41 15 -63 54t-11 90q8 36 27.5 65.5t47 50.5t60 32.5t66.5 11.5q5 0 19 0.5t33.5 -4t42.5 -16.5t46 -37q16 -22 24 -45t10.5 -45t1 -42t-5.5 -35q-10 -47 -36.5 -87t-54.5 -66q181 137 261 137l-40 -188q-16 8 -33 8q-24 0 -51.5 -11.5t-54 -30t-50 -40.5
t-38.5 -43q-31 -44 -40 -85q-9 -43 -5 -72q3 -27 6 -32q-30 7 -73 19zM582 409q-31 0 -53.5 12t-36.5 32.5t-19.5 47.5t0.5 58h-364l65 63h643l-62 -63h-18q0 -3 -4 -25q-6 -24 -19 -47t-33 -40t-45 -27.5t-54 -10.5zM628 489q13 0 22 12.5t12 25.5q3 16 -1 32h-69l-2 -7
q-2 -10 -1 -21t5 -20.5t12.5 -15.5t21.5 -6zM341 -189l-1 1z" />
    <glyph glyph-name="ng_mo_bn" horiz-adv-x="677" 
d="M487 559q1 -18 -3 -36q-9 -41 -39.5 -72.5t-64.5 -40.5q-3 -16 2 -22t20 -6q8 0 21 5l7 21l78 26q-2 -24 -5 -41q-3 -12 -8 -30t-14 -41t-25 -50.5t-42 -57.5q6 1 12 1h12q53 0 106 -12l76 356h-95l63 63h279l-62 -63h-45l-150 -704h-140l36 167q-57 49 -114 49
q-17 0 -36 -5.5t-36.5 -16t-30 -26t-16.5 -34.5q-5 -23 5.5 -42.5t37.5 -19.5q11 0 20 8t11 18q7 31 -17 57l85 4q2 -15 0.5 -30t-4.5 -31q-2 -10 -9 -26t-26 -38q-48 -46 -106 -46q-31 0 -55.5 12t-40 34.5t-20.5 53t3 68.5q13 61 59 108h-4q-84 0 -174 59q19 46 93 243
q24 -81 66 -124t91 -43q31 0 55.5 15.5t32.5 28.5q-18 -5 -53 -5q-37 0 -78 19q7 31 13 56t11 44q-49 22 -75 54t-34 63q30 19 58 35.5t53 30.5q9 -63 25 -80q23 107 116 114q34 0 53 -19.5t22 -50.5zM364 494q30 10 35 32q2 11 -3.5 17.5t-13.5 6.5q-17 0 -22 -24
q-3 -15 4 -32z" />
    <glyph glyph-name="ng_ro_bn" horiz-adv-x="540" 
d="M419 480q24 5 40 15t20 26q2 11 -5.5 21t-28.5 10q-16 0 -25 -9.5t-11 -20.5q-5 -22 10 -42zM81 -152q-19 19 -94 108q52 43 109 64t110 21q10 0 28.5 -2t40 -6.5t43.5 -11t40 -16.5l18 86q-68 -26 -132 -26q-105 0 -218 63q25 60 51.5 126.5t50.5 123.5q13 -36 34.5 -67
t48.5 -53.5t58.5 -35.5t64.5 -13q41 0 76.5 19.5t52.5 42.5q-37 -10 -83 -10q-33 0 -91 20q7 34 13.5 62t12.5 51q-62 22 -97 59.5t-46 70.5l121 65q13 -64 50 -95l1 6q14 63 51.5 98t85.5 35q51 0 74 -33.5t13 -82.5q-10 -46 -47.5 -81t-82.5 -44l-6 -31q18 -7 44 -7
q15 0 36 8l8 23l82 23q0 -14 -4 -31q-15 -69 -45 -122l-80 -375h-142l8 33q-47 19 -95 19q-25 0 -51 -6.5t-48 -18t-39 -26.5t-25 -33z" />
    <glyph glyph-name="c_nyo_bn" horiz-adv-x="888" 
d="M241 237q17 0 35 7t34.5 20.5t29.5 34t18 46.5q5 23 -3 23q-2 0 -10 -6q-22 -28 -62 -28q-13 0 -23 1.5t-20 3.5l-21 -97q4 -2 9.5 -3t12.5 -2zM754 123q25 0 40 14t18 29q2 8 -2 15q-26 -7 -47 -7h-8l20 65q7 1 16.5 6.5t18.5 13t15.5 16.5t8.5 18q4 18 -7 28.5
t-31 10.5q-16 0 -28 -7l-42 -196q6 -6 28 -6zM328 -73l-55 104q-6 11 -12 21t-11 21q20 22 46 41t54 33t57 21.5t55 7.5q72 0 125 -33l51 238q-12 39 -60 44q-31 0 -46.5 -14t-21.5 -43q0 -3 -0.5 -11.5t2.5 -17.5t11 -16t24 -7q22 0 37 7l-67 -90q-6 0 -16.5 4t-22.5 11
t-23 16.5t-17 20.5l-5 -9q-10 -22 -30.5 -48t-51 -49t-68 -38.5t-81.5 -15.5q-24 0 -45.5 3t-40 6.5t-31 7.5t-18.5 6l88 411h-46l65 63h904l-61 -63h-730l-23 -106q17 -9 38 -9q10 0 28 6.5t37 15t35.5 15t24.5 6.5q24 0 32 -27l7 9q61 72 148 72q33 0 61.5 -10.5t50 -28.5
t34 -42.5t14.5 -51.5q23 8 46 8q25 0 47.5 -7.5t38.5 -22.5t23 -36t1 -48q-7 -32 -37 -66q22 -29 11 -80t-54.5 -81.5t-102.5 -30.5q-22 0 -38 4l-10 -48h-142l8 39q-36 14 -67 14q-29 0 -56 -11.5t-49 -29.5t-39.5 -40.5t-25.5 -44.5z" />
    <glyph glyph-name="c_ro_bn" horiz-adv-x="409" 
d="M155 559h-46l65 63h424l-61 -63h-250l-16 -74q17 -9 38 -9q10 0 28 6.5t37 15t35 15t24 6.5q16 0 25.5 -13.5t13 -33t3 -42.5t-5.5 -42q-6 -31 -30 -80l-3 -8l-75 -354h-141l10 50q-16 3 -31 3q-21 0 -42 -8.5t-39 -22.5t-31.5 -31t-20.5 -35l-62 120q41 45 86 68t87 23
q10 0 30.5 -3.5t44.5 -12.5l14 67q-26 -7 -58 -7q-23 0 -43.5 3t-39 6.5t-31.5 7.5l-20 6zM248 269q16 0 34.5 7t35 20.5t29 33.5t18.5 46q5 24 -3 24q-2 0 -10 -6q-22 -28 -62 -28q-13 0 -23.5 1.5t-19.5 3.5l-21 -97q4 -2 9 -3t13 -2z" />
    <glyph glyph-name="ch_bo_bn" horiz-adv-x="464" 
d="M239 333q13 0 29.5 5t31.5 14t26 22.5t15 30.5q3 12 -4 13q-9 0 -15 -6t-25 -16q-10 -6 -25 -6q-11 0 -20 3zM266 -32l13 59l-80 -50q31 0 67 -9zM374 -182h-140l12 54q-16 9 -37 17.5t-43.5 15t-44.5 10.5t-39 4l-15 -1q-17 1 -26 8t-7 18q2 8 13 17l138 101
q-33 9 -66 18.5t-65 19.5l28 124q13 -11 34.5 -15.5t66.5 -4.5q31 0 66.5 8.5t68 23t57.5 34t37 41.5l4 13q2 10 1 22q-13 -21 -33 -41.5t-45 -37.5t-53.5 -27.5t-56.5 -10.5q-47 0 -83.5 6t-58.5 13q18 85 35 162t33 149h-57l78 63h489l-75 -63h-303l-13 -62q16 -6 36 -6
q13 0 27 5t27 11.5t24 11.5t17 5q22 0 31 -21t9 -43q14 -11 27.5 -28t22.5 -37.5t12.5 -45t-1.5 -50.5q-23 -105 -140 -163q46 -16 91 -16q8 0 14.5 0.5t13.5 1.5l-33 -154q-10 3 -20.5 6.5t-22.5 8.5z" />
    <glyph glyph-name="ch_ro_bn" horiz-adv-x="464" 
d="M322 18q-46 18 -81.5 29.5t-66.5 20t-59.5 15.5t-60.5 17l13 62q7 31 15 62q12 -8 29.5 -14.5t55.5 -6.5t83 9.5t106 42.5q22 11 38 29t20 38q2 5 2.5 10.5t0.5 13.5q-14 -24 -34 -43.5t-48 -37.5l-17.5 -10t-24.5 -12t-30 -10t-34 -4q-41 0 -80 5.5t-62 13.5l36 170
q7 34 14.5 66.5t17.5 74.5h-57l78 63h491l-75 -63h-305l-13 -62q14 -7 36 -7q17 0 30.5 5.5t24.5 11.5t20.5 11.5t19.5 5.5q18 0 26.5 -10.5t11.5 -22.5t2.5 -22t-0.5 -9q14 -11 27.5 -27.5t22.5 -37.5t12.5 -45.5t-2.5 -51.5q-22 -105 -139 -162q45 -16 91 -16q7 0 14 0.5
t14 1.5l-60 -282h-141l7 33q-43 21 -82 21q-23 0 -46 -8t-43.5 -21.5t-36.5 -31t-25 -37.5l-76 121q46 45 98 68t100 23q41 0 76.5 -13.5t54.5 -26.5zM277 390q-2 0 -3 -0.5t-3 -0.5q-5 0 -10 1t-9 3l-13 -60q6 0 21 3t31.5 11t30.5 21.5t19 35.5q2 10 -4 14q-9 0 -15 -6
t-25 -16q-7 -5 -20 -6z" />
    <glyph glyph-name="ch_ro_alt_bn" horiz-adv-x="464" 
d="M322 18q-46 18 -81.5 29.5t-66.5 20t-59.5 15.5t-60.5 17l13 62q7 31 15 62q12 -8 29.5 -14.5t55.5 -6.5t83 9.5t106 42.5q22 11 38 29t20 38q2 5 2.5 10.5t0.5 13.5q-14 -24 -34 -43.5t-48 -37.5l-17.5 -10t-24.5 -12t-30 -10t-34 -4q-41 0 -80 5.5t-62 13.5l36 170
q7 34 14.5 66.5t17.5 74.5h-57l78 63h491l-75 -63h-305l-13 -62q14 -7 36 -7q17 0 30.5 5.5t24.5 11.5t20.5 11.5t19.5 5.5q18 0 26.5 -10.5t11.5 -22.5t2.5 -22t-0.5 -9q14 -11 27.5 -27.5t22.5 -37.5t12.5 -45.5t-2.5 -51.5q-22 -105 -139 -162q45 -16 91 -16q7 0 14 0.5
t14 1.5l-60 -282h-141l7 33q-165 77 -270 77q-61 0 -110.5 -24t-87.5 -70l-75 121q56 39 115 55t130 16q69 0 148.5 -18t169.5 -62zM277 390q-2 0 -3 -0.5t-3 -0.5q-5 0 -10 1t-9 3l-13 -60q6 0 21 3t31.5 11t30.5 21.5t19 35.5q2 10 -4 14q-9 0 -15 -6t-25 -16
q-7 -5 -20 -6z" />
    <glyph glyph-name="j_jo_bn" horiz-adv-x="926" 
d="M342 211q37 19 61 54q-17 -4 -32 -5.5t-26 -1.5q-26 0 -49 7.5t-35 12.5l19 88q6 31 10 47t6 23t5 19t8 34l15 70h-215l63 63h942l-59 -63h-622l-4 -19l184 -53l77 -20l295 -84l-62 -84q-20 -26 -36.5 -61.5t-32.5 -95.5q-10 -57 -5 -97.5t14 -63.5l-183 -6q0 5 1 11
l2 10q7 31 22.5 73t36.5 86t46 85.5t51 72.5l-166 73l-18 -86q5 -11 11 -20t25 -9q13 0 25 6q2 12 2 26l72 24l-2 -10l-2 -12q-7 -34 -25 -84t-53 -100q-5 -6 -13.5 -16.5t-21 -23.5t-28 -27t-34.5 -26q-40 -23 -75 -30.5t-60 -7.5h-12q-5 0 -10 1h-2q-42 4 -71 12.5
t-47 21.5l112 154q17 -26 42.5 -40t56.5 -14q38 0 74 20t62 52q-21 -6 -39.5 -8t-32.5 -2q-6 0 -10 0.5t-7 0.5l-7 1q-19 2 -35.5 7.5t-25.5 9.5l20 96q3 15 5.5 24t4.5 17t4.5 18.5t7.5 28.5q-39 17 -77.5 33.5t-77.5 33.5l-18 -86q-2 -10 2.5 -15.5t12 -8.5t14.5 -3.5
t9 -0.5q8 0 12.5 5t7.5 11q3 7 4 17l46 15q8 2 13.5 4t11.5 4q0 -5 -1 -11.5t-3 -14.5q-7 -35 -25 -83.5t-53 -96.5q-4 -6 -12.5 -16.5t-21 -23.5t-28.5 -27t-35 -26q-70 -38 -140 -38q-90 0 -181 61q11 28 22.5 59t24.5 65l47 123q10 -38 27 -69.5t40 -54t49 -35t54 -12.5
q25 0 52 12z" />
    <glyph glyph-name="j_j_bo_bn" horiz-adv-x="926" 
d="M830 -121h-141l10 47q-15 7 -36 14t-45.5 12.5t-49.5 9t-49 3.5q-17 0 -26 7.5t-7 18.5q2 10 15 19l224 144q23 60 52.5 109t65.5 87q-69 26 -110.5 41t-54.5 20l-14 -67q4 -14 15 -18.5t25 -4.5t22 4q1 5 0 23l70 12q-1 -5 -1.5 -11.5t-2.5 -15.5q-4 -19 -18 -58
t-54 -91q-9 -9 -33 -34t-62 -46q-65 -32 -134 -32q-49 0 -85.5 9t-56.5 23l110 136q35 -44 103 -44q37 0 73 16.5t52 35.5q-29 -7 -70 -7q-42 0 -82 16l19 90q3 13 5 20.5t4 15.5l4 19q2 8 4 13l-156 58q-16 -71 -14 -73q5 -17 35 -17q10 0 15 3.5t7.5 8t3 9t0.5 7.5l69 11
q0 -4 -0.5 -8.5t-1.5 -10.5q-2 -9 -9 -32t-22 -53t-38 -62.5t-56 -59.5t-78 -44.5t-103 -17.5q-88 0 -184 53q14 31 88 217q11 -31 29 -57.5t41 -46t49.5 -30.5t55.5 -11q34 0 64.5 16t42.5 32q-29 -5 -70 -5l-7 2q-33 5 -62 15l23 105l29 135h-219l71 63h946l-67 -63h-620
l-2 -8q85 -20 150 -35.5t113 -26.5l302 -73q-33 -40 -52.5 -63t-24.5 -30q-29 -34 -51 -117q-12 -68 7 -118zM718 16l10 43l-64 -35q10 0 23 -2t31 -6z" />
    <glyph glyph-name="j_jho_bn" horiz-adv-x="760" 
d="M712 -55h-95l4 16l-42 22l-16 -78h-95l9 44q-12 13 -30 24t-39.5 19t-45 13t-46.5 5q-8 0 -13 5.5t-3 13.5q2 7 9 15l138 121q9 28 23.5 60.5t32.5 64.5t38 61.5t38 50.5l-165 65l-16 -76q-1 -7 6 -15t31 -8q16 0 19.5 8.5t4.5 14.5q1 5 0 6l73 17q0 -3 -1 -9l-3 -13
q-2 -10 -9.5 -35.5t-22 -57.5t-38 -67t-57 -64t-79.5 -47.5t-105 -18.5q-90 0 -184 57q18 45 91 231q11 -33 28.5 -61.5t40 -49.5t49.5 -33t56 -12q33 0 63 16t46 39q-13 -2 -28.5 -4t-32.5 -1l-19 1q-16 3 -30.5 7.5t-29.5 9.5l59 257h-221l68 63h779l-65 -63h-44zM640 52
l108 507h-314l-3 -11l289 -75l-67 -101q-39 -56 -51 -112l-3 -15q-7 -80 12 -114l-13 -62zM499 52l16 75l-5 1q-22 -17 -42.5 -32.5t-38.5 -28.5q40 0 70 -15z" />
    <glyph glyph-name="j_nyo_bn" horiz-adv-x="699" 
d="M218 9q-101 0 -201 69q11 29 24.5 64t27 71.5t27 71.5t24.5 64q11 -42 30 -77t44 -60t53.5 -38.5t60.5 -13.5q38 0 71.5 21t54.5 53q-30 -7 -71 -7q-32 0 -54.5 8t-31.5 13q12 59 19 89t11.5 49.5t9 37t12.5 50.5l18 85h-238l62 63h710l-60 -63h-356l-15 -72l81 -31
q29 29 53.5 35t47.5 6q5 0 27 -3t45.5 -15t39.5 -37t6 -68q-7 -37 -39 -73q23 -32 12 -86q-6 -27 -21 -49t-36.5 -38t-47.5 -25t-53 -11q-70 0 -112 26h-2l-1 1q-22 -26 -49.5 -46t-57.5 -34.5t-62 -22t-63 -7.5zM558 179q28 0 44 15t20 32q2 9 -3 15q-31 -8 -49 -8l-11 1
l22 69l17 7q12 5 27.5 20t19.5 34q5 20 -7.5 30.5t-33.5 10.5q-10 -14 -20.5 -32t-22.5 -40q-13 -62 -55 -138q9 -7 22 -11.5t30 -4.5zM462 320q9 0 19 3l7 25l-60 37l-7 -34l1 -7q5 -24 40 -24z" />
    <glyph glyph-name="j_bo_bn" horiz-adv-x="651" 
d="M551 -152h-95l10 47q-12 13 -29 25t-38 21.5t-43 15t-40 5.5h-10q-20 0 -16 18q1 5 8 13l141 132q9 32 25 68t35 71t39.5 67t39.5 57l-165 71q-19 -87 -18 -93q3 -13 12 -17t24 -4q8 0 13 4t7.5 9.5t3 10t1.5 6.5v2l73 23q0 -6 -2 -14l-3 -15q-2 -8 -9 -34t-21.5 -60
t-38.5 -72t-58.5 -70t-81 -52.5t-107.5 -20.5q-91 0 -182 61l94 248q10 -38 27 -69.5t40 -54t50 -35t55 -12.5q65 0 114 66q-15 -2 -31.5 -4.5t-33.5 -1.5l-20 1q-31 4 -59 18q12 50 18 76.5t9.5 41t6 23t5.5 22.5l25 117h-217l63 63h670l-63 -63h-345l-4 -17l296 -86
l-76 -101q-21 -29 -34 -60.5t-20 -65.5l-4 -15q-7 -89 10 -125zM488 2l19 87l-4 1l-89 -72q45 0 74 -16z" />
    <glyph glyph-name="j_ro_bn" horiz-adv-x="707" 
d="M209 -196l-80 127q77 65 152 90.5t141 25.5h15q8 0 16 -1q8 36 26 79.5t40 87t47.5 84t49.5 70.5l-186 81q-19 -90 -18 -96q4 -14 13 -18.5t24 -4.5q10 0 19 3q5 14 7.5 22t2.5 10l75 25q0 -5 -1.5 -12.5t-2.5 -15.5q-2 -7 -9 -34.5t-23 -64t-40.5 -77.5t-61.5 -75.5
t-86.5 -57t-114.5 -22.5q-96 0 -194 66q12 29 24.5 61.5t26.5 69.5l50 131q10 -41 28.5 -74.5t42.5 -57.5t52 -37.5t58 -13.5q72 0 120 71q-30 -7 -62 -7q-29 0 -48.5 5t-39.5 15l23 107q3 16 5.5 25.5t5.5 17.5l33 150h-230l63 63h724l-60 -63h-382l-5 -21l330 -94
l-82 -112q-19 -25 -35 -62.5t-29 -91.5q-18 -96 8 -177l-24 -58q-5 2 -36.5 8.5t-75.5 6.5q-22 0 -58.5 -2.5t-78 -17.5t-84 -46t-75.5 -88z" />
    <glyph glyph-name="jh_ro_bn" horiz-adv-x="701" 
d="M369 271l25 118l-137 -98h10q44 0 66 -8zM516 301l66 -27l74 348h235l-61 -63h-46l-103 -483h-141l17 77q-8 5 -24.5 12.5t-41.5 18.5l-49 -233h-141l11 52q-30 12 -59 12q-26 0 -51 -10t-47.5 -25.5t-39.5 -35.5t-26 -41l-34 51l-48 78q19 20 44.5 37t53 29t55.5 19
t52 7q65 0 119 -28l8 36q-18 17 -46 32.5t-58.5 27.5t-61.5 19t-55 7l-17 -1q-14 1 -22 8t-5 18q1 8 11 16l99 83q62 52 122 103.5t121 102.5l3 11h-321l64 63h411z" />
    <glyph glyph-name="ny_co_bn" horiz-adv-x="661" 
d="M350 130l12 59q-20 -13 -40 -25.5t-39 -24.5q31 0 67 -9zM467 0h-145l7 33q-15 10 -36 18.5t-44 15t-46 10t-39 3.5l-14 -1q-17 1 -26 9t-7 17t12 17l259 189l20 95q-7 39 -30.5 59t-52.5 20q-12 0 -27.5 -5t-29.5 -14.5t-25 -24t-15 -32.5q-5 -25 4.5 -44t34.5 -19
q13 0 22 12.5t12 26.5q5 23 -7 46l81 -15q1 -3 -4 -25q-5 -23 -17.5 -45.5t-32 -40t-45 -28t-55.5 -10.5q-33 0 -57 13t-37.5 35.5t-16.5 52.5t4 63q12 50 39 86t60.5 59.5t70 34.5t70.5 11q18 0 46.5 -7t47.5 -21l6 28h145l-7 -33q16 4 36 4q24 0 46.5 -8t38 -22.5
t22.5 -36t2 -48.5q-7 -33 -37 -65q20 -32 10 -77q-11 -54 -54 -84.5t-103 -30.5q-22 0 -38 4zM562 301q24 0 39 13t18 29q2 8 -2 15q-28 -7 -56 -7l20 65q6 1 15 5.5t18 12t16.5 17t9.5 20.5q4 17 -8 27.5t-31 10.5q-13 0 -27 -7l-42 -196q9 -5 30 -5z" />
    <glyph glyph-name="ny_cho_bn" horiz-adv-x="661" 
d="M325 195q19 0 52 12l13 60q-9 0 -23 -3t-26.5 -8.5t-23 -13.5t-14.5 -18q-5 -29 22 -29zM566 329q25 0 40.5 13.5t18.5 29.5q2 8 -2 15q-28 -7 -48 -7h-8l21 65q5 1 14 5t18 11.5t16.5 17t9.5 21.5q4 18 -9 28t-30 10q-13 0 -27 -7l-37 -179l-4 -17q6 -6 27 -6zM606 -176
q-25 8 -58.5 21t-68.5 26t-66 24.5t-51 16.5q-40 11 -79 21.5t-77 21.5l28 124l29 -15q27 -5 74 -5q36 0 75 10t72 27.5t57 40t29 47.5q9 42 -50 67l-1 -3q-8 -37 -26 -65t-43 -46.5t-55 -28t-62 -9.5q-46 0 -75 8.5t-44.5 24t-19 36t1.5 44.5q6 27 25 54.5t47 50.5t62.5 38
t70.5 16l20 94q-9 34 -33 51t-53 17q-15 0 -30.5 -5t-28.5 -13.5t-23 -20.5t-13 -26q-4 -21 6 -38t35 -17q13 0 22 11.5t11 22.5q4 19 -9 39l83 -12q0 -2 -4 -21q-5 -21 -17 -40t-31 -34t-43 -24t-53 -9q-34 0 -59 11t-39 30.5t-18.5 44.5t1.5 54q12 44 38 75.5t59.5 51.5
t69 29t67.5 9q91 0 155 -77l72 39q24 9 48 9t46.5 -8t38.5 -22.5t23 -36t1 -48.5q-7 -33 -37 -65q20 -32 10 -78q-5 -27 -22.5 -52.5t-45.5 -40.5q24 -49 10 -115q-22 -106 -139 -165q46 -15 88 -15q8 0 15.5 0.5t15.5 1.5z" />
    <glyph glyph-name="ny_jo_bn" horiz-adv-x="831" 
d="M505 284l-1 -7q-5 -25 29 -25q26 0 111 17l-4 -23l-4 -22t-9.5 -27t-21 -39.5t-38.5 -59.5q-49 -69 -120 -109t-149 -40q-101 0 -204 69l52 139q29 79 54 140q11 -43 31 -79t45.5 -61.5t55 -39.5t61.5 -14q77 0 127 76q-15 -3 -33.5 -5.5t-37.5 -1.5l-22 1
q-24 5 -40.5 10t-26.5 10l33 153q4 20 6 28t3.5 13.5t3.5 12.5t6 24l9 41q-9 34 -32.5 51t-53.5 17h-3q-32 -2 -58 -18.5t-32 -45.5q-5 -21 4.5 -38.5t34.5 -17.5q13 0 22 11.5t11 22.5q4 19 -9 39l83 -12q0 -2 -4 -21q-5 -21 -17 -40.5t-31 -34.5t-43.5 -24t-53.5 -9
q-34 0 -58 11.5t-38 31t-19 45t1 53.5q11 43 36.5 74t58 51t69 30t70.5 10q41 0 78 -17.5t66 -46.5q19 20 51 33.5t61 13.5q25 0 47 -7.5t37.5 -21.5t22.5 -34.5t1 -46.5q-6 -30 -35 -61q10 -13 13 -33l22 -6q43 -12 83 -24.5t83 -23.5l-86 -115q-19 -25 -34 -64t-29 -94
q-19 -109 9 -181l-206 -7l4 22q7 34 24.5 81.5t41.5 98t52.5 98t56.5 82.5l-58 26q-47 -42 -123 -42q-18 0 -36 3zM522 362q9 -6 29 -6q25 0 39 13.5t17 26.5q3 11 -1 15q-29 -7 -51 -7h-5l20 62q-1 0 7 2.5t18.5 8.5t20.5 15.5t13 24.5q4 17 -9 27t-30 10q-16 0 -29 -7z
" />
    <glyph glyph-name="ny_jho_bn" horiz-adv-x="658" 
d="M315 -39l12 58l-79 -50q30 0 67 -8zM540 205q23 0 38 14t18 30q2 8 -2 13q-29 -6 -48 -6h-9l21 65q9 2 18 6t17 13l11 11q10 11 13 24q3 17 -8.5 27.5t-29.5 10.5q-14 0 -28 -6l-42 -196q9 -6 31 -6zM532 -8l29 136q-17 -3 -32 -3q-21 0 -38 4l-23 -108zM599 -169h-101
l5 24q-7 5 -22.5 13t-40.5 21l-16 -78h-141l11 53q-15 9 -36 17.5t-43 15t-42.5 10.5t-34.5 4l-14 -1q-38 2 -33 26q2 7 12 17l250 188l1 5q-36 14 -68 14q-29 0 -55.5 -11t-48.5 -28.5t-39.5 -40t-26.5 -46.5q-20 38 -39 74.5t-39 71.5q20 22 45.5 41t53 32.5t56.5 21.5
t56 8q71 0 127 -33l45 212q-14 45 -65 45q-23 0 -40.5 -16.5t-22.5 -39.5q-1 -2 -1 -11t2.5 -18.5t10 -17t24.5 -7.5q22 0 37 7l-66 -90q-17 0 -33 8.5t-29 22t-22 30.5t-11 34q-3 12 -1 27.5t6 32.5q8 37 26.5 65.5t44 48t55.5 29.5t61 10t59.5 -10t50 -28t35 -42.5
t15.5 -52.5q24 8 47 8q26 0 48.5 -8t38 -23t22 -36t0.5 -47q-7 -33 -36 -65q20 -32 10 -77q-2 -11 -4 -16z" />
    <glyph glyph-name="tt_tto_bn" horiz-adv-x="495" 
d="M111 -110q-71 0 -148 21l40 188q132 -62 215 -62q98 0 113 69l1 7q-70 -20 -137 -20h-139l99 466h-45l64 63h201q11 25 14 40q4 20 -1.5 33.5t-18 22t-30.5 12t-39 3.5q-109 0 -326 -94q13 31 26 61.5t26 61.5l44 101q102 26 183 26q66 0 155 -27q29 -9 53 -26.5
t39.5 -41.5t21 -54.5t-2.5 -66.5q-5 -24 -19 -51h181l-60 -63h-324l-68 -318q29 -9 57 -9q20 0 44 7.5t45 22t37 35t22 46.5q1 6 1 16l-1 11q-3 11 -12 22.5t-20 11.5q-22 0 -35.5 -9.5t-16.5 -23.5q-4 -17 6.5 -33t35.5 -25l-96 -43q-5 3 -9.5 14.5t-7.5 26.5t-3.5 31
t2.5 28q11 52 50 87l12 8q19 13 37 19.5t40 6.5q32 0 58 -14t43 -38t23.5 -55t-0.5 -65q-14 -67 -95 -141q10 -48 0 -91q-8 -41 -37.5 -76.5t-74.5 -62.5t-102 -42.5t-121 -15.5z" />
    <glyph glyph-name="tt_bo_bn" horiz-adv-x="496" 
d="M225 3l11 55l-67 -51h11q28 0 45 -4zM337 -139h-143l4 19q-87 50 -176 50h-12q-14 0 -20.5 8.5t-4.5 18.5v2q1 4 9.5 12.5t27.5 25t50 43.5t79 68h-92l96 451h-45l64 63h202q11 25 14 40q4 20 -1.5 33.5t-18 22t-30.5 12t-39 3.5q-109 0 -326 -94q13 28 24.5 56t22.5 56
l49 112q102 26 183 26q66 0 155 -27q28 -9 52 -26t39.5 -41t21 -54.5t-2.5 -66.5q-5 -25 -19 -52h182q-15 -18 -61 -63h-324l-65 -303q30 -9 58 -9q21 0 44 7t44 21t37 34.5t22 46.5q9 43 -21 60l-11 3q-21 0 -35 -10t-17 -23q-4 -17 7.5 -33.5t35.5 -24.5l-95 -43
q-5 3 -9.5 14t-8 26t-4.5 31.5t2 28.5q5 23 17.5 45t31 39t42 27t49.5 10q33 0 58.5 -14.5t42.5 -38t23.5 -54t0.5 -62.5q-6 -26 -21 -52.5t-35 -50.5t-44 -44t-46 -33z" />
    <glyph glyph-name="tt_mo_bn" horiz-adv-x="677" 
d="M270 -158q-31 0 -55 12t-39.5 34.5t-20.5 53t3 68.5q11 51 43 90h-144l98 459h-45l63 63h204q5 11 8.5 20.5t4.5 17.5q5 21 -0.5 35t-18.5 22.5t-31 12t-39 3.5q-109 0 -326 -94l96 224q102 26 183 26q66 0 155 -27q28 -9 52 -26t39.5 -41t21 -54.5t-2.5 -66.5
q-5 -25 -19 -52h367l-62 -63h-45l-150 -706h-141l35 168q-56 49 -112 49q-17 0 -35.5 -5.5t-35.5 -16t-30 -25.5t-19 -35q-4 -24 7 -43t38 -19q11 0 20 8t11 18q6 31 -17 57l83 4q1 -1 1.5 -19t-4.5 -41q-2 -8 -9 -24.5t-27 -40.5q-46 -46 -105 -46zM543 202l76 357h-321
l-66 -312q29 -9 56 -9q22 0 45.5 7.5t44.5 22t36.5 35.5t21.5 48q0 2 0.5 11.5t-2.5 20t-10.5 19t-22.5 8.5q-18 0 -32 -9.5t-17 -22.5q-3 -18 7.5 -34t34.5 -24l-94 -43q-1 0 -6 8t-9.5 21.5t-6.5 31.5t2 38q11 52 50 87h1q1 1 8 6.5t19.5 12t28 11.5t33.5 5q33 0 58.5 -15
t42.5 -39.5t23 -55.5t-1 -62q-6 -29 -25.5 -61t-40.5 -53q18 -1 34.5 -3.5t31.5 -6.5z" />
    <glyph glyph-name="tt_ro_bn" horiz-adv-x="496" 
d="M85 -120q-48 72 -82 128q19 20 44.5 37t53 29t55.5 19t52 7q65 0 119 -28l17 80q-76 -24 -181 -24h-100l92 431h-45l64 63h202q11 25 14 40q4 20 -1.5 33.5t-18 22t-30.5 12t-39 3.5q-109 0 -326 -94q13 28 24.5 56t22.5 56l49 112q102 26 183 26q66 0 155 -27
q28 -9 52 -26t39.5 -41t21 -54.5t-2.5 -66.5q-5 -25 -19 -52h185l-61 -63h-327l-60 -283q29 -9 57 -9q21 0 44.5 7t44.5 21t36.5 34.5t21.5 46.5q9 43 -20 60l-12 3q-21 0 -35 -10t-17 -23q-3 -17 8.5 -33.5t34.5 -24.5l-95 -43q-5 3 -9.5 14t-7.5 26t-4 31.5t1 28.5
q5 23 17.5 45t31.5 39t42 27t49 10q33 0 59 -14.5t43 -38t23.5 -54t-0.5 -62.5q-11 -50 -38 -81l-75 -349h-141l12 52q-30 12 -60 12q-25 0 -50 -10t-47.5 -25.5t-39.5 -35.5t-26 -40z" />
    <glyph glyph-name="tt_ro_alt_bn" horiz-adv-x="496" 
d="M344 152q-76 -24 -181 -24h-100l92 431h-45l64 63h202q11 25 14 40q4 20 -1.5 33.5t-18 22t-30.5 12t-39 3.5q-109 0 -326 -94q13 28 24.5 56t22.5 56l49 112q102 26 183 26q66 0 155 -27q28 -9 52 -26t39.5 -41t21 -54.5t-2.5 -66.5q-5 -25 -19 -52h185l-61 -63h-327
l-60 -283q29 -9 57 -9q21 0 44.5 7t44.5 21t36.5 34.5t21.5 46.5q9 43 -20 60l-12 3q-21 0 -35 -10t-17 -23q-3 -17 8.5 -33.5t34.5 -24.5l-95 -43q-5 3 -9.5 14t-7.5 26t-4 31.5t1 28.5q5 23 17.5 45t31.5 39t42 27t49 10q33 0 59 -14.5t43 -38t23.5 -54t-0.5 -62.5
q-11 -50 -38 -81l-83 -391h-141l7 33q-165 77 -270 77q-61 0 -110.5 -24t-87.5 -70l-75 121q56 39 115 55t130 16q69 0 148 -18t170 -62z" />
    <glyph glyph-name="tth_ro_bn" horiz-adv-x="494" 
d="M240 155l4 1q29 3 56.5 13.5t51 28.5t41 43.5t24.5 57.5q9 45 -5.5 79t-52.5 53q2 -51 -8 -97q-23 -109 -111 -179zM62 -228l-83 128q19 20 44.5 37t53.5 29.5t56 19.5t52 7q65 0 119 -28l14 68q-50 -17 -98 -17q-124 0 -196 99q14 4 46.5 21t66.5 47t65 74t44 103
q21 101 -36 199h-101l63 63h38q-2 19 3 43q9 43 35 84t65.5 72.5t91.5 51t113 19.5q15 0 29.5 -1.5t30.5 -3.5l-22 -201q-26 31 -47 44.5t-50 13.5q-13 0 -28.5 -3.5t-30 -12.5t-26 -23.5t-16.5 -36.5t2 -46h322l-60 -63h-217q38 -18 66 -45.5t45 -63t21.5 -78.5t-5.5 -92
q-13 -60 -44 -111l-74 -349h-141l11 52q-30 12 -59 12q-26 0 -51 -10t-47 -25.5t-39.5 -35.5t-25.5 -41z" />
    <glyph glyph-name="dd_ddo_bn" horiz-adv-x="788" 
d="M486 18q-120 0 -227 97q-20 -4 -46 -4q-91 0 -184 61q20 55 44 118.5t51 132.5q24 -84 70 -128.5t99 -44.5q32 0 59.5 17.5t38.5 35.5q-10 -2 -25.5 -4.5t-35.5 -1.5l-20 1q-36 5 -61 19q12 57 19 87l10.5 45t5.5 21t4 14t5.5 23.5t11.5 51.5h-196l63 63h806l-63 -63
h-193l-41 -190l2 -7q4 -25 38 -25q16 0 27.5 5.5t15.5 25.5v5l86 27q0 -5 -1 -11l-3 -13q-3 -14 -8 -35.5t-15 -48.5t-26 -59t-41 -67q-9 -15 -39.5 -46.5t-74.5 -61.5q-79 -40 -156 -40zM576 172q42 0 77 23.5t58 58.5q-39 -13 -87 -13q-30 0 -53.5 7t-38.5 15
q8 45 16.5 78t13.5 56l11 49q2 7 8 35l17 78h-181l-32 -150l1 -5q1 -17 27 -17q16 0 25 5l3 9q2 8 0 13l84 26q-1 -8 -3 -18.5t-4 -23.5q-6 -25 -20 -66t-54 -95l-1 -2q28 -29 64.5 -46t68.5 -17z" />
    <glyph glyph-name="dd_ro_bn" horiz-adv-x="543" 
d="M105 -183l-84 128q19 19 45 36t54 30t56.5 20t52.5 7q57 0 118 -29l19 89q-58 -22 -118 -22q-108 0 -217 72l53 138q15 39 28.5 74t26.5 67q12 -42 32.5 -78t46.5 -62t57.5 -40.5t65.5 -14.5q82 0 137 82q-39 -13 -87 -13q-30 0 -53.5 7t-38.5 15l54 236h-244l64 63h559
l-63 -63h-193l-28 -130l2 -7q3 -25 37 -25q16 0 28 5.5t16 25.5v5l86 27q0 -6 -1.5 -13.5t-3.5 -16.5q-21 -103 -74 -182l-82 -383h-140l11 51q-30 12 -60 12q-27 0 -53 -10t-47.5 -26t-38 -36t-23.5 -39z" />
    <glyph glyph-name="ddh_ro_bn" horiz-adv-x="496" 
d="M79 -150q-49 72 -83 128q20 20 45.5 37t53 29t55.5 19t52 7q65 0 119 -28l17 80q-76 -24 -181 -24h-100l98 461h-45l64 63h511l-61 -63h-327l-67 -313q29 -9 57 -9q21 0 44.5 7t44.5 21t37 34.5t22 46.5q9 43 -21 60l-11 3q-21 0 -35 -10t-17 -23q-4 -17 7.5 -33.5
t35.5 -24.5l-96 -43q-4 3 -8.5 14t-8 26t-4.5 31.5t2 28.5q5 23 17.5 45t31 39t41.5 27t49 10q33 0 59 -14.5t43 -38t23.5 -54t0.5 -62.5q-11 -50 -39 -81l-74 -349h-141l11 52q-29 12 -59 12q-25 0 -50.5 -10t-47.5 -25.5t-39.5 -35.5t-25.5 -40z" />
    <glyph glyph-name="nn_tto_bn" horiz-adv-x="827" 
d="M516 0h-155l80 378q-6 40 -31 64t-60 24q-17 0 -34.5 -6t-33 -17t-27.5 -27t-16 -37q-9 -41 18 -60q-1 -3 8 -6t17 -3q15 0 24.5 12t12.5 27q6 29 -7 57l94 -17l-6 -27q-6 -27 -21 -53t-37 -46t-50.5 -32t-60.5 -12q-36 0 -63 14.5t-43 40t-20.5 59.5t3.5 72
q12 55 43 95.5t70 67.5t81 40.5t75 13.5q12 0 26.5 -2t29 -6.5t29 -10.5t24.5 -13l7 32h201q11 28 14 42q5 21 -0.5 35.5t-18 22.5t-30.5 11.5t-39 3.5q-109 0 -329 -96q78 188 96 227q93 25 188 25q75 0 129 -17.5t87.5 -47.5t45.5 -69.5t2 -83.5q-5 -26 -19 -53h196
l-61 -63h-332l-87 -408q29 -10 59 -10q21 0 45 7.5t45 22t37.5 35.5t22.5 48q1 6 1 16l-1 11q-3 11 -11.5 22.5t-22.5 11.5q-19 0 -33 -9.5t-17 -23.5q-4 -20 10 -35.5t33 -22.5l-98 -44q-10 13 -17 41.5t0 60.5q3 16 14 37t28.5 40t42 32t55.5 13q33 0 59.5 -14.5t43 -39
t23 -56t-0.5 -64.5q-7 -31 -26 -61.5t-44.5 -57t-55 -47t-56.5 -31.5q-42 -17 -80.5 -25t-75.5 -8z" />
    <glyph glyph-name="nn_ttho_bn" horiz-adv-x="661" 
d="M400 150l6 1q30 2 58 12.5t51.5 29t40.5 44.5t24 59q9 44 -5 80.5t-53 53.5q3 -51 -7 -98q-12 -54 -40 -101.5t-75 -80.5zM382 9q-20 0 -79 9q-60 9 -119 91q16 5 48 22.5t67 48t66 75.5t46 105q13 64 -11 96t-77 32q-11 0 -26 -4.5t-29 -13.5t-25.5 -23t-15.5 -33
q-5 -25 4.5 -43.5t35.5 -18.5q9 0 17.5 11.5t10.5 21.5q2 12 1.5 24.5t-7.5 25.5l80 -14q1 -3 -4 -24q-7 -23 -19 -45t-30 -39t-42.5 -27.5t-54.5 -10.5q-31 0 -53.5 12.5t-36.5 33.5t-18 50t3 62q10 48 35.5 83.5t59.5 59t71.5 35t72.5 11.5h18q-2 19 3 43q10 44 36 85.5
t66.5 74t93.5 52t116 19.5q14 0 28.5 -1t30.5 -3l-24 -205q-1 4 -9 14t-22 20t-31 18t-37 8q-38 0 -66.5 -22.5t-35.5 -56.5q-5 -22 2 -46h329l-62 -63h-220q38 -17 67 -44.5t46 -63.5t22 -79.5t-6 -92.5q-9 -42 -35.5 -89.5t-67.5 -87.5t-95 -66.5t-118 -26.5z" />
    <glyph glyph-name="nn_ddo_bn" horiz-adv-x="563" 
d="M249 -1q-27 0 -52 4.5t-45 11.5t-35 14t-22 12q11 55 23.5 109.5t24.5 108.5q67 -96 188 -96q53 0 83 23.5t36 54.5q3 12 0 19q-52 -22 -87 -25l34 130q16 0 35 6t35.5 17t29 25.5t16.5 31.5q2 10 -5.5 25.5t-22.5 17.5q-16 0 -23 -8l-2 -9q-11 -52 -31 -74h-87
q16 20 19 38q6 27 -7.5 48.5t-43.5 21.5q-17 0 -33 -6t-29 -15.5t-23 -22.5t-13 -28l-2 -12l3 -12q6 -14 18 -14q17 0 33 17t25 41l35 -64q-3 -2 -12.5 -11t-25 -19.5t-36.5 -19t-45 -8.5q-24 1 -42.5 12.5t-29.5 29.5t-14.5 40.5t1.5 45.5q7 35 29.5 65t53.5 52t66.5 34.5
t68.5 12.5q25 0 53.5 -12t44.5 -33q40 23 80 23q28 0 52.5 -10.5t42.5 -30t26 -46t1 -57.5q-4 -20 -12.5 -39t-18 -35t-19 -27t-15.5 -16v-2q11 -20 14.5 -45.5t-3.5 -55.5q-12 -58 -44 -102.5t-77 -74.5t-100 -45.5t-114 -15.5z" />
    <glyph glyph-name="nn_dd_ro_bn" horiz-adv-x="563" 
d="M352 88q-45 -10 -85 -10q-25 0 -50 4t-46 10t-37 12t-24 11q11 50 22 98.5t22 97.5q34 -40 81.5 -61t109.5 -21q53 0 82 19t34 44q2 8 0 13q-28 -10 -50 -15.5t-38 -6.5l32 121q15 0 33.5 5t35.5 13.5t29 20.5t15 26q1 29 -30 33q-16 0 -22 -5q-11 -52 -32 -74h-90
q20 22 23 38q5 23 -10.5 39.5t-43.5 16.5q-16 0 -32 -4.5t-29 -12.5t-22.5 -18.5t-11.5 -22.5q-2 -8 1 -18.5t19 -10.5q19 0 34.5 14.5t22.5 33.5l38 -58q-6 -5 -16.5 -14t-25.5 -18t-34.5 -15.5t-43.5 -6.5q-30 3 -48.5 15t-28.5 28.5t-12.5 35.5t0.5 36q6 25 24.5 51
t47 47.5t65 35t78.5 13.5q25 0 51.5 -10t47.5 -30q40 21 79 21q2 0 14 -1.5t28 -6t33.5 -13t30.5 -22.5t19.5 -35.5t0.5 -50.5q-12 -57 -61 -102q12 -17 15.5 -39.5t-2.5 -49.5q-17 -82 -89 -140l-57 -265h-141l11 51q-29 12 -59 12q-25 0 -50.5 -10t-47.5 -25.5
t-39.5 -35.5t-25.5 -40l-34 50l-49 78q19 19 44.5 36t53 30t55.5 20t52 7q62 0 120 -29z" />
    <glyph glyph-name="nn_ddho_bn" horiz-adv-x="826" 
d="M515 0h-153l81 380q-23 86 -94 86q-18 0 -35.5 -6t-33 -17t-27 -26.5t-15.5 -34.5q-9 -44 17 -63l4 -2q7 -7 22 -7t25 13t14 30q5 24 -9 53l93 -17q0 -3 -5 -28q-6 -28 -21.5 -54t-38 -45.5t-50 -31t-59.5 -11.5q-35 0 -61.5 14t-43 38.5t-21.5 58.5t4 73
q10 49 37.5 89.5t65.5 69.5t81 44.5t84 15.5q35 0 65.5 -11t45.5 -21l7 32h523l-63 -63h-332l-87 -408q29 -10 59 -10q21 0 44.5 7.5t45 21.5t38 34.5t22.5 47.5q5 25 -6 44t-28 19q-19 0 -33.5 -10t-17.5 -25q-4 -17 10.5 -33.5t33.5 -22.5q-19 -8 -38.5 -17.5t-38.5 -17.5
l-20 -9q-5 3 -9.5 14t-8 26t-4 31.5t2.5 30.5q5 25 19.5 47.5t33.5 39t42 26t46 9.5q33 0 59 -15t43 -39.5t23.5 -55.5t-0.5 -62q-7 -33 -26.5 -64t-45 -57.5t-55.5 -46.5t-56 -31q-81 -33 -155 -33z" />
    <glyph glyph-name="nn_nno_bn" horiz-adv-x="486" 
d="M450 0h-144l27 125q-19 36 -54 36q-9 0 -19.5 -3.5t-21 -10.5t-19 -17.5t-10.5 -23.5q-1 -2 -2 -9.5t1 -15.5t7.5 -15t18.5 -7q22 0 27 27q4 16 -4 36l59 -12v-5q-10 -49 -38.5 -77t-72.5 -28q-26 0 -43.5 9.5t-27.5 26t-12.5 38.5t3.5 46q7 33 25.5 59.5t42 44.5
t51.5 28t54 10q35 0 61 -15l36 174q-17 68 -75 68q-15 0 -31 -6t-29.5 -15.5t-23 -22.5t-12.5 -27q-8 -36 15 -53l4 -2q4 -4 9.5 -5t11.5 -1q8 0 18 10.5t12 20.5q6 26 -8 51l20 -4q15 -3 30 -5t30 -5l-6 -29q-5 -22 -18 -42.5t-32 -36.5t-43 -26t-50 -10q-32 0 -54.5 12.5
t-35 34t-16 49.5t3.5 60q8 39 30 73t52.5 58.5t68 39t76.5 14.5q19 0 45.5 -6.5t45.5 -19.5l5 26h238l-62 -63h-45z" />
    <glyph glyph-name="nn_bo_bn" horiz-adv-x="513" 
d="M361 129l17 77l-82 -66q38 0 65 -11zM472 -24h-143l10 49q-12 11 -29.5 21.5t-36 18.5t-38 13t-35.5 5l-15 -1q-11 -1 -14.5 5t-1.5 15q1 8 6 13l229 212l14 69q-6 42 -30.5 62.5t-54.5 20.5q-16 0 -33 -5.5t-31 -15.5t-24.5 -24t-13.5 -31q-9 -39 15 -58l5 -2
q9 -6 21 -6t21 10t12 24l1 7q5 21 -7 47l86 -16l-1 -8q-6 -29 -19 -55.5t-33 -47t-47 -32.5t-60 -12q-36 0 -61 14t-39 37t-17.5 53.5t3.5 63.5q9 45 34 82t59 63t75 40.5t82 14.5q10 0 23 -2t27 -5.5t27 -9t22 -12.5l6 29h236l-61 -63h-45z" />
    <glyph glyph-name="nn_mo_bn" horiz-adv-x="776" 
d="M618 559l-62 -289q26 -1 50 -4t45 -9l64 302h-97zM964 622l-61 -63h-44l-139 -653h-144l36 169q-60 51 -115 51q-11 0 -29.5 -4.5t-36.5 -14t-33 -25.5t-20 -39q-5 -24 6.5 -44t38.5 -20q4 0 15 4.5t15 21.5q7 34 -16 58l84 5q5 -8 3.5 -25t-7.5 -43q-3 -16 -16 -34.5
t-32.5 -34t-43.5 -26t-49 -10.5q-31 0 -55.5 12t-40.5 34.5t-20.5 53.5t3.5 70q6 31 22 57.5t35.5 47.5t40.5 37t39 25l7 3l33 154q-25 78 -93 78q-16 0 -33 -6t-32.5 -17t-27 -26.5t-15.5 -34.5q-9 -44 17 -63l5 -2q6 -7 21 -7t25.5 13t13.5 30q5 24 -8 53l92 -18
q0 -2 -5 -27q-6 -27 -21 -53t-37 -45.5t-50 -31.5t-61 -12q-36 0 -62.5 14t-43 39t-21 58.5t3.5 72.5q10 48 37 88.5t64 69t80.5 44.5t86.5 16q63 0 107 -29l6 29h475z" />
    <glyph glyph-name="nn_ro_bn" horiz-adv-x="535" 
d="M142 -69l-83 130q18 19 43 36t53.5 30t58 20t55.5 7q65 0 116 -22l55 257q-25 78 -94 78q-16 0 -33 -6t-32.5 -17.5t-27 -27.5t-15.5 -36q-9 -41 18 -60q4 -5 11.5 -7t14.5 -2q14 0 24 12.5t13 23.5q6 31 -7 60l93 -18l-1 -8l-2 -10q-2 -11 -9 -29t-19 -39t-32 -39.5
t-47.5 -31t-64.5 -12.5q-36 0 -62.5 14.5t-42 39.5t-20.5 59t3 73q11 49 39 89t65.5 68.5t80.5 43.5t83 15q60 0 107 -29l6 29h234l-60 -63h-45l-119 -559h-142l8 37q-28 6 -51 6q-29 0 -56 -9.5t-49.5 -25t-40 -36t-26.5 -41.5z" />
    <glyph glyph-name="t_to_bn" horiz-adv-x="472" 
d="M207 -35h-9q-30 0 -63 7.5t-61 17t-48 18t-22 10.5l72 219q10 -29 27.5 -57.5t41 -51t51 -36.5t57.5 -14q10 0 23 3t25 8.5t21.5 13.5t12.5 18q3 17 -10 30q-37 -9 -47 -9l-4 97q9 1 27.5 8.5t38.5 20.5t36.5 31.5t21.5 42.5q8 38 -8.5 64.5t-60.5 26.5q-2 0 -12 -1.5
t-22 -6.5t-22.5 -15t-13.5 -26q-4 -16 10.5 -25t28.5 -9q22 0 47 13l-29 -80q-28 -7 -53 -7q-24 0 -44.5 7.5t-34 22t-18.5 35t0 47.5q8 36 27 64.5t46.5 48.5t60.5 30.5t68 10.5q46 0 79.5 -15t53.5 -41t26 -60t-2 -71q-10 -51 -37 -87t-51 -56q22 -36 11 -91
q-12 -36 -36 -65t-56.5 -49t-70.5 -31t-78 -11zM600 559h-491l64 63h488z" />
    <glyph glyph-name="t_t_bo_bn" horiz-adv-x="472" 
d="M243 -15l12 59l-79 -50q33 0 67 -9zM598 559h-496l73 63h492zM133 57q-33 8 -61.5 17t-52.5 20l68 194q10 -24 28 -48.5t42 -43.5t52.5 -31t59.5 -12q29 0 52 10.5t28 22.5q2 11 -11 22q-41 -8 -46 -8l-9 92q13 1 32 7.5t38 17.5t33.5 26.5t18.5 33.5q6 29 -10.5 51.5
t-58.5 22.5q-26 0 -47 -11t-24 -28q-2 -9 10.5 -16.5t30.5 -7.5q21 0 48 11l-31 -78q-28 -6 -52 -6q-51 0 -79 26.5t-18 81.5q6 27 23.5 51t43.5 41.5t59.5 27.5t70.5 10q51 0 84 -16.5t52 -39.5t25 -48.5t3 -43.5l-3 -21q-6 -26 -18.5 -47.5t-26 -37t-24.5 -25t-12 -10.5
q21 -29 10 -79q-12 -40 -50 -72l-59 -278h-141l11 54q-15 9 -36 17.5t-45 14.5t-49 10t-49 4q-17 0 -25.5 8t-7.5 17q2 9 13 18z" />
    <glyph glyph-name="t_tho_bn" horiz-adv-x="682" 
d="M646 0h-144q-44 6 -87 19t-87 28t-87 31t-86 29l42 162q8 -4 37 -4q34 0 63 12t52 32t38 46t21 55q7 32 -0.5 55t-30.5 23q-17 0 -29.5 -13t-16.5 -34l-1 -4q1 -18 9 -29l10 -12q-21 1 -41.5 1.5t-42.5 0.5q-21 26 -9 83l8 21l-10 1q-22 0 -36.5 -15t-18.5 -34
q-4 -18 4 -28.5t24 -10.5q9 0 10 1l-15 -68l-7 -1q-8 0 -27.5 3t-42.5 25q-34 43 -22 102q7 31 23 55t38 40.5t48 24.5t51 8q28 0 66 -16q30 11 56 11q37 0 64 -15.5t42 -42.5t19 -63.5t-5 -78.5q-27 -129 -141 -215q39 -7 77 -11.5t76 -7.5l97 456h238l-62 -63h-45z" />
    <glyph glyph-name="t_no_bn" horiz-adv-x="433" 
d="M572 559h-470l73 63h464zM306 178q-44 -18 -85 -27t-89 -9q-49 0 -60 4l-3 184q68 -48 134 -48q21 0 44.5 6t45 18t37 29.5t20.5 40.5q2 11 -1 22.5t-11 21t-21.5 15.5t-32.5 6q-14 0 -29.5 -8t-17.5 -19q-3 -13 9 -29.5t46 -30.5q-30 -9 -60 -18.5t-60 -19.5q-4 5 -8 16
t-7 24t-3 27.5t2 26.5q7 32 26 57t44 42.5t55 26.5t59 9q34 0 64 -15.5t51 -41t30.5 -60t1.5 -71.5q-8 -36 -36 -70l-99 -467h-122l30 142q-25 48 -67 48q-11 0 -24.5 -4.5t-25.5 -12.5t-21.5 -19.5t-12.5 -25.5q-4 -20 2.5 -39.5t28.5 -19.5q11 0 18.5 11.5t9.5 21.5
q4 19 -5 42l68 -15v-6q-12 -57 -45.5 -90t-82.5 -33q-29 0 -49 12t-31 31.5t-13 45.5t4 53q8 36 28 67t47 53.5t60.5 35.5t67.5 13q41 0 74 -21z" />
    <glyph glyph-name="t_bo_bn" horiz-adv-x="433" 
d="M285 102l14 67q-41 -29 -83 -61h11q35 0 58 -6zM572 559h-470l73 63h464zM374 -77h-127l11 54q-27 17 -51.5 27.5t-48 16.5t-47.5 8.5t-51 2.5q-16 0 -22 9.5t-4 18.5q1 6 5 11l82 71q-41 0 -49 4l-3 184q68 -48 134 -48q21 0 44.5 6t45 18t37 29.5t20.5 40.5
q2 11 -1 22.5t-11 21t-21.5 15.5t-32.5 6q-14 0 -29.5 -8t-17.5 -19q-3 -13 9 -29.5t46 -30.5q-30 -9 -60 -18.5t-60 -19.5q-4 5 -8 16t-7 24t-3 27.5t2 26.5q7 32 26 57t44 42.5t55 26.5t59 9q34 0 64 -15.5t51 -41t30.5 -60t1.5 -71.5q-8 -36 -36 -70z" />
    <glyph glyph-name="t_lo_bn" horiz-adv-x="433" 
d="M362 -133h-122l30 143h-2q-14 0 -26.5 -19.5t-16.5 -38.5q-24 -1 -51 -6l2 11q6 30 -4.5 51t-31.5 21q-20 0 -39 -15t-25 -42q-2 -9 -1.5 -18t4.5 -16l1 -1q-1 -5 4 -8t9 -3q7 0 12 5.5t8 13.5q4 8 7 19q2 10 1 27l7 -2l35 -26q0 -2 -6 -17t-17.5 -32t-28.5 -31.5
t-39 -14.5q-21 0 -33.5 10.5t-18.5 27t-6 37t4 40.5q11 46 32 73.5t42 41.5t38 18.5t22 4.5q32 0 51 -14.5t27 -28.5q28 28 52 28q2 0 4 -0.5t4 -0.5l16 73q-44 -18 -85 -27t-89 -9q-49 0 -60 4l-3 184q68 -48 134 -48q21 0 44.5 6t45 18t37 29.5t20.5 40.5q2 11 -1 22.5
t-11 21t-21.5 15.5t-32.5 6q-14 0 -29.5 -8t-17.5 -19q-3 -13 9 -29.5t46 -30.5q-30 -9 -60 -18.5t-60 -19.5q-4 5 -8 16t-7 24t-3 27.5t2 26.5q7 32 26 57t44 42.5t55 26.5t59 9q34 0 64 -15.5t51 -41t30.5 -60t1.5 -71.5q-8 -36 -36 -70zM572 559h-470l73 63h464z" />
    <glyph glyph-name="t_mo_bn" horiz-adv-x="642" 
d="M153 603l19 19h657l-59 -63h-45l-135 -636h-141l35 167q-59 50 -114 50q-11 0 -28.5 -4t-35.5 -14t-33.5 -25.5t-21.5 -39.5q-4 -22 6.5 -42.5t36.5 -20.5q12 0 20.5 8t11.5 21q6 27 -16 54l84 5q1 -3 2 -17.5t-4 -35.5q-3 -16 -11 -35t-25 -36q-15 -16 -30 -25t-29 -14
t-27.5 -6.5t-23.5 -1.5q-31 0 -55 13.5t-39 36t-19.5 52.5t2.5 63q4 18 11 35.5t15 31.5q-7 -1 -14 -1h-15q-49 0 -60 4l-3 184q68 -48 134 -48q21 0 44.5 6t45 18t37 29.5t20.5 40.5q2 11 -1 22.5t-11 21t-21.5 15.5t-32.5 6q-14 0 -29.5 -8t-17.5 -19q-3 -13 9 -29.5
t46 -30.5q-30 -9 -60 -18.5t-60 -19.5q-4 5 -8 16t-7 24t-3 27.5t2 26.5q7 32 26 57t44 42.5t55 26.5t59 9q34 0 64 -15.5t51 -41t30.5 -60t1.5 -71.5q-8 -36 -36 -70l-6 -5q39 -1 78 -11l61 288h-482z" />
    <glyph glyph-name="t_ro_bn" horiz-adv-x="476" 
d="M664 622l-60 -63h-495l64 63h491zM418 533q41 -12 62 -36.5t30 -52t8 -54.5t-4 -43l-74 -347h-135l9 42q-30 13 -62 13q-26 0 -51.5 -11t-49 -26.5t-42 -33t-30.5 -29.5l-63 119q18 21 42 39t50.5 31t54.5 20.5t53 7.5q36 0 67.5 -9t51.5 -21l53 248q-4 18 -21 30t-38 12
t-40 -15.5t-23 -37.5q-4 -19 6 -36t33 -17q11 0 20 3.5t11 4.5l-62 -85q-6 0 -23.5 6.5t-34.5 23.5t-27.5 46.5t-0.5 76.5q9 39 29.5 65.5t46 43t53 23.5t48.5 7q25 0 53 -8z" />
    <glyph glyph-name="th_bo_bn" horiz-adv-x="579" 
d="M411 543q15 -21 21 -43.5t7.5 -43.5t0 -39t-4.5 -30q-7 -34 -20 -62.5t-29 -52.5t-33.5 -43t-32.5 -32q59 -8 115 -12l93 437h240l-61 -63h-45l-174 -816h-147l10 44q-16 16 -37 28t-43.5 20.5t-44.5 13t-38 4.5q-11 0 -16.5 5.5t-3.5 13.5q1 6 8 14l160 149
q-66 24 -131 48.5t-133 44.5l-1 1l34 129q10 0 22.5 -3t29.5 -3q23 0 45.5 7t47.5 27q3 3 12 11t18.5 20.5t18 29t12.5 36.5q3 11 4 27.5t-4 32t-17.5 26.5t-36.5 11q-7 0 -17 -1.5t-20 -6.5t-18 -14t-11 -25q-3 -12 2.5 -19.5t14 -11.5t17 -5.5t11.5 -1.5q13 0 31 6
l-55 -78q-5 -4 -7 -10q-3 1 -20 8t-34.5 23t-29 43t-2.5 69q7 35 26 61t43.5 43t51 25t49.5 8q38 0 69 -13t53 -37zM374 -102l20 91l-94 -77q15 0 25 -1t17.5 -3t14.5 -4.5t17 -5.5z" />
    <glyph glyph-name="th_ro_bn" horiz-adv-x="568" 
d="M411 543q14 -21 20 -43.5t7.5 -43.5t0 -39t-4.5 -30q-7 -34 -20 -62.5t-29 -52.5t-33 -43t-32 -32q26 -4 52.5 -6.5t54.5 -4.5l92 436h240l-63 -63h-45l-148 -694h-145l5 24q-36 13 -72 13q-29 0 -56.5 -10t-51 -26t-41.5 -36.5t-26 -41.5q-13 19 -25 36l-60 97
q21 21 46.5 38t54.5 29.5t58.5 19.5t57.5 7q42 0 77 -9t59 -22l7 34q-81 24 -160.5 55.5t-159.5 54.5l-1 1q6 15 9.5 30.5t8.5 31.5l17 67q8 0 21 -3t30 -3q23 0 45.5 7t48.5 27l11.5 11.5t17.5 20.5t17.5 28.5t12.5 36.5q3 12 4 28.5t-3.5 32t-17 26t-37.5 10.5
q-7 0 -16.5 -1.5t-19 -6t-17.5 -14t-11 -25.5q-3 -13 2.5 -20.5t13.5 -11.5t16.5 -5t11.5 -1q13 0 31 6l-63 -88q-2 1 -18.5 7.5t-34 23t-29.5 43.5t-3 68q7 36 26 62t44 43t51.5 25t48.5 8q38 0 69.5 -13t53.5 -37z" />
    <glyph glyph-name="th_lo_bn" horiz-adv-x="565" 
d="M755 622l-62 -63h-45l-162 -759h-144l26 121q-29 0 -46 -21t-22 -46l-71 -7l3 12q7 33 -7.5 58t-43.5 25q-25 0 -51 -17t-32 -47q-1 -4 -1 -11.5t2.5 -15t8.5 -13t17 -5.5q9 0 15 6.5t10 14t6 13t2 4.5q2 10 0 28l56 -34q-25 -49 -49.5 -71t-68.5 -22q-29 1 -46.5 12
t-25.5 28t-9 37.5t4 41.5q11 52 37.5 82.5t55.5 47t53.5 21.5t30.5 5q42 0 67 -16.5t38 -32.5q25 22 54 30q-72 25 -142 52t-143 48l-1 1l34 129q7 0 20 -3t31 -3q23 0 45.5 7t48.5 27q3 3 12 11.5t18.5 21t18.5 29t14 36.5q2 12 2.5 28.5t-4 31.5t-18 25.5t-37.5 10.5
q-6 0 -16 -1.5t-19.5 -6.5t-17.5 -14.5t-11 -24.5q-3 -13 2.5 -20.5t13.5 -11.5t16.5 -5t11.5 -1q13 0 31 6l-62 -88q-2 1 -19 8t-35 22.5t-29 42.5t-2 69q8 37 27 63t43.5 42.5t50.5 24.5t48 8q48 0 79.5 -18t49 -46.5t21.5 -65.5t-4 -74q-8 -34 -21 -63t-28.5 -53t-32 -43
t-31.5 -33q25 -4 51.5 -6.5t53.5 -4.5l92 436h238z" />
    <glyph glyph-name="d_do_bn" horiz-adv-x="629" 
d="M155 559h-45l65 63h645l-63 -63h-459l-42 -196l123 72l7 33h120l-34 -160l49 29l13 8q7 4 15 8l8 39h119l-46 -217q0 -3 1 -9.5t3.5 -13.5t7.5 -13.5t14 -8.5l-28 -129q-12 -3 -23 -3q-43 0 -64.5 20.5t-30 46t-8 48t1.5 26.5l12 58q-3 -1 -10 -5l-102 -59l-104 -74
l46 219l-62 -36q-30 -18 -61 -37h-143z" />
    <glyph glyph-name="d_d_bo_bn" horiz-adv-x="631" 
d="M155 559h-44l65 63h644l-62 -63h-458l-30 -142l93 57l27 16l7 32h122l-23 -109l76 45l6 28h120l-93 -437q0 -4 0.5 -11.5t3.5 -15t10 -13.5t18 -7l-26 -125q-15 -5 -33 -5q-25 0 -47 12l-47 54q-3 6 -4 12l-2 12q-15 15 -36 27t-43 20t-43.5 12t-36.5 4q-9 0 -14 5.5
t-4 13.5q2 8 9 14q41 40 83 78t83 78l56 53l7 35l-4 -2q-2 -1 -5 -3l-103 -60l-106 -73l36 168l-121 -73h-145zM434 93q34 0 51 -8l8 -2l15 70l-38 -31z" />
    <glyph glyph-name="d_dho_bn" horiz-adv-x="657" 
d="M309 128l13 58l-35 -23l-45 -26q33 0 67 -9zM272 450l121 72h118l-40 -187q54 12 107 38q3 5 5.5 10t6.5 10l125 -16q-7 -6 -23 -24.5t-33.5 -46.5t-34 -64t-25.5 -78q-7 -34 -6 -65.5t7 -57.5t15 -46t17 -31q-44 3 -92 6t-93 6q0 26 4 56.5t12 65.5q8 39 20 76.5
t26 69.5q-24 -20 -64 -33l-43 -203h-118l5 23q-14 9 -35.5 17.5t-44.5 15t-45 10.5t-39 4l-15 -1q-14 1 -24 8t-8 18q2 9 12 17l258 189l12 58q-30 -17 -60.5 -35t-60.5 -37h-140l56 264h-45l63 63h661l-60 -63h-479z" />
    <glyph glyph-name="d_dh_bo_bn" horiz-adv-x="657" 
d="M293 153l26 19l7 34l-35 -23l-45 -26q24 0 47 -4zM292 49l-79 -49q33 0 67 -9zM155 559h-45l63 63h666l-63 -63h-481l-23 -109l121 72h118l-36 -167q54 12 108 38q3 5 5.5 10t5.5 10l125 -16q-7 -6 -23 -24.5t-33.5 -46.5t-34 -64t-25.5 -78q-7 -34 -6 -65.5t7 -57.5
t15 -46t18 -31q-45 3 -92.5 6t-93.5 6q1 26 5 56.5t11 65.5q8 39 20 76.5t26 69.5q-24 -20 -64 -33l-76 -360h-118l4 23q-13 9 -33.5 17.5t-44 16t-45.5 14t-38 10.5l-14 -1q-15 1 -25 8t-8 18q2 9 12 17l141 94q-21 5 -39.5 8.5t-35.5 1.5l-14 -1q-15 1 -25 8t-8 18
q2 9 12 17l258 189l8 38q-30 -17 -60.5 -35t-60.5 -37h-140z" />
    <glyph glyph-name="d_no_bn" horiz-adv-x="460" 
d="M297 77q-20 74 -77 74q-9 0 -22 -3.5t-25 -10.5t-22 -17.5t-13 -24.5q-3 -16 2.5 -33.5t28.5 -17.5q14 0 20.5 11.5t8.5 17.5q3 17 -7 37l41 -7q8 -2 17.5 -3t6.5 -13q-2 -11 -9.5 -29t-22.5 -35t-36.5 -29t-51.5 -12q-29 0 -48.5 10.5t-31 27.5t-14.5 39.5t2 45.5
q9 40 29.5 67t44 44t43 25t24.5 10q15 5 29 6.5t26 1.5q27 0 52 -9t38 -18l1 -1l29 136q-30 -17 -60.5 -35t-60.5 -37h-140l56 264h-45l63 63h476l-61 -63h-293l-23 -109q29 17 60 35t61 37h142l-113 -530h-142l18 84z" />
    <glyph glyph-name="d_bo_bn" horiz-adv-x="436" 
d="M309 128l13 58l-35 -23l-45 -26q33 0 67 -9zM155 559h-45l63 63h452l-61 -63h-269l-23 -109l121 72h118l-111 -522h-118l7 31q-14 9 -35.5 17.5t-44.5 15t-45 10.5t-39 4l-15 -1q-14 1 -24 8t-8 18q2 9 12 17l258 189l12 58q-30 -17 -60.5 -35t-60.5 -37h-140z" />
    <glyph glyph-name="d_bho_bn" horiz-adv-x="612" 
d="M475 309q8 -10 10.5 -22.5t3 -24t-0.5 -19.5l-1 -8l-71 -24q5 8 8.5 15.5t4.5 15.5l2 6q1 6 0.5 12.5t-4 12t-12.5 5.5q-25 0 -36 -16t-14 -31q-6 -29 11.5 -45t41.5 -16t40 10t26 23.5t15 27t6 20.5q3 14 3 24t-1 12q29 2 58.5 3.5t58.5 3.5q10 -81 -4 -148
q-11 -51 -28.5 -87t-36.5 -60.5t-36.5 -39t-30.5 -23.5l-16 -11l-3 -2q-43 -24 -82 -33.5t-79 -9.5q-32 0 -60 4.5t-49.5 10.5t-35 11.5t-14.5 7.5l67 196q1 -6 8.5 -24t23.5 -37t42 -33.5t63 -14.5q9 0 31 4t54 24q46 38 60 79q-25 -18 -53.5 -25t-63.5 -7q-7 1 -27 6.5
t-39.5 20.5t-31 42.5t-2.5 72.5q8 35 27 62t48 42l4 17l-23 -14q-25 -15 -50 -29t-50 -31h-145l63 294h-45l65 63h668l-61 -63h-482l-29 -136l122 73l6 26h121z" />
    <glyph glyph-name="d_bh_ro_bn" horiz-adv-x="635" 
d="M483 347q12 -11 18.5 -25t9 -27.5t1.5 -24.5t-2 -15v-2l-76 -26q10 15 14 32l1 5q2 7 2 14.5t-3.5 14t-12.5 6.5q-12 0 -22 -5t-16 -13t-10 -17t-5 -16q-3 -15 0.5 -27t12 -20.5t20.5 -13t24 -4.5q16 0 32.5 9.5t30.5 26.5t26 41.5t18 53.5l3 13l67 -3l67 3
q-20 -35 -43.5 -86t-39.5 -120q-21 -134 -4 -200l-135 -2q-1 6 -0.5 12t0.5 13q-36 15 -70 15q-24 0 -48 -8.5t-45 -22.5t-37.5 -33t-26.5 -40l-76 120q17 18 40 33.5t49 27.5t53 19t53 7q36 0 67 -8t51 -19l6 32l7 33q-18 -8 -36 -12.5t-36 -4.5h-7q-3 0 -7 1
q-5 0 -16.5 2.5t-26 8.5t-28.5 17t-24 27.5t-14 40t3 55.5q6 29 22 55t45 45l1 4l-23 -14q-25 -15 -50 -29t-50 -31h-145l63 294h-45l65 63h668l-61 -63h-482l-29 -136l122 73l6 26h121z" />
    <glyph glyph-name="d_mo_bn" horiz-adv-x="703" 
d="M656 -50h-141l36 167q-57 49 -114 49q-10 0 -27.5 -3.5t-36 -12.5t-34 -25t-20.5 -40q-5 -23 5.5 -42.5t36.5 -19.5q14 0 22.5 8.5t10.5 19.5q6 30 -18 54l84 5q2 -2 2.5 -17t-4.5 -35q-3 -17 -11.5 -36.5t-23.5 -37.5q-36 -33 -62.5 -39.5t-48.5 -6.5q-33 0 -56.5 14
t-37.5 37.5t-17.5 54t3.5 63.5t24 60t36.5 47.5t37 33t26.5 17.5l18 10l14 64l-122 -73h-145l62 293h-45l65 63h718l-62 -63h-45zM645 559h-345l-29 -135l122 72l6 26h142l-45 -211q26 -1 48.5 -4.5t44.5 -8.5z" />
    <glyph glyph-name="d_ro_bn" horiz-adv-x="444" 
d="M271 423l121 73l6 26h121l-68 -322q-1 -3 -0.5 -10t3 -14.5t7.5 -13.5t15 -8l-27 -127q-13 -3 -26 -3q-23 0 -48.5 12.5t-36.5 33.5q-39 15 -74 15q-29 0 -55.5 -10.5t-49.5 -27t-40 -37t-24 -40.5q-25 32 -44 65t-41 68q20 21 47.5 38t56.5 29t58.5 19t56.5 7t50.5 -5.5
t45.5 -13.5l34 162q-31 -20 -62 -36l-60 -38h-145l63 294h-45l63 63h461l-62 -63h-272z" />
    <glyph glyph-name="d_ro_alt_bn" horiz-adv-x="444" 
d="M155 559h-45l63 63h461l-62 -63h-272l-40 -186l122 73l5 26h121l-89 -422q-1 -3 -0.5 -10t3 -14.5t7.5 -13.5t15 -8l-27 -127q-13 -3 -26 -3q-23 0 -48 12.5t-37 33.5q-94 42 -166 63t-125 21q-89 0 -166 -94l-75 121q55 38 113.5 54.5t121.5 16.5q30 0 60.5 -4.5
t64.5 -13.5t73 -23.5t85 -35.5l56 264q-31 -20 -61 -36l-60 -38h-145z" />
    <glyph glyph-name="d_r_ukar_bn" horiz-adv-x="652" 
d="M845 622l-65 -63h-480l-29 -136l121 73l6 26h121l-33 -157l12 -28q2 -5 6 -13t11 -16t17 -14t25 -6q20 0 40 12.5t26 31.5q3 17 -2 27t-18 10q-20 0 -36 -23q-12 15 -21 33l-13 17q46 44 89 44q15 0 26.5 -4.5t19.5 -11t13 -12.5l7 -9q10 -21 12.5 -39.5t-0.5 -35.5
q-9 -30 -28.5 -54.5t-45.5 -42t-54.5 -27t-54.5 -9.5q-18 0 -35.5 4.5t-29.5 9.5l-1 -9q-1 -3 -0.5 -10t3 -14.5t7.5 -13.5t15 -8l-27 -127q-13 -3 -26 -3q-23 0 -48.5 12.5t-36.5 33.5q-39 15 -74 15q-29 0 -55.5 -10.5t-49.5 -27t-40 -37t-24 -40.5q-25 32 -44 65t-41 68
q20 21 47.5 38t56.5 29t58.5 19t56.5 7t50.5 -5.5t45.5 -13.5l34 162q-31 -20 -62 -36l-60 -38h-145l63 294h-45l63 63h672z" />
    <glyph glyph-name="d_r_ookar_bn" horiz-adv-x="680" 
d="M873 622l-65 -63h-508l-29 -136l121 73l6 26h121l-21 -99q60 12 123 41l12 20l124 -16q-7 -6 -22.5 -24.5t-33 -46t-34.5 -63.5t-25 -77q-8 -34 -6.5 -65.5t7.5 -58t15 -46.5t18 -31l-84 4q-26 2 -51.5 3.5t-51.5 3.5q2 56 20 138q9 35 19.5 68t23.5 62q-29 -24 -81 -37
l-20 -98q-1 -3 -0.5 -10t3 -14.5t7.5 -13.5t15 -8l-27 -127q-13 -3 -26 -3q-23 0 -48.5 12.5t-36.5 33.5q-39 15 -74 15q-29 0 -55.5 -10.5t-49.5 -27t-40 -37t-24 -40.5q-25 32 -44 65t-41 68q20 21 47.5 38t56.5 29t58.5 19t56.5 7t50.5 -5.5t45.5 -13.5l34 162
q-31 -20 -62 -36l-60 -38h-145l63 294h-45l63 63h700z" />
    <glyph glyph-name="dh_no_bn" horiz-adv-x="499" 
d="M375 266l24 114l-64 -47q-20 -15 -36.5 -26t-28.5 -21h9q45 0 96 -20zM166 -157q-30 0 -51.5 10.5t-33.5 28t-15 41t2 50.5q7 33 28 60t49.5 46.5t62 30.5t66.5 11q32 0 67 -11l2 7q-18 18 -46.5 33.5t-60.5 27.5t-64 19t-57 7l-17 -1q-12 1 -21 8.5t-6 21.5q2 12 14 22
l128 106q-19 6 -38.5 19t-35 33.5t-22 48t0.5 61.5q6 28 22.5 55.5t41.5 49t56.5 34.5t68.5 13q22 0 41.5 -7.5t33.5 -21t19 -33t0 -43.5q-8 -37 -45 -73l-81 15q21 9 33.5 18.5t17.5 33.5q4 19 -20 23l-15 1q-26 -2 -44.5 -21.5t-22.5 -40.5q-6 -27 10 -48t54 -21
q23 0 49 8q13 12 97 80l16 77h249l-73 -63h-44l-149 -699h-129l23 108q-27 39 -72 39q-32 0 -57.5 -15.5t-29.5 -33.5q-6 -27 13 -40l3 -1q9 -6 21 -6t19 9t8 15q3 15 -12 42l76 -13q1 -6 -1 -15q-4 -20 -14.5 -39t-27 -34t-38.5 -24t-49 -9z" />
    <glyph glyph-name="dh_mo_bn" horiz-adv-x="741" 
d="M375 266l24 114l-64 -47q-20 -15 -36.5 -26t-28.5 -21h9q45 0 96 -20zM679 559h-97l-68 -321q26 0 50 -4t44 -10zM932 622l-63 -63h-45l-146 -687h-145l36 171q-56 49 -114 49q-10 0 -28 -3.5t-36.5 -12.5t-34 -25t-21.5 -42q-4 -23 7 -42.5t36 -19.5q29 0 35 29
q3 14 -1.5 27t-18.5 27l39 2q12 1 23.5 1.5t23.5 2.5q1 -4 1.5 -18.5t-4.5 -35.5q-3 -17 -11.5 -36t-23.5 -38q-40 -33 -65.5 -40t-48.5 -7q-32 0 -55 15t-37.5 39.5t-18.5 55t3 61.5q3 16 10.5 34.5t18 36t22 31t24.5 19.5q-22 13 -46 22.5t-47.5 16t-45.5 9.5t-40 3
l-17 -1q-12 1 -21 8.5t-6 21.5q2 12 14 22l128 106q-19 6 -38.5 19t-35 33.5t-22 48t0.5 61.5q6 28 22.5 55.5t41.5 49t56.5 34.5t68.5 13q22 0 41.5 -7.5t33.5 -21t19 -33t0 -43.5q-8 -37 -45 -73l-81 15q21 9 33.5 18.5t17.5 33.5q4 19 -20 23l-15 1q-26 -2 -44.5 -21.5
t-22.5 -40.5q-6 -27 10 -48t54 -21q23 0 49 8q13 12 97 80l16 77h482z" />
    <glyph glyph-name="dh_ro_bn" horiz-adv-x="499" 
d="M375 266l24 114l-64 -47q-20 -15 -36.5 -26t-28.5 -21h9q45 0 96 -20zM454 -41h-145l10 48q-30 10 -62 10q-29 0 -57 -10t-51.5 -26.5t-41 -37t-26.5 -41.5l-23 37q-16 25 -30.5 49t-31.5 47q20 20 46 37.5t54.5 30t58.5 20t56 7.5q38 0 71.5 -8t57.5 -20l3 15
q-18 18 -46.5 33.5t-60.5 27.5t-64 19t-57 7l-17 -1q-12 1 -21 8.5t-6 21.5q2 12 14 22l128 106q-19 6 -38.5 19t-35 33.5t-22 48t0.5 61.5q6 28 22.5 55.5t41.5 49t56.5 34.5t68.5 13q22 0 41.5 -7.5t33.5 -21t19 -33t0 -43.5q-8 -37 -45 -73l-81 15q21 9 33.5 18.5
t17.5 33.5q4 19 -20 23l-15 1q-26 -2 -44.5 -21.5t-22.5 -40.5q-6 -27 10 -48t54 -21q23 0 49 8q13 12 97 80l16 77h249l-73 -63h-44z" />
    <glyph glyph-name="n_jo_bn" horiz-adv-x="836" 
d="M177 622h851l-63 -63h-394l-5 -25q18 -5 36.5 -10t37.5 -10l267 -78l-44 -58q-16 -24 -30 -44t-27.5 -44t-26 -56t-24.5 -78q-12 -66 -6 -113t14 -74l-211 -7q1 5 1.5 10.5t2.5 11.5q17 81 72 201q53 103 109 171l-42 19q-39 17 -76 32t-74 32l-21 -99q-2 -13 4 -20
t14.5 -10t16.5 -4h8q13 0 27 5q1 8 2.5 17t0.5 17l82 27q0 -6 -1 -13.5t-3 -15.5q-9 -40 -30.5 -96.5t-60.5 -113.5q-4 -7 -14.5 -19.5t-25 -27.5t-33 -31.5t-40.5 -31.5q-82 -44 -162 -44q-105 0 -211 72l60 41l139 90q44 -43 104 -43q44 0 83.5 21.5t68.5 59.5
q-25 -7 -47 -9.5t-37 -2.5q-30 0 -56.5 7.5t-41.5 15.5q9 35 14 60l9 42q-30 59 -86 59q-12 0 -27.5 -4.5t-29.5 -13.5t-25.5 -23t-15.5 -32q-2 -10 -1.5 -21t4.5 -20.5t12 -16t22 -6.5q8 0 14 4.5t10 10.5t6 12.5t3 10.5q5 24 -6 47l81 -15q0 -2 -0.5 -6t-2.5 -12
q-2 -10 -6 -23t-11.5 -27t-19 -28t-28.5 -26q-16 -12 -29 -18t-22.5 -8t-16.5 -1.5t-13 0.5q-37 0 -61.5 14t-38 37t-16.5 51.5t3 57.5q11 49 37 83t55 56t53.5 32.5t31.5 12.5q35 9 65 9q31 0 55 -7.5t42 -18.5l12 56h-334z" />
    <glyph glyph-name="n_ttho_bn" horiz-adv-x="667" 
d="M728 688q-3 1 -10 11t-20 20.5t-30.5 19.5t-41.5 9q2 0 -11.5 -1t-31.5 -7.5t-35.5 -22.5t-23.5 -46q-5 -23 3 -49h329l-60 -63h-222q38 -18 67 -46.5t46 -65t22 -80t-5 -91.5q-11 -52 -39.5 -101.5t-70.5 -87.5t-96 -61.5t-115 -23.5q-63 0 -113 26t-85 77q10 3 37.5 17
t60.5 38.5t64.5 61t49.5 85.5q-16 44 -39.5 63t-58.5 19q-13 -1 -27.5 -6.5t-28 -15t-23 -22.5t-13.5 -29q-2 -9 -1.5 -20t4 -21t12 -16.5t22.5 -6.5q9 0 14.5 4.5t10 10.5t7 12.5t3.5 10.5q4 21 -8 46l78 -15q0 -2 -0.5 -5.5l-1.5 -10.5q-3 -15 -13 -37.5t-27.5 -43.5
t-44 -35.5t-62.5 -14.5t-59.5 14.5t-36 37t-15 50.5t3.5 56q10 50 36 84t54 55t52 31t31 12q38 9 69 9q37 0 61 -11q-5 11 -10 23l-11 24h-266l64 63h201q-2 19 3 43q12 56 42.5 99t73 73t95.5 45.5t110 17.5l47 -54zM561 236q17 26 23 58q10 44 -6 80t-51 53q2 -51 -8 -99
q-12 -54 -41 -103t-76 -80h6q97 8 153 91z" />
    <glyph glyph-name="n_ddo_bn" horiz-adv-x="622" 
d="M174 622h638l-61 -63h-182l-47 -219q6 -14 11 -21t10 -10t10 -3h11q13 0 27 5l4 34l82 27q0 -6 -1.5 -14t-3.5 -17q-8 -42 -29 -96.5t-60 -111.5q-4 -7 -14.5 -19.5t-25 -27.5t-33.5 -31.5t-41 -31.5q-80 -44 -160 -44q-106 0 -212 72l198 131q44 -43 103 -43
q45 0 84.5 21.5t68.5 59.5q-25 -7 -47 -9.5t-36 -2.5q-32 0 -59 7.5t-39 15.5l13 60q5 25 10 42q-32 59 -86 59q-14 0 -29.5 -4.5t-30.5 -14t-26 -23.5t-15 -33q-2 -9 -1 -20t5 -20.5t12.5 -15.5t22.5 -6q16 0 23.5 12t9.5 22q3 12 2 24.5t-7 26.5l80 -15q1 -1 -2 -16
q-3 -12 -12 -34.5t-26.5 -44.5t-44.5 -38t-64 -16t-61.5 14t-37.5 37t-15.5 51.5t3.5 57.5q11 49 36 83t53.5 56t52 32.5t32.5 12.5q37 9 67 9q31 0 55 -7.5t42 -18.5l12 56h-334z" />
    <glyph glyph-name="n_dd_ro_bn" horiz-adv-x="622" 
d="M443 559h-341l73 63h643l-69 -63h-180l-39 -182q2 -12 8 -17.5t13.5 -8t14.5 -2t10 0.5q15 0 24 4l2 29q22 7 42 12.5t39 10.5q0 -7 -1.5 -15.5t-3.5 -18.5q-5 -25 -16 -59t-31 -69l-76 -358h-142l7 32q-47 19 -95 19q-24 0 -49.5 -6.5t-48.5 -17.5t-40 -26t-25 -32
l-89 123q48 29 107 47t108 18q48 0 87.5 -11.5t63.5 -23.5l16 78q-62 -25 -129 -25q-108 0 -219 64q54 31 103 60t97 57q45 -36 104 -36q44 0 84 18t62 42q-22 -5 -42 -7t-34 -2q-12 0 -20 2h-12q-20 3 -39 7.5t-30 10.5l11 54q5 22 9 35q-33 49 -86 49q-15 0 -30.5 -4
t-30.5 -11.5t-25.5 -19t-13.5 -26.5q-1 -6 -0.5 -14.5t5 -16t13.5 -12.5t24 -5q14 0 22 8.5t9 16.5q2 10 0 21.5t-11 27.5l84 -14q2 -3 -1 -19q-4 -16 -14.5 -36.5t-29 -38.5t-43.5 -30.5t-57 -12.5q-36 0 -60.5 12.5t-38 33t-17.5 45.5t2 51q9 43 34 73.5t52 50t51 28.5
t33 11q17 3 33.5 5.5t32.5 2.5q30 0 54.5 -6.5t42.5 -16.5z" />
    <glyph glyph-name="n_to_bn" horiz-adv-x="610" 
d="M531 306q23 -9 42 -25.5t31 -37.5t16.5 -46t-1.5 -52q-5 -25 -18 -47t-27.5 -40t-28 -30.5t-20.5 -17.5q-32 -26 -66 -41.5t-66 -23.5t-61.5 -11t-52.5 -3q-22 0 -36.5 1.5t-19.5 1.5q1 22 0 43.5t-2 43.5l1 90q66 -47 128 -47q21 0 43 6t41.5 17t34 28t19.5 38
q4 23 -11 42t-43 20q-3 0 -11 -1t-16.5 -3.5t-16 -7.5t-9.5 -13q-3 -18 9.5 -30.5t44.5 -25.5l-115 -37q-1 1 -5 8t-7.5 19.5t-5 28.5t2.5 35q6 29 20 49t27.5 32t23 17t8.5 4l12 59q-9 32 -33.5 49t-57.5 17q-14 -1 -28.5 -6t-27 -12.5t-22 -18.5t-12.5 -24q-1 -6 -0.5 -15
t5 -16.5t12.5 -13t22 -5.5q12 0 21 6t12 18q2 10 0 21.5t-12 27.5l44 -6t43 -7q1 -8 -2 -21q-3 -14 -13 -34t-28 -38.5t-44.5 -31.5t-62.5 -13q-35 0 -59 12.5t-37.5 33t-17 46.5t2.5 53q10 46 36 76.5t54 49t51.5 27t29.5 10.5q30 7 61 7q34 0 59 -7.5t40 -16.5l9 42h-338
l72 63h630l-68 -63h-152z" />
    <glyph glyph-name="n_t_bo_bn" horiz-adv-x="610" 
d="M419 -32l7 32l-48 -25q2 0 12.5 -1.5t28.5 -5.5zM282 8q-17 0 -27 0.5t-15 1.5q-1 41 -3.5 77.5t-2.5 85.5q66 -42 129 -42q25 0 48.5 7t42 17.5t30.5 24t15 27.5q5 23 -12 36.5t-44 13.5q-14 0 -31.5 -5t-19.5 -13q-5 -24 66 -50l-125 -35l-10 18q-8 15 -10 31.5t1 33.5
q6 26 26.5 51t51.5 42l10 47q-7 26 -33 41t-60 15q-31 -2 -57.5 -17.5t-29.5 -31.5q-5 -23 19 -36l4 -2q3 -3 21 -3q9 0 18 5t10 11q4 17 -19 49l93 -12q1 -9 -3 -27q-3 -18 -14.5 -36t-30 -32.5t-44 -24t-57.5 -9.5q-33 0 -57 11t-38 29.5t-18.5 42t1.5 49.5q8 39 33 68
t58.5 47.5t70.5 28t69 9.5q53 0 97 -22l6 29h-345l80 63h635l-76 -63h-150l-46 -215q24 -8 43.5 -23t32 -35t16.5 -42.5t-1 -45.5q-9 -42 -36 -70l-57 -271h-141l5 24q-15 6 -36 12.5t-46 11t-51 7.5t-49 3q-18 0 -26 9t-6 18q2 12 16 21z" />
    <glyph glyph-name="n_t_ro_bn" horiz-adv-x="582" 
d="M442 559h-339l74 63h603l-71 -63h-122l-51 -238q29 -11 43 -30.5t19 -39.5t4 -38t-2 -27l-55 -257h-118l6 30q-32 11 -58 11q-23 0 -45 -7.5t-40.5 -20t-32.5 -29t-22 -33.5q-16 26 -33.5 52t-36.5 54q41 40 89 60t93 20q31 0 57 -7t47 -17l37 173q-5 11 -20 20t-35 9
q-17 0 -33 -9t-20 -26q-3 -14 6.5 -25.5t29.5 -11.5q11 0 20 3.5t11 5.5q-10 -15 -17.5 -25t-14.5 -18.5t-14 -16t-15 -16.5q-1 -1 -16 3.5t-31 18t-26.5 37t-2.5 60.5q7 33 27 55.5t42 34.5l12 7l7 32q-9 32 -33 49t-57 17q-15 -1 -30 -6t-28 -13t-21.5 -18.5t-11.5 -22.5
q-1 -6 -0.5 -15t5 -17.5t12.5 -14t22 -5.5t23 9t12 21q3 17 -13 45l86 -14q1 -6 -2 -19q-3 -15 -13.5 -35.5t-28 -38.5t-44 -31t-61.5 -13q-36 0 -60 13t-38 33.5t-17.5 46t2.5 51.5q9 46 35.5 76.5t56 49.5t53 27t27.5 9q31 7 62 7q33 0 57.5 -7.5t40.5 -15.5z" />
    <glyph glyph-name="n_tho_bn" horiz-adv-x="613" 
d="M543 358q38 -11 57.5 -31t28 -42.5t8 -45t-3.5 -38.5q-8 -38 -31 -66t-48.5 -47.5t-46 -30.5t-25.5 -14q-25 -11 -32 -12l160 -68l-147 -81q-5 3 -9 8q-46 32 -90.5 65t-90.5 68l17 26l12 17q7 9 13 19l32 45q17 -3 33 -3q55 0 94.5 22t46.5 53q2 11 0 23t-8.5 21.5
t-18.5 15.5t-30 6q-15 0 -35 -7.5t-24 -25.5q-2 -8 3 -12.5t12 -7t14.5 -3.5t10.5 -1q8 0 16.5 1t19.5 4q-35 -44 -65 -78q1 0 -14.5 5t-32.5 18t-29.5 35t-4.5 56q5 25 23 46.5t34 32.5l5 23q-9 32 -33 49t-57 17q-30 -2 -57 -18.5t-33 -42.5q-1 -7 -0.5 -15.5t5 -16.5
t12 -13.5t20.5 -5.5q15 0 24 8t11 16q2 11 -0.5 22.5t-14.5 27.5q25 -3 47 -6t41 -7q1 -8 -2 -22q-3 -15 -13 -34.5t-27.5 -37.5t-44 -30.5t-62.5 -12.5t-59.5 12.5t-37 33t-17 46.5t2.5 53q10 45 36 75.5t54.5 49t52 27t28.5 9.5q18 3 33 5t29 2q33 0 58 -7.5t40 -15.5
l8 37h-338l73 63h632l-68 -63h-154z" />
    <glyph glyph-name="n_dho_bn" horiz-adv-x="738" 
d="M441 559h-338l73 63h758l-69 -63h-280l-57 -268h28q14 0 28 -1h57l12 17l132 -14q-11 -9 -28 -26t-34.5 -42t-32.5 -55.5t-23 -66.5q-6 -29 -4.5 -56t9.5 -49.5t19.5 -41t24.5 -31.5l-197 11q0 46 14 109q14 70 40 123h-71l-43 -202h-144l6 30q-21 12 -46.5 22t-52 16.5
t-51.5 10t-45 3.5q-5 0 -9.5 -0.5t-9.5 -0.5q-14 0 -22 7.5t-5 18.5q1 9 18.5 24t40.5 32t47 33t39 28l162 118l9 40q-8 31 -32.5 48t-57.5 17q-29 -2 -57 -18.5t-33 -42.5q-1 -6 -0.5 -15t5 -16.5t12 -13t21.5 -5.5q11 0 21 6.5t13 18.5q2 10 -0.5 21t-13.5 28l87 -14
q1 -6 -2 -20q-3 -15 -13 -35t-28 -38t-44.5 -31t-62.5 -13t-60 13t-37 34t-16 46.5t3 51.5q9 45 35 75t54.5 49t51.5 27t29 10q32 7 62 7q35 0 59 -7.5t39 -15.5zM280 120h10q17 0 30.5 -2t25.5 -5l12 56q-24 -15 -43.5 -27t-34.5 -22z" />
    <glyph glyph-name="n_dh_ro_bn" horiz-adv-x="738" 
d="M396 350q-8 24 -33 39t-59 15q-29 0 -56 -14.5t-32 -34.5q-1 -8 3 -17t16 -16l-1 -1q0 -1 6 -2.5t16 -1.5q9 0 20 3.5t13 13.5q2 8 -2.5 18.5t-20.5 29.5q22 -4 34 -4l61 -9q1 -4 0.5 -10t-2.5 -14q-3 -14 -12.5 -32t-27 -34t-43.5 -27t-61 -11q-36 0 -60 11.5t-38 30
t-17.5 42t1.5 46.5q9 42 34.5 69.5t53.5 44t51.5 23.5t28.5 8q32 6 61 6q33 0 58 -6.5t40 -14.5l13 58h-346l82 63h765l-79 -63h-278l-58 -272h28q14 0 28 -1h59l11 15l139 -13q-17 -12 -36 -28.5t-36 -37.5t-30.5 -46.5t-19.5 -55.5q-11 -50 9.5 -91t55.5 -70l-208 10
q-1 23 2 48t8 51q14 65 34 103h-69l-60 -286h-144l7 36q-42 14 -78 14q-23 0 -46.5 -6t-44.5 -17t-37.5 -25.5t-26.5 -31.5l-88 101q48 37 102 57t105 20q39 0 74 -9.5t58 -18.5l4 17q-24 11 -51 19t-53.5 13.5t-51.5 8.5t-44 3h-16q-9 0 -20.5 7t-8.5 19q1 8 18 22t40 29
t47 30t41 26l158 102zM296 138h9q22 0 45 -6l9 41z" />
    <glyph glyph-name="n_no_bn" horiz-adv-x="489" 
d="M426 559h-317l65 63h504l-61 -63h-45l-132 -621h-146l24 116q-9 22 -24 31.5t-35 9.5t-42 -15.5t-27 -39.5q-4 -17 2 -33t23 -16q12 0 19.5 12t8.5 18q4 15 -6 35l61 -12v-4.5t-1 -8.5q-3 -11 -10 -28t-21 -32.5t-34 -26.5t-48 -11q-27 0 -45 10.5t-27.5 28t-11.5 39
t2 42.5q8 37 27.5 63t41 42t39.5 23.5t22 8.5q26 7 49 7q22 0 38 -5t26 -11l30 139q-4 38 -25 60.5t-53 22.5q-13 0 -28 -5.5t-28 -15.5t-22.5 -23t-13.5 -29q-4 -19 3.5 -38.5t31.5 -19.5q8 0 14 4.5t9.5 10.5t6 12t2.5 9q5 22 -6 45l11 -2q16 -3 33.5 -6t33.5 -7
q0 -1 -0.5 -5t-1.5 -9q-3 -14 -12.5 -35.5t-27 -41.5t-43 -35t-61.5 -15q-33 0 -55.5 13.5t-34.5 35.5t-14.5 49.5t2.5 54.5q11 49 36.5 81.5t52.5 52.5t49.5 28.5t26.5 10.5q17 5 31.5 6.5t28.5 1.5q32 0 57 -9.5t36 -17.5z" />
    <glyph glyph-name="n_bo_bn" horiz-adv-x="503" 
d="M253 43h12q40 0 64 -8l16 74l-88 -63zM445 -103h-145l2 11q-20 15 -46 26t-52.5 18.5t-51.5 11.5t-45 4h-16q-14 0 -22 7.5t-5 18.5q2 9 10 17l304 253l11 51q-8 39 -31.5 59t-54.5 20q-14 -1 -29.5 -6.5t-28.5 -15t-23 -23t-13 -30.5q-2 -10 -2 -21t4 -20.5t12 -15.5
t22 -6q18 0 26 13.5t10 24.5q5 23 -7 46l47 -8q5 -1 12 -1.5t12.5 -2t8 -5.5t0.5 -12q-3 -15 -13.5 -38t-29 -44.5t-45.5 -37t-64 -15.5q-36 0 -59.5 14.5t-36.5 37.5t-15.5 52t3.5 58q11 51 37.5 85.5t55 56t53 31t29.5 11.5q17 5 33 6.5t30 1.5q34 0 58.5 -8.5t38.5 -18.5
l12 56h-332l65 63h519l-62 -63h-45z" />
    <glyph glyph-name="n_mo_bn" horiz-adv-x="763" 
d="M954 622l-63 -63h-45l-139 -654h-145l28 131q-61 50 -119 50q-10 0 -27.5 -3.5t-36 -12.5t-34.5 -25.5t-23 -42.5q-3 -23 7.5 -43.5t37.5 -20.5q15 0 23 10t10 17q3 14 -2 29.5t-16 28.5l40 2q12 2 23.5 2.5t22.5 1.5q2 -3 2.5 -18.5t-4.5 -37.5q-7 -36 -25.5 -59
t-41 -37t-45 -19.5t-38.5 -5.5q-35 0 -59.5 14.5t-39 39.5t-17.5 57t4 67q7 33 25.5 60.5t38.5 47.5t38 32.5t25 17.5q6 4 12 7l12 6l20 95q-6 42 -30 66t-57 24q-14 0 -31 -6t-31.5 -16t-26 -24t-14.5 -30q-4 -19 -0.5 -35.5t15.5 -26.5h1q-1 -2 7 -5.5t16 -3.5q9 0 15.5 5
t11 11.5t6.5 13t3 9.5q5 24 -7 50q21 -2 43.5 -6t42.5 -9l-4 -17q-2 -10 -6.5 -24t-12.5 -29t-19.5 -30.5t-29.5 -28.5q-19 -14 -33.5 -18.5t-19.5 -6.5q-17 -4 -36 -4q-39 0 -64 15.5t-39 40t-16.5 55.5t4.5 61q11 54 39 90t59 58t56 32t31 12q18 5 34.5 7.5t31.5 2.5
q16 0 32 -3t30 -7.5t25 -10t17 -9.5l13 60h-350l64 63h781zM604 559l-69 -324h11q47 -2 83 -13l72 337h-97z" />
    <glyph glyph-name="n_ro_bn" horiz-adv-x="542" 
d="M482 559h-379l72 63h563l-69 -63h-44l-119 -559h-143l5 23q-47 21 -93 21q-26 0 -51 -7.5t-47.5 -20.5t-41 -30.5t-28.5 -37.5l-10 14t-11 15l-67 86q45 38 104 61.5t112 23.5q24 0 46.5 -4t42 -10t35.5 -13t27 -13l43 203q-10 34 -33.5 54t-59.5 20q-16 0 -34 -4.5
t-34.5 -13t-28 -21.5t-15.5 -30q-2 -9 -0.5 -19t6.5 -18.5t15 -14.5t25 -6q20 0 28 12.5t10 20.5q4 21 -14 52l97 -16v-8t-2 -14q-5 -21 -21 -52t-53 -56q-21 -12 -35 -17.5t-24.5 -7.5t-19 -1.5t-15.5 0.5q-41 0 -68 14.5t-42 38t-19.5 53t1.5 59.5q8 34 24 60.5t36.5 47
t43 35t41.5 23.5t33 13.5t17 5.5q19 5 36 6.5t33 1.5q39 0 67 -8.5t46 -17.5z" />
    <glyph glyph-name="n_so_bn" horiz-adv-x="792" 
d="M109 559l64 63h809l-62 -63h-45l-124 -582h-146l16 76q-5 12 -18.5 26.5t-36.5 22.5h-2l-1 1q-10 -17 -27 -40t-42.5 -43t-59 -34t-76.5 -14q-28 0 -52 7.5t-39.5 23t-22 38.5t-0.5 55q8 38 29 62t42 37t37 16t16 0q21 -2 34.5 -10t16.5 -13l-33 -69q-7 23 -29 23
q-11 0 -23 -10.5t-14 -20.5q-3 -12 1.5 -20.5t13 -14t18 -8t17.5 -2.5q19 0 35.5 8.5t28.5 22t20 29.5t11 31q6 25 -3 42t-24 30.5t-33 27t-30 32.5q-7 11 -12.5 26t-8.5 35q-29 27 -60 27q-13 0 -28 -5t-29 -14t-25 -22.5t-14 -29.5q-5 -22 4.5 -41t32.5 -19q12 0 21 7.5
t12 19.5q6 27 -15 50q8 1 15 1h15l47 2q1 -2 1 -15t-3 -31q-6 -26 -20.5 -47t-33.5 -35.5t-40.5 -22t-40.5 -7.5q-32 0 -55 13.5t-35 36t-15 50.5t3 57q8 35 25 61.5t36.5 45.5t36.5 29.5t24 13.5q27 14 52 19t48 5q19 0 35 -2.5t29 -7.5q10 30 27 70h-295zM654 205l75 354
h-128q-36 -30 -59 -54t-37 -43t-21 -35t-10 -30q-2 -9 -2 -14t4 -10.5t14 -13t27 -20.5l24 -19q1 -2 7.5 -8.5t14 -18t15 -26.5t11.5 -33l13 -2q17 -2 29.5 -10t22.5 -17z" />
    <glyph glyph-name="p_tto_bn" horiz-adv-x="858" 
d="M475 328l-143 -102q-3 20 -23 52t-65 52q-5 -14 -9.5 -29.5t-8.5 -31.5q-14 14 -29 27.5t-31 27.5l-63 55q24 52 57 97t71.5 77t83.5 50.5t93 18.5q41 0 72 -10.5t50 -24.5l7 35h192q8 20 12 38q5 24 0 38.5t-18 22.5t-31.5 11t-38.5 3q-106 0 -325 -95q23 57 48 113.5
t48 111.5q98 25 181 25q75 0 129.5 -18t88 -48t46 -69.5t3.5 -82.5q-5 -24 -19 -50h194l-61 -63h-320l-89 -417q27 -8 49 -8t46.5 8t45 22.5t36 35t20.5 46.5l2 6q2 6 1 14.5t-5 18.5t-18 17q-3 4 -16 4q-1 0 -7.5 -1t-14.5 -4.5t-14.5 -9.5t-9.5 -16q-4 -21 8.5 -36
t34.5 -24l-97 -44q-1 2 -6 10.5t-9 22t-5.5 31t2.5 38.5l3 16q2 9 7 20t14.5 23.5t26.5 26.5l4 3q6 3 14 8t18.5 10.5t23.5 9.5t28 4q28 0 53.5 -13t44.5 -35.5t27 -53t0 -66.5q-5 -22 -15 -42.5t-21.5 -37.5t-22.5 -29t-16 -17q-37 -35 -76 -56t-74.5 -32t-64.5 -15t-48 -4
h-142zM339 418q18 -17 29.5 -32t16.5 -28l63 66q13 14 26 27l27 27q-12 16 -29.5 28t-40.5 12q-32 0 -64 -21.5t-63 -58.5q17 -6 35 -20z" />
    <glyph glyph-name="p_to_bn" horiz-adv-x="700" 
d="M431 523q-61 -3 -118 -62q29 -11 50 -33.5t28 -36.5l110 101q-7 10 -25.5 20.5t-44.5 10.5zM897 622l-70 -63h-162l-47 -219q27 -8 47.5 -24t34 -37.5t17.5 -48t-2 -54.5q-5 -25 -17.5 -46t-26.5 -37.5t-27 -28t-20 -16.5q-32 -25 -65.5 -40t-65.5 -23.5t-61 -11.5
t-51 -3q-19 0 -31.5 1t-17.5 2q-1 43 -2 85.5t-2 86.5q63 -45 124 -45q19 0 41.5 5.5t41.5 17t33.5 28t19.5 38.5q4 20 -7.5 36.5t-36.5 20.5h-21q-14 -2 -24.5 -7.5t-13.5 -16.5q-3 -14 9 -28t43 -25l-112 -37q-2 0 -5.5 7t-7 19t-4.5 28.5t3 34.5q4 17 11.5 31.5t16.5 26
t18 20t15 12.5l11 48q-19 -11 -36.5 -23t-35.5 -23l-67 -42q-5 17 -24.5 42.5t-68.5 47.5q-9 -20 -16 -53l-62 47q-16 12 -32.5 23.5t-33.5 25.5q24 47 56 87t70 69t82.5 45.5t93.5 16.5q39 0 69.5 -9t54.5 -22l6 31h358z" />
    <glyph glyph-name="p_t_ro_bn" horiz-adv-x="642" 
d="M341 448q39 -31 50 -54l109 100q-7 9 -26 19.5t-44 10.5q-32 0 -62 -16.5t-56 -44.5q11 -4 29 -15zM612 -36h-117l7 30q-28 10 -56 10q-22 0 -43 -7t-39.5 -19t-32 -27.5t-19.5 -31.5l-69 102q36 36 83.5 56t92.5 20q30 0 55.5 -6.5t44.5 -15.5l31 146q-5 10 -14 17.5
t-31 11.5h-16q-14 -2 -26.5 -10.5t-15.5 -22.5t6.5 -25t29.5 -11q10 0 18.5 2.5t13.5 5.5l-28 -32l-33 -42q-2 0 -17 4.5t-30 17t-25.5 34.5t-2.5 58q5 23 16 40t24.5 29t28.5 19.5t27 12.5l7 32l-67 -40l-72 -47q-4 17 -25.5 43.5t-68.5 45.5q-4 -11 -8 -24t-8 -29l-59 47
q-18 11 -34 23.5t-33 25.5q22 46 54 85.5t70 68.5t82.5 45t93.5 16q39 0 70 -9t54 -22l6 31h302l-68 -63h-107l-51 -241q20 -13 30.5 -30.5t15.5 -35.5t4.5 -34t-2.5 -25z" />
    <glyph glyph-name="p_no_bn" horiz-adv-x="567" 
d="M326 432q16 -16 26 -30.5t14 -27.5l57 58q25 25 52 55q-9 15 -25.5 26t-39.5 11q-29 0 -58 -19t-58 -54q16 -7 32 -19zM516 -71h-142l20 96q-13 44 -37 63t-59 19q-12 -2 -25.5 -6.5t-26.5 -13.5t-23.5 -21.5t-13.5 -29.5q-2 -10 -1.5 -21t4.5 -20t11.5 -15t20.5 -6
q16 0 23.5 13t8.5 19q3 14 2.5 25t-6.5 25l41 -9q6 -2 13 -2t12.5 -1.5t8.5 -5.5t1 -14q-3 -14 -12.5 -36t-27.5 -42t-43.5 -34.5t-60.5 -14.5q-34 0 -57.5 12.5t-36.5 34t-16.5 49.5t3.5 59q10 48 35 81t53 54t51.5 31t30.5 12q35 9 64 9q34 0 60 -9t42 -21l32 148
l-145 -104q-3 8 -7.5 20.5t-14.5 26t-25 26.5t-36 22q-5 -13 -9 -27t-7 -28l-115 102q22 49 52.5 90.5t67 72t78.5 47.5t89 17q42 0 72.5 -13t47.5 -27l8 40h234l-60 -63h-45z" />
    <glyph glyph-name="p_po_bn" horiz-adv-x="556" 
d="M315 442q33 -31 41 -54l90 91l12 16q-8 14 -25 24t-38 10q-26 0 -53.5 -18.5t-54.5 -51.5q14 -4 28 -17zM247 120q32 -33 41 -55l89 92l13 15q-8 15 -25 25t-38 10q-26 0 -54 -18.5t-55 -51.5q13 -6 29 -17zM511 622h233l-60 -63h-45l-130 -612h-141l23 109l-149 -106
q-2 15 -15.5 37t-40.5 43l-21 10q-5 -13 -9.5 -25.5t-7.5 -26.5l-56 47l-25.5 25.5t-26.5 24.5q84 185 252 214q6 0 8 1q-2 8 -9 17t-17 18t-21 16.5t-20 11.5q-5 -13 -9 -26t-7 -27q-26 23 -53.5 48.5t-54.5 49.5q21 46 49.5 85.5t63 68t74.5 44.5t84 16q45 0 76 -15
t46 -29zM459 378l-114 -80q27 -5 52.5 -18.5t35.5 -23.5z" />
    <glyph glyph-name="p_ro_bn" horiz-adv-x="582" 
d="M338 418q36 -34 45 -60l117 120q-13 16 -29.5 28t-41.5 12q-31 0 -62.5 -21.5t-62.5 -58.5q17 -6 34 -20zM546 0h-140l10 45q-19 6 -36 9.5t-34 3.5q-28 0 -54.5 -10t-49.5 -26t-40 -36t-24 -40l-83 130q19 18 44.5 35t54 29.5t58 20t56.5 7.5q38 0 71 -9t56 -22l41 191
q-38 -26 -72 -51t-73 -51q-2 17 -16.5 43t-46.5 47l-25 14q-5 -14 -9.5 -29.5t-8.5 -31.5l-122 110q24 52 56.5 96.5t71 77t83.5 51t94 18.5q39 0 70 -10.5t53 -24.5l7 35h233l-61 -63h-45z" />
    <glyph glyph-name="p_ro_alt_bn" horiz-adv-x="582" 
d="M338 418q36 -34 45 -60l117 120q-13 16 -29.5 28t-41.5 12q-31 0 -62.5 -21.5t-62.5 -58.5q17 -6 34 -20zM435 137l41 191q-38 -26 -72 -51t-73 -51q-2 17 -16.5 43t-46.5 47l-25 14q-5 -14 -9.5 -29.5t-8.5 -31.5l-122 110q24 52 56.5 96.5t71 77t83.5 51t94 18.5
q39 0 70 -10.5t53 -24.5l7 35h233l-61 -63h-45l-119 -559h-140l9 42q-165 77 -270 77q-61 0 -110.5 -24t-87.5 -70l-75 121q56 39 115 55t130 16q69 0 148 -18t170 -62z" />
    <glyph glyph-name="p_lo_bn" horiz-adv-x="581" 
d="M535 -48h-140l30 141q-12 0 -23 -6t-19 -15.5t-13.5 -21t-7.5 -21.5l-35 -3q-9 -2 -17 -2.5t-15 -1.5l2 11q8 36 -10 59t-45 23q-25 0 -48 -19t-29 -48q-1 -6 -1 -14t1.5 -16t7 -13.5t15.5 -5.5t17 6.5t10.5 14t5.5 14.5t2 8q2 11 1 29l10 -7q3 -2 10.5 -5.5t15 -7.5
t13 -8t5.5 -6q-1 -5 -8.5 -22t-22.5 -35t-36.5 -32t-51.5 -14q-26 3 -42 15t-24 29.5t-8 39t5 42.5q8 38 24 65t36 44t40 26.5t36 14t26 5.5t9 1q42 0 66 -16.5t36 -32.5q37 35 78 35h7l27 126l-144 -102q-2 10 -7 24t-15.5 28t-26.5 27.5t-40 24.5q-5 -14 -9.5 -29.5
t-8.5 -31.5l-121 110q24 52 56 96.5t71 77t83.5 51t93.5 18.5q41 0 71.5 -10.5t51.5 -24.5l7 35h232l-60 -63h-45zM337 418q38 -33 46 -60l116 120q-10 16 -28 28t-43 12q-31 0 -62 -21.5t-62 -58.5q16 -6 33 -20z" />
    <glyph glyph-name="p_so_bn" horiz-adv-x="787" 
d="M977 622l-62 -63h-45l-120 -565h-141l16 76q-6 10 -19 23.5t-36 22.5l-4 1q-8 -16 -23.5 -37.5t-40 -41.5t-58 -34t-75.5 -14q-28 0 -51 7.5t-38.5 22.5t-21 37.5t0.5 52.5q6 26 20.5 50t37.5 41q23 15 42 18t19 4q22 -3 34.5 -11.5t15.5 -12.5l-30 -64q-8 20 -28 20
q-13 0 -24.5 -8.5t-14.5 -22.5q-2 -12 2.5 -20t12.5 -13t17.5 -7.5t16.5 -2.5q17 0 33 8.5t28 21.5t20.5 29t11.5 31q6 26 -4 43.5t-26.5 32.5t-35.5 30.5t-31 39.5q-32 -23 -62.5 -48t-62.5 -48q-1 7 -4.5 17t-11 21t-18 22t-24.5 19q-8 -20 -14 -46q-22 20 -43 40.5
t-42 42.5q16 38 38.5 71.5t49.5 58.5t58 39.5t64 14.5q56 0 86 -22q5 14 10.5 28.5t13.5 31.5h-305l63 63h805zM290 322l67 74q6 5 11 12v2q-5 14 -17 22.5t-27 8.5q-22 0 -44 -15.5t-45 -43.5q10 -4 19.5 -12t16.5 -16.5t12.5 -17t6.5 -14.5zM656 216l73 343h-125
q-84 -68 -101 -112q-7 -10 -13 -21.5t-9 -23.5q-2 -11 1.5 -21t16.5 -16l25 -18q15 -12 22 -20q3 0 9.5 -7t13.5 -18.5t13.5 -26t9.5 -30.5l14 -3q17 -4 29 -11t21 -15z" />
    <glyph glyph-name="ph_tto_bn" horiz-adv-x="759" 
d="M289 559q3 -17 11.5 -36.5t18.5 -39t21.5 -37.5t23.5 -31q14 -17 21.5 -31t4.5 -34q-3 -17 -13.5 -32.5t-24.5 -30.5t-31 -28t-34 -24l-3 -2q-36 -27 -63 -43q19 8 48 15q30 7 67 7q40 0 77 -10l60 283q86 40 156 40q65 0 113 -36q4 -3 14.5 -14t19.5 -29t14 -42t-2 -54
q-4 -20 -14 -41t-25 -38t-34.5 -27.5t-44.5 -10.5q-2 0 -15 1.5t-27 9t-22.5 24.5t-2.5 48q4 17 17 43q13 -3 25.5 -6t24.5 -8q-8 -11 -10 -22q-6 -25 16 -25q17 0 28 12.5t14 27.5q4 18 -2 30.5t-16 20t-20 11t-16 4.5h-8q-29 0 -64 -18l-75 -352q25 -8 44 -8q17 0 35.5 6
t34.5 17.5t27.5 26.5t15.5 33l1 6q2 7 1 16t-7.5 17t-22.5 8q-1 0 -5.5 -1t-10.5 -3.5t-11 -7t-7 -11.5q-3 -17 7 -28t26 -16l-56 -26q-6 -4 -17 -7q-1 0 -4.5 6t-6.5 16t-4.5 24t1.5 30q2 11 7.5 26t30.5 41l5 4q5 4 14 9t21 9t25 4q23 0 43 -10t33.5 -27.5t19.5 -41
t0 -50.5q-3 -17 -11 -32t-16.5 -28t-17 -22.5t-12.5 -13.5q-27 -27 -56 -42.5t-56.5 -23.5t-50.5 -10t-36 -2h-148l28 132q-25 7 -58 8.5t-59 1.5q-33 0 -62 -3t-53 -11l-73 205q91 40 130 67.5t43 45.5q3 13 -3 20.5t-18 15.5l-21 19q-53 58 -59 136h-39l64 63h490
q6 12 9 22t5 18q4 22 -1.5 36.5t-18.5 22.5t-31.5 11t-38.5 3q-109 0 -328 -96l5 10q23 55 46 109l47 108q96 25 179 25q73 0 128.5 -18t90 -48t48 -69.5t4.5 -82.5q-5 -25 -19 -51h165l-65 -63h-599z" />
    <glyph glyph-name="ph_ro_bn" horiz-adv-x="766" 
d="M109 559l63 63h785l-62 -63h-607q6 -15 14.5 -32.5t19.5 -34.5t22.5 -33.5t22.5 -28.5q14 -15 23 -29t5 -34q-3 -16 -14 -31t-25.5 -28.5t-31 -25.5t-30.5 -21l-4 -3q-35 -23 -63 -36q19 6 48 11q29 6 64 6q18 0 39.5 -2t40.5 -7l53 249q86 44 159 44q60 0 114 -32
q6 -2 20 -14.5t27 -35t20 -55t-1 -72.5q-6 -26 -18 -52.5t-30.5 -48t-43.5 -35t-56 -13.5q-2 0 -18 2t-33 11.5t-28.5 30.5t-3.5 60q3 13 8.5 26.5t13.5 27.5q16 -4 31.5 -8t30.5 -9q-10 -14 -13 -28t2.5 -23t17.5 -9q22 0 35.5 18t17.5 36q5 23 -3 37.5t-20.5 23.5
t-25.5 12.5t-19 3.5q-5 1 -14 1q-26 0 -54 -13l-98 -458h-140l10 46q-29 10 -61 10q-29 0 -55.5 -10.5t-49.5 -27t-40 -36t-24 -38.5q-6 10 -11 18.5t-10 16.5l-61 96q19 18 43.5 34t51.5 28.5t55.5 20t54.5 7.5q37 0 70 -7.5t57 -17.5l10 45q-31 8 -59.5 9.5t-54.5 1.5
q-67 0 -118 -14l-43 100q-8 23 -16.5 45t-17.5 44q89 39 128 63.5t43 42.5q3 14 -10 27t-32 24q-53 56 -60 124h-41z" />
    <glyph glyph-name="ph_lo_bn" horiz-adv-x="765" 
d="M209 435q-51 55 -58 124h-42l64 63h782l-62 -63h-604q5 -15 13.5 -32.5t19.5 -35t22.5 -33.5t22.5 -28q14 -15 22.5 -29t4.5 -34q-3 -15 -13.5 -30t-24.5 -28.5t-31 -26t-32 -21.5l-3 -3q-35 -23 -63 -36q19 6 47 11q29 6 65 6q17 0 40 -1.5t39 -7.5l53 249q86 44 159 44
q62 0 114 -32q6 -3 20 -15.5t27.5 -34.5t20 -54t-1.5 -73q-6 -26 -18 -52.5t-30.5 -48t-43.5 -35t-55 -13.5h-8q-8 1 -19 3.5t-23 8.5t-21.5 17.5t-13.5 29.5t2 44q5 26 22 55q16 -4 31 -8t31 -9q-10 -13 -13 -27q-3 -16 3 -24.5t18 -8.5q10 0 18.5 5t15 13t11 17.5
t6.5 18.5q4 22 -2.5 36.5t-19 23.5t-25.5 13t-20 4q-5 1 -14 1q-26 0 -54 -13l-111 -520h-141l19 88q-28 -4 -43.5 -21.5t-20.5 -43.5l-69 -8q1 2 2 5t1 5q8 35 -7.5 59t-44.5 24q-12 0 -24.5 -4.5t-24 -12.5t-20.5 -20.5t-12 -28.5q-2 -7 -2 -15.5t2.5 -16t9 -12.5t17.5 -5
q9 0 14.5 6t9 13.5t5.5 14.5t2 8q3 14 1 29l56 -31l-8 -17q-6 -17 -20 -36.5t-35.5 -36t-51.5 -16.5q-28 0 -45.5 11.5t-25 30.5t-8.5 41.5t4 45.5q9 36 23.5 61.5t32.5 42.5t36.5 27t34 15.5t27 7t15.5 1.5q42 0 67.5 -16t35.5 -33q38 34 79 34h10l11 51q-25 7 -56.5 9
t-57.5 2q-67 0 -118 -14q-12 24 -21 49.5t-19 50.5l-36 89q91 40 129 64.5t42 42.5q3 14 -10 26.5t-33 23.5z" />
    <glyph glyph-name="b_jo_bn" horiz-adv-x="722" 
d="M448 -21l4 19q17 82 70 198q52 99 106 165q-10 4 -20.5 9.5t-20.5 10.5l-146 63q-21 -101 -20 -107q4 -22 40 -22q15 0 29 5q1 7 1.5 14.5t-0.5 15.5q21 7 41 13.5t40 14.5q0 -5 -1 -11l-3 -14q-3 -14 -8 -35.5t-15.5 -48.5t-26 -58.5t-39.5 -66.5q-5 -7 -14 -19.5
t-23.5 -27.5t-33 -30.5t-40.5 -28.5q-39 -23 -78.5 -33t-77.5 -10q-101 0 -198 69l161 192q12 -49 45 -77t82 -28q85 0 148 79q-46 -11 -86 -11q-16 0 -33.5 4.5t-46.5 24.5q-42 27 -83.5 45t-77.5 19l-12 -1q-22 2 -18 21q0 4 14 18t43.5 41.5t73.5 68.5t106 99h-229l65 63
h747l-62 -63h-385l-5 -22l333 -96l-84 -115q-18 -25 -34.5 -64.5t-30.5 -94.5q-19 -105 10 -179zM297 353q5 17 10.5 40.5t11.5 54.5l-100 -81q15 0 25.5 -0.5t18.5 -2t16 -4.5t18 -7z" />
    <glyph glyph-name="b_do_bn" horiz-adv-x="650" 
d="M323 350l20 91q-39 -30 -64 -49.5t-38 -28.5h15q34 0 48 -7zM625 -1q-24 0 -43 10t-32 26t-19.5 36.5t-6.5 41.5q0 10 9 59.5t29 139.5l-122 -75h-141q-19 13 -41.5 24.5t-46 20t-46.5 13.5t-42 5h-11q-26 0 -22 21q2 8 9 16l254 222h-244l63 63h668l-62 -63h-269
l-35 -165q20 12 50.5 30t70.5 43l6 25h118l-68 -319q-2 -37 27 -44l-27 -127q-14 -3 -26 -3z" />
    <glyph glyph-name="b_dho_bn" horiz-adv-x="660" 
d="M632 -67q-36 3 -81.5 6t-103.5 5q3 55 18 125q13 64 37 120h-44l-47 -220h-141l7 33q-34 19 -71 29t-66 10l-15 -1q-25 1 -22 17q1 6 10 13l74 61q23 19 46 36.5t45 37.5q-19 13 -40 22.5t-42 16.5t-41 10.5t-36 3.5l-13 -1q-12 -1 -19.5 5.5t-4.5 17.5q1 9 10 17
l302 254l2 8h-287l64 63h677l-61 -63h-252l-51 -241h86q5 9 12 18l122 -15q-1 -1 -15.5 -16.5t-32.5 -41.5t-35.5 -60t-25.5 -72q-7 -34 -6 -65.5t7 -57.5t15.5 -45.5t18.5 -29.5zM342 307l25 116l-123 -96h10q50 0 88 -20zM296 91l9 42l-57 -39h11q21 0 37 -3z" />
    <glyph glyph-name="b_ro_bn" horiz-adv-x="490" 
d="M440 -67h-144l12 59q-25 6 -48 6q-27 0 -54 -9t-50 -25t-41 -36.5t-26 -42.5l-15 24q-17 26 -33.5 53t-34.5 54q21 21 47.5 38t55.5 29t58 18.5t55 6.5q31 0 58 -6.5t48 -16.5l4 20q-15 16 -41 32t-56.5 29t-61.5 20.5t-56 7.5h-11q-5 0 -10 -1q-16 2 -22.5 9.5
t-4.5 18.5q2 9 10 16l128 109q55 49 108.5 96t108.5 95l5 22h-320l64 63h506l-61 -63h-45zM330 262q6 -2 14.5 -5t18.5 -8l26 122l-137 -101h13q40 0 65 -8z" />
    <glyph glyph-name="b_lo_bn" horiz-adv-x="490" 
d="M326 112q-16 15 -42 29.5t-55.5 26.5t-59 19t-52.5 7h-11q-5 0 -10 -1q-15 2 -22 10t-5 18q2 9 10 16l348 300l5 22h-323l64 63h506l-61 -63h-45l-151 -708h-142l34 158q-25 0 -41 -19t-22 -45q-12 -2 -26.5 -3t-30.5 -2l3 10q4 15 2 29t-8 25t-15 17.5t-21 6.5
q-23 0 -44 -15.5t-27 -47.5q-4 -17 0 -32.5t18 -15.5q12 0 20 13t11 26q2 13 1 31l20 -15l14 -8q7 -4 14 -9q-4 -23 -16.5 -41.5t-27.5 -31.5t-30.5 -20.5t-26.5 -7.5q-42 0 -57.5 34.5t-5.5 84.5l6 29q5 18 18.5 39.5t33 40t43 31.5t47.5 13h7q56 0 83 -46q34 32 67 32h3z
M254 270h12q21 0 38 -1.5t28 -6.5l34 -13l26 122l-58 -42z" />
    <glyph glyph-name="bh_ro_bn" horiz-adv-x="555" 
d="M638 496q-25 -37 -56 -100t-50 -151q-7 -37 -9 -74t-1 -69.5t3.5 -59t7.5 -42.5h-166l3 44q-45 22 -91 22q-28 0 -55.5 -10t-51 -26t-42 -37t-28.5 -43q-7 11 -13.5 23t-13.5 25l-57 86q20 21 47.5 38.5t56 30t58 20t56.5 7.5q43 0 83 -12t65 -25q4 31 11 62l5 27
q3 14 8 28q-55 -26 -103 -26h-10q-7 1 -30 7.5t-46.5 24.5t-37.5 50t-3 85q6 27 19.5 52.5t33 45.5t46 32t58.5 12q36 0 53.5 -19t24.5 -42t6.5 -42.5t-0.5 -20.5q-21 -7 -42 -13.5t-42 -14.5q13 19 17 36q1 4 1.5 11.5t-1 14.5t-6.5 12.5t-15 5.5q-12 0 -21 -6t-16 -14.5
t-11.5 -18t-6.5 -17.5q-4 -18 0.5 -32t14.5 -23t22.5 -13.5t25.5 -4.5q30 0 53 17.5t39.5 41t26.5 46.5t12 34q1 5 1.5 8.5t0.5 6.5h166zM744 622l-60 -63h-575l65 63h570z" />
    <glyph glyph-name="bh_r_ukar_bn" horiz-adv-x="737" 
d="M527 214q-4 -33 -5 -65t0.5 -60.5t4 -51.5t6.5 -37h-166l3 44q-45 22 -91 22q-28 0 -55.5 -10t-51 -26t-42 -37t-28.5 -43q-7 11 -13.5 23t-13.5 25l-57 86q20 21 47.5 38.5t56 30t58 20t56.5 7.5q43 0 83 -12t65 -25q4 31 11 62l5 27q3 14 8 28q-55 -26 -103 -26h-10
q-7 1 -30 7.5t-46.5 24.5t-37.5 50t-3 85q6 27 19.5 52.5t33 45.5t46 32t58.5 12q36 0 53.5 -19t24.5 -42t6.5 -42.5t-0.5 -20.5q-21 -7 -42 -13.5t-42 -14.5q13 19 17 36q1 4 1.5 11.5t-1 14.5t-6.5 12.5t-15 5.5q-12 0 -21 -6t-16 -14.5t-11.5 -18t-6.5 -17.5
q-4 -18 0.5 -32t14.5 -23t22.5 -13.5t25.5 -4.5q30 0 53 17.5t39.5 41t26.5 46.5t12 34q1 5 1.5 8.5t0.5 6.5h166q-14 -21 -32.5 -53t-36.5 -74q6 -18 14 -32q2 -5 6 -13t11 -16t17 -14t25 -6q20 0 40 12.5t26 31.5q3 17 -2 27t-18 10q-20 0 -36 -23q-12 15 -21 33l-13 17
q46 44 89 44q15 0 26.5 -4.5t19.5 -11t13 -12.5l7 -9q10 -21 12.5 -39.5t-0.5 -35.5q-9 -30 -28.5 -54.5t-45.5 -42t-54.5 -27t-54.5 -9.5q-24 0 -43.5 6t-31.5 13zM109 559l65 63h756l-65 -63h-756z" />
    <glyph glyph-name="bh_r_ookar_bn" horiz-adv-x="761" 
d="M544 295q-4 -12 -7 -25l-5 -25q-7 -37 -9 -74t-1 -69.5t3.5 -59t7.5 -42.5h-166l3 44q-45 22 -91 22q-28 0 -55.5 -10t-51 -26t-42 -37t-28.5 -43q-7 11 -13.5 23t-13.5 25l-57 86q20 21 47.5 38.5t56 30t58 20t56.5 7.5q43 0 83 -12t65 -25q4 31 11 62l5 27q3 14 8 28
q-55 -26 -103 -26h-10q-7 1 -30 7.5t-46.5 24.5t-37.5 50t-3 85q6 27 19.5 52.5t33 45.5t46 32t58.5 12q36 0 53.5 -19t24.5 -42t6.5 -42.5t-0.5 -20.5q-21 -7 -42 -13.5t-42 -14.5q13 19 17 36q1 4 1.5 11.5t-1 14.5t-6.5 12.5t-15 5.5q-12 0 -21 -6t-16 -14.5t-11.5 -18
t-6.5 -17.5q-4 -18 0.5 -32t14.5 -23t22.5 -13.5t25.5 -4.5q30 0 53 17.5t39.5 41t26.5 46.5t12 34q1 5 1.5 8.5t0.5 6.5h166q-10 -14 -19.5 -31t-20.5 -38q53 12 104 37l12 20l124 -16q-7 -6 -22.5 -24.5t-33 -46t-34.5 -63.5t-25 -77q-8 -34 -6.5 -65.5t7.5 -58t15 -46.5
t18 -31l-84 4q-26 2 -51.5 3.5t-51.5 3.5q2 56 20 138q9 35 19.5 68t23.5 62q-28 -23 -89 -40zM109 559l65 63h780l-65 -63h-780z" />
    <glyph glyph-name="bh_lo_bn" horiz-adv-x="516" 
d="M344 97q-65 -24 -127 -24q-33 0 -66 4.5t-59.5 11t-45 13t-23.5 10.5l75 203q1 -7 11 -24.5t30 -36t51.5 -32.5t77.5 -14q19 0 41 5.5t41.5 16t36 24t24.5 30.5l4 18q-50 -27 -112 -27q-33 0 -60.5 10.5t-46.5 30t-26.5 47t-0.5 62.5q5 24 18.5 47t33.5 41t45 29t53 11
q25 0 43.5 -10.5t30.5 -27t16.5 -35.5t0.5 -37l-2 -7l-87 -26q19 25 22 39q2 9 -1.5 20t-20.5 11q-12 0 -27 -8l-3 -1q-20 -14 -24 -35q-6 -28 14 -43t47 -15q24 0 42.5 7.5t31 19t20.5 26t11 28.5q5 24 -9 38l144 8q15 -86 0 -157q-18 -85 -69 -147l-85 -398h-133l31 143
h-6q-23 0 -37.5 -19t-18.5 -39q-30 -2 -61 -6l2 10q6 30 -6 51.5t-38 21.5q-25 0 -46 -15t-27 -42q-1 -9 -0.5 -18t3.5 -16l1 -1q-1 -4 6.5 -7.5t11.5 -3.5q8 0 13.5 5.5t9 12.5t5.5 13t2 7q2 10 0 27l7 -2l44 -26q-1 -1 -7 -16t-18.5 -32.5t-32.5 -32t-47 -14.5
q-25 0 -40 10.5t-22.5 27t-8 37t3.5 40.5q11 46 34 73.5t47.5 41.5t45 18.5t25.5 4.5q37 0 60.5 -14.5t32.5 -28.5q34 28 68 28q4 0 7 -0.5t7 -0.5zM656 559h-554l73 63h552z" />
    <glyph glyph-name="m_no_bn" horiz-adv-x="538" 
d="M457 447l24 112h-140q7 -11 19 -51l4 -40q56 -5 93 -21zM183 -106q-33 0 -55 12.5t-34.5 31.5t-15.5 42t1 43q8 37 30.5 64.5t54 46.5t67 28.5t68.5 9.5q49 0 95 -22l37 173q-27 26 -89 34l-9 1q-41 0 -73 -13.5t-37 -36.5q-3 -15 4 -28t36 -13q19 0 28.5 9.5t10.5 17.5
q4 15 -4 40l87 -31q-5 -26 -22 -46t-39.5 -34.5t-48.5 -23t-51 -9.5q-36 1 -64 11t-45.5 27.5t-24 41.5t-0.5 51q5 22 18.5 43t32.5 38.5t43.5 30.5t50.5 19l3 7q11 56 -54 100h-87l78 63h564l-76 -63h-42l-140 -660h-140l23 110q-32 45 -91 45q-11 0 -25.5 -3.5t-28.5 -9.5
t-24 -14.5t-12 -18.5q-3 -14 8.5 -27t34.5 -13t27 20q3 12 -17 44l89 -13q0 -10 -2 -18q-4 -20 -15 -39.5t-29 -34.5t-42 -24t-54 -9z" />
    <glyph glyph-name="m_pho_bn" horiz-adv-x="1061" 
d="M1281 622l-62 -63h-598l-24 -114q23 -30 40 -48t27.5 -31.5t14 -25t-0.5 -28.5q-11 -55 -100 -116q-2 0 -4 -1q-39 -29 -65 -42q56 21 110 21q46 0 82 -11l67 316q85 43 157 43q25 0 49 -4t46.5 -15t41.5 -30t33 -49q24 -49 11 -110q-14 -63 -52.5 -105.5t-99.5 -42.5
l-20 1q-4 2 -17 7t-26 18q-25 32 -16 78q5 24 21 53l63 -17q-9 -14 -12 -27q-6 -32 21 -32q19 0 32.5 15.5t18.5 38.5q4 17 -1 31t-16.5 24.5t-27 16.5t-32.5 6q-28 0 -58 -13l-78 -366h-140l4 18q-31 5 -59 7.5t-54 2.5q-69 0 -118 -15l-73 204q62 27 102 50
q-6 15 -15.5 30.5t-25.5 29t-39 22t-56 8.5q-9 0 -26 -2t-34.5 -7t-31.5 -15t-18 -26q-1 -5 -1.5 -11.5t3.5 -13t12 -11t25 -4.5q15 0 23.5 5t12.5 10t5 9v3q4 15 -4 40l87 -31q-2 -9 -11 -27t-28 -36.5t-48.5 -33.5t-73.5 -16q-45 2 -71 14.5t-32 17.5q-22 20 -29.5 45
t-1.5 52q4 22 18 43.5t33 39.5t43.5 31t50.5 19q0 1 1 2.5t1 3.5q7 29 -7.5 54t-45.5 47h-87l78 63h1106zM457 447l24 112h-140q7 -11 19 -51l4 -40q56 -5 93 -21z" />
    <glyph glyph-name="m_bo_bn" horiz-adv-x="538" 
d="M485 -78h-140l8 38q-15 13 -34.5 24t-40.5 18.5t-41 12t-36 4.5h-9q-11 0 -17 6.5t-4 14.5q1 7 9 15l242 225l9 43q-14 13 -39.5 23.5t-59.5 10.5q-9 0 -26 -2t-34.5 -7t-31.5 -15t-18 -26q-1 -5 -1.5 -11.5t3.5 -13t12 -11t25 -4.5q15 0 23.5 5t12.5 10t5 9v3
q4 15 -4 40l87 -31q-2 -9 -11 -27t-28 -36.5t-48.5 -33.5t-73.5 -16q-45 2 -71 14.5t-32 17.5q-22 20 -29.5 45t-1.5 52q4 22 18 43.5t33 39.5t43.5 31t50.5 19q0 1 1 2.5t1 3.5q7 29 -7.5 54t-45.5 47h-87l78 63h564l-76 -63h-42zM457 447l24 112h-140q7 -11 19 -51l4 -40
q56 -5 93 -21zM368 75l10 -2l15 75l-83 -66q41 0 58 -7z" />
    <glyph glyph-name="m_b_ro_bn" horiz-adv-x="538" 
d="M466 490l15 69h-131q18 -20 22 -51q55 -3 94 -18zM376 115l10 -2l16 75l-83 -66q41 0 57 -7zM476 -124h-141l5 26q-28 10 -60 10q-24 0 -49 -8t-47 -21.5t-38.5 -30.5t-24.5 -36q-8 11 -16.5 21.5t-17.5 21.5l-54 71q20 19 46 34.5t54 27t55.5 17.5t51.5 6q59 0 119 -25
l2 11q-15 13 -34.5 23.5t-40 18t-40.5 12t-36 4.5h-9q-11 0 -17.5 6.5t-4.5 14.5q1 7 9 15l242 225l12 55q-27 22 -89 28l-10 1q-20 0 -39 -3t-34 -8.5t-24.5 -12.5t-11.5 -16q-2 -12 6 -19l5 -2q8 -5 16 -7t17 -2q17 0 26.5 7t10.5 11q2 9 -8 41l92 -28q-6 -25 -21 -44.5
t-37 -33t-48 -21t-54 -8.5q-41 1 -69 11t-45 26t-22.5 36.5t-0.5 43.5q4 21 17 40t32.5 35t43.5 27.5t50 16.5q0 34 -60 65h-97l88 63h572l-86 -63h-41z" />
    <glyph glyph-name="m_bho_bn" horiz-adv-x="691" 
d="M564 294q8 -20 8 -35.5t-1 -17.5l-30 -11q-11 -2 -21 -5.5t-20 -7.5q11 17 13 29q1 2 1.5 7.5t-0.5 11.5t-4.5 10.5t-12.5 4.5q-11 0 -21 -6l-4 -3q-10 -6 -15.5 -15.5t-7.5 -20.5q-3 -13 1 -23t12 -17t18.5 -10.5t22.5 -3.5q25 0 41 9t26 21.5t14 25t5 19.5
q3 13 2.5 22.5t-0.5 10.5l115 5q6 -40 4 -75.5t-9 -66.5q-9 -43 -25.5 -74t-34.5 -52t-36 -34.5t-29 -20.5q-46 -29 -86.5 -41t-83.5 -12q-34 0 -63.5 4.5t-51 10.5t-34.5 11t-14 7q14 42 29 86.5t33 89.5q2 -6 10 -22.5t24.5 -33t42 -29.5t61.5 -13q12 0 32.5 4t50.5 20
q45 34 59 73q-25 -17 -53.5 -23.5t-63.5 -6.5q-7 1 -27 6t-39 19.5t-30.5 41.5t-1.5 72q5 23 18 42t30 33l11 6l2 7q-14 13 -39.5 23.5t-59.5 10.5q-9 0 -26 -2t-34.5 -7t-31.5 -15t-18 -26q-1 -5 -1.5 -11.5t3.5 -13t12 -11t25 -4.5q15 0 23.5 5t12.5 10t5 9v3q4 15 -4 40
l87 -31q-2 -9 -11 -27t-28 -36.5t-48.5 -33.5t-73.5 -16q-45 2 -71 14.5t-32 17.5q-22 20 -29.5 45t-1.5 52q4 22 18 43.5t33 39.5t43.5 31t50.5 19q0 1 1 2.5t1 3.5q7 29 -7.5 54t-45.5 47h-87l78 63h721l-76 -63h-199zM457 447l24 112h-140q7 -11 19 -51l4 -40
q56 -5 93 -21z" />
    <glyph glyph-name="m_bh_ro_bn" horiz-adv-x="713" 
d="M570 322q10 -12 14 -26t5.5 -25.5t1 -20t-0.5 -10.5l-77 -27q13 21 16 36q2 10 1 18q-1 7 -4.5 12.5t-12.5 5.5q-11 0 -20.5 -5t-16 -12.5t-10.5 -15.5t-5 -14q-4 -16 0 -29t12 -22t19.5 -13.5t24.5 -4.5q34 0 65 36.5t44 94.5l3 13q17 0 32.5 -1.5t32.5 -0.5l65 2
q-21 -35 -43.5 -87.5t-36.5 -116.5q-22 -132 -6 -197q-17 -1 -34 -1h-33l-67 -3l2 27q-36 14 -68 14q-25 0 -49.5 -9t-45.5 -23.5t-37.5 -33t-24.5 -38.5q-20 34 -39 61t-36 59q16 18 39.5 33.5t49.5 27t52.5 18t49.5 6.5q35 0 66 -7.5t53 -18.5q3 16 6 31l7 33
q-41 -17 -76 -17q-2 0 -5 0.5t-6 0.5q-10 0 -31 5.5t-41 22.5t-31 48.5t0 83.5q6 26 20.5 48t35.5 39l1 4q-14 13 -39.5 23.5t-59.5 10.5q-9 0 -26 -2t-34.5 -7t-31.5 -15t-18 -26q-1 -5 -1.5 -11.5t3.5 -13t12 -11t25 -4.5q15 0 23.5 5t12.5 10t5 9v3q4 15 -4 40l87 -31
q-2 -9 -11 -27t-28 -36.5t-48.5 -33.5t-73.5 -16q-45 2 -71 14.5t-32 17.5q-22 20 -29.5 45t-1.5 52q4 22 18 43.5t33 39.5t43.5 31t50.5 19q0 1 1 2.5t1 3.5q7 29 -7.5 54t-45.5 47h-87l78 63h743l-76 -63h-221zM457 447l24 112h-140q7 -11 19 -51l4 -40q56 -5 93 -21z" />
    <glyph glyph-name="m_mo_bn" horiz-adv-x="773" 
d="M405 212l24 113q-12 20 -35.5 33.5t-55.5 13.5q-8 0 -25.5 -1.5t-36 -8.5t-34.5 -21.5t-21 -39.5q-2 -11 -1.5 -21.5t5.5 -18.5l5 -5q2 -3 11.5 -6t19.5 -3q11 0 19 7t13 16q7 10 9 23q3 15 -1 38q19 -8 40 -18.5t42 -17.5q-2 -7 -12 -28.5t-30 -44.5t-51 -42t-74 -20
q-23 1 -40.5 6.5t-30 12.5t-20 14t-10.5 10q-41 46 -26 115q6 28 21 54.5t35.5 48t45.5 38t51 24.5q0 2 1 4.5t2 5.5q3 17 2 34.5t-5 31.5h-140l74 63h792l-69 -63h-43l-144 -675h-139l36 168q-58 51 -114 51q-9 0 -27 -4t-37 -13.5t-35 -26t-22 -41.5q-4 -21 7 -41t37 -20
q12 0 21 8.5t12 20.5q6 28 -19 53q11 2 20.5 1.5t19.5 0.5l46 3q1 -2 1 -15.5t-4 -33.5q-6 -30 -21 -52.5t-35.5 -38t-43.5 -23.5t-47 -8q-33 0 -57 14.5t-37.5 38t-17 53.5t3.5 62q7 35 24.5 63t37 48t37 32.5t26.5 15.5q10 7 20 12zM620 559l-67 -313l30 -2l33 -4
q17 -2 32 -6l69 325h-97zM368 559l2 -5q4 -32 1 -52q58 -6 90 -25l18 82h-111z" />
    <glyph glyph-name="m_ro_bn" horiz-adv-x="537" 
d="M109 559l64 63h554l-62 -63h-45l-136 -639h-140l11 50q-26 6 -51 6q-29 0 -55.5 -10t-49.5 -26t-40 -35.5t-25 -37.5l-70 142q19 18 44 32.5t52.5 24.5t55 15.5t51.5 5.5q31 0 58.5 -6t49.5 -15l47 219q-14 23 -37.5 38t-55.5 15q-8 0 -25 -2t-36 -10.5t-35.5 -25
t-22.5 -45.5q-1 -8 -1.5 -19t2.5 -21.5t10.5 -18t21.5 -7.5q13 0 22.5 9t14.5 19.5t7.5 19t2.5 7.5q2 9 2 18.5t-1 20.5q20 -11 40 -20.5t41 -19.5q-1 -2 -5 -12.5t-12.5 -25.5t-22 -32.5t-31.5 -32.5t-42.5 -25t-54.5 -11q-24 0 -42 6.5t-31 14.5t-20.5 15.5t-8.5 10.5
q-39 50 -24 124q7 30 22.5 58t36.5 51.5t46 40.5t50 25q-1 55 -81 109h-43zM455 444l25 115h-165q22 -37 27 -83q78 -8 113 -32z" />
    <glyph glyph-name="m_lo_bn" horiz-adv-x="538" 
d="M477 -119h-142l34 162q-25 -4 -40.5 -22.5t-20.5 -43.5l-67 -7l2 9q7 35 -7.5 59.5t-43.5 24.5t-51.5 -17.5t-28.5 -46.5q-5 -24 3 -37.5t20 -13.5q10 0 16.5 6.5t10 14.5t5.5 14.5t2 7.5q3 12 1 29q14 -8 27.5 -15.5t28.5 -15.5q-1 -2 -8.5 -19t-22 -36.5t-37.5 -35.5
t-53 -16q-26 1 -41.5 13t-23.5 30.5t-8.5 41t3.5 44.5q13 53 39 84t53 46.5t49 20t27 4.5h1q43 0 69 -15.5t36 -31.5q39 33 83 33l37 173q-13 12 -39 22t-58 10q-9 0 -26 -2t-34.5 -7t-31.5 -15t-18 -26q-1 -5 -1.5 -11.5t3.5 -13t12 -11t25 -4.5q15 0 23.5 5t12.5 10t5 9v3
q4 15 -4 40l87 -31q-2 -9 -11 -27t-28 -36.5t-48.5 -33.5t-73.5 -16q-45 2 -71 14.5t-32 17.5q-22 20 -29.5 45t-1.5 52q4 22 18 43.5t33 39.5t43.5 31t50.5 19q0 1 1 2.5t1 3.5q7 29 -7.5 54t-45.5 47h-87l78 63h558l-66 -63h-46zM457 447l24 112h-140q7 -11 19 -51l4 -40
q56 -5 93 -21z" />
    <glyph glyph-name="z_ro_bn" horiz-adv-x="541" 
d="M208 435q-52 56 -59 124h-40l64 63h558l-62 -63h-45l-139 -655h-140l9 46q-19 4 -41 4q-30 0 -56.5 -10.5t-48.5 -26.5t-38 -35.5t-24 -38.5l-71 144q16 15 40.5 28.5t52 24t56 17t53.5 6.5q28 0 52 -5.5t45 -13.5l10 47q-25 7 -54 8.5t-55 1.5q-68 0 -121 -14
q-18 49 -36 96.5t-37 95.5q88 36 126.5 62t42.5 43q2 13 -3 19.5t-17 14.5zM413 228l71 331h-197q12 -39 43 -87l33 -42q14 -17 21.5 -30t5.5 -32q-3 -16 -13.5 -31t-24 -28.5t-29.5 -25.5t-33 -22l-2 -3q-39 -28 -63 -38q18 5 44 11q30 7 65 7q29 0 60 -6z" />
    <glyph glyph-name="l_ko_bn" horiz-adv-x="811" 
d="M561 559h-459l73 63h831l-67 -63h-247l-49 -231h10q80 0 130 -45q3 -2 11.5 -11t17 -24.5t13 -36.5t-0.5 -47q-4 -20 -15.5 -42.5t-28.5 -41.5t-39 -31.5t-48 -12.5q-3 0 -19 1t-31.5 8t-26 23.5t-4.5 46.5q6 28 32 59q12 -5 25 -10t28 -12q-20 -17 -22 -27
q-2 -8 4.5 -13.5t15.5 -5.5q19 0 32.5 12.5t16.5 28.5q5 21 -6.5 32.5t-27.5 16.5t-30 6l-13 1q-22 0 -53 -8l-41 -195h-131l5 22q-19 12 -41.5 22.5t-46.5 18t-46.5 12t-40.5 4.5q-4 0 -7.5 -0.5t-7.5 -0.5q-12 1 -19 8t-5 18q2 10 13 19l181 149q23 19 44.5 38t44.5 36
l6 32q-3 1 -11 1q-29 0 -50.5 -21t-28.5 -50l-84 -6l3 15q8 34 -10 59.5t-55 25.5q-15 0 -30 -4.5t-29 -13t-23.5 -21t-13.5 -27.5q-4 -22 7 -40l1 -1h2q1 -2 5.5 -6.5t13.5 -4.5q13 0 21 6.5t12.5 14t6.5 13.5l1 8q4 16 0 38q7 -5 15.5 -8.5t17.5 -7.5l40 -19
q-1 -4 -9.5 -24t-26.5 -42t-45 -40t-65 -18q-32 1 -52.5 14t-31 33.5t-12 46t3.5 50.5q9 39 27.5 67.5t40.5 47.5t45 30.5t42.5 17t33 7.5t16.5 2q52 0 82 -17.5t48 -36.5q46 37 95 37q6 0 12 -0.5t12 -1.5zM461 144l11 -4l14 69q-11 -8 -22.5 -16t-20.5 -15l-38 -27h9
q14 0 25.5 -2t21.5 -5z" />
    <glyph glyph-name="l_go_bn" horiz-adv-x="609" 
d="M560 559h-457l70 63h631l-68 -63h-44l-127 -595h-132l38 177q-7 8 -20.5 13.5t-32.5 5.5q-27 0 -50 -10q14 -7 25 -19.5t17.5 -27.5t8 -32.5t-1.5 -34.5q-6 -26 -17 -45t-16 -24l-150 -3q41 19 58.5 37.5t22.5 39.5q4 18 -3.5 28.5t-28.5 17.5q-24 -27 -38 -60l-54 125
q100 100 216 100q24 0 45 -6t38 -15l31 146q-4 1 -13 1q-30 0 -49.5 -21t-25.5 -50l-84 -6l3 15q7 34 -10.5 59.5t-55.5 25.5q-32 0 -61 -18.5t-35 -49.5q-5 -22 7 -38q2 0 7.5 -6t18.5 -6q11 0 18 6t11 13.5t5 13.5l3 7q3 17 -1 41q20 -11 38 -18.5t37 -18.5
q-1 -3 -10.5 -23t-27.5 -42.5t-45.5 -40.5t-63.5 -18q-34 3 -54 16.5t-30.5 34t-11 45t4.5 48.5q12 53 40.5 87t60.5 53.5t60 26.5t39 7q56 0 86 -17.5t48 -37.5q48 38 94 38q6 0 12 -0.5t12 -1.5z" />
    <glyph glyph-name="l_ddo_bn" horiz-adv-x="624" 
d="M461 559h-352l62 63h642l-60 -63h-173l-38 -177q-2 -11 3 -17t12.5 -9.5t14 -4.5t8.5 -1q16 0 27 5q4 15 4 32l78 25q0 -5 -1 -12t-3 -15q-8 -37 -28.5 -91t-56.5 -108q-5 -6 -14.5 -18t-24 -26.5t-32.5 -30t-38 -28.5q-75 -42 -152 -42q-98 0 -200 68l59 71l89 102
q14 -44 46.5 -68.5t80.5 -24.5q41 0 82 20.5t69 57.5q-22 -6 -40.5 -8.5t-32.5 -2.5q-35 0 -57.5 8t-36.5 16q11 47 17 77.5t10 44.5q-23 -3 -39.5 -23t-20.5 -42l-66 -7l2 11q8 35 -7 57t-44 22q-25 0 -47 -16.5t-28 -45.5q-1 -7 -1.5 -15.5t1.5 -16t7 -12.5t15 -5
q9 0 14.5 5.5t9.5 13t6 14t2 8.5q3 11 2 29q6 -4 11.5 -7t12.5 -6l30 -18q0 -1 -7 -17t-20.5 -35t-35 -35t-50.5 -16q-26 0 -42 11t-24.5 28.5t-9 40t4.5 45.5q12 53 38 83t52.5 45t48 19t24.5 4q42 0 66.5 -15.5t35.5 -32.5q37 33 77 33h7z" />
    <glyph glyph-name="l_po_bn" horiz-adv-x="610" 
d="M522 378q-3 0 -5 0.5t-4 0.5q-30 0 -52.5 -21.5t-28.5 -49.5l-82 -7l3 9l1 6q3 15 0.5 30t-11.5 27t-22.5 19.5t-31.5 7.5q-35 0 -64 -18t-35 -49q-1 -5 -0.5 -13.5t3.5 -17t10 -14.5t18 -6q12 0 20 6.5t13 14t6 13.5l2 6q4 17 -1 40q10 -3 19.5 -8.5t19.5 -10.5l34 -15
q-1 -5 -10 -24.5t-26.5 -41.5t-44 -39.5t-62.5 -17.5q-33 0 -54.5 13.5t-32 34.5t-12 46.5t3.5 48.5q12 52 40.5 85t60 52t59.5 26t40 7h6q49 0 81 -16.5t49 -35.5q45 36 92 36h12q6 0 12 -2l13 59h-458l69 63h632l-67 -63h-44l-126 -592h-132l16 76l-59 -35l-46 -30
q-2 5 -6.5 14t-13.5 19t-22 19t-32 14q-6 -15 -11 -39l-98 73q17 35 41.5 65.5t53.5 53t62 35.5t69 13q65 0 100 -23zM346 110q30 -22 36 -40q23 20 44 39.5t40 36.5q-5 5 -19.5 13.5t-34.5 8.5q-23 0 -45.5 -12t-43.5 -32q6 -3 23 -14z" />
    <glyph glyph-name="l_pho_bn" horiz-adv-x="1048" 
d="M1268 622l-62 -63h-626l-19 -87l79 -95q14 -16 22 -30.5t3 -34.5q-11 -55 -100 -116q-2 0 -4 -1q-39 -29 -65 -42q56 21 110 21q46 0 82 -11l67 316q85 43 157 43q25 0 49 -4t46.5 -15t41.5 -30t33 -49q24 -49 11 -110q-14 -63 -52.5 -105.5t-99.5 -42.5l-20 1
q-4 2 -17 7t-26 18q-25 32 -16 78q5 24 21 53l63 -17q-9 -14 -12 -27q-6 -32 21 -32q19 0 32.5 15.5t18.5 38.5q4 17 -1 31t-16.5 24.5t-27 16.5t-32.5 6q-28 0 -58 -13l-78 -366h-140l4 18q-31 5 -59 7.5t-54 2.5q-69 0 -118 -15l-73 204q163 72 172 113q3 13 -5 23.5
t-22 18t-34 11t-40 3.5q-10 0 -20.5 -7t-19 -17.5t-15.5 -23.5t-10 -26l-65 -8l2 12q9 41 -6.5 65.5t-44.5 24.5q-24 0 -46 -19.5t-29 -51.5q-1 -8 -2 -17.5t1 -17.5t7.5 -14t15.5 -6q9 0 14.5 7t9.5 15.5t6 16t3 8.5q2 12 1 32q6 -4 12 -7.5t12 -6.5l30 -21
q0 -1 -7.5 -19.5t-22 -40t-36 -39t-49.5 -17.5q-26 0 -42.5 12t-24 32t-8 45t5.5 52q10 40 25.5 68.5t33.5 47.5t36.5 30t33.5 16t25.5 6.5t12.5 1.5q42 0 66.5 -17.5t34.5 -36.5q38 38 79 38h6l12 56h-352l62 63h1097z" />
    <glyph glyph-name="l_bo_bn" horiz-adv-x="610" 
d="M468 119l17 80q-24 -18 -50 -35t-50 -35q53 0 76 -7zM566 -36h-131l7 29q-20 15 -45 27t-52 20.5t-52.5 13t-45.5 4.5l-18 -1q-14 1 -21 8t-4 18q2 12 130 115l183 153l5 27l-9 1q-29 0 -51.5 -21t-29.5 -50q-18 -2 -38.5 -3.5t-43.5 -3.5l3 9l1 6q3 15 0 30t-11.5 27
t-22 19.5t-31.5 7.5q-34 0 -62.5 -17t-35.5 -49l-3 -12q0 -2 1 -8t5 -13t11 -12.5t18 -5.5q8 0 15 4.5t12 11t8.5 13t3.5 10.5q4 17 -1 40q10 -3 19.5 -8.5t19.5 -10.5l34 -15q-5 -23 -19.5 -45t-34 -39t-43 -28t-46.5 -11q-30 0 -51 12.5t-32.5 32.5t-14.5 45t2 50l7 32
q5 19 23.5 43.5t45.5 46.5t60 36.5t67 14.5h9q81 0 125 -52q45 36 92 36q6 0 11.5 -0.5t12.5 -1.5l13 59h-452l63 63h627l-61 -63h-45z" />
    <glyph glyph-name="l_bho_bn" horiz-adv-x="763" 
d="M522 378l-9 1q-29 0 -51.5 -21t-29.5 -50q-18 -2 -38.5 -3.5t-43.5 -3.5l3 9l1 6q3 15 0 30t-11.5 27t-22 19.5t-31.5 7.5q-34 0 -62.5 -17t-35.5 -49l-3 -12q0 -2 1 -8t5 -13t11 -12.5t18 -5.5q8 0 15 4.5t12 11t8.5 13t3.5 10.5q4 17 -1 40q10 -3 19.5 -8.5t19.5 -10.5
l34 -15q-5 -23 -19.5 -45t-34 -39t-43 -28t-46.5 -11q-30 0 -51 12.5t-32.5 32.5t-14.5 45t2 50l7 32q5 19 23.5 43.5t45.5 46.5t60 36.5t67 14.5h9q81 0 125 -52q45 36 92 36q12 0 25 -3l13 60h-453l63 63h774l-61 -63h-192l-48 -223q8 -20 8 -35.5t-1 -17.5l-30 -11
q-11 -2 -21 -5.5t-20 -7.5q11 17 13 29q1 2 1.5 7.5t-0.5 11.5t-5 10.5t-13 4.5q-11 0 -20 -6l-4 -3q-10 -6 -15.5 -15.5t-7.5 -20.5q-3 -13 1 -23t12 -17t18.5 -10.5t22.5 -3.5q25 0 41 9t26 21.5t14 25t5 19.5q3 13 2.5 22.5t-0.5 10.5l115 5q6 -40 4 -75.5t-9 -66.5
q-9 -44 -25 -74.5t-34.5 -51.5t-36.5 -34t-29 -21l-12 -8q-1 -1 -2 -1l-4 -3q-42 -23 -79.5 -32t-77.5 -9q-32 0 -60 4.5t-49 10.5t-34.5 11t-14.5 7q13 42 28.5 86.5t33.5 89.5q2 -6 10 -22.5t24.5 -33t42 -29.5t61.5 -13q12 0 32.5 4t50.5 20q45 34 59 73
q-25 -17 -53.5 -23.5t-63.5 -6.5q-7 1 -27 6t-39 19.5t-30.5 41.5t-1.5 72q3 13 9.5 27t16 26t20.5 21t22 12z" />
    <glyph glyph-name="l_mo_bn" horiz-adv-x="847" 
d="M790 559h-97l-46 -215h10q46 0 85 -11zM560 559h-451l63 63h865l-62 -63h-45l-124 -583h-140l38 177q-58 50 -113 50q-10 0 -27.5 -4t-35.5 -14t-33 -25.5t-21 -39.5q-4 -21 7 -41t36 -20q13 0 21.5 8t11.5 21q6 28 -17 53q10 1 19 1.5t17 0.5l47 3q2 -2 2 -16.5
t-4 -34.5q-7 -33 -24 -56t-38.5 -37t-43.5 -20t-40 -6q-33 0 -56 14.5t-36.5 37.5t-17 53t2.5 62q7 33 24.5 60t36.5 47t36.5 32.5t25.5 17.5q6 4 12 7.5t12 6.5l13 64l-8 1q-29 0 -51.5 -21t-29.5 -50q-18 -2 -38.5 -3.5t-43.5 -3.5l3 9l1 6q3 15 0 30t-11.5 27t-22 19.5
t-31.5 7.5q-34 0 -62.5 -17t-35.5 -49l-3 -12q0 -2 1 -8t5 -13t11 -12.5t18 -5.5q8 0 15 4.5t12 11t8.5 13t3.5 10.5q4 17 -1 40q10 -3 19.5 -8.5t19.5 -10.5l34 -15q-5 -23 -19.5 -45t-34 -39t-43 -28t-46.5 -11q-30 0 -51 12.5t-32.5 32.5t-14.5 45t2 50l7 32
q5 19 23.5 43.5t45.5 46.5t60 36.5t67 14.5h9q81 0 125 -52q45 36 92 36q6 0 11.5 -0.5t11.5 -1.5z" />
    <glyph glyph-name="l_ro_bn" horiz-adv-x="610" 
d="M574 0h-133l7 34q-38 15 -73 15q-27 0 -53 -9.5t-48 -25t-39.5 -35t-25.5 -40.5l-81 128q20 19 44.5 35.5t52.5 29t56 19.5t54 7q42 0 76 -10t57 -23l46 220q-3 1 -10 1q-29 0 -51.5 -24.5t-28.5 -55.5l-23 -3q-16 -2 -31 -3.5t-32 -3.5l3 14q10 45 -7.5 74t-55.5 29
q-15 0 -30 -5.5t-28.5 -16t-23.5 -26t-14 -34.5q-2 -9 -3 -20t1.5 -20.5t9 -16.5t20.5 -7q11 0 19.5 8.5t12.5 19.5q6 12 9 29q2 8 2.5 16.5t0.5 18.5q7 -5 15 -10l15 -8l37 -22q0 -2 -9 -23t-27 -46t-45.5 -45t-65.5 -20q-34 3 -54 18.5t-29 38.5t-9.5 51t4.5 55
q11 43 29 74t39 52.5t43.5 34.5t42.5 20t35 9.5t20 2.5h1q52 0 83 -19.5t47 -41.5q47 44 94 44q12 0 23 -3l17 78h-451l64 63h627l-62 -63h-45z" />
    <glyph glyph-name="l_lo_bn" horiz-adv-x="561" 
d="M512 -61h-131l33 153q-21 -4 -35.5 -21t-19.5 -42l-60 -6l3 12q7 29 -4.5 52.5t-38.5 23.5t-47 -16.5t-27 -45.5q-3 -17 1 -32.5t18 -15.5q11 0 19.5 12t12.5 27q2 12 1 30l49 -31l-7 -19q-5 -15 -15 -29.5t-23 -26t-28.5 -18.5t-31.5 -7q-22 0 -36.5 9.5t-22.5 26
t-9.5 38t3.5 44.5l6 29q5 18 19.5 39.5t35 40.5t44.5 31.5t47 12.5q2 0 3 1q62 0 91 -48q34 33 74 33l40 189l-9 1q-28 0 -47.5 -22t-26.5 -53l-73 -4q10 48 -6.5 74t-48.5 26q-70 0 -89 -85q0 -4 1 -11t4 -14t9 -12t15 -5q14 0 24 16.5t13 31.5q2 13 1 31l61 -35
q-5 -22 -18.5 -42.5t-30 -36t-34.5 -26t-30 -11.5q-4 -1 -9 -1h-11q-25 1 -42 13t-26.5 31t-11 44t4.5 51l7 33q5 19 20.5 44t40.5 47t56 37t66 15q70 0 109 -54q41 37 82 37q12 0 24 -3l12 57h-404l63 63h576l-59 -63h-45z" />
    </font>
</defs>
</svg>
