<?xml version="1.0" standalone="no"?>
<!DOCTYPE svg PUBLIC "-//W3C//DTD SVG 1.1//EN" "http://www.w3.org/Graphics/SVG/1.1/DTD/svg11.dtd" >
<svg xmlns="http://www.w3.org/2000/svg" xmlns:xlink="http://www.w3.org/1999/xlink" version="1.1">
<metadata>
Created by FontForge 20170731 at Sat Apr  9 15:07:42 2022
 By Aleksey,,,
Copyright 2022 Lipighor. All Rights Reserved.
</metadata>
<defs>
<font id="LiShamimCholontikaOld" horiz-adv-x="0" >
  <font-face 
    font-family="Li Shamim Cholontika Old"
    font-weight="400"
    font-stretch="normal"
    units-per-em="1000"
    panose-1="2 0 6 0 0 0 0 0 0 0"
    ascent="800"
    descent="-200"
    x-height="503"
    cap-height="644"
    bbox="-662 -394 1462 1080"
    underline-thickness="40"
    underline-position="-160"
    unicode-range="U+0020-FDFA"
  />
<missing-glyph horiz-adv-x="599" 
d="M397 440h-61l-155 -54v-316h216v139h-77v-67h-58v198l58 19v-88h77v68l60 20v-200l16 -89h66v370h-64l-78 -26v26zM463 511v-44h76v120h-266l-213 -62v-455h86v397l94 30zM599 10h-599v637h599v-637z" />
    <glyph glyph-name="anji_beng" unicode="&#x9ed;&#x983;&#x983;" horiz-adv-x="604" 
d="M325 218q-11 -1 -23 -1q-54 0 -102 16t-83.5 44t-56 65.5t-20.5 80.5t21 80.5t56.5 65.5t83 44t101.5 16q53 0 101 -16t84 -44t57 -65.5t21 -80.5v-10q0 -6 -1 -9v-320q0 -26 47 -26v-105h-23q-22 0 -47.5 6t-47.5 21.5t-38 41.5t-19 66v335q0 20 -15.5 37.5t-32 30
t-39 20t-47.5 7.5q-24 0 -45.5 -7t-38.5 -20t-27 -30t-10 -38q0 -20 10 -37.5t26.5 -30t38.5 -20t46 -7.5q25 0 47.5 7.5t39.5 20.5q4 3 8 7z" />
    <glyph glyph-name="glyph112" unicode="&#x3c;&#x3c;" horiz-adv-x="410" 
d="M320 507q-68 -36 -141 -36q-67 0 -139 29l77 177q16 -54 34.5 -87t42.5 -51t54.5 -24.5t71.5 -7.5zM420 622v-87h-20q-20 -2 -38 -3t-35 -1q-85 0 -131.5 45.5t-46.5 130.5q0 32 14 57.5t36.5 43.5t51.5 27.5t59 9.5q46 0 78.5 -24.5t32.5 -74.5q0 -34 -26 -60t-66 -26
q-35 0 -54.5 15t-19.5 48q0 23 9 53q-46 -19 -46 -58q0 -48 39 -72t111 -24h52z" />
    <glyph glyph-name="glyph113" unicode="&#x3e;&#x3e;" horiz-adv-x="410" 
d="M90 507q40 1 70.5 8t54.5 25t43 51t35 86l77 -177q-36 -15 -71 -22t-68 -7q-74 0 -141 36zM-10 622h52q72 0 111 24.5t39 72.5q0 38 -46 57q9 -30 9 -53q0 -33 -19.5 -48t-55.5 -15q-19 0 -35.5 7t-29 18.5t-19.5 27t-7 32.5q0 25 9 44t24.5 31.5t35.5 18.5t41 6
q30 0 59.5 -9.5t52 -27.5t36.5 -43.5t14 -56.5q0 -38 -11.5 -70.5t-34 -56t-56 -37t-76.5 -13.5q-17 0 -35 1t-38 3h-20v87z" />
    <glyph glyph-name="signavagraha_beng" unicode="&#x9b9;&#x983;&#x983;" horiz-adv-x="561" 
d="M-10 622h313v-87h-313v87zM508 -46l-476 121l-33 140h1q4 0 5 -1l16 -3q13 -3 31.5 -6.5t38.5 -6.5t39.5 -4.5t34.5 -1.5q14 0 15 1h3q2 1 7 1t12 1h1q22 2 55 8.5t64 21.5t53.5 40.5t23.5 65.5q-1 17 -11 28t-24 17t-31 8t-32 2q-7 0 -13.5 -0.5t-11.5 -0.5l-14 -2
q25 -19 25 -47q0 -15 -7 -33t-21 -33.5t-35.5 -26t-49.5 -10.5q-25 0 -49 8t-43.5 24.5t-31.5 41t-12 57.5q0 38 19.5 67.5t52 50t75.5 31t91 10.5q51 0 98.5 -12.5t85 -38.5t60 -66.5t22.5 -97.5q0 -38 -14 -68.5t-36.5 -54t-51.5 -40t-59 -26.5l178 -43z" />
    <glyph glyph-name="isshar_beng" unicode="&#x988;&#x983;&#x983;" horiz-adv-x="562" 
d="M220 502q-26 0 -43 17.5t-17 41.5q0 25 17 43t43 18q25 0 42 -18t17 -43q0 -24 -17 -41.5t-42 -17.5zM206 379q-35 0 -65 13.5t-52.5 36.5t-35.5 53.5t-13 65.5v6h94q7 -76 72 -76q93 0 241 199h102q-204 -298 -343 -298z" />
    <glyph glyph-name="sallallahoualayhewasallam_arab.isol" unicode="&#x9b8;&#x9be;&#x983;&#x983;" horiz-adv-x="1499" arabic-form="isolated" 
d="M936 -112q-20 0 -31.5 15.5t-11.5 37.5q0 20 13 37t45 17q13 0 22.5 -6t17.5 -14q10 15 29 15q6 0 18 -5v64q-3 12 -19 15q-6 0 -11 -5l4 -6l-29 -20l-5 10q-5 10 -13 19t-29 12q-21 0 -21 -24v-2q9 10 22 10q14 0 21.5 -10t7.5 -19q0 -13 -11.5 -23t-28.5 -10
q-21 0 -34 16.5t-13 40.5q0 22 14.5 40t48.5 18q13 0 24 -6t20 -15q12 16 30 16q11 0 22 -6v15h-181v-217h-44v217h-46v-171h-45v31l-40 28q-10 -19 -23.5 -30t-23.5 -16l-10 -5l-39 32q18 11 30 19.5t19.5 17.5t10.5 19t3 24q0 28 -24 51h-91v-214h-44v214h-47v-171h-42v4
q-9 12 -17 17q0 13 -8.5 21.5t-21.5 8.5q-16 0 -25 -13h-3q-5 0 -10 -0.5t-10 -1.5l-8 -1l-20 29l39 38q5 5 5 10q-3 18 -16.5 31t-24.5 21l-10 7h-10v27h229v218h-39v-171h-44v5l-37 26q-22 -31 -76 -31q-29 0 -47.5 9.5t-29 22t-15 26.5t-5.5 23l-1 70h44l1 -64
q0 -5 2.5 -13t8.5 -15.5t16.5 -13t25.5 -5.5q44 0 44 25v5q-8 -9 -21 -9t-27.5 10.5t-14.5 32.5q0 17 12.5 32t41.5 15h12q21 -3 33.5 -23.5t12.5 -45.5v-8l20 -15v112h-367v27h450v294h-38v-171h-45v31l-40 28q-11 -19 -24 -30t-24 -16l-10 -5l-38 32q18 11 30 19.5
t19.5 17.5t10.5 19t3 24q0 28 -24 51h-270v27h1418v-27h-282v-171h-44v171h-32v-217h-44v43q-5 9 -16 9q-7 0 -11 -3l4 -6l-27 -19l-5 9q-5 8 -12.5 18.5t-25.5 10.5q-20 0 -20 -21v-3q9 10 21 10q13 0 19.5 -9.5t6.5 -17.5q0 -11 -9 -21t-23 -10h-4l-13 1q-14 5 -22.5 19.5
t-8.5 32.5q0 20 13.5 36.5t45.5 16.5q12 0 22 -5.5t18 -13.5q10 15 28 15q6 0 19 -5v64q-5 15 -19 15q-4 0 -12 -5l4 -6l-29 -20l-5 10q-5 9 -13 18.5t-29 12.5q-9 0 -15 -6t-6 -17v-3q10 10 23 10t20.5 -10t7.5 -19q0 -13 -11 -23t-28 -10q-22 0 -35 16t-13 41
q0 22 14.5 40t48.5 18q14 0 25 -6t19 -15q12 16 31 16q10 0 22 -6v15h-199v-290h172v4q0 9 -6 15.5t-18 6.5q-8 0 -18.5 -2.5t-22 -6t-22.5 -6t-19 -2.5q-22 0 -32 3l-8 44q20 -7 41 -7q27 0 49 6.5t38 6.5q31 0 46 -15t15 -41v-6h32l-9 17l5 10q4 7 11.5 17.5t19 20
t26.5 16.5t35 7q18 0 34.5 -6.5t31 -17t27 -23t23.5 -24.5l-6 -7l-15 9q-16 9 -39 19.5t-49 10.5h-7q-9 -1 -18 -5.5t-16.5 -10.5t-12 -11.5t-4.5 -8.5l8 -13h309v-28h-303v-221h307v-27h-91v-170h-45q0 38 -11.5 53.5t-29.5 19.5q4 -7 4 -17q0 -17 -14.5 -29.5t-33.5 -12.5
q-22 0 -35.5 15t-13.5 33q0 19 15 33t38 20q0 15 -9 30t-33 25h-48v-214h-44v214h-28v-217h-45v43q-4 10 -15 10q-7 0 -11 -4l4 -6l-27 -19l-5 9q-5 9 -12 18t-27 11q-19 0 -19 -22v-2q9 10 21 10t19 -9.5t7 -17.5q0 -12 -10.5 -21.5t-26.5 -9.5zM1111 142v221h-254v-221
h254zM813 387v294h-36v-217h-45v43q-5 9 -16 9q-6 0 -10 -3l4 -6l-27 -19l-5 9q-5 8 -12.5 18.5t-25.5 10.5q-20 0 -20 -22v-2q9 10 21 10t19 -9.5t7 -18.5q0 -11 -9.5 -20.5t-23.5 -9.5h-4l-13 1q-14 5 -22.5 19.5t-8.5 32.5q0 20 13.5 36.5t45.5 16.5q12 0 22 -5.5
t18 -13.5q10 15 29 15q5 0 18 -5v64q-5 15 -19 15q-6 0 -11 -5l4 -6l-29 -20l-6 10q-5 9 -12.5 18.5t-28.5 12.5q-21 0 -21 -24v-2q9 10 22 10q14 0 21.5 -10t7.5 -19q0 -13 -11.5 -23t-28.5 -10q-21 0 -34 16.5t-13 40.5q0 22 14.5 40t48.5 18q13 0 24 -6t20 -15
q12 16 30 16q11 0 22 -6v15h-198v-294h279zM813 142v218h-39v-171h-45v96q-5 15 -19 15q-7 0 -11 -4l4 -6l-29 -20l-6 10q-5 10 -12.5 19t-28.5 12q-22 0 -22 -24l1 -2q9 10 22 10q14 0 21.5 -10t7.5 -19q0 -13 -11.5 -23t-28.5 -10q-21 0 -34 16.5t-13 40.5q0 22 14.5 40
t48.5 18q13 0 24 -6t19 -15q13 16 31 16q12 0 22 -7v24h-195v-218h279zM1445 454l-173 44l-11 45l6 -1q28 -6 50 -6q14 1 28 7t25.5 14t19 19t7.5 23q0 8 -3.5 16t-17.5 13q-7 0 -20 -10l-35 -25l-7 11q-5 8 -13 20t-28 12q-22 0 -22 -24v-1q10 10 23 10q14 0 21.5 -10.5
t7.5 -19.5q0 -13 -11.5 -24t-29.5 -11q-19 0 -35 17.5t-16 43.5q0 22 15.5 40.5t52.5 18.5q29 -3 47 -27q7 10 21 17t29 7q31 0 48 -23t17 -47v-5l-1 -20q-10 -43 -67 -63l89 -21zM166 -57q-30 0 -53.5 11.5t-39.5 31t-24.5 44.5t-8.5 53l1 22h42v-8q0 -39 10 -62t24.5 -35
t29.5 -15t26 -3q10 0 19 4.5t9 22.5q-2 -4 -9 -7t-16 -3q-10 0 -20.5 7.5t-10.5 21.5q0 12 8 16.5t17.5 9t17.5 11.5t8 23q0 10 -6 12.5t-11 2.5q8 -5 8 -15t-9.5 -20.5t-28.5 -10.5q-14 0 -26.5 8.5t-12.5 27.5l2 12q4 18 21.5 27.5t39.5 9.5q24 0 45 -13.5t21 -43.5
q0 -28 -20 -45q20 -20 20 -44q0 -20 -17.5 -36.5t-55.5 -16.5zM1072 171l-172 39l-10 49l19 -3q13 -4 36 -4q2 0 13.5 1t25 5.5t24 13t10.5 24.5q-2 18 -32 18h-12q8 -6 8 -16t-9.5 -21.5t-26.5 -11.5q-16 0 -30 10.5t-14 31.5l1 9q4 21 26 32t50 11q15 0 30.5 -4t27.5 -12
t19.5 -20.5t7.5 -30.5q-5 -56 -59 -66l84 -20zM1363 171l-172 43l-11 45l20 -3q13 -4 36 -4q2 0 13.5 1t25 5.5t24 13t10.5 24.5q-2 18 -32 18h-12q8 -6 8 -16t-9.5 -21.5t-26.5 -11.5q-15 0 -29.5 10.5t-14.5 31.5l1 9q4 21 26 32t50 11q15 0 30.5 -4t28 -12t20 -20.5
t7.5 -30.5q-4 -49 -53 -63l77 -19zM407 -3v118h-65q7 -8 12.5 -17.5t8.5 -16.5l5 -10q1 -2 2 -6t1 -9q0 -8 -5 -16l-17 -20h4q29 0 54 -23zM407 595v86h-42q15 -29 15 -56v-11zM1326 43v72h-50q17 -23 17 -51v-3q18 -5 33 -18zM722 29v86h-41q15 -29 15 -55l-1 -11zM354 -55
q-8 0 -14 6t-6 14t6 13.5t14 5.5q19 0 19 -19q0 -8 -5.5 -14t-13.5 -6z" />
    <glyph glyph-name="zophola_bn" unicode="&#x9cd;&#x9af;" horiz-adv-x="247" 
d="M213 535q-16 -48 -21.5 -84.5t-5.5 -66.5q0 -32 6 -63t16 -62l33 -107q14 -42 20.5 -67.5t6.5 -36.5q-8 -48 -27 -81t-44.5 -53t-55.5 -29.5t-58 -10.5l-12 165q35 18 35 65q0 28 -11.5 63.5t-32.5 83.5q-33 72 -33 127q0 47 15 85.5t24 71.5h-78v87h267v-87h-44z" />
    <glyph glyph-name=".notdef" horiz-adv-x="599" 
d="M397 440h-61l-155 -54v-316h216v139h-77v-67h-58v198l58 19v-88h77v68l60 20v-200l16 -89h66v370h-64l-78 -26v26zM463 511v-44h76v120h-266l-213 -62v-455h86v397l94 30zM599 10h-599v637h599v-637z" />
    <glyph glyph-name=".null" 
 />
    <glyph glyph-name="nonmarkingreturn" 
 />
    <glyph glyph-name="NULL" 
 />
    <glyph glyph-name="NULL" 
 />
    <glyph glyph-name="space" unicode=" " horiz-adv-x="320" 
 />
    <glyph glyph-name="space" unicode="&#xa0;" horiz-adv-x="320" 
 />
    <glyph glyph-name="exclam" unicode="!" horiz-adv-x="316" 
d="M107 183v445l126 -32v-446zM245 42q0 -32 -22 -54t-53 -22q-32 0 -54 22t-22 54q0 31 22 53t54 22q31 0 53 -22t22 -53z" />
    <glyph glyph-name="quotedbl" unicode="&#x22;" horiz-adv-x="496" 
d="M78 705q19 10 41 10q18 0 36.5 -8t34 -22.5t25.5 -34t10 -41.5q0 -72 -109 -159q-75 153 -75 194q0 20 11 35.5t26 25.5zM292 705q19 10 41 10q18 0 36.5 -8t34 -22.5t25.5 -34t10 -41.5q0 -72 -109 -159q-75 153 -75 194q0 20 11 35.5t26 25.5z" />
    <glyph glyph-name="numbersign" unicode="#" horiz-adv-x="674" 
d="M101 74l16 67h-93l32 126h91l20 80h-92l32 126h90l26 105l118 -32l-18 -73h96l26 105l118 -32l-18 -73h96l-33 -126h-93l-19 -80h94l-33 -126h-91l-24 -100l-119 33l16 67h-95l-24 -100zM274 267h95l20 80h-96z" />
    <glyph glyph-name="dollar" unicode="$" horiz-adv-x="535" 
d="M500 181q0 -40 -16 -72t-40.5 -55t-53 -36.5t-52.5 -16.5v-102h-143v94q-3 0 -17.5 1.5t-37 6t-50.5 13t-58 22.5v162q75 -33 115 -44.5t48 -13.5v107q-32 9 -60 25.5t-49.5 40t-34 54t-12.5 68.5q0 30 10 55.5t26.5 45.5t37.5 35t44 24q37 14 38 14v81h143v-77
q8 0 48 -10.5t115 -38.5l-55 -138q-98 39 -108 39v-101q36 -12 66 -28t51 -38t33 -51t12 -66zM200 437q0 6 6 12.5t6 7.5q0 2 -5 2q-10 0 -12 -1v-44q12 -6 15 -6l1 1q0 2 -5.5 11t-5.5 17zM338 200l-5 1q-1 1 -3 1l-2 -1q0 -2 6 -9l4 -5v13z" />
    <glyph glyph-name="percent" unicode="%" horiz-adv-x="748" 
d="M197 655q32 0 60 -12t49 -33t33 -49t12 -60t-12 -60t-33 -49t-49 -33.5t-60 -12.5t-60 12.5t-49 33.5t-33.5 49t-12.5 60t12.5 60t33.5 49t49 33t60 12zM197 454q19 0 32.5 13.5t13.5 33.5q0 19 -13.5 32.5t-32.5 13.5q-20 0 -33.5 -13.5t-13.5 -32.5q0 -20 13.5 -33.5
t33.5 -13.5zM553 286q31 0 59.5 -12.5t49.5 -33.5t33.5 -49t12.5 -59t-12 -59t-33 -49.5t-49.5 -34t-60.5 -12.5t-60 12.5t-49 33.5t-33.5 49t-12.5 60t12.5 60t33.5 49t49 33t60 12zM553 85q19 0 33 14t14 33t-14 32.5t-33 13.5t-32.5 -13.5t-13.5 -32.5t13.5 -33t32.5 -14
zM260 -38l356 617l-131 76l-356 -617z" />
    <glyph glyph-name="ampersand" unicode="&#x26;" horiz-adv-x="650" 
d="M664 11h-203l-40 38q-68 -47 -169 -47q-106 0 -166 49t-60 134q0 45 14 79t52 65q12 10 19.5 16t9.5 7q-17 19 -31.5 52.5t-14.5 75.5q0 34 13.5 62t38 48t59 31t76.5 11q40 0 73 -10t57 -29t37 -45.5t13 -59.5q0 -54 -30.5 -96.5t-72.5 -66.5l76 -76q0 2 13.5 32
t25.5 75h164q-21 -78 -47 -130.5t-48 -79.5zM190 197q0 -26 19 -41t52 -15q42 0 59 9l-102 101q-7 -6 -17.5 -21t-10.5 -33zM293 475q0 26 -32 26q-37 0 -37 -30q0 -27 22 -52q18 10 32.5 25t14.5 31z" />
    <glyph glyph-name="quotesingle" unicode="'" horiz-adv-x="264" 
d="M78 705q19 10 41 10q18 0 36.5 -8t34 -22.5t25.5 -34t10 -41.5q0 -72 -109 -159q-75 153 -75 194q0 20 11 35.5t26 25.5z" />
    <glyph glyph-name="parenleft" unicode="(" horiz-adv-x="365" 
d="M341 -86l18 -15l-52 -74l-21 16q-253 183 -253 480q0 288 258 461l25 16l40 -80l-17 -13q-78 -60 -116 -151t-38 -223q0 -82 8 -143.5t26 -110t48 -87.5t74 -76z" />
    <glyph glyph-name="parenright" unicode=")" horiz-adv-x="365" 
d="M25 -86q44 37 74 76t48 87.5t26 110t8 143.5q0 132 -38 223t-116 151l-17 13l40 80l25 -16q258 -173 258 -461q0 -297 -253 -480l-21 -16l-52 74z" />
    <glyph glyph-name="asterisk" unicode="*" horiz-adv-x="584" 
d="M419 88l-60 70v-124l-110 30v117l-105 -97l-52 104l68 64h-120l28 115h112l-94 109l101 55l62 -73v127l110 -29v-118l105 97l51 -105l-67 -63h120l-29 -115h-113l94 -109z" />
    <glyph glyph-name="plus" unicode="+" horiz-adv-x="555" 
d="M218 109v143h-176l32 126h144v176l126 -32v-144h176l-33 -126h-143v-176z" />
    <glyph glyph-name="comma" unicode="," horiz-adv-x="260" 
d="M136 -140l-88 37q25 28 39.5 45.5t21.5 28.5t8.5 19t1.5 17q-16 1 -32 10t-29.5 23t-22 32.5t-8.5 39.5q0 30 20.5 55t58.5 25q27 0 48 -14t35.5 -35t22 -46t7.5 -47q0 -39 -16 -84.5t-67 -105.5z" />
    <glyph glyph-name="hyphenminus" unicode="-" horiz-adv-x="474" 
d="M408 252h-366l32 126h367z" />
    <glyph glyph-name="period" unicode="." horiz-adv-x="223" 
d="M193 76q0 -32 -22 -54t-53 -22q-32 0 -54 22t-22 54q0 31 22 53t54 22q31 0 53 -22t22 -53z" />
    <glyph glyph-name="slash" unicode="/" horiz-adv-x="458" 
d="M27 -12l265 716l143 -76l-265 -716z" />
    <glyph glyph-name="zero" unicode="0" horiz-adv-x="522" 
d="M490 324q0 -168 -54 -248.5t-172 -80.5q-225 0 -225 329q0 168 53.5 249t171.5 81q226 0 226 -330zM192 324q0 -57 5 -93.5t14 -58.5t22.5 -30.5t30.5 -8.5t30.5 8.5t22.5 30.5t14 59t5 93q0 55 -5 92t-14 59t-22.5 31t-30.5 9t-30 -8t-22.5 -29.5t-14.5 -58.5t-5 -95z
" />
    <glyph glyph-name="one" unicode="1" horiz-adv-x="358" 
d="M175 446l-83 -67l-84 106l201 159h118v-641h-152v443z" />
    <glyph glyph-name="two" unicode="2" horiz-adv-x="510" 
d="M243 145h234v-142h-450v113l157 159q41 45 65 71t36 44t15.5 32.5t3.5 35.5q0 54 -58 54q-14 0 -26 -1t-26.5 -7.5t-35.5 -20.5t-53 -39l-87 107q37 32 67.5 52t57.5 31t52.5 15t54.5 4q45 0 83 -13t65.5 -37t43.5 -58.5t16 -77.5q0 -36 -8.5 -66.5t-28 -62t-50.5 -66
t-76 -77.5z" />
    <glyph glyph-name="three" unicode="3" horiz-adv-x="515" 
d="M407 343q38 -21 60 -57.5t22 -85.5q0 -100 -67.5 -152.5t-188.5 -52.5q-87 0 -192 41v152q110 -56 187 -56q57 0 80 16.5t23 55.5q0 29 -25.5 44.5t-96.5 15.5h-80v137h81q108 0 108 66q0 23 -14.5 35.5t-50.5 12.5q-15 0 -27.5 -1t-27.5 -6.5t-35.5 -17t-52.5 -32.5
l-79 112q110 83 226 83q48 0 87.5 -11.5t68 -34t44 -54.5t15.5 -72q0 -43 -17.5 -79t-47.5 -59z" />
    <glyph glyph-name="four" unicode="4" horiz-adv-x="558" 
d="M302 399l-90 -132h90v132zM530 129h-77v-126h-151v126h-263v112l277 404h137v-378h77v-138z" />
    <glyph glyph-name="five" unicode="5" horiz-adv-x="502" 
d="M209 423q19 3 48 3q50 0 90.5 -14t69.5 -40.5t44.5 -64t15.5 -84.5q0 -109 -67 -168.5t-185 -59.5q-106 0 -182 43v154q38 -21 64.5 -33t46.5 -17.5t36 -7t33 -1.5q98 0 98 80q0 75 -102 75q-16 0 -41.5 -3.5t-55.5 -10.5l-69 39l27 331h356v-143h-220z" />
    <glyph glyph-name="six" unicode="6" horiz-adv-x="510" 
d="M269 132q33 0 51 21t18 69q0 39 -15.5 58t-51.5 19t-57.5 -21t-21.5 -43q0 -48 22 -75.5t55 -27.5zM194 408l6 3q40 22 94 22q46 0 82.5 -15t61.5 -43t38 -66.5t13 -85.5q0 -53 -15.5 -95t-44 -71.5t-69 -45.5t-89.5 -16q-109 0 -171 75t-62 211q0 370 305 370
q12 0 22 -0.5t21.5 -1.5t25.5 -3t34 -5v-148q-60 23 -98 23q-69 0 -106 -28.5t-48 -79.5z" />
    <glyph glyph-name="seven" unicode="7" horiz-adv-x="536" 
d="M90 3l228 498h-283v142h458v-101l-237 -539h-166z" />
    <glyph glyph-name="eight" unicode="8" horiz-adv-x="513" 
d="M248 651q46 0 84.5 -11.5t66 -33.5t42.5 -53.5t15 -70.5q0 -109 -69 -143q9 -5 23.5 -19t28.5 -35t24.5 -47.5t10.5 -54.5q0 -44 -16.5 -78.5t-46 -59t-71 -37.5t-91.5 -13q-106 0 -166 47.5t-60 138.5q0 28 9.5 54.5t22.5 48t26.5 36t22.5 19.5q-6 4 -16.5 17t-21 32.5
t-18 44t-7.5 50.5q0 40 16 71.5t44 53t65.5 32.5t81.5 11zM171 183q0 -26 18.5 -41t58.5 -15t58.5 15.5t18.5 42.5q0 42 -86 80q-68 -32 -68 -82zM247 519q-29 0 -43.5 -11.5t-14.5 -29.5q5 -28 17.5 -41t43.5 -26q29 13 42.5 29t13.5 36q0 43 -59 43z" />
    <glyph glyph-name="nine" unicode="9" horiz-adv-x="528" 
d="M258 515q-70 0 -70 -92q0 -76 66 -76q37 0 59.5 20.5t22.5 43.5q0 22 -6.5 41.5t-17.5 33t-25 21.5t-29 8zM332 236l-9 -4q-37 -19 -91 -19q-45 0 -81.5 15t-61.5 42.5t-38.5 66t-13.5 86.5q0 51 15.5 93t44 72t69.5 46.5t91 16.5q109 0 170 -74t61 -211
q0 -371 -304 -371q-11 0 -21 0.5t-21.5 1.5t-27 3t-36.5 5v145q70 -21 101 -21q66 0 102.5 28t50.5 79z" />
    <glyph glyph-name="colon" unicode=":" horiz-adv-x="258" 
d="M209 169q0 -32 -22 -54t-53 -22q-32 0 -54 22t-22 54q0 31 22 53t54 22q31 0 53 -22t22 -53zM209 445q0 -32 -22 -54t-53 -22q-32 0 -54 22t-22 54q0 31 22 53t54 22q31 0 53 -22t22 -53z" />
    <glyph glyph-name="semicolon" unicode=";" horiz-adv-x="258" 
d="M210 445q0 -32 -22 -54t-54 -22q-31 0 -53 22t-22 54q0 31 22 53t53 22q32 0 54 -22t22 -53zM145 -11l-75 31q21 24 33 38.5t18 24t7.5 15.5t1.5 12v4q-13 1 -26.5 8t-25 19t-18.5 28t-7 35q0 25 17.5 46.5t49.5 21.5q22 0 40 -11.5t30.5 -29t19 -39t6.5 -41.5
q0 -33 -13.5 -72.5t-57.5 -89.5z" />
    <glyph glyph-name="less" unicode="&#x3c;" horiz-adv-x="425" 
d="M40 367l354 160v-140l-209 -90l209 -91v-139l-354 158v142z" />
    <glyph glyph-name="equal" unicode="=" horiz-adv-x="482" 
d="M412 137h-366l32 126h367zM408 330h-366l32 126h367z" />
    <glyph glyph-name="greater" unicode="&#x3e;" horiz-adv-x="432" 
d="M40 67v139l209 91l-209 90v140l354 -160v-142z" />
    <glyph glyph-name="question" unicode="?" horiz-adv-x="516" 
d="M284 42q0 31 -22 53t-53 22q-32 0 -54 -22t-22 -53q0 -32 22 -54t54 -22q31 0 53 22t22 54zM133 188q21 97 124 164q35 23 59.5 46.5t26.5 58.5q0 29 -13.5 45t-30.5 23l-15 3q20 -29 20 -62q0 -22 -8 -41.5t-22.5 -34t-33.5 -23t-41 -8.5t-41 8.5t-33.5 23t-22.5 34
t-8 41.5q0 56 22 89.5t53 51.5t63.5 23.5t52.5 5.5q45 0 76 -12t51.5 -30.5t31.5 -41t16.5 -43.5t6.5 -37.5t1 -23.5q0 -32 -6.5 -54.5t-20 -40t-33 -32t-44.5 -30.5l-5 -3q-76 -43 -76 -120v-18z" />
    <glyph glyph-name="at" unicode="@" horiz-adv-x="764" 
d="M596 155q46 64 46 149q0 53 -20.5 100t-55.5 82t-82 55.5t-100 20.5t-99.5 -20t-82 -55t-56 -82t-20.5 -101q0 -53 20.5 -100.5t55.5 -82.5t82 -55.5t100 -20.5q14 0 27.5 1.5t27.5 3.5v-87q-14 -2 -27.5 -3t-27.5 -1q-71 0 -134 27t-109.5 74t-73.5 110t-27 134
t27 133.5t74 109.5t109.5 74t133.5 27q70 0 133 -27.5t109.5 -74t74 -109.5t27.5 -133q0 -144 -100 -244l-16 -15l-395 91l-23 118l15 -3q9 -2 22.5 -4.5t27.5 -5t28 -4.5t24 -2q9 0 11 1h2q12 0 37.5 4t51 16.5t45 35t20.5 60.5q-1 15 -8 24t-17 14t-22 7t-22 2
q-8 0 -15.5 -1t-9.5 -1l-3 -1q18 -17 18 -40q0 -12 -4.5 -27t-14.5 -28t-25 -22t-36 -9q-17 0 -34.5 6.5t-31.5 20t-23 34t-9 47.5q0 33 13 58.5t36 43t54 26.5t66 9t69 -10.5t61 -32t43.5 -54.5t16.5 -79q0 -34 -9 -60.5t-24.5 -46.5t-36.5 -34.5t-44 -24.5z" />
    <glyph glyph-name="A" unicode="A" horiz-adv-x="672" 
d="M344 430l-42 -124h85l-41 118zM489 3l-58 161h-177l-56 -161h-164l238 644h144l238 -644h-165z" />
    <glyph glyph-name="B" unicode="B" horiz-adv-x="547" 
d="M192 404h62q49 0 65.5 11.5t16.5 41.5q0 24 -18 36t-74 12h-52v-101zM192 267v-124h71q49 0 69 14.5t20 49.5q0 60 -94 60h-66zM445 344q67 -39 67 -144q0 -47 -16.5 -83.5t-47.5 -61.5t-74.5 -38.5t-97.5 -13.5h-237v641h200q130 0 193 -41t63 -134q0 -39 -13 -70
t-37 -55z" />
    <glyph glyph-name="C" unicode="C" horiz-adv-x="565" 
d="M337 511q-69 0 -106.5 -48.5t-37.5 -139.5q0 -186 144 -186q18 0 32.5 1t32.5 4.5t43 10.5t64 19v-140q-77 -37 -184 -37q-144 0 -217.5 84.5t-73.5 244.5q0 73 21 133.5t60.5 104t95.5 67.5t126 24q97 0 202 -54l-57 -133q-28 13 -48 21.5t-36 13.5t-30.5 7.5t-30.5 2.5
z" />
    <glyph glyph-name="D" unicode="D" horiz-adv-x="601" 
d="M567 329q0 -161 -84 -243.5t-254 -82.5h-190v641h207q75 0 134.5 -21t101 -61.5t63.5 -99t22 -133.5zM407 326q0 179 -163 179h-52v-362h37q178 0 178 183z" />
    <glyph glyph-name="E" unicode="E" horiz-adv-x="467" 
d="M424 3h-385v641h385v-140h-232v-99h217v-139h-217v-122h232v-141z" />
    <glyph glyph-name="F" unicode="F" horiz-adv-x="455" 
d="M193 3h-154v641h386v-140h-232v-121h216v-142h-216v-238z" />
    <glyph glyph-name="G" unicode="G" horiz-adv-x="611" 
d="M300 378h272v-344q-39 -12 -68.5 -19.5t-55.5 -12t-52 -6t-58 -1.5q-147 0 -224.5 84.5t-77.5 244.5q0 77 23 138t65.5 103.5t103.5 65t138 22.5q86 0 211 -48l-58 -137q-87 43 -155 43q-79 0 -124.5 -48.5t-45.5 -139.5q0 -100 40 -144t118 -44q10 0 21.5 1t21.5 2t17 2
t8 1v95h-120v142z" />
    <glyph glyph-name="H" unicode="H" horiz-adv-x="596" 
d="M554 3h-155v262h-205v-262h-155v641h155v-237h205v237h155v-641z" />
    <glyph glyph-name="I" unicode="I" horiz-adv-x="355" 
d="M327 3h-293v106l70 23v383l-70 24v105h293v-105l-69 -24v-383l69 -23v-106z" />
    <glyph glyph-name="J" unicode="J" horiz-adv-x="234" 
d="M1 -159q-29 0 -95 17v144q65 -20 88 -20q47 0 47 69v593h154v-590q0 -103 -50 -158t-144 -55z" />
    <glyph glyph-name="K" unicode="K" horiz-adv-x="601" 
d="M565 3h-182l-172 249l-19 -16v-233h-154v641h154v-222q-22 -25 -22 -28l210 250h186l-243 -287z" />
    <glyph glyph-name="L" unicode="L" horiz-adv-x="482" 
d="M39 3v641h153v-499h245v-142h-398z" />
    <glyph glyph-name="M" unicode="M" horiz-adv-x="742" 
d="M542 335l-119 -332h-125l-112 325v-325h-146v641h184l141 -402l144 402h185v-641h-152v332z" />
    <glyph glyph-name="N" unicode="N" horiz-adv-x="625" 
d="M435 262v9q-1 5 -1 12v361h147v-641h-164l-231 379v-379h-147v641h162z" />
    <glyph glyph-name="O" unicode="O" horiz-adv-x="673" 
d="M634 324q0 -77 -19.5 -137.5t-58 -103.5t-94.5 -65.5t-128 -22.5q-147 0 -223.5 85t-76.5 245t77 244.5t225 84.5q147 0 222.5 -85.5t75.5 -244.5zM195 324q0 -187 139 -187q141 0 141 187q0 188 -139 188q-141 0 -141 -188z" />
    <glyph glyph-name="P" unicode="P" horiz-adv-x="511" 
d="M481 439q0 -106 -68.5 -162t-189.5 -56h-30v-218h-154v641h196q246 0 246 -205zM193 360h20q63 0 87 18t24 57q0 37 -20.5 53.5t-74.5 16.5h-36v-145z" />
    <glyph glyph-name="Q" unicode="Q" horiz-adv-x="673" 
d="M626 324q0 -57 -13 -106.5t-33 -87.5t-43.5 -63.5t-45.5 -34.5l155 -168h-209l-111 131q-147 0 -223.5 85t-76.5 245t77 244.5t224 84.5t223 -85.5t76 -244.5zM187 324q0 -187 139 -187q140 0 140 187q0 188 -139 188q-140 0 -140 -188z" />
    <glyph glyph-name="R" unicode="R" horiz-adv-x="537" 
d="M191 374h36q54 0 74.5 16.5t20.5 50.5q0 35 -21.5 49t-76.5 14h-33v-130zM191 235v-232h-153v641h192q126 0 187.5 -48t61.5 -151q0 -131 -98 -169l173 -273h-178l-138 232h-47z" />
    <glyph glyph-name="S" unicode="S" horiz-adv-x="477" 
d="M451 192q0 -47 -17 -83.5t-48 -61.5t-75 -38.5t-98 -13.5q-90 0 -190 41v155q41 -19 70 -30t51 -17t39.5 -7.5t35.5 -1.5q46 0 62.5 14t16.5 36q0 7 -2.5 15t-13 18t-32 21.5t-58.5 26.5q-87 34 -125 81.5t-38 119.5q0 43 16 77.5t45.5 58.5t70 37t88.5 13q98 0 202 -53
l-51 -131q-101 42 -154 42q-35 0 -49 -12t-14 -31q1 -11 1 -17.5t7.5 -14t28 -18t63.5 -29.5q48 -20 80 -40.5t51 -44t27.5 -51t9.5 -61.5z" />
    <glyph glyph-name="T" unicode="T" horiz-adv-x="549" 
d="M355 3h-154v500h-170v141h493v-141h-169v-500z" />
    <glyph glyph-name="U" unicode="U" horiz-adv-x="582" 
d="M555 644v-405q0 -56 -18 -101t-51.5 -77t-82 -49t-108.5 -17q-125 0 -190.5 65t-65.5 180v404h155v-397q0 -60 23.5 -85t80.5 -25q103 0 103 110v397h154z" />
    <glyph glyph-name="V" unicode="V" horiz-adv-x="624" 
d="M311 251l132 393h161l-223 -641h-141l-222 641h161l106 -317z" />
    <glyph glyph-name="W" unicode="W" horiz-adv-x="855" 
d="M256 284l98 360h139l102 -362l87 362h157l-165 -641h-148l-102 358l-101 -358h-148l-166 641h159z" />
    <glyph glyph-name="X" unicode="X" horiz-adv-x="637" 
d="M609 3h-182l-127 210l-128 -210h-172l209 331l-198 310h176l117 -192l116 192h174l-199 -312z" />
    <glyph glyph-name="Y" unicode="Y" horiz-adv-x="630" 
d="M242 309l-215 335h176l117 -192l116 192h174l-215 -335v-306h-153v306z" />
    <glyph glyph-name="Z" unicode="Z" horiz-adv-x="531" 
d="M503 3h-473v105l266 395h-257v141h456v-106l-265 -393h273v-142z" />
    <glyph glyph-name="bracketleft" unicode="[" horiz-adv-x="348" 
d="M348 807v-126h-182v-740h182v-126h-308v992h308z" />
    <glyph glyph-name="backslash" unicode="\" horiz-adv-x="442" 
d="M27 628l143 76l265 -716l-143 -76z" />
    <glyph glyph-name="bracketright" unicode="]" horiz-adv-x="348" 
d="M0 807h308v-992h-308v126h182v740h-182v126z" />
    <glyph glyph-name="asciicircum" unicode="^" horiz-adv-x="382" 
d="M243 882l118 -260h-112l-59 137l-59 -137h-111l116 260h107z" />
    <glyph glyph-name="underscore" unicode="_" horiz-adv-x="481" 
d="M408 0h-366l32 126h367z" />
    <glyph glyph-name="grave" unicode="`" horiz-adv-x="287" 
d="M149 622l-149 208l173 -22l62 -175z" />
    <glyph glyph-name="a" unicode="a" horiz-adv-x="490" 
d="M220 127q82 0 82 78v7l-24 -1q-29 -1 -47.5 -5t-29.5 -10.5t-15 -16t-4 -21.5q0 -16 8 -23.5t30 -7.5zM303 331q-2 26 -12 37t-38 11q-15 0 -28 -2t-28 -7t-34.5 -13.5t-47.5 -21.5l-54 121q63 33 108.5 44t87.5 11q94 0 146 -44t52 -138v-326h-119l-10 34
q-26 -22 -58 -32t-77 -10q-78 0 -121.5 43t-43.5 121q0 81 57.5 125t172.5 46z" />
    <glyph glyph-name="b" unicode="b" horiz-adv-x="522" 
d="M267 374q-21 0 -36 -5t-24 -17.5t-13 -35t-4 -56.5v-6q0 -71 18 -96.5t60 -25.5q70 0 70 122q0 120 -71 120zM190 488q41 23 101 23q97 0 149 -68t52 -189q0 -60 -13.5 -107.5t-39.5 -81.5t-64 -52t-87 -18q-75 0 -120 36l-9 -28h-121v678h152v-193z" />
    <glyph glyph-name="c" unicode="c" horiz-adv-x="458" 
d="M257 -5q-118 0 -175 67.5t-57 188.5q0 127 62 193.5t177 66.5q80 0 163 -42l-49 -128q-96 32 -115 32q-83 0 -83 -121q0 -119 81 -119q53 0 147 52v-150q-22 -13 -40 -20.5t-35.5 -12t-35.5 -6t-40 -1.5z" />
    <glyph glyph-name="d" unicode="d" horiz-adv-x="524" 
d="M257 131q43 0 61.5 22.5t18.5 85.5v13q0 36 -4.5 59.5t-14.5 37.5t-25.5 19.5t-36.5 5.5q-34 0 -53 -29.5t-19 -93.5q0 -66 19 -93t54 -27zM353 32q-43 -37 -121 -37q-100 0 -151.5 68t-51.5 189q0 60 13.5 107.5t40 81.5t64.5 52t86 18q59 0 100 -23v193h152v-678h-124z
" />
    <glyph glyph-name="e" unicode="e" horiz-adv-x="496" 
d="M252 380q-15 0 -27.5 -6t-21.5 -14t-14 -16.5t-6 -13.5h135q0 6 -4.5 14.5t-13.5 16.5t-21 13.5t-27 5.5zM269 -5q-57 0 -103 17.5t-77.5 50.5t-48.5 80t-17 106q0 60 16 108.5t45.5 82.5t72 52.5t95.5 18.5q50 0 90 -16t68 -46t43 -72.5t15 -94.5v-81h-289q2 -38 27 -55
t74 -17q18 0 31.5 1t30.5 5.5t41.5 14t63.5 26.5v-140q-27 -14 -49 -22t-42.5 -12.5t-41.5 -5.5t-45 -1z" />
    <glyph glyph-name="f" unicode="f" horiz-adv-x="303" 
d="M243 503h107v-131h-107v-369h-152v369h-72v93l72 29v9q0 183 176 183q44 0 136 -27l-45 -128q-59 18 -84 18q-17 0 -24 -8.5t-7 -37.5z" />
    <glyph glyph-name="g" unicode="g" horiz-adv-x="535" 
d="M237 -192q-100 0 -156.5 38.5t-56.5 113.5q0 53 64 105q-10 31 -10 64q0 13 4.5 25.5t9.5 22.5t9.5 16.5t4.5 8.5q-1 0 -6 6.5t-20 31.5q-23 38 -23 90q0 85 53.5 133t147.5 48q22 0 44 -3.5t29 -4.5h178v-107l-66 -13q16 -25 16 -53q0 -85 -56 -130t-150 -45
q-29 0 -31 1q-6 -5 -6 -11l1 1l5 -1q4 0 16 -0.5t33 -0.5h57q85 0 130.5 -39t45.5 -111q0 -94 -69.5 -140t-197.5 -46zM239 -69q120 0 120 52q0 4 -1 8t-7.5 7t-20 5t-37.5 2h-70q-56 0 -56 -40q0 -34 72 -34zM258 275q51 0 51 56q0 32 -12 46t-39 14q-51 0 -51 -61
q0 -55 51 -55z" />
    <glyph glyph-name="h" unicode="h" horiz-adv-x="522" 
d="M193 484q21 14 47 20.5t55 6.5q188 0 188 -192v-316h-153v300q0 40 -12 55.5t-42 15.5q-23 0 -38.5 -5.5t-25.5 -19.5t-14.5 -37.5t-4.5 -59.5v-249h-154v678h154v-197z" />
    <glyph glyph-name="i" unicode="i" horiz-adv-x="223" 
d="M191 3h-152v500h152v-500zM33 617q0 82 83 82q81 0 81 -82t-81 -82q-83 0 -83 82z" />
    <glyph glyph-name="j" unicode="j" horiz-adv-x="235" 
d="M25 -192q-43 0 -100 16v137q57 -16 84 -16q30 0 30 37v521h153v-527q0 -81 -44.5 -124.5t-122.5 -43.5zM33 618q0 82 83 82q82 0 82 -82t-82 -82q-83 0 -83 82z" />
    <glyph glyph-name="k" unicode="k" horiz-adv-x="542" 
d="M330 503h188l-205 -221l208 -279h-184l-130 179l-15 -13v-166h-153v678h153v-328z" />
    <glyph glyph-name="l" unicode="l" horiz-adv-x="224" 
d="M192 3h-153v678h153v-678z" />
    <glyph glyph-name="m" unicode="m" horiz-adv-x="789" 
d="M428 461q27 22 60 36t75 14q94 0 137 -49t43 -143v-316h-153v302q0 69 -49 69q-39 0 -56 -24t-17 -84v-263h-154v302q0 69 -48 69q-20 0 -33.5 -5.5t-22.5 -19t-13 -37.5t-4 -60v-249h-154v500h127l7 -28q23 17 53.5 26.5t62.5 9.5q98 0 139 -50z" />
    <glyph glyph-name="n" unicode="n" horiz-adv-x="535" 
d="M173 474q28 17 57.5 27t64.5 10q188 0 188 -192v-316h-154v300q0 40 -12 55.5t-42 15.5q-23 0 -38.5 -5.5t-25.5 -19.5t-14.5 -37.5t-4.5 -59.5v-249h-153v500h127z" />
    <glyph glyph-name="o" unicode="o" horiz-adv-x="533" 
d="M505 254q0 -60 -16 -108t-46.5 -81.5t-74.5 -51.5t-99 -18q-54 0 -97.5 18.5t-74 52.5t-47.5 81.5t-17 106.5q0 121 61.5 189t176.5 68q54 0 97.5 -18.5t73.5 -52.5t46.5 -81t16.5 -105zM188 254q0 -122 82 -122q80 0 80 122q0 120 -81 120q-42 0 -61.5 -28.5
t-19.5 -91.5z" />
    <glyph glyph-name="p" unicode="p" horiz-adv-x="533" 
d="M268 374q-41 0 -59 -22.5t-18 -84.5v-13q0 -71 18 -96.5t60 -25.5q32 0 51 29t19 93q0 120 -71 120zM173 476q44 35 119 35q100 0 151 -68t51 -189q0 -60 -13.5 -107.5t-40 -81.5t-64.5 -52t-86 -18q-59 0 -99 22v-209h-152v695h125z" />
    <glyph glyph-name="q" unicode="q" horiz-adv-x="527" 
d="M328 61q0 2 0.5 5t0.5 4v2q-1 -1 -1.5 -4.5t-0.5 -6.5h1zM252 129q43 0 61 24.5t18 82.5v16q0 70 -18.5 96t-61.5 26q-72 0 -72 -123q0 -122 73 -122zM327 17q-40 -22 -102 -22q-97 0 -149 68t-52 189q0 60 13.5 107.5t39.5 81.5t64 52t87 18q35 0 61 -9t54 -26l5 27h132
v-695h-153v209z" />
    <glyph glyph-name="r" unicode="r" horiz-adv-x="395" 
d="M173 464q26 22 55 34.5t62 12.5q38 0 77 -17l-14 -149q-48 20 -67 20q-45 0 -69.5 -27t-24.5 -75v-260h-153v500h128z" />
    <glyph glyph-name="s" unicode="s" horiz-adv-x="438" 
d="M405 160q0 -82 -56.5 -123.5t-153.5 -41.5q-96 0 -170 38v143q117 -49 174 -49q55 0 55 22q0 3 -3 7.5t-11.5 10.5t-24.5 14t-43 17q-40 16 -68 32.5t-45.5 35.5t-25.5 42.5t-8 53.5q0 73 53.5 111t144.5 38q83 0 184 -48l-53 -123q-97 38 -135 38q-25 0 -34 -3.5
t-9 -10.5q0 -3 1.5 -6t9.5 -8t24.5 -12.5t46.5 -18.5q42 -15 69.5 -31t44 -34.5t24 -41.5t9.5 -52z" />
    <glyph glyph-name="t" unicode="t" horiz-adv-x="395" 
d="M260 131q27 0 98 21v-131q-36 -15 -63.5 -20.5t-55.5 -5.5q-162 0 -162 170v207h-60v88l69 38l35 102h108v-97h125v-131h-125v-205q0 -21 8 -28.5t23 -7.5z" />
    <glyph glyph-name="u" unicode="u" horiz-adv-x="520" 
d="M350 33q-29 -19 -59 -28.5t-65 -9.5q-187 0 -187 191v317h153v-302q0 -70 55 -70q43 0 63 25.5t20 97.5v249h153v-500h-126z" />
    <glyph glyph-name="v" unicode="v" horiz-adv-x="557" 
d="M276 223q1 1 1 3l96 277h163l-189 -500h-141l-188 500h161l96 -276q1 -1 1 -4z" />
    <glyph glyph-name="w" unicode="w" horiz-adv-x="760" 
d="M523 258q0 4 1 5l62 240h155l-139 -500h-150l-73 265q-2 -11 -4 -20.5t-4 -17.5l-64 -227h-148l-139 500h158l61 -240q0 -2 1 -3l68 243h148z" />
    <glyph glyph-name="x" unicode="x" horiz-adv-x="574" 
d="M190 258l-167 245h180l83 -129l84 129h177l-166 -245l174 -255h-178l-91 140l-91 -140h-177z" />
    <glyph glyph-name="y" unicode="y" horiz-adv-x="558" 
d="M278 232l31 94l62 177h165l-202 -539q-62 -156 -198 -156q-9 0 -16 0.5t-17 1.5t-23 3t-34 5v143q49 -18 81 -18q20 0 34.5 13t28.5 47l12 30l-187 470h167l95 -270z" />
    <glyph glyph-name="z" unicode="z" horiz-adv-x="427" 
d="M413 3h-390v97l192 271h-178v132h370v-105l-187 -264h193v-131z" />
    <glyph glyph-name="braceleft" unicode="{" horiz-adv-x="466" 
d="M29 337q42 13 57 20.5t16 10.5h1q16 16 16 64v189q0 94 45.5 141.5t130.5 47.5h139q13 0 19.5 -8t6.5 -19q0 -8 -4.5 -15t-14.5 -9l-23 -6q-106 -32 -120 -53q-21 -20 -21 -63v-189q0 -55 -10.5 -85.5t-33.5 -53.5q23 -23 33.5 -54.5t10.5 -92.5v-178q0 -45 22 -64
q8 -11 39 -23.5t86 -24.5l23 -5q11 -2 16.5 -10t5.5 -16q0 -9 -7 -18t-20 -9h-24q-11 0 -20 -0.5t-18 -0.5q-73 0 -123 7t-80.5 28.5t-44 60.5t-13.5 103v172q0 30 -3.5 44.5t-6.5 18.5q0 2 -15 10.5t-65 23.5q-11 3 -16 11.5t-5 16.5q0 19 21 28z" />
    <glyph glyph-name="bar" unicode="|" horiz-adv-x="246" 
d="M61 33v528l126 -32v-529z" />
    <glyph glyph-name="braceright" unicode="}" horiz-adv-x="469" 
d="M440 337q21 -9 21 -28q0 -8 -5 -16.5t-16 -11.5q-50 -15 -65 -23.5t-15 -10.5q-3 -4 -6.5 -18.5t-3.5 -44.5v-172q0 -64 -13.5 -103t-44 -60.5t-80.5 -28.5t-123 -7q-9 0 -18 0.5t-20 0.5h-24q-13 0 -20 9t-7 18q0 8 5.5 16t16.5 10l23 5q55 12 86 24.5t39 23.5
q22 19 22 64v178q0 61 10.5 92.5t33.5 54.5q-23 23 -33.5 53.5t-10.5 85.5v189q0 43 -21 63q-14 21 -120 53l-23 6q-10 2 -14.5 9t-4.5 15q0 11 6.5 19t19.5 8h139q85 0 130.5 -47.5t45.5 -141.5v-189q0 -48 16 -64h1q1 -3 16 -10.5t57 -20.5z" />
    <glyph glyph-name="asciitilde" unicode="~" horiz-adv-x="582" 
d="M542 281q-20 -23 -27 -31q-16 -18 -37 -34q-47 -35 -95 -35q-31 0 -60 16q-43 23 -82 54q-35 28 -51 35t-24 7q-26 0 -126 -91v111l15 25q18 32 65 69q42 33 93 33q33 0 66 -17q43 -22 77.5 -50.5t50.5 -35.5t25 -7q24 0 110 74v-123z" />
    <glyph glyph-name="softhyphen" unicode="&#xad;" horiz-adv-x="389" 
d="M318 252h-276l32 126h277z" />
    <glyph glyph-name="softhyphen" unicode="&#x2010;" horiz-adv-x="389" 
d="M318 252h-276l32 126h277z" />
    <glyph glyph-name="periodcentered" unicode="&#xb7;" horiz-adv-x="229" 
d="M193 289q0 -32 -22 -54t-53 -22q-32 0 -54 22t-22 54q0 31 22 53t54 22q31 0 53 -22t22 -53z" />
    <glyph glyph-name="multiply" unicode="&#xd7;" horiz-adv-x="473" 
d="M246 226l-128 -121l-62 114l103 98l-121 128l114 64l99 -105l128 121l63 -113l-104 -99l121 -128l-115 -63z" />
    <glyph glyph-name="divide" unicode="&#xf7;" horiz-adv-x="475" 
d="M408 252h-366l32 126h367zM317 136q0 -32 -22.5 -54t-53.5 -22t-53 22t-22 54q0 31 22 53t53 22t53.5 -22t22.5 -53zM317 492q0 -32 -22.5 -54t-53.5 -22t-53 22t-22 54q0 31 22 53t53 22t53.5 -22t22.5 -53z" />
    <glyph glyph-name="om_deva" unicode="&#x950;" horiz-adv-x="659" 
d="M579 304l12 -13q25 -27 36.5 -60t11.5 -66q0 -58 -35.5 -96.5t-120.5 -61.5q-18 -5 -34.5 -6t-34.5 -1q-83 0 -144.5 23.5t-105 62t-71.5 86t-44 96t-22 92t-6 73.5v15q0 13 1 15v5q1 29 3 34v2h131v-17q0 -120 29.5 -192.5t72.5 -111t89.5 -50.5t81.5 -12h11q10 0 11 1
h2q7 1 12 1t7 1h3q13 5 22 14t14.5 19.5t8 20.5t3.5 18v10q-7 -14 -28 -22.5t-48 -8.5q-17 0 -34.5 5t-32 16t-24 28.5t-9.5 42.5q0 27 22 52t78 35l6 2q21 9 37 32.5t16 66.5q0 13 -5.5 21.5t-13 13.5t-15 7t-11.5 3h-6q24 -17 24 -47q0 -16 -7 -33t-21.5 -31t-37.5 -23
t-55 -9q-21 0 -42 6t-37.5 19t-27 34t-10.5 51q0 37 14.5 65.5t40.5 48.5t61.5 30.5t77.5 10.5q38 0 74.5 -10.5t65.5 -32.5t46.5 -56t17.5 -80q0 -45 -15.5 -79t-38.5 -54zM386 801q-22 0 -36 14.5t-14 34.5q0 21 14 36t36 15q21 0 35 -15t14 -36q0 -20 -14 -34.5
t-35 -14.5zM386 678q-35 0 -65 13.5t-52.5 36.5t-35.5 53.5t-13 65.5v6h94q7 -76 72 -76q26 0 48 19t22 57h96v-6q0 -36 -13 -66.5t-35.5 -53.5t-53 -36t-64.5 -13z" />
    <glyph glyph-name="devanagaridanda" unicode="&#x964;" horiz-adv-x="339" 
d="M117 33v528l126 -32v-529z" />
    <glyph glyph-name="devanagaridoubledanda" unicode="&#x965;" horiz-adv-x="512" 
d="M117 33v528l126 -32v-529zM283 33v528l126 -32v-529z" />
    <glyph glyph-name="signcandrabinducomb_beng" unicode="&#x981;" 
d="M-100 801q-22 0 -36 14.5t-14 34.5q0 21 14 36t36 15q21 0 35 -15t14 -36q0 -20 -14 -34.5t-35 -14.5zM-100 678q-35 0 -65 13.5t-52.5 36.5t-35.5 53.5t-13 65.5v6h94q7 -76 72 -76q26 0 48 19t22 57h96v-6q0 -36 -13 -66.5t-35.5 -53.5t-53 -36t-64.5 -13z" />
    <glyph glyph-name="signanusvara_beng" unicode="&#x982;" horiz-adv-x="389" 
d="M205 628q32 0 61.5 -13t52 -35t35.5 -51.5t13 -63.5q0 -33 -13 -62.5t-35 -51.5t-51.5 -35t-62.5 -13q-35 0 -65 13t-51.5 35t-34 51.5t-12.5 62.5q0 34 12.5 63.5t34.5 51.5t51.5 35t64.5 13zM64 155l-63 102q29 12 55 17t50 5q39 0 71 -11t57.5 -27.5t44 -34
t28.5 -30.5l15 -19l70 -114l-108 -67l-68 112l-9 10q-6 8 -17 18.5t-26 19.5t-33.5 15.5t-39.5 6.5q-14 0 -27 -3zM205 417q20 0 34.5 14t14.5 34q0 21 -14.5 35t-34.5 14q-21 0 -35.5 -14t-14.5 -35q0 -20 14.5 -34t35.5 -14z" />
    <glyph glyph-name="signvisarga_beng" unicode="&#x983;" horiz-adv-x="399" 
d="M201 628q32 0 61.5 -13t52 -35t35.5 -51.5t13 -63.5q0 -33 -13 -62.5t-35 -51.5t-51.5 -35t-62.5 -13q-35 0 -65 13t-51.5 35t-34 51.5t-12.5 62.5q0 34 12.5 63.5t34.5 51.5t51.5 35t64.5 13zM201 417q20 0 34.5 14t14.5 34q0 21 -14.5 35t-34.5 14q-21 0 -35.5 -14
t-14.5 -35q0 -20 14.5 -34t35.5 -14zM201 289q32 0 61.5 -13t52 -35t35.5 -51.5t13 -63.5q0 -33 -13 -62.5t-35 -51.5t-51.5 -35t-62.5 -13q-35 0 -65 13t-51.5 35t-34 51.5t-12.5 62.5q0 34 12.5 63.5t34.5 51.5t51.5 35t64.5 13zM201 78q20 0 34.5 14t14.5 34
q0 21 -14.5 35t-34.5 14q-21 0 -35.5 -14t-14.5 -35q0 -20 14.5 -34t35.5 -14z" />
    <glyph glyph-name="a_beng" unicode="&#x985;" horiz-adv-x="882" 
d="M588 96l-15 -17q-32 -36 -87 -58t-130 -22q-93 0 -152.5 28.5t-94.5 69t-49 84t-17 73.5q-2 11 -2 18.5t-1 10.5v190h140v-187q4 -12 9 -38t21.5 -53t49 -47.5t91.5 -20.5q45 0 72 9t41 21.5t18.5 26t4.5 21.5l-1 14q-22 -28 -65 -28q-22 0 -45.5 7.5t-42.5 24
t-31.5 42.5t-12.5 62q0 27 9.5 53.5t30.5 47.5t53.5 33.5t79.5 12.5q42 0 75 -17t56 -47t35.5 -70.5t12.5 -86.5q0 -5 -0.5 -11t-0.5 -12l62 -43v348h-712v87h902v-87h-50v-535h-140v17z" />
    <glyph glyph-name="aa_beng" unicode="&#x986;" horiz-adv-x="1102" 
d="M589 97l-15 -18q-31 -36 -88 -58t-129 -22q-93 0 -152.5 28.5t-94 69t-49 84t-17.5 73.5l-4 29v191h141v-188q4 -12 9 -38t21.5 -53t49 -47.5t91.5 -20.5q56 0 84.5 13.5t40 30t11.5 29.5l1 13q0 3 -2 5v2q-23 -29 -65 -29q-21 0 -44.5 7.5t-43 24t-32 42.5t-12.5 62
q0 27 9 53.5t29.5 47.5t52.5 34t78 13q42 0 76 -16.5t58 -45.5t36.5 -70t12.5 -89q0 -5 -0.5 -11.5t-0.5 -11.5l63 -45v349h-714v87h1122v-87h-50v-535h-139v535h-80v-535h-139v16z" />
    <glyph glyph-name="i_beng" unicode="&#x987;" horiz-adv-x="563" 
d="M509 -45l-476 132l-33 127h1q3 0 5 -1l16 -3q12 -2 30 -5.5t37.5 -7t38.5 -5.5t34 -1q6 0 10.5 0.5t9.5 1.5h14q4 0 8 1l1 1q21 1 54.5 7.5t64.5 21.5t53.5 41t22.5 66q-1 17 -11 27.5t-24 16.5t-31 8t-32 2q-7 0 -13.5 -0.5t-11.5 -0.5l-14 -1q26 -20 26 -48
q0 -16 -7.5 -34t-22 -33.5t-35.5 -25.5t-49 -10q-24 0 -48.5 8t-44 24.5t-31.5 41t-12 57.5q0 38 19.5 67.5t52 50t76 31t91.5 10.5q51 0 98.5 -12.5t84.5 -38.5t59.5 -66.5t22.5 -96.5q0 -41 -15 -73t-40 -56t-56 -40.5t-63 -25.5l-10 -3l198 -48zM567 633q0 -8 -1 -11h7
v-87h-583v87h442q1 3 1 9v10q0 28 -19 46t-54 18t-82 -19q-90 -36 -163 -36q-37 0 -64.5 3.5t-45.5 8.5l-24 134q38 -11 71.5 -15.5t62.5 -4.5q38 0 69 6t60 14l38 8q32 7 56 9.5t42 2.5q58 0 95 -17t57 -42.5t27.5 -55.5t7.5 -55v-13z" />
    <glyph glyph-name="ii_beng" unicode="&#x988;" horiz-adv-x="648" 
d="M500 456l129 -73l-56 -167q-7 -21 -7 -46q0 -35 19 -68t62 -53l-35 -144q-56 16 -89.5 46t-51.5 65t-24 70t-6 61q0 20 1.5 32t2.5 13l7 36l-19 -18q-17 -53 -51.5 -84t-71 -47.5t-68.5 -21.5t-45 -5q-7 0 -7 1h-109l-61 123v3h171q11 0 33 3.5t43.5 17.5t38 42t16.5 77
q0 17 -8 28t-18.5 17t-21.5 8.5t-17 3.5h-8q26 -21 26 -60q0 -19 -7 -40t-22 -38t-38.5 -28.5t-56.5 -11.5q-24 0 -47.5 8.5t-42 27.5t-30.5 47.5t-12 69.5q0 37 15.5 67.5t43 52t66.5 33t87 11.5q32 0 63 -7t58 -22t48 -38t33 -54zM590 633q0 -8 -1 -11h69v-87h-668v87h465
q1 3 1 9v10q0 28 -18.5 46t-53.5 18q-17 0 -37.5 -5t-44.5 -14q-46 -18 -87 -26.5t-76 -8.5q-71 0 -109 11l-24 134q38 -11 70.5 -15.5t61.5 -4.5q38 0 69.5 6t60.5 14l38 8q32 7 56 9.5t42 2.5q58 0 94 -17t56.5 -42.5t28 -55t7.5 -54.5v-14z" />
    <glyph glyph-name="u_beng" unicode="&#x989;" horiz-adv-x="721" 
d="M416 535v-155l31 4q31 4 74.5 15t88.5 35l90 -98q1 -8 1.5 -15.5t0.5 -15.5q0 -53 -18.5 -106.5t-55 -96.5t-90.5 -69.5t-125 -26.5h-8q-168 10 -247 77q-41 34 -66.5 74.5t-40.5 81.5t-21.5 80t-9.5 71h146l-1 -30q0 -46 13 -85t39.5 -69t66 -49t93.5 -25l18 -1
q37 0 66 11.5t51 30.5t36 44t21 53l4 17q-8 -5 -24 -11.5t-36 -12.5t-43 -10.5t-44 -4.5l-23 1q-19 1 -41 7t-40.5 20.5t-31 37.5t-12.5 57v164h-288v87h539q1 3 1 15q0 70 -73 70q-32 0 -84 -20q-86 -34 -161 -34q-81 0 -115 10l-24 136q73 -21 129 -21q33 0 71.5 6.5
t75.5 14t69.5 14t52.5 6.5q35 0 58 -6l6 -1q66 -16 98.5 -57.5t32.5 -107.5v-14q0 -8 -1 -11h66v-87h-315z" />
    <glyph glyph-name="uu_beng" unicode="&#x98a;" horiz-adv-x="856" 
d="M290 97q-11 10 -20.5 19.5t-17.5 20.5q-57 32 -118.5 105.5t-112.5 199.5l87 -3l10 -27q1 -1 1 -4l3 -7l1 -2l1 -3l1 -2q7 -20 17.5 -45t26.5 -54q-13 43 -21 79.5t-10 67.5h117l4 -30q2 -18 9 -45.5t20 -59t33 -63t49 -56.5t67.5 -41t89.5 -16q40 0 69 11.5t49 28.5
t32.5 36.5t19 37t9 29.5t2.5 13q-7 -4 -21.5 -11t-34 -13.5t-43 -11.5t-48.5 -5q-21 0 -46.5 5.5t-48 19.5t-38 38t-15.5 62v164h-423v87h661q0 3 0.5 6.5t0.5 6.5q0 30 -18 50t-56 20q-35 0 -83 -19q-47 -18 -88 -26.5t-77 -8.5q-72 0 -111 11l-24 136q39 -11 73 -15.5
t63 -4.5q38 0 69.5 6t60.5 13l38 9q32 8 57 10t43 2q58 0 94.5 -17.5t57.5 -43.5t29 -56t8 -55l-2 -24h80v-87h-314v-155h2q6 2 28 3l1 1q30 3 73.5 14.5t88.5 35.5l90 -98q1 -8 1.5 -15t0.5 -15q0 -48 -17 -100.5t-52 -97t-88 -73.5t-126 -29q-88 0 -155 25.5t-109 65.5z
" />
    <glyph glyph-name="vocalicr_beng" unicode="&#x98b;" horiz-adv-x="840" 
d="M661 622h189v-87h-50v-483h-139v56l-80 56v-164h-139v32q-59 39 -127.5 61t-128 32t-100.5 12t-45 2l-1 209l317 112l-62 63l-3 -19q-5 -18 -21.5 -35t-37.5 -30t-44.5 -20.5t-43.5 -7.5q-29 0 -53.5 14t-43 36t-29 50t-10.5 55q0 25 11 44t27 32t33.5 19t31.5 6
q19 0 34 -8t26 -20t17 -27t6 -28t-5.5 -25t-14.5 -21.5t-20 -15.5t-23 -6q-3 0 -13 2q6 -11 14 -18.5t22 -7.5q11 0 24 8t24 21t18 29t7 32l-2 26h109l107 -99v113h139v-287l80 -56v343zM351 232q27 -9 49.5 -18.5t41.5 -19.5v148l-252 -89q48 0 87 -5t74 -16z" />
    <glyph glyph-name="e_beng" unicode="&#x98f;" horiz-adv-x="721" 
d="M553 170v195l-2 20q-2 14 -7.5 33t-17.5 36t-32.5 28.5t-51.5 11.5q-30 0 -48 -8t-27 -18.5t-12 -21t-3 -15.5v-2q23 29 70 29q13 0 28 -5t27.5 -14.5t20.5 -25t8 -36.5q0 -19 -6.5 -38.5t-20 -35.5t-33.5 -26t-47 -10q-34 0 -64.5 12t-53.5 34.5t-36.5 55.5t-13.5 75
q0 35 11.5 67t36 57t63 39.5t92.5 14.5q57 0 97 -16.5t67.5 -42t44 -55.5t25 -58t11 -49t2.5 -28v-373h-128v17q-9 21 -31.5 36.5t-55 26.5t-74 16.5t-88.5 5.5q-20 0 -42 -1.5t-43 -1.5q-45 0 -78.5 16t-56 41t-33.5 56t-11 61v133h130v-109q0 -10 1 -25.5t8.5 -29.5
t25.5 -24.5t53 -10.5q14 0 31 1.5t35 3.5t35 3.5t32 1.5q32 0 56.5 -4.5t44 -11t34.5 -15t27 -16.5z" />
    <glyph glyph-name="ai_beng" unicode="&#x990;" horiz-adv-x="857" 
d="M555 15q-9 21 -31.5 37t-55.5 27t-74.5 16.5t-89.5 5.5q-20 0 -42 -1.5t-43 -1.5q-45 0 -78.5 16t-56 41t-33.5 56t-11 61v134h131v-109q0 -10 0.5 -25.5t8.5 -30t26.5 -25t54.5 -10.5q30 0 68 5t66 5q62 0 99.5 -15.5t60.5 -32.5v197q-4 4 -5.5 24.5t-10.5 43.5
t-30.5 42t-64.5 19q-27 0 -44.5 -7t-27.5 -16.5t-14 -20t-4 -16.5v-6q24 30 70 30q13 0 28 -5t27.5 -15t20.5 -25t8 -36q0 -20 -7 -40t-21 -35.5t-34 -25.5t-46 -10q-35 0 -65.5 12t-53.5 35.5t-36.5 57t-13.5 75.5q0 35 12 67t36.5 56t63 38.5t92.5 14.5q46 0 81.5 -11
t62 -29.5t44.5 -41.5t30 -47t18.5 -46.5t9.5 -39.5v-7q17 7 28.5 23t11.5 39q0 37 -41 98q-24 36 -40.5 71.5t-26 68.5t-13 62t-3.5 50q0 4 0.5 7.5t0.5 6.5l128 53q-1 -5 -1 -10v-28q0 -47 7 -83.5t18 -66.5t24 -56.5t25 -53.5q25 -58 32 -91.5t7 -50.5v-13q-1 -46 -16 -76
t-37.5 -48.5t-49.5 -28t-51 -13.5v-258h-129v13z" />
    <glyph glyph-name="o_beng" unicode="&#x993;" horiz-adv-x="659" 
d="M579 304l12 -13q25 -27 36.5 -60t11.5 -66q0 -58 -35.5 -96.5t-120.5 -61.5q-18 -5 -34.5 -6t-34.5 -1q-83 0 -144.5 23.5t-105 62t-71.5 86t-44 96t-22 92t-6 73.5v15q0 10 1 15v5q1 29 3 34v2h131v-17q0 -120 29.5 -192.5t72.5 -111t89.5 -50.5t81.5 -12h11q8 0 11 1h2
q7 1 12 1t7 1h3q14 5 23 14t14 19.5t7.5 20.5t3.5 18v10q-7 -14 -28 -22.5t-48 -8.5q-17 0 -34.5 5t-32 16t-24 28.5t-9.5 42.5q0 27 22 52t78 35l6 2q21 9 37 32.5t16 66.5q0 13 -5.5 21.5t-13 13.5t-15 7t-11.5 3h-6q24 -17 24 -47q0 -16 -7 -33t-21.5 -31t-37.5 -23
t-55 -9q-21 0 -42 6t-37.5 19t-27 34t-10.5 51q0 37 14.5 65.5t40.5 48.5t61.5 30.5t77.5 10.5q38 0 74.5 -10.5t65.5 -32.5t46.5 -56t17.5 -80q0 -45 -15.5 -79t-38.5 -54z" />
    <glyph glyph-name="au_beng" unicode="&#x994;" horiz-adv-x="804" 
d="M622 237q13 -30 13 -70q0 -30 -12 -59t-39 -52.5t-70 -38t-104 -14.5q-80 0 -140 23t-103.5 59.5t-72 83t-45.5 93.5t-23.5 90t-6.5 73q0 11 0.5 20.5t1.5 18.5v5q1 29 3 34v2h131v-24q0 -79 14 -136t36.5 -97t51.5 -64t59 -37.5t59 -18t51 -4.5h11q8 0 11 1h1q4 1 7 1h6
l10 1q13 4 22 13t14.5 19.5t7.5 20.5t2 18l1 10q-6 -12 -26.5 -22t-49.5 -10q-16 0 -33 5t-31.5 16t-24 28.5t-9.5 42.5q0 28 21.5 52.5t77.5 34.5l6 2q21 9 37 31.5t16 67.5q-1 13 -6.5 22t-12 13.5t-14 6.5t-13.5 2h-5q24 -15 24 -46q0 -17 -7.5 -34t-22.5 -31t-38 -22.5
t-53 -8.5q-21 0 -42 6t-37.5 19t-27 34t-10.5 52q0 36 15 64.5t41.5 48t61.5 30t76 10.5q37 0 73.5 -10.5t65.5 -32t46.5 -55t17.5 -79.5q0 -19 -4 -38t-9 -34l5 2q19 7 30.5 21.5t11.5 37.5q0 20 -9.5 44t-29.5 55q-25 38 -41 74.5t-25 69.5t-12 60.5t-3 48.5v8l126 51
q-1 -5 -1 -10v-28q0 -37 4.5 -67.5t12.5 -57t18 -49.5t21 -44l16 -35q26 -57 32.5 -91t6.5 -54q0 -50 -16 -81.5t-40.5 -51t-53 -28t-53.5 -11.5z" />
    <glyph glyph-name="ka_beng" unicode="&#x995;" horiz-adv-x="876" 
d="M440 535h-450v87h896v-87h-306v-21q4 1 8 1h25q58 0 103.5 -22t76.5 -57.5t47 -79.5t16 -88q0 -32 -11.5 -61t-31.5 -52t-46.5 -36.5t-57.5 -13.5q-24 0 -45 9.5t-36.5 25t-24 36t-8.5 43.5q0 47 27 69t60 22q15 0 28 -3t21 -7l-13 17q-8 10 -20.5 21.5t-30 21.5
t-39.5 16.5t-48 6.5v-383h-140v30q-39 27 -82.5 47.5t-86.5 36.5t-83 26t-73 16l-75 13v217l400 110v39zM440 204v147l-231 -69q64 -3 119 -21t93 -44z" />
    <glyph glyph-name="kha_beng" unicode="&#x996;" horiz-adv-x="667" 
d="M488 622h189v-87h-50v-535h-139v9q-47 36 -102.5 58t-110.5 34t-104 16.5t-83 4.5h-48v177h3q4 -2 20 -3t35 -1q15 0 32.5 1.5t35.5 5t35 10.5q16 7 30 18h-10h-10q-36 0 -68 10.5t-56 30t-38 48t-14 63.5q0 37 11.5 63.5t30 43.5t42 25t47.5 8q22 0 43 -6.5t37.5 -18.5
t26 -28.5t9.5 -35.5q0 -20 -8.5 -34.5t-20 -23.5t-24 -14.5t-19.5 -7.5h2q12 0 34 3t48 15t53 36.5t49 68.5q9 -4 20 -34t11 -81q0 -27 -4.5 -56.5t-15 -60t-28 -60t-43.5 -55.5l16 -3q48 -11 81.5 -24t54.5 -27v447z" />
    <glyph glyph-name="ga_beng" unicode="&#x997;" horiz-adv-x="647" 
d="M607 535v-535h-139v384q-43 61 -87 82t-86 21q-27 0 -48.5 -6t-37 -13.5t-24 -15.5t-8.5 -11q49 12 102 12q20 0 42.5 -4t42 -15t32 -32t12.5 -54q0 -26 -12.5 -51t-32 -48t-43.5 -43t-46 -36t-39.5 -26.5t-25.5 -14.5v-1l-149 76q30 11 63 28.5t62 34.5t50 32t28 22l1 1
q-50 -6 -99 -6t-76 6l-69 139q24 46 53 77t60.5 49.5t64.5 26t66 7.5q30 0 58 -5t53.5 -12.5t46 -17t35.5 -18.5l11 -7v61h189v-87h-50z" />
    <glyph glyph-name="gha_beng" unicode="&#x998;" horiz-adv-x="629" 
d="M639 622v-87h-50v-535h-139v21q-23 30 -54 49t-65 29.5t-69.5 14.5t-66.5 4q-48 0 -80.5 -5t-33.5 -4l-61 108l134 130q-17 4 -37 13.5t-37 27.5t-28 45.5t-11 66.5q0 15 3 35h-54v87h649zM450 178v357h-254q-1 -3 -1 -14q0 -30 13.5 -49t42.5 -19q27 0 42.5 16t22.5 31
l90 -89l-177 -175q-2 0 21.5 -1t58 -6.5t73 -17t68.5 -33.5z" />
    <glyph glyph-name="nga_beng" unicode="&#x999;" horiz-adv-x="689" 
d="M668 318q1 -10 1.5 -20t0.5 -21q0 -47 -12 -95.5t-40.5 -89t-76 -66t-117.5 -25.5q-91 0 -156 21t-109 55t-70.5 77t-41 86t-20 82.5t-7.5 66.5h147q-1 -1 -1 -6v-18q0 -14 2.5 -37.5t10.5 -49.5t23.5 -53t41 -49t63 -35.5t90.5 -13.5q49 0 77.5 15.5t42.5 36.5t18 43
t4 35v12l-21 -13q-12 -7 -26 -16.5t-30.5 -17.5t-35.5 -14t-39 -6q-15 0 -34.5 5.5t-36.5 18.5t-29 35.5t-12 55.5v86q-67 18 -126.5 71t-96.5 151l-1 4h127q13 -32 26.5 -52t26 -32.5t24 -19t20.5 -11.5v108h195q16 0 31.5 -6t27.5 -17.5t19.5 -29t7.5 -39.5
q0 -54 -31.5 -87.5t-109.5 -48.5v-68q1 0 14.5 8t35.5 20.5t51 29t60 34.5zM415 521v-35q30 9 30 26q0 4 -3 9h-27z" />
    <glyph glyph-name="ca_beng" unicode="&#x99a;" horiz-adv-x="623" 
d="M633 535h-429v-28q0 -1 1 -2l4 -6q5 -8 15.5 -17t23 -16t26 -11.5t24.5 -4.5q73 -18 129 -26.5t96 -8.5l81 -108l-6 -24q-10 -41 -34 -81.5t-65.5 -76.5t-101 -65.5t-140.5 -50.5q-20 -5 -35.5 -6.5t-30.5 -1.5q-31 0 -53 6.5t-37.5 16t-25 20.5t-15.5 21v470h-70v87h643
v-87zM205 345v-194l16 5q16 6 40.5 16t53.5 23t54.5 29t44 33t21.5 35l-213 49z" />
    <glyph glyph-name="cha_beng" unicode="&#x99b;" horiz-adv-x="662" 
d="M179 304l10 -1q3 -1 14 -1t24.5 2t25.5 7.5t21 15.5t12 25q-32 6 -52 12.5t-31.5 12.5t-16.5 10.5t-6 6.5l-1 1v-91zM584 -112l-459 131l1 114q6 1 37 7t74 16.5t91 25t89 33t68 41.5t27 49q0 17 -21.5 29t-53.5 18l-16 3l-3 -11q-4 -19 -13 -39t-29 -40t-54.5 -40
t-89.5 -39q-14 -5 -27 -6.5t-24 -1.5q-28 0 -50.5 9.5t-38 22.5t-24 25.5t-8.5 18.5v281h-70v87h682v-87h-493v-6q0 -1 1 -2l12 -16q14 -11 30.5 -17.5t33.5 -11.5l57 -15q17 3 42.5 5.5t55.5 2.5q35 0 76 -6.5t75.5 -24t57.5 -49t23 -81.5q0 -44 -25.5 -80t-61.5 -64
t-75 -47t-65 -29l-3 -1q-1 -1 -3 -1l-27 -10l261 -71z" />
    <glyph glyph-name="ja_beng" unicode="&#x99c;" horiz-adv-x="818" 
d="M277 535h-287v87h838v-87h-418v-21h213q32 0 60.5 -13t49.5 -34.5t33 -50.5t12 -60v-356h-130v305q0 12 -5 29l-2 4q-9 19 -26.5 31.5t-37.5 13.5h-167v-55l4 -2q5 -4 20 -4q14 0 36 6.5t55 24.5l91 -98q2 -19 3.5 -37t1.5 -35q0 -36 -8 -68.5t-29.5 -57t-60 -38.5
t-98.5 -14q-91 0 -156 20.5t-109 54t-71 75.5t-41.5 84.5t-20 82t-7.5 67.5h145l-1 -24q0 -17 2.5 -41t11 -50t25 -51.5t44 -46t68 -33.5t96.5 -13q27 0 44 4t26.5 10.5t13 14.5t3.5 16t-2 15t-4 12l-3 4q-13 -6 -36.5 -14t-51.5 -8q-17 0 -38.5 6t-40.5 21t-32 41t-13 67
v216z" />
    <glyph glyph-name="jha_beng" unicode="&#x99d;" horiz-adv-x="840" 
d="M660 622h190v-87h-50v-484h-140v57l-80 56v-164h-139v33q-37 27 -80.5 48t-87 36t-84.5 25t-73 15l-76 12v210l401 112v44h-451v87h590v-288l80 -56v344zM441 206v141l-227 -64q61 -2 115.5 -20t92.5 -44z" />
    <glyph glyph-name="nya_beng" unicode="&#x99e;" horiz-adv-x="893" 
d="M589 568q57 54 130 54q31 0 59.5 -11.5t49.5 -31t33.5 -46t12.5 -55.5q0 -56 -33 -89q33 -35 33 -89q0 -30 -12.5 -56t-33.5 -45.5t-49.5 -31t-59.5 -11.5q-10 0 -20 1t-20 3v-160h-128v18q-9 21 -31.5 36.5t-55 26.5t-74 16.5t-88.5 5.5q-20 0 -42 -1.5t-43 -1.5
q-45 0 -78 16t-55 40.5t-33 55.5t-11 61v133h129v-108q0 -10 0.5 -25.5t8.5 -30t26 -25t53 -10.5q14 0 31 1.5t34.5 3.5t34.5 3.5t32 1.5q62 0 100 -15t62 -32v195q-1 1 -2.5 21t-11.5 44t-32 43.5t-64 19.5q-30 0 -48 -8t-27 -18.5t-12 -21t-3 -15.5v-2q24 30 70 30
q13 0 27.5 -4.5t27 -14.5t20.5 -25.5t8 -36.5q0 -19 -6.5 -38.5t-20.5 -35t-35 -25.5t-49 -10q-34 0 -63.5 12.5t-52 36t-35.5 56t-13 73.5q0 34 11.5 66t36.5 56t63.5 38.5t91.5 14.5q52 0 91.5 -15t65.5 -38zM680 276q25 -12 39 -12q16 0 27.5 10.5t11.5 25.5
q0 14 -10.5 24t-37.5 10v111l19 -2q11 2 20 11t9 24q0 14 -11.5 24.5t-27.5 10.5q-18 0 -36.5 -11t-18.5 -25q0 -5 1 -6v-19q9 -29 11.5 -51t2.5 -29l1 -91v-5z" />
    <glyph glyph-name="tta_beng" unicode="&#x99f;" horiz-adv-x="637" 
d="M375 229q9 7 11 10q-36 37 -36 91q0 27 10.5 51.5t28.5 43t42 29t52 10.5q56 0 95 -39q22 -23 28 -45t12 -53q0 -54 -23 -104t-68 -92.5t-112.5 -74.5t-156.5 -49q-15 -3 -28.5 -4t-26.5 -1q-32 0 -55.5 6.5t-40 15.5t-26.5 19t-15 18l-4 6q-1 1 -1 2l-1 466h-70v87h486
q0 3 0.5 6t0.5 6q0 29 -18 48.5t-56 19.5q-35 0 -83 -19q-47 -18 -88 -26.5t-77 -8.5q-72 0 -111 11l-24 136q72 -22 131 -22q37 0 71 7t63 14l39 9q34 6 59.5 8.5t43.5 2.5q57 0 93.5 -17.5t56.5 -43.5t27.5 -55.5t7.5 -54.5v-11q0 -7 -1 -10h36v-87h-447v-373l30 5
q30 5 70.5 19.5t74.5 42.5z" />
    <glyph glyph-name="ttha_beng" unicode="&#x9a0;" horiz-adv-x="575" 
d="M585 622v-87h-205q25 -17 55.5 -45t57.5 -64.5t45 -80t18 -92.5q0 -51 -17.5 -96.5t-53.5 -79.5t-89.5 -54.5t-125.5 -21.5q-52 0 -91.5 17t-69.5 42t-50.5 54.5t-33.5 54.5t-18.5 41t-5.5 15l14 -2q7 -1 16.5 -1.5t20.5 -0.5q26 0 58 5t60.5 21.5t47.5 47t19 80.5
q0 32 -9 70.5t-29 89.5h-209v87h176q-9 20 -12.5 39.5t-3.5 38.5q0 30 6.5 53.5t9.5 34.5l3 7h150q-16 -25 -22.5 -50t-6.5 -49q0 -20 4 -39t11 -35h280zM418 244v10q0 27 -8 48.5t-19.5 38t-25.5 29t-26 21.5q13 -40 13 -77q0 -42 -15.5 -70t-33.5 -44.5t-33.5 -24
t-15.5 -10.5t6.5 -6t15 -5t17.5 -3t14 -1q18 0 37 5.5t34.5 16.5t26.5 29t13 43z" />
    <glyph glyph-name="dda_beng" unicode="&#x9a1;" horiz-adv-x="720" 
d="M277 535h-287v87h740v-87h-314v-155h2q6 2 28 3l1 1q30 3 73.5 15t88.5 35l91 -98q1 -4 1 -13v-13q0 -48 -16.5 -101.5t-51 -98.5t-88 -74.5t-126.5 -29.5q-87 0 -149.5 20t-106 52.5t-70.5 74t-42 84t-21.5 83t-9.5 70.5h146v-2q0 -3 -0.5 -12t-0.5 -20q0 -26 7.5 -61.5
t30 -69.5t64.5 -60t110 -33q4 0 7.5 -0.5t7.5 -0.5q39 0 68 11.5t49 28.5t32.5 37t19 37.5t9 29t2.5 12.5q-7 -4 -21.5 -10.5t-34.5 -13t-43.5 -11.5t-48.5 -5q-20 0 -45.5 5.5t-48 19t-38 37.5t-15.5 62v164z" />
    <glyph glyph-name="ddha_beng" unicode="&#x9a2;" horiz-adv-x="637" 
d="M60 535h-70v87h657v-87h-444v-373l31 5q29 5 68.5 19.5t72.5 41.5l11 10q-37 37 -37 92q0 28 10.5 52.5t28.5 42.5t42.5 28.5t52.5 10.5q29 0 52.5 -11t41 -29.5t28 -43.5t13.5 -53q0 -54 -23 -104t-68.5 -92.5t-113 -74.5t-156.5 -49q-15 -3 -29 -4t-27 -1
q-31 0 -54 6.5t-39.5 15.5t-26.5 19t-15 18l-4 6q-1 1 -1 2l-1 1v465z" />
    <glyph glyph-name="nna_beng" unicode="&#x9a3;" horiz-adv-x="642" 
d="M602 535v-535h-139v319l-2 10q-21 77 -52 98l-14 10q-32 23 -59.5 32t-50.5 9q-20 0 -36 -6t-30 -16q82 -39 82 -129q0 -27 -11 -50.5t-29.5 -41t-43 -27t-50.5 -9.5t-47.5 9t-38.5 24l-3 3q-28 25 -43 57.5t-15 72.5q0 45 16 90.5t47 82t77 60t105 23.5q72 0 158 -40h1
q0 -1 11.5 -6.5t27.5 -17.5v65h189v-87h-50z" />
    <glyph glyph-name="ta_beng" unicode="&#x9a4;" horiz-adv-x="653" 
d="M-10 622h673v-87h-673v87zM500 289q-19 -30 -49 -45.5t-63 -15.5q-29 0 -52.5 10.5t-41 28.5t-28 42.5t-11.5 52.5q0 61 41 97.5t107 36.5q15 0 28.5 -1t22.5 -3l17 -3q37 -9 67 -32.5t51 -56t32.5 -72.5t11.5 -82q0 -46 -15 -90.5t-48.5 -79t-87.5 -56t-131 -21.5
q-91 0 -149.5 29t-92.5 70t-48 84t-17 72h-1q-1 22 -3 28v190h140v-186q2 -6 4.5 -20.5t8.5 -33t18 -39t32 -37.5t50 -28t74 -11q43 0 70 12t42.5 30t21 40t5.5 43q0 23 -4 38z" />
    <glyph glyph-name="tha_beng" unicode="&#x9a5;" horiz-adv-x="620" 
d="M266 369q11 17 16 34l-9 -9q-39 -39 -94 -39q-28 0 -52 10t-42 28t-28.5 42t-11.5 53q1 57 37.5 93.5t96.5 39.5l19 1q37 0 75.5 -11.5t70 -35t51.5 -59.5t20 -84q0 -36 -10 -66.5t-26 -55t-35 -43.5t-37 -32q45 -12 78.5 -26t55.5 -27v440h189v-87h-50v-535h-139v10
q-41 31 -86 53t-88.5 36.5t-84 22t-73.5 9.5l-69 4v115l28 8q19 4 47.5 14.5t57.5 25t54 33t39 38.5z" />
    <glyph glyph-name="da_beng" unicode="&#x9a6;" horiz-adv-x="597" 
d="M60 535h-70v87h617v-87h-408v-190l242 128l137 -28l-38 -185q-2 -4 -2 -8q0 -12 1.5 -29t8 -36.5t20.5 -40t40 -37.5l-75 -119q-44 29 -72 59.5t-43.5 59.5t-21.5 56t-6 50q0 18 2 31.5t6 24.5l5 17l2 10l-206 -108l-139 46v299z" />
    <glyph glyph-name="dha_beng" unicode="&#x9a7;" horiz-adv-x="621" 
d="M631 622v-87h-50v-535h-140v33q-39 26 -83 44t-87.5 29.5t-84 18.5t-72 10t-51 3.5t-22.5 0.5l-1 209l80 28q-65 57 -65 137q0 35 17.5 62.5t44 46t58 28.5t60.5 10q26 0 49 -6.5t40 -18t27 -28t10 -35.5q0 -13 -6 -29.5t-17.5 -31.5t-29 -25.5t-40.5 -10.5q-21 0 -39 6
t-27 11q-2 -2 -2 -5q0 -5 4.5 -13.5t15 -16t27.5 -13t41 -5.5q2 0 5.5 0.5t8.5 1.5l139 49v132h190zM351 232q50 -16 90 -38v148l-251 -89q48 0 87 -5t74 -16z" />
    <glyph glyph-name="na_beng" unicode="&#x9a8;" horiz-adv-x="643" 
d="M163 64q-43 0 -71 20.5t-44.5 46.5t-23 50.5t-6.5 32.5q0 45 11 86t38 82q23 35 51.5 56t55.5 31.5t50.5 13.5t37.5 3q70 0 161 -41l40 -24v114h-473v87h663v-87h-50v-535h-140v191q-8 33 -23 61t-31 39l-14 10q-35 25 -57.5 33t-36.5 8h-13q-36 0 -68 -20
q38 -16 60 -51.5t22 -74.5q0 -28 -11 -52t-29.5 -42t-42.5 -28t-50 -10h-6z" />
    <glyph glyph-name="pa_beng" unicode="&#x9aa;" horiz-adv-x="706" 
d="M667 535v-535h-140v328l-342 -184l-83 109l97 47q-20 45 -44 72.5t-43 38.5l-22 13l-90 112q163 85 284 85q88 0 148.5 -25t94.5 -59v85h189v-87h-49zM320 360l151 74q-35 27 -78 39t-82 12q-36 0 -69 -6q25 -20 44.5 -53.5t33.5 -65.5z" />
    <glyph glyph-name="pha_beng" unicode="&#x9ab;" horiz-adv-x="773" 
d="M783 622v-87h-527q20 -18 36 -38.5t21 -31.5l5 -7q5 -14 8 -26.5t3 -24.5q0 -20 -8 -38t-23 -35l-63 -64l11 -3q17 -5 51 -21t70 -52v202q21 114 141 114q43 0 86 -16t78 -46t57.5 -74.5t24.5 -101.5q-4 -88 -41 -136.5t-91 -48.5q-43 0 -72 29.5t-31 72.5q1 43 29 72
t74 30h5q0 7 -3 22t-13 29.5t-29 25.5t-50 11q-12 0 -22.5 -5.5t-10.5 -20.5v-353h-132v10q-34 50 -74.5 78.5t-78 42.5t-66.5 17.5t-40 3.5h-6l-82 93l143 125q8 6 11 15.5t3 18.5q0 33 -21.5 57t-48.5 40t-52.5 24t-32.5 10h-32v87h793z" />
    <glyph glyph-name="ba_beng" unicode="&#x9ac;" horiz-adv-x="620" 
d="M440 535h-450v87h640v-87h-50v-535h-140v33q-39 27 -82.5 48t-87 36t-83.5 25t-72 15l-75 12v210l400 112v44zM440 207v140l-225 -64q66 -4 117 -22t89 -41z" />
    <glyph glyph-name="bha_beng" unicode="&#x9ad;" horiz-adv-x="757" 
d="M-10 622h777v-87h-777v87zM723 390q5 -16 9.5 -38.5t4.5 -47.5q0 -23 -4.5 -53.5t-16 -63t-30.5 -64.5t-48 -59q-68 -62 -207 -63q-84 4 -146.5 26t-108 56.5t-75.5 78.5t-48 91.5t-25.5 96t-8.5 92.5h173q0 -1 -1 -11.5t-1 -27.5q0 -30 7.5 -74.5t33 -86t75.5 -71
t134 -29.5q43 0 69.5 11t40.5 25t18.5 28.5t4.5 20.5q0 3 -1 3h-1q-70 -43 -134 -43q-42 0 -77.5 16t-61.5 42t-40.5 58t-14.5 65q0 15 3 32.5t11.5 35t24.5 33t42 27.5q14 6 27.5 10t30.5 4q22 0 43 -8.5t38 -23.5t27.5 -36.5t10.5 -46.5q0 -42 -35 -77q12 -3 22 -3
q21 0 40.5 16.5t45.5 58.5q-1 0 8 13.5t12 39.5z" />
    <glyph glyph-name="ma_beng" unicode="&#x9ae;" horiz-adv-x="620" 
d="M440 312v223h-157q17 -25 34 -62.5t17 -86.5v-20q28 -7 56 -20.5t50 -33.5zM580 535v-535h-140v62q-9 41 -23.5 70.5t-31.5 49.5t-36 31.5t-38 17.5q12 -26 12 -51q0 -28 -12 -52.5t-32.5 -43t-48.5 -29t-60 -10.5q-34 0 -61.5 12t-47 32.5t-30.5 47.5t-11 58q0 30 13 57
t35 48.5t52 38t65 25.5q-1 22 -7 46t-20 46.5t-39.5 43t-65.5 35.5h-63v87h640v-87h-50z" />
    <glyph glyph-name="ya_beng" unicode="&#x9af;" horiz-adv-x="615" 
d="M40 535h-50v87h635v-87h-50v-535h-131v9q-30 43 -72.5 71.5t-87 45t-86.5 23.5t-70 9l-40 2l-68 139q58 5 92.5 16.5t52.5 25.5t23.5 27.5t5.5 21.5v9q-5 27 -21 48t-36.5 37.5t-42 27.5t-37.5 17zM444 535h-175q23 -20 40 -44t26 -44l2 -7q0 -1 1 -2l3 -7
q2 -8 4.5 -18.5t2.5 -23.5q0 -27 -16.5 -58.5t-67.5 -58.5l36 -8q13 -3 31.5 -9t38 -15.5t39 -21.5t35.5 -27v344z" />
    <glyph glyph-name="ra_beng" unicode="&#x9b0;" horiz-adv-x="620" 
d="M-10 622h640v-87h-50v-535h-139v34q-44 28 -90 51q0 20 -7.5 37.5t-20.5 30t-30.5 20t-36.5 7.5q-47 0 -75 -36q-52 11 -85 17t-56 8v210l401 112v44h-451v87zM441 206v141l-226 -64q75 -5 131.5 -27.5t94.5 -49.5zM317 84q0 26 -18 43.5t-43 17.5q-26 0 -43.5 -17.5
t-17.5 -43.5q0 -25 17.5 -43t43.5 -18q25 0 43 18t18 43z" />
    <glyph glyph-name="la_beng" unicode="&#x9b2;" horiz-adv-x="701" 
d="M522 535h-532v87h721v-87h-50v-535h-139l-1 303q-1 4 -5 12t-11 15.5t-18 13t-26 5.5t-25 -7l-10 -6l13 -20l-91 -63l-18 31q-8 17 -19 34.5t-26.5 31.5t-36 22.5t-48.5 8.5q-23 0 -36.5 -9t-20.5 -21t-8.5 -24.5t-1.5 -19.5v-6q13 16 31.5 24t38.5 8q23 0 40 -9.5
t28.5 -23.5t17 -30t5.5 -29q0 -21 -9.5 -40t-26 -33.5t-40 -23t-50.5 -8.5q-30 0 -56.5 13t-47 36.5t-32.5 56.5t-12 73q0 38 12 71t37.5 57.5t65.5 39t96 15.5q38 -4 69 -22t56 -44q17 23 43 37.5t54 14.5q32 0 69 -22v73z" />
    <glyph glyph-name="sha_beng" unicode="&#x9b6;" horiz-adv-x="723" 
d="M683 535v-535h-140v418q-16 39 -38.5 61.5t-64.5 22.5q-26 0 -42 -8.5t-24.5 -21t-11.5 -27t-3 -26.5q0 -25 3 -25q10 12 23.5 17t28.5 5q43 0 74.5 -28.5t31.5 -83.5q0 -21 -7.5 -42t-23.5 -37.5t-42 -27t-62 -10.5q-38 0 -66.5 14.5t-48.5 49.5q-21 -35 -49 -49.5
t-66 -14.5q-36 0 -62 10t-42.5 26.5t-24 37.5t-7.5 43q0 57 32 84.5t78 27.5q30 0 49 -22l3 14q1 6 2 14.5t1 18.5q0 15 -3.5 31.5t-12.5 30t-25.5 22.5t-42.5 10h-110v87l110 1q127 -1 174 -82l13 17q24 32 64 46.5t95 16.5q59 -3 97 -32v33h190v-87h-50z" />
    <glyph glyph-name="ssa_beng" unicode="&#x9b7;" horiz-adv-x="616" 
d="M444 535h-174q19 -17 32 -35.5t22 -32.5l2 -5h3q38 -8 63 -21t52 -28v122zM330 326l-9 -11q-11 -13 -25.5 -23t-31.5 -20l36 -8q13 -3 31.5 -9t38 -15.5t39 -21.5t35.5 -27v89l-13 9q-25 17 -51 25.5t-50 11.5zM40 535h-50v87h636v-87h-50v-535h-132v10q-29 42 -71.5 70
t-87 44.5t-86.5 24t-70 9.5h-8q-13 1 -21 1.5t-11 0.5l-69 139q58 5 92.5 16.5t52.5 25.5t23.5 27.5t5.5 21.5v9q-5 27 -21 48t-36.5 37.5t-42 27.5t-37.5 17h-2z" />
    <glyph glyph-name="sa_beng" unicode="&#x9b8;" horiz-adv-x="608" 
d="M428 98l-125 88q-17 -31 -38 -55.5t-42 -43t-41 -31t-34 -19.5l-25 -12l-123 102l5 3q44 26 80 51t61 54t38.5 64.5t13.5 83.5q0 46 -19.5 79t-54.5 73h-134v87h628v-87h-50v-535h-140v98zM340 426q2 -17 3 -34t1 -33v-16q0 -10 -1 -15l85 -59v266h-130l3 -3
q30 -47 39 -106z" />
    <glyph glyph-name="ha_beng" unicode="&#x9b9;" horiz-adv-x="561" 
d="M-10 622h581v-87h-581v87zM508 -46l-476 121l-33 140h1q3 0 5 -1l16 -3q13 -3 31.5 -6.5t38.5 -6.5t39.5 -4.5t34.5 -1.5q12 0 15 1h3q2 1 7 1t12 1h1q22 2 55 8.5t64 21.5t53.5 40.5t23.5 65.5q-1 17 -11 28t-24 17t-31 8t-32 2q-7 0 -13.5 -0.5t-11.5 -0.5l-14 -2
q25 -19 25 -47q0 -15 -7 -33t-21 -33.5t-35.5 -26t-49.5 -10.5q-25 0 -49 8t-43.5 24.5t-31.5 41t-12 57.5q0 38 19.5 67.5t52 50t75.5 31t91 10.5q51 0 98.5 -12.5t85 -38.5t60 -66.5t22.5 -97.5q0 -38 -14 -68.5t-36.5 -54t-51.5 -40t-59 -26.5l178 -43z" />
    <glyph glyph-name="signnuktacomb_beng" unicode="&#x9bc;" 
d="M27 -52q0 -25 -17.5 -42.5t-42.5 -17.5t-42.5 17.5t-17.5 42.5t17.5 42.5t42.5 17.5t42.5 -17.5t17.5 -42.5z" />
    <glyph glyph-name="vowelsignaa_beng" unicode="&#x9be;" horiz-adv-x="220" 
d="M180 535v-535h-140v535h-50v87h240v-87h-50z" />
    <glyph glyph-name="vowelsigni_beng" unicode="&#x9bf;" horiz-adv-x="220" 
d="M20 622l-30 53l8 16q6 13 18 33.5t30 43.5t42 46t55 42t69 30.5t84 11.5q22 0 45.5 -2.5t49.5 -9.5l54 -17q27 -9 61 -21t72 -27t78.5 -33t80.5 -39l-122 -94l-50 27q-24 13 -56 26.5t-67.5 24.5t-73 19.5t-71.5 11.5q-26 0 -49.5 -9t-43 -22t-34 -27.5t-23.5 -25.5
l-12 -15l24 -43h71v-87h-50v-534h-140v534h-50v87h30z" />
    <glyph glyph-name="vowelsignii_beng" unicode="&#x9c0;" horiz-adv-x="219" 
d="M40 535h-220v79l-2 8q-15 33 -32.5 54.5t-36.5 34t-37.5 17t-35.5 4.5q-15 -1 -27.5 -2.5t-21.5 -5.5l-15 -6l-81 113q60 32 112.5 54.5t97.5 39.5l13 5h2q1 0 2 1l3 1l10 4l4 1q1 0 2 1l9 3q2 0 3 1l7 3l3 1l29 10q22 6 42 8.5t40 2.5q45 0 83 -13.5t69.5 -35t56 -49.5
t43.5 -56.5t32.5 -55.5t21.5 -47l1 -2l13 -34l-30 -52h29v-87h-50v-534h-139v534zM-41 622h81l45 42q2 2 2 6q0 12 -10.5 39t-31 54.5t-51 48.5t-70.5 21q-5 0 -16 -2t-23 -5l-25 -6q-13 -3 -22 -5l-13 -4q40 -22 66 -46t41 -47t21 -43t6 -34v-19z" />
    <glyph glyph-name="vowelsignucomb_beng" unicode="&#x9c1;" 
d="M-235 -141q26 0 47 14.5t21 40.5q0 20 -15 31t-35 11q-26 0 -48 -16t-22 -40q0 -20 14.5 -30.5t37.5 -10.5zM-249 -243q-32 0 -60.5 8t-50 24.5t-34 41.5t-12.5 58q0 19 10.5 48t34.5 55t62.5 45t95.5 19q101 0 191 -43t177 -143l-63 -123q0 13 1 13q-70 118 -153 145
q-3 -29 -20 -55.5t-44 -47t-61.5 -33t-73.5 -12.5z" />
    <glyph glyph-name="vowelsignuucomb_beng" unicode="&#x9c2;" 
d="M39 -165q-32 -27 -62.5 -38t-62.5 -11q-39 0 -71.5 13.5t-56 35t-36.5 50t-13 58.5q0 26 11.5 51t28.5 46t36.5 36t35.5 21q46 18 111 21v-117q-4 1 -7.5 1.5t-8.5 0.5q-34 0 -54 -20.5t-20 -42.5t16.5 -34.5t39.5 -12.5q29 0 48 14.5t25 32.5h116l130 -156l-84 -87z" />
    <glyph glyph-name="vowelsignvocalicrcomb_beng" unicode="&#x9c3;" 
d="M-12 -235l-84 -86l-252 182l182 182l126 -43l-113 -132z" />
    <glyph glyph-name="vowelsigne_beng" unicode="&#x9c7;" horiz-adv-x="267" 
d="M82 535h-92v87h287v-87h-16q-84 -110 -84 -244q0 -47 10.5 -94t36.5 -89t70.5 -76.5t113.5 -56.5l-56 -141l-25 10q-1 1 -2 1l-6 3q-20 8 -49.5 25.5t-62 44.5t-64.5 64.5t-58 85.5t-42 107t-16 129q0 108 48 215z" />
    <glyph glyph-name="vowelsignai_beng" unicode="&#x9c8;" horiz-adv-x="267" 
d="M120 622l14 30q11 25 11 60q0 26 -8.5 55t-29.5 58l172 -1q1 0 1 -2l10 -16q8 -17 16 -41.5t8 -53.5q0 -23 -7 -46.5t-30 -46.5v-83h-16q-84 -110 -84 -244q0 -47 10.5 -94t36.5 -89t70.5 -76.5t113.5 -56.5l-56 -141l-25 10q-1 1 -2 1l-6 3q-20 8 -49.5 25.5t-62 44.5
t-64.5 64.5t-58 85.5t-42 107t-16 129q0 108 48 215l7 16h-92v87h130z" />
    <glyph glyph-name="vowelsigno_beng" unicode="&#x9cb;" horiz-adv-x="1135" 
d="M82 535h-92v87h287v-87h-16q-84 -110 -84 -244q0 -47 10.5 -94t36.5 -89t70.5 -76.5t113.5 -56.5l-56 -141l-25 10q-1 1 -2 1l-6 3q-20 8 -49.5 25.5t-62 44.5t-64.5 64.5t-58 85.5t-42 107t-16 129q0 108 48 215zM349 282q-18 0 -30.5 12t-12.5 30q0 20 12.5 31.5
t30.5 11.5t30.5 -11.5t12.5 -31.5q0 -18 -12.5 -30t-30.5 -12zM818 282q-17 0 -30 12t-13 30q0 20 13 31.5t30 11.5q18 0 30.5 -11.5t12.5 -31.5q0 -18 -12.5 -30t-30.5 -12zM540 559q0 19 13 31.5t31 12.5q17 0 29 -12.5t12 -31.5q0 -18 -12 -30.5t-29 -12.5
q-18 0 -31 12.5t-13 30.5zM540 90q0 18 13 31t31 13q17 0 29 -13t12 -31t-12 -30t-29 -12q-18 0 -31 12t-13 30zM664 550q5 10 16 16t22 6q20 0 30.5 -14t10.5 -31q0 -20 -13.5 -30.5t-28.5 -10.5q-17 0 -30.5 11.5t-13.5 31.5q0 11 7 21zM428 144q6 9 17 15t21 6
q18 0 30.5 -14t12.5 -31q0 -19 -14 -30.5t-30 -11.5q-20 0 -31 13.5t-11 29.5q0 1 1.5 6.5t3.5 16.5zM765 479q10 7 21 7q18 0 30.5 -12t12.5 -31q0 -18 -11.5 -30.5t-31.5 -12.5q-16 0 -29.5 11t-13.5 33t22 35zM358 245q22 5 21 5q18 0 31 -12.5t13 -29.5t-12.5 -30
t-30.5 -13q-17 0 -30 12.5t-13 29.5q0 23 21 38zM808 245q21 -14 21 -37q0 -19 -12.5 -31t-30.5 -12q-20 0 -31.5 13t-11.5 29q0 20 13.5 31.5t29.5 11.5q2 0 7.5 -2t14.5 -3zM401 479q22 -10 22 -36q0 -19 -13 -31t-31 -12q-17 0 -29.5 12.5t-12.5 31.5q0 16 13 29t30 13
q14 0 21 -7zM739 144q4 -7 4 -22q0 -16 -10.5 -30t-30.5 -14q-16 0 -30.5 12t-14.5 31q0 17 13 30.5t31 13.5q10 0 21 -5.5t17 -15.5zM504 550q2 -9 3.5 -13t1.5 -7q0 -18 -12.5 -31t-30.5 -13q-16 0 -29.5 11.5t-13.5 31.5q0 16 11 29.5t31 13.5q26 0 39 -22zM1095 535
v-535h-140v535h-50v87h240v-87h-50z" />
    <glyph glyph-name="vowelsignau_beng" unicode="&#x9cc;" horiz-adv-x="1135" 
d="M82 535h-92v87h287v-87h-16q-84 -110 -84 -244q0 -47 10.5 -94t36.5 -89t70.5 -76.5t113.5 -56.5l-56 -141l-25 10q-1 1 -2 1l-6 3q-20 8 -49.5 25.5t-62 44.5t-64.5 64.5t-58 85.5t-42 107t-16 129q0 108 48 215zM349 282q-18 0 -30.5 12t-12.5 30q0 20 12.5 31.5
t30.5 11.5t30.5 -11.5t12.5 -31.5q0 -18 -12.5 -30t-30.5 -12zM818 282q-17 0 -30 12t-13 30q0 20 13 31.5t30 11.5q18 0 30.5 -11.5t12.5 -31.5q0 -18 -12.5 -30t-30.5 -12zM540 559q0 19 13 31.5t31 12.5q17 0 29 -12.5t12 -31.5q0 -18 -12 -30.5t-29 -12.5
q-18 0 -31 12.5t-13 30.5zM540 90q0 18 13 31t31 13q17 0 29 -13t12 -31t-12 -30t-29 -12q-18 0 -31 12t-13 30zM664 550q5 10 16 16t22 6q20 0 30.5 -14t10.5 -31q0 -20 -13.5 -30.5t-28.5 -10.5q-17 0 -30.5 11.5t-13.5 31.5q0 11 7 21zM428 144q6 9 17 15t21 6
q18 0 30.5 -14t12.5 -31q0 -19 -14 -30.5t-30 -11.5q-20 0 -31 13.5t-11 29.5q0 1 1.5 6.5t3.5 16.5zM765 479q10 7 21 7q18 0 30.5 -12t12.5 -31q0 -18 -11.5 -30.5t-31.5 -12.5q-16 0 -29.5 11t-13.5 33t22 35zM358 245q22 5 21 5q18 0 31 -12.5t13 -29.5t-12.5 -30
t-30.5 -13q-17 0 -30 12.5t-13 29.5q0 23 21 38zM808 245q21 -14 21 -37q0 -19 -12.5 -31t-30.5 -12q-20 0 -31.5 13t-11.5 29q0 20 13.5 31.5t29.5 11.5q2 0 7.5 -2t14.5 -3zM401 479q22 -10 22 -36q0 -19 -13 -31t-31 -12q-17 0 -29.5 12.5t-12.5 31.5q0 16 13 29t30 13
q14 0 21 -7zM739 144q4 -7 4 -22q0 -16 -10.5 -30t-30.5 -14q-16 0 -30.5 12t-14.5 31q0 17 13 30.5t31 13.5q10 0 21 -5.5t17 -15.5zM504 550q2 -9 3.5 -13t1.5 -7q0 -18 -12.5 -31t-30.5 -13q-16 0 -29.5 11.5t-13.5 31.5q0 16 11 29.5t31 13.5q26 0 39 -22zM1095 535
v-535h-140v535h-50v87h45q3 7 3 16q0 49 -107 120q-41 27 -62 53.5t-31.5 52.5t-15 52t-13.5 52l94 101q2 -69 14.5 -113.5t50.5 -78t68 -58.5t71 -51.5t58 -62.5q10 -24 14 -43.5t4 -39.5h47v-87h-50z" />
    <glyph glyph-name="signviramacomb_beng" unicode="&#x9cd;" 
d="M26 -251l-77 83l-11 9q-18 15 -38.5 22t-37.5 7q-23 0 -46 -10l-74 79q68 44 129 44q78 0 145 -58l14 -12l80 -85z" />
    <glyph glyph-name="khandata_beng" unicode="&#x9ce;" horiz-adv-x="475" 
d="M336 318q-24 0 -45 9.5t-37 25t-25 37t-9 45.5q0 40 22 68l-16 -3q-21 -7 -34.5 -25t-13.5 -50q1 -27 13 -44.5t32 -33.5t45.5 -33.5t54.5 -42.5q91 -82 91 -199q0 -34 -13 -66h-175l5 16q7 20 9.5 42t2.5 44q0 84 -83 132l-6 3q-28 18 -49 34t-35.5 35t-22 43.5
t-7.5 59.5q0 10 2 29.5t8.5 42.5t19.5 47t35.5 43.5t55.5 32t80 12.5q22 0 53 -4.5t61.5 -20t55.5 -47t36 -85.5q4 -12 4 -30q0 -24 -9 -45t-24.5 -37t-36.5 -25.5t-45 -9.5z" />
    <glyph glyph-name="aulength_beng" unicode="&#x9d7;" horiz-adv-x="220" 
d="M180 535v-535h-140v535h-50v87h45q3 7 3 16q0 49 -107 120q-41 27 -62 53.5t-31.5 52.5t-15 52t-13.5 52l94 101q2 -69 14.5 -113.5t50.5 -78t68 -58.5t71 -51.5t58 -62.5q10 -24 14 -43.5t4 -39.5h47v-87h-50z" />
    <glyph glyph-name="rra_beng" unicode="&#x9dc;" horiz-adv-x="722" 
d="M490 15q-31 55 -87 55q-27 0 -51 -14t-35 -40q-63 12 -108.5 36.5t-77.5 57t-52.5 69.5t-32.5 74.5t-17.5 73t-8.5 63.5h146v-2q0 -3 -0.5 -12t-0.5 -20q0 -26 7.5 -61.5t30 -69.5t64.5 -60t110 -33q4 0 7.5 -0.5t7.5 -0.5q39 0 68 11.5t49 28.5t32.5 37t19 37.5t9 29
t2.5 12.5q-7 -4 -21.5 -10.5t-34.5 -13t-43.5 -11.5t-48.5 -5q-20 0 -45.5 5.5t-48 19t-38 37.5t-15.5 62v164h-287v87h742v-87h-316v-155h2q11 1 35 4t67.5 15t88.5 35l91 -98q1 -5 1 -14v-13q0 -39 -12.5 -85t-38 -88.5t-65.5 -75.5t-95 -45zM462 -25q0 -25 -17.5 -42.5
t-42.5 -17.5t-42.5 17.5t-17.5 42.5t17.5 42.5t42.5 17.5t42.5 -17.5t17.5 -42.5z" />
    <glyph glyph-name="rha_beng" unicode="&#x9dd;" horiz-adv-x="633" 
d="M643 535h-441l1 -370q38 6 66.5 14.5t60 23t54.5 38.5q-37 37 -37 92q0 27 10.5 51t28.5 42t42.5 28.5t51.5 10.5q25 0 49.5 -10t43 -28t30 -42t11.5 -52q0 -36 -11.5 -73t-35.5 -72t-60 -66.5t-85 -56.5q-29 44 -80 44q-20 0 -37 -7.5t-30 -20t-20.5 -30t-7.5 -36.5v-5
q-11 -2 -23 -3t-23 -1q-29 0 -52.5 6.5t-40.5 15.5t-27.5 18.5t-14.5 16.5l-6 11v461h-70v87h653v-87zM403 15q0 25 -18 42.5t-43 17.5t-42.5 -17.5t-17.5 -42.5q0 -26 17.5 -43.5t42.5 -17.5t43 17.5t18 43.5z" />
    <glyph glyph-name="yya_beng" unicode="&#x9df;" horiz-adv-x="615" 
d="M444 535h-175q23 -20 40 -44t26 -44l2 -7q0 -1 1 -2l3 -7q2 -8 4.5 -18.5t2.5 -23.5q0 -27 -16.5 -58.5t-67.5 -58.5l36 -8q13 -3 31.5 -9t38 -15.5t39 -21.5t35.5 -27v344zM333 82q0 -25 -17.5 -42.5t-42.5 -17.5t-42.5 17.5t-17.5 42.5t17.5 42.5t42.5 17.5t42.5 -17.5
t17.5 -42.5zM369 83q-2 42 -29 69t-67 27t-68 -28l-2 -3q-22 4 -40.5 6.5t-34.5 3.5l-40 2l-68 139q58 5 92.5 16.5t52.5 25.5t23.5 27.5t5.5 21.5v9q-5 26 -21 47.5t-36.5 38t-42 27.5t-37.5 17l-17 6h-50v87h635v-87h-50v-535h-131v9q-31 46 -75 74z" />
    <glyph glyph-name="zero_beng" unicode="&#x9e6;" horiz-adv-x="580" 
d="M296 539q54 0 102 -18.5t84 -50.5t57 -75t21 -92t-21 -92t-57 -75t-84 -50.5t-102 -18.5t-102 18.5t-84 50.5t-57 75t-21 92t21 92t57 75t84 50.5t102 18.5zM296 193q25 0 47.5 9t39 24t26 35t9.5 42t-9.5 42t-26 35t-39 23.5t-47.5 8.5q-26 0 -48 -8.5t-38.5 -23.5
t-26 -35t-9.5 -42q0 -23 9.5 -43t26 -35t38.5 -23.5t48 -8.5z" />
    <glyph glyph-name="one_beng" unicode="&#x9e7;" horiz-adv-x="467" 
d="M383 75q-20 -30 -61 -48.5t-85 -18.5q-31 0 -59.5 9.5t-50.5 26.5t-35 40.5t-13 50.5q0 25 12.5 48t35 40.5t52.5 27.5t65 10q22 0 40.5 -5t40.5 -13v3q0 48 -21 88t-56 71.5t-81.5 53t-97.5 32.5l-33 6l123 83l54 -23q52 -22 95 -54t74 -71t48 -85t17 -95
q0 -55 -17.5 -96.5t-33.5 -63.5h-1q-4 -7 -7 -11t-5 -6z" />
    <glyph glyph-name="two_beng" unicode="&#x9e8;" horiz-adv-x="537" 
d="M465 0l-360 195l-28 112l14 -4q9 -3 24 -5.5t31.5 -5t33.5 -4t30 -2.5q4 0 8.5 0.5t9.5 1.5q0 -1 8 -1q10 0 30.5 3.5t41 13t35.5 26t15 42.5q0 45 -88 70.5t-253 43.5l86 94q8 -2 20.5 -1.5t35.5 -1.5q15 -1 48 -5t72.5 -13.5t81.5 -25t77 -40.5t57 -59.5t22 -81.5
q0 -27 -13 -51t-33.5 -43.5t-46 -33.5t-50.5 -21l140 -93z" />
    <glyph glyph-name="three_beng" unicode="&#x9e9;" horiz-adv-x="642" 
d="M463 493q38 -10 68 -33.5t50.5 -55.5t31 -72t10.5 -83q-1 -42 -17 -82.5t-49.5 -73t-85.5 -52t-125 -19.5q-75 0 -126.5 19.5t-85.5 49.5t-53 65t-28 65t-11 51.5t-2 23.5v284h137v-280q1 0 2.5 -12t6.5 -30.5t16 -39.5t31 -39.5t50.5 -30.5t75.5 -12q46 0 73.5 11.5
t41.5 29.5t18 39.5t4 41.5q0 28 -4 43q-40 -58 -110 -58q-27 0 -52.5 9.5t-45 27t-32 41t-13.5 51.5q1 30 14.5 54t35 40t50 24.5t58.5 8.5q26 0 45.5 -3.5t20.5 -2.5z" />
    <glyph glyph-name="four_beng" unicode="&#x9ea;" horiz-adv-x="620" 
d="M392 389q51 18 51 54v2q0 35 -51 55l-73 23l-74 -23q-50 -20 -50 -55v-2q0 -37 50 -54l74 -25zM392 123q51 19 51 54v2q0 36 -51 56l-73 23l-74 -23q-50 -20 -50 -56v-2q0 -34 50 -54l74 -24zM170 311l-26 8q-107 42 -107 117v15q0 75 107 117l175 55l174 -55
q108 -42 108 -117v-15q0 -75 -108 -117l-26 -8l26 -8q108 -42 108 -117v-15q0 -75 -108 -117l-174 -55l-175 55q-107 42 -107 117v15q0 75 107 117z" />
    <glyph glyph-name="five_beng" unicode="&#x9eb;" horiz-adv-x="816" 
d="M395 539l10 36h154l-68 -243l34 3q34 3 83 13t98 31l100 -86q1 -3 1 -11v-12q0 -41 -17.5 -87t-54 -85.5t-93.5 -65.5t-135 -26q-101 0 -175.5 17.5t-127.5 47.5t-86.5 68.5t-53 80.5t-27 84t-7.5 79q0 52 6.5 101t16.5 94h161q-2 -8 -10.5 -32t-15.5 -53h11
q17 0 42.5 1.5t53 6.5t54 14t46.5 24zM172 393q0 -45 11 -88t41 -79.5t84 -64.5t140 -44q12 -2 23 -3t22 -1q37 0 64 10t46 25t31.5 33t19 33t9 25.5t2.5 11.5q-8 -3 -24.5 -9t-38.5 -11.5t-48 -10t-54 -4.5q-22 0 -50 4.5t-53 16.5t-42 33t-17 54l22 81l-16 -4
q-26 -7 -52 -11.5t-56 -4.5q-27 0 -64 8z" />
    <glyph glyph-name="six_beng" unicode="&#x9ec;" horiz-adv-x="804" 
d="M784 293q1 -4 1 -12v-11q0 -41 -18.5 -87.5t-56.5 -85.5t-97.5 -64.5t-141.5 -25.5q-97 0 -167 22.5t-118.5 60t-77 85.5t-42.5 100q-29 112 -35 204h161q0 -2 -0.5 -10.5t-0.5 -23.5q0 -22 2.5 -55t11.5 -69.5t25.5 -73t45 -65.5t70 -47.5t99.5 -18.5q65 0 104 20.5
t60 45.5t27.5 46t6.5 23q-8 -3 -24.5 -9t-38.5 -11.5t-48 -10t-54 -4.5q-22 0 -50 4.5t-53 16.5t-42 33t-17 54v251h153v-243q-1 0 19.5 1.5t52 6t70 14t73.5 25.5z" />
    <glyph glyph-name="seven_beng" unicode="&#x9ed;" horiz-adv-x="570" 
d="M425 205q-56 -28 -132 -28q-54 0 -101 16t-82.5 43.5t-56 64.5t-20.5 79t21 79t56.5 64.5t82.5 43.5t100 16q52 0 99 -16t82.5 -43.5t56.5 -64.5t21 -79v-10q0 -6 -1 -9v-356h-126v200zM293 286q25 0 47 7.5t38 20.5t25.5 30t9.5 36t-10 36t-26.5 30t-38 20.5t-45.5 7.5
q-25 0 -47 -7.5t-38 -20t-25.5 -30t-9.5 -36.5q0 -20 9.5 -37t25.5 -29.5t38 -20t47 -7.5z" />
    <glyph glyph-name="eight_beng" unicode="&#x9ee;" horiz-adv-x="695" 
d="M45 217q0 7 1 10v356h126v-200q56 28 132 28q48 0 90 -12l280 25l14 -98l-160 -15q35 -47 35 -103q0 -42 -20.5 -79t-56 -64.5t-82.5 -43.5t-100 -16t-100 16t-82.5 43.5t-56 64.5t-20.5 79v9zM304 302q-25 0 -47 -7.5t-38 -20t-25.5 -30t-9.5 -36.5q0 -20 9.5 -37
t25.5 -29.5t38 -20t47 -7.5t47 7.5t38 20t25.5 29.5t9.5 37q0 19 -9.5 36.5t-25.5 30t-38 20t-47 7.5z" />
    <glyph glyph-name="nine_beng" unicode="&#x9ef;" horiz-adv-x="655" 
d="M344 151l-20 -18q-50 -39 -120 -39q-35 0 -66 10.5t-54.5 28.5t-37 42.5t-13.5 52.5q0 27 13.5 51t36 42t52.5 28.5t64 11.5h5q113 0 176.5 -46t86.5 -124q19 47 19 91q0 12 -4 32t-16.5 43.5t-36.5 49t-63 48t-96.5 40.5t-137.5 27l-55 6l117 103l62 -11
q75 -13 143.5 -40t121 -70.5t84 -104t31.5 -140.5q0 -39 -10 -82.5t-36 -82.5q-26 -38 -53.5 -60.5t-47.5 -32.5l-20 -10l-135 45q27 24 27 55q0 23 -13 48z" />
    <glyph glyph-name="ramiddlediagonal_beng" unicode="&#x9f0;" horiz-adv-x="620" 
d="M440 237q-37 23 -80 38.5t-94 22.5l-51 -15q66 -4 117 -22t89 -41l19 -13v30zM351 322q43 -6 89 -20v45zM440 535h-450v87h640v-87h-50v-535h-140v33q-39 27 -82.5 48t-87 36t-83.5 25t-72 15l-75 12v210l400 112v44z" />
    <glyph glyph-name="ralowerdiagonal_beng" unicode="&#x9f1;" horiz-adv-x="620" 
d="M440 535h-450v87h640v-87h-50v-535h-140v33q-39 27 -82.5 48t-87 36t-83.5 25t-72 15l-75 12v210l400 112v44zM440 207v140l-225 -64q66 -4 117 -22t89 -41zM411 -91q-138 110 -359 146v63q229 -18 359 -118v-91z" />
    <glyph glyph-name="rupeesign_beng" unicode="&#x9f3;" horiz-adv-x="630" 
d="M402 230l-2 2q-35 35 -35 85q0 25 9.5 47t26 38.5t38.5 26t46 9.5q25 0 47.5 -9.5t39 -26t26 -39t9.5 -48.5q0 -18 -6 -44.5t-17.5 -55t-27 -57t-34.5 -50.5q-13 -15 -35.5 -30t-52 -28t-64.5 -21t-73 -8q-29 0 -50.5 5.5t-36.5 14t-24.5 17.5t-13.5 16l-4 5q-2 2 -2 3
v293h-36v78h36v9h4v4q0 8 -2 18.5t-7.5 20.5t-16 16.5t-28.5 6.5q-26 0 -65 -12l-35 97q38 11 68 13t48 2q52 0 84.5 -16t51 -39t25 -50t6.5 -49v-11q0 -7 -1 -10h39v-78h-40v-210l17 5q17 5 40 17t44 38z" />
    <glyph glyph-name="zwnj" unicode="&#x200c;" 
 />
    <glyph glyph-name="zwj" unicode="&#x200d;" 
 />
    <glyph glyph-name="endash" unicode="&#x2013;" horiz-adv-x="571" 
d="M506 252h-464l32 126h465z" />
    <glyph glyph-name="emdash" unicode="&#x2014;" horiz-adv-x="775" 
d="M713 252h-671l32 126h672z" />
    <glyph glyph-name="quoteleft" unicode="&#x2018;" horiz-adv-x="270" 
d="M172 727l77 -58q-31 -21 -49.5 -34.5t-28 -22.5t-13 -16t-5.5 -16q25 -8 45.5 -36t20.5 -65q0 -33 -21 -59t-57 -26q-45 0 -73 36.5t-28 91.5q0 20 5.5 43.5t20 50t40 54.5t66.5 57z" />
    <glyph glyph-name="quoteright" unicode="&#x2019;" horiz-adv-x="268" 
d="M149 406l-88 37q26 29 40.5 46.5t21 28.5t8 18.5t1.5 16.5q-16 1 -32 10t-29.5 23t-22 32.5t-8.5 39.5q0 30 20.5 55t58.5 25q27 0 48 -14t35.5 -35t22 -46t7.5 -47q0 -39 -16 -84.5t-67 -105.5z" />
    <glyph glyph-name="quotedblleft" unicode="&#x201c;" horiz-adv-x="481" 
d="M172 727l77 -58q-31 -21 -49.5 -34.5t-28 -22.5t-13 -16t-5.5 -16q25 -8 45.5 -36t20.5 -65q0 -33 -21 -59t-57 -26q-45 0 -73 36.5t-28 91.5q0 20 5.5 43.5t20 50t40 54.5t66.5 57zM382 727l77 -58q-31 -21 -49.5 -34.5t-28 -22.5t-13 -16t-5.5 -16q25 -8 45.5 -36
t20.5 -65q0 -33 -21 -59t-57 -26q-45 0 -73 36.5t-28 91.5q0 20 5.5 43.5t20 50t40 54.5t66.5 57z" />
    <glyph glyph-name="quotedblright" unicode="&#x201d;" horiz-adv-x="487" 
d="M149 406l-88 37q26 29 40.5 46.5t21 28.5t8 18.5t1.5 16.5q-16 1 -32 10t-29.5 23t-22 32.5t-8.5 39.5q0 30 20.5 55t58.5 25q27 0 48 -14t35.5 -35t22 -46t7.5 -47q0 -39 -16 -84.5t-67 -105.5zM364 406l-88 37q26 29 40.5 46.5t21 28.5t8 18.5t1.5 16.5q-16 1 -32 10
t-29.5 23t-22 32.5t-8.5 39.5q0 30 20.5 55t58.5 25q27 0 48 -14t35.5 -35t22 -46t7.5 -47q0 -39 -16 -84.5t-67 -105.5z" />
    <glyph glyph-name="indianrupeesign" unicode="&#x20b9;" horiz-adv-x="695" 
d="M402 530l-28 5h-327v87h612v-87h-77q10 -33 12 -74h65v-87h-75q-18 -60 -60 -98.5t-91 -58.5l239 -69l-53 -146l-535 162l-33 168h1q2 0 7 -0.5t13 -4.5h1q13 -3 32.5 -7t39.5 -7.5t39.5 -6t34.5 -2.5q10 0 13 1h3q5 2 19 3h1q13 1 33.5 5t42.5 11.5t43.5 19.5t38.5 30
h-366v87h404v9q-1 27 -15 40.5t-34 19.5z" />
    <glyph glyph-name="dottedcircle" unicode="&#x25cc;" horiz-adv-x="648" 
d="M82 282q-18 0 -30.5 12t-12.5 30q0 20 12.5 31.5t30.5 11.5t30.5 -11.5t12.5 -31.5q0 -18 -12.5 -30t-30.5 -12zM551 282q-17 0 -30 12t-13 30q0 20 13 31.5t30 11.5q18 0 30.5 -11.5t12.5 -31.5q0 -18 -12.5 -30t-30.5 -12zM273 559q0 19 13 31.5t31 12.5q17 0 29 -12.5
t12 -31.5q0 -18 -12 -30.5t-29 -12.5q-18 0 -31 12.5t-13 30.5zM273 90q0 18 13 31t31 13q17 0 29 -13t12 -31t-12 -30t-29 -12q-18 0 -31 12t-13 30zM397 550q5 10 16 16t22 6q20 0 30.5 -14t10.5 -31q0 -20 -13.5 -30.5t-28.5 -10.5q-17 0 -30.5 11.5t-13.5 31.5
q0 11 7 21zM161 144q6 9 17 15t21 6q18 0 30.5 -14t12.5 -31q0 -19 -14 -30.5t-30 -11.5q-20 0 -31 13.5t-11 29.5q0 1 1.5 6.5t3.5 16.5zM498 479q10 7 21 7q18 0 30.5 -12t12.5 -31q0 -18 -11.5 -30.5t-31.5 -12.5q-16 0 -29.5 11t-13.5 33t22 35zM91 245q22 5 21 5
q18 0 31 -12.5t13 -29.5t-12.5 -30t-30.5 -13q-17 0 -30 12.5t-13 29.5q0 23 21 38zM541 245q21 -14 21 -37q0 -19 -12.5 -31t-30.5 -12q-20 0 -31.5 13t-11.5 29q0 20 13.5 31.5t29.5 11.5q2 0 7.5 -2t14.5 -3zM134 479q22 -10 22 -36q0 -19 -13 -31t-31 -12
q-17 0 -29.5 12.5t-12.5 31.5q0 16 13 29t30 13q14 0 21 -7zM472 144q4 -7 4 -22q0 -16 -10.5 -30t-30.5 -14q-16 0 -30.5 12t-14.5 31q0 17 13 30.5t31 13.5q10 0 21 -5.5t17 -15.5zM237 550q2 -9 3.5 -13t1.5 -7q0 -18 -12.5 -31t-30.5 -13q-16 0 -29.5 11.5t-13.5 31.5
q0 16 11 29.5t31 13.5q26 0 39 -22z" />
    <glyph glyph-name="ekar_initial_bn" horiz-adv-x="267" 
d="M97 569l21 53h159v-87h-16q-84 -110 -84 -244q0 -47 10.5 -94t36.5 -89t70.5 -76.5t113.5 -56.5l-56 -141l-25 10q-1 1 -2 1l-6 3q-20 8 -49.5 25.5t-62 44.5t-64.5 64.5t-58 85.5t-42 107t-16 129q-1 54 12 107.5t36 107.5z" />
    <glyph glyph-name="oikar_initial_bn" horiz-adv-x="267" 
d="M261 535q-84 -110 -84 -244q0 -47 10.5 -94t36.5 -89t70.5 -76.5t113.5 -56.5l-56 -141l-25 10q-1 1 -2 1l-6 3q-20 8 -49.5 25.5t-62 44.5t-64.5 64.5t-58 85.5t-42 107t-16 129q-1 54 11.5 107.5t36.5 107.5l37 84l2 5l20 44q11 25 11 60q0 26 -8.5 55t-29.5 58l172 -1
q1 0 1 -2l10 -16q8 -18 16 -43.5t8 -56.5q0 -44 -37 -84v-87h-16z" />
    <glyph glyph-name="k_ko_bn" horiz-adv-x="873" 
d="M582 237h11q43 0 76.5 -14.5t56.5 -38t35.5 -52.5t12.5 -58q0 -21 -8 -39.5t-22 -32.5t-33 -22t-41 -8q-29 0 -48 20.5t-19 45.5q0 26 14 45.5t37 19.5q17 0 24 -7q0 4 -5 11t-14.5 14.5t-23.5 13.5t-32 8h-11q-7 0 -10 -1v-252h-140v14q-27 19 -59 33.5t-64 25
t-62.5 17.5t-54.5 11l-54 8v146l148 37q-38 16 -81.5 25.5t-81 15t-63.5 7.5t-29 3l-1 175l402 88v39h-452v87h893v-87h-301v-20q5 1 9 1h28q55 0 99 -15.5t74 -40.5t46 -56.5t16 -63.5q0 -24 -11.5 -46.5t-30.5 -40.5t-44 -28.5t-51 -10.5q-23 0 -41.5 8t-32.5 21.5
t-21.5 30t-7.5 34.5q0 14 5.5 27t14 22.5t19.5 15.5t23 6q17 0 33 -5.5t24 -12.5q0 1 -2 3l-3 4q-8 11 -34 24.5t-78 15.5q-8 0 -16.5 -0.5t-17.5 -1.5v-169zM210 325q166 -31 232 -75v126zM402 51q11 -5 21.5 -9.5t18.5 -9.5v87l-170 -41q82 -7 130 -27z" />
    <glyph glyph-name="k_tto_bn" horiz-adv-x="847" 
d="M338 167q-29 18 -61 32.5t-63.5 25t-61 18t-52.5 11.5l-9 1q-1 1 -2 1l-48 8v170l297 73v28h-348v87h651q3 15 3 28q0 29 -18 48t-55 19q-38 0 -86 -19q-92 -36 -166 -36q-73 0 -112 11l-23 137q38 -11 72 -15.5t64 -4.5q38 0 70 6t61 14l39 9q34 6 59.5 8.5t43.5 2.5
q57 0 93.5 -17.5t57.5 -43.5t29 -56.5t8 -55.5q0 -10 -0.5 -18.5t-1.5 -16.5h78v-87h-396v-11q8 1 16 1.5t16 0.5q43 0 77 -15t57 -39t35 -53t12 -57q0 -21 -8 -39.5t-22 -32.5t-33.5 -22.5t-41.5 -8.5q-29 0 -48.5 20t-19.5 46q0 29 15.5 47.5t35.5 18.5q16 0 24 -6l-3 6
q-6 9 -24.5 22t-53.5 13q-12 0 -34 -5v-357h26q13 0 29.5 2t34.5 7.5t35 14.5t31 23q-10 9 -19 22t-9 36q0 24 9.5 45.5t25.5 37.5t37.5 25t45.5 9q25 0 47 -10t38.5 -27t26 -40t9.5 -50q0 -50 -27 -89.5t-72.5 -69.5t-104 -49t-121.5 -27q-9 -1 -17 -1.5t-16 -0.5
q-39 0 -64.5 8.5t-40.5 19.5t-21 21t-6 12v184zM338 395l-164 -41q38 -5 72 -12t60 -22l32 -18v93z" />
    <glyph glyph-name="k_tt_ro_bn" horiz-adv-x="847" 
d="M338 167q-29 18 -61 32.5t-63.5 25t-61 18t-52.5 11.5l-9 1q-1 1 -2 1l-48 8v170l297 73v28h-348v87h651q3 15 3 28q0 29 -18 48t-55 19q-38 0 -86 -19q-92 -36 -166 -36q-73 0 -112 11l-23 137q38 -11 72 -15.5t64 -4.5q38 0 70 6t61 14l39 9q34 6 59.5 8.5t43.5 2.5
q57 0 93.5 -17.5t57.5 -43.5t29 -56.5t8 -55.5q0 -10 -0.5 -18.5t-1.5 -16.5h78v-87h-396v-11q8 1 16 1.5t16 0.5q43 0 77 -15t57 -39t35 -53t12 -57q0 -21 -8 -39.5t-22 -32.5t-33.5 -22.5t-41.5 -8.5q-29 0 -48.5 20t-19.5 46q0 29 15.5 47.5t35.5 18.5q16 0 24 -6l-3 6
q-6 9 -24.5 22t-53.5 13q-12 0 -34 -5v-357h26q13 0 29.5 2t34.5 7.5t35 14.5t31 23q-10 9 -19 22t-9 36q0 24 9.5 45.5t25.5 37.5t37.5 25t45.5 9q25 0 47 -10t38.5 -27t26 -40t9.5 -50q0 -18 -6.5 -37.5t-17.5 -39t-27 -38.5t-35 -34v-315h-143v34q-18 9 -40 14.5t-48 5.5
q-30 0 -64 -8.5t-76 -27.5q-38 -17 -74 -17q-27 0 -51 12.5t-42.5 34.5t-32 50.5t-19.5 61.5l108 47q5 -36 18.5 -56t39.5 -20q12 0 25.5 4.5t32.5 13.5q38 18 72.5 25.5t63.5 7.5q26 0 47.5 -5t39.5 -13v84q-29 -9 -63 -15t-66 -6q-39 0 -64.5 8.5t-40.5 19.5t-21 21t-6 12
v184zM338 395l-164 -41q38 -5 72 -12t60 -22l32 -18v93z" />
    <glyph glyph-name="k_to_bn" horiz-adv-x="827" 
d="M309 535h-319v87h847v-87h-357q48 -17 72 -47.5t29 -81.5q6 1 12 1.5t11 0.5q42 0 79 -16t64.5 -41.5t43.5 -57t16 -61.5t-10.5 -52.5t-26.5 -37t-34.5 -21.5t-34.5 -7q-19 0 -36 7t-30.5 19t-21.5 29t-8 38q1 16 9.5 28t20 20t24.5 12.5t24 6.5l-15 7q-24 11 -59 11
q-19 0 -39.5 -6t-40.5 -20l10 -10q45 -51 45 -111q0 -26 -11.5 -52t-36.5 -47t-65 -34.5t-97 -13.5q-74 0 -129 21t-94 54t-64.5 75.5t-40.5 84.5t-20.5 81t-5.5 66v15q0 10 1 14l1 11q1 9 1 15t1 8v2h119v-16q0 -99 24 -159.5t59 -94t75 -45t73 -11.5q23 0 38 3l21 3
q27 8 34.5 23t9.5 27v6q-5 -10 -27.5 -20.5t-50.5 -10.5q-14 0 -28.5 4t-26.5 13t-19.5 24t-7.5 38q0 26 20 50.5t71 33.5l5 2q19 8 33.5 28.5t14.5 58.5q0 12 -4.5 19.5t-11.5 12t-14 6.5t-11 2h-4q21 -15 21 -41q0 -14 -6 -29.5t-19.5 -28t-34.5 -20.5t-50 -8
q-19 0 -38 5.5t-34.5 17.5t-25 30.5t-9.5 45.5q0 45 23.5 75t65.5 46z" />
    <glyph glyph-name="k_t_bo_bn" horiz-adv-x="827" 
d="M309 535h-319v87h847v-87h-357q48 -17 72 -47.5t29 -81.5q6 1 12 1.5t11 0.5q42 0 79 -16t64.5 -41.5t43.5 -57t16 -61.5t-10.5 -52.5t-26.5 -37t-34.5 -21.5t-34.5 -7q-19 0 -36 7t-30.5 19t-21.5 29t-8 38q1 16 9.5 28t20 20t24.5 12.5t24 6.5l-15 7q-24 11 -59 11
q-19 0 -39.5 -6t-40.5 -20l10 -10q45 -51 45 -111q0 -31 -11.5 -55.5t-39.5 -44.5v-256h-141v30q-22 15 -47 26.5t-50.5 20.5t-49 14.5t-42.5 8.5h-3q-16 2 -25 3t-11 2l-1 116l63 18q-67 27 -107.5 73.5t-62.5 98t-29 100t-7 80.5v15q0 10 1 14l1 11q1 9 1 15t1 8v2h119
v-16q0 -99 24 -159.5t59 -94t75 -45t73 -11.5q23 0 38 3l21 3q27 8 34.5 23t9.5 27v6q-5 -10 -27.5 -20.5t-50.5 -10.5q-14 0 -28.5 4t-26.5 13t-19.5 24t-7.5 38q0 26 20 50.5t71 33.5l5 2q19 8 33.5 28.5t14.5 58.5q0 12 -4.5 19.5t-11.5 12t-14 6.5t-11 2h-4
q21 -15 21 -41q0 -14 -6 -29.5t-19.5 -28t-34.5 -20.5t-50 -8q-19 0 -38 5.5t-34.5 17.5t-25 30.5t-9.5 45.5q0 45 23.5 75t65.5 46zM392 -7l-128 -31q48 -4 78 -13.5t47 -19.5l3 -2v66z" />
    <glyph glyph-name="k_t_ro_bn" horiz-adv-x="827" 
d="M309 535h-319v87h847v-87h-357q48 -17 72 -47.5t29 -81.5q6 1 12 1.5t11 0.5q42 0 79 -16t64.5 -41.5t43.5 -57t16 -61.5t-10.5 -52.5t-26.5 -37t-34.5 -21.5t-34.5 -7q-19 0 -36 7t-30.5 19t-21.5 29t-8 38q1 16 9.5 28t20 20t24.5 12.5t24 6.5l-15 7q-24 11 -59 11
q-19 0 -39.5 -6t-40.5 -20l10 -10q45 -51 45 -111q0 -12 -2 -25t-7 -25v-307h-143v37q-17 8 -39 13t-46 5q-29 0 -61 -9.5t-70 -26.5q-39 -18 -73 -18q-27 0 -50.5 12.5t-42 34.5t-31.5 51.5t-19 63.5l116 34q1 -1 1 -3q2 -9 6.5 -20t11 -20t15.5 -15t21 -6q16 0 49 16
q74 34 134 34q42 0 78 -14v46q-14 -2 -27.5 -3.5t-27.5 -1.5q-75 0 -130.5 20.5t-95 54t-65 75.5t-40.5 84.5t-20.5 81.5t-5.5 66v15q0 10 1 14l1 11q1 9 1 15t1 8v2h119v-16q0 -99 24 -159.5t59 -94t75 -45t73 -11.5q23 0 38 3l21 3q27 8 34.5 23t9.5 27v6
q-5 -10 -27.5 -20.5t-50.5 -10.5q-14 0 -28.5 4t-26.5 13t-19.5 24t-7.5 38q0 26 20 50.5t71 33.5l5 2q19 8 33.5 28.5t14.5 58.5q0 12 -4.5 19.5t-11.5 12t-14 6.5t-11 2h-4q21 -15 21 -41q0 -14 -6 -29.5t-19.5 -28t-34.5 -20.5t-50 -8q-19 0 -38 5.5t-34.5 17.5t-25 30.5
t-9.5 45.5q0 45 23.5 75t65.5 46z" />
    <glyph glyph-name="k_no_bn" horiz-adv-x="874" 
d="M583 516q4 1 8 1h25q57 0 101.5 -15.5t75 -40.5t46.5 -56.5t16 -64.5q0 -24 -11 -46.5t-30 -40t-43.5 -28.5t-51.5 -11q-23 0 -42 8t-33 21.5t-21.5 30t-7.5 34.5q0 14 5.5 27t14 22.5t19.5 15.5t23 6q17 0 33 -5.5t25 -12.5q0 1 -2 3l-3 4q-9 11 -35 24.5t-77 15.5
q-8 0 -16.5 -0.5t-18.5 -1.5v-540h-140v72q-7 13 -15 25l-8 8q-27 25 -50.5 35.5t-43.5 10.5q-22 0 -38 -10q48 -32 48 -85q0 -24 -9 -44t-23.5 -33.5t-33 -21t-37.5 -7.5q-24 0 -44.5 10.5t-34.5 27.5l-3 3q-29 38 -29 84q0 31 13.5 65t38.5 61.5t59 45.5t76 18
q60 0 134 -44v20q-48 28 -96 49t-92 35.5t-83 23t-69 11.5l-63 7v175l403 89v38h-453v87h894v-87h-301v-19zM210 325q61 -10 118.5 -28t114.5 -46v125z" />
    <glyph glyph-name="k_bo_bn" horiz-adv-x="874" 
d="M443 535h-453v87h894v-87h-301v-19q4 1 8 1h25q58 0 102.5 -15.5t75 -41t46 -57t15.5 -62.5q0 -24 -11.5 -47t-30.5 -40.5t-43.5 -28.5t-51.5 -11q-23 0 -41.5 8t-32.5 21.5t-21.5 30t-7.5 34.5q0 29 19.5 50t43.5 21q14 0 31 -5t25 -13v1q0 1 -1 2l-3 4q-4 5 -12.5 11.5
t-22 12.5t-33 11t-45.5 6q-8 0 -16 -0.5t-18 -1.5v-517h-140v14q-28 19 -60 33.5t-64.5 25.5t-62.5 18t-54 10h-3q-1 1 -2 1l-47 7v147l147 36q-51 20 -105 31t-93 15l-58 5v176l402 88v38zM443 251v125l-233 -51q167 -31 233 -74zM443 32v87l-169 -41q63 -6 101.5 -18.5
t67.5 -27.5z" />
    <glyph glyph-name="k_mo_bn" horiz-adv-x="1010" 
d="M970 535v-694h-129v42q-9 42 -42 72t-77.5 49.5t-94 28.5t-90.5 9h-16q-9 0 -14 -1q10 -21 10 -46q0 -20 -11 -41t-29.5 -37.5t-44 -27t-55.5 -10.5q-23 0 -46 8t-42 22t-32 34.5t-16 46.5v2q0 49 20.5 85t66.5 69q-29 19 -60.5 32.5t-62.5 23.5t-59 16t-50 9h-3
q-2 1 -7 1l-45 6v175l373 87v39h-424v87h1030v-87h-50zM554 190q61 -4 132 -23t155 -53v421h-287v-19q5 1 15 1h15q53 0 93.5 -16t68 -41.5t41.5 -57.5t14 -63q0 -23 -10.5 -45.5t-27.5 -40t-39.5 -28t-47.5 -10.5q-21 0 -38.5 8t-30.5 21.5t-20 30t-7 34.5q0 29 17.5 49.5
t39.5 20.5q35 0 53 -18q0 1 -2 3l-3 5q-7 10 -31 24t-72 16q-7 0 -13.5 -0.5t-14.5 -1.5v-217zM414 245v130l-214 -49q138 -23 214 -81z" />
    <glyph glyph-name="k_ro_bn" horiz-adv-x="961" 
d="M309 535h-319v87h981v-87h-440l16 -8q31 -18 51 -39.5t34 -47.5q49 20 93 20q45 0 85 -16.5t69 -43t46 -58.5t17 -62q0 -32 -12 -55.5t-29.5 -38.5t-38 -22.5t-36.5 -7.5q-20 0 -38.5 7t-33 19.5t-23 30.5t-8.5 39q1 17 10.5 30t23 22t27.5 13.5t23 4.5l-16 7
q-12 5 -28 8.5t-35 3.5q-15 0 -31.5 -3t-33.5 -11v-327h-125v6q-9 19 -31 33.5t-54 24.5t-73 15t-87 5q-19 0 -40 -1.5t-41 -1.5q-44 0 -76 14t-53.5 36.5t-32 50.5t-10.5 57v120h126v-98q0 -11 1 -25t9 -27t26 -21.5t53 -8.5q29 0 64.5 4t63.5 4q59 0 94.5 -13.5
t60.5 -28.5v178l-2 18q-2 12 -7 29t-17 32t-31 26t-49 11q-29 0 -46.5 -7t-27 -16.5t-12.5 -19t-3 -13.5v-2q21 26 69 26q12 0 26 -4t26 -13t20 -22.5t8 -32.5q0 -17 -6.5 -35t-19.5 -32.5t-32.5 -24t-45.5 -9.5q-32 0 -61 10.5t-51.5 31t-36 50t-13.5 68.5q0 19 5 39.5
t15 39.5t25.5 35t37.5 27z" />
    <glyph glyph-name="k_lo_bn" horiz-adv-x="874" 
d="M442 496v39h-452v87h894v-87h-301v-19q4 1 8 1h25q58 0 102.5 -16t75 -41t46 -57t15.5 -63q0 -24 -11.5 -47t-30 -40.5t-43 -28.5t-51.5 -11q-23 0 -42 8t-33 21.5t-21.5 31t-7.5 35.5q0 14 5.5 27t14 22.5t19.5 15t23 5.5q14 0 31 -5t26 -13q0 1 -1 2l-3 5
q-9 11 -35 24.5t-77 15.5q-8 0 -16.5 -0.5t-18.5 -1.5v-541h-141v96l-3 3q-4 4 -14 8.5t-21 4.5q-14 0 -26 -9l9 -14l-66 -46q-10 13 -18 29.5t-19.5 30.5t-28 23.5t-42.5 9.5q-16 0 -25.5 -6t-15 -14.5t-7 -17t-1.5 -14.5v-5q0 -1 1 -2q9 11 23.5 17.5t28.5 6.5
q16 0 28.5 -7t21 -18t12.5 -23.5t4 -23.5q0 -29 -21 -52t-63 -23q-27 0 -49.5 10t-39 29t-26 45.5t-9.5 59.5q0 31 9 57t28.5 45.5t50 31t72.5 12.5q57 -6 92 -47q12 17 31 27t41 10q21 0 43 -13v21q-48 28 -96 48.5t-92 34.5t-83 22.5t-69 12.5h-4q-1 1 -7 1l-10 1
q-1 1 -3 1h-3q-14 2 -22 2.5t-11 1.5h-2v176zM442 376l-232 -51q61 -10 118 -28.5t114 -44.5v124z" />
    <glyph glyph-name="k_sso_bn" horiz-adv-x="880" 
d="M890 535h-274v-115q15 0 28.5 -2.5t23.5 -5l22 -5.5q91 -35 130 -84.5t39 -112.5q0 -31 -10.5 -57t-28.5 -45t-42 -30t-51 -11q-29 0 -48 9t-30.5 22.5t-16.5 30t-5 31.5q0 17 7 31.5t19 25t27 16.5t32 6q23 0 40 -13q-2 13 -9.5 27t-23 26.5t-41 22.5t-62.5 15v-317
h-140v80q-8 23 -21 35l-11 12q-62 47 -100 47h-4q31 -31 31 -70q0 -21 -8.5 -38.5t-22.5 -30t-32 -19.5t-37 -7q-23 0 -41.5 8.5t-31.5 22.5l-4 2q-34 37 -34 83q0 51 30 86.5t81 54.5q-1 1 -1 3l-1 1q-41 60 -77 69q11 -22 11 -45q0 -21 -8 -37.5t-20.5 -28t-28.5 -18
t-32 -6.5q-19 0 -36 7.5t-29.5 21.5t-20 32.5t-7.5 41.5q0 26 10.5 49.5t28.5 42.5t42 31.5t51 17.5q-12 29 -34 51.5t-45 35.5h-84v87h900v-87zM475 228l1 94q-53 8 -87 30t-53 49.5t-26 58t-7 54.5v11q0 7 1 10h-82q34 -47 53 -118q13 -8 25.5 -20t25.5 -26l7 -10
q10 -13 25 -40t23 -53q22 -5 45.5 -15t48.5 -25zM476 430v105h-52q-1 -5 -1.5 -9t-0.5 -9q0 -25 9.5 -49t44.5 -38z" />
    <glyph glyph-name="k_ss_nno_bn" horiz-adv-x="885" 
d="M480 -6v116q-7 17 -14 27t-12 15l-6 5q-65 48 -106 48q30 -30 30 -68q0 -45 -29.5 -71.5t-69.5 -26.5q-22 0 -41.5 8t-32.5 23l-3 2q-34 37 -34 83q0 51 30 88t81 55l-2 3q-41 62 -77 69q11 -24 11 -43q0 -21 -7.5 -37.5t-20.5 -28.5t-29 -18.5t-33 -6.5q-27 0 -48 13.5
t-32 34.5l-2 4q-12 25 -12 52q0 26 10.5 49.5t28.5 42t42.5 31.5t52.5 18q-12 26 -32 36.5t-40 15.5l-8 2h-85v87h905v-87h-274v-83q19 0 35.5 -3t27.5 -6l11 -3q91 -35 131 -84.5t40 -112.5q0 -33 -12 -60t-31.5 -46.5t-46 -30t-54.5 -10.5q-48 8 -69 31t-21 59
q0 38 24.5 61t58.5 23q23 0 42 -13q-2 12 -8.5 25.5t-21 26t-37.5 23t-58 16.5l-11 1v-599h-141v109l-8 8q-26 26 -50 37t-44 11q-22 0 -39 -10q48 -33 48 -87q0 -48 -30 -76.5t-72 -28.5q-51 0 -80 38h-1q0 1 -1 2q-30 39 -30 85q0 35 15 69.5t41 61.5t60 43.5t73 16.5
q53 0 118 -35zM479 260l1 -1v95q-55 10 -89 27.5t-53.5 39.5t-26.5 46.5t-7 47.5q0 5 0.5 10t1.5 10h-66l7 -11q5 -5 14.5 -26.5t16.5 -47.5q23 -16 51 -47l11 -16q11 -17 23.5 -40.5t20.5 -47.5q45 -10 95 -39zM480 462v73h-53q-1 -5 -1.5 -9t-0.5 -8q0 -17 11.5 -29.5
t43.5 -26.5z" />
    <glyph glyph-name="k_ss_bo_bn" horiz-adv-x="885" 
d="M480 -181q-22 14 -47 26t-50.5 21t-49 15t-42.5 8l-40 5v116l229 65v35q-7 17 -14 27t-13 15l-6 5q-63 48 -105 48q30 -30 30 -69q0 -22 -8 -40t-22 -30.5t-32 -19.5t-37 -7q-22 0 -41.5 8t-32.5 23l-3 2q-35 37 -35 84q0 51 30.5 87.5t81.5 54.5l-2 3q-42 61 -77 69
q11 -24 11 -43q0 -21 -8 -37.5t-20.5 -28.5t-29 -18.5t-33.5 -6.5q-27 0 -47.5 14t-31.5 34l-2 4q-12 25 -12 52q0 26 10.5 49.5t29 42.5t42.5 31.5t51 17.5q-11 26 -30.5 36.5t-40.5 15.5l-8 2h-85v87h905v-87h-274v-83q27 0 49 -5t22 -7h2q92 -35 131.5 -85t39.5 -113
q0 -33 -11.5 -59.5t-31 -46t-45.5 -30t-56 -10.5q-48 8 -68.5 31t-20.5 59q0 38 24 61t59 23q26 0 42 -13q-2 12 -8.5 25.5t-21 26t-37.5 23t-58 16.5l-11 1v-560h-141v30zM479 260l1 -1v95q-56 10 -90 28.5t-53.5 41t-26 47t-6.5 46.5v9q0 6 1 9h-66l8 -11q3 -5 13 -22
q5 -11 9 -24.5t8 -27.5q28 -20 52 -47l11 -15q11 -16 24 -40.5t20 -48.5q44 -11 95 -39zM480 -7l-128 -31q48 -4 78 -13.5t47 -19.5l3 -2v66zM480 462v73h-53q-1 -5 -1.5 -9t-0.5 -8q0 -17 11.5 -29.5t43.5 -26.5z" />
    <glyph glyph-name="k_ss_mo_bn" horiz-adv-x="1068" 
d="M477 56v24q-7 15 -14 25.5t-12 15.5l-6 5q-65 48 -105 48q30 -30 30 -69q0 -21 -8 -39t-22 -30.5t-32 -19.5t-37 -7q-23 0 -41.5 8.5t-31.5 22.5l-3 2q-35 41 -35 83q0 51 30 86.5t81 54.5l-2 4q-41 60 -77 69q11 -25 11 -44q0 -20 -7.5 -36.5t-20 -28.5t-28.5 -19
t-33 -7q-24 0 -46 13t-33 36l-3 2q-12 25 -12 52q0 26 11 49.5t29 42.5t42 32t51 18q-13 29 -34.5 51t-43.5 35h-85v87h1088v-87h-50v-821h-129v42q-8 42 -40 72t-75.5 49.5t-92 29t-89.5 9.5q-10 0 -19.5 -0.5t-17.5 -1.5q10 -21 10 -46q0 -21 -11 -41.5t-30 -37
t-44.5 -26.5t-54.5 -10q-23 0 -46.5 7.5t-42.5 22t-32 35t-16 46.5v1q0 33 11 63.5t33 56t56 44t79 27.5zM899 535h-282v-115q29 0 50 -5.5t21 -6.5h2q91 -36 130.5 -85t39.5 -112q0 -31 -11 -57.5t-29.5 -46t-43 -30.5t-52.5 -11q-27 0 -45 8.5t-29.5 22t-16.5 29t-5 29.5
q0 37 25 60.5t60 23.5q20 0 40 -13q-2 12 -9 25.5t-21.5 25.5t-37.5 22.5t-57 16.5l-11 1v-254q61 -5 131 -24.5t151 -51.5v548zM476 227l1 95q-55 8 -89 30t-53 50t-25.5 58t-6.5 54v11q0 7 1 10h-82q10 -14 18 -30t16 -33l2 -3q10 -23 18 -51q23 -16 51 -47l11 -16
q11 -17 23.5 -40t19.5 -48q45 -10 95 -40zM477 430v105h-52q-3 -12 -3 -23q0 -23 11.5 -45.5t43.5 -36.5z" />
    <glyph glyph-name="k_so_bn" horiz-adv-x="1027" 
d="M390 535h-400v87h1047v-87h-50v-718h-140v39q-30 13 -78.5 22.5t-108.5 9.5q-96 0 -233 -35q-34 -9 -65 -13t-60 -4q-60 0 -108.5 19t-82 50.5t-51.5 73.5t-18 89v10l180 -20v-9q0 -11 4 -25.5t16.5 -27t36 -21.5t61.5 -9q11 0 23.5 1.5t26.5 3.5v56q-40 28 -81.5 49.5
t-81 37.5t-74 26.5t-59.5 15.5h-5q-1 1 -2 1l-5 1l-41 8v219l349 110v40zM847 535h-317v-19q11 1 20.5 1.5t19.5 0.5q58 0 102.5 -17t74.5 -44t45.5 -62t15.5 -71q0 -29 -12 -56t-32.5 -48t-47 -34t-56.5 -13q-25 0 -46 9t-36 25t-23.5 36t-8.5 43q0 42 22 65t57 23
q17 0 31.5 -3.5t22.5 -8.5l-5 4q-10 6 -33.5 14t-59.5 8q-12 0 -24.5 -1t-26.5 -3v-381q35 5 67 8t62 3q58 0 105.5 -7.5t82.5 -19.5v548zM210 281q38 -11 62 -19t41.5 -15.5t30.5 -15.5t29 -18l17 -11v148z" />
    <glyph glyph-name="kh_bo_bn" horiz-adv-x="672" 
d="M438 63q-45 25 -95 40.5t-97.5 23.5t-89 11t-69.5 3h-47v179l3 -1q5 0 27 -4.5t49 -4.5q28 0 58 6.5t56 24.5q-4 -1 -12 -1h-10q-37 0 -69 9t-56 26.5t-38 44t-14 61.5q0 42 13.5 71t33.5 47t43.5 26t43.5 8q22 0 43 -7.5t37.5 -21t26 -32t9.5 -40.5q0 -20 -8.5 -34.5
t-20 -24t-24 -15t-19.5 -7.5l18 1q16 1 37 6.5t44 19.5t46 37.5t42 59.5q10 -4 20.5 -33.5t10.5 -74.5q0 -24 -4.5 -51.5t-15 -56t-28 -56.5t-44.5 -54q109 -23 153 -54v427h191v-87h-50v-713h-141v15q-44 29 -95.5 45t-89.5 22l-40 6v111zM491 -59v54l-124 -25
q48 -5 77.5 -13t46.5 -16z" />
    <glyph glyph-name="kh_ro_bn" horiz-adv-x="671" 
d="M631 -132h-141v30q-14 10 -35.5 15.5t-49.5 5.5q-32 0 -70.5 -8.5t-83.5 -27.5q-22 -9 -43 -13t-39 -4q-41 0 -72.5 19.5t-52.5 53t-32 77.5t-11 93l117 -20v-4q0 -8 2 -23t9.5 -29.5t21.5 -25.5t39 -11q27 0 65 16q44 18 81 26t69 8q25 0 46.5 -5t38.5 -13
q-45 36 -101.5 58.5t-112 34.5t-106 16t-83.5 4h-47l1 179q1 0 23.5 -5t54.5 -5q28 0 58 6.5t55 24.5q-4 -1 -12 -1h-10q-37 0 -69 9t-56 26.5t-38 44t-14 61.5q0 43 13.5 72t34 47t43.5 25.5t43 7.5q22 0 43 -7.5t37.5 -21t26 -32t9.5 -40.5q0 -20 -8.5 -34t-20 -24
t-24 -15.5t-19.5 -7.5l18 1q15 1 36.5 6.5t44.5 19t46.5 37t42.5 60.5q10 -4 20 -33t10 -74q0 -49 -19 -107t-71 -112q108 -23 151 -54v427h191v-87h-50v-667z" />
    <glyph glyph-name="g_ukar_bn" horiz-adv-x="776" 
d="M479 378q-23 46 -47 76t-47.5 48t-46 25.5t-43.5 7.5q-23 0 -43 -6.5t-34.5 -15.5t-23 -18t-8.5 -13q46 12 92 12q49 0 77.5 -18t41.5 -70q1 -3 1 -14q0 -29 -16.5 -55t-40.5 -47t-50.5 -37.5t-46.5 -26.5l-29 -15l-147 73q48 15 91 34.5t72 33.5l29 14q-24 -3 -44.5 -4
t-39.5 -1q-40 0 -68 6l-68 134h1q24 45 52.5 74.5t59.5 47.5t63 25t64 7q36 0 68.5 -7.5t58 -17.5t43 -19.5t23.5 -13.5l13 -9q8 -5 16 -13l32 -30l142 109q2 -2 15 -19t28 -45.5t27 -66t12 -80.5q0 -36 -11 -75t-39 -78q24 -29 37 -65.5t13 -74.5t-14.5 -74.5t-45 -65
t-79 -46t-117.5 -17.5q-83 0 -161.5 22t-145 54t-117.5 68t-78 63l39 118l74 -55q3 -2 22 -14.5t49.5 -30t71 -37t86 -36.5t94 -28t95.5 -11q34 0 55.5 8.5t33.5 22t16 29t4 30.5q0 25 -4 36q-38 -50 -102 -50q-25 0 -47 8.5t-38.5 23t-26.5 34.5t-11 43q1 54 40 82.5
t99 28.5q8 0 14 -0.5t11 -1.5l18 -5h1q3 0 4 -1q14 14 28.5 29t14.5 39q0 21 -11 48l-81 -86h-70z" />
    <glyph glyph-name="g_go_bn" horiz-adv-x="680" 
d="M227 -110l-150 66q76 21 178 85q2 2 3 2l29 18q-48 -6 -95 -6q-51 0 -84 7l-72 124q80 124 209 139l46 29q-48 -6 -95 -6q-51 0 -84 7l-72 124q91 143 260 143q57 0 116 -16q50 -13 81 -29v45h193v-87h-50v-638h-143v217q-35 55 -79 77t-98 22q-60 0 -99 -26
q-16 -10 -18 -22q1 1 5 1q55 11 100 11q48 0 76.5 -15.5t41.5 -63.5q1 -2 1 -10q0 -51 -61 -107q-40 -37 -106 -73q-1 0 -3 -2zM497 282v131q-60 94 -169 94q-44 0 -84 -17q-36 -15 -36 -32q1 1 4 1q57 11 101 11q118 0 118 -93q0 -30 -23 -62l-1 -1q68 -19 90 -32z" />
    <glyph glyph-name="g_do_bn" horiz-adv-x="1028" 
d="M317 620q99 -14 159 -48v50h562v-87h-419v-186l249 130l141 -29q-15 -67 -23 -105l-12 -57q-4 -19 -4.5 -24.5t-0.5 -8.5v-12q0 -89 72 -134l-79 -122q-47 31 -75.5 62.5t-44.5 61.5t-21 57t-5 50q0 18 2 31t5 24l4 16q1 0 3 12l-211 -110l-143 47v148q-16 28 -36 48
t-41.5 32.5t-43 18t-41.5 5.5q-26 0 -48.5 -5t-39.5 -13t-27 -18t-11 -19q74 20 138 13q65 -6 83 -89l1 -18q0 -21 -11.5 -46.5t-33 -52t-52 -52t-68.5 -47.5l-32 -20l-1 -1l-150 76q42 15 86 38t92 58l31 23q-44 -6 -87 -6q-66 0 -93 7l-70 141q30 53 63 85t67 49.5t67 23
t63 5.5q9 0 18 -0.5t18 -1.5z" />
    <glyph glyph-name="g_dho_bn" horiz-adv-x="914" 
d="M494 373q-18 37 -40.5 62t-46.5 39t-49.5 20t-50.5 6q-24 0 -45.5 -5t-37.5 -12.5t-25.5 -16.5t-9.5 -17q1 1 4 1q51 12 102 12q18 0 38.5 -3.5t38 -14t29 -30t11.5 -50.5q0 -30 -17.5 -58t-43 -52.5t-54.5 -44t-51 -32.5l-32 -19l-152 70q51 16 98.5 41.5t79.5 48.5
l32 22q-25 -3 -50 -5t-48 -2q-25 0 -46 2t-35 5l-72 132q2 2 8.5 12.5t17.5 29.5l4 6q12 20 36.5 38.5t56.5 32.5t67.5 22.5t70.5 8.5q37 0 72.5 -7t64 -16t48.5 -18.5t27 -14.5v56h430v-87h-287v-312l136 28l122 -38l-74 -143q-1 0 -1 -2l-3 -9q-5 -17 -5 -33
q0 -20 9.5 -44.5t35.5 -50.5l-77 -96q-58 54 -78 102.5t-20 86.5q0 26 6 46t13 31l8 13l9 19l-81 -17v-260h-143v35q-28 16 -59 29.5t-61.5 23t-59 16.5t-51.5 10l-55 8v148l286 70v177zM494 18v68l-159 -28q42 -5 75 -11t57 -17z" />
    <glyph glyph-name="g_dh_ro_bn" horiz-adv-x="914" 
d="M494 73v54l-130 -21q5 -1 17.5 -3t27.5 -4.5t30.5 -6t26.5 -8.5zM494 -50q-27 14 -58 26t-61.5 21.5t-59.5 15.5t-52 8l-55 8v142l286 64v155q-18 33 -40 55t-46 34.5t-50 18t-51 5.5t-46.5 -5t-37.5 -11.5t-25 -13t-9 -9.5q2 2 4 2q55 11 102 11q17 0 37.5 -3.5t38 -13
t29.5 -28t12 -48.5t-18 -56.5t-44 -48.5t-55 -40t-50 -30l-31 -16l-162 68q63 18 110 41t80 44l16 10q-11 -1 -36 -3t-48 -2q-25 0 -45.5 2t-34.5 5l-75 125q5 5 11.5 14t17.5 27l4 5q12 19 36.5 35.5t56 29.5t67.5 20.5t70 7.5q37 0 72 -6t63.5 -14.5t48.5 -17t28 -14.5v52
h430v-87h-287v-276l136 26l125 -36l-78 -137v1l-3 -9q-5 -17 -5 -28q0 -16 9 -37.5t39 -48.5l-80 -90q-59 49 -78.5 94.5t-19.5 82.5q1 23 7 41.5t13 29.5l13 21l-78 -15v-383h-143l-1 29q-38 20 -99 20q-63 0 -145 -33q-39 -16 -77 -16q-57 0 -100.5 41.5t-57.5 113.5
l126 31q5 -5 8 -14.5t9 -19.5t16 -17t28 -7q17 0 55 15q78 30 145 30q51 0 93 -15v21z" />
    <glyph glyph-name="g_no_bn" horiz-adv-x="665" 
d="M446 590q11 -5 20 -9t16 -8v49h193v-87h-50v-668h-143v127l-12 15q-28 26 -52.5 36.5t-44.5 10.5q-23 0 -39 -9q49 -34 49 -88q0 -24 -9 -43t-23.5 -33t-33.5 -21.5t-38 -7.5q-24 0 -45.5 10t-36.5 27l-2 3q-30 39 -30 85q0 30 13.5 63.5t38.5 62.5t60.5 48t79.5 19
q54 0 125 -38v260q-36 61 -82 83.5t-93 22.5q-24 0 -45.5 -5t-37.5 -12.5t-25.5 -16.5t-9.5 -17q1 1 4 1q51 12 101 12q17 0 37.5 -3.5t38.5 -14t30 -29.5t12 -50q0 -30 -18 -58t-44 -53t-54.5 -44.5t-50.5 -32.5l-32 -19l-151 70q33 10 65 26.5t59.5 33t49.5 31t35 20.5
l1 1q-25 -4 -50 -5.5t-51 -1.5t-45.5 2t-32.5 5l-72 131q25 44 56 73t65 46.5t69.5 24.5t70.5 7q48 0 91 -10.5t73 -21.5z" />
    <glyph glyph-name="g_bo_bn" horiz-adv-x="665" 
d="M482 -110q-28 17 -59 30.5t-62 23.5t-60 16.5t-52 9.5l-55 8v148l288 70v197q-18 31 -39 51.5t-43.5 33t-46.5 17.5t-47 5q-24 0 -45.5 -5t-37.5 -12.5t-25 -16.5t-9 -17q1 1 3 1q51 12 101 12q18 0 38.5 -3.5t38 -14t29.5 -30t12 -51.5q0 -30 -18 -58t-44 -52
t-54.5 -43.5t-50.5 -32.5l-32 -19l-151 70q51 16 98.5 41.5t80.5 48.5q27 20 31 21l1 1q-25 -4 -50.5 -5.5t-51.5 -1.5t-45.5 2t-32.5 5l-71 131q26 43 57 72.5t64.5 46.5t68.5 24.5t70 7.5q30 0 60 -4.5t56 -11.5t48 -16t37 -18v50h193v-87h-50v-679h-143v34zM482 18v69
l-161 -29q43 -6 76 -12t57 -16z" />
    <glyph glyph-name="g_mo_bn" horiz-adv-x="944" 
d="M904 535v-662h-144v102l-2 10q-11 38 -25.5 63.5t-28.5 36.5l-13 10q-34 23 -62.5 33t-51.5 10q-39 0 -68 -23q85 -39 85 -131q0 -29 -12 -53t-31.5 -41t-44.5 -26.5t-50 -9.5q-26 0 -48 9.5t-40 23.5l-4 3q-29 26 -44 58t-15 74q0 38 11.5 76.5t34 72.5t56 60.5
t78.5 40.5v125q-17 32 -38.5 53t-45 34t-47.5 18t-46 5q-24 0 -45.5 -5t-37.5 -12.5t-25.5 -16.5t-10.5 -16q3 0 4 1q48 12 97 12q18 0 39.5 -3.5t40 -14t30.5 -30t12 -50.5q0 -30 -17.5 -58t-43 -52.5t-54.5 -44t-51 -32.5l-33 -19l-151 70q51 16 98 41.5t80 47.5l32 21
q-23 -2 -47 -3.5t-47 -1.5q-26 0 -48.5 1.5t-36.5 4.5l-72 131q25 44 55.5 73t64.5 46.5t69.5 24.5t70.5 7q34 0 65.5 -5.5t58 -13t47 -16.5t33.5 -16v44h469v-87h-50zM734 235l26 -16v316h-132v-261q46 -10 92 -31q1 -1 2 -1l2 -1z" />
    <glyph glyph-name="g_ro_bn" horiz-adv-x="664" 
d="M624 -57h-143v31q-32 30 -106 41q-22 3 -43 3q-49 0 -89 -17.5t-79 -17.5q-38 0 -68 19q-96 59 -96 182l114 -20v-10q14 -44 47 -44q11 0 23 4q70 26 129 26q68 0 168 -36v287q-75 99 -177 99q-46 0 -88 -19q-34 -16 -34 -25q48 12 101 12q55 0 89 -18q47 -25 47 -86
q0 -77 -138 -175q-39 -28 -66 -39v-1l-153 76q72 22 175 92q22 15 35 22q-50 -6 -101 -6q-46 0 -79 7l-71 135q46 84 118 123q59 33 133 33q58 0 126 -21q64 -20 83 -39v61h193v-87h-50v-592z" />
    <glyph glyph-name="g_lo_bn" horiz-adv-x="665" 
d="M482 -23l-4 6q-4 3 -14 8t-21 5q-14 0 -27 -9l9 -15l-67 -46q-9 12 -17.5 28.5t-20.5 30.5t-29 24t-43 10q-16 0 -26 -5.5t-15 -14t-7 -17t-2 -14.5v-7q10 11 24 17t28 6q16 0 29 -7t21.5 -18t13 -24t4.5 -24q0 -29 -22.5 -52t-64.5 -23q-26 0 -48.5 10.5t-39.5 29.5
t-27 46t-10 61q0 62 39 103t125 43q57 -8 93 -48q13 17 32 27.5t40 10.5t47 -14v285q-44 59 -90.5 80t-89.5 21q-27 0 -49 -5.5t-38 -13t-24.5 -15t-8.5 -10.5q48 12 101 12q21 0 45 -3.5t44 -14t33.5 -31t13.5 -53.5q0 -30 -18.5 -59t-44.5 -55t-56 -47t-52 -34l-33 -19
l-154 74q51 16 98.5 42.5t79.5 49.5l32 22q-25 -2 -50 -3.5t-51 -1.5t-45 1.5t-33 3.5l-71 135q26 44 55 74t60.5 48t65.5 25.5t70 7.5q32 0 63 -5.5t58 -14t50 -19t39 -20.5v60h193v-87h-50v-637h-143v79z" />
    <glyph glyph-name="gh_no_bn" horiz-adv-x="646" 
d="M462 171v364h-260q-1 -3 -1 -16q0 -31 14 -50t44 -19q15 0 27 6.5t21 15t13.5 16.5t4.5 11l93 -90l-183 -180l40 -2q40 -2 92 -14.5t95 -41.5zM462 -3v14q-23 30 -54.5 49.5t-66.5 30.5t-71 15t-68 4q-22 0 -41 -1t-34 -3h-3q-1 -1 -2 -1l-38 -5l-63 110l138 133h-2
q-1 1 -2 1l-9 3q-12 4 -29.5 13t-33.5 26t-27.5 44t-11.5 66q0 18 3 39h-57v87h666v-87h-50v-794h-144v106q-12 21 -16 27l-8 8q-27 25 -50.5 35.5t-43.5 10.5q-22 0 -38 -10q48 -32 48 -85q0 -24 -9 -44t-23.5 -33.5t-33 -21t-37.5 -7.5q-24 0 -44.5 10.5t-34.5 27.5l-3 3
q-29 38 -29 84q0 36 15 70t40.5 60.5t60 43t72.5 16.5q60 0 134 -45z" />
    <glyph glyph-name="gh_bo_bn" horiz-adv-x="646" 
d="M462 171v364h-260q-1 -3 -1 -16q0 -31 14 -50t44 -19q15 0 27 6.5t21 15t13.5 16.5t4.5 11l93 -90l-183 -180l40 -2q40 -2 92 -14.5t95 -41.5zM411 58q-23 16 -50 26.5t-55 16.5t-55.5 8t-51.5 2q-20 0 -38.5 -1.5t-33.5 -3.5h-3q-1 -1 -2 -1l-38 -5l-63 110l138 133h-2
q-1 1 -2 1l-9 3q-12 4 -29.5 13t-33.5 26t-27.5 44t-11.5 66q0 18 3 39h-57v87h666v-87h-50v-729h-144v17q-45 32 -98.5 49t-95.5 24h-2q-4 0 -5 1l-34 5v111zM462 -71v59l-131 -27q48 -4 78.5 -12t47.5 -17z" />
    <glyph glyph-name="gh_ro_bn" horiz-adv-x="645" 
d="M462 171v364h-260q-1 -5 -1.5 -9.5t-0.5 -9.5q0 -30 15 -48t44 -18q24 0 40 15.5t22 26.5l2 4q2 2 2 3l92 -90l-181 -180l39 -2q19 -1 43 -4.5t49 -10t49.5 -16.5t45.5 -25zM461 -132q-18 10 -42 15.5t-52 5.5q-59 0 -137 -36q-38 -17 -74 -17q-38 0 -67 20t-49 54
t-30 78.5t-10 93.5l118 -20v-10q0 -11 3 -25.5t10.5 -27.5t19.5 -22.5t29 -9.5q19 0 55 17q72 34 130 34q55 0 96 -18l1 11q-23 30 -54.5 49.5t-66.5 30.5t-71 15t-68 4q-22 0 -41 -1t-34 -3h-3q-1 -1 -2 -1l-38 -5l-63 110l138 133h-2q0 1 -2 1l-10 3q-12 3 -29.5 12.5
t-33.5 27t-27.5 44.5t-11.5 66q0 17 3 38h-56v87h665v-87h-50v-700h-143v33h-1z" />
    <glyph glyph-name="ng_ko_bn" horiz-adv-x="779" 
d="M534 535h-356q5 -3 10 -6.5t10 -7.5l10 -8q74 13 131 13q33 0 62 -5.5t52 -19t39.5 -37t24.5 -59.5q5 1 15 1h14q52 0 92 -19t67 -49.5t41 -67.5t14 -73q0 -27 -10 -52t-27.5 -44.5t-41.5 -31t-51 -11.5q-21 0 -39 8t-31 21t-20.5 30.5t-7.5 36.5q0 21 7 35.5t17.5 24
t24 14t27.5 4.5q13 0 24.5 -2.5t17.5 -5.5l-11 14q-6 7 -16.5 16.5t-24.5 17.5t-31.5 14t-37.5 6h-9v-319h-128v27q-35 22 -74 39t-77 30t-73 21.5t-63 13.5l-6 1l-7 1h-5q-1 1 -3 1h-3q-1 1 -2 1l-39 6v180l352 91q0 23 -22 30.5t-49 7.5q-76 0 -202 -42l-35 106
q30 8 52 12l-12 11l-34 25h-100v87h819v-87h-2q-2 -30 -13.5 -55.5t-29.5 -44.5t-41.5 -30t-50.5 -11q-28 0 -52.5 11t-43 30.5t-30 45t-12.5 54.5zM392 264l-200 -56q51 -5 93 -13.5t74 -25.5l33 -17v112zM626 535q2 -18 15.5 -29.5t30.5 -11.5q14 0 27.5 11.5t15.5 29.5
h-89z" />
    <glyph glyph-name="ng_k_ro_bn" horiz-adv-x="779" 
d="M520 -143h-107v30q-16 8 -35.5 13t-43.5 5q-28 0 -59 -7.5t-68 -24.5q-18 -8 -35.5 -11.5t-31.5 -3.5q-34 0 -60 17.5t-44 47.5t-27 69.5t-9 83.5l106 -18v-8q0 -9 2.5 -22t9 -25t17 -20.5t26.5 -8.5q17 0 49 16q30 14 60.5 22t55.5 8q20 0 38 -3q-33 18 -68 32.5t-69 25
t-65.5 18t-56.5 11.5l-6 1l-7 1h-5q-1 1 -3 1h-3q-1 1 -2 1l-39 6v180l352 91q0 23 -22 30.5t-49 7.5q-76 0 -202 -42l-35 106q30 8 52 12l-12 11l-34 25h-100v87h819v-87h-2q-2 -30 -13.5 -55.5t-29.5 -44.5t-41.5 -30t-50.5 -11q-28 0 -52.5 11t-43 30.5t-30 45
t-12.5 54.5h-356q5 -3 10 -6.5t10 -7.5l10 -8q74 13 131 13q33 0 62 -5.5t52 -19t39.5 -37t24.5 -59.5q5 1 15 1h14q52 0 92 -19t67 -49.5t41 -67.5t14 -73q0 -27 -10 -52t-27.5 -44.5t-41.5 -31t-51 -11.5q-21 0 -39 8t-31 21t-20.5 30.5t-7.5 36.5q0 21 7 35.5t17.5 24
t24 14t27.5 4.5q13 0 24.5 -2.5t17.5 -5.5l-11 14q-6 7 -16.5 16.5t-24.5 17.5t-31.5 14t-37.5 6h-9v-435zM392 264l-200 -56q51 -5 93 -13.5t74 -25.5l33 -17v112zM626 535q2 -18 15.5 -29.5t30.5 -11.5q14 0 27.5 11.5t15.5 29.5h-89z" />
    <glyph glyph-name="ng_kho_bn" horiz-adv-x="920" 
d="M315 546v-25q23 8 23 18q0 4 -3 7h-20zM930 622v-87h-50v-677h-142v13q-47 36 -104 58.5t-113 34.5t-106.5 16.5t-84.5 4.5h-48v178l20 -2q8 -1 17 -1.5t20 -0.5q32 0 69.5 7t67.5 30q-5 0 -9 -0.5t-9 -0.5q-42 0 -75 12q-35 -16 -90 -16q-76 3 -126.5 35.5t-81 76
t-45.5 89t-19 74.5h127v-3q1 -2 1.5 -10.5t1.5 -19.5t3 -21.5t5 -14.5q10 -24 23.5 -40.5t27.5 -27t27.5 -16t22.5 -6.5l7 -2q2 0 3 -1h2q3 -1 9 -1h9q39 0 61 9.5t33.5 21.5t14.5 23t3 15v2q-3 -4 -12.5 -12t-23.5 -16t-31 -14t-35 -6q-12 0 -27.5 4.5t-29.5 14.5
t-23.5 26.5t-9.5 41.5v47q-49 13 -94 52t-71 111l-1 3h94q7 -16 16 -30.5t15 -23.5l11 -11q8 -5 15.5 -10t14.5 -9v79h155q22 0 42.5 -16.5t20.5 -51.5q0 -37 -25 -65t-88 -41l1 -27v1q5 2 38 18.5t77 40.5l78 -74v-8q0 -24 -15 -69l-4 -8q18 3 38 10t40 20.5t39.5 36
t36.5 56.5q9 -5 20.5 -35.5t11.5 -81.5q0 -61 -20.5 -120.5t-71.5 -113.5q109 -22 154 -54v496h-174v87h366z" />
    <glyph glyph-name="ng_go_bn" horiz-adv-x="694" 
d="M464 449q-34 35 -38 86h-436v87h714v-87h-25q-4 -47 -34 -83t-75 -42l105 -80l-83 -162q-16 -31 -16 -64q0 -31 15 -62.5t53 -53.5l-60 -142q-44 21 -71.5 48.5t-43.5 57.5t-21.5 61t-5.5 58q0 38 6 64t8 28l13 34l-22 -15q-22 -40 -53 -65t-64 -38.5t-64.5 -18
t-53.5 -4.5q-37 0 -38 4l-110 15l-46 139l177 -25q6 -2 11 -2h15q16 0 36.5 4.5t39.5 18t33.5 38t19.5 63.5v7q0 19 -8.5 30t-20 17t-21.5 8.5t-13 5.5h-3q19 -19 19 -49q0 -18 -7.5 -38.5t-22.5 -38.5t-38 -30t-54 -12q-24 0 -49 8.5t-45.5 25.5t-33 43.5t-12.5 61.5
q0 39 11.5 72t35.5 56.5t61.5 36.5t89.5 13q41 0 78.5 -10t68 -29.5t53.5 -49t35 -68.5l60 39q-40 6 -70 39zM582 513q9 9 11 22h-81q3 -15 14.5 -25t25.5 -10q18 0 30 13z" />
    <glyph glyph-name="ng_mo_bn" horiz-adv-x="843" 
d="M316 521q23 6 23 19q0 3 -3 6h-20v-25zM354 -142q-49 0 -87 35q-61 52 -61 138q0 44 13 84q17 51 43 77q-116 18 -183 118q-49 73 -58 156h126l1 -8q0 -72 48 -116q33 -33 64 -36q16 -4 33 -4q88 0 106 51l5 20q-9 -14 -39 -29q-36 -19 -68 -19q-23 0 -48 15
q-31 17 -36 46q-3 15 -3 74q-116 32 -167 164v3h95q11 -31 24 -46q17 -21 48 -39v80h145q16 0 48 -21q25 -17 25 -50q0 -80 -112 -104v-27q17 9 33.5 17.5t36.5 18t45 24.5l79 -75l1 -10q0 -15 -8.5 -47t-27.5 -63q65 -4 143 -41q22 -11 42 -24v315h-121v87h314v-87h-50
v-658h-143v98q-8 48 -26.5 76.5t-43.5 46.5q-59 43 -104 43h-24q-23 0 -52 -23q83 -39 83 -133q0 -54 -45 -93q-39 -34 -94 -34z" />
    <glyph glyph-name="ng_ro_bn" horiz-adv-x="689" 
d="M487 7q-29 -6 -64 -6q-91 0 -155.5 21t-108.5 55t-70.5 77t-40.5 86t-19.5 82.5t-8.5 66.5h147l-1 -35q-1 -16 2.5 -39t13 -48t26 -50t42 -45t62 -32.5t85.5 -12.5t77.5 15.5t42.5 36.5t18 43t4 35v12l-21 -13q-12 -7 -26 -16.5t-30.5 -17.5t-35.5 -14t-39 -6
q-15 0 -34.5 5.5t-36.5 18.5t-29 35.5t-12 55.5v86q-67 18 -126.5 71t-96.5 151l-1 4h127q13 -32 26.5 -52t26 -32.5t24 -19t20.5 -11.5v108h195q16 0 31.5 -6t27.5 -17.5t19.5 -29t7.5 -39.5q0 -54 -31.5 -87.5t-109.5 -48.5v-68l47 27q23 14 51 30.5t63 34.5l92 -100
q1 -11 1.5 -21t0.5 -21q0 -42 -9.5 -85t-30.5 -79v-327h-143v32q-21 10 -47 15.5t-58 5.5q-35 0 -100.5 -19t-106.5 -19q-34 0 -62.5 13t-51 35t-38 51.5t-23.5 62.5l121 34q1 -1 1 -3q2 -11 6.5 -21.5t13.5 -19.5t22.5 -14.5t32.5 -5.5q30 0 92.5 17.5t98.5 17.5
q56 0 99 -17v57zM415 521v-35q30 9 30 26q0 4 -3 9h-27z" />
    <glyph glyph-name="c_nyo_bn" horiz-adv-x="1048" 
d="M831 20v-164h-128v14q-17 42 -81.5 63t-156.5 21q-20 0 -42.5 -2t-45.5 -2q-31 0 -56 8t-45 21.5t-34.5 30.5t-23.5 35q-8 -1 -14.5 -1.5t-13.5 -0.5q-27 0 -49 5.5t-38 14t-26 18t-14 17.5l-6 9v428h-67v87h1068v-87h-859v-28l5 -9q5 -8 11 -12l1 -1q20 -15 47 -26
t54 -18.5t50.5 -11.5t37.5 -6q6 -2 12 -3.5t12 -3.5q46 58 157 58q48 0 85.5 -13t63.5 -33l5 -5q58 58 134 58q31 0 59.5 -11.5t49.5 -31t33.5 -46t12.5 -55.5q0 -56 -33 -89q33 -35 33 -89q0 -30 -12.5 -56t-33.5 -45.5t-49.5 -31t-59.5 -11.5q-10 0 -20.5 1.5t-22.5 3.5z
M466 143q-13 -14 -26 -22t-18 -10l-1 -1q-16 -8 -34 -16t-39 -16q19 -18 67 -18q27 0 64 4.5t64 4.5q63 0 99 -14.5t61 -31.5v200q-1 8 -4 28.5t-13.5 41.5t-31 37.5t-57.5 16.5q-29 0 -47 -8t-27.5 -18.5t-12.5 -21t-3 -15.5v-2q24 29 69 29q13 0 27.5 -4.5t26.5 -14.5
t20 -25t8 -36q0 -20 -6.5 -39.5t-19.5 -35.5t-33 -26t-46 -10t-70 14zM388 284v5q-45 11 -79.5 20t-59.5 17l-4 1l-7 2q-1 0 -2 1l-4 1l-33 10v-150l28 5q19 3 44.5 10t49.5 18t42.5 25.5t24.5 34.5zM831 137q30 -14 43 -14q16 0 27.5 10.5t11.5 25.5q0 14 -10.5 24
t-37.5 10v111l19 -2q11 2 20 11t9 24q0 14 -11.5 24.5t-27.5 10.5q-18 0 -36.5 -11t-18.5 -25q0 -5 1 -6v-35q8 -29 9.5 -50.5t1.5 -22.5v-85z" />
    <glyph glyph-name="c_ro_bn" horiz-adv-x="635" 
d="M439 -169q-6 6 -17.5 10.5t-25 7t-27.5 3.5t-26 1q-27 0 -58.5 -9.5t-68.5 -26.5q-39 -18 -73 -18q-27 0 -50.5 12.5t-42 34.5t-31.5 51.5t-19 63.5l116 37q1 -1 1 -3q1 -10 5 -20.5t11 -19.5t17 -14.5t23 -5.5q11 0 23 3.5t24 8.5q35 16 66.5 25t59.5 9q54 0 90 -16
q2 0 3 -1v123q-21 -12 -50.5 -25.5t-62.5 -25t-67 -18.5t-65 -7q-37 0 -62.5 9.5t-41 21t-22.5 21.5t-7 12l-1 460h-70v87h655v-87h-438v-8l5 -6q2 -4 4.5 -7.5t6.5 -6.5v-1q35 -26 78 -35h1q75 -19 132.5 -27.5t99.5 -8.5l82 -110l-6 -25q-9 -37 -28 -69v-432h-143v32z
M207 165l33 11l2 1q24 9 57.5 23t64 31.5t53.5 37t26 40.5l-165 38q-32 8 -49 11t-21 5h-1v-198z" />
    <glyph glyph-name="ch_bo_bn" horiz-adv-x="662" 
d="M601 -117l-40 11v-167h-141v30q-22 15 -47 26.5t-50.5 20.5t-49 14.5t-42.5 8.5l-7 1l-33 4v116l92 26l-158 45l1 114q6 1 37 7t74 16.5t91 25t89 33t68 41.5t27 49q0 17 -21.5 29t-53.5 18l-16 3l-3 -11q-4 -19 -13 -39t-29 -40t-54.5 -40t-89.5 -39q-14 -5 -27 -6.5
t-24 -1.5q-28 0 -50.5 9.5t-38 22.5t-24 25.5t-8.5 18.5v281h-70v87h682v-87h-493v-6q0 -1 1 -2l12 -16q14 -11 30.5 -17.5t33.5 -11.5l57 -15q17 3 42.5 5.5t55.5 2.5q35 0 76 -6.5t75.5 -24t57.5 -49t23 -81.5q0 -44 -25.5 -80t-61.5 -64t-75 -47t-65 -29l-3 -1
q-1 -1 -3 -1l-27 -10l276 -75zM179 304l10 -1q3 -1 14 -1t24.5 2t25.5 7.5t21 15.5t12 25q-32 6 -52 12.5t-31.5 12.5t-16.5 10.5t-6 6.5l-1 1v-91zM420 -69l-128 -31q48 -4 78 -13.5t47 -19.5l3 -2v66z" />
    <glyph glyph-name="ch_ro_bn" horiz-adv-x="662" 
d="M179 304l10 -1q3 -1 14 -1t24.5 2t25.5 7.5t21 15.5t12 25q-32 6 -52 12.5t-31.5 12.5t-16.5 10.5t-6 6.5l-1 1v-91zM622 -305h-143l-1 32q-38 22 -99 22q-62 0 -87 -12q-34 -18 -70 -18q-29 0 -55 12.5t-46.5 34.5t-35 51.5t-20.5 63.5l126 34q1 -1 1 -3q2 -9 6.5 -20
t12 -20t17.5 -15t23 -6q18 0 56.5 13t78.5 13q52 0 92 -17l1 58l-354 101l1 114q6 1 37 7t74 16.5t91 25t89 33t68 41.5t27 49q0 17 -21.5 29t-53.5 18l-16 3l-3 -11q-4 -19 -13 -39t-29 -40t-54.5 -40t-89.5 -39q-14 -5 -27 -6.5t-24 -1.5q-28 0 -50.5 9.5t-38 22.5
t-24 25.5t-8.5 18.5v281h-70v87h682v-87h-493v-6q0 -1 1 -2l12 -16q14 -11 30.5 -17.5t33.5 -11.5l57 -15q17 3 42.5 5.5t55.5 2.5q35 0 76 -6.5t75.5 -24t57.5 -49t23 -81.5q0 -44 -25.5 -80t-61.5 -64t-75 -47t-65 -29l-3 -1q-1 -1 -3 -1l-27 -10l239 -65v-322z" />
    <glyph glyph-name="ch_ro_alt_bn" horiz-adv-x="662" 
d="M203 332q34 0 56 11t26 27q-80 13 -101 35q-4 3 -5 3v-74q5 0 7.5 -1t16.5 -1zM622 -200h-144v29q-82 20 -161 20q-89 0 -191 -28q-57 -16 -105 -16q-47 0 -117 20t-121 129l134 36q43 -63 120 -63q34 0 73 12q123 36 201 36q77 0 167 -18v19l-353 92l1 111
q194 30 290 72t96 80q0 27 -92 41q-16 -62 -60.5 -95t-128.5 -58q-26 -7 -50 -7q-43 0 -82 25.5t-39 46.5v251h-70v87h682v-87h-492l11 -13q13 -11 32 -18t90 -23q46 8 98 8q108 0 170 -37.5t62 -112.5q0 -54 -48 -104q-43 -43 -115 -74q-62 -27 -70 -27l-14 -5l226 -56
v-273z" />
    <glyph glyph-name="j_jo_bn" horiz-adv-x="1126" 
d="M266 535h-276v87h1146v-87h-743v-17h208q84 -7 121 -70h222q30 -2 56.5 -14t45.5 -31.5t30 -45t11 -53.5v-304h-124v257q0 16 -4 27l-2 3q-9 17 -25.5 29t-36.5 12l-158 1l1 -52q2 0 6 -2t14 -2q13 0 35 5.5t54 22.5l86 -90q2 -15 3.5 -29.5t1.5 -28.5q0 -38 -7.5 -69.5
t-30 -54t-63 -35t-106.5 -12.5q-87 3 -144 23.5t-101 55.5q-36 -9 -84 -9q-86 0 -147 19.5t-102.5 50.5t-66.5 70t-39 78t-19 74.5t-7 59.5h139l-1 -32q-1 -25 7.5 -60.5t34.5 -67.5t72.5 -55t122.5 -23q25 0 41 3.5t25 9.5t12 13t3 14q0 8 -2 14.5t-4 11.5l-3 4
q-11 -6 -33.5 -13.5t-49.5 -7.5q-16 0 -36.5 5.5t-39 19.5t-31 38t-12.5 61v196zM393 399v-51l4 -2q5 -4 19 -4q13 0 34.5 6t52.5 23l87 -90q2 -15 3.5 -29.5t1.5 -28.5q0 -44 -14 -84l13 -9q24 -17 61.5 -25.5t83.5 -8.5q50 0 66 13t16 28q0 10 -4 16t-6 13
q-11 -6 -33 -13.5t-48 -7.5q-17 0 -37.5 5.5t-39 19.5t-31 38t-12.5 61v92l-3 6q-11 14 -24.5 22.5t-30.5 8.5z" />
    <glyph glyph-name="j_j_bo_bn" horiz-adv-x="1126" 
d="M266 535h-276v87h1146v-87h-743v-17h208q83 -7 121 -70h222q30 -2 56.5 -14t45.5 -31.5t30 -45t11 -53.5v-562h-124v7q-21 15 -46 26.5t-50 20t-48.5 14t-42.5 8.5l-4 1l-34 5h-2v111l227 56v266q0 12 -5 25t-14 23t-21.5 16.5t-27.5 6.5l-159 1v-51l4 -2q5 -4 19 -4
q13 0 34.5 6t52.5 23l87 -90q2 -15 3.5 -29.5t1.5 -28.5q0 -38 -7.5 -69t-30 -54t-63 -35.5t-106.5 -12.5q-87 3 -145 24t-101 55q-38 -9 -90 -9h-8q-79 4 -136 23t-97 47.5t-65 64.5t-39.5 74t-20.5 75t-8 68h138v-29q0 -44 14 -82.5t43.5 -66.5t74.5 -44t107 -16
q79 0 79 43q0 6 -2 12t-4 11l-3 4q-11 -6 -34 -13.5t-46 -7.5q-9 0 -21.5 1t-27 6.5t-30 18t-31.5 35.5q-4 7 -6.5 14.5t-3.5 17.5q-1 8 -1.5 64.5t-0.5 162.5zM393 399v-51l4 -2q4 -3 17 -3q37 0 89 28l86 -90q2 -15 3.5 -29.5t1.5 -28.5q0 -44 -14 -84l14 -9
q25 -16 62 -25t83 -9q25 0 41 3.5t25 9.5t12 13t3 14q0 8 -2 14.5t-4 11.5l-3 4q-11 -6 -33.5 -13.5t-49.5 -7.5q-16 0 -36.5 5.5t-39 19.5t-31 38t-12.5 61v94l-2 4q-11 14 -24.5 22.5t-30.5 8.5zM963 -147v57l-126 -26q48 -5 77.5 -13t46.5 -17q1 -1 2 -1z" />
    <glyph glyph-name="j_jho_bn" horiz-adv-x="1035" 
d="M279 535h-289v87h1055v-87h-49v-669h-131v31l-84 59v-121h-131v13q-21 12 -44 22t-46 17.5t-44.5 12t-39.5 7.5l-40 6v111l214 53v227q0 30 -21 54t-51 24h-164v-35l3 -1q5 -4 22 -4q14 0 36.5 6t53.5 23l92 -91q2 -17 3 -32.5t1 -31.5q0 -34 -8 -64t-29.5 -53
t-60.5 -36.5t-100 -13.5q-86 0 -149.5 18t-108 47.5t-72.5 67t-44.5 77t-23 77.5t-8.5 68h146v-3q0 -3 -0.5 -11t-0.5 -18q0 -24 8.5 -59.5t34.5 -68t74 -56t128 -23.5q28 0 46 3.5t28 9.5t13.5 13t3.5 15q0 10 -4 16t-6 13q-11 -6 -34.5 -13.5t-52.5 -7.5q-17 0 -39 5.5
t-41.5 19.5t-32.5 38t-13 62v196zM865 535h-452v-21l217 -1q32 -2 59.5 -15t48 -34.5t32 -49.5t11.5 -59v-264l84 -58v502zM650 -52v48l-113 -23q47 -5 77 -12z" />
    <glyph glyph-name="j_nyo_bn" horiz-adv-x="835" 
d="M423 2q-156 0 -254 71q-135 98 -148 316h146q0 -20 -1 -29q0 -87 44 -146q64 -87 203 -87q85 0 90 43q-1 9 -3 17t-8 16v1q-40 -22 -87 -22q-45 0 -80 27q-46 35 -46 109v217h-289v87h855v-87h-432v-11l7 -5q43 -38 103 -62q23 33 64 51t79 18q61 0 105.5 -41t44.5 -98
q0 -55 -37 -92q37 -37 37 -91q0 -58 -44 -98.5t-106 -40.5q-30 0 -63 11q-23 -36 -64 -55t-116 -19zM666 158q20 0 35 13.5t15 32.5q0 17 -11.5 29t-27.5 16q-2 -1 -10 -1v95q8 0 10 -1q16 4 27.5 16t11.5 29q0 19 -15 32.5t-35 13.5q-24 0 -43 -13q-13 -9 -35 -42
q44 -68 44 -146q0 -30 -7 -62q21 -12 41 -12zM437 321q8 1 20.5 2t49.5 18v1q-43 25 -94 43l1 -59q2 0 7.5 -2.5t15.5 -2.5z" />
    <glyph glyph-name="j_bo_bn" horiz-adv-x="823" 
d="M280 535h-290v87h843v-87h-419v-21h214q33 0 61.5 -13t49.5 -35t33 -51t12 -60v-538h-131v9q-21 14 -46 25.5t-49.5 20t-48.5 14t-43 8.5l-40 6v111l227 56v237q0 15 -6 29t-15.5 25t-22.5 17.5t-27 6.5h-167v-41l3 -1q7 -4 19 -4q14 0 36 6t57 23l91 -92q2 -17 3 -34
t1 -34q0 -35 -8 -65.5t-29.5 -53.5t-60 -36.5t-99.5 -13.5q-89 0 -153 19t-108 49.5t-71.5 70t-43 80t-22 78.5t-9.5 67h146v-33q0 -25 8.5 -61.5t35 -70t75.5 -57.5t130 -24q27 0 44 3.5t26 9.5t12.5 13t3.5 15t-2 15t-4 12l-3 4q-12 -6 -35.5 -13.5t-52.5 -7.5
q-17 0 -38.5 5.5t-40.5 19.5t-32.5 39t-13.5 64v202zM653 -71v57l-125 -26q46 -4 76 -12.5t47 -16.5z" />
    <glyph glyph-name="j_ro_bn" horiz-adv-x="823" 
d="M653 -167q-27 8 -61 13t-74 5q-41 0 -87 -9.5t-101 -26.5q-29 -9 -56 -13t-51 -4q-51 0 -92.5 18.5t-70.5 50t-44.5 73.5t-15.5 89v12l155 -20v-9q0 -10 3.5 -24t13.5 -27.5t28.5 -23t49.5 -9.5q34 0 86 16q51 15 97.5 24t88.5 9q38 0 70 -3.5t61 -11.5v342q0 12 -5 29
l-2 4q-9 19 -26.5 32t-38.5 13h-167v-55q1 0 5.5 -3t16.5 -3q14 0 37 6.5t57 24.5l91 -99q2 -18 3 -36t1 -36q0 -36 -8 -69t-29.5 -57.5t-59.5 -39t-99 -14.5q-87 0 -150.5 19.5t-108 51.5t-72.5 73t-44.5 84t-23.5 85t-9 75h146v-17q0 -3 -1 -7v-11q0 -27 8.5 -65.5
t35 -74.5t75 -61.5t128.5 -25.5q28 0 45 4t27 10.5t13.5 14.5t3.5 16t-2 15t-4 12l-3 5q-13 -6 -36 -14t-51 -8q-17 0 -39 6t-41.5 21t-33 41.5t-13.5 67.5v217h-289v87h843v-87h-419v-21h213q33 0 62 -13t50 -35t33 -51t12 -60v-553h-131v31z" />
    <glyph glyph-name="jh_ro_bn" horiz-adv-x="839" 
d="M441 206v141l-227 -64q61 -3 116 -20.5t92 -43.5zM364 20q47 0 77 -10v23q-37 27 -80.5 48t-87 36t-84.5 25t-73 15l-76 12v210l401 112v44h-451v87h590v-288l80 -56v344h189v-87h-49v-484h-140v57l-80 56v-307h-139v30q-17 8 -37 13t-43 5q-26 0 -57 -7.5t-73 -24.5
q-20 -8 -39 -11.5t-36 -3.5q-38 0 -67 17.5t-49 47.5t-30 69.5t-10 83.5l118 -18v-8q0 -9 3 -22t10 -25t19 -20.5t29 -8.5q19 0 55 16q36 15 68.5 21.5t61.5 8.5z" />
    <glyph glyph-name="ny_co_bn" horiz-adv-x="708" 
d="M189 124q55 -8 97.5 -22.5t62.5 -34.5v112l-160 -54v-1zM480 180l5 -3q26 -14 44 -14q23 0 39 14t16 35q0 35 -42 47q-2 -1 -11 -1v99h9q17 2 30.5 15t13.5 30q0 20 -16 34.5t-39 14.5q-18 0 -44 -14l-5 -4v-253zM64 27v186l285 97v71q0 -1 -1.5 19t-12 45t-33 45.5
t-64.5 20.5q-27 0 -44.5 -6.5t-28.5 -16t-15.5 -20t-4.5 -17.5v-6q11 14 29.5 22.5t41.5 8.5q13 0 27.5 -5t27.5 -15t21.5 -26t8.5 -37q0 -20 -7 -39.5t-20.5 -36t-34 -26.5t-47.5 -10q-34 0 -65 12t-55 35.5t-38 57t-14 77.5q0 35 11.5 67t37 56.5t64.5 39t95 14.5
q38 0 70.5 -8.5t55.5 -21.5v12h126v-80q24 6 49 6q33 0 62 -11.5t51 -31t34.5 -46.5t12.5 -57q0 -55 -39 -95q39 -41 39 -95q0 -30 -12.5 -56.5t-34 -46.5t-51 -31.5t-62.5 -11.5q-28 0 -49 7v-198h-126v30q-67 48 -130.5 74.5t-108.5 36.5l-50 11h-1z" />
    <glyph glyph-name="ny_cho_bn" horiz-adv-x="722" 
d="M658 -235l-379 103v98q121 0 205 36t112 106q3 7 3 15q0 15 -12 24l-5 3q-11 -42 -41.5 -78.5t-76.5 -49.5l-5 -2q-29 -5 -56 -8t-53 -3q-44 0 -82.5 10t-71 25.5t-57 36t-39.5 41.5l-2 2q-9 12 -12.5 16.5t-4.5 6t-1 2.5t-1 6l32 29q155 140 172 203q8 27 8 59
q0 34 -19.5 57.5t-57.5 23.5q-11 0 -22.5 -2t-21.5 -6t-17.5 -10t-10.5 -13q6 2 21.5 8.5t31.5 6.5q34 0 54 -27t20 -65q0 -5 -4 -20t-17 -31t-36 -28t-60 -12q-29 0 -54.5 10.5t-44.5 30t-29.5 48.5t-10.5 66t26 97q26 57 141 73h16q125 0 169 -87q17 27 40.5 48.5t50 37.5
t54 24.5t51.5 8.5l16 -1q129 -20 129 -133q0 -51 -38 -80q23 -20 26 -62q-4 -76 -37.5 -105.5t-90.5 -29.5q-12 0 -30 2.5t-39.5 8.5t-44 16.5t-43.5 26.5l-10 7q12 -20 27.5 -31.5t35 -19t44 -11.5t54.5 -8l2 -1q31 -3 58.5 -11.5t47.5 -24.5t31.5 -40.5t11.5 -59.5
q0 -23 -10.5 -55.5t-38.5 -66.5q-28 -33 -60 -57t-54 -36l-3 -2l173 -43zM335 240l-94 -92l-11 4l2 -1q37 -15 68 -23t71 -8q31 0 59 12.5t41 35.5q-15 0 -33.5 6.5t-37 17t-36 23t-29.5 25.5zM551 397q7 0 14 1.5t8 14.5q0 9 -27 11q-5 -1 -15 -1h-18v99h18q10 1 22.5 5
t23.5 9.5t18 12t7 11.5q0 12 -11.5 19.5t-22.5 7.5q-10 0 -22 -2.5t-25.5 -13.5t-28.5 -32.5t-31 -59.5v-2q4 -10 10.5 -23t16 -25.5t21 -21t26.5 -9.5z" />
    <glyph glyph-name="ny_jo_bn" horiz-adv-x="837" 
d="M463 321l-40 -116h1q1 0 8.5 -2t19.5 -2q17 0 44.5 7t62.5 27l94 -101q2 -15 3.5 -29t1.5 -28q0 -43 -9 -79t-34.5 -62.5t-72 -41.5t-120.5 -15q-85 5 -147.5 26t-105.5 53t-69 72t-38 83q-13 45 -21 83t-11 72h149v-36q0 -26 8 -64.5t34 -74.5t73.5 -61.5t127.5 -25.5
q33 0 54 5t32.5 12.5t15.5 16.5t4 18q0 11 -3 18t-3 9q-12 -7 -38.5 -15.5t-58.5 -8.5q-20 0 -43 6t-42.5 21t-33 41t-13.5 67l44 138l8 40q1 4 1.5 7t0.5 7v15q0 19 -5 42t-17 42.5t-32 33t-50 13.5q-29 0 -47.5 -7.5t-30 -18t-16 -22t-4.5 -19.5q0 -2 0.5 -3t0.5 -2v-6
q10 17 29.5 29.5t45.5 12.5q15 0 29.5 -4.5t26.5 -15t19.5 -27.5t7.5 -41q0 -18 -6.5 -36.5t-20.5 -33.5t-35.5 -24.5t-50.5 -9.5q-33 0 -64 11.5t-54.5 34t-37.5 55.5t-14 76q0 34 12 65.5t38 56t67 39.5t98 15q73 0 117.5 -29t69.5 -77q45 72 101.5 105.5t107.5 33.5
q37 0 65 -11t46.5 -30.5t27.5 -45.5t9 -56q0 -51 -45 -85q14 -14 23 -32.5t9 -40.5q0 -24 -4.5 -43.5t-10.5 -35.5l10 -12q36 -44 36 -101v-315h-113v289q0 26 -14 46.5t-44 30.5q-24 2 -48 8.5t-45.5 16.5t-40 22t-30.5 24zM591 511h15q30 5 54.5 19.5t24.5 30.5
q0 18 -15 28.5t-29 10.5q-19 0 -38.5 -10.5t-29.5 -22.5q-12 -9 -24.5 -28t-30.5 -64l-2 -4q7 -20 17 -38.5t22.5 -32.5t29.5 -22.5t39 -8.5q11 0 19.5 4.5t11.5 21.5q0 11 -10 15.5t-25 6.5h-8q-3 -1 -11 -1h-10v95z" />
    <glyph glyph-name="ny_jho_bn" horiz-adv-x="902" 
d="M757 -119l-65 45v-122h-103v28q-29 19 -61 34t-64 26t-61.5 18.5t-53.5 10.5l-56 8v154l154 43q-62 15 -135 15q-22 0 -45 -2t-45 -2q-46 0 -80 16t-56.5 41t-34 56t-11.5 62v134h131v-108q0 -12 1.5 -27.5t10.5 -30t28 -24.5t54 -10q30 0 68 5t67 5q63 0 101.5 -15.5
t61.5 -32.5v198q-3 3 -5 23.5t-11.5 44t-32 42.5t-65.5 19q-27 0 -44.5 -6.5t-28 -16t-14.5 -19.5t-4 -17v-6q11 14 29.5 22.5t41.5 8.5q14 0 29 -5t28 -15.5t21 -26t8 -36.5q0 -18 -6.5 -38t-20 -36.5t-34 -27t-48.5 -10.5q-35 0 -66 12t-54.5 35.5t-37 57t-13.5 76.5
q0 34 11.5 66.5t36.5 57t64 39.5t95 15q49 0 87.5 -13t64.5 -33l7 -6q24 29 60.5 43.5t71.5 14.5q32 0 59.5 -11t47.5 -29.5t31.5 -43.5t11.5 -53q0 -52 -37 -89q37 -37 37 -90q0 -42 -22 -73v-439h-104v38zM692 51l65 -44v213q-6 -1 -12 -1.5t-12 -0.5q-10 0 -20 1.5
t-21 3.5v-172zM589 60l-167 -47q31 -1 54.5 -6.5t43 -13.5t36 -17.5t33.5 -19.5v104zM733 309q19 0 35 12t16 34q0 17 -12 29.5t-29 14.5h-9v93q9 0 11 -1q15 3 27 14.5t12 28.5q0 19 -15 32.5t-36 13.5q-9 0 -20.5 -3.5t-21 -9.5t-16.5 -14.5t-7 -18.5v-3q1 -1 1 -3v-4
q0 -3 1 -4q13 -32 18 -59.5t5 -42.5q0 -8 -1 -9v-87q22 -13 41 -13z" />
    <glyph glyph-name="tt_tto_bn" horiz-adv-x="650" 
d="M484 622q1 3 1 8v9q0 29 -19.5 46.5t-54.5 17.5q-37 0 -85 -19q-48 -18 -90.5 -26.5t-79.5 -8.5q-72 0 -113 11l-26 137q42 -11 76 -15.5t64 -4.5q52 0 92.5 11t79.5 17q33 7 58 9.5t44 2.5q60 0 98 -17.5t59 -44t28.5 -57t7.5 -55.5v-21h36v-87h-453v-296h20
q14 0 34.5 2t42 8t43.5 16t39 26q-31 37 -31 83q0 28 11 52.5t29.5 43t43.5 29t54 10.5q27 0 52 -11t44 -29.5t30.5 -44t11.5 -54.5q0 -13 -3.5 -33t-11.5 -42.5t-21 -46t-32 -43.5q-4 -81 -37.5 -131t-83 -78t-108.5 -37.5t-114 -9.5q-32 0 -60 2t-50 5h-3q-1 1 -2 1l-47 7
h-2v124q60 -20 108.5 -29t86.5 -9q54 0 88 14t56 34l15 17q-42 -14 -91 -24.5t-100 -10.5q-34 0 -59 5.5t-43 13.5t-29.5 17t-17.5 17l-10 12v390h-70v87h494z" />
    <glyph glyph-name="tt_bo_bn" horiz-adv-x="650" 
d="M425 -206q-27 18 -58 32.5t-62.5 25t-60.5 17.5t-53 10l-51 7v141l285 69v24q-43 -16 -96 -28t-108 -12q-34 0 -59.5 5.5t-44 13.5t-30 17.5t-17.5 16.5l-10 12v390h-70v87h496q0 3 0.5 6t0.5 6q0 30 -19 49.5t-57 19.5q-37 0 -85 -19q-90 -35 -168 -35q-75 0 -114 11
l-25 137q40 -11 74.5 -15.5t65.5 -4.5q38 0 70 5.5t61 13.5q46 13 82.5 17t59.5 4q59 0 97 -18t59.5 -44t29.5 -56.5t8 -55.5q-1 -3 -1 -11v-10h35v-87h-451v-296h20q13 0 33 2t41.5 7.5t43.5 16t40 27.5q-30 37 -30 82q0 28 11 52.5t29.5 43t43 29t52.5 10.5
q29 0 54.5 -11.5t44 -30.5t29 -44t10.5 -53q0 -17 -4.5 -39.5t-14 -47t-26 -49.5t-40.5 -46v-406h-121v12zM367 -54q19 -5 33 -10t25 -10v67l-155 -31q29 -3 53.5 -7t43.5 -9z" />
    <glyph glyph-name="tt_mo_bn" horiz-adv-x="913" 
d="M730 535h-521v-296h20q13 0 33 2t41.5 7.5t43.5 16t40 27.5q-30 37 -30 82q0 28 11 52.5t29.5 43t43 29t52.5 10.5q29 0 54.5 -11.5t44 -30.5t29 -44t10.5 -53q0 -26 -10 -62.5t-34 -73.5v-1q20 -2 46 -12t55 -23l15 -7l27 -17v361zM873 -169h-143v98l-4 23
q-8 31 -23.5 55t-28.5 35l-14 10q-59 43 -104 43h-24q-23 0 -52 -23q83 -39 83 -133v-9q-7 -51 -45.5 -84.5t-93.5 -33.5q-49 0 -86 33l-3 3q-59 51 -59 137q0 18 2.5 40t10.5 44l6 17q-36 -6 -74 -6q-34 0 -59.5 5.5t-44 13.5t-30 17.5t-17.5 16.5l-10 12v390h-70v87h496
q0 3 0.5 6t0.5 6q0 30 -19 49.5t-57 19.5q-36 0 -85 -19q-45 -18 -87 -26.5t-81 -8.5q-72 0 -114 11l-25 137q40 -11 74.5 -15.5t65.5 -4.5q38 0 70 5.5t61 13.5q46 13 82.5 17t59.5 4q59 0 97 -18t59.5 -44t29.5 -56.5t8 -55.5q-1 -1 -1 -11v-10h298v-87h-50v-704z" />
    <glyph glyph-name="tt_ro_bn" horiz-adv-x="650" 
d="M453 -96q-18 9 -40 14.5t-48 5.5q-30 0 -64 -8.5t-76 -27.5q-38 -17 -74 -17q-27 0 -51 12.5t-42.5 34.5t-32 50.5t-19.5 61.5l108 47q5 -36 18.5 -56t39.5 -20q12 0 25.5 4.5t32.5 13.5q38 18 72.5 25.5t63.5 7.5q26 0 47.5 -5t39.5 -13v98q-48 -20 -107.5 -36
t-125.5 -16q-34 0 -59.5 5.5t-43.5 13.5t-29.5 17t-17.5 17l-10 12v390h-70v87h495q1 3 1 8v9q0 29 -19.5 46.5t-55.5 17.5t-86 -19q-92 -35 -169 -35q-71 0 -112 11l-24 137q40 -11 74 -15.5t65 -4.5q51 0 92 10.5t79 17.5q66 12 101 12q61 0 98.5 -17.5t58.5 -44t28.5 -57
t7.5 -55.5v-21h36v-87h-453v-296h21q13 0 33 2t42 7.5t44 15.5t40 27q-31 37 -31 83q0 27 11 51.5t29.5 43t43.5 29.5t53 11q27 0 52 -11t44 -29.5t30.5 -44t11.5 -54.5q0 -8 -2 -23t-6 -32.5t-11 -35.5t-17 -33l1 -376h-143v34z" />
    <glyph glyph-name="tt_ro_alt_bn" horiz-adv-x="650" 
d="M453 132q-48 -20 -107.5 -36t-125.5 -16q-35 0 -60 5t-43 13.5t-29.5 17.5t-17.5 17l-10 12v390h-70v87h495q1 1 1 8v9q0 29 -19.5 46.5t-55.5 17.5q-20 0 -41 -5t-45 -14q-47 -18 -89 -26.5t-80 -8.5q-68 0 -112 11l-24 137q40 -11 74 -15.5t65 -4.5q51 0 92 10.5
t79 17.5q66 12 101 12q61 0 98.5 -17.5t58.5 -44t28.5 -57t7.5 -55.5v-21h36v-87h-453v-296h21q13 0 33 2t42 7.5t44 15.5t40 27q-31 37 -31 83q0 27 11 51.5t29.5 43t43.5 29.5t53 11q27 0 52 -11t44 -29.5t30.5 -44t11.5 -54.5q0 -8 -2 -23t-6 -32.5t-11 -35.5t-17 -33
v-369h-142v29q-49 20 -122 20q-44 0 -78 -7t-62.5 -15t-53.5 -15t-51 -7q-47 0 -117 21q-70 19 -121 128l134 36q43 -63 120 -63q17 0 39.5 7.5t50 16.5t61 16.5t72.5 7.5q69 0 128 -18v98z" />
    <glyph glyph-name="tth_ro_bn" horiz-adv-x="576" 
d="M393 62q-25 -8 -54 -12t-62 -5q-60 1 -104.5 22t-76 51t-51.5 63t-31 58l-1 2q-11 26 -12 32l-1 1l26 -6q15 -4 37 -7t45 -3q24 0 48 5t43 18t31 36.5t12 59.5q0 30 -9.5 68.5t-29.5 89.5h-213v87h181q-17 44 -17 85q-1 20 2.5 37t8.5 31l8 25l153 1q-16 -26 -22 -51.5
t-6 -49.5q0 -21 4 -41t10 -37h274v-87h-196q25 -18 54 -36.5t54 -45t42 -63.5t17 -91q0 -57 -21 -105v-353h-143v37q-15 8 -35.5 13t-43.5 5q-26 0 -55 -9.5t-64 -27.5q-17 -9 -34 -13t-31 -4q-25 0 -46 12.5t-37.5 34.5t-28.5 50.5t-18 61.5l96 47q10 -76 51 -76
q11 0 23.5 4.5t29.5 13.5q31 17 59.5 24t53.5 9q45 0 80 -15v54zM427 292v13q0 25 -7 45.5t-17.5 36t-21.5 27t-20 18.5l-13 10h-1q13 -40 13 -77q0 -44 -15.5 -72t-34.5 -45t-34.5 -25t-15.5 -11q0 -4 6.5 -7t15.5 -5t18 -3t14 -1q19 0 38.5 5.5t35.5 17.5t26.5 30t12.5 43
z" />
    <glyph glyph-name="dd_ddo_bn" horiz-adv-x="1111" 
d="M506 101q-56 -32 -137 -32q-76 4 -130.5 23t-92 47.5t-60.5 63.5t-36.5 72t-19.5 73t-9 66h132v-31q0 -21 7.5 -55.5t29 -66.5t62 -55.5t106.5 -23.5q42 0 71.5 14t48 33.5t27.5 40.5t12 36l3 16q-7 -3 -20 -9t-30.5 -12t-39 -10.5t-43.5 -4.5q-18 0 -41 4.5t-43.5 17
t-35 34t-14.5 55.5v138h-263v87h1126v-87h-317v-158l32 4q31 4 76 15t90 35l93 -99q1 -5 1 -15v-14q0 -50 -17.5 -104t-54.5 -99t-94 -74t-136 -29q-105 4 -172.5 32.5t-110.5 71.5zM379 535v-130h2q10 3 28.5 5.5t42 7.5t49.5 13t53 23l82 -88q1 -4 1 -12v-11
q0 -32 -9.5 -72.5t-28.5 -72.5q28 -30 71 -51.5t109 -21.5q48 0 80 16t52 38t30 45.5t14 39.5v1q3 10 3 14l1 2q-8 -3 -22.5 -9.5t-35 -12.5t-44.5 -11t-50 -5q-21 0 -46.5 5.5t-48.5 19.5t-38.5 38t-15.5 62v167h-279z" />
    <glyph glyph-name="dd_ro_bn" horiz-adv-x="737" 
d="M285 535h-295v87h757v-87h-320v-150l31 4q30 4 75 14.5t90 35.5l94 -99q1 -5 1 -14v-13q0 -42 -13.5 -90.5t-39.5 -88.5v-328h-143v37q-23 8 -51 13t-60 5q-33 0 -70.5 -10t-81.5 -27q-23 -9 -45 -13t-41 -4q-33 0 -61 12.5t-50.5 34t-38 50.5t-23.5 62l128 47
q5 -36 22 -56t46 -20q14 0 31 4t38 14q42 15 79 24t71 9q65 0 107 -16v47q-47 -14 -97 -14h-10q-86 5 -147.5 27t-104.5 54.5t-69.5 72.5t-41.5 81.5t-21.5 82t-9.5 72.5h149v-17q0 -3 -1 -7v-1q0 -15 2.5 -38.5t11 -50t24.5 -53t42.5 -47.5t64.5 -34.5t92 -13.5
q55 0 89.5 21t54.5 48t27.5 52t7.5 33l1 2q-8 -3 -23 -9.5t-35.5 -12.5t-44.5 -11t-49 -5q-21 0 -47 5t-48.5 19t-38 38.5t-15.5 62.5v159z" />
    <glyph glyph-name="ddh_ro_bn" horiz-adv-x="650" 
d="M453 -96q-18 9 -40 14.5t-48 5.5q-30 0 -64 -8.5t-76 -27.5q-38 -17 -74 -17q-27 0 -51 12.5t-42.5 34.5t-32 50.5t-19.5 61.5l108 47q5 -36 18.5 -56t39.5 -20q12 0 25.5 4.5t32.5 13.5q38 18 72.5 25.5t63.5 7.5q26 0 47.5 -5t39.5 -13v98q-48 -20 -107.5 -36
t-125.5 -16q-34 0 -59.5 5.5t-43.5 13.5t-29.5 17t-17.5 17l-10 12v390h-70v87h670v-87h-453v-296h21q13 0 33 2t42 7.5t44 15.5t40 27q-31 37 -31 83q0 27 11 51.5t29.5 43t43.5 29.5t53 11q27 0 52 -11t44 -29.5t30.5 -44t11.5 -54.5q0 -8 -2 -23t-6 -32.5t-11 -35.5
t-17 -33l1 -376h-143v34z" />
    <glyph glyph-name="nn_tto_bn" horiz-adv-x="970" 
d="M980 535h-454v-380l35 6q33 5 76 22.5t76 49.5q-38 41 -38 94q0 28 11 52.5t30 42.5t44 28t52 10q26 0 51 -10t44.5 -28t31 -42t11.5 -52q0 -54 -22.5 -105.5t-68 -95.5t-115 -77.5t-162.5 -50.5q-16 -3 -30.5 -4t-27.5 -1q-32 0 -56 6t-41 15.5t-27 20t-14 19.5l-4 5
l-2 1q1 1 0 3v386q-59 33 -101 33q-32 0 -55 -19q86 -5 86 -76q0 -29 -10.5 -53.5t-29 -43.5t-43 -29.5t-52.5 -10.5q-26 0 -50 9t-41 25l-4 2q-60 54 -60 126q0 40 16 78t46 68t72 48t94 18q55 0 132 -23v20h424q0 3 0.5 6t0.5 6q0 26 -18.5 47.5t-53.5 21.5
q-17 0 -38.5 -5.5t-48.5 -15.5q-48 -18 -90 -26t-80 -8q-72 0 -113 11l-25 137q38 -12 71.5 -16t62.5 -4q38 0 73 6.5t65 13.5l40 9q33 8 57.5 10t42.5 2q62 0 100 -19t59 -46t28 -57.5t7 -52.5v-10q0 -7 -1 -10h37v-87z" />
    <glyph glyph-name="nn_ttho_bn" horiz-adv-x="705" 
d="M715 622v-87h-210q25 -16 56 -44t58.5 -65t46.5 -81.5t19 -92.5q0 -51 -17.5 -97.5t-53.5 -82t-90.5 -57t-129.5 -22.5q-53 0 -94 17t-71.5 43t-52 55.5t-34.5 55t-19 42t-6 15.5l15 -2q8 -1 17.5 -1.5t21.5 -0.5q27 0 59.5 5.5t61 22t47.5 47.5t19 82q0 20 -3.5 44
t-11.5 53q-35 12 -61 12q-36 0 -58 -19q86 -5 86 -76q0 -30 -11 -55t-30 -43.5t-44.5 -28.5t-53.5 -10q-27 0 -49 9t-39 25l-4 2q-59 53 -59 127q0 40 15.5 78t46 68t75 48t101.5 18q7 0 13.5 -0.5t13.5 -0.5q-8 20 -11.5 40t-3.5 39q0 30 6 53.5t9 33.5l3 7h154
q-16 -26 -22.5 -51t-6.5 -49q-1 -21 4 -40t10 -36h288zM544 239v9q0 25 -7.5 46.5t-18.5 38t-23 28.5t-20 18l-12 9q13 -42 13 -78q0 -42 -15.5 -69.5t-34 -44.5t-34 -25t-15.5 -11q0 -4 6.5 -7t15 -5t17.5 -3t14 -1q18 0 37.5 5.5t36 17t27.5 29.5t13 43z" />
    <glyph glyph-name="nn_ddo_bn" horiz-adv-x="686" 
d="M617 329q49 -61 49 -144q0 -35 -13.5 -70.5t-43.5 -64t-76.5 -46t-112.5 -17.5q-102 0 -177.5 36t-124.5 91.5t-73 121.5t-24 126h123l5 -52q5 -32 25.5 -69.5t56 -69.5t85 -54t112.5 -22q39 0 63 11t36.5 26.5t16.5 33.5t4 32q0 9 -1 15.5t-1 9.5q-39 -49 -103 -49
q-51 0 -85 30.5t-36 78.5q1 52 38 81t97 29q11 0 19 -1t14 -2l22 -5l10 -3l9 10q11 12 17 21.5t6 25.5q0 17 -11 47l-85 -70h-70l-11 22q-7 13 -11 21.5t-9 14.5t-12 10.5t-19 10.5q23 -23 23 -54q0 -39 -23 -62t-71 -23q-33 0 -57 10.5t-39.5 28t-23.5 41t-8 50.5
q0 29 12 54t32.5 43t48.5 28.5t60 10.5q75 0 162 -84l130 84l14 -12q9 -8 22 -22.5t25 -34t20.5 -44.5t8.5 -54q0 -28 -10 -59.5t-35 -66.5z" />
    <glyph glyph-name="nn_dd_ro_bn" horiz-adv-x="686" 
d="M505 112q26 19 34 44.5t8 44.5q0 9 -1 14.5t-1 7.5q-39 -49 -101 -49q-54 0 -87.5 30.5t-35.5 78.5q1 54 38.5 82t101.5 28q14 0 24 -2.5t15 -2.5l2 -1q5 -1 9.5 -2t9.5 -3l9 10q10 11 16.5 21t6.5 25q0 18 -12 48l-83 -70h-71l-9 22q-6 14 -10.5 22.5t-10 14t-13.5 10
t-20 10.5q14 -11 19.5 -25t5.5 -29q0 -40 -23.5 -62.5t-71.5 -22.5q-33 0 -56.5 10t-39.5 28t-23.5 42t-7.5 52q0 29 12 53.5t33 42.5t48.5 28t59.5 10q76 0 162 -84l130 84l16 -13q10 -8 22.5 -23t23.5 -34.5t19 -43.5t8 -51q0 -29 -10 -61t-35 -67q23 -30 37 -66.5
t14 -75.5q0 -49 -22 -89v-318h-143v35q-43 20 -104 20q-33 0 -69.5 -9.5t-81.5 -27.5q-22 -9 -43 -13t-39 -4q-32 0 -58.5 12.5t-47.5 34t-36 50.5t-23 62l122 47q7 -36 21.5 -56t43.5 -20q14 0 29.5 4.5t36.5 13.5q39 17 75.5 24t68.5 9q59 0 105 -17v52q-36 -10 -83 -10
q-57 0 -105 12.5t-88 33.5t-71.5 48.5t-54.5 56.5q-79 100 -79 224h122l6 -52q5 -32 25.5 -69.5t56 -69.5t84.5 -54t111 -22q53 0 76 15v1z" />
    <glyph glyph-name="nn_ddho_bn" horiz-adv-x="971" 
d="M981 535h-452v-380q39 6 68 15t61.5 24t56.5 39q-38 41 -38 94q0 28 10.5 52.5t29 42.5t43 28t53.5 10q27 0 52 -10t43.5 -27.5t30 -41.5t11.5 -52q0 -56 -22.5 -107.5t-68 -95t-114.5 -76.5t-162 -51q-32 -7 -61 -7q-30 0 -53 6.5t-40 15.5t-27.5 19.5t-14.5 18.5l-7 12
v386q-59 33 -100 33q-31 0 -54 -19q84 -5 84 -74q0 -30 -10.5 -55.5t-29.5 -44t-44 -29t-53 -10.5q-26 0 -48 9t-41 25l-3 2q-60 54 -60 126q0 40 16 78t46 68t72 48t94 18q55 0 132 -23v20h600v-87z" />
    <glyph glyph-name="nn_nno_bn" horiz-adv-x="657" 
d="M475 622h192v-87h-50v-357q1 -1 1 -3l-1 -182h-142v160q-76 43 -124 43q-23 0 -42 -10q35 -14 54 -38.5t19 -53.5q0 -22 -10 -40t-27.5 -30.5t-40 -19.5t-47.5 -7q-54 0 -91 30l-4 2q-50 41 -50 96q0 30 15.5 62.5t44.5 58.5t70 43t93 17q32 0 66.5 -6.5t73.5 -19.5v99
l-2 12q-9 31 -24.5 49t-28.5 27l-13 9h-1q-34 18 -62.5 26t-52.5 8q-20 0 -36.5 -5t-29.5 -13q40 -14 62 -40t22 -60q0 -22 -11.5 -41t-30.5 -33t-43.5 -22t-50.5 -8q-27 0 -50 7t-40 19l-3 2q-59 41 -59 105q0 34 16.5 69.5t47.5 64.5t76.5 48t103.5 19q70 0 169 -32l4 -2
l37 -17v51z" />
    <glyph glyph-name="nn_bo_bn" horiz-adv-x="657" 
d="M474 235v81q-6 28 -15.5 49.5t-19 36t-18 22.5t-12.5 10l-2 2q-34 22 -62.5 31.5t-52.5 9.5q-40 0 -66 -23q84 -39 84 -131q0 -28 -11.5 -51.5t-31 -40t-44 -26t-49.5 -9.5q-51 0 -90 30l-3 4q-60 51 -60 136q0 45 17 90.5t49.5 82t78.5 60t105 23.5q69 0 163 -41l24 -14
q4 -2 16 -10v65h193v-87h-50v-651h-143v14q-29 21 -62.5 37t-67.5 27t-66 18.5t-59 11.5h-7q-1 0 -2 1h-5q-4 0 -5 1l-36 4v164zM474 41v75l-173 -35q63 -7 104.5 -17t64.5 -21z" />
    <glyph glyph-name="nn_mo_bn" horiz-adv-x="954" 
d="M475 292v24q-9 43 -25 69.5t-31 38.5l-14 11l-1 1q-32 22 -60.5 31.5t-51.5 9.5q-39 0 -68 -23q84 -39 84 -131q0 -28 -12 -51t-31 -40t-43 -26.5t-48 -9.5q-55 0 -91 30l-4 4q-58 51 -58 136q0 45 17 91t49.5 82.5t78.5 59.5t103 23q70 0 164 -41l41 -24v65h490v-87h-50
v-632h-143v108q0 4 -1 5q-9 40 -24.5 64t-28.5 35l-14 10q-34 22 -62 31.5t-51 9.5q-20 0 -37 -6t-31 -16q85 -39 85 -132q0 -27 -12 -50.5t-31 -41t-43.5 -27.5t-49.5 -10q-54 0 -88 33l-4 4q-60 51 -60 136q0 36 10.5 71t30.5 66.5t49 57t66 41.5zM771 535h-154v-228
q56 -9 114 -37h1q0 -2 11.5 -7t27.5 -17v289z" />
    <glyph glyph-name="nn_ro_bn" horiz-adv-x="657" 
d="M475 113v203q-6 28 -16 49.5t-20 36t-18.5 22.5t-12.5 10l-2 2q-34 22 -62 31.5t-52 9.5q-39 0 -68 -23q84 -39 84 -131q0 -28 -11.5 -51.5t-30 -40t-43 -26t-50.5 -9.5q-27 0 -49 8t-41 22l-2 4q-60 51 -60 136q0 45 17 90.5t49.5 82.5t78.5 60t104 23q35 -1 75.5 -10.5
t86.5 -30.5l13 -6q12 -6 30 -18v65h192v-87h-50v-575h-142v21q-37 17 -89 17q-62 0 -144 -36q-42 -18 -78 -18q-39 0 -69.5 20.5t-51.5 54.5t-32 79t-11 94l114 -20v-10q0 -11 2 -25.5t9.5 -27.5t21 -22.5t36.5 -9.5q13 0 28.5 3.5t35.5 11.5q42 18 78 26t68 8q46 0 82 -13z
" />
    <glyph glyph-name="t_to_bn" horiz-adv-x="600" 
d="M309 535h-319v87h620v-87h-130q51 -20 76 -54.5t25 -94.5q0 -38 -13 -66.5t-34 -46.5l-7 -5l12 -12q45 -51 45 -111q0 -26 -11.5 -52t-36.5 -47t-65 -34.5t-97 -13.5q-74 0 -129 21t-94 54t-64.5 75.5t-40.5 84.5t-20.5 81t-5.5 66v15q0 10 1 14l1 11q1 9 1 15t1 8v2h119
v-16q0 -99 24 -159.5t59 -94t75 -45t73 -11.5q23 0 38 3l21 3q27 8 34.5 23t9.5 27v6q-5 -10 -27.5 -20.5t-50.5 -10.5q-14 0 -28.5 4t-26.5 13t-19.5 24t-7.5 38q0 26 20 50.5t71 33.5l5 2q19 8 33.5 28.5t14.5 58.5q0 12 -4.5 19.5t-11.5 12t-14 6.5t-11 2h-4
q21 -15 21 -41q0 -14 -6 -29.5t-19.5 -28t-34.5 -20.5t-50 -8q-19 0 -38 5.5t-34.5 17.5t-25 30.5t-9.5 45.5q0 45 23.5 75t65.5 46z" />
    <glyph glyph-name="t_t_bo_bn" horiz-adv-x="600" 
d="M309 535h-319v87h620v-87h-130q51 -20 76 -54.5t25 -94.5q0 -38 -13 -66.5t-34 -46.5l-7 -5l12 -12q45 -51 45 -111q0 -31 -11.5 -55.5t-39.5 -44.5v-256h-141v30q-22 15 -47 26.5t-50.5 20.5t-49 14.5t-42.5 8.5h-3q-16 2 -25 3t-11 2l-1 116l63 18q-67 27 -107.5 73.5
t-62.5 98t-29 100t-7 80.5v15q0 10 1 14l1 11q1 9 1 15t1 8v2h119v-16q0 -99 24 -159.5t59 -94t75 -45t73 -11.5q23 0 38 3l21 3q27 8 34.5 23t9.5 27v6q-5 -10 -27.5 -20.5t-50.5 -10.5q-14 0 -28.5 4t-26.5 13t-19.5 24t-7.5 38q0 26 20 50.5t71 33.5l5 2q19 8 33.5 28.5
t14.5 58.5q0 12 -4.5 19.5t-11.5 12t-14 6.5t-11 2h-4q21 -15 21 -41q0 -14 -6 -29.5t-19.5 -28t-34.5 -20.5t-50 -8q-19 0 -38 5.5t-34.5 17.5t-25 30.5t-9.5 45.5q0 45 23.5 75t65.5 46zM392 -7l-128 -31q48 -4 78 -13.5t47 -19.5l3 -2v66z" />
    <glyph glyph-name="t_tho_bn" horiz-adv-x="722" 
d="M379 492l-64 -66l-60 -6l-13 20q-8 11 -12 19t-8.5 13.5t-11 9t-19.5 6.5q28 -22 28 -59q0 -38 -23 -58t-65 -20q-29 0 -49.5 10.5t-34 28t-20 39t-6.5 43.5q0 25 9.5 48.5t27 41.5t41 28.5t51.5 10.5q63 0 139 -64l97 64q8 5 12 5q5 0 6 -1q20 -8 38.5 -26t33 -42
t23.5 -52.5t10 -58.5q-3 -41 -13.5 -72t-26 -55.5t-35 -43.5t-40.5 -35q97 -27 143 -55v457h195v-87h-50v-563h-145v15q-43 33 -90 55t-92.5 36.5t-87.5 21.5t-74.5 10.5t-53.5 4.5t-24 2v118l30 9l4 1q25 7 59.5 19.5t67.5 31.5t58.5 43.5t33.5 55.5v2q1 0 1 2l4 11
q3 11 5.5 26.5t2.5 32.5v11q0 8 -1 11z" />
    <glyph glyph-name="t_no_bn" horiz-adv-x="645" 
d="M655 535h-665v87h665v-87zM541 -279h-146v138q-5 3 -7 8q-51 50 -97 50q-23 0 -40 -11q39 -32 39 -81q0 -42 -27.5 -62t-71.5 -20q-113 0 -113 100q0 44 15.5 73t42.5 56.5t62 44.5t74 17q55 0 123 -37v47l-20 -2l-25 -1q-92 0 -150 26q-108 48 -140 140q-19 53 -19 83
q0 6 -1 8v174h137l1 -174q0 -37 33 -74q51 -58 152 -58q77 0 111 34q25 25 25 67q0 24 -5 39q-42 -57 -111 -57q-54 0 -91.5 35.5t-39.5 86.5q0 58 41 90t105 32q22 0 39 -2.5t26 -2.5q72 -18 117 -78t45 -142q0 -48 -19.5 -95.5t-64.5 -78.5v-373z" />
    <glyph glyph-name="t_bo_bn" horiz-adv-x="647" 
d="M-10 622h667v-87h-667v87zM423 -56v62l-140 -30q51 -5 84.5 -14.5t55.5 -17.5zM536 90v-280h-113v13q-25 16 -53 29t-56.5 23t-55.5 16.5t-48 9.5h-5q-1 0 -2 1l-12 1q-1 1 -4 1l-25 4v128l76 19q-56 12 -92.5 40t-58.5 61t-31.5 65t-11.5 51l-2 12q-1 5 -1 8.5t-1 5.5
v174h139v-171q0 -5 2.5 -17t9.5 -27t20 -31t33 -29.5t49 -22t69 -8.5q46 0 73.5 10t41 25.5t17.5 33.5t4 33q0 26 -4 38q-41 -57 -111 -57q-27 0 -50.5 9.5t-41 26t-28 38.5t-11.5 48q1 57 40.5 89.5t105.5 32.5q21 0 38 -2.5t28 -2.5h2q34 -9 63.5 -29t51 -48.5t34 -65
t12.5 -78.5q0 -48 -22.5 -97.5t-68.5 -79.5z" />
    <glyph glyph-name="t_lo_bn" horiz-adv-x="647" 
d="M-10 622h667v-87h-667v87zM418 48q-16 -4 -33 -5.5t-34 -1.5q-92 0 -150 26t-92 63t-48 76.5t-18 65.5v3q-1 18 -3 23v174h139l1 -174q0 -9 6.5 -30.5t26 -44t55.5 -40t95 -17.5q43 0 70 9.5t42 24t20 32t5 34.5q0 25 -5 40q-41 -57 -111 -57q-27 0 -50.5 9.5t-41.5 26
t-28.5 38.5t-11.5 48q0 57 41.5 89.5t104.5 32.5q50 0 69 -5q34 -9 63 -29t50.5 -48.5t34 -65t12.5 -77.5q0 -20 -4 -41.5t-12 -42.5t-20 -40t-28 -33v-323h-145v92l-8 10q-4 2 -13.5 7t-20.5 5q-14 0 -28 -8l10 -15l-69 -48q-11 15 -19.5 32t-19.5 31.5t-28 24t-45 9.5
q-16 0 -25.5 -6t-14.5 -14t-6.5 -17t-1.5 -15v-8q9 12 22.5 17.5t27.5 5.5q17 0 30 -7.5t21.5 -18.5t13 -24t4.5 -25q0 -29 -21.5 -43t-61.5 -14q-27 0 -50.5 10t-41.5 29.5t-28 38.5t-10 54q0 31 9.5 58t29.5 46.5t51 31t75 12.5q58 -9 95 -49q14 17 32.5 27t40.5 10
q23 0 50 -15v36z" />
    <glyph glyph-name="t_mo_bn" horiz-adv-x="916" 
d="M730 535h-740v87h936v-87h-50v-761h-146v108q0 4 -1 5q-10 42 -25.5 66t-29.5 35l-14 11q-31 24 -61 33.5t-52 9.5q-41 0 -68 -24q84 -41 84 -134q0 -29 -12 -52.5t-31.5 -41t-44.5 -27t-52 -9.5q-39 0 -67.5 16t-47.5 41t-28.5 56.5t-9.5 62.5q0 58 27 114
q-72 7 -119.5 34.5t-76 62.5t-41.5 71t-16 60l-2 12q-1 5 -1 8.5t-1 5.5v174h139l1 -174q0 -9 6 -31t25.5 -44.5t56 -39.5t96.5 -17q43 0 70 9.5t41.5 24.5t19.5 33t5 35q0 11 -1 21t-3 17q-44 -57 -112 -57q-28 0 -51.5 9.5t-41 26t-28 38.5t-11.5 48q1 57 40.5 89.5
t106.5 32.5q48 0 67 -5q34 -9 63.5 -29t51 -48.5t34 -65t12.5 -78.5q0 -49 -19 -91q37 -11 81 -30h1q0 -2 11.5 -7t28.5 -17v413z" />
    <glyph glyph-name="t_ro_bn" horiz-adv-x="703" 
d="M309 535h-319v87h723v-87h-182l16 -8q42 -24 65.5 -58t35 -65.5t13.5 -54t2 -23.5v-326h-125v6q-9 19 -31 33.5t-54 24.5t-73 15t-87 5q-19 0 -40 -1.5t-41 -1.5q-44 0 -76 14t-53.5 36.5t-32 50.5t-10.5 57v120h126v-98q0 -11 1 -25t9 -27t26 -21.5t53 -8.5q29 0 64.5 4
t63.5 4q59 0 94.5 -13.5t60.5 -28.5v178l-2 18q-2 12 -7 29t-17 32t-31 26t-49 11q-29 0 -46.5 -7t-27 -16.5t-12.5 -19t-3 -13.5v-2q21 26 69 26q12 0 26 -4t26 -13t20 -22.5t8 -32.5q0 -17 -6.5 -35t-19.5 -32.5t-32.5 -24t-45.5 -9.5q-32 0 -61 10.5t-51.5 31t-36 50
t-13.5 68.5q0 19 5 39.5t15 39.5t25.5 35t37.5 27z" />
    <glyph glyph-name="th_bo_bn" horiz-adv-x="632" 
d="M397 39q-36 21 -75 37t-77 26.5t-73 16t-63 6.5l-25 1l-15 1q-11 1 -18 1t-9 1h-2v117l35 9q24 7 57.5 19t65 30t56.5 42t33 55q-42 -50 -105 -50q-29 0 -53.5 11t-42.5 29.5t-29 43.5t-12 52q0 28 10 52.5t28 42.5t43.5 28.5t55.5 11.5h14q31 0 70.5 -9.5t74 -32t58 -59
t23.5 -90.5q-1 -37 -11 -67.5t-25.5 -55.5t-34.5 -44.5t-38 -34.5q48 -13 81.5 -26t54.5 -26v445h193v-87h-50v-814h-143v26q-27 18 -58.5 32t-63 24.5t-61 17.5t-53.5 10l-5 1h-3q-2 0 -3 1l-40 6h-2v143zM449 -120v69l-156 -34q55 -5 93.5 -14.5t62.5 -20.5z" />
    <glyph glyph-name="th_ro_bn" horiz-adv-x="630" 
d="M447 -123q-17 10 -40.5 16t-49.5 6q-57 0 -133 -36q-35 -17 -72 -17q-36 0 -64.5 19.5t-48 53t-29.5 77.5t-10 94l114 -20l3 -24q4 -33 18 -51t38 -18q10 0 23.5 3.5t31.5 11.5q36 16 67.5 25t59.5 9q43 0 82 -14q-40 29 -84.5 50t-88 34.5t-84 20.5t-72.5 8l-26 1l-11 1
q-11 1 -18.5 1.5t-10.5 0.5h-2v117l34 9q23 7 56 19t65.5 30t58 42t32.5 55q-41 -50 -105 -50q-28 0 -52.5 10.5t-43 29t-29 43t-10.5 53.5q0 28 10 52.5t27.5 42.5t42.5 28.5t55 11.5h13q36 0 76.5 -10.5t74 -34t55.5 -59.5t22 -87q0 -38 -10 -68t-26 -55t-36 -44.5
t-39 -34.5q49 -13 83 -26t54 -26v445h192v-87h-50v-690h-142v32h-1z" />
    <glyph glyph-name="th_lo_bn" horiz-adv-x="631" 
d="M448 4q-42 31 -87.5 53.5t-90.5 37t-86.5 21.5t-74.5 9l-25 1l-15 1q-11 1 -18 1t-9 1h-2v117l34 9q24 6 57.5 18.5t65.5 30.5t57 42.5t32 54.5q-41 -50 -104 -50q-29 0 -53.5 11t-42.5 29.5t-29 43t-12 52.5q1 57 37.5 95t99.5 40h14q34 0 74 -10.5t74 -33.5t56.5 -59.5
t22.5 -87.5q-1 -37 -11 -67.5t-25.5 -55.5t-35 -44.5t-40.5 -34.5q96 -25 137 -52v445h193v-87h-50v-730h-143v78q-1 7 -10 18.5t-35 11.5q-15 0 -25 -10l9 -14l-66 -45l-15 22q-6 12 -13.5 24.5t-18.5 22.5t-26 16.5t-35 6.5q-15 0 -25 -5t-16 -12.5t-8.5 -16t-2.5 -14.5
v-11q21 24 52 24q17 0 29.5 -7t21 -17.5t12.5 -22t4 -19.5q0 -15 -7.5 -28t-19.5 -22t-28 -14.5t-34 -5.5q-48 0 -80.5 34t-32.5 97q0 27 8.5 51.5t27 42.5t48 29t71.5 12q55 -7 94 -49q12 17 30 28t40 11t51 -17z" />
    <glyph glyph-name="d_do_bn" horiz-adv-x="868" 
d="M60 535h-70v87h888v-87h-675v-192l244 130l141 -30l-21 -101l142 73l139 -29l-37 -183q-2 -10 -2 -29q0 -13 3 -29.5t11 -33.5t22 -33.5t36 -29.5l-78 -121q-44 29 -72.5 59.5t-45 60t-22.5 56.5t-6 50q0 19 2.5 33t6.5 25l5 17l2 11l-252 -131q-14 31 -19.5 58t-5.5 50
q-1 14 1.5 25t4.5 20l9 34l-208 -109l-143 47v302z" />
    <glyph glyph-name="d_d_bo_bn" horiz-adv-x="835" 
d="M60 535h-70v87h855v-87h-643v-192l246 130l141 -30l-21 -102l143 74l104 -29v-473h-104v10q-22 13 -47 24.5t-50 19.5t-48 13.5t-41 8.5l-41 6v118l227 56v90l-289 -151q-14 29 -20 55.5t-6 48.5q-1 15 1.5 27t5.5 22l9 35l-209 -110l-1 3v-3l-142 47v302zM667 48
q29 -8 44 -17v53l-121 -24q46 -5 77 -12z" />
    <glyph glyph-name="d_dho_bn" horiz-adv-x="837" 
d="M733 274l84 -44l-57 -110l-2 -1q-2 -2 -5 -9.5t-3 -33.5q0 -16 5.5 -34t20.5 -35l-71 -63q-34 38 -46 71.5t-12 60.5q0 26 7 45t13 29l7 9l4 8l-90 -20v-199h-141v21q-22 14 -47 26t-50 21t-49 15t-43 9l-41 6v117l230 58v93l-245 -128l-142 47v302h-70v87h857v-87h-645
v-192l246 130l140 -31v-199zM447 76v57l-126 -24q48 -5 78 -14t47 -18z" />
    <glyph glyph-name="d_dh_bo_bn" horiz-adv-x="837" 
d="M733 274l84 -44l-57 -110l-2 -1q-2 -2 -5 -9.5t-3 -33.5q0 -16 5.5 -34t20.5 -35l-71 -63q-34 38 -46 71.5t-12 60.5q0 26 7 45t13 29l7 9l4 8l-90 -20v-376h-141v34q-39 20 -80.5 32t-71.5 17l-41 6v117l120 30l-22 9q-27 8 -50.5 14.5t-43.5 9.5l-41 6v117l230 58v93
l-245 -128l-142 47v302h-70v87h857v-87h-645v-192l246 130l140 -41v-189zM447 76v57l-126 -24q48 -5 78 -14t47 -18zM447 -94v34l-89 -17q23 -2 42.5 -5.5t35.5 -8.5z" />
    <glyph glyph-name="d_no_bn" horiz-adv-x="630" 
d="M60 535h-70v87h650v-87h-438v-191l247 129l141 -31v-544h-142v117l-8 8q-27 26 -51 36t-44 10q-23 0 -39 -9q49 -34 49 -88q0 -23 -8.5 -42t-23 -33t-33.5 -21.5t-40 -7.5q-49 0 -81 38l-3 2q-29 41 -29 86q0 30 13.5 64t38 62t60 46.5t79.5 18.5q52 0 120 -35v164
l-246 -128l-142 47v302z" />
    <glyph glyph-name="d_bo_bn" horiz-adv-x="628" 
d="M60 535h-70v87h648v-87h-436v-192l246 130l140 -31v-497h-141v24q-22 14 -47 26t-50 21t-49 15t-43 9l-41 6v117l230 58v93l-245 -128l-142 47v302zM447 76v57l-126 -24q48 -5 78 -14t47 -18z" />
    <glyph glyph-name="d_bho_bn" horiz-adv-x="841" 
d="M551 246q0 -4 0.5 -8t1.5 -9l14 -16q15 -26 15 -49q0 -37 -36 -68q12 -3 22 -3q21 0 40.5 14.5t48.5 49.5l5 6q4 6 8.5 15.5t7.5 26.5l130 -48q8 -21 11 -37.5t3 -36.5q0 -40 -12.5 -86t-46.5 -85.5t-95 -65.5t-157 -26q-86 3 -150 23t-110.5 50.5t-77 70t-48.5 81
t-26 82.5t-9 76h177v-2q0 -3 -1 -12.5t-1 -23.5q0 -28 9 -66t36 -73t77.5 -59.5t134.5 -24.5q43 0 69.5 9.5t40.5 22t19 25t5 17.5q0 3 -1 3q-73 -37 -139 -37q-38 0 -73.5 12.5t-63 33.5t-44 49.5t-16.5 60.5q0 13 2.5 28t11 30t24 28.5t41.5 24.5q1 11 2 20.5t3 17.5l7 23
l6 32l-213 -75l-143 48v220h-70v87h861v-87h-648v-122l245 84l140 -26l-37 -196q-1 -3 -1 -13v-8q0 -5 1 -8z" />
    <glyph glyph-name="d_bh_ro_bn" horiz-adv-x="820" 
d="M60 535h-70v87h840v-87h-627v-122l245 84l140 -26l-37 -199l6 -8q15 -27 15 -51q0 -38 -36 -69q6 -2 10 -2h11q23 0 43 14.5t48 52.5l2 2q0 2 7.5 13t10.5 31l132 -46v-366h-142v46q-21 7 -48.5 12.5t-58.5 5.5q-67 0 -165 -32q-47 -15 -86 -15q-44 0 -78 17.5t-57 47
t-35.5 68.5t-12.5 81l127 -18v-9q0 -8 3 -20t11 -23.5t23.5 -20t40.5 -8.5q30 0 69 13q45 15 84.5 22t74.5 7q61 0 108 -14v75l-14 -10q-74 -38 -139 -38q-39 0 -74 13t-62 35t-43 51t-16 61q0 33 19 67l3 3q5 7 15 15.5t21.5 15t22.5 11.5t18 6l7 34l-213 -75l-143 48v220z
" />
    <glyph glyph-name="d_mo_bn" horiz-adv-x="855" 
d="M202 214l-142 47v274h-70v87h875v-87h-50v-699h-142v42q-23 176 -169 176q-18 0 -39 -3q13 -25 13 -54q0 -23 -11 -46.5t-30.5 -42.5t-45.5 -30.5t-57 -11.5q-25 0 -51.5 10t-48 28t-36 43t-15.5 55v7q0 30 14.5 63t42 61.5t67.5 50.5t91 31q-2 8 -2 13q0 18 1 34.5
t6 29.5l7 21l2 12zM202 535v-164l246 128l141 -26l-37 -187q-1 -3 -2 -10t-1 -15q0 -13 3 -31t11 -32q50 -16 110 -48v385h-471z" />
    <glyph glyph-name="d_ro_bn" horiz-adv-x="607" 
d="M60 535h-70v87h627v-87h-416v-156l246 130l140 -30l-36 -184q-1 -2 -1 -5.5t-1 -8.5v-1q-1 -3 -1 -14q0 -9 3 -29t11 -43.5t22 -47.5t35 -41l-76 -120q-29 20 -59 34t-77 14q-66 0 -156 -37q-22 -9 -43 -13t-39 -4q-41 0 -72.5 19.5t-53 53.5t-32.5 78t-11 94l118 -20
v-10q0 -9 2 -23.5t9.5 -28t21.5 -23t38 -9.5q29 0 68 16q43 17 80.5 25t70.5 8q-9 26 -10.5 51.5t-1.5 40.5q0 26 5.5 43t7.5 25l3 13l-211 -110l-141 47v266z" />
    <glyph glyph-name="d_ro_alt_bn" horiz-adv-x="607" 
d="M405 99q-7 34 -10 64.5t-3 57.5q0 63 20 111l-211 -110l-141 47v266h-70v87h627v-87h-416v-156l246 130l140 -30q-45 -158 -45 -243q0 -28 5.5 -54t12.5 -47.5t14 -36.5t10 -21q6 -12 15 -22.5t20 -18.5l-76 -120q-14 10 -29 18.5t-30 15.5q-18 8 -52.5 18.5t-95.5 10.5
q-44 0 -78 -7t-62.5 -15t-53.5 -15t-51 -7q-47 0 -117 21q-70 19 -121 128l134 36q43 -63 120 -63q17 0 39.5 7.5t50 16.5t61 16.5t72.5 7.5t75 -6z" />
    <glyph glyph-name="d_r_ukar_bn" horiz-adv-x="875" 
d="M561 349q26 -31 57 -41t54 -10q8 0 14 0.5t11 1.5l18 3q-8 2 -18.5 8t-20.5 16t-17 23t-7 29q0 21 9.5 37t24 27t32 17t32.5 6q17 0 35.5 -7t33.5 -22t25 -38t10 -54q0 -35 -17 -65t-45 -52.5t-64.5 -35.5t-76.5 -13q-24 0 -46 4.5t-44 15.5q11 -29 23 -52t35 -42
l-76 -120q-29 20 -59 34t-77 14q-66 0 -156 -37q-22 -9 -43 -13t-39 -4q-41 0 -72.5 19.5t-53 53.5t-32.5 78t-11 94l118 -20v-10q0 -9 2 -23.5t9.5 -28t21.5 -23t38 -9.5q29 0 68 16q43 17 80.5 25t70.5 8q-9 26 -10.5 51.5t-1.5 40.5q0 26 5.5 43t7.5 25l3 13l-211 -110
l-141 47v266h-70v87h895v-87h-684v-156l246 130l140 -30z" />
    <glyph glyph-name="d_r_ookar_bn" horiz-adv-x="892" 
d="M60 535h-70v87h912v-87h-701v-156l246 130l140 -30l-9 -45l162 32l131 -41l-80 -155q-1 -1 -1 -3l-3 -10q-5 -18 -5 -36q0 -23 10 -49.5t39 -53.5l-84 -103q-62 56 -84 109t-22 94q0 34 9 58.5t16 34.5l5 7l9 21l-126 -28l-3 -16q-1 -2 -1 -5.5t-1 -8.5v-1q-1 -3 -1 -14
q0 -9 3 -29t11 -43.5t22 -47.5t35 -41l-76 -120q-29 20 -59 34t-77 14q-66 0 -156 -37q-22 -9 -43 -13t-39 -4q-41 0 -72.5 19.5t-53 53.5t-32.5 78t-11 94l118 -20v-10q0 -9 2 -23.5t9.5 -28t21.5 -23t38 -9.5q29 0 68 16q43 17 80.5 25t70.5 8q-9 26 -10.5 51.5t-1.5 40.5
q0 26 5.5 43t7.5 25l3 13l-211 -110l-141 47v266z" />
    <glyph glyph-name="dh_no_bn" horiz-adv-x="631" 
d="M195 250q85 0 148 -18.5t105 -42.5v148zM448 -31v57q-42 26 -88 45t-91 32t-86.5 19.5t-74.5 7.5l-26 1q-17 1 -27 1.5t-13 0.5h-2v210l82 30q-67 61 -67 137q0 35 18 63t45 47.5t59.5 30t61.5 10.5q26 0 49.5 -6.5t41 -18t28 -28t10.5 -35.5q0 -12 -6 -29.5t-18.5 -33.5
t-31 -27t-43.5 -11q-20 0 -37 5.5t-27 11.5q-2 -2 -2 -4q0 -5 4.5 -13t14.5 -16t25.5 -14t37.5 -6q5 0 10.5 0.5t10.5 1.5l142 49v135h193v-87h-50v-791h-143v80q-4 7 -7.5 11.5t-5.5 6.5l-8 8q-26 26 -50 37.5t-44 11.5q-21 0 -41 -11q49 -34 49 -88q0 -24 -8.5 -43.5
t-22.5 -33t-32.5 -20.5t-37.5 -7q-26 0 -47 10t-35 27l-2 2q-31 40 -31 87q0 34 15 68.5t41 61.5t60.5 44t72.5 17q60 0 134 -44z" />
    <glyph glyph-name="dh_mo_bn" horiz-adv-x="844" 
d="M375 272v98l-155 -54q11 0 33 -4.5t46 -11.5t45 -14.5t31 -13.5zM661 535h-154v-286q58 -9 114 -37h1q0 -2 11.5 -7t27.5 -17v347zM804 -155h-143v108q0 4 -1 5q-9 40 -24.5 64t-28.5 35l-14 10q-34 22 -62 31.5t-51 9.5q-20 0 -37 -6t-31 -16q85 -39 85 -132
q0 -27 -12 -50.5t-31 -41t-43.5 -27.5t-49.5 -10q-54 0 -88 33l-4 4q-60 51 -60 136q0 48 16.5 88.5t49.5 82.5l-41 12q-34 10 -66 14.5t-64 7.5l-64 2v185l60 23q-48 43 -48 109q0 27 14 51t36.5 42t51.5 28.5t58 10.5q23 0 43.5 -6t36 -16.5t24.5 -25t9 -32.5
q0 -15 -7 -31t-19 -29t-28 -21.5t-34 -8.5q-14 0 -34 5l-8 2l7 -7q18 -15 48 -15q14 0 125 40v113h479v-87h-50v-690z" />
    <glyph glyph-name="dh_ro_bn" horiz-adv-x="630" 
d="M448 189v148l-252 -87q85 0 147.5 -18.5t104.5 -42.5zM446 -115q-39 19 -94 19q-29 0 -60 -9t-67 -26q-20 -9 -38.5 -13t-35.5 -4q-36 0 -64.5 19.5t-47.5 53.5t-29 78t-10 94l115 -20v-10q0 -11 3 -26t9.5 -28t18 -22t28.5 -9q21 0 56 16t66 25t59 9q51 0 91 -17
q1 -1 2 -1v12q-42 27 -88 46t-90.5 31t-86 18.5t-74.5 8.5l-36 1q-13 0 -21 1t-11 1l-1 210l81 30q-66 60 -66 137q0 36 18 64t46 47.5t60 29.5t61 10q54 0 91 -24.5t37 -63.5q0 -14 -6.5 -31t-18.5 -33t-30.5 -26.5t-42.5 -10.5q-20 0 -38 5.5t-26 11.5q-2 -2 -2 -4
q0 -5 4.5 -13t14 -16t25 -14t38.5 -6q5 0 10 0.5t11 1.5l141 49v135h192v-87h-50v-702h-142v51q-1 0 -2 1z" />
    <glyph glyph-name="n_jo_bn" horiz-adv-x="842" 
d="M296 535h-306v87h862v-87h-422v-21h220q31 -2 59 -15.5t48.5 -35t32.5 -49.5t12 -59v-355h-132v303q0 32 -21.5 54.5t-49.5 24.5h-169v-56l4 -1q7 -4 20 -4q14 0 36.5 6.5t56.5 24.5l91 -99q2 -19 3.5 -37.5t1.5 -36.5q0 -37 -8 -69.5t-30 -56.5t-61 -38t-100 -14
q-100 0 -170.5 17.5t-117 48t-73 71t-38.5 86.5h162q22 -48 78 -74t144 -26q28 0 46 4t28 11t13.5 15.5t3.5 16.5q0 11 -5 23l-5 10q-12 -7 -36 -15t-53 -8q-17 0 -38.5 6t-41 21t-32.5 41.5t-13 67.5v27q-21 38 -44.5 51t-46.5 13h-8q20 -28 20 -59q0 -21 -8 -39
t-21.5 -31.5t-31 -21t-36.5 -7.5q-29 0 -54.5 17.5t-36.5 46.5v1q-5 5 -6.5 15.5t-1.5 18.5v11q0 31 15 60t40.5 51t59 35t69.5 13q46 0 91 -30v46z" />
    <glyph glyph-name="n_ttho_bn" horiz-adv-x="650" 
d="M490 241v9q0 24 -7 45.5t-17 38t-21.5 29t-20.5 18.5l-13 9q13 -40 13 -77q0 -43 -15.5 -70.5t-34 -44.5t-34 -25t-15.5 -11q0 -4 6.5 -7t15 -5t17.5 -3t14 -1q18 0 37.5 5.5t35 17t26.5 29.5t13 43zM285 491q-4 11 -7.5 22t-8.5 22h-279v87h246q-9 23 -12.5 44t-3.5 41
q0 39 10 66v1q3 8 4.5 14t2.5 9l1 2h153q-17 -26 -23.5 -51.5t-6.5 -50.5q0 -20 4 -39t11 -36h284v-87h-208q24 -16 54.5 -43.5t58 -64.5t46.5 -81t19 -93q0 -51 -17.5 -97.5t-53 -81.5t-90 -56t-128.5 -22q-59 1 -103 22t-75 51t-50.5 62.5t-29.5 56.5l-14 34h2
q3 -1 19 -2.5t35 -1.5q22 0 49.5 4.5t52.5 16.5t45.5 33.5t29.5 54.5q-22 45 -46.5 60.5t-50.5 15.5h-8q20 -28 20 -59q0 -21 -8 -39t-21.5 -31.5t-31 -21t-36.5 -7.5q-29 0 -55.5 17.5t-35.5 46.5l-2 3q-7 18 -7 42q0 31 15.5 60t41 51.5t59.5 35.5t70 13q38 0 79 -23z" />
    <glyph glyph-name="n_ddo_bn" horiz-adv-x="745" 
d="M298 535h-308v87h765v-87h-317v-157l31 4q30 4 74 15.5t89 35.5l92 -99q1 -5 1 -14v-13q0 -49 -16.5 -103t-52.5 -99t-93 -74.5t-137 -29.5q-82 5 -141.5 24.5t-101.5 49.5t-68 68.5t-40 80.5h146q11 -18 28.5 -35.5t42 -31t56 -21.5t70.5 -8q46 0 77.5 16t51.5 38
t30 45.5t14 39.5v1q3 10 3 14l1 2q-8 -4 -22.5 -10.5t-34 -13t-43 -11t-48.5 -4.5q-17 0 -39.5 4t-44 13.5t-38.5 26t-23 42.5v1q-22 45 -47 60.5t-49 15.5h-10q21 -30 21 -60q0 -21 -8 -38.5t-21.5 -31t-31 -21t-36.5 -7.5q-42 0 -71 29t-29 80q0 31 15.5 60t41 51t59 35.5
t69.5 13.5q46 0 93 -32v48z" />
    <glyph glyph-name="n_dd_ro_bn" horiz-adv-x="745" 
d="M298 535h-308v87h765v-87h-317v-157l31 4q31 4 75 15.5t89 35.5l91 -99q1 -8 1.5 -15t0.5 -15q0 -37 -12.5 -85.5t-41.5 -93.5v-301h-127v25q-35 19 -107 19q-34 0 -72 -8.5t-83 -23.5q-24 -8 -45 -11.5t-39 -3.5q-41 0 -74 17t-56 46t-35.5 67.5t-12.5 81.5v6l122 -18
v-9q0 -27 18.5 -50.5t56.5 -23.5q28 0 70 14t79 22t69 8q58 0 105 -14l4 -2v54q-47 -19 -114 -19h-4q-283 16 -352 223h147q26 -42 75.5 -69t121.5 -27q45 0 76.5 15t52 38.5t31.5 50.5t16 51v1q-8 -5 -25 -12t-40 -13t-50 -10.5t-54 -4.5q-4 0 -21.5 2.5t-38 12t-39.5 27.5
t-26 48q-38 75 -95 75l-9 -1q21 -29 21 -60q0 -20 -8 -37.5t-21.5 -31t-31.5 -21.5t-37 -8q-18 0 -35.5 7t-32 21t-23 34t-8.5 47q0 24 12 52t35.5 52t57.5 40t79 16q46 0 93 -32v48z" />
    <glyph glyph-name="n_to_bn" horiz-adv-x="597" 
d="M315 473v62h-325v87h617v-87h-141v-197q48 -22 79.5 -72t31.5 -116q0 -42 -14 -79.5t-44 -66t-77 -45t-112 -16.5q-62 0 -106.5 15.5t-74 39.5t-47 53t-27 55t-12 45.5t-2.5 25.5h134q-1 -3 -1 -15q0 -13 4.5 -32t18.5 -36.5t41.5 -30t73.5 -12.5q37 0 60.5 9t36 23.5
t17 31.5t4.5 32q0 11 -1 21t-3 16q-38 -51 -98 -51q-48 0 -74 31.5t-26 79.5q0 29 13.5 53.5t41.5 40.5q-20 27 -41.5 37t-42.5 10h-9q22 -31 22 -65q0 -22 -8.5 -41t-23 -33.5t-33 -22.5t-38.5 -8q-32 0 -60 19t-39 50l-2 4q-7 20 -7 44q0 33 16.5 64.5t43.5 55.5t63 38.5
t75 14.5q46 0 96 -32z" />
    <glyph glyph-name="n_t_bo_bn" horiz-adv-x="597" 
d="M501 -10v-267h-150v16q-21 14 -45 24.5t-47.5 18t-45.5 12.5t-40 8l-4 1l-36 5v111l125 31q-46 7 -78 25.5t-54 42.5t-34 50.5t-19 49.5t-9 39t-3 20h134q-1 -3 -1 -15q0 -13 4.5 -32t18.5 -36.5t41.5 -30t73.5 -12.5q37 0 60.5 9t36 23.5t17 31.5t4.5 32q0 11 -1 21
t-3 16q-38 -51 -98 -51q-48 0 -74 31.5t-26 79.5q0 29 13.5 53.5t41.5 40.5q-20 27 -41.5 37t-42.5 10h-9q22 -31 22 -65q0 -22 -8.5 -41t-23 -33.5t-33 -22.5t-38.5 -8q-32 0 -60 19t-39 50l-2 4q-7 20 -7 44q0 33 16.5 64.5t43.5 55.5t63 38.5t75 14.5q46 0 96 -32v62
h-325v87h617v-87h-141v-197q48 -22 79.5 -72t31.5 -116q0 -21 -4.5 -43.5t-13.5 -44t-23.5 -40.5t-34.5 -32zM351 -158v50l-116 -24q40 -4 68 -11t48 -15z" />
    <glyph glyph-name="n_t_ro_bn" horiz-adv-x="625" 
d="M502 -123q-7 15 -25.5 27t-44.5 20t-59 12.5t-69 4.5q-17 0 -34.5 -1.5t-34.5 -1.5q-32 0 -56 11.5t-40.5 30.5t-24.5 41.5t-8 45.5v99h112v-68q0 -8 0.5 -19.5t6.5 -22t19.5 -18t39.5 -7.5q22 0 50.5 3.5t49.5 3.5q45 0 72 -10.5t46 -24.5v132q0 3 -2 18.5t-10 33
t-24.5 31t-44.5 13.5q-23 0 -36 -6t-20.5 -14t-9.5 -16t-2 -12v-1q8 10 21.5 16t28.5 6q12 0 23.5 -4t21.5 -12.5t16 -20t6 -26.5t-6 -29t-18 -25t-29 -18t-39 -7q-54 0 -88.5 33.5t-34.5 100.5q0 33 14 69t44 58q-22 36 -46 49t-48 13h-9q22 -31 22 -65q0 -22 -8.5 -41
t-23 -33.5t-33 -22.5t-38.5 -8q-32 0 -60 19t-39 50l-2 4q-7 20 -7 44q0 33 16.5 64t43.5 55.5t63 39t75 14.5q55 0 107 -40v70h-336v87h645v-87h-158v-193q41 -13 66 -40t39 -55t18.5 -51.5t4.5 -29.5v-299h-103v10z" />
    <glyph glyph-name="n_tho_bn" horiz-adv-x="625" 
d="M317 535h-327v87h645v-87h-168v-230q31 -6 58 -19t47 -33t31.5 -47.5t11.5 -62.5q0 -33 -12 -58.5t-31.5 -45t-44.5 -32.5t-51 -20l-22 -6l177 -43l-45 -95l-376 96l-26 128l17 -3q10 -2 23.5 -4.5t28.5 -5t29.5 -4.5t26.5 -2q2 0 5 0.5t5 0.5h11q2 1 5.5 1t8.5 1h2
q17 2 43.5 7t51 17t42.5 32t18 52q-1 13 -9 22t-19.5 13.5t-25 6.5t-25.5 2q-5 0 -9.5 -0.5t-8.5 -0.5l-11 -1q20 -17 20 -38q0 -12 -5.5 -26.5t-16.5 -26.5t-28 -20.5t-40 -8.5q-20 0 -39 6.5t-34.5 19t-25 32t-9.5 45.5q0 72 76 106l26 9v17q-23 41 -48 55t-50 14h-9
q22 -31 22 -65q0 -22 -8.5 -41t-23 -33.5t-33 -22.5t-38.5 -8q-32 0 -60 19t-39 50l-2 4q-7 20 -7 44q0 33 16 64t43 55.5t63 39t76 14.5q50 0 98 -33v63z" />
    <glyph glyph-name="n_dho_bn" horiz-adv-x="715" 
d="M327 535h-337v87h735v-87h-247v-277l133 29l84 -44l-57 -110l-2 -1q-2 0 -5 -9.5t-3 -33.5q0 -16 5.5 -33.5t20.5 -34.5l-71 -64q-33 38 -45 72t-12 62q0 26 6.5 44t13.5 29l7 9l3 7l-78 -17v-227h-151v19q-22 15 -47.5 26.5t-51.5 20.5t-50 14.5t-43 8.5l-41 6v135
l233 58v71l-2 4q-1 1 -1 3l-1 2q-23 47 -50 64t-53 17h-10q22 -31 22 -65q0 -22 -8.5 -41t-23 -33.5t-33 -22.5t-38.5 -8q-32 0 -60 19t-39 50l-2 4q-7 20 -7 44q0 33 16 64t43 55t63 39t76 15q56 0 108 -40v70zM280 93q15 -5 27 -9.5t20 -9.5v54l-126 -22q25 -2 45 -5.5
t34 -7.5z" />
    <glyph glyph-name="n_dh_ro_bn" horiz-adv-x="715" 
d="M478 -217h-151v33q-23 15 -52 15q-39 0 -90 -27q-30 -15 -60 -15q-59 0 -94 65q-32 60 -32 135l102 -13q0 -18 2.5 -31t18.5 -23.5t31 -10.5t35 10q42 22 81 22q30 0 58 -13v25q-22 15 -47 27q-53 23 -102 35q-27 6 -84 14v135l233 58v71l-3 8q-24 48 -51 65t-63 17
q22 -31 22 -65q0 -43 -31 -74t-72 -31q-32 0 -60 19q-48 33 -48 98q0 67 60 120t138 53q56 0 108 -40v70h-337v87h735v-87h-247v-277l133 29l84 -44l-57 -110q-1 0 -2.5 -0.5t-4.5 -10t-3 -33.5q0 -39 26 -68l-71 -64q-57 66 -57 134q0 42 20 73q6 7 10 16l-78 -17v-380z
M327 74v54l-126 -22q86 -7 126 -32z" />
    <glyph glyph-name="n_no_bn" horiz-adv-x="509" 
d="M331 286q-23 59 -53 80.5t-58 21.5h-10q22 -31 22 -64q0 -22 -8.5 -41.5t-23 -33.5t-33.5 -22.5t-39 -8.5q-45 0 -76 31.5t-31 85.5q0 33 16 64t43 55t62.5 39t75.5 15q57 0 113 -44v71h-341v87h529v-87h-50v-598h-138v70l-4 12q-22 43 -46.5 59.5t-47.5 16.5
q-3 0 -6 -0.5t-6 -0.5q21 -29 21 -59q0 -21 -8 -38.5t-21.5 -31t-31 -21t-36.5 -7.5q-29 0 -55.5 17.5t-35.5 46.5h-1q0 11 -4 22.5t-4 22.5q0 30 15 58.5t40.5 51t58.5 36.5t70 14q52 0 102 -38v118z" />
    <glyph glyph-name="n_bo_bn" horiz-adv-x="519" 
d="M328 535h-338v87h539v-87h-50v-602h-151v17q-21 15 -45.5 26.5t-49.5 19.5t-48.5 13.5t-42.5 8.5l-41 6v132l227 56v79l-3 7q-1 1 -1 2l-1 2q-23 47 -50 64t-53 17h-10q22 -31 22 -65q0 -22 -8.5 -41t-23 -33.5t-33 -22.5t-38.5 -8q-32 0 -60 19t-39 50h-1q0 12 -4 24
t-4 24q0 33 16 64t43 55t62.5 39t75.5 15q54 0 110 -41v73zM283 84q31 -9 45 -19v53l-122 -21q23 -2 42.5 -5t34.5 -8z" />
    <glyph glyph-name="n_mo_bn" horiz-adv-x="851" 
d="M387 535h-397v87h871v-87h-50v-609h-141v98l-9 16q-8 13 -16 20.5t-13 14.5l-13 11q-32 23 -60 32t-51 9q-20 0 -36.5 -6t-30.5 -16q82 -39 82 -130q0 -29 -11.5 -52.5t-30.5 -40.5t-43.5 -26.5t-49.5 -9.5q-50 0 -87 33l-3 3q-59 51 -59 136q0 32 9 65t26 63t43 55.5
t59 42.5l-4 10q-1 1 -1 2l-1 2q-26 54 -57.5 74.5t-60.5 20.5q-4 0 -7 -0.5t-6 -0.5q25 -34 25 -74q0 -26 -10 -48t-26.5 -38.5t-38 -26t-44.5 -9.5q-26 0 -48.5 10t-39.5 28t-27 42.5t-10 54.5q0 39 19 74.5t50.5 63.5t73.5 44.5t87 16.5q69 0 137 -56v101zM670 535h-132
v-268q51 -9 109 -36l1 -1q2 0 3 -1l14 -7q2 -1 5 -3v316z" />
    <glyph glyph-name="n_ro_bn" horiz-adv-x="643" 
d="M462 196q-9 32 -23.5 58t-29.5 37l-14 10q-35 25 -57.5 33t-36.5 8h-13q-36 0 -68 -20q38 -16 60 -51.5t22 -74.5q0 -28 -11 -52t-29.5 -42t-42.5 -28t-50 -10h-6q-43 0 -71 20.5t-44.5 46.5t-23 50.5t-6.5 32.5q0 45 11 86t38 82q23 35 51.5 56t55.5 31.5t50.5 13.5
t37.5 3q70 0 161 -41l40 -24v114h-473v87h663v-87h-50v-711h-141l-1 30q-20 10 -44.5 15.5t-53.5 5.5t-62 -9.5t-71 -26.5q-20 -9 -39.5 -13t-36.5 -4q-36 0 -64.5 19t-49 50.5t-31 73.5t-10.5 89v12l118 -20v-10q0 -9 2.5 -23t9.5 -27.5t19 -23.5t31 -10t55 16
q37 16 69.5 25t61.5 9q55 0 96 -18h1v212z" />
    <glyph glyph-name="n_so_bn" horiz-adv-x="772" 
d="M505 325l87 -61v271h-132l3 -4q24 -38 34 -81t10 -88q0 -10 -0.5 -19t-1.5 -18zM592 93l-127 89q-17 -32 -38.5 -57t-43 -43.5t-41.5 -31t-34 -18.5l-24 -11q-1 -1 -2 -1l-122 102l4 3q67 39 116.5 80.5t66.5 91.5q-11 19 -17 25l-8 8q-26 26 -50 37.5t-44 11.5
q-21 0 -41 -11q49 -34 49 -88q0 -24 -8.5 -43.5t-22.5 -33t-32.5 -20.5t-37.5 -7q-26 0 -47 10t-35 27l-2 2q-31 40 -31 87q0 34 15 68t41 61.5t60 44.5t73 17q59 0 136 -44q-7 15 -16.5 30t-20.5 29l-25 27h-293v87h792v-87h-50v-535h-140v93z" />
    <glyph glyph-name="p_tto_bn" horiz-adv-x="1010" 
d="M428 338l-263 -141l-74 97l87 43q-17 40 -39.5 64.5t-38.5 34.5l-20 12l-80 100q149 77 256 77l22 -1q48 -2 85.5 -13.5t64.5 -26.5v38h419q1 3 1 11q0 71 -74 71q-30 0 -84 -20q-93 -35 -162 -35q-82 0 -116 10l-25 137q73 -21 131 -21q33 0 71 6.5t75.5 14.5t71 14.5
t57.5 6.5q48 0 84 -13.5t60 -36.5t36 -54.5t12 -68.5v-12q0 -7 -1 -10h36v-87h-452v-377l31 5q30 5 71 19.5t76 42.5l11 10q-37 37 -37 93q0 28 11 53t29.5 43t43 28.5t51.5 10.5q28 0 52.5 -11t43 -30t29.5 -44t11 -53q0 -55 -23.5 -106t-69 -93.5t-113.5 -74.5t-158 -49
q-16 -3 -29.5 -4t-26.5 -1q-55 0 -89 19t-48 41l-6 9v272zM239 474q13 -19 25 -39.5t23 -43.5l135 66q-36 30 -69 38t-52 8q-25 0 -44.5 -1.5t-39.5 -5.5q12 -9 22 -22z" />
    <glyph glyph-name="p_to_bn" horiz-adv-x="724" 
d="M286 383l136 67q-30 26 -69.5 35.5t-74.5 9.5q-17 0 -32 -1.5t-29 -3.5q21 -16 38.5 -46.5t30.5 -60.5zM423 328l-258 -138l-74 97l87 43q-17 39 -39 64t-38 35h-1q-18 12 -19 12l-81 100q149 77 256 77q51 0 94 -11t73 -27v42h311v-87h-170v-210q30 -8 55.5 -26
t44.5 -43.5t29.5 -58.5t10.5 -70q0 -42 -14 -79.5t-44 -66t-77 -45t-112 -16.5q-63 0 -107.5 15.5t-74 39.5t-46.5 53t-26 55t-11.5 45.5t-3.5 25.5h134q-1 -3 -1 -16t4.5 -32t18.5 -36t41.5 -29.5t74.5 -12.5q37 0 59.5 9t35.5 23t17.5 31t4.5 32q0 25 -5 38
q-36 -51 -97 -51q-48 0 -74 31.5t-26 79.5q0 26 12 51.5t36 39.5v16z" />
    <glyph glyph-name="p_t_ro_bn" horiz-adv-x="683" 
d="M423 328l-258 -138l-74 97l87 43q-17 39 -39 64t-38 35h-1q-18 12 -19 12l-81 100q149 77 256 77q51 0 94 -11t73 -27v42h270v-87h-129v-258l20 -12q25 -20 40.5 -44t24 -46t11.5 -39t3 -23v-299h-103v10q-7 15 -25.5 27t-44.5 20t-59 12.5t-69 4.5q-17 0 -34.5 -1.5
t-34.5 -1.5q-32 0 -56 11.5t-40.5 30.5t-24.5 41.5t-8 45.5v99h112v-68q0 -8 0.5 -19.5t6.5 -22t19.5 -18t39.5 -7.5q22 0 50.5 3.5t49.5 3.5q45 0 72 -10.5t46 -24.5v132q0 3 -2 18.5t-10 33t-24.5 31t-44.5 13.5q-23 0 -36 -6t-20.5 -14t-9.5 -16t-2 -12v-1q8 10 21.5 16
t28.5 6q12 0 23.5 -4t21.5 -12.5t16 -20t6 -26.5t-6 -29t-18 -25t-29 -18t-39 -7q-54 0 -88.5 33.5t-34.5 100.5q0 23 6 46.5t19.5 44.5t34 36.5t50.5 22.5v35zM286 383l136 67q-30 26 -69.5 35.5t-74.5 9.5q-17 0 -32 -1.5t-29 -3.5q21 -16 38.5 -46.5t30.5 -60.5z" />
    <glyph glyph-name="p_no_bn" horiz-adv-x="604" 
d="M423 328l-258 -138l-74 97l87 43q-17 40 -39.5 64.5t-38.5 34.5l-2 1q-11 7 -15 9l-4 2l-79 100q149 77 255 77q52 0 95 -11t73 -27v42h191v-87h-50v-579h-141v60q-24 46 -49 63t-51 17q-9 0 -12 -1q22 -31 22 -64q0 -22 -9 -41t-23.5 -33.5t-33.5 -22.5t-39 -8
q-21 0 -40.5 8.5t-34 23.5t-23 36.5t-8.5 47.5q0 33 16.5 64.5t43.5 55.5t63 38.5t75 14.5q52 0 103 -36v149zM286 383l136 67q-30 26 -69.5 35.5t-74.5 9.5q-17 0 -32 -1.5t-29 -3.5q20 -15 38 -46t31 -61z" />
    <glyph glyph-name="p_po_bn" horiz-adv-x="692" 
d="M652 535v-591h-141v136l-259 -138l-68 90l80 39q-16 35 -36.5 58t-35.5 32l-17 10l-75 93q9 5 17.5 9t18.5 9l57 28q-24 48 -46.5 74t-41.5 37l-18 10l-87 108q160 84 276 84q85 0 144 -24t91 -56v79h191v-87h-50zM310 368l148 72q-36 27 -76 38.5t-80 11.5
q-17 0 -33.5 -2t-33.5 -5q47 -44 75 -115zM363 120l124 61q-32 23 -64.5 32t-67.5 9q-14 0 -28 -1.5t-28 -3.5q19 -14 35.5 -42.5t28.5 -54.5zM511 285v50l-46 -25q13 -5 24.5 -11t21.5 -14z" />
    <glyph glyph-name="p_ro_bn" horiz-adv-x="707" 
d="M667 -116h-140v32q-19 10 -42.5 15.5t-52.5 5.5q-32 0 -69.5 -8t-82.5 -27q-42 -18 -79 -18q-40 0 -71 20.5t-52.5 54.5t-32.5 79t-11 94l116 -20v-10q0 -10 2 -24.5t9.5 -28t21.5 -23t37 -9.5q13 0 29 3.5t36 11.5q43 18 81 26t70 8q51 0 91 -17v279l-342 -184l-83 109
l97 47q-20 45 -44 72.5t-43 38.5l-22 13l-90 112q163 85 284 85q88 0 148.5 -25t94.5 -59v85h190v-87h-50v-651zM320 360l151 74q-35 27 -78 39t-82 12q-36 0 -69 -6q25 -20 44.5 -53.5t33.5 -65.5z" />
    <glyph glyph-name="p_ro_alt_bn" horiz-adv-x="707" 
d="M320 360l151 74q-35 27 -78 39t-82 12q-36 0 -69 -6q25 -20 44.5 -53.5t33.5 -65.5zM527 328l-342 -184l-83 109l97 47q-20 45 -44 72.5t-43 38.5l-22 13l-90 112q163 85 284 85q88 0 148.5 -25t94.5 -59v85h190v-87h-50v-642h-140v29q-82 20 -191 20q-44 0 -85 -7
t-83.5 -15t-89 -15t-100.5 -7q-47 0 -117 21q-70 19 -121 128l134 36q43 -63 120 -63q45 0 88.5 7.5t85.5 16.5t82.5 16.5t79.5 7.5q107 0 197 -18v278z" />
    <glyph glyph-name="p_lo_bn" horiz-adv-x="714" 
d="M533 325l-346 -186l-84 110l98 48q-20 46 -45 73t-43 38l-3 2l-12 7q-4 3 -6 4l-92 113q167 86 288 86q72 0 129 -18t92 -45l24 -22v87h191v-87h-50v-669h-141v114l-4 11q-2 6 -11.5 17.5t-34.5 11.5q-13 0 -25 -9l9 -15l-66 -46q-10 13 -18 29.5t-19.5 30.5t-28 23.5
t-42.5 9.5q-17 0 -26.5 -6.5t-14.5 -15t-6.5 -17.5t-1.5 -14v-5q9 11 23 17t28 6q17 0 29.5 -7t21 -18t12.5 -23.5t4 -24.5q0 -29 -20.5 -51.5t-62.5 -22.5q-26 0 -48.5 9.5t-39.5 28.5t-27 46t-10 62q0 63 38 103t124 42q55 -7 91 -48q13 17 31 27.5t40 10.5q26 0 55 -19
v202zM323 357l152 76q-35 26 -78 38t-83 12q-36 0 -69 -6q25 -20 44 -53.5t34 -66.5z" />
    <glyph glyph-name="p_so_bn" horiz-adv-x="747" 
d="M566 92l-127 90q-17 -32 -38 -57t-42 -43.5t-41 -31t-35 -19.5l-25 -12l-124 103l5 3q72 42 122.5 86.5t64.5 100.5l-208 -121l-55 78l61 30q-9 21 -20 32.5t-20.5 18t-17 9t-9.5 5.5h-2l-55 83q104 53 180 53q42 0 77 -11t56 -26q-10 19 -25 38.5t-31 33.5h-267v87h767
v-87h-50v-535h-141v92zM477 423q2 -17 3 -34t1 -33v-16q0 -10 -1 -15l86 -60v270h-132l4 -5q30 -47 39 -107zM167 395q11 -12 18 -27.5t15 -31.5l94 47l-15 10q-37 17 -71 17q-12 0 -25 -1.5t-25 -3.5z" />
    <glyph glyph-name="ph_tto_bn" horiz-adv-x="988" 
d="M373 371q11 69 56 106t114 37q39 0 72 -13t58 -38t40 -62.5t17 -85.5q-2 -41 -15.5 -74t-33.5 -56.5t-43.5 -36.5t-45.5 -13q-21 0 -36 7.5t-24 20t-13 28t-4 32.5q0 42 29.5 60t75.5 18h5q0 6 -1.5 17.5t-6.5 23.5t-15 22.5t-27 15.5h-3q-3 0 -4 1q-6 0 -15.5 -1t-19 -5
t-17 -11t-10.5 -20v-372l37 5q18 2 43.5 7.5t52.5 15t52.5 22.5t42.5 30q-35 38 -35 90q0 28 11 53t29.5 43t43 28.5t51.5 10.5q26 0 49 -9.5t41 -26.5t29.5 -39.5t14.5 -49.5q0 -10 1 -13q0 -47 -24 -96t-73.5 -92.5t-126 -79t-181.5 -55.5q-15 -3 -28.5 -4t-26.5 -1
q-31 0 -54 6.5t-38.5 15.5t-25 19.5t-13.5 18.5l-3 5l-2 1q1 1 0 3v124q-31 43 -65 70.5t-66.5 43t-61 22t-48.5 7.5h-3q-4 1 -8 1h-16l-83 94l145 127q8 6 11 15.5t3 18.5q0 34 -22 58t-49.5 40t-53 24t-32.5 10h-34v87h779q9 21 9 44q0 30 -18 49t-56 19q-36 0 -84 -19
q-92 -36 -167 -36q-72 0 -111 11l-24 137q38 -11 72 -15.5t64 -4.5q38 0 70 6t61 14l39 9q35 6 60 8.5t44 2.5q18 0 29.5 -1.5t19.5 -3.5l7 -2q41 -9 66.5 -28t40 -43t19.5 -50t5 -49q0 -31 -4 -48h87v-87h-738q19 -16 33 -34t22 -31l6 -9q1 -1 1 -3l2 -5q10 -23 10 -47
q0 -41 -32 -74l-63 -64h1q1 -1 2 -1l17 -5q20 -6 50 -22.5t64 -48.5v180z" />
    <glyph glyph-name="ph_ro_bn" horiz-adv-x="783" 
d="M372 23q-30 43 -64 70t-66.5 43t-61.5 22t-49 7h-2q-5 1 -9 1h-16l-83 94l145 109q15 15 15 37q0 34 -21.5 58t-49 39t-53.5 22.5t-34 9.5h-33v87h803v-87h-533q18 -16 32 -34t22 -31l6 -9q1 -1 1 -3l3 -5q10 -23 10 -47q0 -39 -32 -74l-56 -46l2 -1q15 -5 48 -20t76 -56
v186q11 60 46.5 87t98.5 27q43 0 86 -16t78 -46.5t57.5 -75.5t24.5 -102q-2 -44 -13.5 -78.5t-29.5 -58.5t-41.5 -37t-49.5 -13q-21 0 -39.5 8t-33 22t-22.5 33t-8 41q0 43 28.5 72t74.5 31h6q0 15 -9.5 39t-40.5 40h-1q-2 2 -16.5 5.5t-28.5 3.5q-13 0 -22.5 -5.5
t-11.5 -20.5v-491h-133v29q-14 8 -33.5 12.5t-40.5 4.5q-25 0 -51.5 -8.5t-58.5 -24.5q-17 -8 -32 -11.5t-29 -3.5q-32 0 -55.5 17.5t-39.5 47.5t-24 69.5t-8 83.5l97 -18v-8q0 -10 2.5 -23t8 -25t15 -20t23.5 -8q9 0 19 4t26 12q29 15 56 21.5t50 8.5q43 0 75 -15v18z" />
    <glyph glyph-name="ph_lo_bn" horiz-adv-x="783" 
d="M122 -230q-27 0 -53.5 29t-36 56t-9.5 61q0 91 60 128q31 19 63 19q60 0 103 -49q27 38 69 38q20 0 41 -12q-53 68 -124 99q-63 27 -131 27l-83 94l145 109q15 15 15 37q0 59 -70 97q-36 19 -87 32h-34v87h803v-87h-533q18 -16 32 -34q29 -37 29 -43q13 -22 13 -52
q0 -39 -32 -74l-56 -46l2 -1q15 -5 48 -20t76 -56v186q11 60 46.5 87t98.5 27q92 0 164 -62q78 -69 82 -178q-4 -85 -42 -136t-92 -51q-41 0 -72 29.5t-31 74.5q0 43 29.5 73t79.5 30q0 15 -9.5 39t-40.5 40q-3 2 -17.5 5.5t-28.5 3.5q-31 0 -34 -26v-551h-133v92l-3 8
q-10 29 -44 29q-13 0 -26 -9l9 -14l-65 -46q-7 11 -13.5 23t-14 24.5t-18.5 22.5t-26 16t-35 6q-27 0 -27 -40v-6q15 12 29 12q31 0 49 -24.5t18 -49.5q0 -29 -20.5 -51.5t-62.5 -22.5z" />
    <glyph glyph-name="b_jo_bn" horiz-adv-x="802" 
d="M256 535h-266v87h822v-87h-421v-21h214q33 0 62 -13t50 -35t33 -51t12 -60v-355h-131v303q0 12 -5 30l-2 3q-9 19 -27 32t-38 14h-168v-56q1 0 5.5 -3t16.5 -3q14 0 36.5 6.5t57.5 25.5l92 -99q2 -18 3 -36t1 -35q0 -37 -8 -70t-30 -57.5t-61 -39t-100 -14.5
q-99 0 -167 24t-113 62.5t-69.5 85.5t-35.5 94h139q8 -25 24.5 -50t43.5 -45t66 -32.5t91 -12.5q30 0 49 4t29.5 10t14.5 14t4 16t-2.5 15.5t-4.5 12.5l-3 4q-11 -5 -35.5 -13.5t-49.5 -8.5q-31 0 -58.5 12t-52.5 47q-24 16 -50.5 29t-52 22.5t-49 15t-41.5 8.5l-41 6v137
l216 65v12zM256 428l-109 -33q67 -7 109 -30v63z" />
    <glyph glyph-name="b_do_bn" horiz-adv-x="849" 
d="M691 471l138 -28l-37 -185q-2 -10 -2 -28q0 -13 3 -29t11 -33t21.5 -33.5t34.5 -30.5l-76 -121q-44 29 -72.5 60t-44.5 60.5t-22 57t-6 50.5q1 18 3 31.5t5 24.5l5 17l2 11l-208 -110l-140 47q-27 18 -57.5 32t-60 24.5t-56.5 17t-48 9.5l-44 6v137l266 74v3h-316v87h869
v-87h-413v-193zM156 395q102 -11 150 -50v92z" />
    <glyph glyph-name="b_dho_bn" horiz-adv-x="876" 
d="M444 535h-454v87h896v-87h-301v-252l146 42l125 -54l-72 -167q-1 -1 -1 -3l-3 -11q-6 -15 -6 -41q0 -23 9 -51t35 -54l-96 -99q-56 57 -76 109t-20 93q0 24 4.5 43.5t10.5 34t11 22.5t6 8l11 27l-84 -23v-315l-107 -1q-1 1 -2 1h-32v20q-39 22 -83 38.5t-87.5 29
t-84 20.5t-73.5 13l-76 10v171l252 58q-51 14 -94.5 23.5t-81.5 14.5l-76 10v171l404 92v20zM383 311q35 -15 61 -29v115l-228 -52q102 -6 167 -34zM383 34q35 -15 61 -29v115l-228 -52q102 -6 167 -34z" />
    <glyph glyph-name="b_ro_bn" horiz-adv-x="625" 
d="M444 535h-454v87h645v-87h-50v-645h-141v25q-17 8 -37 13t-45 5q-55 0 -136 -32q-20 -8 -37.5 -11.5t-34.5 -3.5q-37 0 -65.5 17.5t-48 47.5t-29.5 69.5t-10 84.5l116 -18v-9q0 -9 3 -22t10 -25t18.5 -20.5t28.5 -8.5q11 0 22.5 3.5t31.5 11.5q35 14 66 22t57 8
q49 0 82 -13q-38 25 -80.5 44.5t-85 34.5t-82.5 25.5t-72 15.5l-76 12v211l404 114v44zM444 203v142l-227 -64q64 -5 118 -22.5t90 -42.5z" />
    <glyph glyph-name="b_lo_bn" horiz-adv-x="625" 
d="M444 535h-454v87h645v-87h-50v-749h-141v107q-2 6 -11 17.5t-33 11.5q-14 0 -27 -9l9 -14l-66 -46q-11 14 -19.5 30.5t-19.5 30t-26.5 22.5t-41.5 9q-16 0 -26 -5.5t-15 -13.5t-7 -16.5t-2 -14.5v-7q9 11 22.5 17t28.5 6q16 0 29 -7t21 -18t12.5 -24t4.5 -25
q0 -29 -20.5 -51.5t-62.5 -22.5q-25 0 -47.5 10t-40 28.5t-27.5 45.5t-10 62q0 30 9 56.5t28.5 46t50 31t74.5 12.5q55 -7 91 -48q14 17 32 27.5t40 10.5q21 0 50 -17v1q-39 26 -82.5 47t-87 36.5t-84.5 26t-74 15.5l-76 12v211l404 114v44zM444 203v142l-227 -64
q64 -5 118 -22.5t90 -42.5z" />
    <glyph glyph-name="bh_ro_bn" horiz-adv-x="719" 
d="M563 442l116 -48v-394h-122v23q-20 10 -45.5 15.5t-56.5 5.5q-35 0 -76.5 -8.5t-89.5 -27.5q-44 -17 -87 -17q-44 0 -77.5 19.5t-56.5 53t-35 77.5t-12 93l126 -20v-9q0 -10 2.5 -24.5t10.5 -27.5t23 -22.5t40 -9.5q30 0 71 16q48 18 88.5 25.5t75.5 7.5q54 0 99 -17v86
q-45 -28 -80.5 -42t-73.5 -14q-42 0 -77.5 16t-61.5 42.5t-40.5 59t-14.5 65.5q0 40 19 78q1 1 1 3h1q8 13 21.5 25t30 20t34 13t33.5 5q22 0 43.5 -8t38.5 -23t27.5 -36.5t10.5 -47.5q0 -43 -36 -79q12 -3 22 -3q21 0 41 16.5t47 58.5q15 23 20 54zM-10 622h739v-87h-739
v87z" />
    <glyph glyph-name="bh_r_ukar_bn" horiz-adv-x="976" 
d="M563 442l116 -48v-62q25 -20 49.5 -27t44.5 -7q8 0 14 0.5t11 1.5l17 3q-8 1 -18.5 7.5t-20 17t-16.5 23.5t-7 28q0 21 9.5 37t24 27t32 17t32.5 6q17 0 35.5 -7t33.5 -22t25 -38t10 -54q0 -35 -17 -65t-45 -52.5t-64.5 -35.5t-76.5 -13q-20 0 -38 2.5t-35 9.5v-191h-122
v23q-20 10 -45.5 15.5t-56.5 5.5q-35 0 -76.5 -8.5t-89.5 -27.5q-44 -17 -87 -17q-44 0 -77.5 19.5t-56.5 53t-35 77.5t-12 93l126 -20v-9q0 -10 2.5 -24.5t10.5 -27.5t23 -22.5t40 -9.5q30 0 71 16q48 18 88.5 25.5t75.5 7.5q54 0 99 -17v86q-45 -28 -80.5 -42t-73.5 -14
q-42 0 -77.5 16t-61.5 42.5t-40.5 59t-14.5 65.5q0 40 19 78q1 1 1 3h1q8 13 21.5 25t30 20t34 13t33.5 5q22 0 43.5 -8t38.5 -23t27.5 -36.5t10.5 -47.5q0 -43 -36 -79q12 -3 22 -3q21 0 41 16.5t47 58.5q16 25 20 54zM-10 622h996v-87h-996v87z" />
    <glyph glyph-name="bh_r_ookar_bn" horiz-adv-x="1003" 
d="M563 442l116 -48v-47l172 35l131 -41l-80 -156q-1 0 -1 -2l-3 -10q-5 -18 -5 -36q0 -23 10 -49.5t39 -53.5l-84 -103q-62 56 -84 109t-22 94q0 29 9 55t16 37l14 29l-112 -25v-230h-122v23q-20 10 -45.5 15.5t-56.5 5.5q-35 0 -76.5 -8.5t-89.5 -27.5q-44 -17 -87 -17
q-44 0 -77.5 19.5t-56.5 53t-35 77.5t-12 93l126 -20v-9q0 -10 2.5 -24.5t10.5 -27.5t23 -22.5t40 -9.5q30 0 71 16q48 18 88.5 25.5t75.5 7.5q54 0 99 -17v86q-45 -28 -80.5 -42t-73.5 -14q-42 0 -77.5 16t-61.5 42.5t-40.5 59t-14.5 65.5q0 40 19 78q1 1 1 3h1
q8 13 21.5 25t30 20t34 13t33.5 5q22 0 43.5 -8t38.5 -23t27.5 -36.5t10.5 -47.5q0 -43 -36 -79q12 -3 22 -3q21 0 41 16.5t47 58.5q17 27 20 54zM-10 622h1023v-87h-1023v87z" />
    <glyph glyph-name="bh_lo_bn" horiz-adv-x="764" 
d="M490 68q-13 -1 -26.5 -1.5t-27.5 -0.5q-84 3 -147 22t-109 49t-76.5 68t-48.5 80t-26 84.5t-9 80.5h175v-2q0 -3 -1 -13.5t-1 -24.5q0 -27 9 -65t36 -73t76.5 -59.5t130.5 -24.5q44 0 70.5 9.5t40.5 22.5t18.5 25t4.5 18q0 3 -1 3q-74 -38 -137 -38q-42 0 -78 14
t-61.5 36.5t-40 50.5t-14.5 57q0 33 19 67l2 3q8 12 21.5 21.5t30 17t34 11.5t32.5 4q22 0 43.5 -7t38.5 -20t28 -31.5t11 -41.5q0 -37 -36 -68q6 -2 10 -2h11q22 0 41.5 14t47.5 51l4 5q4 5 8.5 15.5t7.5 25.5l130 -46q9 -28 11 -39.5t2 -22.5v-15q0 -26 -5.5 -56
t-18.5 -59.5t-35 -56.5t-54 -46v-304h-141v95q-4 3 -14 7.5t-21 4.5q-13 0 -25 -9l9 -15l-66 -46q-10 13 -18 29.5t-19.5 30.5t-28 23.5t-42.5 9.5q-15 0 -25 -5t-15 -13t-7 -17t-2 -17v-6q9 11 23 17t28 6q17 0 29.5 -7t21 -18t12.5 -23.5t4 -24.5q0 -29 -20.5 -51.5
t-62.5 -22.5q-54 0 -89.5 38t-35.5 107q0 31 9 57t28.5 45.5t50 31t74.5 12.5q55 -7 91 -48q14 17 32 27.5t41 10.5q19 0 38 -10v43zM-10 622h784v-87h-784v87z" />
    <glyph glyph-name="m_no_bn" horiz-adv-x="626" 
d="M150 505q-26 15 -96 30h-64v87h646v-87h-65q35 -72 35 -155q0 -78 -19 -136v-363h-140v59q-24 46 -49.5 63t-51.5 17q-9 0 -12 -1q22 -31 22 -65q0 -22 -9 -41t-23 -33.5t-33 -22.5t-38 -8q-24 0 -44 9t-34 25t-22 38t-8 47q0 32 16 63t43 55t63 38.5t76 14.5
q55 0 104 -37v51q-8 9 -12 22q-17 60 -53.5 93t-75.5 43q11 -31 11 -53t-11 -45t-31 -42t-47.5 -31t-60.5 -12q-25 0 -51 9.5t-47 26t-34.5 40t-13.5 52.5v2q10 151 158 187q0 43 -29 60zM436 516q-4 5 -8 9.5t-9 9.5h-115q10 -14 17.5 -32.5t7.5 -47.5v-7q124 -36 138 -119
l1 2q0 6 4 22.5t4 38.5q0 27 -8.5 59.5t-31.5 64.5z" />
    <glyph glyph-name="m_pho_bn" horiz-adv-x="1069" 
d="M150 505q-26 15 -96 30h-64v87h1089v-87h-508q35 -70 35 -152q0 -63 -14.5 -121t-37.5 -93l-1 -1q-10 -17 -26 -28l17 -6q20 -8 50.5 -23t63.5 -48v329q11 60 46.5 87t98.5 27q43 0 86 -16.5t78 -47t57.5 -75t24.5 -101.5q-2 -44 -13 -78.5t-29 -58.5t-41.5 -37
t-50.5 -13q-42 0 -71.5 29t-31.5 74q1 45 29 73.5t74 30.5h6q0 15 -9.5 38t-40.5 41l-15 4q-13 5 -31 5q-13 0 -22.5 -5.5t-11.5 -20.5v-483h-133v11q-30 43 -64 70.5t-67 43t-61.5 22t-47.5 7.5l-27 1l-84 94l114 100q-22 42 -52.5 65.5t-62.5 31.5q12 -29 12 -54
q0 -22 -11.5 -45t-31.5 -41.5t-47.5 -30.5t-60.5 -12q-26 0 -52 9.5t-47 26.5t-34 40.5t-13 51.5v2q10 151 158 187q0 43 -29 60zM436 516q-4 5 -8 9.5t-9 9.5h-115q11 -14 18.5 -33t7.5 -47v-7q123 -36 137 -119l5 17q3 9 4 20.5t1 24.5q0 27 -8.5 59.5t-32.5 65.5z" />
    <glyph glyph-name="m_bo_bn" horiz-adv-x="626" 
d="M447 -112q-23 16 -48.5 28.5t-52 22t-51.5 15.5t-46 9h-2q-2 0 -3 1h-3q-14 2 -22.5 3t-10.5 2h-2v137l234 59q-22 64 -55.5 99.5t-78.5 46.5q12 -29 12 -53q0 -22 -11.5 -45t-31.5 -42t-47.5 -31t-60.5 -12q-26 0 -52 9.5t-47 26.5t-34 40.5t-13 51.5v2q10 151 158 187
q0 21 -6 34.5t-20 23.5t-38 17t-61 15h-64v87h646v-87h-65q35 -72 35 -154q0 -74 -18 -134v-370h-141v11zM419 535h-115q11 -14 18 -32.5t7 -45.5v-9q124 -36 138 -119l5 17q5 20 5 45q0 30 -12 69.5t-46 74.5zM447 68l-131 -22q48 -6 79.5 -15.5t48.5 -19.5l3 -2v59z" />
    <glyph glyph-name="m_b_ro_bn" horiz-adv-x="627" 
d="M447 9v59l-131 -22q93 -12 131 -37zM467 329q10 34 10 62q0 84 -58 144h-115q11 -14 18 -32.5t7 -54.5q124 -36 138 -119zM193 -261q-74 0 -117 65q-41 62 -41 153l120 -18v-8q0 -26 14 -48q17 -28 48 -28q11 0 42.5 10.5t56 17t53.5 6.5q47 0 78 -10v9q-43 30 -100 51
q-50 17 -99 24q-3 0 -5 1q-16 2 -24.5 3t-10.5 2h-2v137l234 59q-42 124 -134 146q12 -29 12 -53q0 -46 -44 -88t-107 -42q-55 0 -100.5 37t-45.5 92q10 152 158 188q0 39 -26 58q-21 15 -99 32h-64v87h647v-87h-66q35 -72 35 -154q0 -74 -18 -134v-496h-141v13
q-36 11 -77 11q-51 0 -102 -21q-37 -15 -75 -15z" />
    <glyph glyph-name="m_bho_bn" horiz-adv-x="819" 
d="M572 203q16 -14 23 -33.5t7 -36.5q0 -36 -29 -65q6 -2 9 -2h8q18 0 34.5 13.5t39.5 48.5l4 5q3 5 7 15t6 25l108 -45q7 -18 7 -34v-3q3 -18 3 -38q0 -39 -11 -83t-39.5 -81t-78 -61.5t-126.5 -25.5q-70 2 -122.5 16t-91 36.5t-63 52t-40 62.5t-22 68.5t-7.5 69.5h146v-2
q-2 -10 -2 -28q0 -17 8 -43.5t30.5 -52t63.5 -43.5t108 -18q36 0 58 9t33.5 21t15.5 23.5t4 17.5q0 3 -1 3v1q-58 -37 -113 -37q-34 0 -63.5 13t-51.5 34.5t-34.5 48.5t-12.5 55q0 6 0.5 15t2.5 19t5.5 19.5t8.5 14.5h1q8 13 21 23l1 1q-20 48 -53.5 74.5t-67.5 35.5
q12 -29 12 -54q0 -22 -11.5 -45t-31.5 -41.5t-47.5 -30.5t-60.5 -12q-26 0 -52 9.5t-47 26.5t-34 40.5t-13 51.5v2q10 151 158 187q0 21 -6 34.5t-20 23.5t-38 17t-61 15h-64v87h839v-87h-258q35 -70 35 -152q0 -103 -34 -180zM419 535h-115q11 -14 18.5 -33t7.5 -47v-7
q123 -36 137 -119l5 17q3 9 4 20.5t1 24.5q0 30 -11.5 69.5t-46.5 74.5z" />
    <glyph glyph-name="m_bh_ro_bn" horiz-adv-x="799" 
d="M675 237l104 -43v-376h-110v45q-18 8 -41 13.5t-51 5.5q-63 0 -147 -32q-21 -8 -40 -11.5t-37 -3.5q-39 0 -69 18t-51 48t-31.5 69t-10.5 82l112 -18v-3q0 -8 2 -21.5t8.5 -26.5t20.5 -22t38 -9q13 0 28 2.5t35 10.5q42 17 77.5 23.5t67.5 6.5q26 0 48.5 -4.5t40.5 -11.5
v77l-15 -10q-32 -21 -63 -29.5t-59 -9.5q-35 0 -66.5 13.5t-55.5 36t-38 51.5t-14 60q0 35 18 71q0 2 1 3h1q2 4 5 8t8 9l-8 9q-39 33 -76 43q12 -29 12 -53q0 -22 -11.5 -45t-31.5 -42t-47.5 -31t-60.5 -12q-26 0 -52 9.5t-47 26.5t-34 40.5t-13 51.5v2q10 151 158 187
q0 21 -6 34.5t-20 23.5t-38 17t-61 15h-65v87h819v-87h-237q35 -70 35 -152q0 -81 -23 -152q3 -9 5 -18t2 -18q0 -38 -32 -70q10 -3 19 -3q19 0 36.5 15t42.5 53l4 6q1 1 4.5 8t3.5 10zM437 516q-4 5 -8 9.5t-9 9.5h-115q11 -14 18 -32.5t7 -45.5v-9q124 -36 138 -119l5 17
q5 20 5 45q0 27 -8.5 60t-32.5 65z" />
    <glyph glyph-name="m_mo_bn" horiz-adv-x="920" 
d="M880 535v-668h-141v101l-2 10q-21 77 -53 99l-14 10q-32 23 -60.5 32.5t-51.5 9.5q-20 0 -36 -6t-29 -16q82 -39 82 -130q0 -29 -11.5 -53t-30.5 -41t-43.5 -26.5t-49.5 -9.5q-26 0 -48 9.5t-39 23.5l-4 3q-28 26 -43 58.5t-15 72.5q0 30 7 61.5t22 60.5t37 55t52 45
q-20 31 -48.5 49t-54.5 26q12 -29 12 -54q0 -22 -11.5 -45t-32 -41.5t-48 -30.5t-59.5 -12q-26 0 -52 9.5t-47 26.5t-34 41t-13 53q10 151 158 187q0 21 -5.5 34.5t-19.5 23t-38.5 17t-61.5 15.5h-64v87h940v-87h-50zM739 208v327h-167q35 -68 35 -148q0 -64 -12 -119
q24 -5 49.5 -13.5t53.5 -21.5h1q0 -3 14 -8zM436 516q-9 12 -17 19h-115q11 -14 18.5 -33t7.5 -47v-7q124 -36 138 -119l1 2q0 6 4 22.5t4 39.5q0 26 -8.5 58.5t-32.5 64.5z" />
    <glyph glyph-name="m_ro_bn" horiz-adv-x="625" 
d="M585 535v-700h-142v26q-5 5 -15.5 8.5t-23.5 5.5t-26.5 3t-25.5 1q-28 0 -60.5 -8.5t-70.5 -23.5q-20 -8 -37 -11.5t-34 -3.5q-36 0 -64 18t-47 48t-29 69.5t-10 83.5l115 -18v-3q0 -5 1.5 -18t7.5 -27.5t17.5 -25.5t31.5 -11q10 0 21.5 3.5t31.5 11.5q35 14 66 22t59 8
q51 0 89 -15q2 0 3 -1v81q-9 42 -23.5 72t-32 50.5t-37 31.5t-38.5 16q13 -25 13 -54q0 -28 -12.5 -52.5t-34 -42.5t-49 -28.5t-57.5 -10.5q-34 0 -62 12t-48 33t-31 49t-11 60q0 29 13 55.5t35.5 48.5t52.5 38.5t65 25.5q0 24 -6.5 48t-21.5 47t-41 43t-65 35h-62v87h645
v-87h-50zM399 341q23 -13 45 -32v226h-159q16 -23 33.5 -61t17.5 -89v-21q14 -4 30 -9.5t33 -13.5z" />
    <glyph glyph-name="m_lo_bn" horiz-adv-x="646" 
d="M447 -66l-4 12q-2 7 -11.5 18t-34.5 11q-13 0 -25 -9l9 -15l-66 -46q-10 13 -18.5 29.5t-19.5 30.5t-27.5 23.5t-42.5 9.5q-17 0 -26.5 -6.5t-14.5 -15t-6.5 -17.5t-1.5 -14v-5q9 11 23 17t28 6q17 0 29.5 -7t21 -17.5t12.5 -23.5t4 -24q0 -29 -21 -52t-63 -23
q-24 0 -46.5 9.5t-40 28t-27.5 46t-10 62.5q0 30 9 56t28.5 45.5t50 31t73.5 12.5q56 -8 92 -48q12 17 30 27.5t40 10.5q27 0 56 -20v77q-7 9 -11 21q-18 60 -54.5 93t-75.5 43q12 -29 12 -54q0 -22 -11.5 -45t-31.5 -41.5t-47.5 -30.5t-60.5 -12q-26 0 -52 9.5t-47 26.5
t-34 40.5t-13 51.5v2q10 151 158 187q0 21 -6 34.5t-20 23.5t-38 17t-61 15h-64v87h666v-87h-85q35 -72 35 -154q0 -74 -18 -134v-352h-141v39zM436 516q-4 5 -8 9.5t-9 9.5h-115q11 -14 18.5 -33t7.5 -47v-7q123 -36 137 -119l5 17q3 9 4 20.5t1 24.5q0 27 -8.5 59.5
t-32.5 65.5z" />
    <glyph glyph-name="z_ro_bn" horiz-adv-x="622" 
d="M39 535h-49v87h642v-87h-50v-666h-133l-1 25q-17 8 -40.5 13t-50.5 5q-29 0 -62 -8.5t-71 -23.5q-20 -8 -38 -11.5t-35 -3.5q-37 0 -65 18t-47 48t-29 69.5t-10 83.5l116 -18v-9q0 -8 2.5 -21t9 -25t18 -21t29.5 -9q11 0 22.5 3.5t31.5 11.5q35 14 67 22t60 8
q53 0 86 -13q-25 33 -58 56.5t-68.5 39.5t-71.5 25t-66.5 14t-53 6.5t-32.5 1.5h-2l-68 139q58 5 92.5 17t53 26t24 27.5t5.5 21.5v9q-5 27 -21 48.5t-36.5 37.5t-42.5 27.5t-38 18.5zM449 535h-178q16 -12 28 -27.5t20.5 -29.5t13 -23.5t6.5 -9.5l3 -7q0 -1 1 -2l3 -7
q2 -8 4.5 -18.5t2.5 -23.5t-3.5 -28.5t-13 -31t-26 -31t-42.5 -28.5l36 -8q14 -3 32.5 -9t38 -15.5t39 -21.5t35.5 -27v348z" />
    <glyph glyph-name="l_ko_bn" horiz-adv-x="852" 
d="M590 -142h-141v30q-72 48 -143 75t-119 36l-49 9v162l311 96v99l-4 6q-8 11 -31 18l-9 1q-14 0 -31 -11l11 -18l-79 -55l-16 27q-19 37 -44.5 61t-69.5 24q-57 0 -57 -70q22 28 62 28q19 0 33.5 -8.5t24.5 -20.5t15 -26t5 -24v-10q0 -4 -4 -17.5t-15.5 -27.5t-32.5 -25.5
t-54 -11.5q-27 0 -51 10t-42 30t-28.5 49t-10.5 67q0 46 31 101q32 56 152 57q60 -4 109 -56q15 19 36.5 31.5t47.5 12.5q25 0 52 -15v43h-459v87h872v-87h-272v-252l19 1q51 0 92.5 -18.5t70.5 -48.5t44.5 -69t15.5 -79q0 -30 -11 -56.5t-29 -46t-41.5 -31t-48.5 -11.5
q-18 0 -35.5 6.5t-32 19t-23 31t-8.5 41.5q0 31 19 56.5t60 25.5q23 0 40 -9l-8 12q-7 8 -18 18.5t-26 19.5t-33.5 15t-40.5 6h-6v-308zM449 26v128l-163 -51q98 -25 155 -71q7 -6 8 -6z" />
    <glyph glyph-name="l_go_bn" horiz-adv-x="631" 
d="M450 11q-20 29 -39 47t-38 27.5t-36.5 13t-34.5 3.5q-35 0 -57.5 -10t-26.5 -13q19 4 37 6t36 2q20 0 39.5 -3t34.5 -12t24.5 -24.5t9.5 -39.5t-15 -47t-37 -43t-47 -37t-44 -28l-27 -16l-123 63q40 13 78 33.5t64 37.5l24 16l1 1l-37 -3q-10 -1 -19 -1.5t-18 -0.5
q-21 0 -39 1.5t-30 3.5l-57 104q20 34 45 57t52 36.5t55.5 19t56.5 5.5q30 0 57 -5t49.5 -11.5t38.5 -14t23 -12.5v198l-4 6q-5 5 -15.5 12t-24.5 7q-13 0 -23 -6l-9 -6l11 -17l-79 -55l-15 27q-8 15 -17.5 30t-22 27t-29.5 19.5t-40 7.5q-21 0 -33 -7t-19 -17t-9 -20.5
t-2 -17.5v-5q0 -1 1 -2q11 14 27 21t33 7q20 0 35 -8.5t25 -21t15 -26.5t5 -25q0 -18 -8 -34t-22.5 -29t-34.5 -20.5t-43 -7.5q-28 0 -52 11t-41.5 31.5t-27.5 49.5t-10 64q0 33 10.5 62t33 50t57 33.5t83.5 13.5q32 -2 57.5 -16.5t50.5 -39.5q15 19 36.5 31.5t46.5 12.5
t54 -15v43h-460v87h651v-87h-50v-681h-141v157z" />
    <glyph glyph-name="l_ddo_bn" horiz-adv-x="900" 
d="M374 368l11 -17l-79 -55l-15 27q-9 15 -18.5 30t-22.5 27t-30.5 19.5t-41.5 7.5q-20 0 -31.5 -7.5t-17.5 -17.5t-7.5 -21t-1.5 -17v-6q24 27 61 27q20 0 35 -8.5t24.5 -20.5t14 -26t4.5 -25q0 -18 -8 -34t-22.5 -28.5t-34.5 -20t-43 -7.5q-27 0 -51 11t-41.5 31.5
t-27.5 49t-10 63.5q0 33 10 61.5t32 50t56.5 34t84.5 13.5q34 -2 60 -18t49 -39q15 19 36.5 32t46.5 13q27 0 56 -17v55h-462v87h920v-87h-318v-156l31 4q31 4 75 14.5t89 35.5l91 -99q1 -5 1 -15v-14q0 -50 -17.5 -104t-54 -98.5t-92.5 -73t-134 -28.5q-75 4 -131 20.5
t-97.5 42.5t-68.5 59.5t-43 71.5h157q23 -27 68.5 -47t106.5 -20q46 0 77.5 16t51.5 38t30 45.5t14 39.5v1q3 10 3 14l1 2q-8 -4 -23 -10.5t-34.5 -13t-43 -11t-48.5 -4.5q-16 0 -41 4.5t-48.5 16t-40.5 31.5t-17 51l-8 13q-5 5 -16.5 11.5t-25.5 6.5q-8 0 -21 -5z" />
    <glyph glyph-name="l_po_bn" horiz-adv-x="630" 
d="M449 -34l-243 -130l-65 85l76 38q-18 38 -38 59.5t-34 29.5l-10 6q-1 1 -3 1l-72 90q134 68 227 68q51 0 93 -13t69 -31v196l-4 6q-5 5 -15.5 12t-24.5 7q-13 0 -23 -6l-9 -6l11 -17l-78 -55q-12 17 -22 36.5t-23.5 36t-32.5 27.5t-49 11q-21 0 -33 -7.5t-18 -17.5
t-7.5 -21t-1.5 -17v-6q11 14 27 21t33 7q20 0 35 -8.5t25 -21t15 -26.5t5 -25q0 -18 -8 -34t-22.5 -29t-34.5 -20.5t-43 -7.5q-28 0 -51.5 11.5t-41 32t-27.5 49t-10 63.5q0 33 10 61.5t32 50t56.5 34t84.5 13.5q33 -2 60 -18t49 -39q14 19 35 32t47 13q25 0 54 -15v43h-459
v87h650v-87h-50v-682h-141v113zM251 99q39 -36 61 -93l120 59q-29 21 -61.5 30.5t-64.5 9.5q-14 0 -27.5 -2t-27.5 -4z" />
    <glyph glyph-name="l_pho_bn" horiz-adv-x="1118" 
d="M510 426q-9 28 -31 48t-46 33t-45.5 19.5t-29.5 8.5h-368v87h1138v-87h-534q18 -17 32.5 -34t22.5 -31l6 -11q0 -1 1 -2l2 -3q10 -23 10 -47q0 -43 -32 -75l-64 -64h1q1 0 2 -1l17 -4q20 -5 50.5 -22.5t63.5 -49.5v204q11 60 46.5 87.5t98.5 27.5q43 0 86 -16t78 -47
t57.5 -76t24.5 -102q-2 -45 -13.5 -79.5t-29.5 -58t-41.5 -36t-48.5 -12.5q-43 0 -72.5 29t-31.5 74q1 45 29.5 73.5t74.5 29.5h5q0 15 -9.5 39t-40.5 40h-1q-3 2 -17 6t-26 4q-14 0 -24 -5.5t-12 -20.5v-358h-133v11q-30 43 -64 70t-66.5 43t-61.5 22t-48 7h-1q-5 1 -9 1
h-17l-83 94l102 90l-2 4q-1 4 -4.5 11t-9.5 13.5t-16 11t-23 4.5q-8 0 -21 -5l-9 -6l11 -17l-78 -55q-12 18 -22.5 37.5t-24 36t-33 27t-49.5 10.5q-19 0 -30.5 -7t-17.5 -16.5t-8 -19.5t-2 -17v-9q24 27 61 27q20 0 35 -8.5t24.5 -20.5t14.5 -26t5 -25q0 -18 -8 -34
t-22.5 -28.5t-34.5 -20t-44 -7.5q-27 0 -51 11t-41 31.5t-27 49t-10 63.5q0 32 10 60.5t31.5 50t56.5 34.5t85 14q32 -2 59.5 -18t49.5 -40q14 19 36 32.5t48 13.5q10 0 24.5 -4t29 -11.5t28.5 -19t24 -25.5z" />
    <glyph glyph-name="l_bo_bn" horiz-adv-x="710" 
d="M430 334l13 -20l-91 -64l-18 32q-9 16 -20 33.5t-26 31.5t-35 23t-48 9q-23 0 -36.5 -7.5t-21 -18.5t-10 -23t-2.5 -21v-10q13 16 31.5 24t38.5 8q23 0 40.5 -10t29 -24t17 -30.5t5.5 -28.5q0 -21 -9.5 -40t-26 -33.5t-39 -23t-49.5 -8.5q-32 0 -59.5 12.5t-48 36
t-32.5 57t-12 74.5q0 39 12 72.5t38 58t66.5 38.5t96.5 15q38 -2 69 -20t57 -46q17 23 42 37.5t54 14.5q35 0 73 -23v75h-539v87h730v-87h-50v-662h-141v22q-28 18 -58.5 31.5t-60.5 23.5t-57.5 16.5t-48.5 9.5l-8 1l-6 1h-4q-1 1 -4 1l-26 4v146l273 75v92q0 2 -2.5 8.5
t-9.5 16t-19.5 18t-31.5 8.5q-15 0 -25 -7zM529 17v85l-148 -40q96 -11 148 -45z" />
    <glyph glyph-name="l_bho_bn" horiz-adv-x="883" 
d="M441 365q-7 7 -17 10.5t-20 3.5q-4 0 -21 -5l-9 -6l11 -17l-79 -55l-15 27q-9 15 -18.5 30t-22.5 27t-30.5 19.5t-41.5 7.5q-20 0 -31.5 -7.5t-17.5 -17.5t-7.5 -21t-1.5 -17v-6q24 27 61 27q20 0 35 -8.5t24.5 -20.5t14 -26t4.5 -25q0 -18 -8 -34t-22.5 -28.5t-34.5 -20
t-43 -7.5q-27 0 -51 11t-41.5 31.5t-27.5 49t-10 63.5q0 33 10 61.5t32 50t56.5 34t84.5 13.5q34 -2 60 -18t49 -39q15 19 36.5 32t46.5 13q27 0 56 -17v55h-462v87h903v-87h-301v-172q0 -7 0.5 -12t2.5 -13l14 -16q15 -26 15 -49q0 -37 -36 -68q12 -3 22 -3q21 0 40.5 14.5
t48.5 49.5l5 6q4 6 8.5 15.5t7.5 26.5l130 -48q8 -21 11 -37.5t3 -36.5q0 -40 -12.5 -86t-46.5 -85.5t-95 -65.5t-157 -26q-77 3 -135.5 19t-102.5 41t-75.5 57.5t-53.5 69.5l136 72q9 -26 26.5 -50.5t46.5 -44t70.5 -31t98.5 -11.5q43 0 69.5 9.5t40.5 22t19 25t5 17.5
q0 3 -1 3q-73 -37 -139 -37q-38 0 -73.5 12.5t-63 33.5t-44 49.5t-16.5 60.5q0 13 2.5 28t11 30t24 28.5t41.5 24.5q0 6 1 7z" />
    <glyph glyph-name="l_mo_bn" horiz-adv-x="982" 
d="M430 334l13 -20l-92 -64l-18 32q-20 42 -50 69.5t-82 27.5q-66 0 -66 -77v-3q26 32 72 32q21 0 38 -9.5t28.5 -23.5t17.5 -30t6 -29v-11q0 -6 -5.5 -22t-20 -32t-38 -28.5t-59.5 -12.5q-32 0 -60 11.5t-49 34.5t-33 56.5t-12 77.5q0 53 36 118q36 64 177 66
q68 -4 127 -65q17 22 42 37t54 15q35 0 73 -24v75h-539v87h1002v-87h-50v-639h-140v99l-4 21q-6 31 -22.5 55t-28.5 35l-14 10q-60 42 -104 42q-46 0 -74 -22q83 -39 83 -130v-10q-3 -27 -15 -49t-30 -38t-41.5 -24.5t-48.5 -8.5q-50 0 -87 33l-4 3q-58 52 -58 135
q0 37 11.5 74.5t33.5 70.5t55 59t75 40v6l-3 4q-5 17 -20 31.5t-40 14.5q-17 0 -36 -13zM670 535v-241q22 -5 44.5 -13t46.5 -19l41 -24v297h-132z" />
    <glyph glyph-name="l_ro_bn" horiz-adv-x="706" 
d="M429 334l13 -20l-91 -64l-18 32q-9 16 -20 33.5t-26 31.5t-35 23t-48 9q-23 0 -36.5 -7.5t-21 -18.5t-10 -23t-2.5 -21v-10q13 16 31.5 24t38.5 8q23 0 40.5 -10t29 -24t17 -30.5t5.5 -28.5q0 -21 -9.5 -40t-26 -33.5t-39 -23t-49.5 -8.5q-32 0 -59.5 12.5t-48 36
t-32.5 57t-12 74.5q0 39 12 72.5t38 58t66.5 38.5t96.5 15q38 -2 66.5 -19t59.5 -46q17 22 42.5 37t54.5 15q32 0 70 -23v74h-536v87h726v-87h-50v-620h-140v25q-19 8 -42 13.5t-51 5.5q-64 0 -148 -32q-21 -8 -40.5 -11.5t-36.5 -3.5q-39 0 -69.5 17.5t-51.5 47.5
t-31.5 69.5t-10.5 83.5l113 -18v-8q0 -9 2 -22t9.5 -25t20.5 -20.5t36 -8.5q25 0 64 15q42 16 77.5 23t67.5 7q26 0 49 -4.5t42 -11.5v244q-2 4 -5.5 12t-10.5 15.5t-18 13t-27 5.5q-15 0 -25 -7z" />
    <glyph glyph-name="l_lo_bn" horiz-adv-x="708" 
d="M361 441q17 23 43 37.5t55 14.5q34 0 68 -22v64h-537v87h728v-87h-50v-685h-141v135q-6 9 -17.5 19.5t-33.5 10.5q-13 0 -23 -6l-9 -6l11 -19l-84 -59q-13 19 -23.5 40t-24.5 38.5t-35 29t-54 11.5q-21 0 -33.5 -7.5t-19.5 -18t-9 -22t-2 -18.5v-6q0 -1 1 -2
q11 14 28.5 22t36.5 8q21 0 37 -9t26.5 -22.5t15.5 -28t5 -26.5q0 -20 -8.5 -37.5t-24 -31t-37 -21.5t-46.5 -8q-29 0 -54.5 12t-44.5 34t-29.5 52.5t-10.5 68.5q0 23 6 47.5t19 46t34 39t52 26.5q-32 0 -60.5 12.5t-49.5 36t-33 57t-12 75.5q0 39 12 72.5t38 58t66.5 38.5
t96.5 15q39 -4 67 -20.5t60 -45.5zM527 310q-2 6 -5.5 13.5t-10.5 15t-18.5 12.5t-27.5 5q-13 0 -23 -6l-11 -6l13 -20l-92 -64l-18 31q-8 17 -19 34.5t-26.5 31.5t-36.5 23t-49 9q-23 0 -36.5 -9t-20.5 -21t-9 -24.5t-2 -19.5v-5q0 -1 1 -2q13 16 32 24.5t39 8.5
q23 0 40 -10t28.5 -24.5t17 -30.5t5.5 -28q0 -28 -14.5 -50t-40.5 -38l-16 -8q8 1 16.5 1.5t18.5 0.5q36 -2 63.5 -19t53.5 -42q15 21 39.5 34.5t50.5 13.5t58 -17v186z" />
    <glyph glyph-name="l_so_bn" horiz-adv-x="861" 
d="M681 93l-127 89q-17 -32 -38.5 -57t-43 -43.5t-41.5 -31t-34 -18.5l-24 -11q-1 -1 -2 -1l-122 102l4 3q38 22 70.5 44.5t57.5 47t41.5 52.5t22.5 62q-5 5 -16.5 11.5t-24.5 6.5q-8 0 -15 -3t-15 -8l11 -18l-79 -55l-16 27q-7 15 -16.5 30t-22 27t-30 19.5t-40.5 7.5
q-19 0 -31 -6.5t-19 -15.5t-9.5 -19t-2.5 -17v-11q11 14 27 21t33 7q20 0 35 -8.5t25 -20.5t15 -26t5 -25q0 -18 -8 -34t-22.5 -29t-34.5 -20.5t-44 -7.5q-27 0 -50.5 11t-41 31.5t-27.5 49t-10 63.5q0 34 10.5 62.5t32.5 49.5t57 33.5t83 13.5q33 -2 59.5 -17.5t49.5 -38.5
q14 18 36 31t48 13q11 0 31 -5q-21 46 -56 74h-382v87h881v-87h-50v-535h-140v93zM594 325l87 -61v271h-132l3 -4q24 -38 34 -81t10 -88q0 -10 -0.5 -19t-1.5 -18z" />
    <glyph glyph-name="sh_ukar_bn" horiz-adv-x="865" 
d="M-10 622h112q64 0 106.5 -21t69.5 -61q23 38 67 56.5t104 19.5q30 -1 51.5 -6t38 -13.5t30.5 -21t28 -27.5l28 -27l140 108q5 -5 24 -43q31 -62 44 -121.5t13 -122.5q0 -21 -8.5 -56t-41.5 -83q56 -68 56 -153q0 -33 -11.5 -65.5t-38.5 -59.5t-72.5 -46t-112.5 -24h-16
q-72 0 -142.5 15t-134 38.5t-118.5 53t-97 58.5l-68 47l58 96l85 -54l58 -31q33 -18 77.5 -37t91.5 -34.5t94.5 -25.5t86.5 -10q35 0 60.5 9t42.5 24.5t25 36t8 43.5q0 2 -0.5 6t-1.5 9q-38 -50 -101 -50q-25 0 -46.5 8.5t-37.5 23t-25.5 34.5t-10.5 43q2 49 37 79.5
t104 30.5l35 -6q2 -2 7 -2q14 14 28 45.5t14 73.5q0 34 -10 61l-80 -85h-69l-8 26q-44 122 -129 122q-32 0 -50.5 -19.5t-18.5 -60.5v-8l1 -23q20 23 53 23q19 0 38.5 -7t34.5 -20.5t24.5 -35t9.5 -49.5q0 -22 -7.5 -43.5t-24 -38.5t-42.5 -27.5t-62 -10.5q-38 0 -67 14.5
t-49 49.5q-22 -35 -50 -49.5t-66 -14.5q-36 0 -62 10.5t-42.5 27.5t-24 38.5t-7.5 43.5v21q0 6 1 13q1 14 10.5 28t24.5 25t33.5 18t38.5 7q31 0 51 -23q2 2 4.5 14.5t2.5 35.5q0 15 -3.5 31t-13 29t-26.5 22t-43 11h-112v87z" />
    <glyph glyph-name="sh_co_bn" horiz-adv-x="1116" 
d="M-10 622h111q111 0 162 -62l14 -19l13 17q24 32 65 47t96 17q58 -4 97 -33v33h578v-87h-433v-28q0 -2 1 -3l4 -6q1 -3 5 -7l7 -6q34 -27 77 -35l1 -1q75 -18 130 -26.5t97 -8.5l81 -109q-6 -44 -29 -88.5t-65.5 -84.5t-105.5 -73.5t-150 -54.5q-19 -5 -35.5 -6.5
t-30.5 -1.5q-29 0 -50.5 6t-36.5 15t-24.5 18.5t-14.5 16.5l-4 6q-2 2 -2 3v356q-14 36 -38 60.5t-66 24.5q-26 0 -42 -8.5t-24.5 -21.5t-11.5 -27.5t-3 -26.5q0 -11 1 -18t1 -8q18 22 49 22q46 0 78.5 -27.5t32.5 -84.5q0 -21 -7.5 -42.5t-24 -38.5t-42 -27.5t-62.5 -10.5
q-38 0 -66.5 15t-49.5 50q-22 -35 -50 -50t-67 -15q-38 0 -63.5 11t-42 28t-23.5 39t-7 44q0 28 9 48.5t24.5 34t35.5 20t42 6.5q30 0 49 -22l3 14q1 7 2 15.5t1 18.5q0 15 -3.5 31.5t-12.5 30t-25.5 23t-43.5 10.5h-111v87zM694 343v-195l1 1q5 1 23.5 7.5t43.5 16.5
t52.5 23.5t51 28.5t40.5 32t20 33l-164 37l-3 1q-2 0 -3 1h-3q-1 1 -2 1h-3q-1 1 -3 1l-6 2h-2q-1 0 -2 1l-9 2l-31 7h-1z" />
    <glyph glyph-name="sh_cho_bn" horiz-adv-x="1167" 
d="M1086 -132l-471 135v117l41 9h4q1 1 2 1l9 2q24 5 59 13.5t73 19.5t75.5 25.5t67 31t48 35.5t18.5 40q0 16 -21.5 29t-54.5 19l-17 3l-3 -11q-9 -40 -45 -82q-8 -9 -27.5 -24t-47 -29.5t-60 -25t-65.5 -10.5q-24 0 -44 7.5t-34.5 18t-24 22t-13.5 20.5l-6 7q0 1 -1 2v174
q-15 38 -38 61.5t-65 23.5q-27 0 -43 -9t-25 -22t-11.5 -28t-2.5 -27q0 -11 1 -17t1 -7q21 22 54 22q21 0 40 -6.5t33.5 -20.5t23.5 -35t9 -50q0 -21 -7.5 -42.5t-24 -38.5t-42 -27.5t-62.5 -10.5q-38 0 -66.5 15t-49.5 50q-22 -35 -49.5 -50t-66.5 -15q-38 0 -64 11t-42 28
t-23.5 39t-7.5 44q0 28 9.5 48.5t24.5 34t34 20t39 6.5q15 0 29 -5t24 -17q1 1 4 14.5t3 33.5q0 15 -3.5 31.5t-13 30t-26 23t-43.5 10.5h-111v87h126q100 -4 147 -62l14 -20q26 39 68 60t106 22q59 -5 97 -32v32h630v-87h-508l1 -9l3 -6l10 -11q14 -12 30.5 -18.5
t34.5 -11.5l58 -15l24 4q16 2 35.5 3.5t40.5 1.5q36 0 78 -7t78 -25.5t59.5 -51t23.5 -83.5q0 -37 -18 -68.5t-45.5 -57t-60 -45.5t-62 -34t-52 -22t-28.5 -10l-1 -1l270 -73zM674 296q2 -2 7 -2h12q11 0 25 2t26.5 8t22.5 16t13 25q-32 8 -53 15t-33 12.5t-17 9.5
q-5 3 -6 6l-1 -92h4z" />
    <glyph glyph-name="sh_no_bn" horiz-adv-x="730" 
d="M-10 622h127q100 -4 148 -63l12 -18l14 17q52 63 161 64q58 -4 97 -33v33h191v-87h-50v-645h-141v68l-3 7q-41 81 -104 81h-9q23 -32 23 -64q0 -23 -8.5 -42t-23.5 -33.5t-34 -22.5t-40 -8q-32 0 -59.5 20t-37.5 50l-2 3q-7 20 -7 44t12 53t35.5 54.5t59 44t83.5 21.5h8
q55 0 107 -40v291q-15 37 -38.5 61t-67.5 24q-42 0 -60.5 -23.5t-18.5 -58.5q0 -8 1 -17.5t1 -10.5q20 23 52 23q21 0 40.5 -7t34.5 -21t24 -35t9 -49q0 -22 -7.5 -43.5t-24 -38.5t-42.5 -27.5t-62 -10.5q-75 0 -116 65q-41 -65 -117 -65q-36 0 -62 10.5t-42.5 27.5
t-24 38.5t-7.5 43.5l1 17q1 12 6 28.5t17 31t32 25t52 10.5t52 -23q6 6 6 50q0 45 -21 69t-64 24h-112v87z" />
    <glyph glyph-name="sh_bo_bn" horiz-adv-x="729" 
d="M548 28v63l-140 -25q52 -5 85 -15t51 -20zM-10 622h126q60 -3 96.5 -23t64.5 -59q26 39 68 60t106 22q58 -4 97 -33v33h191v-87h-50v-645h-141v10q-25 16 -53 29.5t-56 23.5t-54.5 16.5t-47.5 9.5l-45 6v146l256 64v222q-14 36 -38 60.5t-66 24.5q-26 0 -42 -8.5
t-24.5 -21.5t-11.5 -27.5t-3 -26.5q0 -11 1 -18t1 -8q18 22 49 22q46 0 78.5 -27.5t32.5 -84.5q0 -21 -7.5 -42.5t-24 -38.5t-42 -27.5t-62.5 -10.5q-38 0 -66.5 15t-49.5 50q-22 -35 -50 -50t-67 -15q-38 0 -63.5 11t-42 28t-23.5 39t-7 44q0 28 9.5 48.5t24.5 34t34 20
t39 6.5q15 0 29 -5t24 -17l3 14q1 7 2 15.5t1 18.5q0 15 -3.5 31.5t-12.5 30t-25.5 23t-43.5 10.5h-111v87z" />
    <glyph glyph-name="sh_mo_bn" horiz-adv-x="1004" 
d="M690 535v-340q21 -5 43.5 -12.5t46.5 -18.5l1 -1q2 0 3 -1l36 -22v395h-130zM117 622q57 -3 98 -23.5t62 -57.5q26 38 68.5 59t105.5 22q59 -5 98 -33v33h465v-87h-50v-714h-144v73l-2 12q-10 39 -25 64t-29 36l-13 10q-34 23 -62.5 33t-51.5 10q-39 0 -68 -23
q85 -39 85 -131q0 -29 -12 -53t-31.5 -41t-44.5 -26.5t-50 -9.5q-26 0 -48 9.5t-40 23.5l-4 3q-59 53 -59 137q0 37 12 75t35 71.5t57.5 59.5t79.5 40v223q-8 18 -17 33.5t-21 27t-28 18t-38 6.5q-26 0 -42 -9t-25 -22t-12 -28t-3 -27q0 -24 3 -24q10 12 23.5 17t29.5 5
q42 0 74 -27.5t32 -84.5q0 -21 -7 -42t-23 -38.5t-42 -28t-63 -10.5q-40 0 -67.5 15t-48.5 50q-22 -35 -50.5 -50t-66.5 -15q-37 0 -63 10.5t-42.5 27.5t-24 38.5t-7.5 42.5q0 57 32 84.5t80 27.5q30 0 49 -22q0 1 2.5 14.5t2.5 33.5q0 15 -3 31.5t-12.5 30t-26 23
t-43.5 10.5h-111v87h127z" />
    <glyph glyph-name="sh_ro_bn" horiz-adv-x="723" 
d="M683 -96h-140v32q-19 11 -42 16t-53 5q-64 0 -141 -35q-21 -10 -40.5 -14t-36.5 -4q-39 0 -69 20.5t-51 54.5t-31.5 79t-10.5 94l113 -20v-10q0 -11 2.5 -25.5t9.5 -28t20.5 -23t35.5 -9.5q26 0 62 16q42 18 79 26t69 8q48 0 84 -17v349q-16 39 -38.5 61.5t-64.5 22.5
q-26 0 -42 -8.5t-24.5 -21t-11.5 -27t-3 -26.5q0 -25 3 -25q10 12 23.5 17t28.5 5q43 0 74.5 -28.5t31.5 -83.5q0 -21 -7.5 -42t-23.5 -37.5t-42 -27t-62 -10.5q-38 0 -66.5 14.5t-48.5 49.5q-21 -35 -49 -49.5t-66 -14.5q-36 0 -62 10t-42.5 26.5t-24 37.5t-7.5 43
q0 57 32 84.5t78 27.5q30 0 49 -22l3 14q1 6 2 14.5t1 18.5q0 15 -3.5 31.5t-12.5 30t-25.5 22.5t-42.5 10h-110v87h110q127 0 174 -81l13 17q24 32 64 46.5t95 16.5q59 -3 97 -32v33h190v-87h-50v-631z" />
    <glyph glyph-name="sh_lo_bn" horiz-adv-x="729" 
d="M116 622q60 -3 96.5 -23t64.5 -59q26 39 68 60t106 22q58 -4 97 -33v33h191v-87h-50v-645h-141v104l-5 13q-2 6 -11.5 17.5t-34.5 11.5q-13 0 -25 -9l9 -15l-66 -46q-10 13 -18 29.5t-19.5 30.5t-28 23.5t-42.5 9.5q-15 0 -25 -5t-15 -13t-7 -17t-2 -17v-6q9 11 23 17
t28 6q17 0 29.5 -7t21 -18t12.5 -23.5t4 -24.5q0 -29 -20.5 -51.5t-62.5 -22.5q-26 0 -48.5 10t-39.5 28.5t-27 45.5t-10 62q0 63 39 103t123 42q55 -7 91 -48q13 17 31 27.5t40 10.5q27 0 56 -20v279q-14 36 -38 60.5t-66 24.5q-26 0 -42 -8.5t-24.5 -21.5t-11.5 -27.5
t-3 -26.5q0 -11 1 -18t1 -8q18 22 49 22q46 0 78.5 -27.5t32.5 -84.5q0 -21 -7.5 -42.5t-24 -38.5t-42 -27.5t-62.5 -10.5q-38 0 -66.5 15t-49.5 50q-22 -35 -50 -50t-67 -15q-38 0 -63.5 11t-42 28t-23.5 39t-7 44q0 28 9 48.5t24.5 34t35.5 20t42 6.5q30 0 49 -22l3 14
q1 7 2 15.5t1 18.5q0 15 -3.5 31.5t-12.5 30t-25.5 23t-43.5 10.5h-111v87h126z" />
    <glyph glyph-name="ss_ko_bn" horiz-adv-x="705" 
d="M59 535h-69v87h725v-87h-101q2 -17 3.5 -34t1.5 -33q0 -35 -8.5 -69.5t-25.5 -64.5t-42.5 -55t-59.5 -41v-8h14q37 0 71 -12.5t60 -35t41.5 -53.5t15.5 -67q0 -22 -9 -42.5t-24 -36t-35.5 -25t-43.5 -9.5q-30 0 -53.5 19t-23.5 56q0 22 12 41.5t35 19.5q18 0 28 -10l-3 7
q-8 17 -27 28.5t-43 11.5q-12 0 -15 -1v-252h-141v14q-28 18 -60 32.5t-64.5 25.5t-63 18t-54.5 11l-54 8v155l200 56h-1q-141 0 -204 107q-3 7 -3 12q0 17 18 20q60 6 96 24t46 43l3 18q-1 1 -1 3q-4 21 -17.5 39t-32 33t-41.5 26.5t-47 19.5zM342 18v82l-168 -37
q61 -6 100.5 -18t67.5 -27zM416 353q-35 15 -69 21q-18 -38 -76 -63l30 3q66 6 115 39zM476 535h-194l32 -35q37 -3 79.5 -17t87.5 -40q3 16 3 34q0 12 -2 26.5t-6 31.5z" />
    <glyph glyph-name="ss_k_ro_bn" horiz-adv-x="798" 
d="M536 204q37 18 73 18q7 0 23 -1.5t36.5 -9t43 -23t42.5 -44.5q24 -36 24 -72q0 -24 -8.5 -43.5t-21.5 -32.5t-29.5 -20t-31.5 -7q-13 0 -27 5t-25 14.5t-19 24.5t-9 36q1 15 9 26t18.5 17.5t20.5 10t16 3.5h3l-13 7q-11 5 -23.5 7.5t-26.5 2.5q-29 0 -51 -13v-256h-97v10
q-14 31 -65.5 48t-122.5 17q-11 0 -23 -0.5t-24 -1.5l-19 -1q-33 0 -58.5 12t-42 31t-25 42.5t-8.5 46.5v62h106v-45q0 -21 3.5 -33.5t10 -19t16.5 -8t22 -1.5q19 0 52 4t58 4q73 0 120 -33v120q-6 48 -25 71t-56 23q-32 0 -47.5 -10t-20.5 -26l-3 -14q20 23 54 23
q10 0 21 -4t20.5 -11.5t15.5 -19t6 -26.5q0 -14 -3.5 -28.5t-12.5 -26.5t-24.5 -20t-39.5 -8q-26 0 -49 8.5t-41 25t-28.5 42t-10.5 58.5q0 6 0.5 12t1.5 12q-136 2 -198 107q-3 6 -3 10q0 19 18 22q60 6 96.5 23.5t45.5 43.5l3 21q-5 22 -19 40.5t-33 33.5t-42 26t-45 19
h-54v87h818v-87h-212q2 -17 3.5 -34t1.5 -33q0 -30 -6.5 -61t-20 -59t-33 -52t-44.5 -40q24 -21 39 -52zM463 443l2 10q1 5 1.5 11t0.5 13q0 12 -2 26.5t-6 31.5h-195l18 -17l14 -18q37 -3 79.5 -17t87.5 -40zM399 353q-36 17 -70 21q-18 -38 -76 -63l30 3q22 2 55.5 10.5
t60.5 28.5z" />
    <glyph glyph-name="ss_tto_bn" horiz-adv-x="905" 
d="M605 109q27 13 46 34q-37 37 -37 93q0 28 11 53t29.5 43t43 28.5t51.5 10.5q28 0 53 -11t43.5 -29.5t29 -44t10.5 -53.5q0 -54 -21.5 -104.5t-65.5 -93t-110.5 -74.5t-155.5 -49q-16 -3 -30.5 -4t-28.5 -1q-28 0 -51.5 6.5t-42 16t-31.5 19.5t-19 18l-6 5l-15 22
q-14 21 -27.5 57t-13.5 78q0 33 13 62q-13 -1 -25.5 -1.5t-26.5 -0.5q-140 0 -203 107q-3 7 -3 12q0 17 17 20q69 7 107 29.5t38 57.5q-8 38 -44 68.5t-94 50.5l-56 1v87h700q5 18 5 30q0 68 -74 68q-31 0 -85 -20q-91 -35 -161 -35q-83 0 -117 10l-24 137q73 -21 130 -21
q34 0 72 6.5t75 14.5t70.5 14.5t57.5 6.5q55 0 92 -15t59.5 -40t31.5 -56t9 -62q0 -11 -0.5 -20.5t-1.5 -17.5h86v-87h-316q4 -22 6 -40.5t2 -35.5q0 -63 -28 -114t-85 -99l-30 -31q-39 -50 -39 -84q0 -29 18 -45t41 -16q40 0 121 39zM422 466q12 -6 22.5 -12t19.5 -11
q2 11 3 20t1 14q0 12 -2 26.5t-6 31.5h-195q5 -4 9 -8l9 -9l14 -17q61 -6 125 -35zM352 329q25 7 48 24q-35 15 -69 21q-8 -16 -26.5 -33t-49.5 -30l29 3q14 2 31 4.5t37 10.5z" />
    <glyph glyph-name="ss_tt_ro_bn" horiz-adv-x="904" 
d="M599 535q4 -21 6 -40.5t2 -36.5q0 -49 -15 -80l-11 -22q-7 -16 -16 -29l-8 -10q-25 -38 -64 -71l-30 -31q-39 -51 -39 -85q0 -29 18 -44.5t41 -15.5q9 0 29.5 4t45 12.5t49.5 22.5t43 34q-37 37 -37 93q0 28 11 53t29.5 43t43 28.5t51.5 10.5q28 0 53 -11t43.5 -29.5
t29 -44t10.5 -53.5q0 -23 -6.5 -51t-20.5 -58t-36 -59.5t-52 -53.5v-285h-141v25q-20 8 -46 13t-58 5q-21 0 -48 -7.5t-55.5 -16t-57.5 -16t-53 -7.5q-38 0 -68.5 17t-51.5 46t-32 67.5t-11 81.5v7l113 -18l3 -31q5 -24 20.5 -38.5t44.5 -14.5q25 0 64 14q38 14 72 22t63 8
q62 0 101 -16v70q-35 -11 -76.5 -20.5t-79.5 -9.5q-28 0 -51.5 6.5t-42 16t-31.5 19.5t-19 18l-6 5l-15 22q-14 21 -27.5 57t-13.5 78q0 33 13 62q-13 -1 -25.5 -1.5t-26.5 -0.5q-140 0 -203 107q-3 7 -3 12q0 17 17 20q69 7 107 29.5t38 57.5q-8 38 -44 68.5t-94 50.5
l-55 1v87h699q5 18 5 30q0 68 -74 68q-31 0 -85 -20q-91 -35 -161 -35q-83 0 -117 10l-24 137q73 -21 130 -21q34 0 72 6.5t75 14.5t70.5 14.5t57.5 6.5q95 0 143.5 -48t48.5 -125q0 -11 -0.5 -20.5t-1.5 -17.5h86v-87h-315zM421 466q12 -6 22.5 -12t19.5 -11q2 11 3 20
t1 14q0 12 -2 26.5t-6 31.5h-195q5 -4 9 -8l9 -9l14 -17q61 -6 125 -35zM351 329q25 7 48 24q-35 15 -69 21q-8 -16 -26.5 -33t-49.5 -30l29 3q14 2 31 4.5t37 10.5z" />
    <glyph glyph-name="ss_ttho_bn" horiz-adv-x="728" 
d="M457 146q42 0 73 23q35 25 39 72v9q0 24 -7 45.5t-17 38t-21.5 29t-19 18t-14.5 9.5q13 -40 13 -77q0 -43 -15.5 -70.5t-34 -44.5t-34 -25t-15.5 -11q0 -7 22 -12q17 -4 31 -4zM226 346q7 2 21 3q68 5 105 33q-11 5 -22 9.5t-39 9.5q-18 -31 -67 -55h2zM420 -4
q-60 1 -104 22q-80 38 -124 113q-19 32 -44 90l2 1q12 -4 52 -4q85 0 133 38q-74 -18 -131 -18q-124 0 -180 93q-3 4 -3 10q0 15 19 20q73 9 103 35q20 18 20 37q0 36 -51 74q-15 11 -54 28h-68v87h325q-16 42 -16 95q0 14 2.5 27t15.5 53l153 1q-30 -44 -30 -100
q0 -40 15 -76h283v-87h-207q64 -43 113 -108q65 -88 65 -174q0 -109 -70 -179q-78 -76 -219 -78zM367 483q-4 13 -9 25.5t-10 26.5h-106q14 -16 19 -23q54 -7 106 -29z" />
    <glyph glyph-name="ss_nno_bn" horiz-adv-x="804" 
d="M444 535h-174q19 -17 32 -35.5t22 -32.5l2 -5h3q38 -8 63 -21t52 -28v122zM330 326l-9 -11q-11 -13 -25.5 -23t-31.5 -20l36 -8q13 -3 31.5 -9t38 -15.5t39 -21.5t35.5 -27v89l-13 9q-25 17 -51 25.5t-50 11.5zM576 165v-165h-132v10q-29 42 -71.5 70t-87 44.5t-86.5 24
t-70 9.5h-8q-13 1 -21 1.5t-11 0.5l-69 139q58 5 92.5 16.5t52.5 25.5t23.5 27.5t5.5 21.5v9q-5 26 -21 47.5t-36.5 38t-42 27.5t-37.5 17l-17 6h-50v87h586v-8q29 8 54 8q31 0 59.5 -11.5t49.5 -31t33.5 -46t12.5 -55.5q0 -56 -33 -89q33 -35 33 -89q0 -30 -12.5 -56
t-33.5 -45.5t-49.5 -31t-59.5 -11.5q-32 0 -54 9zM576 283q25 -19 54 -19q16 0 27.5 10.5t11.5 25.5q0 14 -10.5 24t-37.5 10v111l19 -2q11 2 20 11t9 24q0 14 -11.5 24.5t-27.5 10.5q-7 0 -15.5 -2.5t-16.5 -6.5t-14 -9.5t-8 -11.5v-200z" />
    <glyph glyph-name="ss_pho_bn" horiz-adv-x="1020" 
d="M742 -6h-133v10q-30 43 -64 71q-62 49 -129 65q-31 6 -75 8l-75 84q-30 -4 -61 -4q-63 0 -107.5 21t-73.5 72q-3 4 -3 10q0 15 18 20q41 5 66 15q43 16 53 41q4 9 4 20q-14 71 -135 108h-37v87h1040v-87h-533q18 -16 32 -34q29 -37 29 -43q13 -22 13 -52q0 -42 -32 -74
l-64 -64l20 -6q59 -18 114 -71v204q21 115 145 115q93 0 164 -63q78 -69 82 -178q-4 -85 -42 -136t-92 -51q-41 0 -72 29.5t-31 74.5q0 43 29.5 73t78.5 30q0 54 -50 78q-2 1 -14 5.5t-32 4.5q-31 0 -33 -26v-357zM397 457q-26 33 -75 56q-35 16 -62 22h-31q17 -14 32 -33
q78 -10 136 -45zM226 335q2 1 16 2q49 4 96 28l12 7q-19 10 -60 19q-17 -33 -66 -56h2z" />
    <glyph glyph-name="ss_bo_bn" horiz-adv-x="622" 
d="M45 534q-1 1 -4 1h-51v87h642v-87h-34q2 -17 3.5 -33.5t1.5 -32.5q0 -85 -37 -140l1 -460h-140v14q-28 18 -60 32.5t-64.5 25.5t-63 18t-54.5 11l-54 8v155l296 83v5q-23 -10 -48 -16t-51.5 -9.5t-52 -5t-48.5 -1.5q-70 0 -120 25t-82 80l-2 3q-3 6 -3 11q0 17 18 20
q48 5 77 16t44 23.5t19.5 23.5t4.5 17v8q-5 24 -21 43.5t-36.5 34.5t-42.5 25t-38 15zM463 443l2 10q1 6 1.5 12t0.5 12q0 12 -2 26.5t-6 31.5h-195q11 -8 18 -17.5t15 -17.5l25 -3q28 -5 52.5 -13t46.5 -18zM388 36q22 -9 39 -18v82l-168 -37q82 -8 129 -27zM351 329
q25 7 48 24q-35 15 -69 21q-8 -16 -26.5 -33t-49.5 -30h2q3 1 9.5 1t17.5 1v1q29 2 68 15z" />
    </font>
</defs>
</svg>
