<?xml version="1.0" standalone="no"?>
<!DOCTYPE svg PUBLIC "-//W3C//DTD SVG 1.1//EN" "http://www.w3.org/Graphics/SVG/1.1/DTD/svg11.dtd" >
<svg xmlns="http://www.w3.org/2000/svg" xmlns:xlink="http://www.w3.org/1999/xlink" version="1.1">
<metadata>
Created by FontForge 20170731 at Mon Jul 26 08:57:35 2021
 By Aleksey,,,
Copyright 2020 Lipighor. All Rights Reserved.
</metadata>
<defs>
<font id="LiSirajeeSheikhPlainUnicode" horiz-adv-x="0" >
  <font-face 
    font-family="Li Sirajee Sheikh Plain Unicode"
    font-weight="400"
    font-stretch="normal"
    units-per-em="1000"
    panose-1="2 0 6 0 0 0 0 0 0 0"
    ascent="800"
    descent="-200"
    x-height="475"
    cap-height="621"
    bbox="-627 -376 1848 907"
    underline-thickness="40"
    underline-position="-160"
    unicode-range="U+0020-FDFA"
  />
<missing-glyph horiz-adv-x="587" 
d="M389 421h-60l-152 -53v-309h212v136h-76v-66h-56v194l56 19v-86h76v66l59 20v-196l15 -87h65v362h-63l-76 -25v25zM453 491v-43h75v117h-261l-208 -61v-445h84v389l92 29zM587 0h-587v624h587v-624z" />
    <glyph glyph-name="anji_beng" unicode="&#x9ed;&#x983;&#x983;" horiz-adv-x="637" 
d="M365 226q-25 4 -44 4.5t-41 0.5q-17 1 -33.5 -1t-31.5 -3l-45 -3l-135 123q-9 16 -9 35q0 25 15.5 51.5t41.5 51.5t59.5 47.5t70.5 40t74.5 29t70.5 14.5q10 -1 34 -7t52.5 -14.5t58 -17.5t51.5 -17l36 -13v-539h-168v516q-168 -59 -230 -203q4 2 14 2q37 0 84.5 -2.5
t99.5 -16.5z" />
    <glyph glyph-name="glyph112" unicode="&#x3c;&#x3c;" horiz-adv-x="429" 
d="M341 486q23 23 86 23h79v31q-53 0 -78 -0.5t-40 -2.5t-28 -5.5t-42 -9.5l-5 -1q-18 6 -38 12t-40.5 17t-39.5 29.5t-34 48.5q-5 9 -15.5 24t-28 29.5t-41.5 25t-55 10.5q-5 0 -10 -0.5t-10 -1.5q14 -26 14 -56v-19l125 -94q42 -31 94.5 -45.5t106.5 -14.5zM327 557
q-25 1 -50 10.5t-45.5 26t-33 39.5t-12.5 50q0 24 8.5 44t23 34.5t33 22t39.5 7.5q16 0 32 -5.5t28 -15t19.5 -23t7.5 -29.5q0 -21 -16 -40.5t-39 -19.5q-16 0 -33.5 12.5t-17.5 33.5q0 19 14 27l-2 1q-37 -10 -37 -49q0 -26 17.5 -44.5t47.5 -23.5l54 6q5 1 23.5 1h50.5
v-51h-24q-18 0 -88 -14z" />
    <glyph glyph-name="glyph113" unicode="&#x3e;&#x3e;" horiz-adv-x="429" 
d="M88 486q52 0 105.5 14.5t95.5 45.5l125 94v19q0 30 14 56q-5 1 -10 1.5t-10 0.5q-31 0 -55.5 -10.5t-41.5 -25t-28 -29.5t-15 -24q-15 -30 -34 -48.5t-39.5 -29.5t-41 -17t-37.5 -12l-5 1q-28 6 -40 9.5t-26 5.5t-40 2.5t-82 0.5v-31h79q63 0 86 -23zM102 557l-37.5 9
t-22 4t-20.5 1h-32v51h50.5t23.5 -1l54 -6q30 5 47.5 23.5t17.5 44.5q0 39 -37 49l-2 -1q14 -8 14 -27q0 -21 -17.5 -33.5t-33.5 -12.5q-23 0 -39 19.5t-16 40.5q0 16 7.5 29.5t19.5 23t27.5 15t32.5 5.5q20 0 39 -7.5t33.5 -22t23 -34.5t8.5 -44q0 -27 -13 -50t-33 -39.5
t-45 -26t-50 -10.5z" />
    <glyph glyph-name="signavagraha_beng" unicode="&#x9b9;&#x983;&#x983;" horiz-adv-x="594" 
d="M329 123l248 -110l-117 -103l-460 218l80 165q82 -45 168 -45q34 0 63 8t49.5 22t32 33t11.5 41q0 30 -26 58t-65 38q-9 0 -11 2h-2l-8 -9q14 -20 14 -39t-10 -36t-26 -29.5t-36.5 -20t-40.5 -7.5q-49 0 -81.5 25.5t-38.5 73.5q1 11 8.5 20.5t16.5 23t18 35t14 56.5h88
q-9 10 -30 28h-198v51h239q38 -22 67 -42t49 -40q46 -11 83 -31.5t63 -48t40.5 -60t14.5 -66.5q0 -37 -15.5 -71.5t-43.5 -62.5t-66 -48t-83 -27z" />
    <glyph glyph-name="isshar_beng" unicode="&#x988;&#x983;&#x983;" horiz-adv-x="723" 
d="M211 277q-104 0 -181 89l163 200l11 -16q8 -12 22 -27.5t33.5 -29.5t44.5 -23.5t55 -9.5q45 0 81 15.5t64.5 38t49.5 49.5t34.5 49.5t21 38t8.5 15.5l79 -27l-8 -16q-6 -12 -18 -31t-30 -43t-42.5 -52t-55.5 -57q-190 -163 -332 -163zM386 519q-35 0 -52 21.5t-17 53.5
q0 29 11 32q10 2 18 7t16 10.5t16.5 9.5t17.5 4q12 0 24.5 -6t22.5 -15.5t16.5 -21.5t6.5 -25q0 -12 -6.5 -24.5t-17.5 -22.5t-25.5 -16.5t-30.5 -6.5z" />
    <glyph glyph-name="sallallahoualayhewasallam_arab.isol" unicode="&#x9b8;&#x9be;&#x983;&#x983;" horiz-adv-x="1071" arabic-form="isolated" 
d="M304 102l-34 8q24 -30 26 -69q-8 -5 -16.5 -9t-16.5 -8q26 -22 41 -42v120zM226 585q-19 -10 -41 -26l8 -4q9 -9 12.5 -20t4.5 -23h4q9 0 12 -1v74zM903 143l-30 -12q7 -5 9.5 -11t5 -11.5t5.5 -9.5t10 -5v4v45zM502 -3v101l-44 -18q14 -14 20.5 -36t7.5 -41q5 -2 16 -11
v5zM887 442l42 -41q-5 -3 -10.5 -7.5t-11.5 -9.5l-96 92l16 40q10 -11 26.5 -22.5t30.5 -11.5q16 0 16 16q0 3 -2 12t-6 9q-7 0 -10 -19q-5 3 -11.5 4t-10.5 6q0 5 1 9.5t1 9.5q0 14 -7 17.5t-9 5.5h-1q3 -4 5.5 -10.5t2.5 -11.5q0 -13 -12 -13q-10 0 -18 11.5t-8 22.5
q0 10 6.5 17.5t8.5 18.5q14 -6 26.5 -15t17.5 -24q5 5 11 5q8 0 15 -8t12.5 -19.5t8.5 -24t3 -20.5q0 -14 -8 -24.5t-28 -10.5h-5zM141 604q-94 -133 -94 -302q0 -170 94 -303q-55 63 -85 139t-30 164t30 163.5t85 138.5zM542 -179q124 0 227 46.5t175 131.5
q-69 -100 -172.5 -157t-229.5 -57q-124 0 -228 57t-173 157q72 -85 176 -131.5t225 -46.5zM542 782q-121 0 -225 -46.5t-176 -131.5q69 100 173 157t228 57q126 0 229.5 -57t172.5 -157q-72 85 -175 131.5t-227 46.5zM944 604q54 -63 84.5 -138.5t30.5 -163.5t-30.5 -164
t-84.5 -139q94 133 94 303q0 169 -94 302zM612 191q0 1 0.5 1.5t0.5 1.5v1q5 14 9 27.5t8 27.5q16 -14 35 -14t28.5 10.5t9.5 24.5q0 16 -7 20.5t-15 13.5h-1q0 -1 -2 -3q3 -8 3 -15q0 -11 -7 -21t-19 -10q-13 0 -19.5 11.5t-6.5 23.5q2 12 6 23t6 24q15 -1 31 -2t30 -7.5
t23 -20.5t9 -41q0 -54 -45 -73l-3 -1l5 -3q13 -8 25.5 -15t25.5 -14l-26 -37q-26 16 -52 32.5t-52 34.5zM525 663q-1 8 -5 16t-11 11h-14v9q0 9 4.5 9.5t11.5 0.5q9 0 14 -5v13q10 3 19 5.5t19 4.5v-18q21 0 52 -4t61.5 -11t55 -16t33.5 -19l2 -1v11q8 -2 17 -3.5t17 -3.5
v-16q6 -4 13 -6v-16q-4 2 -6.5 3.5t-6.5 2.5v-6q74 -37 139 -93v-12q-65 56 -139 90v-160l-34 -4v177q-3 11 -8.5 22t-21.5 13v-229l-36 34v8q-4 7 -9 7t-7.5 -7.5t-2.5 -13.5q-12 6 -16 8.5t-8 20.5q0 8 -6.5 18.5t-14.5 10.5q-5 0 -8.5 -6t-3.5 -11v-2q3 9 10 9
q5 0 10 -5.5t5 -14.5q0 -11 -5 -20.5t-13 -9.5q-6 2 -10.5 10t-13.5 10v35q2 12 10.5 22.5t22.5 10.5q13 0 22.5 -11.5t14.5 -25.5q6 10 14 10q5 0 9 -2l1 43q-6 7 -11 7q-8 0 -13 -14t-5 -22l-28 29q0 1 -0.5 11t-3 22t-8.5 21.5t-17 9.5q-5 0 -11 -5.5t-6 -15.5
q0 -1 0.5 -1.5t0.5 -1.5v-3q5 14 12 14q8 0 15 -9.5t7 -20.5q0 -13 -6 -27t-16 -14q-5 0 -8.5 3.5t-7 8t-8 9.5t-11.5 7v22q0 10 1.5 23.5t6 24.5t13.5 19t24 8q8 0 16 -5.5t14.5 -13.5t11 -17.5t6.5 -17.5q6 12 19 12q6 0 13 -4v53q-63 19 -138 22l-1 -280l-38 -12v265z
M287 614q-2 11 -6 14t-6 3l-15 -7v5q0 3 0.5 5.5t0.5 5.5l14 7l8 2h3l1 11l35 25v-16q9 2 13 5v-17q-4 -3 -13 -5v-7q47 17 94 26.5t95 11.5v-18q-4 0 -7.5 -0.5t-7.5 -0.5v-250l-38 31v8q-5 6 -8 6q-5 0 -8 -9.5t-4 -14.5q-6 3 -9.5 3.5t-6 2t-4.5 5.5t-4 14q0 8 -5.5 16
t-12.5 8q-4 0 -9.5 -4t-5.5 -11q0 -2 0.5 -2.5t0.5 -1.5v-2q3 11 11 11q4 0 8.5 -4t4.5 -12q0 -11 -4.5 -22t-12.5 -11q-5 2 -10 8.5t-14 6.5v33q2 17 13 28t25 11q19 0 31 -28q0 5 7 10t12 5q1 0 2 -0.5t3 -0.5v46q-4 4 -9 4t-8 -5.5t-5.5 -12.5t-4 -14t-2.5 -10l-28 21
q0 6 -0.5 15.5t-3 18.5t-7.5 15t-14 6q-7 0 -13 -8.5t-6 -19.5v-3q6 17 17 17q5 0 10.5 -5.5t5.5 -18.5q0 -14 -6.5 -29.5t-16.5 -15.5q-4 0 -6.5 3t-5.5 6.5t-8 6.5t-12 3q1 14 2 32t6 34t15 27t30 11q26 0 38 -37q5 8 11 14.5t16 6.5h5v55q-35 -5 -68.5 -13t-67.5 -19
v-246q-8 -4 -17 -7t-18 -7v245zM803 204l-1 1q0 1 1 1l16 50q14 -11 29 -11q16 0 25.5 8.5t9.5 20.5q0 8 -4.5 16t-12.5 11h-3q0 -1 -1 -1v-1q2 -4 2 -11q0 -8 -6 -17t-15 -9q-11 0 -18.5 8.5t-7.5 19.5q0 10 6 19.5t6 19.5l37 -3q19 -5 31.5 -20.5t12.5 -34.5
q0 -18 -10.5 -34t-30.5 -24l4 -2q11 -5 21.5 -8.5t21.5 -7.5l-22 -32q-24 8 -46.5 18t-44.5 23zM175 520q-5 18 -17 20l-27 -22v11q4 3 7 5.5t6 6.5q-1 -1 -5 -1l10 17q5 2 10 2.5t10 1.5q25 19 51.5 34.5t54.5 29.5v-15l-16 -8v-177q-8 6 -16.5 11.5t-16.5 10.5v23
q-10 12 -18 14q-6 -34 -28 -62q-10 4 -19.5 6.5t-20.5 4.5q15 14 26 32.5t11 38.5q0 3 -0.5 7t-1.5 9zM921 340v-12q-66 7 -132 12v-184l-35 28v134q0 6 -5 14.5t-10 10.5l-2 1q-34 2 -67 2.5t-67 1.5h-5v-212q-8 -4 -17.5 -7t-20.5 -6v198q-1 8 -4.5 16t-10.5 12h-14v-213
l-37 37v57q-6 7 -10 7q-5 0 -8.5 -5.5t-6 -12.5t-3.5 -14t-1 -10l-10 9q-5 5 -8.5 7.5t-6 6.5t-3.5 10t-2 17q-2 11 -9.5 24.5t-17.5 13.5q-5 0 -11 -6.5t-6 -14.5q0 -2 0.5 -2.5t0.5 -1.5v-3q5 14 13 14q6 0 13 -7.5t7 -19.5q0 -14 -6 -28t-16 -14q-5 0 -8.5 3.5t-6.5 8
t-7.5 9t-11.5 5.5v12t1 12v23q2 20 15.5 35.5t30.5 15.5q15 0 27.5 -15t18.5 -32q5 7 10 12t13 5q7 0 9 -1v55q-69 0 -138 -3v-200l-36 -6v179q-3 16 -7.5 20t-6.5 4q-4 0 -7.5 -0.5t-7.5 -0.5v-180l-24 33q0 11 -7 26t-18 23l-8 -15q-12 -17 -31 -17q-23 0 -40.5 13.5
t-28.5 33.5q5 14 9.5 28.5t9.5 28.5q0 -9 2.5 -20.5t7.5 -22t13 -17.5t20 -7q11 0 19 8.5t8 20.5q0 22 -18 28q7 -7 7 -21q0 -8 -5 -16.5t-13 -8.5t-15 9t-7 18q0 8 4 16.5t4 16.5v6l38 3q29 -21 29 -58l4 -2t4 -3l3 -2v76q-30 -2 -60 -5.5t-59 -7.5v12q42 8 86 14t86 6
q2 0 8 -2l1 -1v11q9 4 18 7l18 6l1 -17q9 0 12 1v-1q42 2 81 3.5t81 1.5h16q8 0 12 -4l1 -1v13l38 10v-19l82 -2q5 8 5 18q0 16 -11 22.5t-26 6.5q-13 0 -30 -5l-8 16q28 12 60 12q26 -2 44 -18t18 -42v-7l-39 -4l42 -2q1 -1 3 -1h3q3 0 7 -2.5t6 -2.5v5q-6 13 -6 28
q0 20 12 35t35 15q22 0 40.5 -8t35.5 -22l-13 -11q-18 15 -35 15q-15 0 -24.5 -8t-9.5 -25q0 -8 1.5 -16t9.5 -8h1q60 -6 120 -15zM832 147q8 -2 14.5 -4t11.5 -4q22 7 43 14.5t41 16.5v-10q-3 -2 -5.5 -3t-5.5 -3v-123q-2 0 -4.5 -0.5t-4.5 -0.5q-5 0 -9 0.5t-10 1.5v9
q-4 21 -22 21q-8 0 -17 -6t-9 -13q0 -2 1 -2v-2q2 6 8 10.5t12 4.5q4 0 8 -3t4 -11q0 -15 -10 -30t-21 -17q-8 0 -13 8t-17 8l8 43q2 5 7 10.5t9.5 11t8 10.5t3.5 9q0 18 -15 30q-5 -2 -11 -3.5t-12 -3.5l-11 -3v-163l-31 15v118q-3 11 -6 14l-5 5l-15 -3v-206l-33 15v7
q-4 2 -6 2q-6 0 -8.5 -8t-2.5 -14l-21 3q0 8 -3 21t-15 13q-4 0 -8.5 -5t-4.5 -13v-2q3 11 12 11q11 0 11 -18q0 -8 -4 -16.5t-12 -11.5q-5 0 -8 6.5t-14 6.5v31q3 16 13 27.5t23 11.5q19 0 27 -23q7 16 21 16v40q-8 2 -7 2q-5 0 -8 -5t-5 -11.5t-3.5 -13.5t-2.5 -10
q-6 4 -10.5 6.5t-7.5 6t-5 9.5t-3 17q-2 10 -8.5 19.5t-14.5 9.5q-6 0 -11.5 -6.5t-5.5 -17.5v-3q4 15 15 15q5 0 10.5 -6t5.5 -17q0 -14 -6.5 -28t-15.5 -14q-7 0 -13 9t-17 11l1 45q2 21 16 35t31 14q12 0 22 -8.5t15 -25.5q8 20 28 20v47q-31 -5 -63.5 -9.5t-62.5 -4.5
v-194l-35 33v135q0 16 -14 25h-12v-195q-18 17 -35 35v27q-5 15 -18 25q-5 -35 -30 -59l-46 44q23 8 32.5 25.5t9.5 38.5q0 17 -5.5 33.5t-15.5 30.5l-22 2q-3 0 -5.5 0.5t-6.5 0.5v-187l-33 42v126q-3 3 -4.5 8t-3 9.5t-5.5 7.5t-13 3v-179l-3 5q-11 11 -20.5 24.5t-17 25
t-12.5 19.5t-8 8q-9 1 -9 4l-3 2q0 -1 -1 -1v-1q-2 0 -3 -4l-17 13q-4 13 -8 25l-8 24q10 5 19.5 8.5t19.5 9.5q-6 20 -18 38l-32 10v13q5 -2 9 -3l8 -2l-9 8l8 9l24 -23q24 -6 48 -11t48 -9q3 -1 5 -2l4 -2l2 -2v11l33 6v-17h3q6 0 7 -1h2q5 0 6 -1l-6 7l11 10
q6 -5 12 -9.5t11 -9.5q21 -2 42 -3t42 -1q7 0 14 0.5t14 0.5v-1q2 0 6 -1t4 -3v12q9 2 18 5t17 6v-17h7q40 2 79.5 7t78.5 12l11 2q7 0 8 -1l1 -1v11l31 15v-14q2 1 7 1l4 2q5 0 7 1l-7 3q2 3 3.5 6zM276 -6q5 -2 8.5 -9.5t3.5 -15.5q0 -5 -1.5 -9.5t-6.5 -4.5
q-8 0 -14.5 8.5t-6.5 19.5q0 8 5 15l2 -1q2 -1 4.5 -2t5.5 -1zM198 76q30 -27 30 -54q0 -12 -5.5 -20.5t-16.5 -8.5q-12 0 -23.5 8.5t-21 21t-17.5 26.5t-13 25q4 7 7 14l6 14v-3l7.5 -20t11 -23t14.5 -19t19 -8q10 0 10 9q0 12 -12 12q-3 0 -5 -0.5t-4 -0.5l-2 -1
q-1 1 -1 2l-19 23q0 14 10 22.5t10 18.5q0 5 -4 12.5t-10 9.5h-2q6 -8 6 -16q0 -12 -10 -12q-10 1 -17 12t-7 21q0 2 5.5 4.5t7.5 16.5l24 -10q12 -8 20.5 -18.5t8.5 -27.5q0 -15 -7 -30z" />
    <glyph glyph-name="zophola_bn" unicode="&#x9cd;&#x9af;" horiz-adv-x="313" 
d="M136 -45l-170 122q27 4 52 18.5t44 37t30 51.5t11 62q0 53 -34 108q-43 67 -43 123q0 54 34 94h-70v51h334v-51h-70q-33 -20 -56 -48.5t-23 -63.5q0 -25 13 -47l31 -55q68 -107 68 -186q0 -125 -151 -216z" />
    <glyph glyph-name="glyph363" unicode="&#x2a;&#x2a;&#x9bf;" horiz-adv-x="296" 
d="M67 435q-5 29 -13.5 54t-19 43t-22 28.5t-22.5 10.5v51h10q20 0 67 -26v16q-5 25 -5 55q0 109 64.5 166t185.5 57q28 0 60 -3l16 -10q112 -72 213.5 -105.5t179.5 -33.5q92 0 108 79l126 -62q-22 -76 -156 -76q-64 0 -155 18t-213 56q-57 18 -110 18q-33 0 -61 -11
t-48 -31t-31 -47t-11 -60h76v-51h-77v-596l-162 106v354z" />
    <glyph glyph-name="glyph364" unicode="&#x2a;&#x2a;&#x2a;&#x9bf;" horiz-adv-x="296" 
d="M66 608l-7 19q-13 33 -13 71q0 97 74 151t215 54q39 0 71.5 -3t55.5 -11q60 -19 125.5 -38t131.5 -37t132 -34t128 -29q6 0 7 -1q173 -43 405 -43q104 0 162.5 8t89.5 19.5t44 22.5t26 17l8 1q9 0 29.5 -3t42.5 -7t38.5 -8.5t16.5 -8.5q-104 -86 -390 -86q-298 0 -705 85
l-33 6q-1 0 -1 1l-66 13q-55 11 -99 16.5t-79 5.5q-112 0 -171.5 -43t-71.5 -124h73v-51h-76v-596l-162 106v414q-14 38 -32.5 57t-34.5 19h-10v51q41 0 69 -11z" />
    <glyph glyph-name="less_less_less" unicode="&#x3c;&#x3c;&#x3c;" horiz-adv-x="418" 
d="M428 571h-361v51h361v-51zM428 520h-361v30h361v-30z" />
    <glyph glyph-name="greater_greater_greater" unicode="&#x3e;&#x3e;&#x3e;" horiz-adv-x="418" 
d="M351 571h-361v51h361v-51zM351 520h-361v30h361v-30z" />
    <glyph glyph-name=".notdef" horiz-adv-x="587" 
d="M389 421h-60l-152 -53v-309h212v136h-76v-66h-56v194l56 19v-86h76v66l59 20v-196l15 -87h65v362h-63l-76 -25v25zM453 491v-43h75v117h-261l-208 -61v-445h84v389l92 29zM587 0h-587v624h587v-624z" />
    <glyph glyph-name=".null" 
 />
    <glyph glyph-name="nonmarkingreturn" 
 />
    <glyph glyph-name="NULL" 
 />
    <glyph glyph-name="NULL" 
 />
    <glyph glyph-name="space" unicode=" " horiz-adv-x="220" 
 />
    <glyph glyph-name="space" unicode="&#xa0;" horiz-adv-x="220" 
 />
    <glyph glyph-name="exclam" unicode="!" horiz-adv-x="309" 
d="M240 -83q-12 -9 -32 -16t-44 -7q-23 0 -40.5 9t-29.5 22.5t-18 29t-6 29.5q0 17 5.5 32.5t12 27t11.5 18.5l5 7q2 0 12.5 -2t26.5 -2q12 0 26 4t27 4q15 0 27.5 -8.5t22.5 -22.5t15.5 -31t5.5 -35q0 -17 -6.5 -32.5t-20.5 -26.5zM103 207v464l139 27v-578z" />
    <glyph glyph-name="quotedbl" unicode="&#x22;" horiz-adv-x="501" 
d="M103 521v140l137 26l-12 -110q-54 -33 -54 -92v-9zM271 521v140l137 26l-12 -110q-54 -33 -54 -92v-9z" />
    <glyph glyph-name="numbersign" unicode="#" horiz-adv-x="778" 
d="M149 219l77 180h-66v87h103l61 144h114l-61 -144h158l61 144h114l-61 -144h62v-87h-99l-77 -180h83v-87h-120l-60 -142h-114l60 142h-158l-60 -142h-114l60 142h-45v87h82zM340 399l-77 -180h158l77 180h-158z" />
    <glyph glyph-name="dollar" unicode="$" horiz-adv-x="497" 
d="M464 194q0 -67 -49 -108t-137 -49v-88h-58v86q-104 2 -182 36v113q18 -9 41 -17.5t48 -15t49 -11t44 -5.5v131l-28 11q-84 33 -119.5 72.5t-35.5 96.5q0 61 47.5 101t135.5 48v65h58v-63q98 -5 176 -39l-40 -100q-66 29 -136 33v-125q54 -21 90 -39.5t57.5 -38t30 -42
t8.5 -52.5zM336 188q0 18 -14.5 30t-43.5 25v-105q58 9 58 50zM165 446q0 -19 13 -31t42 -25v100q-55 -7 -55 -44z" />
    <glyph glyph-name="percent" unicode="%" horiz-adv-x="856" 
d="M310 -5h-145l344 634h145zM577 1q-48 0 -77.5 37.5t-29.5 97.5q0 13 7.5 25t17 26.5t18.5 32.5t12 43h102q34 -4 63.5 -16.5t51.5 -30.5t34.5 -40t12.5 -46q-1 -1 -2 -10.5t-7.5 -24t-19.5 -31t-36 -30.5t-59 -23.5t-88 -9.5zM618 82q23 0 39 22.5t16 52.5q-1 8 -7 17.5
t-14 17.5t-17 13.5t-15 5.5q-11 0 -15.5 -14.5t-10.5 -28.5q-6 -13 -12.5 -23.5t-10.5 -16.5l-5 -6l3 -6q5 -10 17 -22t32 -12zM174 361q-51 0 -78.5 38t-27.5 104q0 9 2.5 17t12.5 18q30 30 39 85h102q36 -4 66 -16t51.5 -29.5t33.5 -39.5t12 -47l-1 -9q-10 -61 -68.5 -91
t-143.5 -30zM215 444q24 0 39.5 21.5t15.5 53.5q-1 7 -6.5 16.5t-13.5 17t-17 13t-16 5.5q-12 0 -15.5 -14t-10.5 -28q-6 -13 -12.5 -23.5t-10.5 -16.5l-5 -7q7 -16 19.5 -27t32.5 -11z" />
    <glyph glyph-name="ampersand" unicode="&#x26;" horiz-adv-x="652" 
d="M653 0h-161l-49 48q-83 -56 -183 -56q-52 0 -93.5 12.5t-71 35t-45 55t-15.5 73.5q0 58 25.5 99t88.5 77q-32 36 -46.5 69.5t-14.5 72.5q0 66 48.5 105t133.5 39q79 0 126 -37t47 -98q0 -51 -29 -92.5t-95 -79.5l121 -118q15 25 28 57t24 71h135q-15 -57 -41.5 -111.5
t-60.5 -97.5zM171 180q0 -36 27.5 -58t70.5 -22q52 0 96 26l-141 140q-24 -18 -38.5 -38.5t-14.5 -47.5zM324 481q0 23 -15.5 36t-39.5 13q-61 0 -61 -53q0 -39 40 -82q37 20 56.5 40t19.5 46z" />
    <glyph glyph-name="quotesingle" unicode="'" horiz-adv-x="329" 
d="M103 521v140l137 26l-12 -110q-54 -33 -54 -92v-9z" />
    <glyph glyph-name="parenleft" unicode="(" horiz-adv-x="402" 
d="M392 670q-55 -8 -93 -40.5t-62 -80t-34.5 -105t-10.5 -115.5q0 -60 2 -104.5t10.5 -80.5t24 -67.5t42.5 -65.5q22 -28 51.5 -45.5t66.5 -26.5l-127 -58q-225 166 -225 440q0 263 230 419z" />
    <glyph glyph-name="parenright" unicode=")" horiz-adv-x="402" 
d="M10 670l125 70q230 -156 230 -419q0 -274 -225 -440l-127 58q37 9 66.5 28.5t51.5 44.5t36.5 52.5t22.5 51.5q13 38 16.5 91t3.5 122q0 58 -10.5 115.5t-34.5 105t-62 80t-93 40.5z" />
    <glyph glyph-name="asterisk" unicode="*" horiz-adv-x="591" 
d="M209 345l-86 86l23 53l101 -100v129l96 22v-151l87 85l53 -23l-101 -101h142v-87h-152l111 -110l-89 11l-51 50v-151l-96 73v78l-101 -100l12 89l61 60h-152v87h142z" />
    <glyph glyph-name="plus" unicode="+" horiz-adv-x="589" 
d="M373 511v-168h149v-86h-149v-186l-157 67v119h-149v86h149v147z" />
    <glyph glyph-name="comma" unicode="," horiz-adv-x="255" 
d="M87 -55l-80 61q93 0 105 36l-38 3q-29 24 -29 58q0 18 14 49l14 22q13 -4 31 -4q28 0 39 6h3q10 0 21 -9.5t20 -24.5t14.5 -34.5t5.5 -38.5q0 -96 -120 -124z" />
    <glyph glyph-name="hyphenminus" unicode="-" horiz-adv-x="491" 
d="M67 258v87h357v-87h-357z" />
    <glyph glyph-name="period" unicode="." horiz-adv-x="255" 
d="M141 147q1 1 9 1q12 0 23 -7.5t19 -19t13 -26t5 -29.5q0 -25 -19.5 -46t-65.5 -21q-19 0 -33.5 7.5t-24.5 19t-15 24.5t-5 24q0 23 9 40t19 31q2 0 10.5 -1.5t21.5 -1.5q8 0 16.5 1t17.5 4z" />
    <glyph glyph-name="slash" unicode="/" horiz-adv-x="407" 
d="M9 -71l272 754h114l-272 -754h-114z" />
    <glyph glyph-name="zero" unicode="0" horiz-adv-x="497" 
d="M466 311q0 -165 -53 -242t-165 -77q-217 0 -217 319q0 166 52.5 243t164.5 77q218 0 218 -320zM162 311q0 -115 19.5 -164.5t66.5 -49.5q46 0 66.5 50t20.5 164t-20.5 164t-66.5 50t-66 -50t-20 -164z" />
    <glyph glyph-name="one" unicode="1" horiz-adv-x="496" 
d="M359 0h-131v418l4 65q-33 -33 -46 -43l-71 -57l-64 79l200 159h108v-621z" />
    <glyph glyph-name="two" unicode="2" horiz-adv-x="497" 
d="M469 0h-434v91l156 158q43 44 69 72.5t39.5 49t17.5 37.5t4 38q0 38 -20.5 56t-54.5 18q-37 0 -71 -16.5t-70 -46.5l-72 84q31 26 56 43t50 27.5t52.5 14.5t63.5 4q43 0 79.5 -12.5t62.5 -34.5t40.5 -53t14.5 -68q0 -35 -7.5 -63t-27 -58t-53.5 -65.5t-86 -83.5l-80 -76
v-6h271v-110z" />
    <glyph glyph-name="three" unicode="3" horiz-adv-x="497" 
d="M445 482q0 -58 -35.5 -99t-98.5 -56v-2q152 -20 152 -144q0 -91 -65 -140t-186 -49q-101 0 -179 33v112q36 -18 79.5 -29.5t85.5 -11.5q66 0 96.5 22t30.5 71q0 43 -35.5 61.5t-113.5 18.5h-47v101h48q72 0 105.5 18.5t33.5 64.5q0 71 -89 71q-30 0 -62 -10.5t-70 -35.5
l-61 91q85 61 203 61q97 0 152.5 -39t55.5 -109z" />
    <glyph glyph-name="four" unicode="4" horiz-adv-x="497" 
d="M483 129h-75v-129h-128v129h-265v91l272 401h121v-390h75v-102zM280 231v105q0 10 1 32t1.5 44.5t1.5 40t1 18.5h-3q-8 -17 -17.5 -34t-20.5 -34l-114 -172h150z" />
    <glyph glyph-name="five" unicode="5" horiz-adv-x="498" 
d="M262 397q90 0 143.5 -50.5t53.5 -138.5q0 -106 -63.5 -161t-184.5 -55q-104 0 -168 33v113q34 -17 78.5 -28.5t84.5 -11.5q120 0 120 99q0 94 -124 94q-23 0 -50 -4.5t-44 -9.5l-52 28l23 316h337v-111h-222l-11 -122l15 3q13 2 29 4t35 2z" />
    <glyph glyph-name="six" unicode="6" horiz-adv-x="496" 
d="M30 264q0 187 76 275.5t235 88.5q53 0 83 -6v-105q-23 4 -42 6t-33 2q-51 -2 -87 -12t-60 -32t-36.5 -58.5t-15.5 -91.5h6q42 73 134 73q85 0 131.5 -51.5t46.5 -145.5q0 -100 -56 -157.5t-156 -57.5q-106 0 -166 69t-60 203zM254 96q42 0 64.5 28.5t22.5 80.5
q0 46 -21 72t-64 26q-20 0 -37 -7t-30.5 -19t-21 -27.5t-7.5 -32.5q0 -26 7 -48t19.5 -38t29.5 -25.5t38 -9.5z" />
    <glyph glyph-name="seven" unicode="7" horiz-adv-x="497" 
d="M96 0l234 510h-307v110h446v-82l-235 -538h-138z" />
    <glyph glyph-name="eight" unicode="8" horiz-adv-x="495" 
d="M248 629q90 0 144 -40.5t54 -109.5q0 -48 -25.5 -85t-85.5 -66q70 -37 100 -78t30 -89q0 -38 -15.5 -69t-44 -53.5t-68.5 -34.5t-89 -12q-103 0 -160.5 42.5t-57.5 123.5q0 54 28 94.5t91 72.5q-54 33 -77 71.5t-23 83.5q0 34 15 61.5t41 47t62.5 30t80.5 10.5zM151 165
q0 -36 25 -56.5t70 -20.5q49 0 73.5 21t24.5 55q0 29 -24 54t-78 53q-91 -42 -91 -106zM247 533q-33 0 -54 -17t-21 -46q0 -26 16.5 -46t59.5 -41q42 19 58.5 39.5t16.5 47.5q0 29 -21.5 46t-54.5 17z" />
    <glyph glyph-name="nine" unicode="9" horiz-adv-x="496" 
d="M466 356q0 -187 -75.5 -275.5t-235.5 -88.5q-28 0 -49 1.5t-35 3.5v106q36 -9 75 -9q99 0 147 44t52 150h-5q-24 -40 -56.5 -56t-80.5 -16q-82 0 -128.5 51t-46.5 145q0 100 55.5 158t155.5 58q106 0 166.5 -70t60.5 -202zM242 523q-42 0 -64.5 -27.5t-22.5 -81.5
q0 -45 21 -71.5t63 -26.5q20 0 37.5 7.5t31 19.5t21 27.5t7.5 32.5q0 25 -7 47t-19.5 38t-29.5 25.5t-38 9.5z" />
    <glyph glyph-name="colon" unicode=":" horiz-adv-x="296" 
d="M161 536l10 2q12 0 22.5 -7t18.5 -18.5t13 -26t5 -29.5q0 -26 -20 -47t-66 -21q-19 0 -33.5 7t-24.5 18t-15 24t-5 25q0 14 4.5 27t10 23t9.5 16l4 6l9 -2q5 -1 10 -1.5t13 -0.5t16.5 1t18.5 4zM94 89q-16 14 -22 28.5t-6 28.5q0 15 4.5 28t10 23t9.5 15.5l4 5.5l9 -2
q5 -1 10 -1.5t13 -0.5q10 0 22 3t23 3q12 0 22.5 -7t18.5 -18.5t13 -26t5 -28.5q0 -29 -22 -48.5t-60 -19.5q-29 0 -54 17z" />
    <glyph glyph-name="semicolon" unicode=";" horiz-adv-x="296" 
d="M111 4l-80 62h7q36 0 63 9t35 26l-39 3q-29 24 -29 59q0 21 8.5 39.5t19.5 30.5q2 0 10 -1.5t21 -1.5q10 0 20 3t21 3q10 0 21.5 -9.5t21 -24.5t15.5 -34.5t6 -38.5q0 -51 -33.5 -81.5t-87.5 -43.5zM146 390q-39 0 -59.5 23.5t-20.5 50.5q0 18 14 49l14 22q15 -4 32 -4
q11 0 23 3.5t23 3.5q10 0 20.5 -7t18.5 -18t13 -25.5t5 -29.5q0 -29 -21.5 -48.5t-61.5 -19.5z" />
    <glyph glyph-name="less" unicode="&#x3c;" horiz-adv-x="543" 
d="M476 56l-409 203v104l409 203v-145l-249 -111l249 -110v-144z" />
    <glyph glyph-name="equal" unicode="=" horiz-adv-x="591" 
d="M67 367v87h457v-87h-457zM524 255v-87h-457v87h457z" />
    <glyph glyph-name="greater" unicode="&#x3e;" horiz-adv-x="543" 
d="M67 56v144l249 110l-249 111v145l409 -203v-104z" />
    <glyph glyph-name="question" unicode="?" horiz-adv-x="661" 
d="M163 164q-1 3 -1 24q0 65 36 105t101 68q26 11 51 22t44.5 24.5t31 31.5t11.5 43q0 16 -7.5 33.5t-21.5 31.5t-34 23t-44 9q-16 0 -22 -8t-8 -20q19 -7 30 -25t11 -41q0 -14 -6.5 -31.5t-20 -33t-35 -26.5t-50.5 -11q-45 0 -73.5 31.5t-33.5 85.5q0 11 10.5 21.5t25 26
t28 40.5t19.5 65h158q52 -8 95 -24.5t73 -39.5t46.5 -52.5t16.5 -63.5q0 -41 -15.5 -68t-38.5 -46.5t-49.5 -35t-49.5 -33t-38.5 -40t-15.5 -56.5q0 -36 20 -85zM270 -66q-20 0 -36 8t-27.5 20.5t-17.5 27.5t-6 29q0 25 9 44.5t22 36.5q17 -5 36 -5q24 0 39 6l13 1
q12 1 24 -7.5t21.5 -22t15 -30t5.5 -31.5q0 -31 -24.5 -54t-73.5 -23z" />
    <glyph glyph-name="at" unicode="@" horiz-adv-x="954" 
d="M505 156l127 -57q21 20 39.5 50t32 65t21.5 73.5t8 76.5q0 54 -23.5 101.5t-61 83t-84.5 56t-95 20.5q-102 0 -132 -85q-17 -60 -41 -111t-43 -81l-103 -149q-8 -11 -8 -29q0 -46 55 -131l-41 -31q-43 47 -66 109t-23 141v14l1 60q3 30 27 54q22 22 46 57.5t44.5 74.5
t35 77t17.5 67h251q236 0 317 -132t81 -233q0 -58 -19 -111t-50.5 -96.5t-72.5 -75t-85 -46.5l-51 24l-1 -1l-353 167l61 127q61 -34 131 -34q52 0 85 22t33 57q0 13 -6.5 26.5t-18 24.5t-25.5 18t-29 7l-7 -7q11 -17 11 -31q0 -15 -8.5 -27.5t-21 -22.5t-28 -15.5
t-29.5 -5.5q-35 0 -61.5 19t-30.5 57q1 4 6.5 13t12.5 22t14 30.5t11 38.5h140q16 0 36.5 -6.5t41 -16.5t38 -22t26.5 -22q38 -44 38 -93q0 -29 -12 -55t-33.5 -48t-51 -37t-64.5 -21h-9z" />
    <glyph glyph-name="A" unicode="A" horiz-adv-x="600" 
d="M458 0l-45 148h-226l-45 -148h-142l219 624h161l220 -624h-142zM382 258l-71 227l-11 42q-7 -27 -27 -93.5t-53 -175.5h162z" />
    <glyph glyph-name="B" unicode="B" horiz-adv-x="585" 
d="M78 621h193q133 0 192.5 -37.5t59.5 -119.5q0 -57 -25.5 -92t-70.5 -42v-5q60 -13 86 -49t26 -96q0 -85 -61.5 -132.5t-166.5 -47.5h-233v621zM210 375h76q54 0 78 16.5t24 54.5q0 36 -26 51.5t-83 15.5h-69v-138zM210 271v-162h86q106 0 106 84q0 78 -111 78h-81z" />
    <glyph glyph-name="C" unicode="C" horiz-adv-x="553" 
d="M341 520q-75 0 -115.5 -55.5t-40.5 -155.5q0 -208 156 -208q65 0 158 33v-111q-71 -31 -170 -31q-140 0 -209.5 80t-69.5 238q0 73 20 132t58 101t91.5 64.5t121.5 22.5q85 0 182 -44l-43 -107q-35 17 -70 29t-69 12z" />
    <glyph glyph-name="D" unicode="D" horiz-adv-x="643" 
d="M593 316q0 -157 -85 -236.5t-254 -79.5h-176v621h195q156 0 238 -78.5t82 -226.5zM457 313q0 200 -177 200h-70v-404h56q191 0 191 204z" />
    <glyph glyph-name="E" unicode="E" horiz-adv-x="487" 
d="M436 0h-358v621h358v-108h-226v-136h210v-108h-210v-160h226v-109z" />
    <glyph glyph-name="F" unicode="F" horiz-adv-x="478" 
d="M208 0h-130v621h356v-108h-226v-160h210v-107h-210v-246z" />
    <glyph glyph-name="G" unicode="G" horiz-adv-x="630" 
d="M314 349h246v-322q-60 -20 -112 -27.5t-109 -7.5q-144 0 -216 80.5t-72 238.5q0 76 22 135t64 100t102 62.5t136 21.5q90 0 184 -38l-43 -106q-67 34 -142 34q-42 0 -77 -15t-59.5 -42.5t-38 -66.5t-13.5 -87q0 -103 41.5 -155.5t120.5 -52.5q40 0 84 9v129h-118v110z
" />
    <glyph glyph-name="H" unicode="H" horiz-adv-x="665" 
d="M587 0h-131v268h-246v-268h-132v621h132v-243h246v243h131v-621z" />
    <glyph glyph-name="I" unicode="I" horiz-adv-x="339" 
d="M311 0h-283v75l76 35v401l-76 35v75h283v-75l-76 -35v-401l76 -35v-75z" />
    <glyph glyph-name="J" unicode="J" horiz-adv-x="289" 
d="M14 -183q-49 0 -78 10v109q17 -4 32.5 -6t29.5 -2q45 0 63 27t18 84v582h132v-581q0 -109 -50 -166t-147 -57z" />
    <glyph glyph-name="K" unicode="K" horiz-adv-x="578" 
d="M578 0h-150l-162 262l-56 -40v-222h-132v621h132v-284l52 73l168 211h146l-217 -275z" />
    <glyph glyph-name="L" unicode="L" horiz-adv-x="492" 
d="M78 0v621h132v-512h252v-109h-384z" />
    <glyph glyph-name="M" unicode="M" horiz-adv-x="820" 
d="M341 0l-149 487h-4q4 -75 6 -124t2 -74v-289h-118v621h179l147 -475h3l156 475h179v-621h-123v316v12.5t1 13.5l6 144h-4l-160 -486h-121z" />
    <glyph glyph-name="N" unicode="N" horiz-adv-x="707" 
d="M629 0h-167l-270 470h-4q4 -63 6 -107.5t2 -70.5v-292h-118v621h166l270 -465h3q-6 121 -6 171v294h118v-621z" />
    <glyph glyph-name="O" unicode="O" horiz-adv-x="691" 
d="M641 311q0 -158 -74.5 -238.5t-221.5 -80.5t-221 80.5t-74 239.5t74.5 239t221.5 80t221 -80.5t74 -239.5zM188 311q0 -209 157 -209q158 0 158 209q0 210 -157 210q-158 0 -158 -210z" />
    <glyph glyph-name="P" unicode="P" horiz-adv-x="546" 
d="M210 329h43q121 0 121 94q0 46 -25 68t-79 22h-60v-184zM507 427q0 -100 -61.5 -153t-179.5 -53h-56v-221h-132v621h199q230 0 230 -194z" />
    <glyph glyph-name="Q" unicode="Q" horiz-adv-x="691" 
d="M641 311q0 -109 -39 -183t-114 -109l149 -167h-168l-114 140h-10q-147 0 -221 80.5t-74 239.5t74.5 239t221.5 80t221 -80.5t74 -239.5zM188 311q0 -209 157 -209q158 0 158 209q0 210 -157 210q-158 0 -158 -210z" />
    <glyph glyph-name="R" unicode="R" horiz-adv-x="574" 
d="M210 345h42q63 0 92.5 21t29.5 66t-30 63t-94 18h-40v-168zM210 238v-238h-132v621h181q130 0 189 -46t59 -140q0 -55 -30 -97.5t-85 -66.5q70 -106 115.5 -173t66.5 -98h-146l-148 238h-70z" />
    <glyph glyph-name="S" unicode="S" horiz-adv-x="480" 
d="M445 172q0 -85 -60 -132.5t-169 -47.5q-103 0 -176 37v122q63 -28 106.5 -39.5t79.5 -11.5q43 0 66.5 16.5t23.5 49.5q0 15 -5.5 26t-19.5 22.5t-37.5 24t-58.5 29.5q-38 18 -65.5 36t-46 39.5t-27.5 48t-9 61.5q0 85 55 131t155 46q49 0 93 -11.5t92 -32.5l-43 -102
q-49 20 -81.5 28t-64.5 8q-37 0 -57 -17t-20 -45q0 -16 3.5 -26.5t15.5 -20t35.5 -21.5t62.5 -31q43 -21 72.5 -41.5t47 -43t25 -47.5t7.5 -55z" />
    <glyph glyph-name="T" unicode="T" horiz-adv-x="503" 
d="M318 0h-132v511h-169v110h469v-110h-168v-511z" />
    <glyph glyph-name="U" unicode="U" horiz-adv-x="658" 
d="M584 621v-402q0 -52 -18 -94t-51 -71.5t-81 -45.5t-108 -16q-121 0 -186.5 60t-65.5 169v400h131v-380q0 -72 29 -105.5t96 -33.5q64 0 93 33.5t29 106.5v379h132z" />
    <glyph glyph-name="V" unicode="V" horiz-adv-x="565" 
d="M432 621h133l-211 -621h-143l-211 621h133l117 -370q4 -14 9 -34.5t9.5 -41t8.5 -37t6 -23.5q2 20 10 53.5t22 82.5z" />
    <glyph glyph-name="W" unicode="W" horiz-adv-x="841" 
d="M683 0h-150l-84 326q-2 6 -6.5 27t-9.5 45t-9 45t-4 27l-28 -145l-84 -325h-150l-158 621h130l79 -339q11 -48 18 -88t12 -75q1 11 4.5 32t8 44t9 44.5t7.5 33.5l91 348h124l90 -348q3 -10 7 -29.5t8.5 -42t8 -45t5.5 -37.5q2 17 4.5 37.5t8.5 45.5l97 419h129z" />
    <glyph glyph-name="X" unicode="X" horiz-adv-x="580" 
d="M580 0h-150l-145 235l-144 -235h-141l206 320l-193 301h145l134 -223l132 223h141l-195 -308z" />
    <glyph glyph-name="Y" unicode="Y" horiz-adv-x="543" 
d="M271 365l130 256h142l-206 -379v-242h-131v237l-206 384h143z" />
    <glyph glyph-name="Z" unicode="Z" horiz-adv-x="504" 
d="M483 0h-462v85l298 427h-290v109h446v-85l-297 -427h305v-109z" />
    <glyph glyph-name="bracketleft" unicode="[" horiz-adv-x="304" 
d="M297 704h-70v-822h70v-40h-230v902h230v-40z" />
    <glyph glyph-name="backslash" unicode="\" horiz-adv-x="407" 
d="M398 -71h-114l-272 754h114z" />
    <glyph glyph-name="bracketright" unicode="]" horiz-adv-x="304" 
d="M7 704v40h230v-902h-230v40h70v822h-70z" />
    <glyph glyph-name="asciicircum" unicode="^" horiz-adv-x="528" 
d="M39 400l173 300h104l173 -300h-145l-81 140l-80 -140h-144z" />
    <glyph glyph-name="underscore" unicode="_" horiz-adv-x="591" 
d="M67 0v87h457v-87h-457z" />
    <glyph glyph-name="grave" unicode="`" horiz-adv-x="349" 
d="M109 553l-88 165l154 27l150 -279z" />
    <glyph glyph-name="a" unicode="a" horiz-adv-x="525" 
d="M370 0l-25 65h-4q-17 -21 -33 -35t-34.5 -22.5t-40 -12t-49.5 -3.5q-69 0 -108 39t-39 111q0 76 51.5 111.5t160.5 39.5l82 3v20q0 73 -74 73q-51 0 -133 -35l-43 88q82 43 182 43q97 0 147 -42t50 -127v-316h-90zM331 220l-50 -2q-112 -1 -112 -77q0 -55 63 -55
q45 0 72 26t27 69v39z" />
    <glyph glyph-name="b" unicode="b" horiz-adv-x="550" 
d="M332 484q85 0 132 -65.5t47 -180.5q0 -118 -48.5 -182t-133.5 -64t-131 60h-9l-22 -52h-99v661h130v-154q0 -30 -6 -94h6q45 71 134 71zM291 380q-48 0 -70.5 -29t-22.5 -98v-14q0 -76 22.5 -109.5t71.5 -33.5q40 0 63.5 37t23.5 107t-23 105t-65 35z" />
    <glyph glyph-name="c" unicode="c" horiz-adv-x="447" 
d="M261 -8q-222 0 -222 243q0 121 60.5 185t172.5 64q78 0 148 -32l-38 -101q-31 13 -57 20.5t-53 7.5q-101 0 -101 -143q0 -140 101 -140q38 0 69.5 10t63.5 32v-111q-31 -20 -63 -27.5t-81 -7.5z" />
    <glyph glyph-name="d" unicode="d" horiz-adv-x="551" 
d="M218 -8q-85 0 -132 63.5t-47 181.5t47.5 182.5t135.5 64.5q89 0 137 -70h4q-5 26 -7.5 50t-2.5 45v152h130v-661h-99l-25 62h-6q-43 -70 -135 -70zM264 95q51 0 73.5 29t24.5 98v14q0 76 -23 109.5t-77 33.5q-45 0 -68.5 -37t-23.5 -107t24.5 -105t69.5 -35z" />
    <glyph glyph-name="e" unicode="e" horiz-adv-x="514" 
d="M265 392q-42 0 -65 -26.5t-27 -74.5h182q-1 48 -24.5 74.5t-65.5 26.5zM283 -8q-115 0 -179.5 62t-64.5 180q0 121 59.5 185.5t165.5 64.5q100 0 156.5 -56.5t56.5 -159.5v-63h-307q2 -55 33 -86t86 -31q43 0 81 9t80 28v-100q-34 -17 -72 -25t-95 -8z" />
    <glyph glyph-name="f" unicode="f" horiz-adv-x="337" 
d="M330 378h-112v-378h-129v378h-72v62l72 35v35q0 81 40 118.5t128 37.5q61 0 119 -20l-33 -95q-39 12 -72 12q-28 0 -40.5 -16.5t-12.5 -41.5v-30h112v-97z" />
    <glyph glyph-name="g" unicode="g" horiz-adv-x="491" 
d="M481 475v-66l-74 -19q20 -32 20 -71q0 -78 -52 -120t-149 -42l-42 3q-20 -15 -20 -34q0 -28 71 -28h81q78 0 119 -33t41 -99q0 -85 -67.5 -130t-201.5 -45q-100 0 -152 34.5t-52 97.5q0 87 105 113q-20 8 -35 27.5t-15 41.5q0 27 16 45t45 35q-37 16 -59 52t-22 84
q0 78 50.5 120.5t144.5 42.5q9 0 22 -1.5t25.5 -3t22.5 -3t13 -1.5h165zM115 -67q0 -27 25.5 -42t71.5 -15q70 0 109.5 19t39.5 52q0 27 -23.5 37t-71.5 10h-68q-35 0 -59 -17t-24 -44zM162 319q0 -38 17.5 -60.5t53.5 -22.5q37 0 54 22.5t17 60.5q0 86 -71 86t-71 -86z" />
    <glyph glyph-name="h" unicode="h" horiz-adv-x="571" 
d="M506 0h-129v277q0 103 -77 103q-54 0 -78 -36.5t-24 -120.5v-223h-130v661h130v-135q-1 -8 -1 -26.5t-2 -47.5l-3 -38h6q43 70 138 70q85 0 127.5 -44.5t42.5 -129.5v-310z" />
    <glyph glyph-name="i" unicode="i" horiz-adv-x="266" 
d="M63 598q0 63 71 63q70 0 70 -63q0 -30 -17.5 -47t-52.5 -17q-71 0 -71 64zM199 0h-130v475h130v-475z" />
    <glyph glyph-name="j" unicode="j" horiz-adv-x="265" 
d="M30 -209q-44 0 -86 11v102q30 -9 61 -9q33 0 48 18.5t15 54.5v507h130v-526q0 -76 -43.5 -117t-124.5 -41zM62 598q0 63 71 63q70 0 70 -63q0 -30 -17.5 -47t-52.5 -17q-71 0 -71 64z" />
    <glyph glyph-name="k" unicode="k" horiz-adv-x="540" 
d="M192 258l57 72l133 145h146l-189 -206l201 -269h-150l-137 192l-55 -44v-148h-130v661h130v-295l-7 -108h1z" />
    <glyph glyph-name="l" unicode="l" horiz-adv-x="266" 
d="M198 0h-130v661h130v-661z" />
    <glyph glyph-name="m" unicode="m" horiz-adv-x="854" 
d="M493 0h-129v277q0 103 -72 103q-49 0 -71.5 -36.5t-22.5 -120.5v-223h-130v475h99l17 -61h8q19 33 54.5 51.5t83.5 18.5q107 0 144 -70h12q19 33 55.5 51.5t84.5 18.5q81 0 122 -41.5t41 -132.5v-310h-130v277q0 103 -71 103q-48 0 -71.5 -33.5t-23.5 -108.5v-238z" />
    <glyph glyph-name="n" unicode="n" horiz-adv-x="571" 
d="M506 0h-129v277q0 103 -77 103q-54 0 -78 -36t-24 -121v-223h-130v475h99l17 -61h8q21 35 59 52.5t87 17.5q85 0 126.5 -44.5t41.5 -129.5v-310z" />
    <glyph glyph-name="o" unicode="o" horiz-adv-x="539" 
d="M171 238q0 -70 23.5 -106t75.5 -36t74.5 35t22.5 107t-23 106.5t-75 34.5t-75 -34.5t-23 -106.5zM500 238q0 -118 -61.5 -182t-170.5 -64q-52 0 -94 17t-72 49t-46.5 77.5t-16.5 102.5q0 118 60 182t172 64q51 0 93.5 -17.5t72.5 -49.5t46.5 -77.5t16.5 -101.5z" />
    <glyph glyph-name="p" unicode="p" horiz-adv-x="550" 
d="M329 -8q-85 0 -131 60h-7q4 -29 5.5 -46.5t1.5 -22.5v-192h-130v684h105l19 -62h6q45 71 134 71q85 0 132 -64t47 -182t-48.5 -182t-133.5 -64zM291 380q-48 0 -70.5 -29t-22.5 -98v-14q0 -76 22.5 -109.5t71.5 -33.5q87 0 87 144q0 140 -88 140z" />
    <glyph glyph-name="q" unicode="q" horiz-adv-x="551" 
d="M265 93q49 0 72 28.5t25 98.5v16q0 76 -23.5 109.5t-75.5 33.5q-92 0 -92 -144q0 -142 94 -142zM218 -8q-85 0 -132 63.5t-47 181.5t48.5 182.5t133.5 64.5q45 0 78.5 -17t59.5 -53h3l11 61h110v-684h-130v199q0 25 6 72h-6q-21 -35 -55.5 -52.5t-79.5 -17.5z" />
    <glyph glyph-name="r" unicode="r" horiz-adv-x="395" 
d="M333 484q32 0 44 -4l-10 -121q-11 4 -38 4q-63 0 -97 -32t-34 -89v-242h-130v475h98l19 -80h7q22 40 59 64.5t82 24.5z" />
    <glyph glyph-name="s" unicode="s" horiz-adv-x="432" 
d="M399 141q0 -73 -49.5 -111t-152.5 -38q-52 0 -88.5 7t-68.5 20v107q18 -9 39 -16.5t42.5 -12.5t42 -8t37.5 -3q70 0 70 41q0 10 -5 18.5t-17 16.5t-31.5 17.5t-48.5 22.5q-40 18 -65 32.5t-39 30.5t-19.5 36.5t-6.5 49.5q0 64 48.5 98.5t139.5 34.5q80 0 167 -38l-39 -93
q-36 15 -67 25t-63 10q-57 0 -57 -31q0 -10 3.5 -17t14.5 -14t30 -15.5t51 -21.5q41 -17 66 -32t39 -31.5t19.5 -37t7.5 -47.5z" />
    <glyph glyph-name="t" unicode="t" horiz-adv-x="378" 
d="M268 95q34 0 82 15v-97q-50 -21 -119 -21q-78 0 -113.5 39t-35.5 118v229h-62v54l71 44l38 100h83v-101h133v-97h-133v-229q0 -28 15.5 -41t40.5 -13z" />
    <glyph glyph-name="u" unicode="u" horiz-adv-x="572" 
d="M404 0l-17 61h-7q-21 -33 -59 -51t-87 -18q-85 0 -127 44t-42 129v310h130v-277q0 -103 76 -103q55 0 79 36t24 120v224h130v-475h-100z" />
    <glyph glyph-name="v" unicode="v" horiz-adv-x="495" 
d="M181 0l-181 475h136l91 -271q8 -23 12.5 -47t6.5 -50h3q1 20 6 44.5t13 52.5l91 271h136l-181 -475h-133z" />
    <glyph glyph-name="w" unicode="w" horiz-adv-x="746" 
d="M459 0l-36 166l-49 210h-3l-87 -376h-139l-136 475h130l54 -210q8 -29 13.5 -67t13.5 -89h3q0 16 4.5 41.5t10.5 60.5l6 36l59 228h143l55 -228q2 -9 5.5 -27.5t7 -39t6.5 -40t3 -31.5h3q2 15 5 36t8 47l14 73l57 210h127l-137 -475h-141z" />
    <glyph glyph-name="x" unicode="x" horiz-adv-x="503" 
d="M165 243l-153 232h147l92 -151l94 151h146l-154 -232l162 -243h-148l-100 163l-100 -163h-147z" />
    <glyph glyph-name="y" unicode="y" horiz-adv-x="495" 
d="M0 475h142l90 -267q6 -17 9 -38t6 -45h3q5 44 18 83l88 267h139l-201 -536q-58 -148 -198 -148q-42 0 -66 7v103q22 -6 51 -6q34 0 60 21.5t40 63.5l8 23z" />
    <glyph glyph-name="z" unicode="z" horiz-adv-x="424" 
d="M398 0h-375v76l220 300h-206v99h354v-84l-214 -292h221v-99z" />
    <glyph glyph-name="braceleft" unicode="{" horiz-adv-x="371" 
d="M81 233q0 2 -9.5 9.5t-35.5 7.5q-5 0 -10.5 -0.5t-11.5 -1.5v76q13 -3 24 -3q19 0 27.5 5.5t10.5 7.5l1 2q12 13 12 54v161q0 75 39 117t111 42h118l-14 -54q-6 1 -12 1.5t-11 0.5q-33 0 -51.5 -11t-26.5 -21h-1q-9 -9 -13.5 -27t-4.5 -35v-160q0 -30 -5.5 -51.5
t-14.5 -35t-20.5 -21t-23.5 -10.5q9 -3 20 -9t21 -19.5t16.5 -36.5t6.5 -60v-150q0 -21 4.5 -38t15.5 -29t31 -19t52 -7q5 0 10.5 0.5t11.5 1.5l16 -54h-21q-11 0 -20.5 -0.5t-19.5 -0.5q-39 0 -66 1.5t-46.5 5t-33 10.5t-25.5 18q-43 37 -43 134v146q0 26 -2.5 37.5
t-5.5 15.5z" />
    <glyph glyph-name="bar" unicode="|" horiz-adv-x="345" 
d="M103 -80v782h139v-782h-139z" />
    <glyph glyph-name="braceright" unicode="}" horiz-adv-x="371" 
d="M289 233q-3 -4 -5.5 -15.5t-2.5 -37.5v-146q0 -56 -12 -89t-38.5 -51t-68.5 -23.5t-103 -5.5q-8 0 -15.5 0.5t-16.5 0.5h-21l16 54q5 -1 11 -1.5t11 -0.5q31 0 51.5 7t31.5 19t15.5 29t4.5 38v150q0 37 6.5 60t16.5 36.5t21 19.5t20 9q-12 3 -23.5 10.5t-20.5 21
t-14.5 35t-5.5 51.5v160q0 17 -4.5 35t-13.5 27h-1q-8 10 -26.5 21t-51.5 11q-5 0 -11 -0.5t-12 -1.5l-14 54h118q72 0 111 -42t39 -117v-161q0 -41 12 -54l1 -2q2 -2 10 -7.5t27 -5.5q10 0 25 3v-76q-7 1 -12.5 1.5t-10.5 0.5q-25 0 -34.5 -7.5t-9.5 -9.5z" />
    <glyph glyph-name="asciitilde" unicode="~" horiz-adv-x="734" 
d="M268 356q-11 0 -20 -9t-9 -26v-100h-136v81q0 26 12 52.5t33 47.5t48.5 34.5t58.5 13.5h27q31 0 59 -13.5t49 -34.5t33 -47.5t12 -52.5q0 -17 8.5 -26t20.5 -9q13 0 21.5 9t8.5 26v100h137v-81q0 -27 -12 -53.5t-33 -47.5t-49 -34t-59 -13h-27q-32 0 -59.5 13t-48.5 34
t-33 47.5t-12 53.5q0 17 -8.5 26t-21.5 9z" />
    <glyph glyph-name="softhyphen" unicode="&#xad;" horiz-adv-x="455" 
d="M67 258v87h321v-87h-321z" />
    <glyph glyph-name="softhyphen" unicode="&#x2010;" horiz-adv-x="455" 
d="M67 258v87h321v-87h-321z" />
    <glyph glyph-name="periodcentered" unicode="&#xb7;" horiz-adv-x="298" 
d="M161 384q1 1 9 1q12 0 23 -7.5t19 -19t13 -26t5 -29.5q0 -25 -20 -46.5t-64 -21.5q-20 0 -34.5 7.5t-24.5 19t-15 25t-5 24.5q0 23 9 40t19 31q2 0 10.5 -1.5t21.5 -1.5q8 0 16.5 1t17.5 4z" />
    <glyph glyph-name="multiply" unicode="&#xd7;" horiz-adv-x="540" 
d="M56 129l137 175l-136 175h136l69 -88l69 88h135l-136 -175l137 -175h-136l-69 88l-69 -88h-137z" />
    <glyph glyph-name="divide" unicode="&#xf7;" horiz-adv-x="591" 
d="M67 256v87h457v-87h-457zM308 196q1 1 9 1q12 0 23 -7.5t19 -19t13 -26t5 -29.5q0 -25 -20 -46.5t-64 -21.5q-20 0 -34.5 7.5t-24.5 19t-15 25t-5 24.5q0 23 9 40t19 31q2 0 10.5 -1.5t21.5 -1.5q8 0 16.5 1t17.5 4zM308 550q1 1 9 1q12 0 23 -7.5t19 -19t13 -26t5 -29.5
q0 -25 -20 -46.5t-64 -21.5q-20 0 -34.5 7.5t-24.5 19t-15 25t-5 24.5q0 23 9 40t19 31q2 0 10.5 -1.5t21.5 -1.5q8 0 16.5 1t17.5 4z" />
    <glyph glyph-name="om_deva" unicode="&#x950;" horiz-adv-x="638" 
d="M420 336q49 -12 82 -28.5t53 -36.5t28 -44.5t8 -52.5q0 -41 -17.5 -75.5t-50.5 -60t-80 -39.5t-106 -14q-67 0 -136.5 29t-132.5 81l-42 37l79 182q48 -94 109.5 -141.5t131.5 -47.5q25 0 48 5.5t40 15t27 22.5t10 28q0 11 -10 23t-28 12q-26 0 -60 -24l-32 -23l-119 54
q0 32 18.5 61.5t41 57t41 54t18.5 53.5q0 29 -24 50.5t-56 21.5l-14 -1q37 -16 37 -59q0 -15 -8 -30.5t-21.5 -28t-32 -20.5t-39.5 -8q-42 0 -70 28t-33 73q0 7 10 18t23.5 26.5t26.5 37t18 50.5h143q27 -2 56 -14.5t52.5 -32t38.5 -44.5t15 -52q0 -36 -13.5 -75.5
t-29.5 -67.5zM366 791q-14 0 -23 5t-14.5 12t-7.5 14t-2 12q0 16 8.5 27.5t8.5 12.5q1 -1 10 -1q11 0 18 1t13 1q14 0 24 -14.5t10 -31.5t-12.5 -27.5t-32.5 -10.5zM274 687q-145 0 -178 122l150 69q6 -57 39.5 -89t84.5 -32q48 2 82 17t66 40l36 -38q-26 -21 -60.5 -37.5
t-72 -28t-75.5 -17.5t-72 -6z" />
    <glyph glyph-name="devanagaridanda" unicode="&#x964;" horiz-adv-x="396" 
d="M189 97v466l140 26v-579z" />
    <glyph glyph-name="devanagaridoubledanda" unicode="&#x965;" horiz-adv-x="670" 
d="M189 97v466l140 26v-579zM463 97v466l140 26v-579z" />
    <glyph glyph-name="signcandrabinducomb_beng" unicode="&#x981;" 
d="M-56 707q-42 -10 -75.5 -15t-60.5 -5q-145 0 -178 122l150 69q0 -2 3.5 -21t16 -41.5t37 -40.5t67.5 -18q30 0 57 9t47.5 19.5t32.5 19.5t11 9l36 -38q-21 -17 -53.5 -34t-90.5 -35zM-130 801q-10 8 -13.5 16.5t-3.5 16.5q0 16 8.5 27.5t8.5 12.5q1 -1 4 -1h12q5 0 12 1
t13 1q14 0 24 -14.5t10 -31.5t-12.5 -27.5t-32.5 -10.5q-17 0 -30 10z" />
    <glyph glyph-name="signanusvara_beng" unicode="&#x982;" horiz-adv-x="578" 
d="M209 261q-29 0 -57.5 10.5t-52 33t-38 57.5t-14.5 84q0 14 3.5 27.5t20.5 29.5q16 15 34 42t25 78h154q62 -8 108.5 -27t77 -44t46 -53t15.5 -55v-5q-4 -27 -19.5 -58t-51 -57.5t-96 -44.5t-155.5 -18zM250 531q-5 -20 -15 -39t-19.5 -33.5t-16.5 -23l-7 -8.5l4.5 -8.5
t14.5 -18.5t24.5 -18t34.5 -8q19 0 35 8.5t27 22t17 31t6 35.5q0 10 -8 24t-20.5 26t-27 20.5t-27.5 8.5q-18 0 -22 -19zM122 203q10 1 19.5 1h19.5q85 0 148 -17.5t104.5 -38.5t62 -38l20.5 -17l28 -220q-42 58 -103 99t-127 68t-130.5 40.5t-112.5 16.5l51 105q3 0 10 0.5
t10 0.5z" />
    <glyph glyph-name="signvisarga_beng" unicode="&#x983;" horiz-adv-x="511" 
d="M186 340q-25 0 -49.5 8.5t-44.5 26.5t-32.5 45.5t-12.5 66.5q0 16 9 27t21 23.5t23.5 32t16.5 53.5h134q56 -7 96.5 -22.5t66.5 -35t38.5 -42t12.5 -43.5q0 -1 -2 -11.5t-10 -26t-25.5 -33.5t-48.5 -33.5t-78 -25.5t-115 -10zM221 552q-4 -17 -12 -31.5t-16.5 -26
t-14.5 -17.5l-6 -6l4 -7t12 -15t21 -14.5t30 -6.5q19 0 33 7t23 18t13 24t4 25q0 8 -6.5 19t-16.5 21t-23 17t-26 7q-14 0 -19 -14zM186 -25q-24 0 -49 8t-45 26t-32.5 45.5t-12.5 66.5q0 10 3 21.5t17 22.5t29.5 32t20.5 61h134q55 -6 95.5 -21t66.5 -35t39 -43.5t13 -45.5
l-1.5 -10t-9.5 -25t-24.5 -33t-46 -33.5t-74.5 -26t-110 -10.5h-13zM221 185q-4 -15 -12 -29.5t-16.5 -26t-14.5 -18.5l-6 -7l4 -6t12 -14t21 -14.5t30 -6.5q19 0 33 7t23 18t13 24t4 25q0 7 -6 18t-16 21t-23 17t-26 7q-16 0 -20 -15z" />
    <glyph glyph-name="a_beng" unicode="&#x985;" horiz-adv-x="899" 
d="M832 -9l-114 94q-31 78 -61.5 112t-60.5 46q-8 -13 -14.5 -23t-12.5 -17l-13 -15q-35 -40 -92 -61.5t-129 -21.5q-35 0 -73.5 8.5t-76.5 25t-72.5 40t-60.5 53.5l-26 29l104 253q13 -70 34.5 -119t49 -80.5t58.5 -47t62 -17.5h15q33 0 61 9.5t48 25.5t31 38t11 47
q0 20 -9 36.5t-22 28t-27 18t-24 7.5l-10 2l8 -8q31 -34 31 -73q0 -6 -4.5 -21t-16 -31t-30.5 -28t-49 -12q-6 0 -16.5 1t-23 5.5t-27 14t-27.5 26.5q-17 23 -17 45q0 15 6 30q23 48 30 75.5t7 41.5q0 13 -1 14l-2 4h198q72 -38 107.5 -92.5t36.5 -114.5q28 -7 55 -24v256
h-683v51h919v-51h-77v-580z" />
    <glyph glyph-name="aa_beng" unicode="&#x986;" horiz-adv-x="1198" 
d="M672 315v256h-682v51h916q25 0 53 -11l7 -3v36l165 30v-52h77v-51h-77v-602l-165 107v417q-9 25 -19.5 40t-20.5 23t-17 11t-10 4h-67v-580l-115 94q-31 78 -61.5 112t-60.5 46q-11 -21 -22 -35t-15 -18l-2 -2q-35 -38 -91 -60.5t-126 -22.5q-54 0 -99.5 13t-82 32.5
t-63 41.5t-42.5 40l-26 29l104 253q13 -75 37.5 -126t54.5 -82t63.5 -44t65.5 -13q34 0 61.5 10.5t47 27t29.5 37t10 41.5q0 28 -11 47t-26 29.5t-29.5 15t-21.5 4.5l-4 1l8 -8q9 -11 20 -30t11 -42q0 -12 -6.5 -28t-18.5 -30.5t-30 -24.5t-42 -10q-21 0 -41.5 7.5
t-36.5 20.5t-26 30t-10 35q0 16 7 29q23 48 29.5 75t6.5 41q0 10 -2 18l198 1q72 -38 107.5 -92.5t36.5 -114.5q10 -4 19.5 -7t20.5 -9z" />
    <glyph glyph-name="i_beng" unicode="&#x987;" horiz-adv-x="599" 
d="M331 120l252 -111l-120 -105l-463 220l80 168q48 -26 90.5 -36t77.5 -10q73 0 116.5 28.5t43.5 73.5q0 35 -27.5 63t-78.5 38l-7 -9q13 -19 13 -39t-10.5 -37.5t-27.5 -30t-37.5 -19.5t-40.5 -7q-45 0 -79 25.5t-39 74.5q0 11 7 20t16 22.5t18.5 35.5t14.5 58h185
q22 0 49.5 -8.5t54 -21.5t49 -28.5t34.5 -28.5q26 -29 37.5 -60.5t11.5 -62.5q0 -37 -15.5 -72t-43.5 -63.5t-66.5 -48.5t-84.5 -27zM609 622v-51h-619v51h314q8 8 16 21.5t8 30.5q0 21 -12 36.5t-31.5 26t-46 15.5t-54.5 5q-30 0 -57.5 -3t-48.5 -6.5t-34 -7l-13 -3.5h-2
l-38 43q-1 0 25.5 6.5t66.5 15t87 15.5t86 8q78 -1 132.5 -15t88.5 -36.5t49.5 -51t15.5 -57.5q0 -5 -0.5 -11t-1.5 -11l-178 -21h247z" />
    <glyph glyph-name="ii_beng" unicode="&#x988;" horiz-adv-x="757" 
d="M36 137l48 127q41 -16 103 -16q35 0 67.5 6.5t57.5 21t40 36t15 51.5q0 12 -6 28t-16.5 30.5t-24 24t-29.5 9.5q-3 0 -5 -0.5t-4 -0.5h-3l-8 -9q14 -20 14 -40q0 -23 -11.5 -40.5t-29 -29.5t-38.5 -18.5t-39 -6.5q-48 0 -81.5 25.5t-38.5 76.5q0 11 7 20t16.5 23t19 36
t14.5 59h188q23 0 48 -9t48 -22.5t42 -29t31 -28.5q37 -42 48 -83q29 53 29 82v24l172 49v-560l-172 109v163q-40 -35 -89 -57.5t-99.5 -35.5t-100 -18t-91.5 -5q-48 0 -79.5 4t-39.5 4h-3zM767 622v-51h-777v51h373q7 8 15 21.5t8 30.5q0 21 -11.5 36.5t-31.5 26t-46 15.5
t-55 5t-56 -3t-48.5 -6.5t-34.5 -6.5t-13 -4h-2l-38 43q-1 0 25.5 6.5t66.5 15t87 15.5t86 8q78 -2 132.5 -16t88.5 -36t49 -50t15 -57q0 -6 -0.5 -11.5t-1.5 -11.5l-177 -21h346z" />
    <glyph glyph-name="u_beng" unicode="&#x989;" horiz-adv-x="697" 
d="M235 321v250h-245v51h355q8 8 15 21t7 30q0 21 -11.5 37t-31 26.5t-45.5 15.5t-55 5q-48 0 -86.5 -6t-67.5 -14l-38 43q-1 0 25.5 6.5t66.5 15t87 15.5t86 8q78 -2 132.5 -16t88.5 -36t49 -50t15 -58q0 -6 -0.5 -11.5t-1.5 -11.5l-176 -20h303v-51h-308v-202
q40 23 58.5 42.5t26.5 36.5l125 -34v1q41 -82 41 -154q0 -63 -25.5 -113t-68.5 -84.5t-100 -53t-121 -18.5q-39 0 -79.5 8.5t-80 27.5t-77.5 49t-72 73l97 261q19 -79 49 -130t64.5 -80.5t70 -41t66.5 -11.5q37 0 64.5 12t45 31.5t26 42.5t8.5 46q0 3 -1 9.5t-4 21.5
q-10 -13 -27 -25t-36.5 -22.5t-40 -18t-37.5 -10.5l-59 37z" />
    <glyph glyph-name="uu_beng" unicode="&#x98a;" horiz-adv-x="697" 
d="M235 321v250h-245v51h359q7 8 15 21.5t8 30.5q0 21 -12.5 36.5t-32.5 25.5t-46.5 15t-54.5 5q-29 0 -56.5 -3t-48.5 -7l-47 -9l-38 43q-1 0 25.5 7t66.5 15t87 15t86 7q78 0 132.5 -14t88 -36.5t49 -51t15.5 -57.5q0 -6 -0.5 -11.5t-1.5 -11.5l-175 -20h298v-51h-308
v-202q25 14 41.5 28t26 25.5t13 18.5l3.5 7l126 -34v1q41 -85 41 -152q0 -63 -25 -113t-68 -85.5t-100.5 -54t-121.5 -18.5q-39 0 -79.5 8.5t-80 27.5t-77.5 49t-72 73l14 37q20 -25 44.5 -44t46.5 -33q26 -16 51 -29q-92 82 -126 150l67 180q19 -79 49 -130t64.5 -80.5
t70 -41t66.5 -11.5q35 0 62 11.5t45 30t27.5 41t9.5 44.5v8.5t-1 8.5l-4 16l-12 -10q0 -1 -1 -1l-22 -16q-26 -19 -53 -29.5t-54 -16.5l-59 37z" />
    <glyph glyph-name="vocalicr_beng" unicode="&#x98b;" horiz-adv-x="979" 
d="M458 156v204q-45 -28 -91.5 -58.5t-97.5 -63.5q46 -13 93 -33.5t96 -48.5zM752 295v352l160 28v-53h77v-51h-77v-603l-115 94q-20 49 -43.5 81t-47.5 52t-47 30.5t-41 15.5v-273l-23 19q-114 84 -229.5 116.5t-232.5 32.5l-86 163q5 3 36 22.5t75 46.5t95 57.5t96 55.5
l-21 28q-32 -42 -71.5 -62t-90.5 -20q-12 0 -22.5 1.5t-16.5 5.5l-86 67q11 21 15 38.5t4 31.5q0 13 -2 22.5t-2 17.5q0 10 7 18.5t17 14t20.5 8.5t18.5 3q16 0 32.5 -6t29.5 -16.5t21 -25t8 -32.5q0 -20 -9 -40t-23 -28q38 9 57.5 31t19.5 48q0 23 -15 44l125 28l93 -126
v110l160 33v-347q77 0 134 -33z" />
    <glyph glyph-name="e_beng" unicode="&#x98f;" horiz-adv-x="655" 
d="M429 156v263l-3 27q0 2 -6 15t-16.5 27.5t-26 26t-33.5 11.5q-20 0 -33.5 -9t-13.5 -8l-16 -12q26 -8 47.5 -28.5t21.5 -48.5q0 -18 -10.5 -36.5t-29.5 -34.5t-44.5 -26t-55.5 -10q-11 0 -27 3.5t-31 10t-25.5 16.5t-10.5 24q0 11 5 27.5t5 38.5q0 16 -3.5 34t-13.5 40
l107 99q36 8 69 11.5t62 3.5q33 0 59 -3.5t44 -8.5q35 -10 60.5 -32t42.5 -45t25.5 -42.5t9.5 -23.5l1 -496l-16 13q-78 55 -165 79t-193 24q-112 0 -168 -41l50 209q1 1 10 1q15 0 47.5 -4t76 -15t94.5 -30t104 -50z" />
    <glyph glyph-name="ai_beng" unicode="&#x990;" horiz-adv-x="837" 
d="M429 157v262l-2 27q-1 3 -7 15.5t-16.5 27t-25.5 26t-34 11.5q-21 0 -34 -9t-13 -8l-15 -12q26 -8 47.5 -28t21.5 -48q0 -17 -10 -36t-28.5 -35t-44.5 -26.5t-57 -10.5q-12 0 -28 3.5t-31 10.5t-25.5 17.5t-10.5 24.5q0 11 5 27.5t5 37.5q0 16 -3.5 34t-13.5 39l107 99
q36 8 69 11.5t62 3.5q33 0 59.5 -3.5t44.5 -8.5q35 -10 60.5 -32t42 -45t25 -42.5t9.5 -23.5v-93q20 18 36.5 48t16.5 64q0 25 -10 50.5t-23.5 48.5t-28 42t-25.5 31l-16 17l204 -28q20 -32 33.5 -68t13.5 -74q0 -29 -10 -58.5t-33 -57t-61.5 -53.5t-95.5 -48v-317l-16 13
q-78 55 -164.5 79t-192.5 24q-113 0 -169 -41l51 209h3q2 0 3.5 0.5t3.5 0.5q16 0 48 -4t74.5 -14.5t93.5 -29.5t105 -50z" />
    <glyph glyph-name="o_beng" unicode="&#x993;" horiz-adv-x="638" 
d="M408 134q26 8 44.5 25t18.5 37q0 11 -10 23t-28 12q-15 0 -31 -7.5t-29.5 -16.5t-22.5 -16l-9 -7l-119 54v6q0 28 18.5 56t41 56t41 55t18.5 53q0 11 -5.5 24t-16 23.5t-25.5 17.5t-33 7q-4 0 -6 -0.5t-4 -0.5h-4q17 -8 27 -23.5t10 -35.5q0 -11 -6 -26t-18 -28.5
t-31 -23t-46 -9.5q-42 0 -70 28t-33 73q0 10 10 19t23 22.5t26 34.5t19 56h143q17 -1 44.5 -10.5t53.5 -27.5t45 -44.5t19 -60.5q0 -30 -10 -62t-22 -59l-11 -24q35 -5 66 -17.5t54.5 -32.5t37 -47.5t13.5 -62.5q0 -26 -11.5 -59t-40 -62t-77.5 -48.5t-125 -19.5
q-66 0 -122.5 23t-98.5 51t-66 50.5l-24 22.5l79 182q30 -59 62.5 -96t64 -57.5t61 -28t53.5 -7.5q20 0 35.5 3t26.5 6z" />
    <glyph glyph-name="au_beng" unicode="&#x994;" horiz-adv-x="709" 
d="M407 134q26 8 45 25t19 37q0 11 -10 23t-28 12q-15 0 -31.5 -7.5t-30 -16.5t-22 -16l-8.5 -7l-119 54v6q0 28 18.5 56t41 56t41 55t18.5 53q0 10 -5.5 23t-16 23.5t-25 18t-33.5 7.5q-7 0 -11 -0.5t-3 -0.5q16 -7 26 -23t10 -36q0 -11 -5.5 -26t-17.5 -28.5t-31 -23
t-46 -9.5q-42 0 -70.5 28t-33.5 73q0 10 10.5 18.5t24 22t26 35t17.5 56.5h144q21 -2 51 -14t57 -33t46.5 -51t19.5 -68q0 -40 -22 -77q26 15 47.5 44t21.5 66q0 26 -10 50t-25 46t-33 41t-35 34l199 -30q19 -29 31 -57t12 -55q0 -24 -10 -45t-33 -42t-60.5 -43.5
t-92.5 -49.5q-5 -5 -5 -7q0 -4 8 -7q54 -16 88.5 -54.5t34.5 -95.5q0 -26 -11.5 -58.5t-40 -61.5t-77.5 -49t-125 -20q-65 0 -122 23t-99 51t-66 50.5l-24 22.5l79 182q30 -59 62.5 -96t64 -57.5t61 -28t53.5 -7.5q20 0 35.5 3t25.5 6z" />
    <glyph glyph-name="ka_beng" unicode="&#x995;" horiz-adv-x="939" 
d="M784 497q43 -30 72.5 -70.5t35.5 -74.5l-1 -144q-38 -7 -61.5 -17t-38.5 -19.5t-25 -16t-22 -6.5q-60 0 -87.5 28.5t-27.5 74.5q0 24 8 42t21 30t28 18t30 6q20 0 36.5 -8.5t24.5 -24.5l2 7q1 3 2 8t1 10q0 23 -16.5 40t-40 28.5t-49.5 17t-45 5.5q-5 0 -9.5 -0.5
t-9.5 -0.5v-456l-22 17q-56 43 -114.5 71t-117 45.5t-116 27t-111.5 15.5l-84 161l68 45q32 21 74 47.5t87.5 53t91.5 50.5t86 41v23h-464v51h959v-51h-337v-14q107 -15 172 -60zM454 365q-51 -28 -101 -59.5t-104 -66.5q49 -11 100 -30.5t105 -48.5v1v204z" />
    <glyph glyph-name="kha_beng" unicode="&#x996;" horiz-adv-x="711" 
d="M486 160v483l158 32v-53h77v-51h-77v-597l-32 25q-54 42 -108.5 72t-113.5 50.5t-124.5 32.5t-140.5 17h-3l-76 145q39 -6 65 -6q36 0 70 7.5t60.5 23t43.5 40t20 58.5q-17 -22 -50 -42.5t-78 -20.5q-18 0 -31.5 2.5t-21.5 5.5l-94 74q12 23 16.5 42t4.5 34q0 14 -2 24
t-2 19q0 13 8 22.5t19.5 15.5t23 9t18.5 3q19 0 37 -7.5t32 -19.5t22.5 -28.5t8.5 -34.5q0 -19 -8.5 -34.5t-22.5 -23.5q48 11 69 39.5t21 71.5q0 7 -0.5 13.5t-1.5 14.5h5q18 -3 43.5 -18.5t49.5 -41.5t40.5 -62t16.5 -80q0 -55 -25.5 -103t-67.5 -82q32 -13 63 -26t62 -30
z" />
    <glyph glyph-name="ga_beng" unicode="&#x997;" horiz-adv-x="695" 
d="M465 569v74l163 31v-52h77v-51h-77v-592l-163 103v307q-20 57 -63.5 90t-109.5 33q-55 0 -111 -38q53 -3 92.5 -16.5t65 -34.5t38 -48.5t12.5 -58.5q0 -42 -21 -85t-63 -83l-210 96q22 9 45 21.5t42 27t31 29.5t12 29q0 17 -23 27t-80 15l-75 46v91q12 22 37 39.5
t58 29.5t70.5 18.5t75.5 6.5q13 0 33.5 -2t44.5 -8t49.5 -16.5t49.5 -28.5z" />
    <glyph glyph-name="gha_beng" unicode="&#x998;" horiz-adv-x="689" 
d="M464 161v410h-178q-74 -65 -74 -111q0 -36 50 -36q24 0 60 9q9 4 18.5 6.5t17.5 2.5q15 0 26 -11l41 -97q-35 -22 -68.5 -45.5t-66.5 -49.5q67 -21 138 -57zM192 362q-161 4 -161 96q0 49 52 113h-93v51h709v-51h-77v-597l-30 24q-51 41 -100 66.5t-100.5 39.5
t-108.5 18.5t-124 4.5l-112 143l36 22q9 6 17 11.5t19 13t28.5 18t44.5 27.5z" />
    <glyph glyph-name="nga_beng" unicode="&#x999;" horiz-adv-x="694" 
d="M376 500q29 1 48.5 6t31 12t16 15.5t4.5 17.5q0 16 -6.5 25t-15 14t-17.5 6.5t-13 1.5q-12 0 -21 -5t-15 -11.5t-8.5 -12.5t-2.5 -9l-1 -1v-59zM510 285q-16 -9 -36 -16.5t-41.5 -13.5t-43 -10t-41.5 -6l-134 84v136q-48 8 -78.5 15t-54.5 14l-20 78q26 -10 61 -22
t92 -26v76q9 22 32 36t50 22.5t53 12t40 4.5h12q6 0 11.5 0.5t10.5 0.5q45 0 81.5 -11t63 -28.5t40.5 -39t14 -43.5q0 -27 -24 -46.5t-60.5 -32t-80 -18t-81.5 -5.5v-91q29 8 49 15.5t33 14.5l25 13l144 -33q20 -54 20 -99q0 -57 -24 -106t-66 -85.5t-99.5 -57t-124.5 -20.5
q-78 0 -158.5 35.5t-148.5 121.5l96 258q19 -78 48.5 -128t63 -79.5t69 -40.5t65.5 -11q38 0 66 11.5t46 28.5t27 36.5t9 36.5q-1 11 -6 19z" />
    <glyph glyph-name="ca_beng" unicode="&#x99a;" horiz-adv-x="611" 
d="M229 428v-212q79 67 165 144q-38 11 -83.5 27.5t-81.5 40.5zM-10 571v51h631v-51h-392v-62q25 -16 49.5 -24.5t54 -14.5t66 -11.5t85.5 -15.5l80 -157q-1 -1 -23 -21t-56 -49.5t-74.5 -64t-78 -64.5t-66.5 -51t-40 -23q-11 0 -27 4.5t-33.5 12t-35.5 17t-32 17.5l-31 18
v489h-77z" />
    <glyph glyph-name="cha_beng" unicode="&#x99b;" horiz-adv-x="616" 
d="M229 326q67 28 131 82q-27 2 -60 13t-71 30v-125zM289 76l267 -132l-25 -60l-482 197l-2 178q43 -35 91 -47.5t106 -12.5q35 0 65.5 5t53.5 14.5t36 22t13 27.5q0 9 -8 20q-37 -20 -79 -35.5t-85 -15.5q-11 0 -36 6.5t-52 14.5t-50.5 16t-31.5 11h-3v286h-77v51h636v-51
h-397v-66q70 -33 185 -39l84 -114q0 -1 -1 -1q72 -51 72 -104q0 -36 -24 -67t-63.5 -53.5t-90 -36t-102.5 -14.5z" />
    <glyph glyph-name="ja_beng" unicode="&#x99c;" horiz-adv-x="919" 
d="M494 241l-7 -2q-41 -9 -83 -9q-41 0 -74 9q-21 8 -43 20.5t-41 30t-31.5 38.5t-14.5 46q1 37 10 69t22 57.5t26.5 43.5t23.5 27h-292v51h939v-51h-421q5 -29 17.5 -46.5t29 -28t35.5 -14t38 -3.5t35.5 2.5t27.5 4.5l161 48v-555l-171 107v313q-35 -5 -72 -6
q-118 9 -185 84q-23 -37 -38 -70.5t-20 -68.5q19 -6 39 -6t38 4.5t31.5 10.5t22 10.5t10.5 4.5l125 -53q3 -18 5 -35t2 -33q0 -54 -21.5 -99.5t-60.5 -79t-92.5 -52t-117.5 -18.5q-41 0 -83 9t-83 28.5t-80.5 50t-74.5 74.5l96 258q20 -78 50 -128t63.5 -79t68.5 -40.5
t65 -11.5q25 0 47.5 6.5t40 18.5t27.5 28t10 35z" />
    <glyph glyph-name="jha_beng" unicode="&#x99d;" horiz-adv-x="974" 
d="M459 160v287q-55 -43 -112.5 -90.5t-118.5 -99.5q51 -13 109.5 -36t121.5 -61zM750 300v343l157 32v-53h77v-51h-77v-597l-112 93q-20 49 -43.5 81t-47.5 52t-46.5 30t-41.5 15v-271l-16 13q-54 44 -105 74t-106 50.5t-117.5 33.5t-140.5 24l-84 161l12 10q6 5 15 12
t21 18l116 96q34 28 67.5 54t65.5 51h-354v51h626v-291q45 -5 76.5 -12t57.5 -19z" />
    <glyph glyph-name="nya_beng" unicode="&#x99e;" horiz-adv-x="934" 
d="M699 203q35 0 60 12.5t25 37.5q0 9 -3 18l-8 1q-15 -27 -50 -27q-33 0 -53 20t-20 48q0 43 50 76q4 0 21 -6l1 13v6q0 19 -11.5 30.5t-27.5 11.5q-23 0 -43.5 -15t-31.5 -32l1 -173q40 -21 90 -21zM450 178q0 72 0.5 119t0.5 79q0 31 -1 49t-3.5 29t-7.5 18.5t-13 18.5
q-27 36 -60 36q-19 0 -33 -8l-29 -19q26 -8 47.5 -29t21.5 -48q0 -21 -12 -40t-31.5 -34t-44.5 -24t-51 -9q-15 0 -32 4.5t-30.5 12t-22.5 17.5t-9 22q0 11 5 26.5t5 38.5q0 38 -16 71l105 98q68 16 129 16q93 0 147.5 -33t77.5 -87q50 44 105 44q19 0 40 -7.5t38 -19.5
t28 -28t11 -34q0 -40 -22 -80l16 3l65 -58q13 -25 13 -56q0 -32 -17.5 -59.5t-46 -47t-66.5 -30.5t-78 -11q-16 0 -33.5 1.5t-36.5 5.5v-134l-16 12q-140 104 -349 104q-118 0 -218 -33l96 199l24 -1q84 -4 159.5 -28.5t144.5 -65.5z" />
    <glyph glyph-name="tta_beng" unicode="&#x99f;" horiz-adv-x="649" 
d="M229 193q9 -1 20.5 -2.5t21.5 -3t17.5 -2.5t10.5 -1q54 0 96.5 14.5t74.5 54.5q10 13 10 31q0 8 -2 15.5t-4 12.5q-8 -17 -29 -27t-47 -10q-43 0 -74.5 25t-31.5 74q0 54 37.5 89.5t113.5 35.5q13 -2 24.5 -14t28 -27t41.5 -30t65 -23l1 -135q-9 -48 -41.5 -90t-82 -73
t-113 -49t-133.5 -18q-26 0 -67.5 8t-98.5 34v489h-77v51h390q20 20 20 48q0 38 -39.5 60.5t-102.5 22.5q-25 0 -51 -2.5t-52 -7.5l-50 -9l-37 42q57 15 126.5 29.5t136.5 14.5q64 0 116.5 -11t89 -31.5t56.5 -50t20 -65.5q0 -6 -0.5 -11.5t-1.5 -10.5l-157 -18h205v-51
h-430v-378z" />
    <glyph glyph-name="ttha_beng" unicode="&#x9a0;" horiz-adv-x="600" 
d="M258 178q21 -6 42 -6q28 0 51 9.5t39 25t24.5 34.5t8.5 38q0 34 -13.5 70t-32.5 65q0 -1 -13 14t-31 36t-39 44.5t-38 39.5l-24 23h-242v51h192q-29 32 -48.5 71t-19.5 74q0 49 41 102l224 5h-1q0 -1 -1 -1l-17 -13q-13 -10 -30.5 -26.5t-34 -38t-28 -47t-11.5 -52.5
q0 -18 6 -36.5t21 -37.5h327v-51h-272l62 -54q40 -35 69 -65.5t47.5 -61.5t27.5 -64.5t9 -75.5q0 -51 -20.5 -94.5t-58 -76t-89 -50.5t-112.5 -18q-54 0 -110 16.5t-116 54.5l35 255q11 -18 23 -33.5t23 -28.5q16 3 39.5 11t45 21.5t36.5 34t15 47.5q0 21 -7.5 39.5
t-17.5 34t-19 28t-13 20.5l-3 3l27 42l3 -3q3 -5 14.5 -18t26 -30t29 -37.5t23.5 -40.5q12 -26 17 -50.5t5 -45.5q0 -45 -19.5 -79.5t-71.5 -73.5z" />
    <glyph glyph-name="dda_beng" unicode="&#x9a1;" horiz-adv-x="691" 
d="M232 323v248h-241v51h710v-51h-306v-199q24 13 40.5 27t26 25.5t13.5 18.5l4 7l125 -34q39 -80 39 -151q0 -62 -24.5 -112t-67 -84.5t-98.5 -53t-119 -18.5q-79 0 -159.5 35.5t-148.5 121.5l95 258q19 -78 49 -128t63.5 -79.5t68.5 -40.5t65 -11q39 0 67 12t45 31.5
t25 43t8 46.5q0 5 -2.5 9.5t-11.5 6.5l-24 -18q-1 0 -2 -1q-26 -17 -52.5 -28t-52.5 -16l-59 37z" />
    <glyph glyph-name="ddha_beng" unicode="&#x9a2;" horiz-adv-x="650" 
d="M229 193l48 -8q5 0 10.5 -0.5t11.5 -0.5q54 0 97 13.5t74 55.5q6 7 8 15t2 15q0 6 -1 11t-2 9l-3 9q-8 -17 -29 -27t-47 -10q-19 0 -38 6t-34 18.5t-24.5 31.5t-9.5 45q0 52 38 87.5t113 35.5q13 -2 24.5 -14t28.5 -27.5t42 -30.5t65 -22l1 -135q-7 -38 -34.5 -79
t-74 -74.5t-111 -55t-144.5 -21.5h-13q1 0 -14 1.5t-38.5 5.5t-50.5 11.5t-49 19.5l-8 4v489h-77v51h670v-51h-431v-378z" />
    <glyph glyph-name="nna_beng" unicode="&#x9a3;" horiz-adv-x="665" 
d="M436 573v70l162 31v-52h77v-51h-77v-597l-162 106v274q-7 29 -22 54.5t-36 44t-47.5 29.5t-57.5 11q-15 0 -34.5 -5t-37 -14t-30 -21.5t-12.5 -27.5q0 -10 3 -16t3 -5q9 20 31.5 36t50.5 16q11 0 27.5 -6t32.5 -18.5t27 -33t11 -49.5q0 -23 -9.5 -43.5t-26.5 -37
t-41 -27.5t-52 -14q-12 0 -23.5 10.5t-29.5 24t-45.5 26t-70.5 17.5v154q2 16 17 44t44 54t71.5 45.5t99.5 19.5q80 0 151 -45z" />
    <glyph glyph-name="ta_beng" unicode="&#x9a4;" horiz-adv-x="751" 
d="M761 622v-51h-771v51h771zM690 215q-19 -42 -38 -65l-19 -23q-39 -43 -103 -69t-145 -26q-58 0 -106.5 13.5t-88.5 33.5t-70.5 43t-51.5 43t-31.5 33t-10.5 12l119 290q17 -85 43.5 -143t59.5 -94t71 -51.5t77 -15.5q38 0 70 11.5t55 30t35.5 42t12.5 46.5q0 38 -16 61
t-35.5 35t-36.5 15.5t-18 3.5l7.5 -7t15.5 -19.5t15 -29.5t7 -36q0 -15 -8 -34t-22.5 -35t-35.5 -27t-47 -11q-25 0 -48 9t-41 24t-29 34t-11 39q0 9 1.5 17t6.5 18q26 54 33.5 85.5t7.5 48.5q0 11 -1.5 15t-1.5 5h227q85 -45 125 -108t40 -135q0 -35 -14 -79z" />
    <glyph glyph-name="tha_beng" unicode="&#x9a5;" horiz-adv-x="731" 
d="M505 161v482l159 32v-53h77v-51h-77v-597l-24 18q-54 42 -111 71.5t-119.5 50t-130 34t-142.5 24.5q-2 -1 -14 -1l-76 145q37 -6 66 -6q44 0 83 9t68.5 26t46.5 42t17 57q0 13 -5 28t-15.5 27.5t-25.5 20.5t-35 8q-8 0 -13 -0.5t-4 -0.5q17 -8 28 -25t11 -38
q0 -12 -6 -27.5t-19 -30t-33.5 -24.5t-49.5 -10q-45 0 -75 29.5t-35 77.5q0 10 9.5 19.5t21.5 24.5t24.5 38t18.5 59h162q21 -2 50 -19.5t55.5 -46t44.5 -65.5t18 -78q0 -54 -26.5 -100t-74.5 -79q63 -23 126 -57z" />
    <glyph glyph-name="da_beng" unicode="&#x9a6;" horiz-adv-x="629" 
d="M400 285q-8 -10 -17 -20t-19 -20l-18 -18q-1 0 -1 -1q-58 -55 -116 -89h-162v434h-77v51h649v-51h-410v-293q46 38 78.5 79t53 74t30 54.5t9.5 20.5h162v-527l-162 103v203z" />
    <glyph glyph-name="dha_beng" unicode="&#x9a7;" horiz-adv-x="679" 
d="M454 158v203q-101 -59 -201 -123q46 -11 99 -31t102 -49zM182 393q-43 26 -68 68.5t-25 105.5q3 45 20 80.5t34 47.5l126 70q20 -27 38.5 -40t34 -18.5t28.5 -7t22 -6.5t14 -16t5 -36q0 -23 -9.5 -43t-25.5 -35t-35.5 -24t-40.5 -9q-45 0 -64 19.5t-19 43.5q0 27 18 48
q-1 0 -7.5 -1t-14.5 -7t-14.5 -19t-6.5 -37q0 -45 30 -66t75 -21q40 0 80 19t77 45v89l158 32v-53h77v-51h-77v-597l-29 23q-54 43 -102.5 66.5t-100.5 38t-112 24t-137 24.5l-84 161l72 44z" />
    <glyph glyph-name="na_beng" unicode="&#x9a8;" horiz-adv-x="664" 
d="M435 446v125h-445v51h445v21l162 31v-52h77v-51h-77v-597l-162 106v126q-8 37 -25 66t-39.5 49t-48.5 30t-52 10q-18 0 -37.5 -7t-35.5 -18t-26 -26t-10 -31q0 -10 1 -11l2 -4q9 20 32 35t51 15q11 0 27.5 -5.5t32 -18.5t26.5 -33t11 -48q0 -21 -9.5 -42.5t-26.5 -39.5
t-41 -29.5t-54 -11.5q-12 0 -22.5 10.5t-27.5 24t-44 26.5t-72 18v152q2 18 17.5 47.5t45 57.5t73.5 48t103 20q78 0 147 -42z" />
    <glyph glyph-name="pa_beng" unicode="&#x9aa;" horiz-adv-x="629" 
d="M351 475q-52 49 -115 49q-28 0 -56 -9q49 -51 62 -104zM400 568v75l162 31v-52h77v-51h-77v-592l-162 103v303l-167 -97q-14 -29 -35 -50l-172 75q29 28 49.5 63t20.5 70q0 42 -37 80t-129 61l38 42q76 -22 131 -52l-14 32q15 4 33 7t36 4.5t35 2.5t29 1q13 0 33 -2
t44.5 -8t51.5 -17t53 -29z" />
    <glyph glyph-name="pha_beng" unicode="&#x9ab;" horiz-adv-x="927" 
d="M459 161v319q68 38 148 38q62 0 110 -14.5t82.5 -37.5t54.5 -51t26 -54v-144q-35 -6 -58 -17.5t-38 -23t-25 -20t-20 -8.5q-54 8 -73.5 31t-19.5 61q0 28 7.5 49t19 34.5t25.5 20t27 6.5q17 0 32 -9t22 -26q0 1 1.5 6t1.5 13q0 18 -11.5 32t-28.5 23.5t-35.5 14.5
t-32.5 5q-30 0 -57 -12v-423l-33 26q-52 40 -100.5 67t-101.5 45.5t-114 31.5t-137 25l-84 161q-1 0 17.5 11t48 28t67 38t74.5 41q-35 75 -93 123h-171v51h90q-12 6 -24.5 12t-26.5 11l41 43q67 -27 135 -66h732v-51h-656q61 -46 98 -100.5t37 -115.5v-3l-73 -43
q-24 -14 -49.5 -27.5t-48.5 -29.5q48 -14 105 -36.5t109 -54.5z" />
    <glyph glyph-name="ba_beng" unicode="&#x9ac;" horiz-adv-x="683" 
d="M458 161v286q-55 -43 -112 -90.5t-118 -99.5q51 -13 109 -35.5t121 -60.5zM131 169l-84 161l12 10q6 5 15 12t21 18l116 96q67 55 132 105h-353v51h703v-51h-77v-597l-33 26q-52 41 -101 68t-102 45.5t-113.5 31t-135.5 24.5z" />
    <glyph glyph-name="bha_beng" unicode="&#x9ad;" horiz-adv-x="691" 
d="M500 254q-27 -11 -56.5 -18.5t-58.5 -7.5q-36 0 -70.5 12.5t-61.5 34.5t-43.5 53t-16.5 69q0 26 9 52.5t27.5 48.5t45.5 35.5t63 13.5q24 0 44 -8t34.5 -21.5t22 -31.5t7.5 -37q0 -38 -23.5 -59.5t-54.5 -21.5q-32 0 -50.5 18t-18.5 38q0 5 5 18h-4q-7 -13 -7 -26
q0 -10 5.5 -21.5t16 -22t27 -17.5t39.5 -7q40 0 85.5 30.5t90.5 108.5l5 -3q22 -17 37.5 -41t25.5 -51t14.5 -53.5t4.5 -48.5q0 -62 -24.5 -112t-67 -85t-99.5 -53.5t-121 -18.5q-39 0 -79 8.5t-79.5 27t-77 48.5t-70.5 73l95 258q20 -79 50 -129.5t63.5 -79.5t69 -40
t65.5 -11q41 0 74 14.5t57 63.5zM701 622v-51h-711v51h711z" />
    <glyph glyph-name="ma_beng" unicode="&#x9ae;" horiz-adv-x="699" 
d="M470 357v214h-172q54 -42 76.5 -82t22.5 -85v-12q38 -12 73 -35zM236 401q3 16 3 33q0 36 -17.5 70.5t-59.5 66.5h-172v51h82l-38 16l41 43q42 -14 76 -29t63 -30h495v-51h-77v-592l-162 103v39q-5 29 -22 59t-42 55t-57 40.5t-66 15.5q-24 0 -40 -5t-25.5 -12.5t-14 -16
t-4.5 -14.5q0 -10 2 -11q12 13 31.5 21t42.5 8q15 0 33.5 -6t35 -18.5t28 -33.5t11.5 -51q0 -21 -10.5 -40.5t-28.5 -35t-43 -24.5t-55 -9q-22 0 -39.5 4.5t-32.5 30.5q-12 20 -41 46t-86 48l43 146q10 20 48 45t98 38z" />
    <glyph glyph-name="ya_beng" unicode="&#x9af;" horiz-adv-x="684" 
d="M459 161v410h-181q63 -48 100 -101t37 -116v-2l-72 -43q-24 -14 -49.5 -27.5t-48.5 -29.5q48 -13 105.5 -36t108.5 -55zM47 330q1 0 1 1h1q6 4 25.5 16t48 28.5t63 36t70.5 37.5q-36 74 -96 122h-170v51h85l-38 17l40 43q29 -13 59 -28t62 -32h496v-51h-77v-597l-33 26
q-51 40 -100.5 67t-102.5 45.5t-113.5 31.5t-135.5 25z" />
    <glyph glyph-name="ra_beng" unicode="&#x9b0;" horiz-adv-x="685" 
d="M459 158v289q-55 -43 -112.5 -90.5t-117.5 -99.5q42 -11 88 -28.5t97 -42.5zM47 330l12 10q6 5 15 12t21 18l117 96l132 105h-354v51h705v-51h-77v-597l-34 27q-99 78 -196 110q-8 34 -29 51t-41 17q-11 0 -22 -2.5t-19 -2.5q-11 0 -18 1.5t-8 1.5l-10 2l-7 -7
q0 -1 -4 -6t-8 -13q-21 4 -43.5 8t-46.5 8zM310 162q1 1 8 1q11 0 21 -7t18 -17.5t12.5 -24.5t4.5 -27q0 -26 -21.5 -44.5t-56.5 -18.5q-18 0 -32 6.5t-23.5 16.5t-14.5 22.5t-5 23.5q0 23 8 39.5t18 27.5q2 0 10 -1.5t19 -1.5q8 0 16.5 1t17.5 4z" />
    <glyph glyph-name="la_beng" unicode="&#x9b2;" horiz-adv-x="822" 
d="M593 415v156h-603v51h842v-51h-77v-592l-162 103v159q-13 8 -24 11.5t-21 3.5q-18 0 -31.5 -11t-23 -26.5t-15 -32t-7.5 -27.5l-4 -18l-124 70q0 57 -13.5 99t-59.5 65q-13 6 -24 8t-19 3q-12 0 -26 -5t-27 -13.5t-21.5 -20.5t-8.5 -26q0 -8 1.5 -12.5t1.5 -3.5
q8 18 26 31.5t41 13.5q9 0 23 -5.5t27 -17t22.5 -30t9.5 -45.5q0 -42 -30 -71.5t-78 -35.5q-10 0 -19 9.5t-24 22.5t-38 25t-60 17l2 138q1 10 8 25t18.5 31.5t28 32t37.5 27.5q63 30 118 30q67 0 118 -37.5t77 -95.5q45 51 100 51q19 0 39 -6z" />
    <glyph glyph-name="sha_beng" unicode="&#x9b6;" horiz-adv-x="835" 
d="M606 531v111l162 32v-52h77v-51h-77v-574l-162 102l-1 257q-5 28 -18 49t-30.5 34.5t-38.5 20.5t-42 7q-19 0 -38.5 -6t-35.5 -18t-26 -29.5t-10 -40.5q0 -15 6 -27.5t15.5 -22t20.5 -15.5t22 -7l-2 3q-14 5 -25 21t-11 35q0 16 8 28t20 19.5t25 11.5t24 4
q38 0 60.5 -27.5t22.5 -67.5q0 -27 -12 -48.5t-31 -36.5t-42 -22.5t-45 -7.5q-54 0 -90.5 27t-50.5 69q-29 -29 -60 -38.5t-57 -9.5q-21 0 -42 7t-38 20.5t-27.5 34t-10.5 47.5q0 19 5 37t5 35q0 11 -3 21t-11 21q0 1 7 5t18.5 8t26 7t30.5 3q12 0 27 -3.5t28 -12t22 -23
t9 -36.5q0 -20 -9.5 -38.5t-28.5 -30.5l-2 -3q26 2 47.5 23t21.5 56q0 46 -21 72.5t-51 40t-63.5 17t-58.5 3.5q-6 0 -12.5 -0.5t-12.5 -0.5h-30v51h105q15 -1 47 -4.5t68 -14t70.5 -31t54.5 -56.5q36 27 76 38t70 11q8 0 22.5 -1t31.5 -4.5t35.5 -10t35.5 -18.5z" />
    <glyph glyph-name="ssa_beng" unicode="&#x9b7;" horiz-adv-x="684" 
d="M459 161v155q-33 17 -58 27l-156 -91q48 -13 105.5 -36t108.5 -55zM459 400v171h-182q85 -63 123 -141l52 -26q2 -1 3.5 -2t3.5 -2zM78 680q30 -13 60 -27t60 -31h496v-51h-77v-597l-33 26q-51 40 -100.5 67t-102.5 45.5t-113.5 31.5t-135.5 25l-85 161q1 0 1 1h1
q6 4 26 16t48.5 28.5t63.5 36t70 37.5q-19 38 -43.5 68.5t-53.5 53.5h-170v51h83q-8 4 -16.5 7.5t-18.5 7.5z" />
    <glyph glyph-name="sa_beng" unicode="&#x9b8;" horiz-adv-x="677" 
d="M0 160q59 20 97.5 45.5t61.5 54t32 58t9 58.5q0 61 -28 112t-73 83h-109v51h34l-30 19l54 33q26 -11 53 -24t55 -28h531v-51h-77v-592l-161 103v81q-45 61 -87 75q-32 -116 -144 -192zM449 571h-210q30 -21 53.5 -49t40 -58.5t26 -62.5t11.5 -62q35 -9 79 -32v1v263z" />
    <glyph glyph-name="ha_beng" unicode="&#x9b9;" horiz-adv-x="594" 
d="M577 13l-117 -103l-460 218l80 165q48 -26 90.5 -35.5t77.5 -9.5q34 0 63 8t49.5 22t32 33t11.5 41q0 33 -33 68q-9 9 -21.5 15t-23.5 9t-18.5 4.5l-7.5 1.5l-8 -9q14 -20 14 -39q0 -20 -10.5 -37t-27 -29.5t-36.5 -19.5t-39 -7q-46 0 -80 24t-40 75q1 11 8.5 20.5
t16.5 23t18 35t14 56.5h183q22 0 49 -8.5t53 -21.5t48 -28.5t34 -28.5q26 -29 37.5 -60t11.5 -62q0 -37 -15 -71.5t-42.5 -63t-67.5 -48.5t-90 -27l20 -11zM-10 571v51h614v-51h-614z" />
    <glyph glyph-name="signnuktacomb_beng" unicode="&#x9bc;" 
d="M-380 9q1 1 9 1q10 0 20 -6.5t17.5 -17t12 -24t4.5 -26.5q0 -26 -19.5 -44.5t-56.5 -18.5q-18 0 -32 7t-23.5 17.5t-14.5 22.5t-5 23q0 20 8.5 38t17.5 27l9 -2q2 -1 21 -1q20 0 32 4z" />
    <glyph glyph-name="vowelsignaa_beng" unicode="&#x9be;" horiz-adv-x="298" 
d="M231 -25l-164 106v413q-14 37 -34 57t-43 20v51h18q23 0 59 -14v35l164 30v-51h77v-51h-77v-596z" />
    <glyph glyph-name="vowelsigni_beng" unicode="&#x9bf;" horiz-adv-x="296" 
d="M-10 622h16q26 0 54 -11l7 -4v15q-14 20 -23 44.5t-9 51.5q0 26 10.5 52t36 49t69 41.5t108.5 30.5q28 5 55.5 7.5t53.5 2.5q56 0 104 -9t83 -19.5t55 -19t21 -7.5l-66 -50l-11 4.5t-30 10t-45 10.5t-56 5q-26 0 -59.5 -7t-63.5 -22.5t-51 -39.5t-21 -58q0 -24 7.5 -45
t13.5 -32h57v-51h-77v-596l-162 106v413q-10 27 -22 42.5t-22.5 23t-17 9.5l-6.5 2h-9v51z" />
    <glyph glyph-name="vowelsignii_beng" unicode="&#x9c0;" horiz-adv-x="296" 
d="M-10 622h17q23 0 53 -11l7 -3v15q-1 7 -1 14v15q0 21 2 43.5t2 43.5q0 32 -7.5 56t-27.5 35q-28 12 -54 16.5t-49 4.5q-29 0 -52 -5t-39.5 -11t-25 -11l-8.5 -5l-1 -20q-1 -14 12 -22t39 -22t64.5 -39.5t88.5 -73.5h-119q-16 21 -44 42.5t-55.5 43t-47.5 42.5t-20 42
q0 4 -0.5 7t-0.5 5q0 7 8.5 13.5t40.5 25.5q29 17 76.5 30.5t114.5 13.5q89 0 145 -16.5t87.5 -41t43 -52.5t11.5 -51q0 -20 -4.5 -39.5t-8.5 -36.5l-8 -34v-14h77v-51h-77v-596l-162 106v413q-17 42 -34 57t-34 20h-9v51z" />
    <glyph glyph-name="vowelsignucomb_beng" unicode="&#x9c1;" 
d="M-229 115l162 -56v-37q48 -16 89.5 -44t64.5 -53l-62 -121q-17 33 -37.5 56t-37.5 37.5t-28.5 20.5l-11.5 6l-2 -6t-6.5 -15.5t-11 -21t-14.5 -22.5q-27 -35 -58 -49t-65 -14q-48 0 -80.5 26.5t-32.5 75.5q0 19 13 42t33 42.5t42.5 32.5t42.5 13v87zM-221 -53
q-24 -6 -37 -20t-13 -25q0 -17 15 -17q10 0 17 8.5t11 19.5t5.5 21t1.5 13z" />
    <glyph glyph-name="vowelsignuucomb_beng" unicode="&#x9c2;" 
d="M47 -260l-9 20q-9 20 -28 43t-45 42q-56 -87 -149 -87l-15 1q-39 5 -69 32t-30 74q0 53 44 97l25 20v133l162 -56v-85q-28 -4 -51 -14t-40 -23t-26.5 -27t-9.5 -26q0 -8 5 -18t16 -10q24 0 36 17t14 34q10 10 21 18.5t22 17.5l7 6l32 -1q93 -12 161 -84l20 -21z" />
    <glyph glyph-name="vowelsignvocalicrcomb_beng" unicode="&#x9c3;" 
d="M-33 -268l-26 22q-42 32 -96.5 46t-123.5 15l-119 93l80 60l89 60v87l162 -56v-85l-31 -20q-17 -11 -40 -25.5t-50 -35.5q51 -21 85.5 -42t52.5 -38l17 -17v-64z" />
    <glyph glyph-name="vowelsigne_beng" unicode="&#x9c7;" horiz-adv-x="372" 
d="M375 571q-85 -70 -133 -147q-29 -47 -49.5 -106.5t-20.5 -141.5q0 -35 5 -62t12.5 -46.5t17.5 -33t19 -22.5l11 -10q-2 10 -2 13q0 29 23.5 46t61.5 17q18 -1 35.5 -7t31.5 -17t23 -27t9 -38q0 -5 -4 -23t-18 -37.5t-42 -35t-77 -15.5q-40 0 -80 18t-73.5 56t-58.5 98
t-36 143q-2 14 -3 28t-1 28q0 78 27 161t96 159l1 2h-160v51h439v-51h-54z" />
    <glyph glyph-name="vowelsignai_beng" unicode="&#x9c8;" horiz-adv-x="419" 
d="M191 622q1 1 1 10q0 20 -11.5 31.5t-28 17t-34.5 7t-30 1.5h-13l-22 38h3q8 0 30.5 1.5t51.5 1.5q71 0 116.5 -9.5t72 -24t36.5 -32.5t10 -34v-8h56v-51h-54q-85 -70 -133 -147q-29 -47 -49.5 -106.5t-20.5 -141.5q0 -35 5 -62t12.5 -46.5t17.5 -33t19 -22.5l11 -10
q-2 10 -2 13q0 29 23.5 46t61.5 17q18 -1 35.5 -7t31.5 -17t23 -27t9 -38q0 -5 -4 -23t-18 -37.5t-42 -35t-77 -15.5q-40 0 -80 18t-73.5 56t-58.5 98t-36 143q-2 14 -3 28t-1 28q0 76 27 159t95 163h-158v51h201z" />
    <glyph glyph-name="vowelsigno_beng" unicode="&#x9cb;" horiz-adv-x="1305" 
d="M375 571q-85 -70 -133 -147q-29 -47 -49.5 -106.5t-20.5 -141.5q0 -35 5 -62t12.5 -46.5t17.5 -33t19 -22.5l11 -10q-2 10 -2 13q0 29 23.5 46t61.5 17q18 -1 35.5 -7t31.5 -17t23 -27t9 -38q0 -5 -4 -23t-18 -37.5t-42 -35t-77 -15.5q-40 0 -80 18t-73.5 56t-58.5 98
t-36 143q-2 14 -3 28t-1 28q0 78 27 161t96 159l1 2h-160v51h439v-51h-54zM459 266q-17 0 -29.5 12t-12.5 30q0 19 12.5 30.5t29.5 11.5q18 0 30 -11.5t12 -30.5q0 -18 -12 -30t-30 -12zM919 266q-17 0 -29.5 12t-12.5 30q0 19 12.5 30.5t29.5 11.5t29.5 -11.5t12.5 -30.5
q0 -18 -12.5 -30t-29.5 -12zM646 538q0 18 13 30.5t30 12.5t29 -12.5t12 -30.5t-12 -30t-29 -12t-30 12t-13 30zM646 78q0 18 13 30.5t30 12.5t29 -12.5t12 -30.5q0 -17 -12 -29t-29 -12t-30 12t-13 29zM768 529q5 10 15.5 15.5t21.5 5.5q20 0 30 -13.5t10 -30.5
q0 -19 -13 -29.5t-28 -10.5q-17 0 -30 11.5t-13 30.5q0 11 7 21zM537 131q6 9 16.5 15t20.5 6q18 0 30 -14t12 -30q0 -19 -13.5 -30t-29.5 -11q-20 0 -30.5 13t-10.5 29q0 7 5 22zM867 459q10 7 20 7q18 0 30 -11.5t12 -30.5q0 -18 -11 -30t-31 -12q-15 0 -28.5 11t-13.5 32
t22 34zM468 230q13 5 21 5q17 0 30 -12t13 -29t-12.5 -29.5t-29.5 -12.5t-29.5 12t-12.5 29q0 22 20 37zM909 230q20 -14 20 -36q0 -19 -12 -30.5t-30 -11.5q-19 0 -30.5 12.5t-11.5 28.5q0 20 13.5 31t28.5 11q5 0 22 -5zM510 459q22 -10 22 -35q0 -19 -13 -30.5t-30 -11.5
t-29 12t-12 31q0 16 12.5 28.5t29.5 12.5q13 0 20 -7zM841 131q4 -7 4 -21q0 -16 -10 -29.5t-30 -13.5q-16 0 -30 11.5t-14 30.5q0 16 12.5 29.5t30.5 13.5q10 0 20.5 -5.5t16.5 -15.5zM611 529q5 -15 5 -20q0 -17 -12 -30t-30 -13q-16 0 -29 11.5t-13 30.5q0 16 10.5 29
t30.5 13q24 0 38 -21zM1238 -25l-164 106v413q-14 37 -34 57t-43 20v51h18q23 0 59 -14v35l164 30v-51h77v-51h-77v-596z" />
    <glyph glyph-name="vowelsignau_beng" unicode="&#x9cc;" horiz-adv-x="1305" 
d="M375 571q-85 -70 -133 -147q-29 -47 -49.5 -106.5t-20.5 -141.5q0 -35 5 -62t12.5 -46.5t17.5 -33t19 -22.5l11 -10q-2 10 -2 13q0 29 23.5 46t61.5 17q18 -1 35.5 -7t31.5 -17t23 -27t9 -38q0 -5 -4 -23t-18 -37.5t-42 -35t-77 -15.5q-40 0 -80 18t-73.5 56t-58.5 98
t-36 143q-2 14 -3 28t-1 28q0 78 27 161t96 159l1 2h-160v51h439v-51h-54zM459 266q-17 0 -29.5 12t-12.5 30q0 19 12.5 30.5t29.5 11.5q18 0 30 -11.5t12 -30.5q0 -18 -12 -30t-30 -12zM919 266q-17 0 -29.5 12t-12.5 30q0 19 12.5 30.5t29.5 11.5t29.5 -11.5t12.5 -30.5
q0 -18 -12.5 -30t-29.5 -12zM646 538q0 18 13 30.5t30 12.5t29 -12.5t12 -30.5t-12 -30t-29 -12t-30 12t-13 30zM646 78q0 18 13 30.5t30 12.5t29 -12.5t12 -30.5q0 -17 -12 -29t-29 -12t-30 12t-13 29zM768 529q5 10 15.5 15.5t21.5 5.5q20 0 30 -13.5t10 -30.5
q0 -19 -13 -29.5t-28 -10.5q-17 0 -30 11.5t-13 30.5q0 11 7 21zM537 131q6 9 16.5 15t20.5 6q18 0 30 -14t12 -30q0 -19 -13.5 -30t-29.5 -11q-20 0 -30.5 13t-10.5 29q0 7 5 22zM867 459q10 7 20 7q18 0 30 -11.5t12 -30.5q0 -18 -11 -30t-31 -12q-15 0 -28.5 11t-13.5 32
t22 34zM468 230q13 5 21 5q17 0 30 -12t13 -29t-12.5 -29.5t-29.5 -12.5t-29.5 12t-12.5 29q0 22 20 37zM909 230q20 -14 20 -36q0 -19 -12 -30.5t-30 -11.5q-19 0 -30.5 12.5t-11.5 28.5q0 20 13.5 31t28.5 11q5 0 22 -5zM510 459q22 -10 22 -35q0 -19 -13 -30.5t-30 -11.5
t-29 12t-12 31q0 16 12.5 28.5t29.5 12.5q13 0 20 -7zM841 131q4 -7 4 -21q0 -16 -10 -29.5t-30 -13.5q-16 0 -30 11.5t-14 30.5q0 16 12.5 29.5t30.5 13.5q10 0 20.5 -5.5t16.5 -15.5zM611 529q5 -15 5 -20q0 -17 -12 -30t-30 -13q-16 0 -29 11.5t-13 30.5q0 16 10.5 29
t30.5 13q24 0 38 -21zM1074 608v19q0 10 -1.5 21t-8.5 20t-22 15t-42 6q-19 0 -37.5 2t-33.5 8.5t-26 19t-16 33.5l132 59q-1 -1 -1 -2v-4q0 -6 2.5 -15.5t12 -19t27 -18t47.5 -12.5q41 -5 67 -17.5t41 -28.5t20.5 -35t5.5 -37h74v-51h-77v-599l-164 106v416
q-15 41 -32 56.5t-35 20.5h-10v51h17q25 0 53 -11z" />
    <glyph glyph-name="signviramacomb_beng" unicode="&#x9cd;" 
d="M-255 -101l101 60q16 -3 35.5 -10.5t38 -21.5t34 -36.5t24.5 -56.5l-58 -20q-76 82 -175 85z" />
    <glyph glyph-name="khandata_beng" unicode="&#x9ce;" horiz-adv-x="640" 
d="M264 -24q13 30 18.5 55t5.5 45q0 40 -18 67.5t-44.5 49t-57.5 40.5t-57.5 42.5t-44.5 54.5t-18 77q0 33 14.5 67.5t46.5 64.5t82.5 52.5t122.5 31.5l184 -1q7 -48 23 -77t32 -48t28 -31t12 -27q-3 -30 -13 -55.5t-25.5 -44.5t-36.5 -29.5t-46 -10.5q-35 0 -60 13.5
t-41.5 32.5t-24 40t-7.5 37q0 26 13 48t35 31l-2 4.5t-4 10.5t-4.5 11t-4.5 5q-5 1 -10 1h-10q-27 0 -50 -10t-39 -26t-25 -36t-9 -40q0 -43 23.5 -69t59.5 -44.5t77 -35t77 -41.5t59.5 -63t23.5 -100v-13.5t-1 -14.5z" />
    <glyph glyph-name="aulength_beng" unicode="&#x9d7;" horiz-adv-x="298" 
d="M67 608v19q0 10 -1.5 21t-8.5 20t-22 15t-42 6q-19 0 -37.5 2t-33.5 8.5t-26 19t-16 33.5l132 59q-1 -1 -1 -2v-4q0 -6 2.5 -15.5t12 -19t27 -18t47.5 -12.5q41 -5 67 -17.5t41 -28.5t20.5 -35t5.5 -37h74v-51h-77v-599l-164 106v416q-15 41 -32 56.5t-35 20.5h-10v51h17
q25 0 53 -11z" />
    <glyph glyph-name="rra_beng" unicode="&#x9dc;" horiz-adv-x="691" 
d="M312 73q1 1 10 1q24 0 39.5 -23.5t15.5 -50.5q0 -28 -20.5 -46.5t-56.5 -18.5q-19 0 -33 7t-23.5 17.5t-14.5 23t-5 23.5q0 20 8 37.5t18 28.5l9 -2q2 -1 21 -1q20 0 32 4zM233 323v248h-243v51h711v-51h-306v-199q25 13 41.5 27t26 25.5t13.5 18.5l4 7l123 -34
q41 -80 41 -150q0 -57 -20 -102t-54 -78t-79.5 -54t-97.5 -30q-3 43 -25 66t-45 23q-11 0 -22.5 -3t-21.5 -3t-16.5 1t-7.5 1l-10 3l-7 -8l-4 -5t-9 -13.5t-9.5 -19.5t-7.5 -24q-98 33 -182 134l96 258q19 -78 49 -128t63.5 -79.5t68.5 -40.5t65 -11q38 0 65.5 12t45 31
t25.5 42.5t8 46.5q0 5 -1.5 10.5t-8.5 9.5q-31 -27 -67 -43.5t-68 -22.5l-58 37z" />
    <glyph glyph-name="rha_beng" unicode="&#x9dd;" horiz-adv-x="650" 
d="M228 193q9 -1 20.5 -2.5t21.5 -3t17.5 -2.5t10.5 -1q55 0 97.5 13.5t73.5 55.5q10 13 10 26q0 8 -5 33q-8 -17 -29.5 -27t-47.5 -10q-46 0 -76 26.5t-30 74.5q0 54 38 88.5t114 34.5q13 -2 24 -14.5t28 -27.5q46 -41 108 -52v-135q-7 -39 -32 -75t-63 -65.5t-87 -51.5
t-104 -32q-4 25 -23.5 44t-42.5 19q-11 0 -22.5 -2.5t-20.5 -2.5q-13 0 -35 5q-2 -4 -10.5 -12.5t-22.5 -41.5q-41 9 -73 27v489h-77v51h670v-51h-432v-378zM224 -46q-14 0 -27 6t-23 15.5t-15.5 22t-5.5 26.5q0 11 2.5 23.5t10.5 23.5l13 19q12 -3 29 -3q11 0 21 2.5
t22 2.5q10 0 20 -6.5t17.5 -17t12 -24t4.5 -26.5q0 -23 -18.5 -43.5t-62.5 -20.5z" />
    <glyph glyph-name="yya_beng" unicode="&#x9df;" horiz-adv-x="683" 
d="M458 161v410h-178q61 -48 97.5 -101t36.5 -116l1 -2l-73 -43q-24 -14 -49.5 -27.5t-48.5 -29.5q48 -14 105 -36.5t109 -54.5zM312 162q1 1 9 1q11 0 21 -7t17.5 -17.5t12 -24.5t4.5 -27q0 -26 -21 -44.5t-56 -18.5q-18 0 -32 7t-23.5 17t-14.5 22t-5 23q0 12 3.5 22.5
t8 19.5t8.5 15t4 8l2 2q2 0 9.5 -1.5t19.5 -1.5q7 0 15.5 1t17.5 4zM255 449q-36 74 -95 122h-170v51h88q-11 5 -22.5 10.5t-24.5 10.5l41 42q64 -26 129 -63h492v-51h-77v-597l-33 27q-96 75 -193 108q-8 36 -27.5 53t-42.5 17q-10 0 -20.5 -2.5t-19.5 -2.5q-16 0 -18 1
l-18 5l-7 -8q0 -1 -4 -6t-9 -13q-22 4 -45 8t-48 8l-84 161q1 0 1 1h1q6 4 25 16t47.5 28.5t63 36t70.5 37.5z" />
    <glyph glyph-name="zero_beng" unicode="&#x9e6;" horiz-adv-x="663" 
d="M217 246q7 -14 15 -27t18.5 -24t25 -17.5t33.5 -6.5q26 0 44.5 13t30.5 33t17.5 43t5.5 43q0 15 -8.5 34t-22.5 36t-31 29t-34 12q-20 0 -26 -26q-6 -23 -15.5 -45t-19 -40t-18 -32t-12.5 -21zM326 514q75 -12 129.5 -38.5t90.5 -61t53 -74.5t17 -79q0 -1 -2.5 -19
t-14.5 -45.5t-35.5 -59t-65.5 -58.5t-106 -45t-155 -18q-33 0 -67 15t-62 45.5t-46 78.5t-18 114q0 20 4.5 40t25.5 41q9 9 19.5 22.5t20 33.5t17.5 46.5t12 61.5h183z" />
    <glyph glyph-name="one_beng" unicode="&#x9e7;" horiz-adv-x="663" 
d="M381 630q-21 -50 -21 -83q0 -32 19 -52.5t47.5 -37t61.5 -33t61.5 -42t47.5 -62.5t19 -95q0 -33 -18 -68.5t-54 -67t-90 -54.5t-126 -31h-185q-8 48 -24 77t-32 47.5t-28 30.5t-12 24q3 30 14.5 55.5t29.5 43.5t41.5 28.5t50.5 10.5q39 0 66 -15.5t44 -37t24.5 -43.5
t7.5 -35q0 -48 -42 -67l2 -4.5t4.5 -10.5t5 -11t4.5 -5q5 -1 9.5 -1.5t9.5 -0.5q34 0 57 15t36.5 36.5t19 45t5.5 40.5q0 42 -21.5 68.5t-53.5 45.5t-69 35.5t-69 39.5t-53.5 57t-21.5 88q0 4 0.5 7.5t0.5 7.5z" />
    <glyph glyph-name="two_beng" unicode="&#x9e8;" horiz-adv-x="595" 
d="M311 182l276 -111l-87 -85l-500 209l61 164q34 -30 72 -42t74 -12q38 0 65 8t44 19.5t25 25t8 24.5q0 22 -18 36t-46 25.5t-60 22.5t-61 26.5t-49 38t-23 56.5l221 42q-4 -9 -4 -24q0 -25 17.5 -43.5t44.5 -35t57.5 -32.5t57.5 -36.5t44.5 -47t17.5 -62.5
q0 -66 -56.5 -109.5t-180.5 -56.5z" />
    <glyph glyph-name="three_beng" unicode="&#x9e9;" horiz-adv-x="726" 
d="M442 50q-27 -5 -52 -7.5t-48 -2.5q-53 0 -97 11t-79.5 27t-61.5 35t-43.5 35t-26 26l-8.5 10l109 297q16 -75 41 -127.5t56 -85.5t65.5 -48t69.5 -15q37 0 69 12t56 32t37.5 47t13.5 56q0 36 -10 60.5t-25.5 39.5t-34 23t-34.5 11l7.5 -7.5t15.5 -21t15 -31.5t7 -39
q0 -17 -7.5 -37t-22 -38t-35.5 -30t-48 -12q-24 0 -47.5 10t-41.5 26.5t-29 37.5t-11 42q0 22 7 36q26 60 34 90t8 45q0 5 -1.5 8t-1.5 6l227 19q81 -48 122.5 -115.5t41.5 -145.5q0 -37 -10.5 -70t-23.5 -58.5t-24.5 -40.5t-12.5 -15q-59 -71 -166 -95z" />
    <glyph glyph-name="four_beng" unicode="&#x9ea;" horiz-adv-x="751" 
d="M250 421q1 -1 1 -2l2 -6q1 -6 6 -14.5t15 -16t26 -13t40 -5.5q20 0 40.5 12.5t37 29t27 33t10.5 24.5q-2 9 -12 20t-24 20t-30 15.5t-29 6.5q-23 0 -27 -16q-5 -13 -14 -25t-19.5 -22.5t-21 -18.5t-17.5 -13l-7 -5l-3 -3zM393 127q38 11 54 35.5t16 44.5q0 12 -10.5 23
t-26.5 19.5t-34 13.5t-34 5q-15 0 -17 -5q-11 -17 -28 -34t-32 -30.5t-26 -21.5t-10 -8t7.5 -7.5t19.5 -16.5t32.5 -16.5t45.5 -7.5q19 0 43 6zM167 302q-42 19 -71 48.5t-29 77.5q0 19 4 32q3 10 16.5 19t29.5 22t31.5 33t22.5 52l195 -1q78 -7 136.5 -22.5t97.5 -36
t58.5 -44t19.5 -46.5q0 -3 -2.5 -16t-15.5 -30.5t-40.5 -37.5t-76.5 -37q85 -28 123 -64.5t38 -71.5v-2q-1 -1 -1 -2l-2 -7q-3 -14 -21 -39t-63 -49t-124 -42t-204 -18q-38 0 -80.5 7.5t-78.5 26t-59.5 51t-23.5 82.5q0 6 1.5 13.5t7 15.5t16 17.5t29.5 20.5q7 4 13 7.5
t13 8t16.5 12t23.5 20.5z" />
    <glyph glyph-name="five_beng" unicode="&#x9eb;" horiz-adv-x="613" 
d="M392 402q-50 11 -73 54l-4 10q-29 -24 -50 -50.5t-35 -51.5t-21 -47t-9 -35l-3 -20v-8q0 -12 4 -36t22 -48t54 -42.5t99 -18.5h11q-1 0 -15.5 3t-31.5 14.5t-31 34t-14 60.5q0 22 5.5 42t17 41t30 45t44.5 53zM176 72q-21 8 -44 26.5t-41.5 46t-31 63.5t-12.5 79
q0 19 1 38t7 41.5t18.5 50.5t35.5 66q40 67 150 141l156 -76l-6 -14q-2 -6 -4 -13t-2 -15q0 -14 9 -24.5t37 -10.5q15 0 27 6t21 13t14.5 13t7.5 6q1 0 1 -1l76 -112q-51 -39 -82 -63.5t-49.5 -44t-28.5 -39t-17 -47.5q0 -19 20.5 -30t46.5 -17t49 -7.5t29 -1.5h2l-30 -74
q-66 -22 -118.5 -30.5t-92.5 -8.5q-60 0 -94.5 12t-46.5 21l-5 4q-1 1 -2 1z" />
    <glyph glyph-name="six_beng" unicode="&#x9ec;" horiz-adv-x="689" 
d="M503 338l-30 -23q-1 0 -2 -1q-50 -35 -105 -45l-133 85v244h161v-196q38 21 56.5 41t24.5 30l2 6q1 0 1 1l125 -33q39 -80 39 -151q0 -62 -24 -112t-66 -84.5t-98.5 -53t-121.5 -18.5q-39 0 -79 8.5t-80 27t-77 48t-70 72.5l96 259q18 -78 47.5 -128.5t63 -80t69 -40.5
t65.5 -11q36 0 63 11.5t45 29.5t27.5 41t9.5 46q0 10 -9 27z" />
    <glyph glyph-name="seven_beng" unicode="&#x9ed;" horiz-adv-x="637" 
d="M422 293v231q-168 -59 -230 -203q9 1 21 1.5t26 0.5q31 0 66.5 -3.5t73.5 -13.5zM170 224l-135 123q-9 16 -9 35q0 25 15.5 51.5t41.5 51.5t59.5 47.5t70.5 40t74.5 29t70.5 14.5q10 -1 34 -7t52.5 -14.5t58 -17.5t51.5 -17l36 -13v-539h-168v204q-35 11 -67.5 15
t-63.5 4q-20 0 -39 -1t-37 -3z" />
    <glyph glyph-name="eight_beng" unicode="&#x9ee;" horiz-adv-x="639" 
d="M209 394v-284q159 54 221 209q-32 5 -76 19t-101 36q-8 0 -22 7.5t-22 12.5zM47 616h162v-143q52 -20 96 -29q30 2 61.5 9t58.5 20.5t47.5 35t29.5 52.5l113 -29q-19 -66 -53.5 -102t-68.5 -51l90 -91q9 -17 9 -35q0 -35 -32 -73t-80 -71t-104 -56t-105 -27q-10 0 -33 5
t-51 13t-56.5 16.5t-49.5 15.5l-34 11v529z" />
    <glyph glyph-name="nine_beng" unicode="&#x9ef;" horiz-adv-x="692" 
d="M450 241q8 18 8 34q0 39 -21.5 72t-61.5 57t-95.5 37.5t-123.5 13.5h-18l115 160q25 -1 66 -10t96 -29q53 -19 95.5 -50t72.5 -69.5t46 -82.5t16 -89q0 -51 -21 -95.5t-51 -77.5t-62 -52t-54 -19l-127 18q18 27 18 63q0 22 -6.5 44t-18.5 39.5t-28.5 28.5t-35.5 11
q-13 0 -21 -4l-2 1q18 -12 29 -30.5t11 -42.5q0 -21 -12 -40t-30.5 -33.5t-41.5 -22.5t-44 -8q-55 0 -97 55q-4 4 -4 12q0 11 8 26.5t8 41.5q0 14 -4 32.5t-15 41.5l131 87q13 6 40 6q44 0 81.5 -11t67.5 -28.5t51.5 -40t34.5 -46.5z" />
    <glyph glyph-name="ramiddlediagonal_beng" unicode="&#x9f0;" horiz-adv-x="676" 
d="M453 183v77q-45 23 -86 35.5t-92 25.5l-49 -42q124 -34 227 -96zM453 338v129l-98 -79q26 -11 50.5 -23.5t47.5 -26.5zM609 0q-59 47 -107.5 78.5t-101 52.5t-116.5 35t-154 26l-83 159q73 63 119 101.5t75 61.5t46 35t33 22h-330v51h695v-51h-76v-571z" />
    <glyph glyph-name="ralowerdiagonal_beng" unicode="&#x9f1;" horiz-adv-x="676" 
d="M453 183v284q-63 -51 -119 -97t-108 -91q124 -34 227 -96zM523 -28q-85 41 -227 41q-41 0 -86 -3l-61 127q313 -47 374 -143v-22zM609 0l-33 27q-50 38 -95 64t-95.5 44.5t-112 31.5t-143.5 25l-83 159q72 61 117.5 99t74 60.5t46.5 35.5t36 25h-331v51h695v-51h-76v-571
z" />
    <glyph glyph-name="rupeesign_beng" unicode="&#x9f3;" horiz-adv-x="607" 
d="M228 178q5 -1 9.5 -1.5t6.5 -0.5l31 -2q25 0 53.5 3.5t54 13t43 27.5t20.5 48q0 5 -1 9.5t-2 8.5l-2 7q-7 -17 -26.5 -25.5t-43.5 -8.5q-18 0 -35.5 5.5t-31 16.5t-22 28.5t-8.5 41.5q0 51 36.5 82t102.5 31q12 -2 22.5 -13t26 -25t38.5 -27.5t60 -20.5v-125
q-6 -33 -31 -70t-67 -68.5t-101 -52t-134 -20.5h-17l-9 2q-20 2 -56.5 8t-77.5 31v490h-80v51h80v5q0 9 -2 20t-9.5 20.5t-23 16t-43.5 6.5h-9q-18 0 -34.5 2t-30 8.5t-23.5 19t-15 32.5l132 59q-1 -1 -1 -2v-4q0 -6 2.5 -15.5t11.5 -19t26.5 -18t46.5 -11.5q39 -5 65 -17
t41 -28t21 -34.5t6 -34.5v-5h102v-51h-102v-393z" />
    <glyph glyph-name="zwnj" unicode="&#x200c;" 
 />
    <glyph glyph-name="zwj" unicode="&#x200d;" 
 />
    <glyph glyph-name="endash" unicode="&#x2013;" horiz-adv-x="536" 
d="M67 258v87h402v-87h-402z" />
    <glyph glyph-name="emdash" unicode="&#x2014;" horiz-adv-x="786" 
d="M67 258v87h652v-87h-652z" />
    <glyph glyph-name="quoteleft" unicode="&#x2018;" horiz-adv-x="261" 
d="M245 661h-10q-9 0 -23.5 -1t-29 -4.5t-26.5 -10t-15 -18.5l38 -4q17 -14 23 -29t6 -29q0 -23 -10 -40t-19 -30l-9 2q-5 1 -10.5 1.5t-12.5 0.5q-8 0 -18.5 -3t-21.5 -3q-10 0 -21 9t-20 23.5t-15 33.5t-6 40q0 19 6 38t20 35.5t36.5 30t56.5 21.5z" />
    <glyph glyph-name="quoteright" unicode="&#x2019;" horiz-adv-x="261" 
d="M10 558q3 0 17.5 0.5t32 3.5t33.5 10t21 21l-39 4q-16 14 -22 28.5t-6 28.5q0 23 9 40t19 31q2 0 10 -1.5t21 -1.5q9 0 19.5 2.5t21.5 2.5q10 0 21 -9t20.5 -23.5t15.5 -33.5t6 -40q0 -20 -6 -38.5t-20 -35t-37 -29.5t-57 -21z" />
    <glyph glyph-name="quotedblleft" unicode="&#x201c;" horiz-adv-x="451" 
d="M310 493q-1 -1 -5 -1q-11 0 -22 9t-20.5 23.5t-15.5 33.5t-6 40q0 19 6 38t20.5 35.5t37.5 30t57 21.5l79 -62h-9q-9 0 -23.5 -1t-29 -4.5t-26.5 -10t-16 -18.5l39 -4q17 -14 23 -29t6 -29t-4.5 -27t-9.5 -22.5t-10 -15l-5 -5.5q-2 0 -10.5 1.5t-21.5 1.5q-8 0 -16.5 -1
t-17.5 -4zM246 661h-9q-9 0 -23.5 -1t-29.5 -4.5t-27 -10t-16 -18.5l39 -4q17 -14 23.5 -29t6.5 -29q0 -23 -10 -40t-19 -30q-2 0 -10.5 1.5t-21.5 1.5q-9 0 -19 -3t-19 -3q-11 0 -22 9t-20.5 23.5t-15.5 34t-6 40.5q0 19 6 37.5t20 35t36.5 30t56.5 21.5z" />
    <glyph glyph-name="quotedblright" unicode="&#x201d;" horiz-adv-x="456" 
d="M9 557h7q8 0 23 1t30 4.5t27.5 11t17.5 19.5l-39 3q-17 13 -23 28t-6 29t4 27t10 23l14 22l9 -2q5 -1 10 -1.5t13 -0.5q9 0 19 3t21 3q10 0 21 -9t20.5 -24t15.5 -34t6 -40q0 -20 -6 -38.5t-20 -35t-37 -29.5t-57 -21zM336 726q2 0 2.5 0.5t2.5 0.5q10 0 21.5 -9
t20.5 -23.5t15 -33.5t6 -40q0 -19 -6 -38t-20 -35.5t-36.5 -30t-56.5 -21.5l-80 61q2 0 17 0.5t33 3.5t34 10.5t21 21.5l-40 3q-17 13 -23 27.5t-6 28.5q0 21 8.5 40t20.5 33q-1 0 8.5 -2t23.5 -2q8 0 16.5 1t17.5 4z" />
    <glyph glyph-name="indianrupeesign" unicode="&#x20b9;" horiz-adv-x="700" 
d="M371 209l246 -109l-117 -102l-453 215l79 163q48 -25 88.5 -34.5t74.5 -9.5q67 0 107.5 20t55.5 69l4 16h-409v33h412q0 19 -6.5 37.5t-19 32.5t-30 22.5t-39.5 8.5h-317v51h606v-51h-172q19 -5 34.5 -16t27.5 -25t20.5 -29.5t13.5 -30.5h76v-33h-68q0 -5 0.5 -9t0.5 -9
q0 -38 -15.5 -72t-42.5 -62t-65 -47t-83 -27z" />
    <glyph glyph-name="dottedcircle" unicode="&#x25cc;" horiz-adv-x="635" 
d="M87 266q-17 0 -29.5 12t-12.5 30q0 19 12.5 30.5t29.5 11.5q18 0 30 -11.5t12 -30.5q0 -18 -12 -30t-30 -12zM547 266q-17 0 -29.5 12t-12.5 30q0 19 12.5 30.5t29.5 11.5t29.5 -11.5t12.5 -30.5q0 -18 -12.5 -30t-29.5 -12zM274 538q0 18 13 30.5t30 12.5t29 -12.5
t12 -30.5t-12 -30t-29 -12t-30 12t-13 30zM274 78q0 18 13 30.5t30 12.5t29 -12.5t12 -30.5q0 -17 -12 -29t-29 -12t-30 12t-13 29zM396 529q5 10 15.5 15.5t21.5 5.5q20 0 30 -13.5t10 -30.5q0 -19 -13 -29.5t-28 -10.5q-17 0 -30 11.5t-13 30.5q0 11 7 21zM165 131
q6 9 16.5 15t20.5 6q18 0 30 -14t12 -30q0 -19 -13.5 -30t-29.5 -11q-20 0 -30.5 13t-10.5 29q0 7 5 22zM495 459q10 7 20 7q18 0 30 -11.5t12 -30.5q0 -18 -11 -30t-31 -12q-15 0 -28.5 11t-13.5 32t22 34zM96 230q13 5 21 5q17 0 30 -12t13 -29t-12.5 -29.5t-29.5 -12.5
t-29.5 12t-12.5 29q0 22 20 37zM537 230q20 -14 20 -36q0 -19 -12 -30.5t-30 -11.5q-19 0 -30.5 12.5t-11.5 28.5q0 20 13.5 31t28.5 11q5 0 22 -5zM138 459q22 -10 22 -35q0 -19 -13 -30.5t-30 -11.5t-29 12t-12 31q0 16 12.5 28.5t29.5 12.5q13 0 20 -7zM469 131
q4 -7 4 -21q0 -16 -10 -29.5t-30 -13.5q-16 0 -30 11.5t-14 30.5q0 16 12.5 29.5t30.5 13.5q10 0 20.5 -5.5t16.5 -15.5zM239 529q5 -15 5 -20q0 -17 -12 -30t-30 -13q-16 0 -29 11.5t-13 30.5q0 16 10.5 29t30.5 13q24 0 38 -21z" />
    <glyph glyph-name="ekar_initial_bn" horiz-adv-x="419" 
d="M149 569l1 1q0 1 8 7.5t20 14.5t25 15.5t23 10.5l15 4h188v-51h-54q-85 -70 -133 -147q-29 -47 -49.5 -106.5t-20.5 -141.5q0 -35 5 -62t12.5 -46.5t17.5 -33t19 -22.5l11 -10q-2 10 -2 13q0 29 23.5 46t61.5 17q18 -1 35.5 -7t31.5 -17t23 -27t9 -38q0 -5 -4 -23
t-18 -37.5t-42 -35t-77 -15.5q-40 0 -80 18t-73.5 56t-58.5 98t-36 143q-2 14 -3 28t-1 28q0 78 27 161t96 159z" />
    <glyph glyph-name="oikar_initial_bn" horiz-adv-x="419" 
d="M150 574l41 48q1 1 1 10q0 20 -11.5 31.5t-28 17t-34.5 7t-30 1.5h-13l-22 38h3q8 0 30.5 1.5t51.5 1.5q71 0 116.5 -9.5t72 -24t36.5 -32.5t10 -34v-8h56v-51h-54q-85 -70 -133 -147q-29 -47 -49.5 -106.5t-20.5 -141.5q0 -35 5 -62t12.5 -46.5t17.5 -33t19 -22.5
l11 -10q-2 10 -2 13q0 29 23.5 46t61.5 17q18 -1 35.5 -7t31.5 -17t23 -27t9 -38q0 -5 -4 -23t-18 -37.5t-42 -35t-77 -15.5q-40 0 -80 18t-73.5 56t-58.5 98t-36 143q-2 14 -3 28t-1 28q0 78 27 161t96 162l1 1v1z" />
    <glyph glyph-name="k_ko_bn" horiz-adv-x="928" 
d="M456 0v70q-25 -8 -51 -16t-53 -18q53 -13 104 -36zM448 240v169q-55 -25 -104.5 -50.5t-97.5 -51.5q55 -11 105.5 -27.5t96.5 -39.5zM604 -129q-40 26 -80.5 45.5t-86 33.5t-98 22.5t-115.5 13.5l-67 105l22 9q72 29 133 48t112 32q-155 46 -294 54l-83 131l70 37
q214 113 331 156v13h-458v51h948v-51h-334v-6q54 -6 101.5 -21.5t84 -37.5t60.5 -49.5t31 -57.5l-1 -117q-38 -6 -61 -14.5t-38 -16t-25 -13t-23 -5.5q-60 0 -86 23.5t-26 59.5q0 34 24.5 57t61.5 23q44 0 60 -28q5 13 5 20q0 15 -13 28.5t-34 24t-47.5 16.5t-54.5 6l-19 -1
v-279q38 -4 73.5 -16t63.5 -29.5t47 -40.5t24 -48l-1 -94q-28 -5 -45 -11.5t-28 -12.5t-18.5 -10.5t-17.5 -4.5q-82 0 -82 68q0 32 20.5 47.5t42.5 15.5q33 0 45 -22q4 4 4 15q0 13 -10 24.5t-25.5 19.5t-35.5 12.5t-40 4.5l-17 -1v-229z" />
    <glyph glyph-name="k_tto_bn" horiz-adv-x="989" 
d="M456 246v168q-51 -22 -101.5 -47t-104.5 -54q55 -10 106.5 -27t99.5 -40zM613 17l57 -5q34 0 63 5.5t50.5 15t33.5 22t12 26.5q0 6 -5 19q-15 -24 -69 -24q-40 0 -68 18t-28 50q0 37 34 62t103 25q9 0 23 -9t32 -20.5t40.5 -22t50.5 -13.5v-94q-8 -33 -38 -62
t-75.5 -50.5t-104.5 -34.5t-126 -14q-92 7 -138 27l-6 3v239q-72 23 -152 38.5t-171 22.5l-84 130q0 1 69 37q220 113 340 155v8h-466v51h777q20 23 20 49q0 41 -40.5 62t-101.5 21q-26 0 -52.5 -2.5t-52.5 -7.5l-49 -9l-37 42q3 0 30 7t66.5 15.5t84 15.5t82.5 7
q138 -2 211 -44.5t73 -114.5q0 -6 -0.5 -11.5t-1.5 -10.5l-160 -19h160v-51l-386 -1q55 -5 103.5 -19t86 -34.5t62 -46t31.5 -52.5l-1 -107q-26 -3 -49.5 -10t-43 -14.5t-34.5 -13t-22 -5.5q-60 0 -87.5 21t-27.5 54q0 15 7 28.5t19 23t27.5 15t33.5 5.5q46 0 63 -24
q0 1 2.5 5.5t2.5 12.5q0 14 -13.5 26.5t-35 21.5t-49 14.5t-54.5 5.5l-21 -1v-339v-120z" />
    <glyph glyph-name="k_tt_ro_bn" horiz-adv-x="991" 
d="M456 247v167q-51 -22 -101.5 -47t-104.5 -54q110 -20 206 -66zM615 15q14 -2 23.5 -3t16.5 -1q36 0 68 4.5t56 13.5t38 22.5t14 30.5q0 5 -5 18q-12 -25 -68 -25q-48 0 -73 20t-25 50q0 38 34.5 61.5t103.5 23.5q11 0 22 -9t25 -19q21 -14 45.5 -24t53.5 -12v-95
q-10 -34 -49.5 -69t-95.5 -58l99 -19v-177q-94 55 -233 55q-106 0 -227 -26l54 100q4 0 25.5 2.5t60.5 2.5q48 0 95.5 -7t92.5 -23v80q-74 -21 -166 -21q-19 1 -41 4t-42.5 6.5t-37 8.5t-25.5 11v239q-132 46 -321 61l-86 130l19 10q32 17 85 43t110 53t109.5 50.5
t85.5 35.5v8h-466v51h778q22 22 22 48q0 20 -11.5 36t-31.5 26.5t-46 16t-54 5.5q-26 0 -53 -2.5t-53 -7.5l-49 -9l-37 42q45 12 92 22q40 8 86 15.5t85 7.5q65 0 117.5 -11.5t89.5 -32.5t57 -50t20 -64q0 -5 -0.5 -11t-1.5 -12l-159 -19h160v-51l-386 -1q54 -5 102.5 -19
t86 -34t62 -45.5t31.5 -53.5l-1 -107q-39 -5 -62 -12.5t-38 -14t-25 -11.5t-23 -5q-115 0 -115 77q0 30 23 50t63 20q48 0 62 -24q5 13 5 18q0 14 -13.5 26.5t-35 21.5t-48.5 14.5t-54 5.5l-20 -1v-461z" />
    <glyph glyph-name="k_to_bn" horiz-adv-x="769" 
d="M779 571h-789v51h789v-51zM338 -30q-38 0 -78 9.5t-79.5 26.5t-76 40t-67.5 51q-9 9 -11 9l79 170q96 -176 241 -176q55 0 89 19t34 47q0 10 -10.5 21.5t-28.5 11.5q-26 0 -91 -44l-119 50q0 13 3 25t12.5 27t26.5 35t45 50q33 34 33 60q0 9 -6 20.5t-15.5 22t-22.5 17.5
t-28 7h-4l-19 -1q36 -14 36 -58q0 -15 -8 -29t-22 -25t-32 -17.5t-37 -6.5q-42 0 -70 26t-33 68q0 7 10 16.5t23.5 23.5t26.5 34t18 49h142q32 -3 63.5 -17.5t56 -36t39.5 -47.5t15 -52q0 -11 -0.5 -22t-1.5 -21q55 48 120 48q35 0 58 -10l78 -54q-12 -29 -12 -52
q0 -13 3.5 -20.5t3.5 -14.5l-2 -8q-32 -48 -71 -48q-29 0 -50.5 18.5t-21.5 44.5q0 25 17 41.5t37 16.5q0 1 -9 8.5t-25 7.5q-59 -12 -90 -61q82 -43 82 -125q0 -36 -17 -67.5t-49.5 -55.5t-79 -38t-105.5 -14z" />
    <glyph glyph-name="k_t_bo_bn" horiz-adv-x="769" 
d="M385 -146v71q-26 -8 -52.5 -16t-52.5 -18q28 -7 54 -16.5t51 -20.5zM460 343q26 23 46 35t35 17t27 5.5t23 0.5q35 0 58 -10l79 -54q-12 -29 -12 -51q0 -14 3.5 -21.5t3.5 -14.5l-2 -8q-32 -48 -73 -48q-29 0 -50.5 19t-21.5 45q0 25 17.5 41t37.5 16q0 1 -9.5 8.5
t-25.5 7.5q-58 -12 -89 -61q81 -44 81 -124q0 -71 -62 -121h9v-303l-17 13q-38 23 -77.5 40.5t-84 30.5t-96 21t-112.5 13l-67 108q40 16 71 27.5t54 18.5q-65 24 -108.5 55t-71.5 57l78 170q99 -176 242 -176q57 0 90 20t33 47q0 9 -10.5 20.5t-29.5 11.5
q-11 -1 -26.5 -5.5t-32.5 -16.5l-31 -22l-119 50q0 13 3 24.5t12 25.5t26 34.5t45 51.5q34 37 34 61q0 8 -5.5 19.5t-15 22t-22.5 18t-28 7.5h-4l-20 -1q37 -16 37 -58q0 -15 -8 -29t-21.5 -25t-32 -17.5t-38.5 -6.5q-42 0 -70.5 26t-31.5 68q0 10 10 18.5t23 21.5
q36 35 44 83h142q32 -3 63 -17t56 -35.5t40 -47.5t15 -53q0 -28 -13 -53zM779 571h-789v51h789v-51z" />
    <glyph glyph-name="k_t_ro_bn" horiz-adv-x="770" 
d="M382 -96v70q-15 -4 -44 -4q-53 0 -99.5 13t-85.5 33t-70.5 44t-56.5 46l80 170q48 -87 108.5 -131.5t132.5 -44.5q55 0 88.5 19.5t33.5 46.5q0 11 -10.5 22t-28.5 11q-12 0 -25.5 -4.5t-25.5 -11.5t-22.5 -14.5t-16.5 -13.5l-119 50q0 13 3 25t12.5 26.5t26.5 34.5t46 50
q14 15 23 31t9 30q0 8 -5.5 19.5t-15 22t-23 18t-29.5 7.5h-4l-18 -1q37 -15 37 -58q0 -15 -8.5 -29t-22 -25t-32 -17.5t-37.5 -6.5q-42 0 -70 26t-33 68q0 9 10 17t23 21q33 32 44 85h144q29 -3 59.5 -17t55.5 -35.5t41 -47.5t16 -53q0 -26 -10 -45q25 18 44 28t34 15t27 6
t24 1q37 0 57 -10l79 -54q-11 -31 -11 -48q0 -15 4 -23t4 -15q0 -5 -3 -9q-32 -48 -73 -48q-27 0 -49.5 18t-22.5 44t17.5 42.5t36.5 16.5q-1 0 -8.5 8t-24.5 8q-59 -12 -90 -61q81 -44 81 -121q0 -112 -135 -160l62 -11v-179q-100 55 -234 55q-106 0 -227 -26l55 100
q4 0 24.5 2.5t58.5 2.5q100 0 189 -29zM780 571h-790v51h790v-51z" />
    <glyph glyph-name="k_no_bn" horiz-adv-x="943" 
d="M456 232v173q-46 -20 -97 -46t-109 -58q110 -21 206 -69zM486 122v29q-91 38 -180.5 53.5t-174.5 22.5l-84 134q0 1 71 39q205 108 338 157v14h-466v51h963v-51h-339v-7q54 -6 102 -21.5t85.5 -37.5t62 -50.5t32.5 -59.5l-1 -119q-38 -6 -61.5 -14.5t-39 -16.5t-26 -13.5
t-22.5 -5.5q-114 0 -114 84q0 32 22 57.5t64 25.5q45 0 62 -29q0 2 2.5 7.5t2.5 14.5q0 14 -13 27.5t-34 24t-47.5 16.5t-54.5 6l-22 -1v-626l-128 71v55q-14 48 -47.5 76.5t-81.5 28.5q-12 0 -27 -4.5t-28 -12t-22 -17.5t-9 -22q0 -8 3 -11q7 14 25 24.5t40 10.5
q15 0 29 -6t24.5 -16t17 -23t6.5 -26q0 -30 -28 -54t-73 -29q-13 0 -21.5 7t-21.5 16q-36 24 -90 29v104q4 21 20.5 42t42 37.5t58 26.5t67.5 10q67 0 116 -28z" />
    <glyph glyph-name="k_bo_bn" horiz-adv-x="944" 
d="M615 -143q-153 102 -388 118l-68 107q85 32 153 54.5t120 36.5q-129 41 -301 54l-84 134l19.5 10.5t52 27.5t75 38.5t88 43.5t91 42t83.5 34v14h-466v51h964v-51h-339v-7q58 -7 107.5 -23.5t86 -39.5t59.5 -50.5t29 -55.5v-119q-29 -4 -52 -12.5t-41.5 -16.5t-32.5 -14.5
t-25 -6.5q-60 0 -87 24t-27 61q0 34 24.5 58t64.5 24q46 0 60 -29q5 13 5 22q0 14 -13 27.5t-34 24t-47.5 16.5t-54.5 6l-22 -1v-602zM456 235v170q-46 -20 -97 -46t-109 -58q85 -15 182 -54zM464 -10v71q-29 -9 -55.5 -18t-50.5 -17z" />
    <glyph glyph-name="k_mo_bn" horiz-adv-x="1088" 
d="M855 155v416h-284v-6q48 -5 89.5 -19t73 -35t52 -47t26.5 -54l-1 -109q-33 -5 -52.5 -12.5t-32.5 -14.5t-21.5 -12t-19.5 -5q-95 0 -95 77q0 32 20.5 52.5t52.5 20.5q37 0 51 -24q0 2 2.5 6.5t2.5 12.5q0 15 -11.5 27.5t-30 21.5t-41 14t-44.5 5q-19 0 -21 -1v-285
q45 15 113 15q94 0 171 -44zM424 234v171q-82 -40 -190 -104q66 -14 190 -67zM1021 -173l-166 88v36q-7 29 -26 55.5t-45 46.5t-57 32t-62 12q-36 0 -61.5 -10.5t-25.5 -33.5q0 -5 1 -6q25 25 75 25q21 0 41 -6t36 -18t25.5 -30t9.5 -42q0 -19 -11.5 -36t-31.5 -29.5
t-46 -20t-54 -7.5q-14 0 -24 1.5t-18 4.5t-15 8.5t-16 14.5q-40 55 -129 82l45 127q4 7 14 16q-140 75 -355 90l-78 134l17 10q52 31 102.5 58.5t97 51.5t87 43t73.5 33v14h-434v51h1108v-51h-77v-744z" />
    <glyph glyph-name="k_ro_bn" horiz-adv-x="952" 
d="M612 404q20 20 52.5 28.5t58.5 8.5q36 0 68 -12.5t57 -31.5t40.5 -40t17.5 -38l-5 -120q-34 -4 -55.5 -14t-35.5 -20.5t-23.5 -19t-19.5 -9.5q-42 5 -68 31t-26 61q0 18 6.5 34t18 27.5t25.5 18.5t29 7q21 0 37.5 -11.5t23.5 -26.5q0 2 1.5 6.5t1.5 10.5q0 23 -21 37.5
t-47 14.5q-45 0 -80 -39.5t-58 -108.5v-247l-15 13q-145 97 -354 97q-118 0 -194 -36l75 194q97 -5 179.5 -26.5t151.5 -64.5q0 233 -3 259q-38 74 -85 74q-20 0 -32 -7.5t-12 -8.5l-16 -11q26 -7 47.5 -26.5t21.5 -45.5q0 -20 -12 -38t-31.5 -32t-45 -22.5t-51.5 -8.5
q-18 0 -34.5 4.5t-29.5 11.5t-21 16t-8 19q0 11 4.5 26t4.5 35q0 32 -17 71l108 92q66 15 129 15q66 0 107.5 -14.5t68 -36t41 -47.5t25.5 -49zM962 571h-972v51h972v-51z" />
    <glyph glyph-name="k_lo_bn" horiz-adv-x="944" 
d="M456 234v171q-51 -23 -102 -49t-105 -55q48 -9 100.5 -25t106.5 -42zM502 97v48q-97 42 -189.5 58.5t-180.5 23.5l-85 134h1q3 2 24 13.5t54.5 29t75 39t86 42.5t88 40t80.5 32v14h-466v51h964v-51h-340v-7q62 -7 112 -24t86 -40t57.5 -50t27.5 -55l-1 -119
q-39 -6 -62.5 -14.5t-38.5 -16.5t-25.5 -13.5t-23.5 -5.5q-60 0 -87 24t-27 61q0 21 8 36t20.5 25.5t28 15.5t30.5 5q20 0 37.5 -7.5t25.5 -21.5l1 2q0 2 1.5 7t1.5 12q0 19 -16.5 33t-40 23.5t-49.5 14t-44 4.5q-5 0 -11 -0.5t-11 -0.5v-575l-112 48v45q-16 10 -31 10
q-13 0 -22.5 -7.5t-16 -18t-10.5 -23t-6 -21.5l-2 -8q0 -1 -1 -2v-2l-86 51l-3 47q-5 29 -26 52t-52 23q-8 0 -17.5 -3.5t-18.5 -9.5t-15 -14.5t-6 -18.5q0 -8 2 -10v-1q5 13 17.5 22.5t28.5 9.5q6 0 15.5 -3.5t19 -11.5t16 -20.5t6.5 -30.5q0 -30 -21.5 -52.5t-53.5 -25.5
q-8 0 -14.5 7t-16.5 16t-25.5 17.5t-42.5 11.5l1 96q2 15 14.5 33t33 33.5t46 25.5t54.5 10q46 0 82 -26.5t53 -66.5q32 35 71 35q6 0 13 -1t14 -3z" />
    <glyph glyph-name="k_sso_bn" horiz-adv-x="942" 
d="M417 571q-3 -12 -3 -28q0 -26 11 -44t49 -27v99h-57zM474 242v122q-44 11 -71.5 31t-43 43.5t-21 47.5t-5.5 42q0 30 7 43h-73q41 -50 41 -98q0 -15 -3 -28q54 -32 81.5 -79.5t28.5 -98.5q16 -4 30.5 -10.5t28.5 -14.5zM63 684q42 -14 76.5 -29.5t61.5 -32.5h751v-51
h-312v-111q45 -4 90 -16t77 -36q40 -30 61.5 -61t26.5 -60v-103q-32 -6 -52 -18.5t-34 -24.5t-24.5 -21.5t-22.5 -9.5q-49 0 -73.5 24t-24.5 59q0 22 7 38t18 26t23.5 14.5t24.5 4.5q17 0 31.5 -7t23.5 -18v2q0 1 0.5 3t0.5 4q0 21 -15 37t-37.5 27t-49.5 17.5t-51 7.5v-421
l-166 89v73q-9 17 -22 33t-29 29t-34.5 20.5t-37.5 7.5t-31.5 -4t-20 -10t-10.5 -12.5t-3 -12.5t2 -8q19 24 55 24q10 0 24 -4.5t27 -15t21.5 -27t8.5 -39.5q0 -18 -8 -33.5t-22 -27.5t-33.5 -19t-42.5 -7q-14 0 -26.5 3.5t-24.5 23.5q-10 16 -30.5 37t-64.5 38l33 116
q7 15 33.5 34t68.5 31q0 15 -5.5 33t-15.5 33.5t-25 25.5t-33 10q-6 0 -10 -1t-6 -1q21 -2 34 -16.5t13 -34.5q0 -14 -8 -29t-23 -27.5t-36 -21t-47 -8.5q-76 0 -98 66q0 10 7.5 20.5t16.5 25.5t16.5 34.5t7.5 47.5v14l87 17q6 19 6 39q0 39 -26 77h-172v51h106
q-14 8 -29.5 15t-33.5 14z" />
    <glyph glyph-name="k_ss_nno_bn" horiz-adv-x="942" 
d="M418 571q-4 -11 -4 -30q0 -26 12 -43.5t49 -25.5v99h-57zM475 242v122q-45 11 -72.5 31.5t-42.5 44t-20.5 48t-5.5 42.5q0 24 6 41h-72q41 -50 41 -98q0 -15 -3 -28q54 -32 81.5 -79.5t27.5 -98.5q16 -4 31 -10.5t29 -14.5zM475 -16v106q-9 17 -22.5 33t-29.5 29
t-34.5 20.5t-37.5 7.5t-31 -4t-19.5 -9.5t-10.5 -12t-3 -11.5t0.5 -7t0.5 -3q20 20 47 20q13 0 26.5 -4.5t24.5 -13.5t18 -22.5t7 -32.5q0 -33 -27 -49t-73 -16q-15 0 -27 3.5t-20 20.5q-5 13 -22.5 30.5t-59.5 34.5l23 98q7 15 34 34t69 31q0 16 -5.5 34t-16 33t-25.5 25
t-33 10q-7 0 -11.5 -1t-3.5 -1q21 -2 34 -16.5t13 -34.5q0 -13 -8 -28t-22.5 -28t-35.5 -21.5t-48 -8.5q-76 0 -98 66q-1 1 -1 4q0 8 7.5 18t17 25t17 35t7.5 49v11l86 17q6 21 6 40q0 38 -26 76h-172v51h107q-26 15 -64 29l31 33q43 -15 77 -30.5t60 -31.5h751v-51h-312
v-111q45 -4 90 -16t76 -36q78 -61 89 -121l-1 -103q-31 -6 -51.5 -18.5t-34.5 -24.5t-24 -21.5t-20 -9.5q-51 0 -75.5 23.5t-24.5 58.5q0 23 7 39t18 26t23.5 14.5t24.5 4.5q17 0 31.5 -7t22.5 -18v2q0 1 0.5 3t0.5 4q0 21 -14.5 37t-37 27t-49 17.5t-51.5 7.5l1 -600
l-166 71v41q-19 29 -46.5 46t-61.5 17q-12 0 -25.5 -4.5t-25.5 -11.5t-19.5 -16.5t-7.5 -18.5q0 -6 1 -7l2 -3q7 13 22.5 22t35.5 9q8 0 20.5 -3.5t24 -11.5t19.5 -20t8 -30q0 -28 -25.5 -50t-67.5 -27q-9 0 -17 6.5t-21 15t-32.5 16.5t-51.5 11v95q2 12 13.5 30.5t33 35.5
t53.5 29.5t76 12.5q47 0 92 -20z" />
    <glyph glyph-name="k_ss_bo_bn" horiz-adv-x="944" 
d="M419 571q-3 -12 -3 -28q0 -26 11 -44.5t49 -26.5v99h-57zM507 -131l-31 62q0 -7 -19.5 -14.5t-43.5 -16.5q25 -5 48 -13t46 -18zM476 242v122q-44 11 -71.5 31t-43 43.5t-21 47.5t-5.5 42q0 30 7 43h-74q42 -48 42 -98q0 -15 -3 -28q54 -32 81.5 -80.5t27.5 -97.5
q16 -4 31 -10.5t29 -14.5zM65 684q43 -15 77.5 -30.5t60.5 -31.5h751v-51h-312v-111q45 -4 90 -16t77 -36q79 -61 88 -121v-103q-31 -6 -51.5 -18.5t-34.5 -24.5t-24.5 -21.5t-21.5 -9.5q-48 0 -74 24t-26 61q0 22 7.5 37t19 25t24.5 14.5t24 4.5q17 0 31 -7t22 -18
q0 1 0.5 3.5t0.5 7.5q0 22 -15.5 38t-38.5 26.5t-49.5 16t-48.5 6.5v-598l-16 10q-41 25 -83 42t-84 27.5t-83 16t-80 8.5l-60 96q-1 0 19.5 8.5t54.5 20.5t77.5 25.5t88.5 24.5v60q-9 17 -22.5 33t-29.5 29t-34.5 20.5t-37.5 7.5q-18 0 -30.5 -4t-20 -10t-10.5 -12.5
t-3 -11.5q0 -7 2 -9q18 20 47 20q13 0 26.5 -4.5t24 -13.5t17.5 -22.5t7 -31.5q0 -34 -26 -50t-74 -16q-15 0 -27 3.5t-20 20.5q-5 13 -22.5 30.5t-59.5 34.5l23 98q8 15 34.5 34t68.5 31q0 16 -5.5 34t-16 33t-25 25t-32.5 10q-6 0 -10 -1t-6 -1q21 -2 34 -16.5t13 -34.5
q0 -14 -8 -29t-23 -27.5t-36 -21t-47 -8.5q-75 0 -99 66q-1 1 -1 4q0 8 8 18.5t17 24.5t17 34t8 47v14l87 17q6 19 6 39q0 39 -27 77h-173v51h108q-14 8 -29.5 15t-33.5 14z" />
    <glyph glyph-name="k_ss_mo_bn" horiz-adv-x="1162" 
d="M418 571q-3 -12 -3 -28q0 -27 11.5 -44.5t49.5 -26.5v99h-58zM930 10v561h-289v-111q45 -4 90 -16t76 -36q79 -61 88 -121v-103q-31 -6 -51.5 -18.5t-34.5 -24.5t-24.5 -21.5t-20.5 -9.5q-49 0 -74 24t-25 59q0 22 7.5 38t18.5 26t24.5 14.5t24.5 4.5q35 0 51 -25
q0 1 0.5 3.5t0.5 7.5q0 23 -15 38.5t-38 26t-49.5 15.5t-48.5 7v-314q27 8 58.5 12.5t60.5 4.5q88 0 155 -34zM476 242v122q-45 11 -73 31.5t-43 44t-20.5 47.5t-5.5 41q0 30 7 43h-73q41 -50 41 -98q0 -15 -3 -28q54 -32 81.5 -79.5t27.5 -98.5q16 -4 31.5 -10.5
t29.5 -14.5zM65 684q43 -15 77 -30.5t60 -31.5h970v-51h-77v-843l-165 89v28q-9 19 -26.5 38t-40.5 34.5t-51 25.5t-59 10q-41 0 -70 -13t-29 -30q0 -9 2 -9q12 11 29.5 16.5t36.5 5.5q15 0 31 -5t29.5 -15.5t22 -28t8.5 -41.5q0 -35 -26.5 -58.5t-81.5 -23.5
q-19 0 -39.5 3.5t-35.5 25.5q-11 16 -36.5 37.5t-85.5 40.5l35 118l3 4l-70 37v73q-9 17 -22.5 33t-29.5 29t-34.5 20.5t-37.5 7.5q-38 0 -51.5 -14t-13.5 -24q0 -7 2 -9q18 20 47 20q13 0 26.5 -4.5t24 -13.5t17.5 -22.5t7 -32.5q0 -33 -26 -49t-74 -16q-13 0 -26 3.5
t-20 20.5q-5 13 -22.5 30.5t-60.5 34.5l23 98q7 15 35 34t68 31q0 16 -5.5 34t-16 33t-25 25t-32.5 10q-6 0 -10 -1t-6 -1q21 -2 34 -16.5t13 -34.5q0 -14 -8 -29t-22.5 -27.5t-35.5 -21t-47 -8.5q-75 0 -99 66q-1 1 -1 4q0 8 7.5 18t17 24t17 34t7.5 47v15l87 17q6 19 6 39
q0 39 -26 77h-173v51h107q-14 8 -30 15t-33 14z" />
    <glyph glyph-name="k_so_bn" horiz-adv-x="1111" 
d="M434 226v174q-50 -23 -98.5 -50t-97.5 -56q48 -9 98 -25.5t98 -42.5zM882 43v528h-299q58 -10 104.5 -30t79.5 -45t52.5 -54t24.5 -57l-1 -126q-35 -6 -56 -15t-34 -17.5t-22.5 -14.5t-21.5 -6q-54 0 -78.5 25t-24.5 64q0 22 7 38t18.5 27t25.5 16.5t28 5.5q18 0 33 -8
t22 -22q2 2 3 9t1 12q0 21 -15 36.5t-36 25t-44 14.5t-39 5q-7 0 -13.5 -0.5t-13.5 -1.5v-338q69 0 145 -14.5t154 -56.5zM-10 571v51h1131v-51h-77v-709l-25 20q-74 53 -156 73t-180 20q-50 0 -99 -5.5t-94.5 -14.5t-86 -20t-73.5 -22l66 180q20 6 47.5 10.5t74.5 8.5
q-49 28 -99 47t-99.5 31t-98 18.5t-94.5 9.5l-80 138q-1 0 17.5 11t49.5 28.5t71.5 39.5t84 44t86 42.5t78.5 34.5v15h-444z" />
    <glyph glyph-name="kh_bo_bn" horiz-adv-x="718" 
d="M500 -96v70l-52 -16t-54 -18q53 -13 106 -36zM126 388l-96 73q13 24 17.5 44t4.5 35q0 14 -2.5 24t-2.5 19q0 12 8 21.5t19.5 16t23 9.5t19.5 3q18 0 36.5 -7t33 -19.5t23.5 -29t9 -35.5t-9 -35t-26 -25h2q49 11 70.5 41t21.5 73q0 7 -0.5 13.5t-1.5 13.5h5
q19 -3 45 -18.5t50 -42t40.5 -63t16.5 -81.5q0 -57 -25 -106.5t-70 -84.5q77 -25 154 -72v490l159 30v-53h77v-51h-77v-801l-16 11q-46 29 -93.5 48t-95 31t-94 18.5t-91.5 9.5l-67 108l23 9.5t61.5 24t88 30t101.5 27.5q-140 67 -340 79l-3 -1l-78 148q19 -4 36 -5.5
t31 -1.5q31 0 65 7.5t62.5 24t47.5 42t20 62.5q-18 -22 -51 -43t-78 -21q-38 0 -54 10z" />
    <glyph glyph-name="kh_ro_bn" horiz-adv-x="719" 
d="M484 11v68q-150 75 -358 87h-1q-1 0 -2 -1l-76 148q19 -4 36 -5.5t31 -1.5q30 0 64 7.5t62.5 23.5t47.5 42t20 63q-20 -23 -52 -43.5t-77 -20.5q-19 0 -32.5 2t-21.5 8l-95 73q12 23 16.5 42.5t4.5 34.5q0 14 -2 24t-2 20q0 13 8 22.5t19.5 16t23 9.5t19.5 3q18 0 36 -7
t32.5 -19.5t23.5 -29t9 -35.5t-9 -35t-25 -25h1q51 11 71.5 40.5t20.5 72.5q0 7 -0.5 13.5t-1.5 14.5h5q18 -3 44.5 -18.5t50.5 -42t41 -63t17 -81.5q0 -57 -25.5 -106.5t-68.5 -84.5q75 -26 153 -72v490l160 30v-53h77v-51h-77v-748l-16 15q-73 54 -151 77.5t-169 23.5
q-115 0 -213 -34l52 137q1 -1 36 5.5t90 6.5q48 0 99.5 -8.5t103.5 -34.5z" />
    <glyph glyph-name="g_ukar_bn" horiz-adv-x="840" 
d="M529 -3q-67 0 -124 21.5t-98.5 48t-65 48.5t-23.5 23l156 144q23 -81 69.5 -125t115.5 -44q25 0 47 7t38 18.5t25 26.5t9 32q0 18 -6.5 31t-17 21.5t-23 12.5t-24.5 4l10 -12q10 -13 10 -32q0 -12 -6.5 -25t-18 -23t-27 -16.5t-32.5 -6.5q-18 0 -35.5 6t-31 16t-22 23.5
t-8.5 27.5q0 11 6 23l63 110h55q55 43 55 81q0 40 -62 63q-26 -30 -52 -54t-54 -39l-1 1q-31 48 -82.5 79t-112.5 31q-49 0 -89 -25q53 0 89 -10t58 -27t31.5 -39.5t9.5 -46.5q0 -65 -58 -126l-189 59q17 8 35 19.5t33 24t24.5 25.5t9.5 23q0 17 -20 23t-71 6l-69 30l-8 73
q9 20 29.5 37.5t48 31t60.5 21t67 7.5q106 0 192 -59l72 64q67 -22 114 -43.5t76 -44t42.5 -46.5t13.5 -51q0 -59 -71 -109q103 -70 103 -156q0 -27 -10.5 -51t-24 -41t-25.5 -27t-15 -10q-32 -23 -82.5 -38.5t-107.5 -15.5z" />
    <glyph glyph-name="g_go_bn" horiz-adv-x="1035" 
d="M804 570v74l164 32v-54h77v-51h-77v-600l-164 104v309q-20 57 -60.5 88.5t-97.5 31.5q-52 0 -107 -33q96 -11 141.5 -55t45.5 -103q0 -86 -85 -171l-212 98q22 9 45 21.5t42 27t31.5 30t12.5 29.5q0 18 -23 28.5t-80 15.5l-77 45v73q-50 25 -100 25q-60 0 -106 -36h13
q46 0 81 -10.5t58 -29.5t34.5 -44t11.5 -54q0 -34 -15.5 -71t-45.5 -72l-195 68q18 9 37 21.5t34.5 26.5t25 28t9.5 26q0 17 -17.5 25t-60.5 8h-18l-70 34l-9 81q9 21 29 41t48 35.5t62.5 25t72.5 9.5q33 0 81.5 -10.5t105.5 -46.5l15 7q70 32 154 32q11 0 31.5 -2t45.5 -8
t53.5 -17t56.5 -30z" />
    <glyph glyph-name="g_do_bn" horiz-adv-x="1040" 
d="M809 269q-9 -11 -17 -21t-19 -21l-19 -18q-1 0 -1 -1q-57 -56 -117 -90h-164v270q-20 57 -65.5 90t-109.5 33q-59 0 -113 -39q54 -3 93.5 -16.5t65.5 -35t38.5 -49.5t12.5 -59q0 -86 -84 -170l-213 98q22 8 45.5 21t42.5 27.5t31 29.5t12 29q0 19 -23.5 29.5t-80.5 15.5
l-77 45v93q13 22 39 39.5t59.5 29.5t71.5 18.5t75 6.5q30 0 78 -10t102 -46v76l164 32v-54h414v-51h-414v-310q48 37 81 78.5t53.5 76t29.5 56.5t9 21h164v-535l-164 104v207z" />
    <glyph glyph-name="g_dho_bn" horiz-adv-x="947" 
d="M484 -67v106q-46 -20 -79.5 -35.5t-55.5 -26.5q34 -8 67.5 -19t67.5 -25zM736 132l-50 -16t-51 -18v-298l-17 11q-36 23 -75 41t-84 30.5t-97.5 21t-115.5 13.5l-69 109q-1 0 22 13t63 34.5t93.5 48t115.5 53.5v213q-20 57 -65.5 90t-108.5 33q-59 0 -114 -39
q100 -6 155 -48.5t55 -111.5q0 -88 -85 -170l-212 98q60 25 95 54.5t35 52.5q0 19 -23 29.5t-80 15.5l-76 45v93q10 19 34.5 36.5t58 30t73 20t80.5 7.5q45 0 90.5 -13.5t87.5 -41.5v75l163 32v-54h323v-51h-323v-336q37 11 62.5 18t39.5 10h164v-450l-164 104v215z" />
    <glyph glyph-name="g_dh_ro_bn" horiz-adv-x="968" 
d="M483 -66v105q-48 -20 -81 -35.5t-53 -26.5q35 -8 68.5 -18.5t65.5 -24.5zM735 132q-25 -8 -49.5 -16t-50.5 -18v-409l-13 10q-105 81 -253 81q-87 0 -166 -27l40 108l27 5q16 3 34 4t37 1q39 0 80 -8t83 -29v35q-137 42 -259 48l-69 109l22.5 13t62.5 34t94 48t116 54
v213q-20 57 -65.5 90t-109.5 33q-59 0 -114 -39q47 -3 86 -14.5t66.5 -31.5t43 -48.5t15.5 -64.5q0 -87 -86 -171l-211 98q24 9 47.5 22.5t41.5 28.5t29.5 29.5t11.5 26.5q0 19 -23 29.5t-80 15.5l-76 45v93q12 20 37 37.5t58 30t71.5 19.5t77.5 7q48 0 95 -13.5t85 -41.5
v75l163 32v-54h344v-51h-344v-336q36 11 61.5 18t39.5 10h166v-450l-166 104v215z" />
    <glyph glyph-name="g_no_bn" horiz-adv-x="701" 
d="M471 568v76l163 32v-54h77v-51h-77v-776l-127 73v54q-15 48 -49.5 76.5t-82.5 28.5q-13 0 -28 -4.5t-27.5 -12t-21 -18t-8.5 -21.5q0 -6 1 -7l2 -3q8 14 25 24.5t38 10.5q9 0 22 -4t25.5 -13t21.5 -22.5t9 -32.5q0 -14 -7.5 -29t-21 -27t-33 -20t-44.5 -8q-8 0 -16 7
t-21.5 16.5t-35 18t-55.5 11.5v104q2 13 14 33t35 39t58 32.5t83 13.5q41 0 81 -14v287q-20 57 -65.5 90t-108.5 33q-59 0 -114 -39q54 -3 93.5 -16.5t65.5 -35t38.5 -49.5t12.5 -59q0 -85 -85 -170l-212 98q22 9 45.5 21.5t42 26.5t30.5 29t12 30q0 19 -23 29.5t-80 15.5
l-76 45v93q13 22 38.5 39.5t58.5 29.5t71.5 18.5t76.5 6.5q13 0 32.5 -2t43.5 -8t50.5 -17t52.5 -29z" />
    <glyph glyph-name="g_bo_bn" horiz-adv-x="701" 
d="M482 -67v72l-106 -35q28 -8 54.5 -17t51.5 -20zM471 568v76l163 32v-54h77v-51h-77v-771l-17 11q-36 23 -75 41t-84 30.5t-97.5 21t-116.5 13.5l-69 109q1 0 26.5 10.5t67 25.5t94.5 31.5t108 28.5v266q-20 57 -65.5 90t-108.5 33q-59 0 -114 -39q100 -6 154.5 -48.5
t54.5 -111.5q0 -88 -84 -170l-213 98q60 24 95.5 54.5t35.5 52.5q0 19 -23 29.5t-80 15.5l-76 45v93q10 19 34.5 36.5t58 30t73 20t80.5 7.5q48 0 94 -14t84 -42z" />
    <glyph glyph-name="g_mo_bn" horiz-adv-x="992" 
d="M758 157v414h-124v-373q69 -11 124 -41zM471 568v76l163 32v-54h368v-51h-77v-746l-167 90v35q-6 25 -23.5 51t-43 47.5t-58 35.5t-68.5 14q-49 0 -67.5 -13.5t-18.5 -27.5q0 -6 1 -7v-3q12 11 33 18.5t45 7.5q15 0 34 -5t36 -16.5t28.5 -30t11.5 -45.5q0 -20 -11.5 -37
t-32 -29.5t-48 -19.5t-58.5 -7q-19 0 -35 4t-32 25q-8 9 -17.5 19.5t-24.5 21t-36.5 21t-52.5 19.5l46 130q7 13 33.5 30t71.5 32v203q-21 57 -66.5 90t-108.5 33q-59 0 -113 -39q54 -3 93.5 -16.5t65.5 -35t38.5 -49.5t12.5 -59q0 -85 -85 -170l-212 98q22 9 45.5 21.5
t42 26.5t30.5 29t12 30q0 19 -23.5 29.5t-80.5 15.5l-75 45v93q13 22 39 39.5t59.5 29.5t72 18.5t76.5 6.5q13 0 33.5 -2t44.5 -8t49.5 -17t49.5 -29z" />
    <glyph glyph-name="g_ro_bn" horiz-adv-x="702" 
d="M472 568v76l163 32v-54h77v-51h-77v-693l-15 14q-72 52 -149 75t-165 23q-104 0 -206 -32l49 134q-1 0 8 1.5t24.5 4t38 4t48.5 1.5q48 0 99 -8.5t105 -34.5v328q-22 57 -66.5 90t-108.5 33q-59 0 -114 -39q108 -6 159 -51t51 -108q0 -42 -21 -85.5t-63 -85.5l-212 98
q21 8 44 20.5t42 27t31.5 30t12.5 29.5q0 19 -23.5 29.5t-81.5 15.5l-75 45v93q13 22 39 39.5t59.5 29.5t71.5 18.5t76 6.5q31 0 78 -10t101 -46z" />
    <glyph glyph-name="g_lo_bn" horiz-adv-x="702" 
d="M469 -82q-23 15 -38 15t-24 -10t-14 -22t-6.5 -22t-1.5 -9l-100 26q0 21 -3.5 43.5t-13 41t-26.5 30.5t-43 12q-9 0 -19.5 -3.5t-19.5 -9.5t-15 -15t-6 -19q0 -5 1 -7.5t1 -3.5q6 13 20 22.5t30 9.5q6 0 16 -3.5t19.5 -11.5t16.5 -21t7 -31q0 -31 -21.5 -53.5
t-57.5 -26.5q-8 0 -14.5 6.5t-17 15t-27.5 17t-45 13.5l1 100q2 14 14.5 32.5t33 34.5t47.5 27t59 11q51 0 88.5 -27t56.5 -69q33 37 75 37q8 0 14.5 -2t14.5 -2v344q-20 57 -64.5 90t-110.5 33q-59 0 -113 -39q54 -3 93.5 -16.5t65.5 -35t38.5 -49.5t12.5 -59
q0 -86 -84 -170l-213 98q22 8 45.5 21t42.5 27.5t31 29.5t12 29q0 19 -23 29.5t-80 15.5l-77 45v93q13 22 39 39.5t59 29.5t71 18.5t76 6.5q29 0 77 -10t102 -46v76l164 32v-54h77v-51h-77v-750l-164 71v25q-1 1 -2 1z" />
    <glyph glyph-name="gh_no_bn" horiz-adv-x="677" 
d="M453 169v402h-175q-72 -63 -72 -107q0 -35 49 -35q9 0 21.5 2.5t25 6t25 6t21.5 2.5q16 0 27 -11l41 -96q-34 -20 -67 -43t-66 -49q66 -23 134 -57zM189 367q-78 2 -118.5 26.5t-40.5 69.5q0 46 50 108h-90v51h697v-51h-77v-793l-160 88v32q-6 27 -29.5 49t-57.5 22
q-13 0 -18 -3.5t-6 -4.5q11 0 23.5 -5.5t22.5 -15t16.5 -22t6.5 -27.5q0 -11 -6 -25t-18 -27t-29 -22t-39 -9q-35 0 -63.5 18t-45.5 51l-2 8q0 8 4 16.5t9.5 19t9.5 24t4 31.5q0 26 -7 48l126 40q2 1 17 1q41 0 82 -21v44q-64 28 -134.5 37.5t-159.5 10.5l-109 139
q13 9 23 15.5t24 15.5t35.5 23t59.5 38z" />
    <glyph glyph-name="gh_bo_bn" horiz-adv-x="678" 
d="M456 168v403h-175q-73 -63 -73 -107q0 -35 49 -35q28 0 53 8.5t42 8.5q18 0 26 -11l40 -96q-32 -19 -65 -42t-68 -50q98 -35 171 -79zM464 -69v69q-25 -8 -51 -16t-52 -18q26 -6 51.5 -15t51.5 -20zM192 367q-78 2 -119.5 26t-41.5 69q0 50 50 109h-91v51h699v-51h-78
v-770q-40 28 -86 48t-95 33.5t-99.5 21.5t-98.5 12l-66 105l76 29q35 12 78.5 26.5t89.5 27.5q-105 32 -253 32l-110 139q16 11 33.5 22.5t40.5 25.5z" />
    <glyph glyph-name="gh_ro_bn" horiz-adv-x="679" 
d="M457 168v403h-175q-73 -63 -73 -107q0 -35 49 -35q11 0 26.5 1t32.5 7q9 3 17.5 6t17.5 3q18 0 26 -11l42 -96q-34 -20 -67.5 -43t-66.5 -49q32 -11 65.5 -25.5t68.5 -31.5zM190 367q-78 2 -118.5 26t-40.5 69q0 24 12.5 51.5t38.5 57.5h-92v51h699v-51h-77v-745l-16 14
q-70 51 -146.5 74.5t-164.5 23.5q-108 0 -207 -33l51 133q-1 0 8 2t25.5 4t39 4t49.5 2q45 0 95.5 -8.5t101.5 -33.5v81q-63 27 -133 36.5t-158 10.5l-110 139l35 23q8 5 17.5 11t21.5 14z" />
    <glyph glyph-name="ng_ko_bn" horiz-adv-x="908" 
d="M428 125v164q-99 -44 -204 -99q109 -21 204 -65zM618 523q69 0 83 48h-190q48 -48 107 -48zM584 -19q-52 33 -104.5 56t-109.5 39.5t-121 26.5t-140 16l-83 127l19 9q40 21 92.5 47t105.5 51t102 46t83 33v8q-9 7 -25.5 13.5t-35 11.5t-37.5 8t-34 3l-15 -1
q1 -5 1.5 -9.5t0.5 -9.5q0 -39 -35 -59t-102 -20q-43 0 -66 16t-23 66q0 18 5 28.5t16.5 16t29 8t42.5 5.5q-6 28 -66 54h-94v51h928v-51h-78q-40 -91 -160 -91q-23 0 -57.5 2.5t-69.5 12t-66 27.5t-47 49h-248q58 -24 74 -55q63 -2 103 -5.5t58 -7.5q39 -8 64 -15t42 -14
t27.5 -15t20.5 -18h3v-2q55 -6 102.5 -21t84 -36t60 -47.5t30.5 -55.5l-1 -114q-37 -5 -59.5 -13t-37.5 -15.5l-26 -13t-24 -5.5q-112 0 -112 80q0 18 7 32.5t19 24.5t27 15.5t31 5.5q20 0 37.5 -7.5t25.5 -19.5q0 1 2 5.5t2 13.5q0 14 -13.5 27t-35.5 23t-48.5 16t-51.5 6
l-19 -1v-358z" />
    <glyph glyph-name="ng_k_ro_bn" horiz-adv-x="908" 
d="M428 125v164q-54 -23 -104 -48t-99 -51q55 -11 105 -27t98 -38zM618 523q72 0 83 48h-189q15 -19 45 -33.5t61 -14.5zM419 11v51q-138 47 -310 57l-83 127l19 9q40 21 92.5 47t105.5 51t102 46t83 33v8q-9 7 -24 13.5t-32.5 11.5t-37 8t-37.5 3l-15 -1q1 -2 1 -17
q0 -38 -35 -59.5t-101 -21.5q-44 0 -67 16.5t-23 66.5q0 18 5 28t16.5 15.5t29 8t42.5 5.5q-6 28 -66 54h-94v51h928v-51h-78q-42 -91 -160 -91q-196 0 -239 91h-249q58 -24 74 -55q63 -2 103 -5.5t58 -7.5q38 -8 63 -15t41.5 -14t27.5 -15t21 -18h3v-2q54 -5 102 -20
t85 -36.5t61 -48.5t30 -55l-1 -114q-38 -5 -60.5 -13t-37 -15.5t-25 -13t-24.5 -5.5q-112 0 -112 82q0 34 26 54.5t60 20.5q44 0 61 -26l3 5q2 10 2 14q0 14 -13.5 27t-35.5 23t-48.5 16t-53.5 6l-19 -1v-512l-16 13q-63 51 -142 75t-173 24q-111 0 -204 -31l49 132l34 6
q20 4 43 5t46 1q58 0 104.5 -10.5t94.5 -30.5z" />
    <glyph glyph-name="ng_kho_bn" horiz-adv-x="1047" 
d="M515 318q48 6 83.5 33t44.5 64q-18 -20 -46.5 -34.5t-65.5 -14.5q-29 0 -43 8l-39 30v-12q0 -44 -19 -78h20q16 0 31 1t34 3zM415 464q8 22 8 40q0 11 -2 20t-2 17q-10 -12 -28.5 -19.5t-40 -12t-44 -6t-41.5 -1.5v-50q33 10 48.5 16.5t23.5 12.5zM265 577v-39
q40 2 53.5 13t13.5 23q0 10 -4 16.5t-10 10t-12 4.5t-9 1q-9 0 -15 -4t-9.5 -9.5t-5.5 -10t-2 -5.5zM823 166v476l157 32v-52h77v-51h-77v-589l-31 26q-54 40 -108 69.5t-112 49.5t-122.5 32t-138.5 17h-3l-57 107q-24 -33 -71.5 -53.5t-102.5 -20.5q-54 0 -107 23.5
t-101 81.5l66 177q13 -54 33 -88t43 -54t47.5 -27.5t45.5 -7.5q25 0 43.5 7.5t31 19t18.5 25t6 24.5q0 7 -2 15q-27 -13 -55.5 -20.5t-57.5 -11.5l-90 57v80q-21 3 -38 6t-29 7l-24 7l-13 53q17 -8 42 -16.5t62 -16.5v53q6 16 24.5 25.5t39 14.5t38.5 7t23 2h14
q33 0 58.5 -7t43 -19t27 -27t9.5 -31q25 19 52 19q15 0 30 -6t27 -16.5t19.5 -25t7.5 -30.5q0 -36 -29 -53h1q66 15 76 67l1 82q19 -3 45 -19.5t49 -43t39 -61.5t16 -75q0 -51 -23.5 -94.5t-65.5 -76.5q59 -19 122 -54z" />
    <glyph glyph-name="ng_go_bn" horiz-adv-x="763" 
d="M521 523q45 0 63.5 14.5t21.5 33.5h-189q12 -13 38 -29t66 -19zM37 146l46 123q39 -16 100 -16q36 0 68 6.5t56 20t38 35t14 51.5q0 12 -6 27.5t-15.5 29t-23 23t-28.5 9.5q-5 0 -8 -0.5t-4 -0.5l-7 -9q13 -16 13 -38q0 -21 -10.5 -38t-26.5 -29t-36 -18.5t-39 -6.5
q-48 0 -82.5 24t-38.5 73q1 12 8.5 21.5t16.5 23t18 34.5t13 56h184q22 0 46.5 -8.5t47 -21.5t41.5 -28t30 -28q46 -54 51 -104q23 38 23 57v20l170 48v-495l-170 106v157q-43 -35 -91.5 -56.5t-97.5 -33.5t-96.5 -16.5t-88.5 -4.5q-46 0 -73.5 3.5t-36.5 3.5h-5zM746 571
q-18 -40 -57.5 -65.5t-102.5 -25.5q-57 0 -142 18q-42 11 -65.5 33.5t-32.5 39.5h-356v51h783v-51h-27z" />
    <glyph glyph-name="ng_mo_bn" horiz-adv-x="859" 
d="M301 516q23 1 38 5t23.5 10t12 12.5t3.5 13.5q0 12 -5 19.5t-12 11t-13.5 4.5t-10.5 1q-11 0 -17 -4t-9.5 -9t-5.5 -10t-4 -7v-47zM625 205v366h-134q3 -9 3 -17q0 -21 -19 -36t-47.5 -25t-62.5 -14.5t-64 -4.5v-58q36 11 54 19.5t29 15.5l113 -27v1q15 -42 15 -81
q0 -55 -32 -105q79 -2 145 -34zM792 -107l-167 89v62q-10 19 -26.5 37t-38 32t-46.5 23t-52 9q-45 0 -62.5 -13t-17.5 -24q0 -7 2 -9q11 10 30 16.5t41 6.5q14 0 31.5 -4.5t33 -15t26 -27.5t10.5 -41q0 -19 -11 -34.5t-29.5 -27t-44.5 -18t-56 -6.5q-15 0 -28 4.5t-29 23.5
q-7 8 -16.5 17t-23.5 19t-33.5 19.5t-46.5 18.5l31 88q-64 0 -126 27.5t-117 94.5l76 203q14 -62 37 -101.5t49.5 -62.5t54 -31.5t51.5 -8.5q30 0 52 9t36 22.5t20.5 29t6.5 28.5q0 2 -0.5 6t-1.5 9q-64 -29 -128 -38l-105 67v92q-24 4 -43 8t-33 8l-29 8l-15 60
q18 -9 46.5 -18.5t73.5 -19.5v61q8 19 31 30t47.5 17t44.5 8t22 2q106 0 151 -45v19h399v-51h-77v-678z" />
    <glyph glyph-name="ng_ro_bn" horiz-adv-x="687" 
d="M373 482q48 2 73 15t25 36q0 22 -14.5 33.5t-37.5 11.5q-21 0 -31 -13t-13 -21l-2 -5v-57zM414 -41v55q-36 -10 -83 -10q-178 0 -305 154l95 255q31 -126 95.5 -191t149.5 -65q30 0 56.5 9t46 24.5t31 35.5t11.5 42q0 12 -6 20q-39 -19 -78.5 -30.5t-81.5 -16.5l-132 84
v116q-46 8 -77 14.5t-55 14.5l-20 77q30 -13 68 -24.5t84 -22.5v75q21 52 143 69l65 5q40 0 75 -9.5t61.5 -26t42 -38t15.5 -45.5q0 -28 -23.5 -47.5t-59.5 -31.5t-78.5 -17.5t-80.5 -5.5v-72q43 14 67 24.5t38 19.5l141 -33q21 -51 21 -101q0 -38 -13 -75t-36.5 -69
t-56.5 -56.5t-74 -38.5l86 -22v-191l-13 10q-104 80 -252 80q-86 0 -165 -27l40 108q4 0 29 4.5t67 4.5q40 0 78.5 -7t83.5 -28z" />
    <glyph glyph-name="c_nyo_bn" horiz-adv-x="1167" 
d="M953 171q31 0 53 11t22 34q0 2 -0.5 6t-1.5 9l-7 1q-15 -24 -46 -24q-29 0 -46.5 17.5t-17.5 43.5q0 38 44 67q5 0 18 -5l1 12q0 41 -33 41q-21 0 -39 -13t-28 -28v-153q34 -19 81 -19zM205 454v-181l141 122q-17 5 -38.5 12.5t-46.5 18.5l-3 3q-14 5 -27 11t-26 14z
M859 436q39 39 90 39q19 0 38 -5.5t34 -15.5t24.5 -24.5t9.5 -31.5q0 -35 -18 -72l12 2l60 -51q12 -23 12 -49q0 -27 -15 -51t-40.5 -42t-59.5 -28.5t-71 -10.5q-32 0 -63 6l1 -120l-15 11q-124 91 -312 91q-108 0 -192 -28l86 177q31 0 67.5 -5.5t74.5 -16.5t76.5 -27.5
t73.5 -38.5q0 68 0.5 111.5t0.5 71.5q0 25 -1 40t-3.5 25t-7.5 17t-12 17q-26 32 -55 32q-16 0 -28 -7.5t-24 -16.5q23 -7 42 -24.5t19 -42.5q0 -20 -10.5 -37.5t-27.5 -30.5t-40 -21t-48 -8q-45 0 -75 35l-40 -36q-38 -34 -74.5 -65t-66 -54t-50.5 -37t-28 -14
q-9 0 -24 4.5t-34 12t-39 18t-39 23.5v413h-77v51h1187v-51h-972v-48q44 -27 124 -41l94 -16l42 -82q0 28 -16 59l95 86q60 15 116 15q40 0 70.5 -6.5t53.5 -20t41 -33.5t34 -48z" />
    <glyph glyph-name="c_ro_bn" horiz-adv-x="603" 
d="M228 428v-207q40 33 79.5 69t81.5 74q-18 4 -42.5 12.5t-55.5 21.5q-1 1 -3 1q-15 6 -30 13.5t-30 15.5zM332 -38v131q-48 -39 -74 -55.5t-35 -16.5q-35 0 -130 52l-26 14v484h-77v51h623v-51h-385v-60q19 -14 41.5 -23.5t52.5 -17t68.5 -13.5t88.5 -12l77 -155
q-1 0 -14 -13q-76 -73 -155 -137l108 -29v-331q-136 112 -329 112q-42 0 -146 -32l50 133q52 12 63 12q60 0 108 -10t91 -33z" />
    <glyph glyph-name="ch_bo_bn" horiz-adv-x="611" 
d="M252 -74v55q-41 -11 -84 -27q23 -6 44 -13t40 -15zM227 467v-113q64 22 130 73q-61 5 -130 40zM285 127l266 -118l-23 -54l-157 58v-192l-14 9q-28 18 -61.5 31.5t-67 23.5t-66 17t-58.5 12l-47 84q29 19 68 38t95 33l-172 62l-1 162q45 -32 92.5 -43t105.5 -11
q34 0 64 4.5t52.5 12.5t35 19.5t12.5 25.5q0 11 -8 19q-86 -47 -162 -47q-14 1 -48 8.5t-90 25.5l-34 11v253h-77v51h631v-51h-394v-55q71 -32 184 -36l84 -104h-1q70 -45 70 -97q0 -29 -22.5 -56.5t-61 -48.5t-88.5 -34t-104 -13h-3z" />
    <glyph glyph-name="ch_ro_bn" horiz-adv-x="612" 
d="M228 468v-114q64 22 130 73q-25 2 -61.5 12t-68.5 29zM285 127l268 -118l-25 -54l-72 26v-107l-13 8q-102 47 -217 47q-38 0 -84 -6.5t-101 -19.5l53 99q19 2 38 3.5t39 1.5q68 0 153 -29v52l-275 101q0 42 -0.5 81t-1.5 81q45 -32 93.5 -43t105.5 -11q36 0 66 5t51.5 13
t34 19.5t12.5 24.5q0 11 -8 19q-89 -47 -162 -47q-13 0 -47 8t-91 26l-35 11v253h-77v51h632v-51h-394v-55q70 -31 184 -36l83 -104h-1q71 -44 71 -95q0 -30 -22.5 -57.5t-60.5 -49t-88.5 -34.5t-105.5 -13h-3z" />
    <glyph glyph-name="ch_ro_alt_bn" horiz-adv-x="612" 
d="M228 468v-114q64 22 130 73q-25 2 -61.5 12t-68.5 29zM286 127l267 -118l-25 -54l-48 17v-173q-161 131 -433 131q-158 0 -384 -53l48 130l53 11q97 20 219 20q53 0 95.5 -3.5t80 -10t72.5 -16.5t73 -23l20 -8v53l-275 101q0 42 -0.5 81t-1.5 81q45 -32 93.5 -43
t105.5 -11q36 0 66 5t51.5 13t34 19.5t12.5 24.5q0 11 -8 19q-89 -47 -162 -47q-13 0 -47 8t-91 26l-35 11v253h-77v51h632v-51h-394v-55q70 -31 184 -36l83 -104h-1q71 -44 71 -95q0 -30 -22.5 -57.5t-60.5 -49t-88.5 -34.5t-105.5 -13h-2z" />
    <glyph glyph-name="j_jo_bn" horiz-adv-x="1134" 
d="M563 437q-32 -6 -65 -6q-95 8 -152 66l-17 -28q-13 -20 -19 -42t-11 -42q12 -4 32 -4q15 0 30 2.5t30 9.5l24 11l100 -42q6 -30 6 -56q0 -36 -14 -73q35 -67 78 -96t97 -29q71 0 100 74q-17 -4 -36.5 -7t-40.5 -3q-33 0 -60 6v1l-1 -1q-5 0 -20.5 7.5t-33.5 22
t-32.5 34.5t-16.5 45q1 42 6.5 79.5t15.5 70.5zM411 310q-39 -11 -80 -11q-38 0 -60 7q-5 3 -21.5 10.5t-34.5 20.5t-33 32t-16 45q0 20 4.5 42t13 43t20.5 40t26 32h-240v51h1154v-51h-728q6 -35 27 -54.5t63 -19.5q39 0 68 13l2 -2l214 -56l-1 -1q6 -37 29 -58t68 -21
q12 0 23 1t21 4l137 40v-449l-137 88v252q-10 -2 -20 -3t-20 -1q-108 0 -169 66q-40 -61 -47 -111q12 -4 32 -4q30 0 59 12l24 10l100 -42q6 -30 6 -56q0 -42 -17.5 -78.5t-49 -63.5t-74.5 -42.5t-95 -15.5q-155 0 -259 131l9 23q-56 -27 -122 -27q-76 0 -138.5 30.5
t-122.5 100.5l77 210q26 -106 79 -158.5t122 -52.5q74 0 107 74z" />
    <glyph glyph-name="j_j_bo_bn" horiz-adv-x="1081" 
d="M908 -53v50q-24 -6 -74 -25q20 -5 38.5 -11.5t35.5 -13.5zM562 436q-15 -2 -30.5 -3.5t-32.5 -1.5q-97 6 -152 66q-19 -33 -30.5 -57.5t-16.5 -54.5q12 -4 32 -4q16 0 30.5 2.5t28.5 9.5l24 11l100 -42q7 -25 7 -56q0 -25 -6 -46q35 -63 73 -85.5t80 -22.5q65 0 89 66
q-5 -2 -16 -3t-22.5 -2t-21 -2.5t-10.5 -2.5q-32 0 -58 10.5t-45.5 26t-30 33.5t-10.5 33q0 66 18 125zM403 308q-23 -5 -45.5 -7t-47.5 -2q-11 0 -20.5 1t-20 4.5t-23.5 11t-30 20.5q-23 17 -36 36.5t-13 41.5q0 43 16 84t48 73h-241v51h1101v-51h-675q6 -35 29 -54.5
t62 -19.5q38 0 68 13q2 -1 49.5 -14t141.5 -38l-1 -1q17 -71 87 -71q5 0 11 0.5t11 1.5l140 39v-573q-104 71 -274 82l-47 76q0 1 18 8t46.5 17t63.5 20.5t69 18.5v254q-2 -1 -10.5 -1.5t-17.5 -1.5l-24 -2q-85 7 -133 61q-36 -56 -43 -100q13 -4 30 -4q12 2 25 3t27 8
l21 10l89 -38q2 -17 3.5 -29.5t1.5 -20.5q0 -38 -15 -70.5t-43 -56.5t-66.5 -37.5t-86.5 -13.5q-130 0 -221 106q-61 -37 -142 -37q-74 0 -137 30t-122 101l77 210q24 -105 78 -158t123 -53q81 0 99 72z" />
    <glyph glyph-name="j_jho_bn" horiz-adv-x="1190" 
d="M954 49v522h-448q8 -38 36.5 -55t78.5 -17q9 0 18.5 1t31.5 5.5t62.5 14t112.5 26.5v-480q29 -2 56 -6t52 -11zM689 2v93l-109 -65q29 -5 56.5 -12.5t52.5 -15.5zM497 318q-22 -4 -46 -6.5t-50 -4.5q-42 0 -73 6l-41 18q-40 17 -62.5 39t-25.5 49q2 46 24 87.5t54 64.5
h-287v51h1210v-51h-77v-676l-121 45q-41 44 -79 60.5t-77 22.5v-128l-75 30q-48 19 -111.5 33.5t-144.5 29.5l-59 78h1q0 1 9 7.5t33 20.5t66.5 36.5t110.5 56.5v251q-14 -2 -26 -3t-23 -1q-130 0 -206 66q-23 -30 -38 -55t-20 -54q15 -4 41 -4q27 0 48.5 5.5t50.5 16.5
l125 -40q6 -27 6 -52q0 -92 -86 -145l-18 -10q-80 -44 -180 -44q-96 0 -182 35.5t-142 93.5l96 203q30 -97 93.5 -150.5t151.5 -53.5q46 0 78.5 14t51.5 58z" />
    <glyph glyph-name="j_nyo_bn" horiz-adv-x="924" 
d="M728 164q22 0 36.5 11t14.5 44l-8 3q-15 -22 -41 -22q-31 0 -49.5 19.5t-18.5 44.5q0 47 54 73q5 0 18 -7q3 10 3 20q0 39 -37 39q-32 0 -51.5 -27t-19.5 -66q2 -17 3.5 -30.5t1.5 -23.5q0 -7 -0.5 -14.5t-1.5 -15.5q19 -23 46 -35.5t50 -12.5zM405 335q32 0 58.5 10
t34.5 16q-56 29 -90 97q-35 -48 -45 -118q28 -5 42 -5zM613 440q25 22 48.5 32.5t53.5 10.5q19 0 39.5 -6.5t37 -18.5t27 -27.5t10.5 -33.5q0 -41 -29 -79h15l56 -59q7 -20 7 -43q0 -32 -11.5 -58t-31.5 -44t-47 -27.5t-58 -9.5q-69 0 -133 39q-34 -52 -100.5 -85
t-151.5 -33q-93 0 -176 42t-143 118l95 256q30 -125 95 -191t150 -66q49 0 80 18.5t50 69.5q-50 -12 -95 -12q-41 0 -77 12.5t-63.5 33t-44 45.5t-17.5 51q1 30 8 60t18 56.5t25.5 47t30.5 32.5h-291v51h944v-51h-431q-3 -2 -7.5 -6t-9.5 -10q17 -53 45 -78.5t82 -36.5z" />
    <glyph glyph-name="j_bo_bn" horiz-adv-x="912" 
d="M694 -71v71q-29 -9 -55.5 -18t-50.5 -17q53 -13 106 -36zM494 279q-44 -10 -97 -10q-46 0 -82.5 12.5t-61.5 31.5t-39 41t-15 41q2 51 22.5 99t57.5 77h-289v51h932v-51h-417q6 -37 34 -58.5t85 -21.5q26 0 54 5q5 1 46.5 11.5t120.5 32.5v-743l-17 10q-35 23 -70.5 40.5
t-79 30t-97 21.5t-124.5 15l-67 107q0 1 14.5 7t38.5 15t54.5 19t62 20t62 18.5t53.5 13.5v305q-17 -2 -34.5 -3.5t-36.5 -1.5q-114 7 -183 73q-50 -68 -59 -123q28 -5 39 -5q22 0 40.5 4t32 9t21.5 9t9 4l123 -47q6 -32 6 -60q0 -49 -21.5 -90t-59.5 -70.5t-91 -46
t-117 -16.5q-91 0 -174 37.5t-144 106.5l96 232q13 -54 37 -97.5t56 -73.5t70.5 -46.5t81.5 -16.5q48 0 79 17t48 65z" />
    <glyph glyph-name="j_ro_bn" horiz-adv-x="912" 
d="M495 279q-44 -10 -98 -10q-45 0 -81.5 12t-62 31t-39.5 41t-15 42q2 51 22.5 99t57.5 77h-289v51h932v-51h-418q17 -80 120 -80q26 0 54 5q5 1 46.5 11.5t120.5 32.5v-739l-16 13q-139 100 -322 100q-112 0 -214 -33l52 134q3 0 38 6t89 6q114 0 204 -43v435
q-17 -2 -35 -3.5t-37 -1.5q-114 7 -183 73q-48 -63 -58 -123q28 -5 39 -5q33 0 58.5 8t42.5 18l125 -47q6 -32 6 -58q0 -48 -21 -89t-59 -71.5t-91.5 -47.5t-118.5 -17q-91 0 -174 37.5t-144 106.5l95 232q30 -109 95 -171.5t150 -62.5q49 0 80.5 18t48.5 64z" />
    <glyph glyph-name="jh_ro_bn" horiz-adv-x="971" 
d="M455 163v285q-57 -45 -113 -91.5t-116 -97.5q66 -17 120.5 -41t108.5 -55zM746 297v346l158 30v-51h77v-51h-77v-592l-113 92q-30 72 -71.5 114t-107.5 63v-387l-16 11q-129 75 -298 75q-109 0 -197 -24l47 101l33 4q20 2 41.5 3.5t44.5 1.5q52 0 100 -7.5t88 -24.5v84
q-66 33 -144.5 51.5t-180.5 34.5l-83 160l106 89q119 99 188 151h-351v51h622v-289q80 -9 134 -36z" />
    <glyph glyph-name="ny_co_bn" horiz-adv-x="783" 
d="M304 125v157q-45 -32 -79.5 -59t-60.5 -48q37 -8 71.5 -20.5t68.5 -29.5zM549 189q35 0 60.5 12.5t25.5 37.5q0 7 -3 16l-7 2q-14 -27 -49 -27q-32 0 -52.5 19t-20.5 47q0 44 48 76l21 -5l1 12q0 21 -10 34.5t-28 13.5q-23 0 -43.5 -16t-31.5 -32v-169q40 -21 89 -21z
M439 478l5 5q18 17 47 31t58 14q22 0 43 -7.5t37.5 -19.5t26.5 -28t10 -33q0 -42 -22 -79l16 2l65 -56q12 -26 12 -55q0 -34 -17.5 -61t-46.5 -46.5t-66.5 -30t-76.5 -10.5q-35 0 -69 6v-134q-38 30 -71 51t-73 36.5t-93.5 27t-132.5 22.5l-65 113q61 48 126 95.5t122 87.5
q7 4 16 6.5t20 3.5v40q0 15 -6 31t-15.5 29t-22.5 21.5t-28 8.5q-16 0 -26 -6.5t-11 -6.5l-13 -9q23 -6 40 -22t17 -37q0 -17 -10.5 -32t-27 -26.5t-37 -18t-41.5 -6.5q-9 0 -22.5 3t-25.5 8.5t-20.5 13.5t-8.5 19q0 8 4 20.5t4 29.5q0 30 -13 56l88 76q28 5 54.5 8t52.5 3
q37 0 70.5 -9t59.5 -25.5t44 -38.5t23 -47v-24z" />
    <glyph glyph-name="ny_cho_bn" horiz-adv-x="740" 
d="M470 322q96 7 96 74l-1 12l-7 1q-11 -21 -39 -21q-26 0 -42.5 14.5t-16.5 38.5q0 35 40 60q8 0 16 -5q1 2 1 12q0 37 -32 37q-20 0 -38.5 -16.5t-38.5 -54.5q-4 -61 -42 -121q34 -25 104 -31zM285 208q79 18 138 61q-17 5 -35.5 10t-50.5 21q-14 -17 -27.5 -40t-24.5 -52
zM407 -38l273 -124l-25 -55l-492 183l-17 164q46 -32 98.5 -43t116.5 -11q35 0 66.5 4.5t55.5 12.5t38 19.5t14 26.5q0 21 -45 38q-110 -55 -185 -55q-17 0 -37 5.5t-41 14t-42 17.5t-40 15q-6 19 -6 38q0 37 21.5 74t48 70.5t48 63.5t21.5 53q0 11 -5.5 22.5t-14.5 21
t-21.5 15.5t-26.5 6h-4l-16 -1q35 -17 35 -57q0 -16 -7.5 -31.5t-20.5 -28t-31 -20t-38 -7.5q-42 0 -69.5 28t-32.5 71q0 9 10 18q55 46 66 112h142q20 -3 56.5 -17.5t81.5 -51.5q52 72 115 72q17 0 34 -5.5t30 -14.5t21 -21.5t8 -26.5q0 -34 -16 -65l12 2l62 -49
q7 -17 7 -41q0 -63 -33 -98t-96 -44l4 -4q163 -60 163 -137q0 -33 -23 -61.5t-62 -50.5t-91 -34.5t-110 -12.5z" />
    <glyph glyph-name="ny_jo_bn" horiz-adv-x="746" 
d="M563 341q46 0 46 43v10l-6 1q-14 -23 -45 -23q-27 0 -43 16t-16 41q0 37 41 63q8 0 17 -4l1 11q0 40 -33 40q-16 0 -29 -8t-22 -21t-14 -29.5t-5 -34.5q0 -26 10.5 -45.5t27 -32.5t35 -20t35.5 -7zM347 270q51 0 97 28q-26 23 -48 74q-20 -24 -41.5 -47.5t-45.5 -49.5
q20 -5 38 -5zM415 550q55 76 123 76q20 0 38 -6.5t31.5 -17.5t21.5 -25.5t8 -30.5q0 -32 -18 -63l13 2l56 -47q11 -25 11 -63q0 -90 -76 -120l88 -8q-45 -54 -45 -135q0 -67 33 -124l-150 25q-17 45 -17 83q0 51 22 98q-19 4 -35 14q-2 -44 -20 -80.5t-49 -62.5t-73 -40.5
t-93 -14.5q-153 0 -258 131l79 209q22 -102 74.5 -156t124.5 -54q35 0 57.5 13.5t39.5 49.5l-27 -8q-13 -4 -30 -5t-36 -1q-31 0 -56 6l-66 74q0 31 19.5 57.5t43 50.5t43 46.5t19.5 46.5q0 12 -6 24t-16 21.5t-23 16t-26 6.5h-4l-17 -1q36 -15 36 -57q0 -17 -8 -32.5
t-21.5 -27.5t-31.5 -19.5t-38 -7.5q-42 0 -69 28t-32 71q0 8 10 17.5t23 23.5q34 36 43 89h141q23 -3 63 -20t80 -52z" />
    <glyph glyph-name="ny_jho_bn" horiz-adv-x="923" 
d="M449 -16v126q-35 -20 -71 -41.5t-73 -44.5q39 -8 75 -17.5t69 -22.5zM693 297q35 0 60.5 10.5t25.5 30.5q0 4 -2 12l-9 1q-15 -21 -50 -21q-30 0 -51 14.5t-21 37.5q0 33 50 59q12 0 19 -4l1 10q0 36 -36 36q-24 0 -44 -10.5t-31 -24.5v-134q45 -17 88 -17zM700 67v165
q-29 0 -53 1t-42 3v-149q25 -2 48.5 -7t46.5 -13zM591 529l12 9q19 14 42 19.5t47 5.5q22 0 43 -6t37.5 -16t27 -23.5t10.5 -29.5q0 -28 -22 -56l16 2l65 -45q13 -19 13 -42q0 -33 -26 -59v-397l-113 52q-55 78 -138 95l1 -170l-1 1q-42 25 -78.5 42t-78 29t-94 20
t-126.5 16l-64 90l11 6q13 8 45 27t84 48l107 60q-90 15 -175 15q-109 0 -210 -25l96 155q87 -5 168 -22t159 -55v131q0 36 -0.5 55t-3.5 29t-8 15.5t-14 15.5q-27 28 -60 28q-20 0 -31.5 -6.5t-13.5 -6.5l-14 -9q24 -6 45.5 -22t21.5 -36q0 -18 -12.5 -33t-32 -26.5
t-44 -18t-49.5 -6.5q-15 0 -31 3.5t-30 9.5t-23 14t-9 17q0 8 5 20.5t5 28.5q0 28 -17 57l106 76q33 5 65 8t64 3q46 0 79 -5.5t58 -16.5t45.5 -29t40.5 -42z" />
    <glyph glyph-name="tt_tto_bn" horiz-adv-x="644" 
d="M227 198q9 -1 20 -2.5t21 -3t17.5 -2.5t9.5 -1q31 0 63.5 6.5t58 19t42 31t16.5 42.5q0 3 -1.5 10t-3.5 18q-16 -37 -75 -37q-48 0 -77 25t-29 73q0 54 37.5 88.5t112.5 34.5q12 -1 23 -13t27.5 -27.5t41.5 -30.5t66 -22v-134q-8 -48 -53 -99q49 -58 49 -120
q0 -49 -25.5 -90.5t-69.5 -72t-103.5 -47.5t-128.5 -17q-11 0 -23.5 0.5t-25.5 1.5l-117 193q70 -54 169 -54q43 0 79.5 8t62 21.5t40 31.5t14.5 38q0 21 -7 34q-93 -54 -233 -56l-15 2q-33 5 -69 13.5t-74 25.5v485h-77v51h386q21 16 21 46q0 38 -38.5 60.5t-101.5 22.5
q-20 0 -46 -2.5t-58 -7.5l-48 -10l-38 42l26 7q74 20 133 28t102 10q131 -2 205 -44.5t74 -112.5q0 -6 -0.5 -11.5t-1.5 -10.5l-155 -17h204v-51h-427v-373z" />
    <glyph glyph-name="tt_bo_bn" horiz-adv-x="644" 
d="M392 -105v65q-25 -7 -49.5 -15t-49.5 -16l47 -13q13 -4 26 -10t26 -11zM228 198l31 -5q14 -2 23 -3t13 -1q28 0 58 4.5t56 15.5t44.5 30t22.5 49q0 9 -2 15.5t-4 12.5q-7 -18 -28 -27.5t-46 -9.5q-48 0 -77 25t-29 73q0 54 37 88.5t112 34.5q11 0 22.5 -12.5t28.5 -27.5
q23 -20 49 -34t58 -19v-134q-4 -26 -20 -53.5t-39 -53t-50.5 -46t-54.5 -32.5h99v-316l-17 10q-33 21 -68 37t-76 28t-90 20t-110 13l-63 100l16 6q11 4 30.5 11.5t44 16.5t54 19t60.5 18q-36 -6 -80 -6q-13 0 -28.5 1t-35 5.5t-44.5 12.5t-58 22v485h-77v51h386
q22 16 22 46q0 39 -39 61t-102 22q-54 0 -104 -10l-47 -10l-38 42q0 2 30.5 9t72.5 14.5t86 14t71 7.5q132 -2 205.5 -44t73.5 -112q0 -5 -0.5 -11t-1.5 -12l-155 -17h204v-51h-426v-373z" />
    <glyph glyph-name="tt_mo_bn" horiz-adv-x="921" 
d="M228 198q20 -2 41 -5.5t26 -3.5q57 0 98.5 14t70.5 52q6 8 8 16t3 16q0 12 -3 19.5t-3 9.5q-7 -18 -27.5 -27.5t-46.5 -9.5q-43 0 -74.5 25t-31.5 73q0 52 37.5 87.5t112.5 35.5q12 -1 23.5 -13t28 -27.5t41.5 -30.5t65 -22v-134q-5 -34 -32.5 -73.5t-67.5 -71.5h18
q95 0 175 -44v487h-462v-373zM854 -239l-164 87v34q-7 28 -25.5 54t-44 46t-56 32.5t-61.5 12.5q-48 0 -67 -14t-19 -26q0 -8 2 -10q25 25 73 25q22 0 42 -7t35.5 -20t24.5 -30t9 -36t-11 -36t-30.5 -29.5t-45 -20t-54.5 -7.5q-21 0 -37 3.5t-35 25.5q-17 20 -31 32.5
t-28 21t-30.5 14.5t-38.5 13l44 124q-21 -2 -39.5 -3.5t-34.5 -1.5q-66 0 -165 41v485h-77v51h386q21 18 21 46q0 41 -40.5 62t-100.5 21q-29 0 -66 -5t-85 -15l-37 42q6 3 36.5 9.5t70.5 14t82 13.5t71 8q133 -2 206.5 -44.5t73.5 -112.5q0 -6 -0.5 -11.5t-1.5 -10.5
l-156 -17h481v-51h-77v-810z" />
    <glyph glyph-name="tt_ro_bn" horiz-adv-x="644" 
d="M227 198q21 -2 42 -5.5t26 -3.5q54 0 96.5 14t73.5 52q10 13 10 32q0 11 -2.5 19t-2.5 10q-7 -18 -28 -27.5t-47 -9.5q-51 0 -78 27.5t-27 69.5q0 55 38.5 89.5t110.5 34.5q11 0 22.5 -12.5t28.5 -27.5q23 -20 49 -34t58 -19v-134q-3 -20 -16 -44.5t-33 -49.5t-45 -47
t-53 -36l110 -45v-229q-137 101 -315 101q-103 0 -196 -30l50 120q6 0 34.5 5t79.5 5q103 0 190 -39v91q-80 -30 -179 -30l-14 2q-66 6 -143 39v485h-77v51h387q20 20 20 46q0 38 -38.5 60.5t-101.5 22.5q-54 0 -104 -10l-48 -10l-37 42q0 1 14 5t37 8.5t51.5 9.5t57.5 9.5
t55 8t44 4.5q65 -1 117 -12.5t88 -32t55 -49t19 -62.5q0 -5 -0.5 -11t-1.5 -12l-154 -17h204v-51h-427v-373z" />
    <glyph glyph-name="tt_ro_alt_bn" horiz-adv-x="644" 
d="M227 198q21 -2 42 -5.5t26 -3.5q54 0 96.5 14t73.5 52q10 13 10 32q0 8 -2 15t-2 12l-1 2q-7 -18 -28 -27.5t-47 -9.5q-51 0 -78 27.5t-27 69.5q0 55 38.5 89.5t110.5 34.5q11 0 22.5 -12.5t28.5 -27.5q23 -20 49 -34t58 -19v-134q-3 -20 -16 -44.5t-33 -49.5t-45 -47
t-53 -36l109 -44v-265q-161 131 -433 131q-158 0 -384 -53l48 130l53 11q97 20 219 20q53 0 95.5 -3.5t80 -10t72.5 -16.5t73 -23l20 -8v110q-80 -30 -180 -30q-9 0 -51 7t-105 34v485h-77v51h387q20 20 20 46q0 38 -38 60.5t-107 22.5q-56 0 -115 -13l-32 -7l-37 42
q85 21 148 32t111 13q65 -1 117 -12.5t88 -32t55 -49t19 -62.5q0 -5 -0.5 -11t-1.5 -12l-154 -17h204v-51h-427v-373z" />
    <glyph glyph-name="tth_ro_bn" horiz-adv-x="595" 
d="M396 -37v79q-56 -25 -124 -25q-113 0 -225 72l36 252q23 -38 44 -62q60 11 97 40t37 71q0 39 -29 86l-30 39l27 42l21 -25q46 -54 71 -101t25 -98q0 -97 -93 -149q18 -7 44 -7q24 0 46.5 8t39 22t26.5 33.5t10 43.5q0 32 -13.5 72.5t-43.5 74.5l-70 79q-10 11 -25.5 26
t-36.5 35h-240v51h191q-67 73 -67 143q0 49 39 102l223 5q0 -1 -19 -15t-42.5 -38t-42.5 -55.5t-19 -67.5q0 -40 28 -74h324v-51h-270l117 -102q96 -96 96 -217q0 -114 -97 -180l102 -42v-230l-16 13q-124 88 -301 88q-106 0 -193 -28l47 118l32 5q23 4 43.5 5t39.5 1
q104 0 191 -39z" />
    <glyph glyph-name="dd_ddo_bn" horiz-adv-x="1050" 
d="M859 306l-24 -18q-1 0 -1 -1q-53 -33 -105 -45l-133 85v244h-256v-165q30 17 47 33.5t24 32.5l106 -29q35 -68 35 -129q0 -24 -5 -46q78 -111 187 -111q30 0 55.5 10t44 27t28.5 39.5t10 47.5q0 15 -13 25zM431 351q-11 -8 -21.5 -17t-24 -17t-30.5 -14.5t-40 -9.5
l-113 71v207h-212v51h1070v-51h-303v-197q36 20 55 40.5t25 30.5l4 6l121 -32q41 -80 41 -149q0 -59 -23.5 -107.5t-65 -84t-97.5 -55t-122 -19.5q-154 0 -268 116q-67 -32 -139 -32q-75 0 -138.5 30.5t-123.5 102.5l81 219q24 -103 79.5 -161.5t131.5 -58.5q28 0 50.5 9
t38.5 24.5t24 35t8 40.5q0 11 -8 22z" />
    <glyph glyph-name="dd_ro_bn" horiz-adv-x="684" 
d="M496 310l-29 -23q-51 -33 -104 -45l-133 85v244h-240v51h704v-51h-304v-197q37 20 56 40.5t24 30.5l4 6l122 -32q40 -79 40 -150q0 -33 -8.5 -64t-23.5 -58.5t-35.5 -49.5t-44.5 -37l96 -39v-229l-16 11q-131 89 -296 89q-99 0 -198 -29l47 119q0 1 11 2.5t27.5 3t36.5 3
t38 1.5q45 0 96.5 -8t97.5 -31v77q-66 -26 -131 -26q-178 0 -307 155l95 256q27 -121 90.5 -189t151.5 -68q66 0 104.5 35t38.5 89q0 19 -10 28z" />
    <glyph glyph-name="ddh_ro_bn" horiz-adv-x="652" 
d="M230 192q38 -7 72 -7q54 0 96.5 13.5t71.5 53.5q9 13 11 32q0 12 -3 19t-3 9q-8 -17 -29.5 -27t-47.5 -10q-42 0 -73.5 25t-31.5 75q0 54 38.5 89t113.5 35q12 -2 24 -14q64 -67 135 -80v-135q-8 -51 -48.5 -97t-99.5 -83l110 -45v-233l-15 12q-131 89 -306 89
q-107 0 -194 -28l47 120q0 1 13.5 2.5t32 3.5t38 3.5t32.5 1.5q109 0 195 -40v94q-80 -31 -182 -31l-14 2q-42 4 -76 13.5t-62 23.5l-8 3v490h-77v51h672v-51h-432v-379z" />
    <glyph glyph-name="nn_tto_bn" horiz-adv-x="999" 
d="M591 52q-12 0 -35.5 3t-49 8.5t-48 13.5t-31.5 18v264q-6 28 -20.5 53t-35.5 43.5t-47 29t-55 10.5q-19 0 -39 -6.5t-36.5 -16t-27 -21.5t-10.5 -23q0 -19 7 -19q8 19 30.5 34t49.5 15q19 0 36 -8t30 -22t21 -33t8 -40q0 -24 -10.5 -45.5t-28.5 -38t-40.5 -26.5
t-46.5 -10q-13 0 -24 10t-27.5 23.5t-43 26t-70.5 17.5v149q2 16 16.5 43t43 53t70 45.5t97.5 19.5q80 0 153 -46v66l160 30v-50h146q21 21 21 47q0 35 -37.5 57.5t-103.5 22.5q-45 0 -80 -5t-68 -12l-38 40q10 3 43.5 10.5t74 15t79.5 13t62 5.5q65 0 116.5 -11.5t87 -32
t54 -49t18.5 -62.5q0 -5 -0.5 -10.5t-1.5 -10.5l-154 -18h203v-51h-422v-369l31 -5q14 -2 22.5 -3t12.5 -1q31 0 63 6.5t57.5 19t41.5 31t16 42.5q0 8 -5 26q-7 -17 -28 -26.5t-47 -9.5q-45 0 -74.5 26.5t-29.5 71.5q0 54 38 88t111 34q12 -2 23 -14t27.5 -27t41 -29.5
t63.5 -21.5l1 -134q-6 -37 -32.5 -76.5t-72.5 -72.5t-110 -54t-146 -21z" />
    <glyph glyph-name="nn_ttho_bn" horiz-adv-x="714" 
d="M418 181q25 0 47 8.5t38.5 22.5t26 33.5t9.5 40.5q0 27 -4.5 48.5t-15.5 43t-29 45t-46 54.5q11 -31 21 -61.5t10 -63.5q0 -102 -100 -165q16 -6 43 -6zM318 571v35q-80 83 -80 157q0 49 39 100l220 5l-18 -13q-13 -10 -31 -26.5t-34 -38t-27 -46t-11 -50.5q0 -41 27 -72
h321v-51h-268l61 -53q17 -16 31.5 -27.5t24.5 -21.5q94 -91 94 -211q0 -51 -20.5 -94t-56.5 -74t-86 -48.5t-108 -17.5q-115 0 -224 69l34 250q11 -17 22 -32.5t22 -29.5q42 11 75 31.5t44 49.5l-35 34q-8 57 -44 92t-88 35q-11 0 -25 -3.5t-26 -10t-20.5 -15t-8.5 -18.5
q0 -11 4 -15q7 14 22.5 25t34.5 11q11 0 22.5 -5.5t20.5 -15t15 -22.5t6 -28q0 -31 -24 -55.5t-62 -27.5q-9 0 -17.5 7.5t-19.5 16.5q-31 25 -77 28v104q0 15 12.5 34.5t34.5 36t50 28t60 11.5q58 0 114 -38z" />
    <glyph glyph-name="nn_ddo_bn" horiz-adv-x="776" 
d="M375 532l64 89q100 -32 156 -76.5t56 -95.5q0 -49 -56 -96q133 -78 133 -178q0 -67 -60 -116l-27 -19q-42 -30 -98 -44.5t-123 -14.5q-60 0 -113.5 14.5t-97 34.5t-76 42.5t-50.5 38.5l-26 23l162 178q24 -103 84.5 -156t141.5 -53q31 0 58.5 8t47 21t31 30t11.5 35
q0 62 -85 74q24 -29 24 -48q0 -14 -8.5 -27.5t-22 -24.5t-31 -17.5t-35.5 -6.5q-21 0 -41.5 6t-37 16.5t-27 24.5t-10.5 31q0 23 80 142h71q51 42 51 77q0 30 -39 50q0 -3 -12.5 -17t-29 -30t-33 -30.5t-24.5 -18.5l-31 -6q-5 0 -7.5 1t-5 5t-5.5 12t-8 22q-48 93 -128 93
q-12 0 -24 -4t-21.5 -10.5t-16 -16t-6.5 -21.5q0 -10 2 -12q20 38 60 38q12 0 25 -6t23.5 -16.5t17 -24.5t6.5 -30q0 -18 -8.5 -34t-22 -28t-30.5 -19t-34 -7q-9 0 -17 8q-44 41 -105 47v110q1 21 16 42.5t38.5 39t52.5 29t59 11.5q21 0 44.5 -5.5t46 -16.5t41 -27.5
t30.5 -39.5z" />
    <glyph glyph-name="nn_dd_ro_bn" horiz-adv-x="774" 
d="M372 534l67 87q97 -31 153 -75t56 -95q0 -45 -41 -86q64 -42 91.5 -82t27.5 -86q0 -27 -12 -51.5t-27 -43t-29 -30t-18 -11.5l-37 -20l91 -32v-208q-139 91 -332 91q-102 0 -203 -26l50 107q5 0 37 5t86 5q104 0 198 -35v69q-34 -7 -63 -10t-53 -3q-65 0 -119 14
t-98.5 36t-79 48.5t-59.5 51.5l161 178q24 -101 83.5 -154t140.5 -53q32 0 59.5 8t47 21t30.5 30.5t11 35.5t-7.5 30.5t-18.5 20.5t-23 12t-21 6l-14 2l12 -14q7 -8 9 -17t3 -17q0 -14 -8.5 -27.5t-22 -24.5t-31 -17.5t-35.5 -6.5q-20 0 -41 6.5t-37.5 17t-27 25t-10.5 30.5
q0 14 7 24q30 50 46.5 76t27.5 42h91q29 35 29 58q0 28 -38 48l-9 -12q-6 -8 -16.5 -19.5t-22.5 -23.5t-25.5 -22.5t-26.5 -17.5l-29 -6q-9 0 -13.5 7.5t-14.5 32.5q-47 92 -125 92q-12 0 -24.5 -4t-22 -10.5t-16 -16t-6.5 -20.5q0 -8 1 -9l1 -3q7 15 23 26t36 11
q13 0 26 -6t23.5 -16.5t16.5 -24t6 -28.5q0 -32 -24.5 -57.5t-67.5 -31.5q-10 0 -19 7.5t-21.5 17.5t-32.5 18.5t-51 10.5l-1 111q6 24 22.5 46t39.5 38.5t50.5 26.5t56.5 10q45 0 87 -22t67 -60z" />
    <glyph glyph-name="nn_ddho_bn" horiz-adv-x="998" 
d="M587 202l30 -5q14 -2 22.5 -3t12.5 -1q30 0 61.5 6.5t58 19t43 30.5t16.5 42q0 11 -3 18t-3 9q-7 -17 -28 -26.5t-46 -9.5q-46 0 -75 28.5t-29 71.5q0 54 38 87t110 33q11 -2 22 -14t27.5 -27t41.5 -29.5t65 -21.5v-134q-5 -36 -31.5 -75.5t-72 -72.5t-108.5 -54.5
t-142 -21.5h-14q-128 15 -156 43v264q-15 60 -57 98t-102 38q-18 0 -38 -6t-36 -15.5t-26.5 -21.5t-10.5 -24q0 -14 5 -19q9 19 31.5 34t49.5 15q18 0 35.5 -8.5t30.5 -23t21 -33t8 -38.5q0 -23 -10.5 -45t-28.5 -38.5t-41 -26.5t-48 -10q-11 0 -22 10t-28.5 23.5t-44 26
t-68.5 17.5v149q2 16 17 43.5t43.5 53.5t70 45t97.5 19q77 0 148 -44l4 -3v67l160 30v-50h421v-51h-421v-369z" />
    <glyph glyph-name="nn_nno_bn" horiz-adv-x="653" 
d="M427 575v67l159 30v-50h77v-51h-77v-717l-159 104v64q-8 35 -34 56t-52 21q-14 0 -18.5 -4.5t-6.5 -4.5q24 -3 45.5 -23.5t21.5 -52.5q0 -17 -7 -33t-19.5 -29t-28.5 -21t-34 -8q-73 0 -109 76l-2 8q0 8 4 17t9 20.5t9 26.5t4 35q0 28 -7 53l126 43q2 1 17 1q40 0 82 -24
v180q-6 28 -20.5 53t-35.5 43.5t-47 29t-55 10.5q-18 0 -38 -6t-36.5 -16t-27 -22t-10.5 -24q0 -18 6 -18q9 19 31.5 34t49.5 15q18 0 35.5 -8.5t30.5 -23t21 -33t8 -38.5q0 -21 -10 -42t-27.5 -38.5t-40.5 -28.5t-50 -11q-11 0 -22.5 10t-28.5 23.5t-44 26t-69 17.5v149
q2 16 17 43.5t43.5 53.5t70 45t97.5 19q80 0 147 -43z" />
    <glyph glyph-name="nn_bo_bn" horiz-adv-x="662" 
d="M433 3v74q-27 -8 -55 -17t-57 -19q29 -7 57 -16.5t55 -21.5zM433 575v68l162 30v-51h77v-51h-77v-711q-44 30 -87 50.5t-92 35t-106 24t-129 16.5l-73 114q0 2 17.5 9t46 17t64 21.5t72 22.5t69.5 20t56 14v151q-6 28 -20.5 53.5t-36 44.5t-48.5 30t-57 11
q-17 0 -36.5 -5.5t-36.5 -15t-28.5 -21.5t-11.5 -25q0 -10 3 -16l3 -5q9 20 31.5 35t50.5 15q19 0 36.5 -8.5t31 -23t21.5 -33.5t8 -40q0 -24 -11 -45.5t-29.5 -38.5t-41.5 -27t-47 -10q-12 0 -23.5 10.5t-29 24t-44.5 26t-70 17.5v151q2 16 17 44t44 54.5t71 46t98 19.5
q79 0 150 -44z" />
    <glyph glyph-name="nn_mo_bn" horiz-adv-x="977" 
d="M745 155v416h-150l-1 -372q86 -6 151 -44zM433 575v68l162 30v-51h392v-51h-77v-739l-165 87v34q-5 25 -22 51t-42.5 47t-56.5 34.5t-64 13.5q-37 0 -62.5 -11.5t-25.5 -33.5q0 -5 1 -6q25 25 77 25q20 0 39.5 -6t34.5 -17.5t24.5 -29t9.5 -40.5q0 -20 -12 -37t-32.5 -30
t-47 -20t-55.5 -7q-18 0 -34 4t-33 26q-43 55 -127 81l44 126q13 22 72 49v183q-6 28 -20.5 53.5t-36 44.5t-48.5 30t-57 11q-17 0 -36.5 -5.5t-36.5 -15t-28.5 -21.5t-11.5 -25q0 -10 3 -16l3 -5q9 20 31.5 35t50.5 15q19 0 36.5 -8.5t31 -23t21.5 -33.5t8 -40
q0 -24 -11 -45.5t-29.5 -38.5t-41.5 -27t-47 -10q-12 0 -23.5 10.5t-29 24t-44.5 26t-70 17.5v151q2 16 17 44t44 54.5t71 46t98 19.5q79 0 150 -44z" />
    <glyph glyph-name="nn_ro_bn" horiz-adv-x="661" 
d="M433 575v68l161 30v-51h77v-51h-77v-670l-15 11q-128 78 -310 78q-101 0 -200 -26l49 105q6 0 36.5 4.5t82.5 4.5q107 0 196 -33v310q-8 30 -23 55.5t-36 44t-47.5 29t-56.5 10.5q-18 0 -38 -6t-36.5 -15.5t-27 -22t-10.5 -25.5q0 -8 2.5 -13.5t3.5 -5.5q9 20 31.5 35
t50.5 15q19 0 36.5 -8.5t31 -23t21.5 -33.5t8 -40q0 -24 -11.5 -45.5t-29.5 -38.5t-41.5 -27t-47.5 -10q-12 0 -23.5 10.5t-28.5 24t-44 26t-70 17.5v151q2 16 17 43.5t43.5 54.5t70.5 46.5t99 19.5q79 0 150 -44z" />
    <glyph glyph-name="t_to_bn" horiz-adv-x="668" 
d="M448 280q39 -9 71 -21.5t54.5 -30.5t34.5 -43t12 -58q0 -39 -18.5 -72.5t-53.5 -58t-84.5 -38t-110.5 -13.5q-69 0 -128.5 22t-103.5 48t-69.5 48l-25.5 22l82 177q103 -179 240 -183q75 0 110.5 19.5t35.5 49.5q0 10 -10 21t-30 11q-24 0 -49.5 -13.5t-47.5 -30.5
l-125 51q0 33 19.5 60t43 51t43 47t19.5 47q0 16 -8 29t-21.5 21.5t-30.5 13t-35 4.5l-4 -1q37 -16 37 -59q0 -15 -8.5 -29.5t-23 -26t-33.5 -18.5t-40 -7q-42 0 -73 27t-36 69q0 10 10.5 18.5t24.5 21.5q38 35 47 88h152q33 -3 65.5 -17.5t59 -36.5t43 -49t16.5 -54
q-1 -27 -12 -49t-39 -57zM678 571h-688v51h688v-51z" />
    <glyph glyph-name="t_t_bo_bn" horiz-adv-x="668" 
d="M410 -166v67l-100 -33q26 -5 50.5 -14t49.5 -20zM449 279q39 -8 70.5 -20t54 -30t35 -42t12.5 -57q0 -35 -15 -68t-53 -62v-291l-17 12q-42 26 -86.5 43.5t-89.5 29t-89 17.5t-84 9l-63 101l31 13q16 7 36 13.5t46 15.5q-63 21 -110.5 49t-73.5 51l-2 1q-1 0 -1 1l-6 5
q-9 7 -13 10.5t-5 4.5l83 177q32 -58 66 -93.5t67.5 -55.5t64.5 -27t57 -7q63 0 96.5 21t33.5 48q0 10 -10 21t-29 11q-22 0 -45.5 -12t-39.5 -23l-10 -7q-1 -1 -2 -1l-1 -1l-21 10l-103 41v7q0 27 19.5 53t43 50.5t43 48t19.5 46.5q0 10 -6 22t-17 22.5t-25.5 17.5t-32.5 7
q-15 0 -17 -2h-2q38 -17 38 -59q0 -12 -7 -26t-20 -26t-33 -20.5t-45 -8.5q-42 0 -73 27t-36 69q0 10 10.5 18.5t24.5 21t27.5 33t19.5 55.5h152q21 -2 52.5 -13.5t60.5 -31.5t50 -48.5t21 -63.5q0 -29 -14 -56.5t-37 -50.5zM-10 571v51h688v-51h-688z" />
    <glyph glyph-name="t_tho_bn" horiz-adv-x="772" 
d="M535 127v521l170 33v-59h77v-51h-77v-644q-54 45 -106 77.5t-117 57t-150 43.5t-204 37l-81 154q24 -4 48.5 -6t49.5 -2q54 0 101 11.5t82.5 31.5t55.5 47t20 58q0 17 -8.5 28.5t-23.5 11.5q-20 0 -31 -21t-11 -48l-76 -14v1l-1 -1l1 18q0 42 -17.5 69t-46.5 27
q-6 0 -9 -1.5t-5 -1.5q49 -19 49 -73q0 -15 -8 -29t-22 -24.5t-32 -16.5t-39 -6q-46 0 -74 25.5t-33 73.5q0 11 10.5 21t24.5 26q37 40 46 104h89q78 -7 112 -58q46 58 86 58q20 0 42 -17.5t41 -46t31 -65t12 -73.5q0 -125 -131 -202q43 -16 81.5 -34t73.5 -40z" />
    <glyph glyph-name="t_no_bn" horiz-adv-x="796" 
d="M454 -76v73q-10 -2 -15 -2h-30q-51 0 -100.5 12t-95.5 33t-86.5 50t-72.5 64q-2 2 -3 2l-25 29l127 309q30 -157 98 -240t168 -83q38 0 71.5 11t59 30t40 44.5t14.5 54.5q0 25 -9.5 46.5t-24.5 38t-34.5 26t-39.5 9.5l-4 1l3 -3q3 -7 11 -15q33 -38 33 -82q0 -21 -10 -41
t-26.5 -36t-38 -26t-43.5 -10q-27 0 -52.5 10t-45 25.5t-31 36t-11.5 41.5q0 23 8 37q45 93 45 141q0 16 -1 19.5t-2 4.5h242q88 -48 132 -114.5t44 -144.5q0 -47 -14.5 -84t-35.5 -65t-44 -47t-41 -31v-390l-160 87v33q-7 27 -30.5 49t-58.5 22q-16 0 -24 -8
q25 -2 47 -20.5t22 -47.5q0 -17 -8 -32.5t-20.5 -27.5t-29 -19t-33.5 -7q-72 0 -109 70l-2 8q0 3 4 12.5t9 22.5t9 27.5t4 28.5q0 28 -7 49l126 39q2 1 18 1q41 0 83 -21zM806 571h-816v51h816v-51z" />
    <glyph glyph-name="t_bo_bn" horiz-adv-x="796" 
d="M491 -173v67l-100 -33q22 -5 45 -12l2 -2q13 -4 26 -8.5t27 -11.5zM633 -297l-16 11q-145 85 -350 99l-63 102l1 1q4 1 11 3.5t18 6.5q57 21 108 38.5t102 31.5q-5 -1 -13.5 -1h-21.5q-51 0 -100.5 12t-95.5 33t-86.5 50t-72.5 64q-2 2 -3 2l-25 29l127 309
q30 -157 98 -240t168 -83q38 0 71.5 11t59 30t40 44.5t14.5 54.5q0 25 -9.5 46.5t-24.5 38t-34.5 26t-39.5 9.5l-2 1q3 -8 12 -18q33 -38 33 -82q0 -21 -10 -41t-26.5 -36t-38 -26t-43.5 -10q-27 0 -52.5 10t-45 25.5t-31 36t-11.5 41.5q0 23 8 37q45 93 45 141
q0 16 -1 19.5t-2 4.5h242q88 -48 132 -114.5t44 -144.5q0 -47 -15 -83.5t-34.5 -63.5t-38.5 -43.5t-27 -22.5zM806 571h-816v51h816v-51z" />
    <glyph glyph-name="t_lo_bn" horiz-adv-x="796" 
d="M489 -38v60q-44 -6 -83 -6q-50 0 -100 11.5t-96 31.5t-85.5 47.5t-67.5 59.5l-31 33l127 297q29 -148 97 -229.5t168 -81.5q36 0 69.5 10.5t59 28t41 41t15.5 49.5q0 29 -10 52t-25.5 38.5t-35.5 23.5t-40 8l9 -10q38 -41 38 -85q0 -20 -10 -39.5t-27 -35t-38.5 -25
t-43.5 -9.5q-27 0 -52 9t-44.5 24t-31 35t-11.5 42q0 20 7 34q46 82 46 137q0 13 -1 16.5t-2 4.5h242q88 -45 132 -109t44 -139q0 -21 -5.5 -45.5t-17 -49.5t-28 -48.5t-38.5 -41.5v-400l-171 74v45q-12 41 -39 41q-34 0 -34 -48l1 -10l-105 -13q0 51 -18.5 78t-53.5 27
q-8 0 -13.5 -1.5t-10.5 -1.5l-2 -1q48 -23 48 -74q0 -29 -27.5 -52.5t-71.5 -23.5q-48 0 -79.5 26.5t-36.5 72.5q0 11 10 20.5t24 25.5q36 41 45 103h100q94 0 135 -63q39 44 76 44h10q20 0 42 -8zM806 571h-816v51h816v-51z" />
    <glyph glyph-name="t_mo_bn" horiz-adv-x="958" 
d="M715 111v460h-725v51h978v-51h-77v-809l-176 95v36q-7 28 -27 56t-48 50.5t-61.5 36t-68.5 13.5q-40 0 -65 -12t-25 -30q0 -7 1 -8l1 -2q32 26 80 26q24 0 46 -7.5t38 -20.5t25.5 -32t9.5 -41q0 -21 -12.5 -39.5t-33.5 -32t-49 -21t-59 -7.5q-21 0 -39 4.5t-36 27.5
q-47 58 -138 87l47 135q5 8 19 19q-65 7 -117.5 30t-90.5 48.5t-60 48.5t-26 30l109 254q26 -129 84.5 -197.5t143.5 -68.5q33 0 62.5 9t51.5 25t34.5 37t12.5 44q0 30 -12.5 49.5t-29 31t-32 16t-20.5 4.5q-2 0 -2 -1l20 -24q11 -14 16 -29t5 -29q0 -15 -8 -31.5t-22 -30
t-33 -22.5t-40 -9t-42.5 8t-39 21t-28 30t-10.5 35q0 15 7 28q39 78 39 119q0 8 -1.5 12.5t-1.5 5.5h208q75 -38 113 -93.5t38 -119.5q0 -24 -6 -45.5t-14.5 -39.5t-17.5 -31t-16 -21l-10 -12l-24 -19q85 -8 155 -47z" />
    <glyph glyph-name="t_ro_bn" horiz-adv-x="673" 
d="M450 136q0 66 0.5 110t0.5 73q0 28 -1 45t-4 28t-8 19t-14 19q-30 37 -61 37q-14 0 -32 -9l-28 -20q27 -8 48 -28.5t21 -46.5q0 -18 -11.5 -36.5t-30.5 -33.5t-44 -24.5t-53 -9.5q-14 0 -30 4t-29.5 11.5t-23 17t-9.5 20.5t5 26t5 37q0 34 -17 73l106 95q66 15 129 15
q34 0 63 -3.5t53.5 -13.5t45.5 -26.5t41 -42.5q27 -36 34 -64v-444l-17 14q-143 101 -346 101q-117 0 -187 -33l66 185q102 -7 181.5 -30t146.5 -65zM683 571h-693v51h693v-51z" />
    <glyph glyph-name="th_bo_bn" horiz-adv-x="733" 
d="M514 -69v69q-39 -12 -65.5 -20.5t-40.5 -13.5q28 -7 54 -15.5t52 -19.5zM506 155v508l160 32v-73h77v-51h-77v-776q-133 100 -389 118l-69 108q126 51 225 78q-69 23 -143 40t-155 28q-2 -1 -14 -1l-77 147q37 -6 66 -6q47 0 87 9.5t69 27t45.5 42.5t16.5 56
q0 17 -6.5 32.5t-18 27.5t-26.5 19t-31 7q-4 0 -8.5 -0.5t-9.5 -1.5q17 -8 28 -25t11 -38q0 -18 -8.5 -35t-23.5 -30t-35 -21t-43 -8q-45 0 -76 30.5t-34 79.5q0 10 9.5 19.5t22 24.5t25 38t18.5 60h164q21 -3 50.5 -20.5t56 -46t45 -66.5t18.5 -81q0 -109 -103 -179
q43 -16 81 -34.5t72 -38.5z" />
    <glyph glyph-name="th_ro_bn" horiz-adv-x="733" 
d="M506 155v508l160 32v-73h77v-51h-77v-723l-16 12q-133 76 -301 76q-111 0 -204 -25l48 104l33 5q20 3 41.5 4t44.5 1q105 0 194 -33v78q-127 58 -372 97q-2 -1 -14 -1l-77 147q40 -6 68 -6q46 0 86 9.5t69 27t45.5 42.5t16.5 56q0 16 -6 31.5t-17 27.5t-26 19.5t-32 7.5
q-12 0 -15 -1l-5 -1q19 -7 29.5 -24t10.5 -37q0 -19 -9 -36t-24 -30.5t-35 -21.5t-42 -8q-21 0 -41 8.5t-35 23.5t-24.5 35.5t-9.5 44.5q0 9 10 18q52 49 64 122h166q36 -6 66.5 -28t53.5 -53t36 -66t13 -67q0 -109 -103 -179q43 -16 81 -34.5t72 -38.5z" />
    <glyph glyph-name="th_lo_bn" horiz-adv-x="735" 
d="M508 154v509l160 32v-73h77v-51h-77v-793l-163 69v42q-8 39 -36 39q-34 0 -34 -45l1 -9l-99 -13v2l-1 -2q0 48 -17 74.5t-49 26.5q-6 0 -26 -5q47 -23 47 -71q0 -14 -7.5 -27t-20.5 -22.5t-30.5 -15.5t-36.5 -6q-46 0 -75 25t-34 68q0 11 9.5 21t22.5 25q35 40 43 97h93
q90 0 129 -61q37 42 72 42h10q17 0 39 -8v47q-137 62 -370 96q-2 -1 -13 -1l-78 147q40 -6 68 -6q46 0 86 9.5t69 27t45.5 42.5t16.5 56q0 17 -6.5 32.5t-18 27.5t-26.5 19t-31 7q-11 0 -13 -1l-5 -1q17 -8 28 -25t11 -37q0 -18 -8.5 -35.5t-23 -30.5t-34.5 -21t-43 -8
q-46 0 -76.5 31t-35.5 79q0 9 10 19q56 53 65 123h165q27 -4 56.5 -24t54.5 -50t41.5 -65.5t16.5 -71.5q0 -110 -102 -182q42 -16 80.5 -34.5t73.5 -39.5z" />
    <glyph glyph-name="d_do_bn" horiz-adv-x="972" 
d="M404 281q-37 -45 -82.5 -83.5t-91.5 -64.5h-163v438h-77v51h992v-51h-752v-297q48 39 81 80.5t53.5 75t30 55t9.5 20.5h164v-287q47 39 80 80t53.5 75t30 55.5t9.5 20.5h164v-487l-164 104v160q0 -1 -1 -1q-30 -35 -51.5 -57.5t-40.5 -38.5t-37.5 -28t-42.5 -26h-164v206
z" />
    <glyph glyph-name="d_d_bo_bn" horiz-adv-x="973" 
d="M754 -86v69q-26 -8 -52.5 -16.5t-53.5 -18.5q24 -5 49.5 -13t52.5 -19zM405 280q-8 -10 -17 -19.5t-19 -18.5l-19 -18q0 -1 -1 -1q-57 -57 -117 -90h-165v438h-77v51h993v-51h-751v-297q47 39 80 80t53.5 75t30 55.5t9.5 20.5h163v-287q48 39 81 80t53.5 75t29.5 55.5
t10 20.5h164v-670l-18 11q-92 56 -187.5 78t-185.5 28l-68 108h1q0 1 1 1l24 9q18 7 46.5 18t64.5 23.5t76.5 24.5t81.5 21v125q-9 -11 -18 -20t-19 -20l-18 -20q-1 0 -1 -1q-29 -28 -59 -50.5t-59 -39.5h-163v205z" />
    <glyph glyph-name="d_dho_bn" horiz-adv-x="880" 
d="M417 -117v105q-98 -42 -136 -62q75 -15 136 -43zM668 81l-101 -34v-298q-75 54 -171.5 82t-217.5 37l-68 107q0 1 30.5 17.5t75 39.5t96 48t93.5 44v158q-5 -6 -12.5 -15.5t-16 -19.5t-16.5 -17t-12 -7q-57 -57 -117 -90h-164v438h-77v51h900v-51h-659v-297
q34 29 61.5 60t47.5 59.5t34 52t21 38.5l10 21h162v-321q36 11 61.5 18t39.5 10h165v-448l-165 103v214z" />
    <glyph glyph-name="d_dh_bo_bn" horiz-adv-x="879" 
d="M416 -61v106q-74 -32 -135 -63q77 -15 135 -43zM437 -213v62l-92 -30q24 -7 47 -14.5t45 -17.5zM668 138l-50 -16t-50 -17v-432q-33 22 -67 39t-73 29t-87 20t-109 13l-59 93q25 11 54 22t64 22q-36 5 -64.5 8t-48.5 5l-69 109l15 8.5t39.5 21t56 28.5t64.5 32t64.5 31
t55.5 25v103q-6 -8 -14 -18t-16.5 -19t-15.5 -15.5t-10 -6.5q-56 -57 -117 -90h-164v438h-77v51h899v-51h-658v-297q35 29 62.5 60t48 59.5t34 52t19.5 38.5l9 21h164v-264q54 17 100 27h164v-448l-164 103v215z" />
    <glyph glyph-name="d_no_bn" horiz-adv-x="635" 
d="M404 87v195q-8 -12 -18 -21t-19 -19q-67 -70 -136 -109h-164v438h-77v51h655v-51h-414v-297q31 25 56.5 53t46.5 56t36 54.5t25 47.5l9 20h164v-691l-164 90v34q-3 13 -11.5 26t-20.5 23t-27 16.5t-30 6.5q-13 0 -27 -8q13 -1 25.5 -7t22.5 -15t16 -21.5t6 -27.5
t-7 -30.5t-20 -27.5t-30 -20t-36 -8q-76 0 -111 71l-2 8q0 3 4 13t9 24t9 29t4 29q0 27 -6 48q132 43 148 43q40 0 84 -23z" />
    <glyph glyph-name="d_bo_bn" horiz-adv-x="635" 
d="M415 -86v69q-25 -8 -51.5 -16.5t-54.5 -18.5q51 -11 105 -33q0 -1 1 -1zM403 279q-8 -10 -17 -19.5t-18 -17.5l-20 -19q-29 -28 -57.5 -51t-60.5 -39h-163v438h-77v51h655v-51h-415v-297q48 39 81 80t53.5 75t29.5 55.5t9 20.5h165v-726l-18 11q-46 28 -93 47t-94.5 31
t-94 18.5t-90.5 9.5l-69 108q-1 0 24.5 10t67 25t94.5 32t108 30v178z" />
    <glyph glyph-name="d_bho_bn" horiz-adv-x="807" 
d="M404 281q-37 -45 -82 -82.5t-91 -65.5h-164v438h-77v51h827v-51h-586v-297q35 29 62.5 60t48 59.5t34 52t19.5 38.5l9 21h164v-242q34 -25 34 -63q0 -31 -18 -48t-44 -17t-40.5 14t-14.5 31q0 7 3 15l-3 -1q-5 -13 -5 -20q0 -22 21 -38.5t50 -16.5q76 0 139 112l14 -11
q15 -14 26 -33t17.5 -38.5t9.5 -39t3 -35.5q0 -47 -18.5 -86t-51.5 -68t-78.5 -45t-99.5 -16q-148 0 -245 124l77 207q22 -97 72.5 -152.5t123.5 -55.5q17 0 30.5 2.5t25.5 9t24 18.5t27 32h-1q-46 -20 -93 -20q-32 0 -60 10.5t-48 29t-31.5 44t-11.5 55.5q0 10 0.5 16
t1.5 10v92z" />
    <glyph glyph-name="d_bh_ro_bn" horiz-adv-x="824" 
d="M613 -65v81q-32 -7 -54 -7q-33 0 -62.5 11t-51 30.5t-34 46t-12.5 58.5q0 17 5 39v87q-37 -45 -80.5 -82.5t-92.5 -65.5h-164v438h-77v51h844v-51h-603v-297q35 29 62.5 60t48 59.5t34 52t19.5 38.5l9 21h165v-239q43 -25 43 -72q0 -31 -20 -49t-46 -18q-29 0 -44 15.5
t-15 32.5q0 7 3 15l-2 -1q-6 -11 -6 -22q0 -23 23 -40.5t54 -17.5q77 0 146 119l14 -11q16 -15 27 -35t18 -42t10 -43t3 -38q0 -50 -21 -93v-160q-120 78 -287 78q-99 0 -180 -22l44 93q3 0 31 4.5t76 4.5q94 0 173 -29z" />
    <glyph glyph-name="d_mo_bn" horiz-adv-x="955" 
d="M721 127v444h-490v-297q34 29 61.5 59.5t48 59t34 52.5t19.5 39l9 21h164v-335q46 -3 82.5 -14.5t71.5 -28.5zM403 280q-42 -48 -86 -85.5t-86 -61.5h-164v438h-77v51h975v-51h-77v-775l-167 89v35q-7 28 -26 54.5t-45.5 47.5t-58 33.5t-62.5 12.5q-48 0 -67.5 -14
t-19.5 -25q0 -5 1 -7.5t1 -3.5q25 25 76 25q20 0 40 -6.5t36 -19t26 -30t10 -39.5q0 -20 -12 -37.5t-32 -30.5t-47.5 -20.5t-58.5 -7.5q-19 0 -34.5 4t-32.5 26q-16 18 -30 30.5t-29 21.5t-32.5 16t-39.5 14l45 128q13 25 74 52v136z" />
    <glyph glyph-name="d_ro_bn" horiz-adv-x="634" 
d="M402 19v263q-12 -17 -32 -37t-43.5 -40.5t-48.5 -39t-48 -32.5h-163v438h-77v51h654v-51h-414v-297q35 29 62.5 60t47.5 59.5t33.5 52t19.5 38.5l9 21h165v-670q-137 113 -326 113q-90 0 -190 -33l51 133l34 6q20 4 42.5 5t45.5 1q42 0 87.5 -10.5t90.5 -30.5z" />
    <glyph glyph-name="d_ro_alt_bn" horiz-adv-x="634" 
d="M402 282q-12 -17 -32 -37t-43.5 -40.5t-48.5 -39t-48 -32.5h-163v438h-77v51h654v-51h-414v-297q54 46 92.5 94t63.5 102l15 33q0 1 166 2v-665l-25 17q-69 54 -174 86t-243 32q-158 0 -384 -53l48 130l53 11q97 20 219 20q53 0 95.5 -3.5t80 -10t72.5 -16.5t73 -23
l20 -8v260z" />
    <glyph glyph-name="d_r_ukar_bn" horiz-adv-x="898" 
d="M402 282q-12 -17 -32 -37t-43.5 -40.5t-48.5 -39t-48 -32.5h-163v438h-77v51h918v-51h-678v-297q54 46 92.5 94t63.5 102l15 33q0 1 166 2v-97q8 -23 21.5 -46.5t31 -42t38.5 -30.5t43 -12q11 0 23.5 4t23 11t17.5 17t7 23q0 5 -1 11t-3 8q-7 -18 -23.5 -30t-37.5 -12
q-15 0 -29.5 7t-26.5 19t-19.5 28.5t-7.5 35.5q0 37 27.5 63t69.5 31q10 0 19.5 -8.5t24 -19.5t36.5 -21.5t57 -14.5l5 -124q-3 -21 -21 -43t-44 -39.5t-57.5 -29t-61.5 -11.5q-64 0 -112 33v-380q-137 113 -326 113q-90 0 -190 -33l52 133l45 8q17 3 34 4t34 1
q45 0 93 -10.5t93 -31.5v263z" />
    <glyph glyph-name="d_r_ookar_bn" horiz-adv-x="869" 
d="M656 321q-48 -14 -89 -30v-456q-137 113 -326 113q-90 0 -190 -33l52 133q35 7 63.5 10t49.5 3q96 0 186 -42v263q-12 -17 -32 -37t-43.5 -40.5t-48.5 -39t-48 -32.5h-163v438h-77v51h889v-51h-649v-297q54 46 92.5 94t63.5 102l15 33q0 1 166 2v-116q20 7 42 13.5
t47 11.5l166 1v-413l-166 106v213z" />
    <glyph glyph-name="dh_no_bn" horiz-adv-x="684" 
d="M458 154v204q-29 -17 -79.5 -47.5t-123.5 -76.5q55 -13 105.5 -32.5t97.5 -47.5zM181 392l-20 15q-74 62 -74 161q4 44 22 80t35 49l127 70q19 -26 37 -38.5t34 -18t29.5 -8t23 -7.5t15 -17t5.5 -37q0 -23 -9.5 -43t-25.5 -35t-36.5 -24t-42.5 -9q-45 0 -63.5 19.5
t-18.5 43.5q0 26 18 49l-7.5 -1.5t-15.5 -7.5t-15 -19t-7 -37q0 -45 31 -66t76 -21q76 0 159 65v89l159 32v-54h77v-51h-77v-823l-163 90v33q-10 32 -35.5 52.5t-55.5 20.5q-13 0 -18 -4t-6 -4q29 -5 49.5 -26t20.5 -47q0 -14 -7 -29t-20 -27.5t-30 -20.5t-36 -8
q-75 0 -112 72q-2 8 -2 9q0 3 4 12.5t9.5 22.5t9.5 28t4 29q0 26 -7 50q135 42 148 42q40 0 84 -23v52q-112 46 -322 73l-85 163z" />
    <glyph glyph-name="dh_mo_bn" horiz-adv-x="930" 
d="M421 249v166q-46 -23 -91 -48.5t-93 -51.5q95 -18 184 -66zM697 117v454h-132v-411q73 -9 132 -43zM172 442q-45 22 -66 59.5t-21 82.5q3 36 19.5 65t32.5 39l114 57q18 -21 34.5 -31t31.5 -15t26.5 -7t20.5 -6t13.5 -14t4.5 -30q0 -18 -9 -34t-23 -28t-33 -19t-38 -7
q-74 0 -74 51q0 22 15 39q-17 0 -28 -14.5t-11 -37.5q0 -34 27 -53t69 -19q61 0 144 54v76l144 25v-53h375v-51h-77v-783l-166 89v35q-7 28 -26 54.5t-45.5 47.5t-57.5 33.5t-62 12.5q-50 0 -69 -15t-19 -27q0 -7 2 -9q25 25 76 25q22 0 42.5 -7t36 -19.5t24.5 -30t9 -37.5
q0 -19 -11.5 -36.5t-31 -30.5t-46 -21t-55.5 -8q-24 0 -39.5 5t-34.5 25q-39 54 -130 82l45 128q10 18 51.5 40.5t104.5 33.5q1 1 11 1q-28 16 -57 27t-64.5 19.5t-80 15.5t-104.5 16l-41 6l-78 133z" />
    <glyph glyph-name="dh_ro_bn" horiz-adv-x="685" 
d="M459 153v205q-51 -29 -101.5 -60.5t-102.5 -63.5q114 -29 204 -81zM181 392l-19 15q-72 61 -72 161q1 16 6.5 35.5t13 38.5t17 34t18.5 21l127 70q22 -29 44.5 -42t41 -18t31.5 -7.5t16 -11.5q5 -14 8 -25t3 -23q0 -23 -10 -43t-26 -35t-36.5 -23.5t-41.5 -8.5
q-45 0 -63 19.5t-18 43.5q0 30 16 49l-7 -1q-10 -3 -23 -16.5t-13 -46.5q0 -45 31 -66.5t76 -21.5q72 0 158 65v89l159 32v-54h77v-51h-77v-712l-16 11q-131 77 -306 77q-101 0 -198 -25l48 104q6 0 37 4.5t83 4.5q104 0 193 -33v69q-67 29 -145.5 45t-181.5 29l-85 163
q14 9 24.5 15t24 14.5t33 21t52.5 33.5z" />
    <glyph glyph-name="n_jo_bn" horiz-adv-x="1011" 
d="M325 501q39 60 52 70h-387v51h1031v-51h-420q16 -91 119 -91q11 0 24.5 1t30.5 5q12 2 54 14.5t115 34.5v-554l-171 107v311q-17 -2 -34 -3.5t-34 -1.5q-118 7 -187 82q-48 -69 -59 -137q22 -5 40 -5q42 0 102 27l124 -51v1q4 -21 5.5 -38t1.5 -31q0 -54 -21.5 -99.5
t-60 -78.5t-92.5 -51.5t-118 -18.5q-76 0 -156 33.5t-147 110.5l115 173q79 -157 220 -157q85 0 121 89q-32 -7 -61 -9t-60 -2q-12 0 -23.5 1.5t-25 6t-29.5 13.5t-36 24q-59 43 -63 93q-8 29 -33 51t-60 22q-18 0 -29 -11q13 0 27 -5.5t24.5 -15t17.5 -22.5t7 -28
q0 -17 -7.5 -32.5t-21 -27.5t-31 -19.5t-36.5 -7.5q-65 0 -103 59q-3 4 -3 10q0 14 8.5 31t8.5 44q0 31 -13 64l123 54q9 4 35 4q24 0 48 -5.5t46 -19.5z" />
    <glyph glyph-name="n_ttho_bn" horiz-adv-x="671" 
d="M329 179q19 -6 39 -6q28 0 51.5 9.5t40 24.5t25.5 34t9 39q0 42 -21.5 85t-52 82t-63 71.5t-54.5 52.5h-313v51h264q-68 77 -68 145q0 48 41 101l223 5q-64 -49 -93.5 -92.5t-29.5 -85.5t27 -73h327v-51h-273l63 -54q42 -36 71.5 -67.5t47.5 -63t26 -65t8 -73.5
q0 -50 -21 -93t-58.5 -74.5t-88.5 -49.5t-111 -18q-116 0 -226 71l26 185l54 7q19 3 39.5 10t38 17.5t30.5 22t17 23.5l-65 9q0 37 -20.5 64t-55.5 27q-19 0 -19 -6q20 -3 38 -20t18 -40q0 -12 -6.5 -24.5t-17 -22.5t-25 -16.5t-29.5 -6.5q-66 0 -94 63q-1 1 -1 7q0 7 4 14
q22 37 22 69q0 21 -4 36q118 29 121 29q12 0 28.5 -4.5t34 -11t34 -15t28.5 -16.5q-8 10 -17.5 18t-20.5 15l26 39q1 0 13 -13.5t27.5 -33.5t31 -42t23.5 -39q22 -45 22 -96q0 -86 -91 -153z" />
    <glyph glyph-name="n_ddo_bn" horiz-adv-x="722" 
d="M266 506v65h-276v51h742v-51h-306v-199q45 23 68 53l16 26l125 -34q40 -79 40 -151q0 -58 -23 -106.5t-64 -84t-98 -55t-124 -19.5q-165 0 -286 130l119 162q76 -139 208 -139q27 0 52 9.5t44 27t30 40.5t11 50q0 12 -10 28q-29 -26 -61 -43t-74 -26l-133 85v36
q-4 31 -25.5 56t-58.5 25q-15 0 -20.5 -5t-6.5 -5q12 0 24 -5t21.5 -13t15.5 -19.5t6 -23.5q0 -15 -7 -29t-18.5 -24.5t-27 -17t-32.5 -6.5q-57 0 -88 51q-2 6 -2 9q0 11 6.5 26t6.5 40q0 30 -10 56l106 47q10 3 27 3q45 0 83 -20z" />
    <glyph glyph-name="n_dd_ro_bn" horiz-adv-x="722" 
d="M266 506v65h-276v51h742v-51h-305v-191q42 22 68 52l16 24l123 -33v1q41 -77 41 -144q0 -69 -34.5 -125.5t-94.5 -88.5l77 -30v-233l-15 13q-131 89 -301 89q-104 0 -197 -30l47 121q5 0 35.5 5t81.5 5q106 0 192 -40v69q-42 -13 -96 -13q-163 0 -290 127l120 156
q79 -136 203 -136q30 0 55.5 9.5t44.5 26t30 38.5t11 48q0 9 -8 28q-71 -55 -137 -65l-133 81v26q-4 30 -25.5 55.5t-58.5 25.5q-14 0 -20.5 -4.5t-6.5 -5.5q24 0 45.5 -16.5t21.5 -43.5q0 -16 -7 -30t-19 -24.5t-27.5 -17t-31.5 -6.5q-57 0 -88 51q-2 6 -2 10
q0 11 6.5 26.5t6.5 39.5t-11 55l107 47q8 4 27 4q45 0 83 -21z" />
    <glyph glyph-name="n_to_bn" horiz-adv-x="733" 
d="M295 496v75h-305v51h753v-51h-285v-224h76q78 -40 115 -96t37 -119q0 -25 -6 -46.5t-14.5 -39.5t-18 -31.5t-16.5 -21.5l-11 -12q-35 -38 -94.5 -61.5t-134.5 -23.5q-90 0 -173 36.5t-143 102.5l112 201q32 -96 87.5 -144t128.5 -48q33 0 61.5 9.5t50 25.5t34 37.5
t12.5 44.5q0 37 -24.5 64.5t-73.5 35.5l7 -6q4 -4 10 -12t11 -18t9 -22t4 -25q0 -18 -9 -35.5t-23.5 -30.5t-33 -21t-37.5 -8q-23 0 -45 8t-39 21.5t-27 30.5t-10 35t7 31q31 63 34 92l-26 15v32q-6 28 -31.5 50t-56.5 22q-17 0 -25 -8q12 -1 24.5 -7t22.5 -15.5t16.5 -22
t6.5 -26.5t-7.5 -29t-20.5 -27t-30 -20t-36 -8q-71 0 -109 71l-2 8q0 7 4 15t9 19t9 25t4 32q0 28 -7 49q133 42 146 42q43 0 83 -22z" />
    <glyph glyph-name="n_t_bo_bn" horiz-adv-x="733" 
d="M446 -175v59l-88 -28q23 -5 44.5 -13t43.5 -18zM294 500v71h-304v51h753v-51h-286v-215h76q77 -36 115 -87.5t38 -110.5q0 -29 -10.5 -53.5t-22.5 -42t-22.5 -27l-10.5 -9.5q-11 -10 -23 -18.5t-26 -16.5v-275l-14 10q-119 71 -308 87l-57 89q26 11 58.5 22.5t78.5 28.5
q-35 5 -72 17t-72 28t-64 35.5t-47 39.5l113 183q36 -91 89 -133t131 -42q32 0 60 9.5t48.5 24.5t32 34.5t11.5 40.5q0 23 -9 38.5t-21.5 25.5t-27 15.5t-24.5 7.5l-15 3q15 -14 28 -33.5t13 -42.5q0 -16 -9 -31t-23.5 -27t-33.5 -19t-38 -7q-23 0 -44.5 7t-38.5 19
t-27.5 27.5t-10.5 32.5q0 13 7 26q29 53 35 82l-26 13v30q-7 26 -30 48.5t-57 22.5q-14 0 -19 -4t-6 -4q12 -1 24.5 -7t22.5 -15t16 -21t6 -25q0 -15 -8 -29.5t-21.5 -26t-30 -18.5t-34.5 -7q-72 0 -109 67l-2 8q0 7 4 14.5t9 18t9 24t4 31.5q0 25 -7 47q132 40 146 40
q42 0 83 -21z" />
    <glyph glyph-name="n_t_ro_bn" horiz-adv-x="768" 
d="M295 500v71h-305v51h788v-51h-320v-164q58 0 94.5 -3.5t60.5 -12t40.5 -23t34.5 -36.5q28 -35 33 -57l1 -414l-17 13q-137 89 -332 89q-116 0 -206 -28l91 174l20 -1q159 -8 292 -83q0 66 0.5 108.5t0.5 69.5q0 24 -1 38t-3.5 23t-7 15.5t-12.5 15.5q-29 32 -57 32
q-19 0 -32 -8t-26 -17q24 -6 44.5 -24.5t20.5 -42.5q0 -19 -12 -35.5t-31 -29t-42.5 -19.5t-47.5 -7q-14 0 -29.5 3.5t-29 10t-22 15t-8.5 18.5q0 11 4.5 24.5t4.5 31.5q0 26 -15 64l26 22v24q-8 28 -32 49.5t-55 21.5q-13 0 -27 -8q25 -2 47.5 -20.5t22.5 -47.5
q0 -14 -7.5 -28.5t-20.5 -26t-30 -19t-36 -7.5q-71 0 -108 67l-2 8q0 7 4 14.5t9 18t9 24t4 31.5q0 25 -7 47q130 40 145 40q42 0 84 -21z" />
    <glyph glyph-name="n_tho_bn" horiz-adv-x="712" 
d="M469 -18l224 -98l-105 -92l-405 193q3 5 20.5 41t49.5 105q73 -40 147 -40q63 0 101.5 25t38.5 64q0 12 -3.5 25t-13.5 25t-28 22t-48 17l-7 -8q12 -17 12 -34t-9 -32t-23.5 -26t-32 -17.5t-35.5 -6.5q-42 0 -71 22.5t-34 65.5q1 5 3 9l4 8q42 55 42 107q-10 32 -35 51.5
t-54 19.5q-14 0 -18.5 -4t-6.5 -4q12 -1 24.5 -7t22.5 -15t16.5 -21t6.5 -25q0 -14 -7.5 -28.5t-20.5 -26t-30 -19t-36 -7.5q-72 0 -109 67l-2 8q0 7 4 14.5t9.5 18t9.5 24t4 31.5q0 25 -7 47q130 40 145 40q42 0 84 -21v71h-306v51h732v-51h-265l1 -220q35 0 90 -26
q60 -29 88.5 -69t28.5 -90q0 -29 -11.5 -57t-32.5 -52t-51 -42t-67 -27z" />
    <glyph glyph-name="n_dho_bn" horiz-adv-x="786" 
d="M329 38v105q-40 -17 -73 -33t-60 -30q70 -13 133 -42zM576 235q-23 -8 -47.5 -16t-50.5 -18v-294q-144 100 -384 117l-68 106q0 1 16.5 10t43.5 23t60.5 30.5t67.5 33t64.5 31t50.5 23.5v42l-10 4v30q-3 13 -11.5 26t-20 23t-25.5 16t-29 6q-13 0 -27 -8q27 -2 48 -22
t21 -46q0 -15 -7.5 -29.5t-20.5 -26t-30 -18.5t-35 -7q-73 0 -110 67l-2 8q0 7 4 14.5t9.5 18t9.5 24t4 31.5q0 25 -7 47q132 40 146 40q42 0 83 -21v71h-329v51h806v-51h-315v-233q50 15 95 24h163v-441l-163 103v211z" />
    <glyph glyph-name="n_dh_ro_bn" horiz-adv-x="784" 
d="M328 37v106q-43 -19 -76.5 -34.5t-57.5 -28.5q36 -8 69.5 -18.5t64.5 -24.5zM575 235q-24 -8 -48.5 -16t-50.5 -18v-399q-105 81 -255 81q-81 0 -158 -23l38 97q4 0 28 4.5t66 4.5q84 0 156 -33v40q-108 39 -259 51l-66 106l23 13q136 76 279 138v42l-9 4v30
q-8 27 -31.5 49t-56.5 22q-14 0 -20 -4t-7 -4q25 -2 47.5 -20.5t22.5 -47.5q0 -14 -7.5 -28.5t-20.5 -26t-30 -19t-36 -7.5q-72 0 -109 67l-2 8q0 7 4 14.5t9 18t9 24t4 31.5q0 25 -7 47q132 40 147 40q44 0 84 -22v72h-329v51h804v-51h-314v-233q23 7 46.5 13t48.5 11h162
v-441l-162 103v211z" />
    <glyph glyph-name="n_no_bn" horiz-adv-x="628" 
d="M401 463v108h-411v51h648v-51h-77v-764l-160 93v65q-9 30 -32.5 52t-55.5 22q-19 0 -26 -9q27 -2 48.5 -22.5t21.5 -48.5q0 -15 -8 -30t-21 -27.5t-30 -20t-35 -7.5q-73 0 -108 71l-2 10q0 8 4 15q21 42 21 76q0 26 -6 47q133 42 146 42q43 0 83 -22v123l-1 -1
q-5 32 -18.5 60t-34 48.5t-46 32t-53.5 11.5q-17 0 -34 -6t-31.5 -16t-23.5 -23.5t-9 -27.5t4 -14q8 18 28 32t46 14q16 0 32 -7.5t28 -20.5t19.5 -30.5t7.5 -36.5q0 -40 -31.5 -72.5t-83.5 -39.5q-15 0 -24.5 9.5t-24.5 22.5q-42 33 -104 39v138q4 28 23.5 56t48.5 50
t66.5 36t77.5 14q53 0 105 -23l2 -1q15 -7 31 -17z" />
    <glyph glyph-name="n_bo_bn" horiz-adv-x="630" 
d="M413 -44v104q-42 -17 -74 -32t-58 -29q74 -15 132 -43zM401 463v108h-411v51h650v-51h-78v-746l-15 12q-92 56 -187 77.5t-182 27.5l-67 106l31 16.5t75.5 39.5t94.5 47.5t89 41.5v43l-1 -1q-5 32 -18.5 60t-34 48.5t-46 32t-53.5 11.5q-16 0 -33.5 -6.5t-32 -17t-24 -24
t-9.5 -26.5t4 -13q8 18 29 32t47 14q15 0 30.5 -7t28 -20t20.5 -30t8 -38q0 -42 -32 -73.5t-84 -38.5q-13 0 -23.5 9.5t-26 22t-39.5 24t-64 15.5v138q1 17 15.5 43.5t42 51.5t67.5 43t92 18t104 -23l2 -1q15 -7 31 -17z" />
    <glyph glyph-name="n_mo_bn" horiz-adv-x="934" 
d="M702 199v372h-139l1 -324q76 -9 138 -48zM402 462v109h-412v51h954v-51h-77v-736l-165 89v44q-6 30 -24.5 60t-44.5 53.5t-57.5 38t-64.5 14.5q-38 0 -61.5 -14.5t-23.5 -32.5q0 -6 0.5 -8t1.5 -3q24 28 75 28q22 0 42.5 -8t35.5 -22t24 -33.5t9 -41.5q0 -21 -11 -40.5
t-30 -34.5t-44.5 -24t-54.5 -9q-22 0 -40.5 4.5t-33.5 30.5q-32 54 -128 92l43 142q15 30 87 63v13l-1 -1q-6 33 -19.5 60.5t-33 48t-45 32t-54.5 11.5q-17 0 -35 -6.5t-32 -17t-23 -24t-9 -26.5q0 -10 3 -13q8 18 28.5 32t45.5 14q16 0 32.5 -7.5t29 -20.5t20.5 -30.5
t8 -36.5q0 -42 -32 -73.5t-84 -38.5q-12 0 -23 9.5t-26.5 22t-40 24t-64.5 15.5v138q2 18 17 45t42.5 51.5t67 42t91.5 17.5t104 -23l2 -1q13 -6 31 -18z" />
    <glyph glyph-name="n_ro_bn" horiz-adv-x="663" 
d="M433 447v124h-443v51h443v21l162 30v-51h78v-51h-78v-761l-16 14q-130 97 -308 97q-102 0 -203 -32l48 132l33 6q20 4 42.5 5t45.5 1q109 0 196 -43v217q-7 34 -22.5 62t-37.5 48.5t-49 32t-56 11.5q-19 0 -38 -7t-34.5 -18.5t-25.5 -26t-10 -29.5q0 -10 1 -12l2 -3
q8 20 31 35.5t51 15.5q18 0 35.5 -8t31.5 -22.5t22.5 -34t8.5 -41.5q0 -25 -11 -47t-29.5 -38.5t-42 -26.5t-48.5 -10q-11 0 -22 10.5t-28.5 24t-44.5 26t-70 17.5v153q2 16 16.5 45t44 57t75 48.5t108.5 20.5q78 0 142 -43z" />
    <glyph glyph-name="n_so_bn" horiz-adv-x="788" 
d="M560 311v260h-208q25 -17 47.5 -43t40 -57t28.5 -65t13 -66q38 -7 79 -29zM296 472q-48 74 -85 99h-221v51h146l-30 18l55 33q51 -23 108 -51h529v-51h-77v-590l-161 101v82q-48 63 -87 76q-30 -115 -143 -192l-218 113q153 55 188 147q-1 19 -9 35.5t-21 29t-29.5 19.5
t-34.5 7q-14 0 -20.5 -4.5t-7.5 -4.5q14 0 27 -5.5t23 -14.5t16 -21t6 -25q0 -14 -7 -29t-19.5 -27t-29.5 -19.5t-37 -7.5q-71 0 -108 63q-2 8 -2 9q0 3 3.5 12t8 20.5t8 24.5t3.5 24q0 21 -9 53l125 43q8 2 23 2q44 0 87 -20z" />
    <glyph glyph-name="p_tto_bn" horiz-adv-x="980" 
d="M243 412l108 63q-52 49 -115 49q-27 0 -55 -9q49 -49 62 -103zM562 195q22 -5 44 -6.5t27 -1.5q54 0 96.5 13.5t71.5 53.5q6 8 8 16t3 16q0 12 -3 19t-3 9q-8 -18 -29.5 -27.5t-47.5 -9.5q-42 0 -73.5 25t-31.5 74q0 52 37.5 88t113.5 36q11 -2 23 -14.5t29 -27.5
q44 -41 106 -51v-135q-7 -47 -39.5 -89t-82.5 -73.5t-115 -49.5t-138 -18l-14 2q-20 3 -42.5 7.5t-42.5 9.5t-36 11.5t-22 14.5v300l-168 -97q-14 -30 -34 -51l-173 75q71 66 71 132q0 98 -166 143l38 40q37 -10 69.5 -23t61.5 -29l-13 33q10 2 25 4.5t31.5 4.5t33 3.5
t29.5 1.5q100 0 195 -53v72l161 31v-52h150q20 23 20 50q0 38 -41.5 59t-104.5 21q-26 0 -51.5 -2.5t-50.5 -7.5l-46 -9l-37 43q0 2 15.5 5.5t39.5 8.5t54 10t59 9.5t54 7t39 2.5q65 0 117 -11t88.5 -31t56 -49t19.5 -65q0 -5 -0.5 -11t-1.5 -12l-155 -18h204v-51h-428v-376
z" />
    <glyph glyph-name="p_to_bn" horiz-adv-x="756" 
d="M242 412l108 63q-52 49 -115 49q-28 0 -56 -9q50 -50 63 -103zM399 569v74l161 32v-53h206v-51h-206v-207h17q66 -35 99 -84t33 -101q0 -20 -5.5 -39t-13 -35t-15.5 -28.5t-14 -18.5l-9 -10q-29 -33 -83 -53t-116 -20q-38 0 -76 8.5t-73 24t-66.5 38t-56.5 49.5l97 173
q34 -93 82 -129.5t107 -36.5q24 0 48 7.5t43 20.5t30.5 31.5t11.5 39.5q0 22 -7.5 37.5t-18.5 25.5t-23 15.5t-21 7.5l-14 3l17 -21q9 -11 13.5 -25.5t4.5 -25.5q0 -14 -7 -28.5t-19 -26t-28.5 -19t-34.5 -7.5t-36.5 7t-33.5 18t-24.5 26t-9.5 31q0 13 6 25q34 67 34 105
q0 8 -1 11t-1 4h3v23l-167 -97q-14 -30 -35 -51l-171 75q70 67 70 133q0 99 -166 142l38 40q37 -10 69.5 -23t61.5 -29l-14 33q50 14 122 14q55 0 104.5 -13t87.5 -42z" />
    <glyph glyph-name="p_t_ro_bn" horiz-adv-x="851" 
d="M242 412l108 63q-52 49 -115 49q-28 0 -56 -9q50 -50 63 -103zM400 569v74l160 32v-53h301v-51h-301v-180q44 0 76 -3.5t56 -12.5t42.5 -24t36.5 -37q26 -33 32 -58v-413q-137 102 -346 102q-108 0 -209 -29l93 175q1 1 11 1q30 0 68.5 -7t79 -18.5t81 -27.5t73.5 -34
v112v71.5t-1.5 41.5t-4 21.5t-7 12t-11.5 13.5q-26 32 -59 32q-10 0 -21 -4.5t-36 -20.5q25 -8 45 -25.5t20 -40.5q0 -17 -10 -33t-28 -29.5t-42 -21.5t-52 -8q-15 0 -31 3.5t-28.5 10t-21 15t-8.5 19.5q0 10 5 23.5t5 31.5q0 31 -17 63l49 40v55l-168 -97q-14 -30 -35 -51
l-171 75q70 67 70 133q0 100 -166 142l38 40q37 -10 69.5 -23t61.5 -29l-13 33q23 6 57.5 10t60.5 4q120 0 196 -55z" />
    <glyph glyph-name="p_no_bn" horiz-adv-x="628" 
d="M243 412l107 63q-49 49 -113 49q-28 0 -56 -9q49 -49 62 -103zM400 569v74l161 32v-53h77v-51h-77v-680l-161 93v66q-8 27 -32 50t-57 23q-14 0 -19 -4.5t-6 -4.5q34 -5 51.5 -26.5t17.5 -44.5q0 -17 -8 -32t-20.5 -27t-29 -19t-33.5 -7q-73 0 -111 71l-2 8q0 7 4 15.5
t9 19.5t9 24.5t4 31.5q0 26 -7 50q127 40 142 40q45 0 88 -22v191l-167 -97q-14 -30 -34 -51l-173 75q70 67 70 133q0 52 -43.5 87t-121.5 55l38 40q38 -10 70.5 -23t59.5 -29l-13 33q10 2 25 4.5t31.5 4.5t33 3.5t29.5 1.5q119 0 195 -55z" />
    <glyph glyph-name="p_po_bn" horiz-adv-x="627" 
d="M287 38l82 51q-41 39 -89 39q-19 0 -40 -6q37 -40 47 -84zM242 412l108 63q-52 49 -115 49q-27 0 -55 -9q48 -48 62 -103zM399 569v74l161 32v-53h77v-51h-77v-730l-161 103v68l-120 -74q-13 -28 -25 -41l-129 61q52 52 52 108q0 78 -125 114l29 33q58 -17 98 -42l-10 26
q42 12 91 12q56 0 110 -23l2 -1q13 -6 27 -15v217l-166 -97q-14 -30 -35 -51l-172 75q70 67 70 133q0 51 -43 86t-122 56l37 40q37 -10 69.5 -23t61.5 -29l-14 33q50 14 123 14q111 0 191 -55z" />
    <glyph glyph-name="p_ro_bn" horiz-adv-x="627" 
d="M241 412l109 63q-52 49 -115 49q-28 0 -56 -9q48 -48 62 -103zM400 568v75l160 32v-53h77v-51h-77v-616q-137 111 -309 111q-99 0 -198 -32l49 131l33 6q20 4 41.5 5t44.5 1q90 0 179 -43v253l-168 -97q-14 -30 -35 -51l-171 75q70 67 70 132q0 98 -166 143l38 40
q37 -10 69.5 -23t61.5 -29l-14 33q50 14 122 14q60 0 106.5 -14t86.5 -42z" />
    <glyph glyph-name="p_ro_alt_bn" horiz-adv-x="627" 
d="M241 412l109 63q-52 49 -115 49q-28 0 -56 -9q48 -48 62 -103zM400 568v75l160 32v-53h77v-51h-77v-615l-16 13q-67 54 -172.5 86t-243.5 32q-84 0 -178.5 -13.5t-206.5 -39.5l49 130l52 11q51 11 106.5 15t115.5 4q111 0 190 -15t144 -45v253l-168 -97q-14 -30 -35 -51
l-171 75q70 67 70 132q0 98 -166 143l38 40q37 -10 69.5 -23t61.5 -29l-14 33q50 14 122 14q60 0 106.5 -14t86.5 -42z" />
    <glyph glyph-name="p_lo_bn" horiz-adv-x="627" 
d="M242 412l108 63q-52 49 -115 49q-28 0 -56 -9q50 -50 63 -103zM364 13q-17 0 -26 -13.5t-15 -48.5l-72 27q-2 22 -3.5 44.5t-7.5 40t-19 28.5t-38 11q-18 0 -36 -13.5t-18 -32.5q0 -1 2 -11q4 13 16 22t26 9q22 0 39 -19t17 -48q0 -30 -20 -53t-51 -26q-6 0 -14 7.5
t-19 17t-25.5 18t-32.5 10.5v99q3 18 16 36t31.5 33t42 24t47.5 9q63 0 102 -93q29 35 65 35q15 0 28 -4v265l-167 -97q-14 -30 -35 -51l-171 75q69 67 69 133q0 98 -165 142l38 40q38 -10 70.5 -23t59.5 -29l-13 33q32 7 61.5 10.5t57.5 3.5q113 0 195 -55v74l161 32v-53
h77v-51h-77v-667l-162 70v25q-23 14 -34 14z" />
    <glyph glyph-name="p_so_bn" horiz-adv-x="899" 
d="M672 309v262h-208q61 -46 92 -108.5t36 -122.5q22 -5 41.5 -13t38.5 -18zM257 352l87 51q-41 41 -92 41q-17 0 -46 -8q39 -39 51 -84zM411 457q-35 76 -88 114h-333v51h258l-30 19l54 34q19 -8 45.5 -21t61.5 -32h530v-51h-77v-590l-160 103v80q-45 62 -88 75
q-30 -115 -142 -191l-218 114q203 68 203 192q-8 -5 -52.5 -30t-125.5 -73q-13 -25 -28 -41l-142 62q58 55 58 108q0 80 -137 116l32 34q32 -10 59 -21t49 -22l-11 26q43 12 100 12q61 0 121 -23q0 -1 1 -1q27 -11 60 -44z" />
    <glyph glyph-name="ph_tto_bn" horiz-adv-x="967" 
d="M605 39l54 -5q32 0 60 5.5t48.5 14.5t32.5 21.5t12 26.5q0 13 -2.5 16t-3.5 3l1 -1q-14 -24 -66 -24q-45 0 -69 18t-24 47q0 32 32 52.5t101 20.5q9 -1 23 -8t32 -15.5t39.5 -16.5t44.5 -11v-91q-7 -32 -35.5 -60t-72.5 -49t-101 -33.5t-120 -13.5l-46 5q-28 3 -49.5 9
t-37.5 12l-7 2v126q-60 29 -139.5 50.5t-182.5 35.5l-82 159l64 39q29 17 65.5 37t74.5 41q-34 72 -93 119h-168v51h86l-42 19l39 41q67 -26 125 -60h507q10 13 10 32q0 35 -36.5 58.5t-102.5 23.5q-25 0 -51 -2.5t-52 -7.5l-47 -9l-37 42q13 4 45 10.5t70.5 13.5t77 12.5
t65.5 7.5q135 -5 206 -45.5t71 -109.5q0 -5 -0.5 -11t-1.5 -12l-32 -3h87v-51h-703q134 -101 134 -212h-1l1 -2l-167 -98q116 -34 210 -92l1 315q68 38 144 38q60 0 106 -14t78.5 -36t50 -50t20.5 -55v-63q-39 -6 -61 -14t-35.5 -15.5l-22.5 -12.5t-22 -5q-82 0 -82 77
q0 30 21 45.5t45 15.5q35 0 49 -26l1 10q0 10 -9 18.5t-22 14.5t-28.5 9t-27.5 3q-22 0 -44 -8l-8 -2v-373z" />
    <glyph glyph-name="ph_ro_bn" horiz-adv-x="911" 
d="M451 168v314q68 38 146 38q61 0 108 -14.5t80.5 -37t53 -50t25.5 -53.5v-141q-32 -5 -53.5 -16t-37 -22.5t-26.5 -20t-20 -8.5q-53 7 -72.5 30.5t-19.5 61.5q0 22 6 41t16.5 33.5t24.5 23t30 8.5q38 0 53 -34l2 4q1 2 1 12q0 16 -10 30t-25.5 24.5t-34.5 16t-36 5.5
q-29 0 -56 -12l1 -536l-17 13q-128 98 -313 98q-110 0 -203 -31l51 131q3 0 35 6t86 6q109 0 198 -42v48q-63 28 -140 48.5t-174 33.5l-83 159l18 10q57 35 103 61t83 45q-35 73 -93 120h-168v51h87l-45 21l39 42q66 -27 129 -63h721v-51h-646q134 -99 134 -212h-1l1 -2
q-52 -31 -82 -48t-38 -22l-47 -28q60 -17 111.5 -40t97.5 -51z" />
    <glyph glyph-name="ph_lo_bn" horiz-adv-x="910" 
d="M450 167v314q67 39 146 39q49 0 94 -11.5t81 -32t60 -49t31 -62.5l1 -141q-32 -5 -53.5 -16t-36.5 -22.5t-26 -20t-22 -8.5q-52 8 -71.5 29.5t-19.5 59.5q0 47 22 78t54 31q17 0 32 -9.5t21 -24.5l2 5q2 8 2 13q0 16 -10 29.5t-26 23.5t-34.5 15.5t-35.5 5.5
q-29 0 -57 -12l1 -573l-110 47v43q-16 10 -30 10q-28 0 -44 -39l-12 -40l-84 49q0 119 -78 119q-9 0 -19.5 -3.5t-19 -9.5t-14 -14t-5.5 -17q0 -5 1 -7.5t1 -3.5q5 12 18 21t28 9q22 0 38.5 -19.5t16.5 -45.5q0 -29 -20.5 -50t-52.5 -24q-8 0 -14 7q-33 38 -82 42l1 95
q3 19 17.5 37t35 32t45 22.5t47.5 8.5q45 0 79.5 -26t51.5 -65q32 35 69 35q15 0 26 -4v29q-34 21 -69 37t-77.5 29.5t-96 24t-123.5 19.5l-82 159l18 10.5t46.5 27.5t64.5 38t74 41q-34 73 -92 119h-168v51h86q-20 10 -45 21l38 41q33 -13 65.5 -28.5t64.5 -33.5h721v-51
h-646q133 -97 133 -212h-1l2 -2q-42 -25 -85 -49.5t-83 -48.5q116 -34 210 -92z" />
    <glyph glyph-name="b_jo_bn" horiz-adv-x="970" 
d="M268 366q-3 21 -3 42q0 34 11 75l-126 -81q32 -8 62 -17t56 -19zM550 243q-52 -11 -97 -11q-40 0 -69 8v1l-1 -1q-3 0 -17 8t-31.5 20t-34 25.5t-24.5 25.5q-76 22 -191 36l-59 86l20.5 13.5t51 33t66 42.5t67.5 41h-241v51h990v-51h-420q7 -43 36.5 -66.5t83.5 -23.5
q32 0 55.5 5.5t23.5 6.5l144 41v-552l-170 106v311q-17 -2 -34 -3.5t-35 -1.5q-118 7 -186 83l-23 -35q-14 -27 -23.5 -52.5t-13.5 -50.5q20 -5 39 -5t37 3.5t36 11.5l30 14l124 -52q4 -21 5.5 -38t1.5 -31q0 -54 -21.5 -99t-60 -78t-92.5 -51.5t-119 -18.5q-177 0 -302 143
l115 174q45 -82 97 -120t121 -38q89 0 121 89z" />
    <glyph glyph-name="b_do_bn" horiz-adv-x="1042" 
d="M468 267v219q-51 -30 -109 -66.5t-127 -79.5q67 -13 125.5 -31.5t110.5 -41.5zM809 277l-36 -42q-28 -32 -62.5 -59t-76.5 -52h-166v82q-137 47 -335 68l-86 122q-2 0 25.5 17t70 43.5t94 57t98.5 57.5h-345v51h1062v-51h-418v-303q35 30 62.5 61t48 59.5t34.5 52.5
t21 40l9 21h166v-540l-166 105v210z" />
    <glyph glyph-name="b_dho_bn" horiz-adv-x="965" 
d="M477 37v107q-55 -25 -88.5 -41t-47.5 -23q76 -15 136 -43zM469 267v219q-58 -35 -117 -71.5t-120 -74.5q69 -13 127.5 -31.5t109.5 -41.5zM732 236l-102 -32v-303l-17 12q-80 48 -170.5 72.5t-207.5 35.5l-69 109l19.5 11t49 27t65 34.5t68.5 34.5q-45 10 -103.5 19.5
t-131.5 17.5l-86 122q0 1 191 117l96 58h-344v51h985v-51h-345v-230q35 11 60.5 18t41.5 10l166 1v-455l-166 105v216z" />
    <glyph glyph-name="b_ro_bn" horiz-adv-x="698" 
d="M469 151v293q-93 -72 -236 -196q106 -27 236 -97zM465 -7v78q-33 15 -62 26t-64.5 20.5t-84 19t-120.5 21.5l-87 165q-1 0 7.5 6.5t23 18.5t33.5 28t40 35q14 13 63.5 52t136.5 108h-361v51h718v-51h-77v-763l-17 14q-136 100 -317 100q-104 0 -209 -32l52 134q4 0 36 6
t86 6q114 0 203 -43z" />
    <glyph glyph-name="b_lo_bn" horiz-adv-x="697" 
d="M468 151v293q-51 -42 -109.5 -90t-125.5 -106q54 -14 112.5 -38t122.5 -59zM514 5v38q-39 23 -74.5 39t-77.5 28.5t-96.5 23.5t-132.5 24l-86 165q10 9 26 22q13 11 33 27.5t46 39.5l199 159h-361v51h717v-51h-77v-783l-116 49v44q-18 12 -31 12t-22.5 -8t-16 -19
t-10.5 -23t-6 -20l-3 -13l-88 51q0 57 -21 91t-60 34q-9 0 -19.5 -4t-19.5 -10.5t-14.5 -16t-5.5 -21.5q0 -6 1 -7q15 32 48 32q23 0 40.5 -21t17.5 -47q0 -30 -21 -52.5t-55 -25.5q-8 0 -15 7t-17 16.5t-26 18t-43 11.5l1 98q2 16 16 34.5t35 33.5t47 25t52 10q48 0 83 -26
t55 -68q31 36 70 36q17 0 28 -4z" />
    <glyph glyph-name="bh_ro_bn" horiz-adv-x="681" 
d="M489 281q-51 -21 -111 -21q-38 0 -72 12t-59.5 33t-40.5 49.5t-15 60.5q0 30 11 55t29.5 43.5t44.5 29t56 10.5q48 0 78.5 -27t30.5 -63q0 -35 -23.5 -55.5t-54.5 -20.5q-32 0 -49.5 17t-17.5 36q0 9 4 16h-3q-7 -10 -7 -24q0 -11 6.5 -22t18 -20t27 -14.5t33.5 -5.5
q94 0 174 128q15 -3 30 -23.5t27 -48t19.5 -58t7.5 -53.5q0 -38 -12.5 -72.5t-35 -63.5t-53 -50.5t-66.5 -33.5l97 -25v-233q-133 109 -321 109q-100 0 -201 -32l49 130q0 1 13 2.5t32 3.5t39.5 3.5t34.5 1.5q104 0 194 -41v63q-27 -7 -71 -7q-178 0 -306 143l94 237
q31 -117 96 -177.5t147 -60.5q21 0 38 3t32 10.5t28.5 21t27.5 34.5zM691 571h-701v51h701v-51z" />
    <glyph glyph-name="bh_r_ukar_bn" horiz-adv-x="945" 
d="M491 282q-48 -22 -113 -22q-38 0 -72 12t-59.5 33t-40.5 49.5t-15 60.5q0 30 11 55t29.5 43.5t44.5 29t56 10.5q48 0 78.5 -27t30.5 -63q0 -35 -23.5 -55.5t-54.5 -20.5q-32 0 -49.5 17t-17.5 36q0 9 4 16h-3q-7 -10 -7 -24q0 -11 6.5 -22t18 -20t27 -14.5t33.5 -5.5
q94 0 174 128l1 -1q15 0 28.5 -22t28 -52.5t31.5 -62t39 -50.5q37 -33 71 -33q11 0 23.5 4t23 11t17.5 17t7 23q0 5 -1 11t-3 8q-7 -18 -23.5 -30t-37.5 -12q-15 0 -29.5 7t-26.5 19t-19.5 28.5t-7.5 35.5q0 37 27.5 63t69.5 31q10 0 19.5 -8.5t24 -19.5t36.5 -21.5
t57 -14.5l5 -124q-3 -21 -21 -43t-44 -39.5t-57.5 -29t-61.5 -11.5q-66 0 -115 36q-42 -89 -145 -123l97 -25v-233q-133 109 -321 109q-100 0 -201 -32l49 130l44 7q17 3 34.5 4t34.5 1q110 0 200 -42v63q-27 -7 -71 -7q-178 0 -306 143l94 237q31 -117 96 -177.5t147 -60.5
q42 0 72 14t56 56zM955 571h-965v51h965v-51z" />
    <glyph glyph-name="bh_r_ookar_bn" horiz-adv-x="918" 
d="M705 335q-23 -7 -40.5 -13t-30.5 -11q-5 -85 -50.5 -138.5t-117.5 -77.5l97 -25v-233q-133 109 -321 109q-100 0 -201 -32l49 130l44 7q17 3 34.5 4t34.5 1q110 0 200 -42v63q-27 -7 -71 -7q-178 0 -306 143l94 237q31 -117 96 -177.5t147 -60.5q20 0 37 2.5t33 10.5
t30.5 22t30.5 37q-53 -24 -116 -24q-38 0 -72 12t-59.5 33t-40.5 49.5t-15 60.5q0 30 11 55t29.5 43.5t44.5 29t56 10.5q48 0 78.5 -27t30.5 -63q0 -35 -23.5 -55.5t-54.5 -20.5q-32 0 -49.5 17t-17.5 36q0 9 4 16h-3q-7 -10 -7 -24q0 -11 6.5 -22t18 -20t27 -14.5
t33.5 -5.5q94 0 174 128l1 -1q6 0 15.5 -9.5t19 -23.5t18.5 -30.5t14 -30.5q29 11 88 24l166 1v-413l-166 106v214zM928 571h-938v51h938v-51z" />
    <glyph glyph-name="bh_lo_bn" horiz-adv-x="682" 
d="M383 -58q-8 23 -25 23q-25 0 -25 -37l1 -9l-76 -10v1l-1 -1q0 81 -51 81q-11 0 -19 -4q35 -18 35 -56q0 -21 -19.5 -39t-51.5 -18q-36 0 -58 20t-26 55q0 9 6.5 16.5t16 19t19 30t15.5 48.5l71 1q65 1 97 -49q28 33 59 33q10 0 13.5 -1t6.5 -1l12 -4q2 0 3 -1v30
q-14 -2 -28.5 -3t-28.5 -1q-175 0 -303 143l95 237q27 -114 92 -176.5t149 -62.5q80 0 130 71q-54 -23 -111 -23q-38 0 -72 11.5t-60 32.5t-41.5 49.5t-15.5 62.5q0 30 10.5 55t29.5 43t45 28.5t57 10.5q48 0 77.5 -26.5t29.5 -63.5q0 -36 -24 -55.5t-54 -19.5
q-32 0 -49.5 16.5t-17.5 35.5q0 10 4 17l-4 -1q-6 -11 -6 -23q0 -24 25 -43.5t61 -19.5q94 0 174 129q25 -19 41 -42t26 -47.5t14 -49t4 -45.5q0 -63 -31 -111.5t-76 -78.5v-279l-142 57v34zM692 571h-702v51h702v-51z" />
    <glyph glyph-name="m_no_bn" horiz-adv-x="694" 
d="M467 359v212h-166q51 -40 72 -81t21 -95q40 -14 73 -36zM466 21v106q-7 33 -25.5 63t-44 53t-55.5 36.5t-60 13.5q-37 0 -59.5 -14t-22.5 -33q0 -7 1 -8l1 -3q24 29 74 29q22 0 41.5 -8.5t34 -23t23 -34.5t8.5 -42q0 -20 -10 -39t-28 -35t-43.5 -25.5t-55.5 -9.5
q-17 0 -28 1.5t-18.5 5t-13.5 10.5t-13 18q-15 21 -29 35.5t-28.5 24.5t-31 17.5t-36.5 14.5l44 147q9 18 46.5 43t94.5 39q3 16 3 35q0 76 -73 133h-172v51h87q-8 4 -20 9t-29 11l41 45q45 -17 82.5 -33t67.5 -32h485v-51h-77v-855l-161 92v66q-7 27 -31.5 49.5t-55.5 22.5
q-13 0 -19 -4.5t-7 -4.5q31 -5 50 -25.5t19 -44.5q0 -17 -8 -32t-20.5 -27t-29 -19t-33.5 -7q-72 0 -111 71l-2 8q0 3 4 13t9.5 23t9.5 27.5t4 27.5q0 26 -7 50l127 38q1 1 15 1q44 0 86 -20z" />
    <glyph glyph-name="m_pho_bn" horiz-adv-x="1284" 
d="M385 383v188h-137q78 -63 78 -142l-1 -16q31 -11 60 -30zM513 394q32 17 58 31t46 24q-35 76 -94 122h-10v-177zM819 164v316q67 39 148 39q63 0 110.5 -15t81 -38t53 -51t25.5 -53v-141q-33 -6 -55 -17.5t-37.5 -23t-26 -20t-20.5 -8.5q-54 7 -73 30.5t-19 61.5
q0 52 24.5 79.5t52.5 27.5q17 0 32 -9t22 -24q0 1 1.5 5t1.5 12q0 15 -10 29t-25.5 24.5t-34.5 17t-37 6.5q-30 0 -57 -12l1 -421l-34 27q-44 35 -84.5 59.5t-89 43t-110 32t-146.5 27.5l-128 26q-6 26 -20 50.5t-34 43t-44 30t-49 11.5q-30 0 -49.5 -10.5t-19.5 -29.5
q0 -4 1 -5q22 22 60 22q34 0 59.5 -24t25.5 -63q0 -18 -8.5 -33.5t-23 -27.5t-34.5 -19t-44 -7q-17 0 -30 3.5t-27 24.5q-11 16 -32.5 36.5t-68.5 37.5l35 118q7 14 31.5 31.5t63.5 30.5q2 13 3.5 23.5t1.5 19.5q0 65 -58 114h-134v51h52l-46 19l36 40q40 -14 74.5 -28.5
t63.5 -30.5h271l-45 20l39 44q71 -27 130 -64h729v-51h-653q63 -46 99 -98.5t36 -118.5q-42 -25 -85 -50t-83 -49q46 -13 98.5 -36t112.5 -55z" />
    <glyph glyph-name="m_bo_bn" horiz-adv-x="694" 
d="M483 -84v68l-100 -33q26 -7 51 -15.5t49 -19.5zM466 359v212h-166q52 -40 73 -80.5t21 -95.5q37 -14 72 -36zM627 -209l-16 11q-88 54 -177.5 74.5t-174.5 25.5l-65 103q75 29 143 51.5t129 36.5v32q-6 31 -24 61.5t-43.5 54t-56.5 38t-63 14.5q-37 0 -59 -14.5
t-22 -33.5q0 -8 2 -10q26 29 73 29q21 0 40.5 -8t34.5 -22t23.5 -34t8.5 -45q0 -20 -10.5 -39.5t-28.5 -34.5t-43 -24.5t-54 -9.5q-17 0 -28 1t-18.5 5t-13.5 11t-13 18q-20 31 -49.5 54t-74.5 38l42 147q10 18 47 43t94 39q4 15 4 36q0 74 -73 132h-171v51h87
q-17 8 -30.5 13.5t-21.5 8.5l41 44q96 -35 155 -66h483v-51h-77v-780z" />
    <glyph glyph-name="m_b_ro_bn" horiz-adv-x="805" 
d="M603 -15v72l-109 -34q29 -8 56 -17.5t53 -20.5zM467 384v187h-156q45 -34 64 -69.5t19 -83.5q17 -5 36.5 -14t36.5 -20zM624 -134v51q-112 40 -266 52l-70 111l14 5q58 25 165 60v25q-5 26 -22 53.5t-42 50t-57 36.5t-66 14q-40 0 -60.5 -13t-20.5 -29q0 -8 2 -10
q25 25 73 25q45 0 76.5 -26.5t31.5 -71.5q0 -19 -10.5 -37t-29 -31.5t-43.5 -22t-54 -8.5q-21 0 -37 4t-36 27q-38 57 -125 86l43 132q10 18 47.5 41t94.5 35q3 16 3 32q0 63 -62 114h-183v51h94q-13 5 -26.5 10.5t-28.5 10.5l41 40q48 -16 87 -31t68 -30h590v-51h-188v-372
h131v-480l-13 10q-106 82 -258 82q-88 0 -167 -27l41 109q4 0 28.5 4.5t69.5 4.5q88 0 165 -36z" />
    <glyph glyph-name="m_bho_bn" horiz-adv-x="837" 
d="M466 385v186h-156q45 -35 64.5 -70.5t19.5 -82.5q36 -11 72 -33zM678 40q-37 -14 -76 -14q-31 0 -57 10t-45 27t-30 40.5t-11 50.5q0 19 4 30q-9 28 -28 53.5t-43.5 44.5t-52.5 30.5t-55 11.5q-43 0 -64 -14t-21 -32q0 -5 1 -6q25 25 74 25q43 0 74.5 -26.5t31.5 -72.5
q0 -20 -10.5 -37.5t-29 -31t-43 -21.5t-52.5 -8q-21 0 -37 4t-36 27q-38 56 -125 86l43 132q10 19 48 42t96 34q3 15 3 30q0 64 -64 116h-183v51h93q-12 5 -25 10t-27 10l40 40q91 -29 154 -60h622v-51h-219v-336q16 -19 16 -45q0 -28 -16 -44.5t-43 -16.5q-20 0 -32.5 10.5
t-15.5 24.5l-4 -2q1 -16 17.5 -32t48.5 -16q68 0 128 104q0 -1 5 -6.5t11.5 -12t11.5 -12t5 -6.5q30 -59 30 -110q0 -44 -17 -80t-48 -62t-73 -40.5t-92 -14.5q-134 0 -225 115l70 190q22 -91 69.5 -141t113.5 -50q27 0 47.5 9t42.5 43z" />
    <glyph glyph-name="m_bh_ro_bn" horiz-adv-x="835" 
d="M467 386v185h-156q45 -35 64.5 -70.5t19.5 -82.5q18 -5 36 -13t36 -19zM649 32q-24 -6 -50 -6q-31 0 -57 9.5t-45 27t-29.5 40.5t-10.5 50q0 7 1.5 15.5t3.5 19.5q-11 29 -29.5 54t-42.5 43t-51.5 28.5t-56.5 10.5q-40 0 -61.5 -14t-21.5 -29q0 -7 2 -9q25 25 73 25
q21 0 40.5 -7t34.5 -19.5t23.5 -31t8.5 -40.5q0 -19 -10.5 -36.5t-28.5 -31.5t-43 -22.5t-54 -8.5q-21 0 -37 4t-36 27q-38 56 -125 86l43 132q10 18 47.5 41t95.5 35q3 15 3 31q0 62 -63 115h-183v51h95l-55 21l40 41q52 -17 91 -32.5t66 -29.5h618v-51h-217v-339
q14 -20 14 -42q0 -27 -16 -44t-43 -17q-20 0 -32.5 10t-14.5 24l-4 -2q1 -16 17.5 -31.5t46.5 -15.5q69 0 128 104q7 0 17 -13.5t19.5 -33t17 -41.5t9.5 -39l1 -249q-116 77 -280 77q-92 0 -173 -21l43 90q3 0 29.5 4t71.5 4q96 0 170 -27v63z" />
    <glyph glyph-name="m_mo_bn" horiz-adv-x="1022" 
d="M467 386v185h-156q45 -35 64 -70.5t19 -82.5q19 -5 37.5 -13.5t35.5 -18.5zM791 196v375h-164v-327q91 -3 164 -48zM955 -167l-164 88v44q-6 32 -24.5 62t-44.5 53t-57.5 37t-63.5 14q-37 0 -60 -14t-23 -32q0 -7 0.5 -9t1.5 -3q26 29 75 29q22 0 42 -8t35 -22
t23.5 -33.5t8.5 -42.5q0 -21 -11 -40t-30 -33.5t-44.5 -23.5t-53.5 -9q-26 0 -40.5 7t-25 18t-21 25t-28.5 28q-34 27 -88 47l45 143q5 9 17.5 20t32.5 24q-12 25 -30.5 47.5t-42 39t-49.5 26t-52 9.5q-47 0 -65.5 -15t-18.5 -27q0 -8 2 -10q25 25 73 25q21 0 40.5 -7
t34.5 -19.5t23.5 -31t8.5 -40.5q0 -19 -10.5 -36.5t-28.5 -31.5t-43 -22.5t-53 -8.5q-25 0 -39.5 4.5t-33.5 26.5q-8 9 -18 19t-24 21t-34.5 22.5t-49.5 23.5l43 132q9 19 47 42t95 34q4 13 4 33q0 63 -63 113h-183v51h93q-10 5 -23 10t-30 10l41 41q48 -17 86 -32t67 -29
h808v-51h-77v-738z" />
    <glyph glyph-name="m_ro_bn" horiz-adv-x="694" 
d="M466 359v212h-167q53 -40 74 -81t21 -95q37 -14 72 -36zM466 -44v169q-6 31 -24 61.5t-43.5 54t-56.5 38t-62 14.5q-38 0 -60.5 -14t-22.5 -33q0 -7 1 -8l1 -3q27 29 75 29q22 0 41.5 -8.5t33.5 -23t22.5 -34.5t8.5 -43q0 -24 -11.5 -44t-31 -34t-45 -22t-52.5 -8
q-20 0 -37 4.5t-31 30.5q-34 60 -126 92l43 147q10 18 47.5 43t94.5 39q4 15 4 35q0 74 -72 133h-173v51h86q-11 5 -23 10t-25 10l40 45q48 -17 85 -33.5t66 -31.5h485v-51h-77v-794q-135 111 -324 111q-101 0 -202 -32l49 131l33 6q20 4 42 5t44 1q54 0 103 -10t94 -33z
" />
    <glyph glyph-name="m_lo_bn" horiz-adv-x="692" 
d="M466 358v213h-167q51 -42 72.5 -83.5t21.5 -92.5q20 -7 38 -16.5t35 -20.5zM466 7v118q-7 34 -25.5 64.5t-44.5 53.5t-56.5 36.5t-61.5 13.5q-35 0 -58 -14t-23 -33q0 -6 0.5 -8t1.5 -3q26 29 74 29q22 0 41.5 -8.5t34 -23t23 -34.5t8.5 -42q0 -21 -10.5 -40.5
t-28.5 -34.5t-43 -24.5t-54 -9.5q-34 0 -47.5 7.5t-25.5 27.5q-26 38 -56 58t-69 34l42 147q5 10 19 22t33.5 23t42.5 21t46 16q3 16 3 34q0 75 -71 134h-171v51h86l-51 21l42 45q85 -31 151 -66h484v-51h-77v-791l-159 64v39q-9 37 -36 37q-34 0 -34 -43l1 -8l-98 -12
q0 43 -16 67.5t-51 24.5q-4 0 -8.5 -0.5t-9.5 -1.5l-6 -2q46 -21 46 -65q0 -24 -26 -44.5t-68 -20.5q-45 0 -73.5 23t-33.5 63q0 8 9.5 17.5t21.5 23.5q33 37 42 88h92q93 0 128 -54q36 39 73 39q21 0 47 -8z" />
    <glyph glyph-name="z_ro_bn" horiz-adv-x="680" 
d="M455 162v409h-177q135 -102 135 -217q-42 -26 -85 -51t-85 -50q58 -16 111 -39t101 -52zM448 10v76q-120 58 -318 85l-83 160q0 1 26 16.5t60.5 35t68.5 38.5t51 28q-35 74 -95 122h-168v51h87q-11 5 -22.5 11t-24.5 11l40 42q35 -14 67.5 -29.5t63.5 -34.5h489v-51h-77
v-745l-17 13q-131 101 -314 101q-114 0 -209 -34l50 135l35 6q20 4 42.5 5t45.5 1q48 0 101 -9.5t101 -33.5z" />
    <glyph glyph-name="l_ko_bn" horiz-adv-x="1007" 
d="M602 -28v71q-77 -24 -105 -34q28 -7 54 -16.5t51 -20.5zM590 416v155h-600v51h1027v-51h-266v-415q40 -4 76 -16t64 -29.5t46.5 -40.5t23.5 -48l-1 -95q-28 -5 -45 -12t-28.5 -13t-19 -10.5t-16.5 -4.5q-43 0 -63.5 19.5t-20.5 49.5q0 26 19 45t46 19q31 0 45 -23
q4 7 4 17q0 12 -10 23t-26 19.5t-36 13t-40 4.5l-18 -1v-231q-42 27 -83 46t-86.5 32.5t-98 22.5t-116.5 15l-67 106q2 0 26 9q73 29 138.5 50.5t125.5 34.5v84q-25 16 -46 16q-19 0 -32 -11t-21.5 -26t-13.5 -32t-8 -29l-4 -18l-124 72q0 28 -5 59t-17.5 56.5t-35 42
t-57.5 16.5q-12 0 -26.5 -5t-27 -14t-21 -21.5t-8.5 -26.5q0 -8 0.5 -10t1.5 -3q8 17 26.5 30t41.5 13q16 0 31 -8t26 -21t18 -30t7 -36q0 -43 -31 -74t-77 -35q-11 0 -20.5 9.5t-24 22.5t-37 25t-59.5 17l1 137q1 11 9 27t21 32.5t29 31.5t33 25q62 31 118 31
q66 0 117 -37.5t78 -97.5q43 52 100 52q18 0 38 -6z" />
    <glyph glyph-name="l_go_bn" horiz-adv-x="819" 
d="M590 439v132h-600v51h839v-51h-77v-849l-162 103v68q-16 63 -63 99.5t-113 36.5q-41 0 -81 -18h12q58 0 89.5 -33.5t31.5 -90.5q0 -18 -3 -37.5t-11 -40.5l-175 -5q10 11 19.5 24.5t17 27.5t12 27t4.5 23q0 11 -6 18t-21 7q-10 0 -24 -3.5t-33 -11.5v-1q-1 -1 -1 -3
l-75 44v92q13 22 38.5 39t58.5 29t71.5 18t76.5 6q29 0 75 -10t100 -47v183q-13 8 -23.5 11.5t-20.5 3.5q-18 0 -31 -11t-22.5 -26t-15 -31.5t-8.5 -28.5v-1q-3 -11 -3 -15l-1 -2l-124 71q0 56 -13 97t-59 65q-11 6 -22.5 8.5t-20.5 2.5q-11 0 -25.5 -5t-27.5 -13.5
t-21.5 -20.5t-8.5 -26q0 -13 2 -15q9 18 27 31t40 13q9 0 23 -5t27.5 -16.5t23 -29.5t9.5 -43q0 -41 -30 -73t-78 -37q-10 0 -19.5 9.5t-24 22.5t-37 25t-59.5 17l1 137q1 10 8 25.5t19 32t28 32t36 26.5q64 29 119 29q66 0 116 -36t78 -96q43 51 100 51q18 0 38 -6z" />
    <glyph glyph-name="l_ddo_bn" horiz-adv-x="920" 
d="M464 512v59h-474v51h940v-51h-304v-198q41 22 66 53l17 25l124 -33q39 -80 39 -150q0 -60 -23.5 -109t-64.5 -84t-97.5 -54.5t-123.5 -19.5q-163 0 -284 130l119 163q80 -140 208 -140q27 0 52 9.5t43.5 27t29.5 40.5t11 50q0 14 -8 28l-9 -7q-34 -26 -63 -40t-64 -22
l-134 85v58q-18 5 -23 5q-14 0 -24.5 -8.5t-17.5 -22t-10 -30.5t-3 -34l-101 41q-5 60 -29.5 92t-66.5 32q-9 0 -20 -4t-21.5 -11t-17.5 -17t-7 -22q0 -13 3 -16q5 16 19.5 28.5t33.5 12.5q12 0 24 -6.5t21.5 -17t15 -24t5.5 -28.5q0 -29 -19.5 -52t-51.5 -31q-11 0 -18 7
q-43 37 -97 37l-12 104q0 9 4.5 22t12.5 26.5t18.5 26.5t23.5 23q55 33 108 33q90 0 140 -84q35 50 83 50q13 0 27 -3z" />
    <glyph glyph-name="l_po_bn" horiz-adv-x="818" 
d="M463 -55l91 59q-47 44 -98 44q-19 0 -48 -8q41 -44 55 -95zM589 439v132h-599v51h838v-51h-77v-849l-162 103v93l-134 -86q-8 -20 -29 -46l-147 68q58 61 58 121q0 91 -143 129l33 38q60 -17 111 -47l-11 30q53 14 113 14q39 0 78 -11t71 -34v172q-24 15 -44 15
q-18 0 -31.5 -11t-22.5 -26t-14.5 -31.5t-8.5 -28.5l-4 -18l-124 71q0 29 -5 59.5t-18 56t-35.5 41.5t-57.5 16q-15 0 -29.5 -6t-26 -15t-19 -21t-7.5 -24q0 -8 0.5 -10.5t1.5 -3.5q8 18 26 31t41 13q15 0 29.5 -7t26.5 -19t19.5 -29.5t7.5 -38.5q0 -41 -30 -73t-78 -37
q-11 0 -20.5 9.5t-24 22.5t-37 25t-58.5 17l1 137q2 28 21.5 54t49 46.5t66 32.5t72.5 12q67 0 117.5 -36t77.5 -96q43 51 100 51q18 0 38 -6z" />
    <glyph glyph-name="l_pho_bn" horiz-adv-x="1287" 
d="M821 163v318q67 39 148 39q62 0 110 -15t81.5 -38t53.5 -51t26 -55v-141q-35 -6 -57 -17.5t-37 -23.5t-25 -20.5t-21 -8.5q-54 8 -73.5 31t-19.5 61q0 22 6 41.5t16.5 34.5t24.5 23.5t31 8.5q40 0 55 -33q0 1 1.5 5t1.5 12q0 16 -10.5 30.5t-26.5 24.5t-35 16t-36 6
q-30 0 -57 -12l1 -422l-34 27q-47 37 -86 61.5t-86.5 42t-113 31.5t-165.5 31l-83 160q20 12 38.5 23.5t35.5 22.5q-24 15 -43 15q-15 0 -25 -9t-16 -21.5t-9 -26.5t-4 -23l-2 -15l-101 41q-5 57 -28.5 90.5t-68.5 33.5q-8 0 -19 -4t-21.5 -11t-17.5 -17t-7 -22q0 -13 3 -16
q5 16 20 28.5t34 12.5q12 0 23.5 -6t21 -16t15.5 -23.5t6 -28.5q0 -17 -6.5 -32t-17 -27t-24 -19t-26.5 -7q-8 0 -16 6.5t-20 15t-30.5 15t-46.5 6.5l-12 105q0 16 15 46t44 52q55 34 107 34q89 0 142 -84q33 50 83 50q20 0 39.5 -7.5t36.5 -20.5t29 -31.5t17 -40.5l62 32
q-36 75 -102 120h-530v51h438l-15 7l39 40q25 -11 50 -22.5t50 -24.5h745v-51h-663q144 -104 144 -218l-170 -99q50 -13 103 -36t110 -55z" />
    <glyph glyph-name="l_bo_bn" horiz-adv-x="819" 
d="M602 -28v71q-25 -8 -51 -16t-54 -18q28 -7 54 -16.5t51 -20.5zM589 417v154h-599v51h839v-51h-77v-729q-41 25 -81 43.5t-85.5 32.5t-98.5 23.5t-119 16.5l-67 106l26 9q75 29 140 50.5t122 34.5v84q-25 16 -44 16q-16 0 -30.5 -12.5t-25.5 -30.5t-17.5 -38t-6.5 -35
l-123 72q0 54 -14 97t-59 66q-11 6 -22.5 8.5t-20.5 2.5q-12 0 -26.5 -5.5t-27 -14.5t-21 -21t-8.5 -25q0 -8 0.5 -10t1.5 -4q9 17 27.5 30t40.5 13q14 0 28.5 -7t26.5 -19t19.5 -29.5t7.5 -38.5q0 -42 -30 -73.5t-78 -36.5q-11 0 -20.5 9.5t-23.5 22.5t-36.5 25t-59.5 17
l1 137q1 12 9.5 28.5t21.5 33t29 31t31 23.5q62 31 118 31q66 0 117 -37.5t78 -97.5q43 52 100 52q15 0 37 -5z" />
    <glyph glyph-name="l_bho_bn" horiz-adv-x="865" 
d="M464 512v59h-474v51h885v-51h-249v-222q34 -25 34 -63q0 -31 -18 -48t-44 -17t-40.5 14t-14.5 31q0 7 3 15l-3 -1q-5 -13 -5 -20q0 -22 21 -38.5t50 -16.5q76 0 139 112q6 0 14.5 -8.5t17 -20.5t15 -25.5t9.5 -23.5q14 -44 14 -79q0 -47 -18.5 -86t-51.5 -68t-78.5 -45
t-99.5 -16q-148 0 -245 124l77 207q22 -97 72.5 -152.5t123.5 -55.5q35 0 57.5 12.5t48.5 49.5q-46 -20 -93 -20q-29 0 -56 9.5t-48 27.5t-34 43t-13 55q0 4 0.5 11.5l1.5 22.5t1.5 40t0.5 64q-8 4 -22 4q-29 0 -42.5 -28.5t-13.5 -65.5l-101 41q-5 60 -29.5 92t-66.5 32
q-9 0 -20 -4t-21.5 -11t-17.5 -17t-7 -22t3 -15q5 15 19.5 27.5t33.5 12.5q12 0 24 -6.5t21.5 -17t15 -24t5.5 -28.5q0 -29 -19.5 -52t-51.5 -31q-11 0 -18 7q-43 37 -97 37l-12 104q0 9 4.5 22t12.5 26.5t18.5 26.5t23.5 23q55 33 108 33q90 0 140 -84q35 50 83 50
q13 0 27 -3z" />
    <glyph glyph-name="l_mo_bn" horiz-adv-x="1126" 
d="M894 198v373h-142v-324q82 -9 142 -49zM590 416v155h-600v51h1146v-51h-77v-736l-165 89v44q-6 31 -24.5 61t-44.5 53t-57.5 37t-64.5 14q-39 0 -61.5 -14.5t-22.5 -31.5q0 -8 2 -10q27 27 76 27q45 0 77 -29.5t32 -78.5q0 -20 -10.5 -38.5t-29.5 -33t-44 -23.5t-53 -9
q-34 0 -49 7t-28 27q-18 29 -49 52t-79 40l45 142q14 30 81 61v21q-25 16 -45 16q-16 0 -30.5 -12t-25.5 -30t-17.5 -38t-6.5 -36l-124 72q0 54 -14 96.5t-58 66.5q-20 11 -43 11q-14 0 -29 -5.5t-27 -14.5t-19.5 -21t-7.5 -24q0 -13 2 -15q8 17 26 30t41 13q15 0 29.5 -7
t26.5 -19t19.5 -29.5t7.5 -38.5q0 -42 -30 -73.5t-78 -36.5q-11 0 -20.5 9.5t-24 22.5t-37 25t-58.5 17l1 137q1 12 9.5 28.5t21.5 33t29 31t31 23.5q62 31 118 31q66 0 117 -37.5t77 -97.5q45 52 101 52q18 0 38 -6z" />
    <glyph glyph-name="l_ro_bn" horiz-adv-x="817" 
d="M590 416v155h-600v51h837v-51h-77v-752l-15 13q-133 97 -307 97q-101 0 -205 -32l49 132l33 5q23 4 44 5t41 1q108 0 199 -41l1 243q-25 16 -45 16q-17 0 -30 -9.5t-23.5 -25.5t-17.5 -37t-11 -44l-122 72q0 54 -14 97t-59 66q-11 6 -22.5 8.5t-20.5 2.5
q-12 0 -26.5 -5.5t-26.5 -14.5t-20.5 -21t-8.5 -25q0 -14 3 -14q8 17 25.5 30t40.5 13q15 0 29.5 -7.5t26.5 -20.5t19 -31t7 -38q0 -42 -30 -72t-78 -35q-11 0 -20 9.5t-23.5 22.5t-37 25t-59.5 17l2 137q1 10 9.5 26.5t21.5 33.5t29 32t32 24q31 17 61 24t56 7
q66 0 117 -37.5t77 -97.5q45 52 100 52q19 0 39 -6z" />
    <glyph glyph-name="l_lo_bn" horiz-adv-x="818" 
d="M591 416v155h-601v51h838v-51h-77v-695l-161 88v25q-22 16 -40 16q-24 0 -38 -32l-8 -32l-102 28q0 124 -86 124q-8 0 -19 -3.5t-21 -9.5t-16.5 -14.5t-6.5 -18.5q0 -7 1 -8l1 -3q13 31 50 31q23 0 42.5 -19t19.5 -48t-22.5 -51.5t-58.5 -26.5q-8 0 -15.5 7t-18.5 16
t-27.5 17.5t-43.5 11.5l1 98q2 16 16.5 34.5t36.5 33.5t49 25t54 10q51 0 89 -26t58 -68q33 36 76 36q18 0 29 -4l1 129q-25 16 -46 16q-18 0 -31.5 -10.5t-22.5 -26t-14.5 -32.5t-8.5 -29l-4 -18l-123 72q0 31 -5.5 62t-18.5 56t-35.5 40.5t-55.5 15.5q-12 0 -26.5 -5
t-27 -14t-21 -21t-8.5 -26t3 -14q8 17 26.5 30t40.5 13q16 0 31 -8t26 -21t18 -30t7 -36q0 -43 -31 -74t-77 -35q-11 0 -20.5 9.5t-24 22.5t-37 25t-59.5 17l2 137q1 11 9 27t21 32.5t29 31.5t33 25q62 31 117 31q66 0 117 -37.5t77 -97.5q45 52 101 52q19 0 39 -6z" />
    <glyph glyph-name="l_so_bn" horiz-adv-x="963" 
d="M733 310v261h-207q119 -97 130 -231q20 -6 39 -12.5t38 -17.5zM467 465q-29 61 -83 106h-394v51h322q-11 4 -31 18l54 34q13 -5 39.5 -18.5t68.5 -33.5h530v-51h-77v-589l-163 102v81q-43 61 -86 75q-28 -114 -143 -191l-217 113q189 68 200 184l-10 -2q-3 0 -13.5 5
t-23 11t-24 11t-14.5 5q-23 0 -37 -24.5t-14 -61.5l-91 38q-2 9 -4 22t-5 25q-8 27 -30 45.5t-48 18.5q-8 0 -18 -3.5t-19 -10t-15.5 -15.5t-6.5 -20q0 -14 4 -14q5 14 17.5 25.5t29.5 11.5q25 0 42.5 -21.5t17.5 -45.5q0 -12 -5 -25.5t-14 -25t-21.5 -18.5t-27.5 -7
q-8 0 -14.5 6t-17 13.5t-26.5 13.5t-43 6l-11 94q1 18 13 39t32.5 38.5t47.5 29.5t58 12q78 0 127 -76q30 45 75 45q34 0 69 -26z" />
    <glyph glyph-name="sh_ukar_bn" horiz-adv-x="914" 
d="M553 -13q-53 0 -102.5 11t-92.5 27t-78.5 35t-60.5 35t-39 26.5l-14 10.5l155 169q13 -44 37.5 -79t58 -59.5t74.5 -37.5t88 -13q67 0 106 23.5t39 57.5q0 17 -7.5 29t-18.5 20t-23 12.5t-20 6.5l-13 2l13 -13q11 -17 11 -33q0 -15 -9 -28t-22.5 -22.5t-30 -15.5
t-32.5 -6q-20 0 -40 6t-35.5 16.5t-25 24t-9.5 28.5q0 10 6 22q30 48 45.5 74.5t25.5 39.5h138q76 49 76 86q0 24 -32 41l-35 -33q-20 -19 -37 -30t-28 -18l-41 -6q-23 0 -26 28q-12 51 -44 75.5t-67 24.5q-14 0 -28.5 -5t-26.5 -15t-20 -24.5t-8 -32.5q0 -26 16.5 -42.5
t36.5 -18.5l-1 3q-13 5 -23.5 19t-10.5 31q0 12 6.5 22t17 17.5t22.5 12t24 4.5q17 0 31 -7t23.5 -19t15 -27t5.5 -31q0 -22 -9 -41t-24.5 -33t-36.5 -22t-44 -8q-40 0 -71.5 19.5t-48.5 47.5q-26 -31 -69.5 -48.5t-86.5 -17.5q-16 0 -31.5 4.5t-27.5 13t-19.5 20.5t-7.5 27
q0 20 8 42.5t8 42.5q0 28 -27 42l-2 2q0 5 18 11.5t44 6.5q42 0 70.5 -18.5t28.5 -46.5q0 -20 -13.5 -39t-27.5 -25l-2 -3q25 2 47 21t22 47q0 33 -17 57.5t-34 35.5q-34 22 -180 22v51q54 -1 87 -0.5t47 -1.5q48 -5 94.5 -24.5t74.5 -57.5q25 38 70.5 61t94.5 23
q51 0 95 -19.5t76 -57.5h1q9 10 64 64q40 -13 72 -32t54.5 -40.5t34.5 -44.5t12 -45q0 -69 -109 -126q97 -67 97 -146q0 -31 -16 -62.5t-43 -51.5l-26 -19q-82 -55 -217 -55z" />
    <glyph glyph-name="sh_co_bn" horiz-adv-x="1167" 
d="M767 190q48 42 93.5 81t90.5 81q-86 23 -184 77v-239zM605 533v110l162 30v-51h410v-51h-410v-58q31 -21 56.5 -31.5t55.5 -17.5t68 -13t94 -17l79 -155q-5 -5 -24.5 -23t-53.5 -47q-224 -197 -258 -203q-14 1 -29.5 5.5t-36.5 13.5t-48.5 24t-64.5 38q0 130 -0.5 196.5
t-1.5 73.5q-9 54 -46 82t-82 28q-22 0 -41.5 -7t-34.5 -19.5t-24 -29t-9 -35.5q0 -15 6 -28.5t16 -23t21 -15.5t22 -7l-3 3q-14 5 -25.5 21t-11.5 36q0 15 8 26.5t19.5 19.5t25 12t25.5 4q39 0 61 -28.5t22 -65.5q0 -24 -10 -45t-27.5 -37t-41.5 -25t-52 -9q-54 0 -89.5 27
t-49.5 69q-53 -48 -117 -48q-24 0 -45.5 8t-37.5 22.5t-25.5 34.5t-9.5 43q0 20 5.5 38t5.5 35q0 24 -14 41q0 3 8 6.5t20.5 7.5t26.5 6.5t26 2.5q37 0 61.5 -19.5t24.5 -53.5q0 -45 -38 -69l-3 -3q28 2 49 23.5t21 56.5q0 19 -7 38t-19 34.5t-27.5 26.5t-33.5 15
q-31 7 -71.5 11t-91.5 4v51h107q184 -12 239 -106q58 49 144 49q26 -1 53 -5.5t52 -16.5z" />
    <glyph glyph-name="sh_cho_bn" horiz-adv-x="1152" 
d="M767 328q66 26 130 81q-53 4 -130 42v-123zM824 78l268 -131l-25 -60l-478 195q-1 0 -1 1l-3 177q45 -35 92 -47.5t104 -12.5q33 0 63.5 5t54 14t37 22t13.5 28q0 10 -8 21q-47 -27 -87.5 -39.5t-78.5 -12.5q-19 0 -56.5 12t-98.5 32l-15 5q0 29 -0.5 46t-1.5 24
q-10 54 -47.5 82t-80.5 28q-23 0 -43 -7.5t-34.5 -20.5t-23 -29.5t-8.5 -34.5q0 -14 6 -26.5t15.5 -22.5t21 -16.5t22.5 -7.5l-2 3q-15 5 -26.5 20.5t-11.5 34.5q0 13 7 24.5t18 20.5t25 14t28 5q39 0 61 -28.5t22 -65.5q0 -24 -10 -45.5t-28 -37t-41.5 -24.5t-50.5 -9
q-54 0 -90 27t-50 69q-53 -48 -117 -48q-24 0 -45.5 8t-37.5 22.5t-25.5 34.5t-9.5 43q0 20 5.5 38t5.5 35q0 24 -14 41q0 3 8 6.5t20.5 7.5t26.5 6.5t26 2.5q37 0 61.5 -19.5t24.5 -53.5q0 -45 -38 -69l-3 -3q28 2 49 23.5t21 56.5q0 66 -48 98t-142 32q-25 0 -28 -1h-32
v51h107q184 -12 239 -106q58 49 144 49q26 -1 53 -5.5t52 -16.5l20 -10v110l162 30v-51h395v-51h-395v-65q70 -34 184 -39q85 -114 94 -121l28 -21q32 -24 32 -69q0 -39 -24.5 -71.5t-64 -56t-90 -37t-102.5 -13.5z" />
    <glyph glyph-name="sh_no_bn" horiz-adv-x="833" 
d="M604 532v111l162 30v-51h77v-51h-77v-723l-162 93v65q-8 29 -32.5 51.5t-55.5 22.5q-14 0 -19 -4.5t-6 -4.5q34 -5 51.5 -27t17.5 -45q0 -15 -7.5 -30t-20.5 -27t-29.5 -19.5t-34.5 -7.5q-73 0 -110 70q-2 8 -2 7q0 10 4 17q21 46 21 77q0 28 -6 49l128 40q2 1 17 1
q44 0 84 -22v203q-12 55 -49.5 82.5t-80.5 27.5q-22 0 -41.5 -7t-34.5 -19.5t-23.5 -29.5t-8.5 -37q0 -15 6 -27.5t15.5 -22t20.5 -15.5t22 -7l-2 3q-15 5 -26 21t-11 35q0 13 6.5 25t17.5 20t24.5 13t28.5 5q39 0 61 -28.5t22 -65.5q0 -24 -10 -45.5t-28 -37t-41.5 -24.5
t-50.5 -9q-54 0 -90 27t-50 69q-48 -48 -117 -48q-23 0 -44 7.5t-37 21.5t-25.5 34t-9.5 46q0 20 4.5 37.5t4.5 34.5q0 22 -13 41q0 2 7 6t18.5 8t26 7t29.5 3q38 0 61.5 -21t23.5 -53q0 -45 -38 -69l-2 -3q27 2 48 23.5t21 56.5q0 63 -46.5 96.5t-143.5 33.5q-25 0 -28 -1
h-31v51h106q185 -12 240 -106q58 49 144 49q34 0 64 -8t60 -25z" />
    <glyph glyph-name="sh_bo_bn" horiz-adv-x="832" 
d="M608 19v73q-34 -10 -61.5 -18.5t-49.5 -16.5q28 -7 55.5 -16t55.5 -22zM605 532v111l160 30v-51h77v-51h-77v-691q-42 27 -84 47t-89 34t-104 24t-129 17l-72 113q0 2 18 8.5t46.5 16.5t64 21l71 22t67 20t51.5 14q0 64 -0.5 98.5t-1.5 41.5q-10 54 -47 82t-82 28
q-20 0 -39.5 -6.5t-34.5 -18.5t-24.5 -29t-9.5 -38q0 -14 5.5 -26.5t14.5 -22.5t20.5 -16.5t23.5 -7.5l-3 3q-14 5 -25 21t-11 35q0 26 23.5 44.5t52.5 18.5q40 0 62 -28.5t22 -65.5q0 -24 -10 -45.5t-28 -37t-41.5 -24.5t-50.5 -9q-54 0 -90 27t-50 69q-53 -48 -116 -48
q-24 0 -46 8t-38 22.5t-25.5 34.5t-9.5 43q0 20 5.5 38t5.5 35q0 23 -15 41q0 2 7 6t18.5 8t26 7t29.5 3q38 0 62.5 -20.5t24.5 -53.5q0 -44 -37 -69l-3 -3q27 2 48 23.5t21 56.5q0 66 -48.5 98t-142.5 32q-25 0 -28 -1h-30v51h106q184 -12 239 -106q61 49 144 49
q27 -1 53.5 -5t49.5 -16z" />
    <glyph glyph-name="sh_mo_bn" horiz-adv-x="1137" 
d="M906 192v379h-142v-330q78 -9 142 -49zM604 532v111l160 30v-51h383v-51h-77v-741l-164 89v44q-6 30 -24.5 60t-44.5 53.5t-57.5 38t-64.5 14.5q-39 0 -61.5 -14t-22.5 -33q0 -8 2 -10q27 27 75 27q22 0 42 -8t35 -22t24 -33.5t9 -42.5q0 -20 -11 -39t-30 -34t-44.5 -24
t-53.5 -9q-32 0 -46.5 6t-28.5 28q-42 60 -128 91l43 144q15 29 85 60q0 64 -0.5 99t-1.5 42q-10 54 -47.5 82t-82.5 28q-22 0 -41.5 -7t-34 -19.5t-23 -29.5t-8.5 -37q0 -15 6 -27.5t15.5 -22t20.5 -15.5t22 -7l-2 3q-14 5 -25.5 21t-11.5 36q0 13 6.5 24t17 19.5t24 13.5
t28.5 5q40 0 62 -28.5t22 -64.5q0 -24 -10 -45.5t-28 -37.5t-41.5 -25t-50.5 -9q-54 0 -90.5 27t-50.5 69q-48 -48 -116 -48q-24 0 -45.5 8.5t-37.5 23t-25 34.5t-9 43q0 19 5 37t5 35q0 24 -14 41q0 2 7 6t19 8t27 7t30 3q37 0 60.5 -20.5t23.5 -53.5q0 -45 -38 -69l-2 -3
q26 2 48 23t22 54q0 133 -192 133q-25 0 -28 -1h-29v51h104q185 -12 240 -106q32 23 70 36t74 13q27 -1 53.5 -5t49.5 -16z" />
    <glyph glyph-name="sh_ro_bn" horiz-adv-x="847" 
d="M614 532v111l166 32v-53h77v-51h-77v-651l-16 14q-137 98 -315 98q-104 0 -208 -32l51 134q2 0 35.5 6t87.5 6q117 0 199 -43v249q-12 55 -48.5 84t-81.5 29q-23 0 -43.5 -7.5t-36 -20.5t-24.5 -30.5t-9 -37.5q0 -14 6 -26.5t15.5 -22t21 -16t22.5 -7.5l-2 2
q-15 5 -26 21.5t-11 36.5q0 15 8 26.5t19.5 19.5t25 12t25.5 4q38 0 62 -27.5t24 -69.5q0 -26 -12 -47t-31 -36t-43 -23.5t-47 -8.5q-55 0 -92.5 27.5t-50.5 69.5q-49 -49 -119 -49q-24 0 -45.5 8t-38 22.5t-26 35t-9.5 45.5q0 20 4.5 38.5t4.5 35.5q0 23 -14 43l7 4
q8 5 30.5 12t45.5 7q39 0 63 -21.5t24 -54.5q0 -46 -38 -70l-2 -3q26 2 48 23.5t22 56.5q0 135 -197 135q-10 0 -13 -1h-42v51h106q102 -7 159 -33.5t85 -74.5q63 51 148 51q26 -1 54 -6t54 -18z" />
    <glyph glyph-name="sh_lo_bn" horiz-adv-x="848" 
d="M615 531v112l166 32v-53h77v-51h-77v-703l-166 90v25q-23 15 -39 15q-11 0 -19 -6t-13.5 -14t-9 -17t-4.5 -16l-2 -10l-104 28q-3 23 -7 45.5t-13.5 40.5t-25.5 29t-43 11q-9 0 -20 -3.5t-20.5 -10t-16 -16.5t-6.5 -22q0 -6 1 -7q6 14 20.5 23.5t31.5 9.5q10 0 21.5 -5.5
t20.5 -14.5t15 -22t6 -28q0 -29 -22.5 -52.5t-60.5 -26.5q-7 0 -14 7q-39 39 -94 47l1 100q4 19 20 38t38.5 34t49.5 24t54 9q51 0 89 -27t58 -70q36 38 79 38q18 0 29 -4l-1 242q-11 55 -48.5 84t-81.5 29q-21 0 -41 -6.5t-36 -19t-25.5 -30.5t-9.5 -40q0 -14 6 -26.5
t15.5 -22t21 -16t22.5 -7.5l-2 2q-15 5 -26.5 21.5t-11.5 36.5q0 13 7 24.5t18.5 19.5t25.5 13t28 5q21 0 36.5 -8t26.5 -21t16.5 -30.5t5.5 -35.5q0 -24 -10.5 -45.5t-28.5 -37t-42 -25t-51 -9.5q-57 0 -93.5 27.5t-49.5 69.5q-49 -49 -119 -49q-24 0 -45.5 8t-38 22.5
t-26 35t-9.5 45.5q0 20 4.5 38.5t4.5 35.5q0 23 -14 43q49 23 85 23q39 0 62 -22t23 -54q0 -44 -38 -70l-2 -3q13 1 26 8t22.5 17.5t15.5 24t6 28.5q0 47 -20.5 74.5t-55 41t-80.5 17t-97 3.5v51h105q101 -6 158.5 -32.5t86.5 -75.5q64 51 149 51q26 -1 53 -6t53 -18z" />
    <glyph glyph-name="ss_ko_bn" horiz-adv-x="846" 
d="M442 33v71q-25 -8 -51 -16t-54 -18q28 -7 54 -16.5t51 -20.5zM434 458v113h-152q28 -19 45.5 -36t28.5 -29.5t17 -19.5t11 -7zM434 271v122q-14 6 -28.5 11.5t-29.5 10.5q-52 -23 -90 -41.5t-64 -31.5q58 -11 110.5 -29t101.5 -42zM589 -95q-70 48 -163 76.5t-217 38.5
l-67 106q54 22 120.5 45.5t154.5 44.5q-63 20 -138.5 35.5t-168.5 26.5l-84 127l67 31q49 23 84 38.5t57 23.5q-25 42 -67 73h-177v51h80q-10 4 -20.5 7t-21.5 7l37 33q30 -11 61 -22.5t63 -24.5h667v-51h-267v-354q87 -10 143 -47t67 -88l-1 -93q-30 -6 -47.5 -13t-28 -13
l-17.5 -10t-17 -4q-45 0 -64 19t-19 51q0 10 4.5 21t12.5 20t18 15t22 6q40 0 52 -23v1q0 1 1.5 4.5t1.5 11.5q0 13 -10 24t-26 19t-35.5 12.5t-38.5 4.5l-18 -1v-229z" />
    <glyph glyph-name="ss_k_ro_bn" horiz-adv-x="1048" 
d="M432 320v108q-11 4 -25.5 8t-33.5 9l-152 -62q114 -20 211 -63zM432 485v86h-132q48 -30 71 -66q14 -4 29.5 -8.5t31.5 -11.5zM555 -44q0 192 -3 212q-32 62 -82 62q-19 0 -30.5 -6.5t-13.5 -6.5l-15 -9q26 -6 47 -23t21 -37q0 -15 -10.5 -29.5t-28.5 -26.5t-42.5 -19.5
t-52.5 -7.5q-17 0 -34 3.5t-30.5 9.5t-22 13.5t-8.5 15.5q0 11 4.5 23.5t4.5 29.5q0 26 -17 55l105 76q-97 21 -238 36l-83 109q5 0 19 7q54 24 100.5 43t88.5 33q-25 32 -51 52h-193v51h97q-29 10 -60 18l37 29q39 -11 73.5 -22.5t64.5 -24.5h856v-51h-470v-280
q40 -12 74.5 -41.5t49.5 -65.5q53 29 109 29q28 0 58.5 -9t56.5 -23t44 -31.5t22 -34.5l-5 -100q-63 -4 -112 -44q-11 -8 -19 -8q-42 3 -67.5 24.5t-25.5 51.5q0 13 6.5 26t17.5 23t25 16.5t29 6.5q20 0 37 -10t23 -23l2 4q1 2 1 11q0 20 -21.5 31.5t-46.5 11.5
q-40 0 -76 -32.5t-58 -89.5l1 -203l-16 11q-139 79 -344 79q-57 0 -111 -6t-106 -19l95 155q85 -5 165.5 -21t158.5 -54z" />
    <glyph glyph-name="ss_tto_bn" horiz-adv-x="1026" 
d="M449 459v112h-147q32 -20 55 -42.5t37 -45.5q3 -1 5 -2.5t4 -1.5zM449 273v122l-53 20l-155 -73q97 -19 208 -69zM609 198q9 -1 20.5 -2.5t21.5 -3t17.5 -2.5t9.5 -1q35 0 67.5 6.5t57 19.5t39.5 32t15 43q0 17 -4 26q-8 -17 -30 -26.5t-48 -9.5q-48 0 -75.5 27.5
t-27.5 70.5q0 51 37.5 87t110.5 36q13 -2 24.5 -14t28 -27t41.5 -30t65 -22l1 -135q-10 -46 -42.5 -87t-80 -72t-107 -49t-124.5 -18h-18q-14 0 -36.5 4t-45 9.5t-42 11.5t-27.5 11l-8 3v125q-61 22 -140.5 39t-179.5 28l-82 127l66 31q49 23 84.5 38t57.5 24q-27 42 -67 73
h-198v51h100q-10 4 -20 7t-21 7l36 33q33 -11 64 -23t60 -24h549q22 19 22 46q0 38 -39 60t-103 22q-23 -1 -48.5 -2.5t-54.5 -6.5l-47 -9l-38 42q-1 0 25 6.5t65.5 15t85.5 15t85 6.5q65 0 117 -11t88 -32t55 -50t19 -65q0 -5 -0.5 -10t-1.5 -10l-158 -17h206v-51h-427
v-373z" />
    <glyph glyph-name="ss_tt_ro_bn" horiz-adv-x="1027" 
d="M452 273v122l-56 20l-56 -27q-25 -12 -49.5 -23t-47.5 -23q96 -19 209 -69zM452 459v112h-149q36 -23 58 -47t43 -45q13 -5 25 -10t23 -10zM612 198q19 -5 41 -7t26 -2q32 0 63.5 6t56.5 18t41 31t18 45q0 11 -2 18t-2 9q-8 -17 -30 -26.5t-48 -9.5q-46 0 -74 26t-28 69
q0 55 38.5 90.5t110.5 35.5q12 -2 23 -14q58 -66 134 -79v-135q-3 -21 -16.5 -45.5t-34 -49t-47.5 -47t-57 -39.5l98 -40v-229l-15 13q-134 87 -302 87q-95 0 -193 -29l47 119q5 0 35.5 5.5t81.5 5.5q102 0 189 -39v84q-62 -22 -139 -22q-15 0 -28 0.5t-26.5 3t-30 6
t-38.5 9.5q-11 3 -24.5 7.5t-27.5 12.5v125q-123 46 -321 67l-84 127l14 7t35.5 16.5t47 21t49 21.5t41 17.5t23.5 9.5q-14 20 -31.5 38.5t-37.5 34.5h-198v51h102l-43 14l38 33q38 -14 68.5 -25.5t53.5 -21.5h550q22 19 22 46q0 38 -37.5 60t-103.5 22q-23 -1 -48.5 -2.5
t-54.5 -6.5l-48 -9l-36 42q0 1 15 5t39 9t53.5 10t58 9t53 7t39.5 3q63 0 114 -10.5t88 -30t57 -48.5t20 -66q0 -5 -0.5 -11t-1.5 -12l-156 -17h205v-51h-425v-373z" />
    </font>
</defs>
</svg>
